<svg width="200" height="160" viewBox="0 0 200 160" fill="none" xmlns="http://www.w3.org/2000/svg">
<path d="M3.38936 74.305L34.3027 71.5751L30.9273 46.5641L0 49.0423L0.41844 50.9784L1.3483 50.7035C1.95737 50.6803 2.23168 51.0094 2.32001 51.5128C2.31774 51.5231 2.31774 51.5336 2.32001 51.5438C2.38975 52.0549 2.24562 52.5312 1.64121 52.6396L0.478882 52.5816L0.715996 54.3396C0.715996 54.3396 2.76635 53.9523 2.86398 55.0366C2.86398 55.0366 2.771 56.0434 0.929865 55.935L1.12514 57.3987C1.12514 57.3987 3.17549 56.934 3.29172 58.0608C3.38936 59.0173 2.19448 59.0909 1.3576 59.118L1.56682 60.6669C1.56682 60.6669 3.60788 60.3145 3.57998 61.4723C3.55208 62.6301 1.80394 62.4094 1.80394 62.4094L2.06895 64.3804C2.06895 64.3804 3.95658 63.6911 4.11465 64.8683C4.27273 66.0454 2.7524 65.9564 2.25492 65.8635L2.45484 67.362C2.45484 67.362 4.38431 66.6728 4.47265 68.1829C4.53774 69.3175 2.65941 68.8528 2.65941 68.8528L2.93837 70.94C2.93837 70.94 4.83065 70.2701 4.97943 71.3931C5.08636 72.1907 3.92868 72.5547 3.1197 72.1907L3.38936 74.305Z" fill="#F5F5F5"/>
<path d="M26.6102 44.7438L8.07623 45.3044L8.2605 49.5302L26.7944 48.9695L26.6102 44.7438Z" fill="#E0E0E0"/>
<path d="M27.1567 53.1392C26.9059 53.1845 26.6507 53.2117 26.3942 53.2205L24.3113 53.3599C22.5539 53.4683 20.1269 53.6038 17.4443 53.7471C14.7616 53.8904 12.33 53.9988 10.5679 54.0724L8.48038 54.146C8.22679 54.1661 7.97148 54.1661 7.7179 54.146C7.96798 54.1052 8.22124 54.0793 8.47573 54.0685L10.5586 53.9291C12.3161 53.8207 14.743 53.6852 17.4303 53.5419C20.1176 53.3986 22.5446 53.2902 24.302 53.2166L26.3896 53.143C26.6448 53.1258 26.9013 53.1245 27.1567 53.1392V53.1392Z" fill="#E0E0E0"/>
<path d="M27.8959 56.2757C27.6451 56.3215 27.39 56.3487 27.1334 56.357L25.0505 56.4926C23.2931 56.6049 20.8661 56.7404 18.1835 56.8798C15.5008 57.0192 13.0692 57.1315 11.3071 57.2051L9.22423 57.2786C8.96895 57.2962 8.71237 57.2962 8.45709 57.2786C8.7067 57.2354 8.96018 57.2095 9.21493 57.2012L11.2978 57.0618C13.0553 56.9534 15.4822 56.814 18.1695 56.6746C20.8568 56.5352 23.2838 56.419 25.0412 56.3493L27.1288 56.2718C27.3843 56.2581 27.6406 56.2594 27.8959 56.2757V56.2757Z" fill="#E0E0E0"/>
<path d="M28.1609 59.4974C27.9108 59.5382 27.6576 59.5641 27.4031 59.5749L25.3202 59.7143C23.5627 59.8227 21.1358 59.9582 18.4531 60.1015C15.7705 60.2448 13.3389 60.3532 11.5768 60.4268L9.48924 60.5042C9.2354 60.5194 8.98058 60.5194 8.72675 60.5042C8.9759 60.4582 9.22955 60.4309 9.48459 60.4229L11.5675 60.2835C13.3249 60.1751 15.7519 60.0396 18.4345 59.8963C21.1172 59.753 23.5488 59.6446 25.3109 59.571L27.3984 59.4974C27.652 59.4772 27.9073 59.4772 28.1609 59.4974V59.4974Z" fill="#E0E0E0"/>
<path d="M28.6352 62.7153C28.3845 62.7607 28.1292 62.7866 27.8727 62.7927L25.7945 62.9321C24.0371 63.0444 21.6101 63.18 18.9228 63.3194C16.2355 63.4588 13.8085 63.5711 12.0464 63.6408L9.96355 63.7182C9.70827 63.7358 9.45169 63.7358 9.19641 63.7182C9.44561 63.673 9.69931 63.647 9.95425 63.6408L12.0371 63.5014C13.7946 63.3929 16.2215 63.2535 18.9088 63.1141C21.5962 62.9747 24.0231 62.8586 25.7806 62.7889L27.8681 62.7114C28.1236 62.6977 28.38 62.699 28.6352 62.7153Z" fill="#E0E0E0"/>
<path d="M29.7092 66.1849C29.4585 66.2303 29.2032 66.2562 28.9467 66.2623L26.8685 66.4017C25.111 66.5101 22.6841 66.6495 19.9968 66.7889C17.3095 66.9283 14.8825 67.0445 13.1204 67.1142L11.0375 67.1916C10.7821 67.2068 10.5258 67.2068 10.2704 67.1916C10.5211 67.1462 10.7764 67.1203 11.0329 67.1142L13.1111 66.9748C14.8686 66.8625 17.2955 66.727 19.9828 66.5876C22.6701 66.4482 25.0971 66.3359 26.8592 66.2623L28.9421 66.1887C29.1972 66.1698 29.4538 66.1685 29.7092 66.1849V66.1849Z" fill="#E0E0E0"/>
<path d="M23.9394 6.96621L23.7441 32.8562H53.9647L54.4622 6.96621L52.1003 7.09787L52.3235 7.87233C52.2816 8.38347 51.8585 8.57321 51.2495 8.5887H51.2123C50.5939 8.5887 50.0407 8.41832 49.9802 7.90718L50.1801 6.94685H48.0554C48.0554 6.94685 48.2925 8.68938 46.9814 8.64678C46.9814 8.64678 45.7912 8.46091 46.1306 6.94685H44.3592C44.3592 6.94685 44.6846 8.69712 43.327 8.66614C42.174 8.63904 42.2251 7.64386 42.2809 6.94685H40.4212C40.4212 6.94685 40.6118 8.67389 39.2356 8.52287C37.8594 8.37185 38.3058 6.94685 38.3058 6.94685H35.9346C35.9346 6.94685 36.5437 8.58482 35.1256 8.58482C33.7076 8.58482 33.9772 7.33795 34.1446 6.94685H32.3314C32.3314 6.94685 32.9358 8.6158 31.1272 8.52287C29.765 8.45317 30.5274 6.94685 30.5274 6.94685H28.0075C28.0075 6.94685 28.598 8.58482 27.2404 8.58482C26.2733 8.58482 25.9479 7.58578 26.4965 6.94685L23.9394 6.96621Z" fill="#FAFAFA"/>
<path d="M30.6651 3.26328L18.6541 10.4172L21.0043 13.1543L33.0153 6.0004L30.6651 3.26328Z" fill="#EBEBEB"/>
<path d="M57.6015 26.9619L45.5906 34.1158L47.9408 36.8529L59.9517 29.699L57.6015 26.9619Z" fill="#EBEBEB"/>
<path d="M51.2774 13.8046C51.1989 13.8151 51.1188 13.8151 51.0403 13.8046H50.3615L47.8741 13.8395C45.7726 13.8395 42.8668 13.8666 39.6634 13.8666C36.46 13.8666 33.5495 13.8666 31.448 13.8395L28.9606 13.8434H28.2818C28.2049 13.8541 28.1263 13.8541 28.0494 13.8434C28.1266 13.8353 28.2047 13.8353 28.2818 13.8434H28.9606L31.448 13.8124C33.5495 13.8124 36.4554 13.7814 39.6634 13.7814C42.8714 13.7814 45.7726 13.7814 47.8741 13.8124L50.3615 13.8434H51.0403C51.1171 13.8223 51.1967 13.8093 51.2774 13.8046V13.8046Z" fill="#E0E0E0"/>
<path d="M50.7148 18.4514C50.641 18.4622 50.5654 18.4622 50.4916 18.4514H49.8454L47.4696 18.4824C45.4657 18.5017 42.6947 18.5133 39.6308 18.5133C36.5669 18.5133 33.8005 18.5133 31.7967 18.4824L29.4255 18.5017H28.7793C28.7039 18.5123 28.6269 18.5123 28.5515 18.5017C28.6269 18.4911 28.7039 18.4911 28.7793 18.5017H29.4255L31.8013 18.4707C33.8052 18.4707 36.5762 18.4398 39.6354 18.4398C42.6947 18.4398 45.4703 18.4398 47.4742 18.4707L49.85 18.5017H50.4963C50.5649 18.4743 50.6389 18.4572 50.7148 18.4514V18.4514Z" fill="#E0E0E0"/>
<path d="M40.1655 22.9587C39.626 23.0169 39.0821 23.0414 38.5382 23.0323C37.534 23.0323 36.1485 23.0594 34.6188 23.0594C33.0892 23.0594 31.6991 23.0594 30.6995 23.0323C30.1556 23.0414 29.6117 23.0169 29.0722 22.9587C29.612 22.9034 30.1557 22.8801 30.6995 22.889C31.6991 22.889 33.0892 22.858 34.6188 22.858C36.1485 22.858 37.534 22.858 38.5382 22.889C39.0819 22.8801 39.6257 22.9034 40.1655 22.9587V22.9587Z" fill="#E0E0E0"/>
<path d="M200 159.735C200 159.789 156.905 159.836 103.759 159.836C50.6125 159.836 7.51794 159.789 7.51794 159.735C7.51794 159.681 50.6079 159.634 103.759 159.634C156.91 159.634 200 159.681 200 159.735Z" fill="#263238"/>
<path d="M160.095 144.718C159.272 145.698 157.668 145.373 156.929 144.777C156.189 144.18 155.873 143.309 155.585 142.484C154.934 140.594 154.279 138.612 154.762 136.676C154.879 136.094 155.187 135.55 155.65 135.104C155.885 134.883 156.185 134.719 156.52 134.626C156.856 134.532 157.215 134.514 157.561 134.573C158.37 134.751 158.872 135.409 159.235 136.033C160.301 137.882 160.86 139.906 160.871 141.958C160.949 142.917 160.678 143.873 160.095 144.703" fill="#FF725E"/>
<path opacity="0.2" d="M160.095 144.718C159.272 145.698 157.668 145.373 156.929 144.777C156.189 144.18 155.873 143.309 155.585 142.484C154.934 140.594 154.279 138.612 154.762 136.676C154.879 136.094 155.187 135.55 155.65 135.104C155.885 134.883 156.185 134.719 156.52 134.626C156.856 134.532 157.215 134.514 157.561 134.573C158.37 134.751 158.872 135.409 159.235 136.033C160.301 137.882 160.86 139.906 160.871 141.958C160.949 142.917 160.678 143.873 160.095 144.703" fill="black"/>
<path d="M157.008 149.679C155.628 149.14 154.077 148.983 152.582 149.23C151.764 149.292 150.994 149.578 150.392 150.043C149.848 150.546 149.745 151.429 150.392 151.863C150.801 152.093 151.295 152.196 151.787 152.153C152.958 152.153 154.255 151.971 155.19 152.54C155.725 152.877 156.083 153.431 156.719 153.598C157.039 153.659 157.374 153.632 157.673 153.521C157.972 153.41 158.22 153.221 158.379 152.982C158.682 152.493 158.749 151.926 158.565 151.398C158.483 151.031 158.299 150.684 158.029 150.386C157.759 150.088 157.409 149.846 157.008 149.679V149.679Z" fill="#FF725E"/>
<path d="M162.354 146.124C161.932 145.664 161.65 145.124 161.534 144.553C161.418 143.981 161.472 143.395 161.69 142.844C162.14 141.745 162.944 140.77 164.014 140.025C165.235 139.12 166.656 138.423 168.199 137.973C168.788 137.774 169.423 137.683 170.058 137.706C170.377 137.719 170.686 137.797 170.961 137.931C171.235 138.066 171.466 138.255 171.634 138.48C172.076 139.181 171.634 140.029 171.197 140.718C170.393 141.938 169.476 143.103 168.454 144.203C167.631 145.086 166.692 145.954 165.437 146.356C164.182 146.759 162.88 146.705 162.22 145.969" fill="#FF725E"/>
<path d="M160.151 159.495C160.104 159.35 160.079 159.2 160.076 159.05C160.039 158.724 159.988 158.318 159.932 157.834C159.86 157.236 159.752 156.641 159.607 156.053C159.414 155.335 159.153 154.632 158.826 153.95C158.508 153.268 158.074 152.628 157.538 152.049C157.101 151.577 156.546 151.191 155.91 150.918C155.471 150.739 155 150.619 154.516 150.562C154.351 150.553 154.187 150.531 154.027 150.496C154.207 150.477 154.388 150.477 154.567 150.496C155.062 150.527 155.547 150.632 155.999 150.806C156.67 151.069 157.259 151.459 157.719 151.944C158.277 152.531 158.727 153.183 159.053 153.88C159.386 154.573 159.646 155.288 159.83 156.018C159.965 156.614 160.059 157.217 160.113 157.822C160.16 158.337 160.174 158.755 160.183 159.046C160.191 159.196 160.18 159.347 160.151 159.495V159.495Z" fill="#263238"/>
<path d="M160.072 158.562C160.066 158.492 160.066 158.422 160.072 158.353C160.072 158.198 160.072 158.004 160.072 157.764C160.072 157.249 160.072 156.509 160.039 155.592C159.983 153.76 159.793 151.232 159.43 148.451C159.067 145.671 158.57 143.169 158.128 141.377C158.021 140.927 157.914 140.521 157.817 140.168C157.719 139.816 157.64 139.506 157.561 139.258C157.482 139.011 157.44 138.836 157.394 138.685C157.37 138.619 157.356 138.55 157.352 138.48C157.39 138.541 157.418 138.606 157.435 138.674L157.645 139.239C157.733 139.487 157.831 139.789 157.933 140.145C158.035 140.501 158.165 140.92 158.277 141.35C158.872 143.689 159.315 146.053 159.607 148.432C159.974 151.216 160.137 153.752 160.151 155.592C160.151 156.509 160.151 157.253 160.113 157.764C160.095 158.004 160.081 158.202 160.072 158.357C160.082 158.425 160.082 158.494 160.072 158.562V158.562Z" fill="#263238"/>
<path d="M160.034 153.667C160.015 153.462 160.015 153.256 160.034 153.052C160.062 152.664 160.127 152.083 160.262 151.379C160.423 150.557 160.64 149.744 160.913 148.943C161.24 147.96 161.648 146.998 162.136 146.062C162.986 144.345 164.204 142.77 165.73 141.415C165.993 141.182 166.274 140.964 166.571 140.761C166.702 140.668 166.818 140.579 166.934 140.505L167.259 140.316C167.459 140.192 167.668 140.081 167.887 139.983C167.169 140.455 166.485 140.963 165.841 141.504C164.364 142.875 163.18 144.447 162.34 146.151C161.855 147.079 161.443 148.032 161.108 149.005C160.788 149.899 160.578 150.724 160.416 151.417C160.253 152.111 160.174 152.68 160.123 153.071C160.11 153.271 160.081 153.47 160.034 153.667Z" fill="#263238"/>
<path d="M160.806 125.4L60.2227 114.747L77.7414 0L180.826 10.9198C181.367 10.9768 181.858 11.2104 182.192 11.5691C182.526 11.9278 182.675 12.3824 182.607 12.8327L165.92 122.1C165.845 122.597 165.653 123.076 165.355 123.511C165.058 123.945 164.66 124.327 164.185 124.633C163.71 124.94 163.167 125.165 162.587 125.297C162.007 125.428 161.402 125.463 160.806 125.4V125.4Z" fill="#455A64"/>
<path d="M174.18 30.1512L173.327 35.7327L185.799 37.054L186.651 31.4726L174.18 30.1512Z" fill="#FF725E"/>
<path opacity="0.3" d="M174.18 30.1512L173.327 35.7327L185.799 37.054L186.651 31.4726L174.18 30.1512Z" fill="black"/>
<path d="M178.872 13.8701L81.6021 3.56395L64.9351 112.68L162.205 122.986L178.872 13.8701Z" fill="#E0E0E0"/>
<path d="M174.742 12.0754L77.4713 1.7692L60.8043 110.886L158.075 121.192L174.742 12.0754Z" fill="#FAFAFA"/>
<path d="M78.9847 12.3758L78.926 12.7599L175.855 23.0299L175.914 22.6458L78.9847 12.3758Z" fill="#E0E0E0"/>
<path d="M78.765 17.8684L78.7063 18.2525L175.635 28.5226L175.694 28.1384L78.765 17.8684Z" fill="#E0E0E0"/>
<path d="M77.9389 23.2915L77.8802 23.6757L174.809 33.9457L174.868 33.5616L77.9389 23.2915Z" fill="#E0E0E0"/>
<path d="M77.6382 29.0094L77.5778 29.3927L174.311 39.9721L174.371 39.5887L77.6382 29.0094Z" fill="#E0E0E0"/>
<path d="M76.7913 34.4551L76.7309 34.8385L173.464 45.4179L173.524 45.0345L76.7913 34.4551Z" fill="#E0E0E0"/>
<path d="M75.9444 39.897L75.884 40.2804L172.617 50.8598L172.678 50.4764L75.9444 39.897Z" fill="#E0E0E0"/>
<path d="M75.1022 45.3428L75.0417 45.7262L171.775 56.3056L171.835 55.9222L75.1022 45.3428Z" fill="#E0E0E0"/>
<path d="M73.7942 50.4203L73.7355 50.8044L170.665 61.0745L170.723 60.6903L73.7942 50.4203Z" fill="#E0E0E0"/>
<path d="M72.9682 55.8473L72.9095 56.2314L169.839 66.5014L169.897 66.1173L72.9682 55.8473Z" fill="#E0E0E0"/>
<path d="M72.5702 61.6806L72.5098 62.064L169.243 72.6433L169.303 72.26L72.5702 61.6806Z" fill="#E0E0E0"/>
<path d="M71.7234 67.1225L71.663 67.5059L168.396 78.0852L168.457 77.7019L71.7234 67.1225Z" fill="#E0E0E0"/>
<path d="M70.8765 72.5682L70.816 72.9516L167.549 83.531L167.61 83.1476L70.8765 72.5682Z" fill="#E0E0E0"/>
<path d="M70.0336 78.0179L69.9732 78.4012L166.706 88.9806L166.767 88.5972L70.0336 78.0179Z" fill="#E0E0E0"/>
<path d="M68.3445 88.906L68.2841 89.2894L165.017 99.8687L165.078 99.4854L68.3445 88.906Z" fill="#E0E0E0"/>
<path d="M67.5023 94.3518L67.4418 94.7352L164.175 105.315L164.235 104.931L67.5023 94.3518Z" fill="#E0E0E0"/>
<path d="M66.6554 99.7937L66.595 100.177L163.328 110.756L163.389 110.373L66.6554 99.7937Z" fill="#E0E0E0"/>
<path d="M65.5095 104.683L65.4509 105.067L162.38 115.337L162.439 114.953L65.5095 104.683Z" fill="#E0E0E0"/>
<path d="M92.7182 3.96068L76.0176 112.691L76.4788 112.74L93.1793 4.00981L92.7182 3.96068Z" fill="#FF725E"/>
<path d="M85.9428 8.49964C85.8928 8.82542 85.728 9.13154 85.4693 9.37935C85.2105 9.62715 84.8693 9.80551 84.4889 9.89189C84.1084 9.97826 83.7058 9.96878 83.3318 9.86464C82.9578 9.76049 82.6293 9.56636 82.3878 9.30677C82.1462 9.04719 82.0025 8.73379 81.9747 8.40618C81.9469 8.07858 82.0363 7.75147 82.2317 7.46618C82.4271 7.1809 82.7196 6.95024 83.0722 6.80336C83.4249 6.65648 83.822 6.59996 84.2132 6.64095C84.4734 6.66821 84.7246 6.73794 84.9524 6.84615C85.1802 6.95436 85.3802 7.09892 85.5408 7.27156C85.7015 7.4442 85.8197 7.64153 85.8886 7.85226C85.9576 8.06299 85.976 8.28298 85.9428 8.49964V8.49964Z" fill="#455A64"/>
<path d="M84.0923 20.6043C84.0431 20.9305 83.8788 21.2372 83.6202 21.4856C83.3616 21.7339 83.0203 21.9128 82.6396 21.9995C82.2588 22.0863 81.8558 22.077 81.4814 21.9728C81.107 21.8687 80.7781 21.6743 80.5364 21.4144C80.2947 21.1545 80.1511 20.8407 80.1236 20.5128C80.0961 20.1848 80.1861 19.8575 80.3822 19.5721C80.5782 19.2868 80.8715 19.0563 81.2249 18.9099C81.5783 18.7635 81.9759 18.7076 82.3674 18.7495C82.8906 18.8065 83.3656 19.0335 83.6887 19.381C84.0118 19.7284 84.1569 20.1682 84.0923 20.6043V20.6043Z" fill="#455A64"/>
<path d="M82.2419 32.713C82.191 33.0377 82.0258 33.3426 81.7671 33.5892C81.5084 33.8357 81.1678 34.013 80.7882 34.0985C80.4087 34.184 80.0072 34.1739 79.6346 34.0696C79.2619 33.9652 78.9347 33.7713 78.6942 33.5122C78.4538 33.2531 78.3109 32.9405 78.2836 32.6138C78.2562 32.2871 78.3457 31.961 78.5407 31.6767C78.7357 31.3923 79.0275 31.1624 79.3792 31.0161C79.731 30.8697 80.1269 30.8134 80.517 30.8543C80.777 30.8815 81.028 30.9513 81.2556 31.0595C81.4832 31.1678 81.6828 31.3124 81.8431 31.4851C82.0034 31.6578 82.1211 31.8552 82.1895 32.0659C82.258 32.2766 82.2758 32.4965 82.2419 32.713V32.713Z" fill="#455A64"/>
<path d="M80.3961 44.8177C80.347 45.1437 80.1829 45.4503 79.9246 45.6987C79.6663 45.9471 79.3253 46.126 78.9448 46.213C78.5643 46.2999 78.1614 46.291 77.7871 46.1872C77.4127 46.0834 77.0838 45.8895 76.8418 45.6299C76.5998 45.3704 76.4556 45.0569 76.4275 44.7292C76.3995 44.4014 76.4888 44.074 76.6841 43.7885C76.8794 43.503 77.1721 43.2722 77.5249 43.1252C77.8778 42.9782 78.2751 42.9217 78.6666 42.9628C79.1906 43.0189 79.6667 43.2455 79.9908 43.5931C80.3149 43.9406 80.4606 44.3809 80.3961 44.8177V44.8177Z" fill="#455A64"/>
<path d="M78.5457 56.9262C78.4965 57.2524 78.3322 57.5591 78.0736 57.8075C77.8149 58.0558 77.4737 58.2347 77.0929 58.3214C76.7122 58.4082 76.3091 58.3989 75.9348 58.2947C75.5604 58.1906 75.2315 57.9962 74.9898 57.7363C74.7481 57.4764 74.6044 57.1626 74.577 56.8347C74.5495 56.5067 74.6395 56.1794 74.8356 55.894C75.0316 55.6087 75.3249 55.3782 75.6783 55.2318C76.0317 55.0854 76.4293 55.0295 76.8208 55.0714C77.0804 55.0987 77.331 55.1683 77.5582 55.2763C77.7855 55.3843 77.9849 55.5286 78.1451 55.7009C78.3053 55.8732 78.4232 56.0701 78.4919 56.2803C78.5607 56.4906 78.5789 56.7101 78.5457 56.9262Z" fill="#455A64"/>
<path d="M76.6952 69.0349C76.6444 69.3596 76.4792 69.6645 76.2205 69.9111C75.9618 70.1576 75.6211 70.3349 75.2416 70.4204C74.8621 70.5059 74.4606 70.4958 74.0879 70.3915C73.7152 70.2871 73.388 70.0932 73.1476 69.8341C72.9071 69.575 72.7642 69.2624 72.7369 68.9357C72.7096 68.609 72.7991 68.2829 72.9941 67.9986C73.1891 67.7142 73.4809 67.4843 73.8326 67.338C74.1843 67.1916 74.5802 67.1353 74.9703 67.1762C75.2304 67.2034 75.4814 67.2732 75.709 67.3814C75.9365 67.4897 76.1362 67.6343 76.2965 67.807C76.4567 67.9797 76.5745 68.1771 76.6429 68.3878C76.7113 68.5985 76.7291 68.8184 76.6952 69.0349V69.0349Z" fill="#455A64"/>
<path d="M74.8495 81.1396C74.8001 81.4659 74.6356 81.7727 74.3767 82.021C74.1178 82.2694 73.7762 82.4481 73.3952 82.5347C73.0143 82.6212 72.611 82.6116 72.2366 82.507C71.8622 82.4025 71.5335 82.2077 71.2921 81.9475C71.0507 81.6872 70.9075 81.3731 70.8806 81.0449C70.8537 80.7168 70.9444 80.3894 71.1412 80.1043C71.3379 79.8191 71.6319 79.589 71.9858 79.4431C72.3397 79.2972 72.7377 79.2421 73.1292 79.2848C73.6521 79.3417 74.1266 79.5689 74.449 79.9164C74.7714 80.264 74.9154 80.7038 74.8495 81.1396Z" fill="#455A64"/>
<path d="M72.999 93.2482C72.9489 93.5741 72.7839 93.8803 72.5249 94.1281C72.2658 94.3759 71.9244 94.5541 71.5437 94.6403C71.163 94.7264 70.7602 94.7167 70.3862 94.6121C70.0121 94.5076 69.6838 94.3131 69.4425 94.0531C69.2013 93.7931 69.058 93.4794 69.0308 93.1517C69.0036 92.8239 69.0938 92.4967 69.2898 92.2116C69.4859 91.9265 69.7791 91.6962 70.1323 91.5499C70.4855 91.4035 70.8828 91.3477 71.2741 91.3895C71.5342 91.4167 71.7852 91.4865 72.0128 91.5947C72.2403 91.703 72.44 91.8476 72.6003 92.0203C72.7605 92.193 72.8783 92.3904 72.9467 92.6011C73.0151 92.8118 73.0329 93.0317 72.999 93.2482V93.2482Z" fill="#455A64"/>
<path d="M71.1533 105.353C71.1042 105.679 70.9401 105.986 70.6818 106.234C70.4234 106.482 70.0824 106.661 69.702 106.748C69.3215 106.835 68.9186 106.826 68.5442 106.722C68.1699 106.619 67.8409 106.425 67.5989 106.165C67.3569 105.906 67.2127 105.592 67.1847 105.264C67.1566 104.937 67.2459 104.609 67.4412 104.324C67.6366 104.038 67.9292 103.807 68.2821 103.66C68.635 103.513 69.0323 103.457 69.4237 103.498C69.9478 103.554 70.4239 103.781 70.748 104.128C71.0721 104.476 71.2178 104.916 71.1533 105.353V105.353Z" fill="#455A64"/>
<path d="M76.0676 13.3051C76.0676 13.3245 75.9885 13.3245 75.8491 13.3051C75.6445 13.2774 75.4437 13.2333 75.2493 13.1735C74.9388 13.0715 74.6426 12.9417 74.3659 12.7862C73.9971 12.5765 73.668 12.322 73.3896 12.0311C73.058 11.6729 72.8003 11.2711 72.6271 10.8424C72.4304 10.3516 72.3284 9.83794 72.3249 9.32056C72.2985 8.73166 72.4419 8.14607 72.7433 7.61289C73.0975 7.0516 73.6155 6.57354 74.2497 6.22274C74.8712 5.8743 75.5751 5.64061 76.314 5.53735C76.9929 5.44438 77.6854 5.44438 78.3643 5.53735C79.4907 5.7022 80.5649 6.05663 81.5212 6.57899C82.1546 6.91681 82.7464 7.30593 83.288 7.74067C83.6646 8.05045 83.8459 8.24407 83.8133 8.27505C83.7808 8.30603 83.5344 8.17437 83.1066 7.92267C82.5084 7.56723 81.8876 7.23891 81.2469 6.93911C80.3228 6.5019 79.309 6.21171 78.2574 6.08334C77.6501 6.01456 77.0336 6.02501 76.4302 6.11432C75.7912 6.21028 75.1832 6.416 74.6449 6.71839C74.1112 7.01402 73.671 7.41252 73.3617 7.88007C73.1063 8.32877 72.9774 8.82017 72.9851 9.31669C72.9756 9.77833 73.0461 10.2387 73.1943 10.6836C73.3253 11.07 73.5276 11.4371 73.794 11.7717C74.0224 12.0463 74.2946 12.2939 74.603 12.5074C74.8398 12.6715 75.0933 12.8179 75.3609 12.945C75.5794 13.0534 75.7654 13.1115 75.8862 13.1735C76.0071 13.2354 76.0769 13.2858 76.0676 13.3051Z" fill="#FF725E"/>
<path d="M74.2218 25.4215C74.2218 25.4447 74.1381 25.4215 73.9986 25.4215C73.7942 25.3916 73.5934 25.3462 73.3989 25.2859C73.0886 25.1862 72.7937 25.0563 72.5202 24.8987C72.1483 24.6937 71.8186 24.44 71.5438 24.1475C71.2088 23.7911 70.9508 23.3888 70.7813 22.9587C70.5847 22.4666 70.4827 21.9517 70.4791 21.433C70.449 20.8443 70.591 20.2583 70.8929 19.7254C71.25 19.1668 71.7675 18.6906 72.3993 18.3391C73.0218 17.9888 73.7273 17.7537 74.4682 17.6498C75.1471 17.5568 75.8397 17.5568 76.5186 17.6498C77.6441 17.813 78.7172 18.1675 79.6708 18.6915C80.3042 19.0293 80.896 19.4184 81.4376 19.8532C81.8188 20.1629 82.0001 20.3565 81.9676 20.3875C81.935 20.4185 81.6886 20.283 81.2562 20.0351C80.6593 19.678 80.0384 19.3497 79.3965 19.0516C78.4724 18.6136 77.4587 18.3221 76.407 18.1919C75.7981 18.1231 75.1802 18.1336 74.5752 18.2229C73.9413 18.3238 73.3396 18.5335 72.8084 18.8386C72.2747 19.1342 71.8345 19.5327 71.5252 20.0003C71.2685 20.4486 71.1397 20.9403 71.1486 21.4369C71.1357 21.8997 71.2046 22.3616 71.3532 22.8077C71.4835 23.195 71.6875 23.5624 71.9576 23.8958C72.1819 24.1708 72.4528 24.4173 72.7619 24.6277C72.9982 24.7922 73.2518 24.9387 73.5198 25.0652C73.7383 25.1775 73.9289 25.2356 74.0451 25.2976C74.1614 25.3595 74.2265 25.3905 74.2218 25.4215Z" fill="#FF725E"/>
<path d="M72.3713 37.5185C72.3713 37.5185 72.2876 37.5185 72.1482 37.5185C71.9453 37.4902 71.746 37.4461 71.5531 37.3868C70.8218 37.1568 70.1791 36.7661 69.6933 36.2561C69.3593 35.8977 69.1014 35.4943 68.9308 35.0634C68.7342 34.5727 68.6322 34.059 68.6286 33.5416C68.6022 32.9527 68.7457 32.3671 69.0471 31.834C69.3984 31.2733 69.9152 30.7962 70.5488 30.4477C71.1721 30.0986 71.8773 29.8637 72.6177 29.7584C73.2966 29.6654 73.9892 29.6654 74.6681 29.7584C75.7954 29.9227 76.87 30.2786 77.825 30.8039C78.4571 31.1416 79.0474 31.5307 79.5871 31.9656C79.9683 32.2715 80.1497 32.4651 80.1171 32.4961C80.0846 32.5271 79.8381 32.3954 79.4104 32.1437C78.8112 31.7907 78.1905 31.4637 77.5507 31.1641C76.6278 30.7238 75.6136 30.4322 74.5612 30.3044C73.9539 30.2356 73.3374 30.246 72.734 30.3354C72.095 30.4314 71.487 30.6371 70.9486 30.9395C70.4149 31.2351 69.9748 31.6336 69.6654 32.1011C69.41 32.5498 69.2812 33.0412 69.2888 33.5378C69.2748 33.9996 69.3453 34.4605 69.4981 34.9047C69.6268 35.2918 69.8293 35.6591 70.0978 35.9928C70.3248 36.2672 70.5954 36.5147 70.9022 36.7285C71.1405 36.8908 71.3939 37.0371 71.66 37.1661C71.8832 37.2745 72.0691 37.3365 72.1854 37.3984C72.3016 37.4604 72.3806 37.4991 72.3713 37.5185Z" fill="#FF725E"/>
<path d="M70.521 49.627C70.521 49.6464 70.4419 49.6464 70.3024 49.627C70.0979 49.5976 69.8971 49.5522 69.7027 49.4915C69.3916 49.3934 69.0964 49.2633 68.824 49.1043C68.4516 48.8983 68.1205 48.6448 67.843 48.3531C67.5114 47.9948 67.2537 47.593 67.0805 47.1643C66.8879 46.6713 66.786 46.1569 66.7783 45.6386C66.7526 45.0497 66.896 44.4643 67.1967 43.9309C67.5538 43.3724 68.0713 42.8961 68.7031 42.5446C69.3236 42.1946 70.0279 41.9607 70.7674 41.8593C71.4463 41.7663 72.1388 41.7663 72.8177 41.8593C73.9449 42.0216 75.0197 42.3763 75.9746 42.9009C76.608 43.2387 77.1998 43.6278 77.7414 44.0626C78.118 44.3724 78.2993 44.566 78.2714 44.5969C78.2435 44.6279 77.9878 44.4963 77.56 44.2446C76.9624 43.8884 76.3416 43.56 75.7003 43.261C74.7753 42.8247 73.762 42.5334 72.7108 42.4014C72.1018 42.3345 71.4842 42.345 70.879 42.4323C70.2403 42.5314 69.6327 42.7383 69.0936 43.0403C68.5669 43.3124 68.1359 43.6958 67.8444 44.1514C67.5529 44.607 67.4112 45.1188 67.4338 45.6347C67.4247 46.0976 67.4951 46.5592 67.643 47.0055C67.774 47.3919 67.9764 47.759 68.2428 48.0936C68.47 48.3679 68.7423 48.6143 69.0518 48.8255C69.2881 48.99 69.5417 49.1365 69.8096 49.263C70.0281 49.3753 70.2141 49.4334 70.335 49.4954C70.4559 49.5573 70.5303 49.6038 70.521 49.627Z" fill="#FF725E"/>
<path d="M68.6752 61.7318C68.6752 61.7318 68.5915 61.7318 68.452 61.7318C68.248 61.7 68.0475 61.6547 67.8522 61.5962C67.5429 61.4949 67.2481 61.365 66.9735 61.209C66.6017 61.0039 66.272 60.7503 65.9971 60.4578C65.6621 60.0999 65.4042 59.6964 65.2347 59.2651C65.038 58.7743 64.936 58.2607 64.9324 57.7433C64.9066 57.1549 65.0484 56.5697 65.3462 56.0356C65.702 55.4763 66.2198 54.9998 66.8526 54.6494C67.4756 54.2997 68.1809 54.0647 68.9216 53.9601C69.6005 53.8671 70.293 53.8671 70.9719 53.9601C72.0974 54.1232 73.1705 54.4778 74.1242 55.0017C74.7576 55.3396 75.3494 55.7287 75.8909 56.1634C76.2722 56.4732 76.4535 56.6668 76.4209 56.6939C76.3884 56.721 76.142 56.5932 75.7142 56.3454C75.1164 55.9895 74.4955 55.6611 73.8545 55.3619C72.9304 54.9239 71.9167 54.6324 70.865 54.5022C70.2577 54.4334 69.6412 54.4438 69.0378 54.5332C68.3988 54.6292 67.7908 54.8349 67.2525 55.1373C66.7188 55.4329 66.2786 55.8314 65.9693 56.299C65.7116 56.747 65.5827 57.2388 65.5926 57.7356C65.5798 58.1984 65.6487 58.6603 65.7972 59.1064C65.9304 59.4915 66.1343 59.8573 66.4016 60.1906C66.6261 60.4666 66.897 60.7144 67.206 60.9263C67.4435 61.0895 67.697 61.2359 67.9638 61.3639C68.1823 61.4723 68.373 61.5343 68.4892 61.5962C68.6054 61.6582 68.6798 61.7124 68.6752 61.7318Z" fill="#FF725E"/>
<path d="M66.8247 73.8249C66.8247 73.8442 66.7457 73.8442 66.6062 73.8249C66.4021 73.7953 66.2015 73.7512 66.0064 73.6932C65.6952 73.5925 65.3989 73.4626 65.1231 73.306C64.7532 73.0988 64.4239 72.8455 64.1467 72.5548C63.8151 72.1965 63.5574 71.7947 63.3842 71.366C63.1875 70.8752 63.0855 70.3616 63.082 69.8442C63.0556 69.2553 63.1991 68.6697 63.5004 68.1365C63.8546 67.5752 64.3726 67.0971 65.0068 66.7464C65.6335 66.4016 66.3426 66.1743 67.0851 66.0803C67.764 65.9873 68.4565 65.9873 69.1354 66.0803C70.2618 66.2452 71.336 66.5996 72.2923 67.122C72.9257 67.4598 73.5175 67.8489 74.0591 68.2836C74.4357 68.5934 74.617 68.787 74.5844 68.818C74.5519 68.849 74.3055 68.7173 73.8777 68.4656C73.2795 68.1102 72.6587 67.7819 72.018 67.4821C71.0938 67.0449 70.0801 66.7547 69.0285 66.6263C68.4214 66.5562 67.805 66.5653 67.2013 66.6534C66.5626 66.7525 65.955 66.9594 65.416 67.2614C64.8875 67.5329 64.4552 67.9167 64.1636 68.3733C63.8719 68.8299 63.7313 69.3429 63.7562 69.8597C63.7444 70.3214 63.8149 70.782 63.9654 71.2266C64.0942 71.6136 64.2966 71.981 64.5651 72.3147C64.7935 72.5893 65.0657 72.8368 65.3741 73.0504C65.6089 73.2137 65.861 73.3588 66.1273 73.4841C66.3505 73.5964 66.5365 73.6545 66.6573 73.7164C66.7782 73.7784 66.834 73.8249 66.8247 73.8249Z" fill="#FF725E"/>
<path d="M64.979 85.945C64.979 85.9683 64.8953 85.9644 64.7558 85.945C64.5518 85.9133 64.3513 85.8679 64.156 85.8095C63.8458 85.7098 63.5508 85.5798 63.2773 85.4223C62.9046 85.2152 62.5735 84.9603 62.2963 84.6672C61.9645 84.3096 61.7082 83.9076 61.5385 83.4784C61.3422 82.9862 61.2402 82.4713 61.2362 81.9527C61.2062 81.364 61.3482 80.778 61.65 80.245C62.0071 79.6865 62.5246 79.2102 63.1564 78.8588C63.779 78.5085 64.4845 78.2734 65.2254 78.1695C65.9043 78.0765 66.5968 78.0765 67.2757 78.1695C68.4012 78.3326 69.4743 78.6872 70.428 79.2112C71.0614 79.549 71.6532 79.9381 72.1947 80.3728C72.576 80.6826 72.7573 80.8762 72.7247 80.9072C72.6922 80.9382 72.4411 80.8027 72.0134 80.5548C71.4165 80.1977 70.7956 79.8693 70.1537 79.5713C69.2295 79.1333 68.2159 78.8418 67.1641 78.7116C66.5553 78.6428 65.9373 78.6533 65.3323 78.7426C64.6947 78.8384 64.0882 79.0442 63.5516 79.3467C63.0179 79.6423 62.5777 80.0408 62.2684 80.5084C62.0113 80.9566 61.8824 81.4483 61.8918 81.945C61.8789 82.4078 61.9478 82.8697 62.0964 83.3158C62.2267 83.7031 62.4307 84.0704 62.7008 84.4039C62.9251 84.6789 63.196 84.9254 63.5051 85.1357C63.7519 85.3082 64.0164 85.4624 64.2955 85.5965C64.514 85.705 64.7046 85.7669 64.8209 85.8289C64.9371 85.8908 64.9836 85.9257 64.979 85.945Z" fill="#FF725E"/>
<path d="M63.1285 98.0537C63.1285 98.073 63.0448 98.073 62.9053 98.0537C62.7024 98.0254 62.5032 97.9813 62.3102 97.922C61.9997 97.82 61.7035 97.6902 61.4268 97.5348C61.057 97.3261 60.7277 97.0714 60.4505 96.7797C60.1155 96.4232 59.8575 96.021 59.688 95.5909C59.4913 95.1001 59.3893 94.5865 59.3858 94.0691C59.3594 93.4802 59.5029 92.8946 59.8042 92.3614C60.1567 91.8004 60.6732 91.3223 61.3059 90.9713C61.9296 90.6234 62.6348 90.3898 63.3749 90.2859C64.0538 90.1929 64.7464 90.1929 65.4252 90.2859C66.5516 90.4507 67.6258 90.8052 68.5821 91.3275C69.2143 91.6652 69.8045 92.0543 70.3442 92.4892C70.7255 92.799 70.9068 92.9926 70.8743 93.0236C70.8417 93.0546 70.5953 92.9229 70.1676 92.6712C69.5686 92.3166 68.9479 91.9883 68.3078 91.6876C67.3837 91.2504 66.3699 90.9602 65.3183 90.8319C64.711 90.763 64.0946 90.7735 63.4911 90.8629C62.8521 90.9588 62.2441 91.1645 61.7058 91.4669C61.1721 91.7626 60.7319 92.1611 60.4226 92.6286C60.1672 93.0773 60.0384 93.5687 60.046 94.0652C60.0319 94.5271 60.1025 94.988 60.2552 95.4321C60.384 95.8192 60.5865 96.1866 60.855 96.5202C61.0818 96.7947 61.3524 97.0422 61.6593 97.256C61.8976 97.4183 62.151 97.5646 62.4171 97.6935C62.6357 97.802 62.8263 97.86 62.9425 97.922C63.0587 97.984 63.1378 98.0343 63.1285 98.0537Z" fill="#FF725E"/>
<path d="M61.2781 110.158C61.2781 110.182 61.1991 110.178 61.0596 110.158C60.855 110.129 60.6542 110.084 60.4598 110.023C60.1476 109.924 59.851 109.794 59.5765 109.636C59.2066 109.428 58.8773 109.175 58.6001 108.884C58.2685 108.526 58.0108 108.124 57.8376 107.696C57.6454 107.203 57.5435 106.688 57.5354 106.17C57.5094 105.581 57.6528 104.996 57.9539 104.462C58.3109 103.904 58.8284 103.427 59.4602 103.076C60.0815 102.726 60.7853 102.491 61.5245 102.387C62.2034 102.294 62.896 102.294 63.5749 102.387C64.7021 102.549 65.7769 102.904 66.7318 103.428C67.3652 103.766 67.957 104.155 68.4985 104.59C68.8751 104.9 69.0564 105.093 69.0239 105.124C68.9913 105.155 68.7449 105.02 68.3172 104.772C67.7196 104.416 67.0987 104.087 66.4575 103.788C65.5319 103.35 64.5167 103.058 63.4633 102.929C62.856 102.86 62.2395 102.87 61.6361 102.96C60.9971 103.056 60.3891 103.261 59.8508 103.564C59.3172 103.858 58.8783 104.257 58.5722 104.726C58.3141 105.174 58.1836 105.665 58.191 106.162C58.1818 106.625 58.2523 107.087 58.4002 107.533C58.5312 107.919 58.7335 108.286 59 108.621C59.2271 108.895 59.4995 109.142 59.8089 109.353C60.0452 109.517 60.2989 109.664 60.5668 109.79C60.7853 109.903 60.9713 109.961 61.0921 110.023C61.213 110.085 61.2874 110.139 61.2781 110.158Z" fill="#FF725E"/>
<g opacity="0.2">
<path opacity="0.2" d="M76.0676 13.3051C76.0676 13.3245 75.9885 13.3245 75.8491 13.3051C75.6445 13.2774 75.4437 13.2333 75.2493 13.1735C74.9388 13.0715 74.6426 12.9417 74.3659 12.7862C73.9971 12.5765 73.668 12.322 73.3896 12.0311C73.058 11.6729 72.8003 11.2711 72.6271 10.8424C72.4304 10.3516 72.3284 9.83794 72.3249 9.32056C72.2985 8.73166 72.4419 8.14607 72.7433 7.61289C73.0975 7.0516 73.6155 6.57354 74.2497 6.22274C74.8712 5.8743 75.5751 5.64061 76.314 5.53735C76.9929 5.44438 77.6854 5.44438 78.3643 5.53735C79.4907 5.7022 80.5649 6.05663 81.5212 6.57899C82.1546 6.91681 82.7464 7.30593 83.288 7.74067C83.6646 8.05045 83.8459 8.24407 83.8133 8.27505C83.7808 8.30603 83.5344 8.17437 83.1066 7.92267C82.5084 7.56723 81.8876 7.23891 81.2469 6.93911C80.3228 6.5019 79.309 6.21171 78.2574 6.08334C77.6501 6.01456 77.0336 6.02501 76.4302 6.11432C75.7912 6.21028 75.1832 6.416 74.6449 6.71839C74.1112 7.01402 73.671 7.41252 73.3617 7.88007C73.1063 8.32877 72.9774 8.82017 72.9851 9.31669C72.9756 9.77833 73.0461 10.2387 73.1943 10.6836C73.3253 11.07 73.5276 11.4371 73.794 11.7717C74.0224 12.0463 74.2946 12.2939 74.603 12.5074C74.8398 12.6715 75.0933 12.8179 75.3609 12.945C75.5794 13.0534 75.7654 13.1115 75.8862 13.1735C76.0071 13.2354 76.0769 13.2858 76.0676 13.3051Z" fill="black"/>
<path opacity="0.2" d="M74.2218 25.4215C74.2218 25.4447 74.1381 25.4215 73.9986 25.4215C73.7942 25.3916 73.5934 25.3462 73.3989 25.2859C73.0886 25.1862 72.7937 25.0563 72.5202 24.8987C72.1483 24.6937 71.8186 24.44 71.5438 24.1475C71.2088 23.7911 70.9508 23.3888 70.7813 22.9587C70.5847 22.4666 70.4827 21.9517 70.4791 21.433C70.449 20.8443 70.591 20.2583 70.8929 19.7254C71.25 19.1668 71.7675 18.6906 72.3993 18.3391C73.0218 17.9888 73.7273 17.7537 74.4682 17.6498C75.1471 17.5568 75.8397 17.5568 76.5186 17.6498C77.6441 17.813 78.7172 18.1675 79.6708 18.6915C80.3042 19.0293 80.896 19.4184 81.4376 19.8532C81.8188 20.1629 82.0001 20.3565 81.9676 20.3875C81.935 20.4185 81.6886 20.283 81.2562 20.0351C80.6593 19.678 80.0384 19.3497 79.3965 19.0516C78.4724 18.6136 77.4587 18.3221 76.407 18.1919C75.7981 18.1231 75.1802 18.1336 74.5752 18.2229C73.9413 18.3238 73.3396 18.5335 72.8084 18.8386C72.2747 19.1342 71.8345 19.5327 71.5252 20.0003C71.2685 20.4486 71.1397 20.9403 71.1486 21.4369C71.1357 21.8997 71.2046 22.3616 71.3532 22.8077C71.4835 23.195 71.6875 23.5624 71.9576 23.8958C72.1819 24.1708 72.4528 24.4173 72.7619 24.6277C72.9982 24.7922 73.2518 24.9387 73.5198 25.0652C73.7383 25.1775 73.9289 25.2356 74.0451 25.2976C74.1614 25.3595 74.2265 25.3905 74.2218 25.4215Z" fill="black"/>
<path opacity="0.2" d="M72.3713 37.5185C72.3713 37.5185 72.2876 37.5185 72.1482 37.5185C71.9453 37.4902 71.746 37.4461 71.5531 37.3868C70.8218 37.1568 70.1791 36.7661 69.6933 36.2561C69.3593 35.8977 69.1014 35.4943 68.9308 35.0634C68.7342 34.5727 68.6322 34.059 68.6286 33.5416C68.6022 32.9527 68.7457 32.3671 69.0471 31.834C69.3984 31.2733 69.9152 30.7962 70.5488 30.4477C71.1721 30.0986 71.8773 29.8637 72.6177 29.7584C73.2966 29.6654 73.9892 29.6654 74.6681 29.7584C75.7954 29.9227 76.87 30.2786 77.825 30.8039C78.4571 31.1416 79.0474 31.5307 79.5871 31.9656C79.9683 32.2715 80.1497 32.4651 80.1171 32.4961C80.0846 32.5271 79.8381 32.3954 79.4104 32.1437C78.8112 31.7907 78.1905 31.4637 77.5507 31.1641C76.6278 30.7238 75.6136 30.4322 74.5612 30.3044C73.9539 30.2356 73.3374 30.246 72.734 30.3354C72.095 30.4314 71.487 30.6371 70.9486 30.9395C70.4149 31.2351 69.9748 31.6336 69.6654 32.1011C69.41 32.5498 69.2812 33.0412 69.2888 33.5378C69.2748 33.9996 69.3453 34.4605 69.4981 34.9047C69.6268 35.2918 69.8293 35.6591 70.0978 35.9928C70.3248 36.2672 70.5954 36.5147 70.9022 36.7285C71.1405 36.8908 71.3939 37.0371 71.66 37.1661C71.8832 37.2745 72.0691 37.3365 72.1854 37.3984C72.3016 37.4604 72.3806 37.4991 72.3713 37.5185Z" fill="black"/>
<path opacity="0.2" d="M70.521 49.6271C70.521 49.6464 70.4419 49.6464 70.3024 49.6271C70.0979 49.5976 69.8971 49.5523 69.7027 49.4915C69.3916 49.3934 69.0964 49.2634 68.824 49.1043C68.4516 48.8984 68.1205 48.6449 67.843 48.3531C67.5114 47.9948 67.2537 47.593 67.0805 47.1643C66.8879 46.6713 66.786 46.157 66.7783 45.6386C66.7526 45.0498 66.896 44.4643 67.1967 43.9309C67.5538 43.3724 68.0713 42.8961 68.7031 42.5447C69.3236 42.1946 70.0279 41.9608 70.7674 41.8593C71.4463 41.7663 72.1388 41.7663 72.8177 41.8593C73.9449 42.0217 75.0197 42.3763 75.9746 42.9009C76.608 43.2387 77.1998 43.6279 77.7414 44.0626C78.118 44.3724 78.2993 44.566 78.2714 44.597C78.2435 44.628 77.9878 44.4963 77.56 44.2446C76.9624 43.8884 76.3416 43.56 75.7003 43.261C74.7753 42.8248 73.762 42.5334 72.7108 42.4014C72.1018 42.3346 71.4842 42.345 70.879 42.4324C70.2403 42.5314 69.6327 42.7383 69.0936 43.0403C68.5669 43.3125 68.1359 43.6958 67.8444 44.1514C67.5529 44.6071 67.4112 45.1188 67.4338 45.6347C67.4247 46.0976 67.4951 46.5593 67.643 47.0055C67.774 47.3919 67.9764 47.759 68.2428 48.0936C68.47 48.3679 68.7423 48.6143 69.0518 48.8255C69.2881 48.9901 69.5417 49.1365 69.8096 49.2631C70.0281 49.3754 70.2141 49.4334 70.335 49.4954C70.4559 49.5574 70.5303 49.6038 70.521 49.6271Z" fill="black"/>
<path opacity="0.2" d="M68.6752 61.7318C68.6752 61.7318 68.5915 61.7318 68.452 61.7318C68.248 61.7 68.0475 61.6547 67.8522 61.5962C67.5429 61.4949 67.2481 61.365 66.9735 61.209C66.6017 61.0039 66.272 60.7503 65.9971 60.4578C65.6621 60.0999 65.4042 59.6964 65.2347 59.2651C65.038 58.7743 64.936 58.2607 64.9324 57.7433C64.9066 57.1549 65.0484 56.5697 65.3462 56.0356C65.702 55.4763 66.2198 54.9998 66.8526 54.6494C67.4756 54.2997 68.1809 54.0647 68.9216 53.9601C69.6005 53.8671 70.293 53.8671 70.9719 53.9601C72.0974 54.1232 73.1705 54.4778 74.1242 55.0017C74.7576 55.3396 75.3494 55.7287 75.8909 56.1634C76.2722 56.4732 76.4535 56.6668 76.4209 56.6939C76.3884 56.721 76.142 56.5932 75.7142 56.3454C75.1164 55.9895 74.4955 55.6611 73.8545 55.3619C72.9304 54.9239 71.9167 54.6324 70.865 54.5022C70.2577 54.4334 69.6412 54.4438 69.0378 54.5332C68.3988 54.6292 67.7908 54.8349 67.2525 55.1373C66.7188 55.4329 66.2786 55.8314 65.9693 56.299C65.7116 56.747 65.5827 57.2388 65.5926 57.7356C65.5798 58.1984 65.6487 58.6603 65.7972 59.1064C65.9304 59.4915 66.1343 59.8573 66.4016 60.1906C66.6261 60.4666 66.897 60.7144 67.206 60.9263C67.4435 61.0895 67.697 61.2359 67.9638 61.3639C68.1823 61.4723 68.373 61.5343 68.4892 61.5962C68.6054 61.6582 68.6798 61.7124 68.6752 61.7318Z" fill="black"/>
<path opacity="0.2" d="M66.8247 73.8249C66.8247 73.8442 66.7457 73.8442 66.6062 73.8249C66.4021 73.7953 66.2015 73.7512 66.0064 73.6932C65.6952 73.5925 65.3989 73.4626 65.1231 73.306C64.7532 73.0988 64.4239 72.8455 64.1467 72.5548C63.8151 72.1965 63.5574 71.7947 63.3842 71.366C63.1875 70.8752 63.0855 70.3616 63.082 69.8442C63.0556 69.2553 63.1991 68.6697 63.5004 68.1365C63.8546 67.5752 64.3726 67.0971 65.0068 66.7464C65.6335 66.4016 66.3426 66.1743 67.0851 66.0803C67.764 65.9873 68.4565 65.9873 69.1354 66.0803C70.2618 66.2452 71.336 66.5996 72.2923 67.122C72.9257 67.4598 73.5175 67.8489 74.0591 68.2836C74.4357 68.5934 74.617 68.787 74.5844 68.818C74.5519 68.849 74.3055 68.7173 73.8777 68.4656C73.2795 68.1102 72.6587 67.7819 72.018 67.4821C71.0938 67.0449 70.0801 66.7547 69.0285 66.6263C68.4214 66.5562 67.805 66.5653 67.2013 66.6534C66.5626 66.7525 65.955 66.9594 65.416 67.2614C64.8875 67.5329 64.4552 67.9167 64.1636 68.3733C63.8719 68.8299 63.7313 69.3429 63.7562 69.8597C63.7444 70.3214 63.8149 70.782 63.9654 71.2266C64.0942 71.6136 64.2966 71.981 64.5651 72.3147C64.7935 72.5893 65.0657 72.8368 65.3741 73.0504C65.6089 73.2137 65.861 73.3588 66.1273 73.4841C66.3505 73.5964 66.5365 73.6545 66.6573 73.7164C66.7782 73.7784 66.834 73.8249 66.8247 73.8249Z" fill="black"/>
<path opacity="0.2" d="M64.979 85.9451C64.979 85.9683 64.8953 85.9644 64.7558 85.9451C64.5518 85.9133 64.3513 85.868 64.156 85.8095C63.8458 85.7098 63.5508 85.5799 63.2773 85.4223C62.9046 85.2152 62.5735 84.9604 62.2963 84.6672C61.9645 84.3097 61.7082 83.9076 61.5385 83.4784C61.3422 82.9862 61.2402 82.4714 61.2362 81.9527C61.2062 81.364 61.3482 80.778 61.65 80.2451C62.0071 79.6865 62.5246 79.2103 63.1564 78.8588C63.779 78.5085 64.4845 78.2734 65.2254 78.1695C65.9043 78.0765 66.5968 78.0765 67.2757 78.1695C68.4012 78.3327 69.4743 78.6873 70.428 79.2112C71.0614 79.549 71.6532 79.9381 72.1947 80.3729C72.576 80.6826 72.7573 80.8763 72.7247 80.9072C72.6922 80.9382 72.4411 80.8027 72.0134 80.5549C71.4165 80.1978 70.7956 79.8694 70.1537 79.5713C69.2295 79.1333 68.2159 78.8418 67.1641 78.7117C66.5553 78.6429 65.9373 78.6533 65.3323 78.7426C64.6947 78.8385 64.0882 79.0442 63.5516 79.3467C63.0179 79.6423 62.5777 80.0408 62.2684 80.5084C62.0113 80.9566 61.8824 81.4483 61.8918 81.945C61.8789 82.4078 61.9478 82.8697 62.0964 83.3158C62.2267 83.7031 62.4307 84.0705 62.7008 84.4039C62.9251 84.6789 63.196 84.9254 63.5051 85.1358C63.7519 85.3083 64.0164 85.4625 64.2955 85.5966C64.514 85.705 64.7046 85.7669 64.8209 85.8289C64.9371 85.8909 64.9836 85.9257 64.979 85.9451Z" fill="black"/>
<path opacity="0.2" d="M63.1285 98.0537C63.1285 98.073 63.0448 98.073 62.9053 98.0537C62.7024 98.0254 62.5032 97.9813 62.3102 97.922C61.9997 97.82 61.7035 97.6902 61.4268 97.5348C61.057 97.3261 60.7277 97.0714 60.4505 96.7797C60.1155 96.4232 59.8575 96.021 59.688 95.5909C59.4913 95.1001 59.3893 94.5865 59.3858 94.0691C59.3594 93.4802 59.5029 92.8946 59.8042 92.3614C60.1567 91.8004 60.6732 91.3223 61.3059 90.9713C61.9296 90.6234 62.6348 90.3898 63.3749 90.2859C64.0538 90.1929 64.7464 90.1929 65.4252 90.2859C66.5516 90.4507 67.6258 90.8052 68.5821 91.3275C69.2143 91.6652 69.8045 92.0543 70.3442 92.4892C70.7255 92.799 70.9068 92.9926 70.8743 93.0236C70.8417 93.0546 70.5953 92.9229 70.1676 92.6712C69.5686 92.3166 68.9479 91.9883 68.3078 91.6876C67.3837 91.2504 66.3699 90.9602 65.3183 90.8319C64.711 90.763 64.0946 90.7735 63.4911 90.8629C62.8521 90.9588 62.2441 91.1645 61.7058 91.4669C61.1721 91.7626 60.7319 92.1611 60.4226 92.6286C60.1672 93.0773 60.0384 93.5687 60.046 94.0652C60.0319 94.5271 60.1025 94.988 60.2552 95.4321C60.384 95.8192 60.5865 96.1866 60.855 96.5202C61.0818 96.7947 61.3524 97.0422 61.6593 97.256C61.8976 97.4183 62.151 97.5646 62.4171 97.6935C62.6357 97.802 62.8263 97.86 62.9425 97.922C63.0587 97.984 63.1378 98.0343 63.1285 98.0537Z" fill="black"/>
<path opacity="0.2" d="M61.2781 110.158C61.2781 110.182 61.1991 110.178 61.0596 110.158C60.855 110.129 60.6542 110.084 60.4598 110.023C60.1476 109.924 59.851 109.794 59.5765 109.636C59.2066 109.428 58.8773 109.175 58.6001 108.884C58.2685 108.526 58.0108 108.124 57.8376 107.696C57.6454 107.203 57.5435 106.688 57.5354 106.17C57.5094 105.581 57.6528 104.996 57.9539 104.462C58.3109 103.904 58.8284 103.427 59.4602 103.076C60.0815 102.726 60.7853 102.491 61.5245 102.387C62.2034 102.294 62.896 102.294 63.5749 102.387C64.7021 102.549 65.7769 102.904 66.7318 103.428C67.3652 103.766 67.957 104.155 68.4985 104.59C68.8751 104.9 69.0564 105.093 69.0239 105.124C68.9913 105.155 68.7449 105.02 68.3172 104.772C67.7196 104.416 67.0987 104.087 66.4575 103.788C65.5319 103.35 64.5167 103.058 63.4633 102.929C62.856 102.86 62.2395 102.87 61.6361 102.96C60.9971 103.056 60.3891 103.261 59.8508 103.564C59.3172 103.858 58.8783 104.257 58.5722 104.726C58.3141 105.174 58.1836 105.665 58.191 106.162C58.1818 106.625 58.2523 107.087 58.4002 107.533C58.5312 107.919 58.7335 108.286 59 108.621C59.2271 108.895 59.4995 109.142 59.8089 109.353C60.0452 109.517 60.2989 109.664 60.5668 109.79C60.7853 109.903 60.9713 109.961 61.0921 110.023C61.213 110.085 61.2874 110.139 61.2781 110.158Z" fill="black"/>
</g>
<path d="M174.829 25.9058L173.976 31.4872L185.198 32.6762L186.05 27.0947L174.829 25.9058Z" fill="#FF725E"/>
<path d="M166.009 30.1108C165.947 30.116 165.885 30.116 165.823 30.1108L165.279 30.0682L163.196 29.8591L155.529 29.0459L130.26 26.285L123.058 25.4873C120.734 25.2317 118.488 24.9684 116.354 24.7516C114.338 24.5157 112.294 24.4975 110.273 24.6974C108.39 24.9181 106.609 25.255 104.954 25.0846C104.172 25.011 103.413 24.8152 102.718 24.5076C102.062 24.2211 101.49 23.8919 100.941 23.6092C100.441 23.3353 99.91 23.1019 99.3561 22.9122C98.8867 22.7684 98.3916 22.6912 97.8915 22.6838C97.193 22.6539 96.5058 22.8401 95.9621 23.2065C95.7856 23.3442 95.6296 23.4989 95.4971 23.6673C95.5208 23.6185 95.5504 23.5718 95.5855 23.5279C95.6219 23.4713 95.6655 23.418 95.7157 23.3692C95.7794 23.2979 95.8527 23.2329 95.9342 23.1756C96.4775 22.7849 97.1791 22.5814 97.8962 22.6063C98.4094 22.6076 98.9186 22.6809 99.4026 22.8232C99.9675 23.0004 100.511 23.2222 101.025 23.4853C101.578 23.768 102.155 24.0894 102.801 24.3682C103.483 24.6617 104.224 24.8481 104.986 24.9181C106.604 25.0691 108.362 24.7322 110.259 24.4999C112.296 24.2892 114.358 24.301 116.391 24.5347C118.539 24.7477 120.776 25.011 123.105 25.2588L130.307 26.0333L155.566 28.8523L163.219 29.7313L165.302 29.9791L165.841 30.0488C165.9 30.0642 165.956 30.085 166.009 30.1108V30.1108Z" fill="#263238"/>
<path d="M164.042 35.7449H163.87L163.363 35.6985L161.411 35.5126L154.246 34.7846L130.613 32.3141L106.986 29.7816L99.8303 29.0072L97.8869 28.7787L97.3801 28.7168C97.322 28.7115 97.2645 28.7024 97.2081 28.6897C97.2667 28.6828 97.3261 28.6828 97.3847 28.6897L97.8915 28.7323L99.8396 28.9181L107.009 29.6461L130.646 32.1205L154.269 34.653L161.425 35.4274L163.368 35.652L163.875 35.714C163.932 35.7179 163.988 35.7283 164.042 35.7449Z" fill="#263238"/>
<path d="M156.101 68.2565H155.938L155.473 68.2139L153.614 68.0358L146.802 67.3465L124.342 64.9999L101.867 62.5953L95.0647 61.8208L93.205 61.6078L92.7401 61.5459L92.5773 61.5188C92.6315 61.5145 92.6859 61.5145 92.7401 61.5188L93.205 61.5575L95.0647 61.7356L101.876 62.4249L124.342 64.7753L146.798 67.1839L153.6 67.9351L155.459 68.152L155.924 68.21C155.986 68.2172 156.046 68.2329 156.101 68.2565V68.2565Z" fill="#263238"/>
<path d="M154.423 79.2461H154.26L153.795 79.2073L151.935 79.0292L145.124 78.3399L122.658 75.9895L100.202 73.5809L93.4003 72.8297L91.5406 72.6128L91.0756 72.5548L90.9129 72.5277C90.9685 72.5218 91.0247 72.5218 91.0803 72.5277L91.5452 72.5703L93.4049 72.7484L100.212 73.4376L122.677 75.7881L145.129 78.1928L151.935 78.9672L153.795 79.1802L154.26 79.2422C154.314 79.2396 154.369 79.2409 154.423 79.2461V79.2461Z" fill="#263238"/>
<path d="M153.958 73.5035C153.904 73.5078 153.849 73.5078 153.795 73.5035L153.33 73.4647L151.517 73.2905L144.845 72.6167L122.849 70.3166L100.862 67.9584L94.2 67.2188L92.3914 67.0097L91.9264 66.9516L91.7684 66.9245C91.8224 66.9185 91.8771 66.9185 91.9311 66.9245L92.396 66.9671L94.2139 67.1374L100.881 67.8112L122.877 70.1075L144.864 72.4696L151.521 73.2053L153.33 73.4144L153.795 73.4763L153.958 73.5035Z" fill="#263238"/>
<path d="M118.693 80.4503C118.595 80.4597 118.497 80.4597 118.4 80.4503L117.567 80.3806L114.504 80.0863L104.415 79.0485L94.3348 77.9488L91.2802 77.5964L90.4526 77.488C90.3546 77.48 90.258 77.4631 90.1644 77.4377C90.2616 77.4274 90.36 77.4274 90.4573 77.4377L91.2942 77.5074L94.3534 77.7978L104.428 78.8588L114.508 79.9392L117.563 80.2954L118.39 80.4C118.493 80.4063 118.595 80.4232 118.693 80.4503Z" fill="#263238"/>
<path d="M105.758 34.4942C105.758 34.5484 103.355 34.3393 100.411 34.0295C97.4685 33.7198 95.0927 33.4177 95.102 33.3635C95.1113 33.3093 97.501 33.5145 100.444 33.8282C103.387 34.1418 105.763 34.4361 105.758 34.4942Z" fill="#263238"/>
<path d="M157.022 62.239C156.968 62.245 156.913 62.245 156.859 62.239L156.394 62.2003C155.985 62.1616 155.38 62.1074 154.604 62.0532C153.828 61.999 152.87 61.937 151.763 61.8828C150.657 61.8286 149.392 61.7744 147.993 61.724C145.203 61.6195 141.87 61.5498 138.178 61.3678C136.318 61.2748 134.393 61.1587 132.39 60.9418C130.386 60.725 128.34 60.4423 126.229 60.1674L104.619 57.4142L98.0729 56.5545L96.2968 56.3106L95.8319 56.2409C95.7792 56.2369 95.7275 56.2265 95.6785 56.2099H95.8365L96.3015 56.2602L98.0868 56.4655L104.638 57.2632L126.257 59.9737C128.368 60.2332 130.441 60.5081 132.417 60.7482C134.393 60.9883 136.341 61.0851 138.187 61.1819C141.874 61.3716 145.203 61.4607 147.997 61.5691C149.392 61.6311 150.657 61.6892 151.768 61.7589C152.879 61.8286 153.828 61.8944 154.609 61.9641C155.39 62.0338 156.003 62.0958 156.399 62.15L156.864 62.2081C156.917 62.2157 156.97 62.226 157.022 62.239Z" fill="#263238"/>
<path d="M38.2593 95.2928C38.2593 95.2928 95.1531 48.4383 101.625 41.0151L97.7288 38.0335L33.5681 91.1765L38.2593 95.2928Z" fill="#E0E0E0"/>
<path d="M20.922 105.19C23.4838 105.229 30.402 104.416 40.1423 96.0362L48.7389 89.5773L42.1648 84.28C42.1648 84.28 55.2712 74.1656 54.6482 73.6119C54.0252 73.0582 47.0512 78.4716 41.5464 82.4252C36.5391 86.038 19.8248 98.77 19.4342 103.823C19.4191 103.995 19.446 104.168 19.5134 104.331C19.5808 104.494 19.6873 104.644 19.8265 104.772C19.9656 104.9 20.1344 105.003 20.3227 105.075C20.5111 105.147 20.7149 105.186 20.922 105.19Z" fill="#FF725E"/>
<path opacity="0.2" d="M54.6482 73.6235C54.0205 73.0698 47.0512 78.4561 41.5464 82.4252C41.114 82.7388 40.584 83.1222 39.9935 83.5636L46.5258 88.7757L37.9432 95.2501C29.1094 102.863 22.6004 104.253 19.569 104.42C19.6824 104.643 19.87 104.834 20.1097 104.971C20.3494 105.109 20.6313 105.186 20.922 105.194C23.4838 105.233 30.402 104.42 40.1423 96.0401L48.7389 89.5811L42.1647 84.28C42.1647 84.28 55.2712 74.1772 54.6482 73.6235Z" fill="black"/>
<path d="M49.6501 82.9789L94.4928 45.4411L92.5959 43.9851L47.8276 81.3758L49.6501 82.9789Z" fill="#263238"/>
<path d="M101.592 41.0654C101.592 41.0654 105.847 35.4855 104.656 35.1912C103.466 34.8969 97.7381 38.0335 97.7381 38.0335L98.8354 38.9744L92.3263 44.1942L94.5161 45.4411L100.439 40.2329L101.592 41.0654Z" fill="#455A64"/>
<path d="M57.8887 66.4676C58.4493 66.5028 59.0126 66.4436 59.5451 66.2934C60.0775 66.1433 60.5682 65.9054 60.9879 65.5939C61.4075 65.2823 61.7474 64.9036 61.9874 64.4802C62.2274 64.0568 62.3625 63.5975 62.3846 63.1297C62.473 61.2322 62.552 59.3155 62.552 59.3155C62.552 59.3155 66.0018 59.0483 66.2482 56.2176C66.4946 53.387 66.3877 46.8119 66.3877 46.8119C64.4966 46.0173 62.3849 45.6578 60.2711 45.7709C58.1573 45.8839 56.1181 46.4652 54.3646 47.4547L53.8345 47.7529L54.0252 63.0483C54.0418 63.9167 54.4472 64.7487 55.1618 65.3812C55.8765 66.0136 56.849 66.4011 57.8887 66.4676V66.4676Z" fill="#FFBE9D"/>
<path d="M57.7307 43.0945C55.6524 43.0442 53.7694 44.1749 52.8024 45.565C51.8353 46.9552 51.6307 48.5699 51.5424 50.1382C51.4316 53.2196 51.5186 56.3037 51.8028 59.3774C51.7896 59.6105 51.8734 59.8403 52.0399 60.028C52.2953 60.2019 52.6121 60.3012 52.9418 60.3106C59.2515 61.0347 65.65 61.0425 71.9622 60.3339C72.376 59.7066 71.7902 58.9631 71.1207 58.4829C70.4512 58.0028 69.6143 57.5652 69.3726 56.8875C68.9867 55.8227 70.2559 54.6842 69.7631 53.6464C69.3912 52.872 68.1591 52.4848 67.7267 51.7103C67.0014 50.4325 68.8751 48.8874 68.0429 47.6444C67.6105 46.9978 66.5969 46.7112 65.9553 46.173C65.3881 45.6967 65.1463 45.05 64.6581 44.5272C63.782 43.7113 62.557 43.2137 61.2455 43.141C60.0832 42.9831 58.9 42.9623 57.7307 43.079" fill="#FF725E"/>
<path d="M52.8628 46.3317C51.9841 46.688 51.6028 47.567 51.468 48.3763C51.3332 49.1856 51.375 50.0375 50.9705 50.781C50.566 51.5244 49.6362 52.1827 49.3991 53.0308C49.0922 54.1382 49.9663 55.4393 49.1759 56.3648C48.6691 56.9572 47.6695 57.1083 47.0419 57.6194C46.1771 58.328 46.2515 59.4858 46.391 60.4926L57.7911 60.4074" fill="#FF725E"/>
<path d="M55.3781 44.837C55.2746 44.3751 55.0377 43.941 54.6878 43.5724C54.3379 43.2037 53.8856 42.9115 53.3698 42.7209C52.854 42.5303 52.2903 42.4471 51.7274 42.4785C51.1644 42.5098 50.619 42.6548 50.1383 42.9009C48.3204 43.838 47.6742 46.0723 45.6285 46.5912C45.0938 46.7267 44.4383 46.7654 44.1547 47.1681C43.871 47.5709 44.229 48.1517 44.7498 48.3608C45.2986 48.5281 45.8919 48.5669 46.4654 48.4731C46.2982 48.4587 46.1294 48.4767 45.9719 48.5255C45.8145 48.5743 45.6727 48.6527 45.5575 48.7546C45.4424 48.8565 45.357 48.9791 45.308 49.113C45.2591 49.2468 45.2478 49.3883 45.2751 49.5264C45.3678 49.8012 45.5788 50.0381 45.8678 50.1916C46.1568 50.3452 46.5036 50.4047 46.842 50.3589C47.1787 50.2993 47.4902 50.166 47.7444 49.9727C47.9986 49.7794 48.1862 49.5331 48.2879 49.2592C48.0368 49.8555 47.7889 50.4518 47.544 51.0482C48.9621 51.2573 50.1709 50.1924 50.8869 49.1546C51.6029 48.1169 52.2817 46.901 53.5881 46.444C54.1786 46.2388 54.862 46.2001 55.3688 45.8748C55.8756 45.5495 55.9779 44.7364 55.3688 44.5815" fill="#FF725E"/>
<path d="M55.9686 44.8719C55.9686 44.8719 56.2336 44.957 56.4661 45.2591C56.6219 45.4637 56.7179 45.6958 56.7464 45.9369C56.7749 46.178 56.7351 46.4213 56.6302 46.6473C56.5253 46.8733 56.3582 47.0756 56.1424 47.238C55.9265 47.4004 55.668 47.5184 55.3874 47.5824C55.1657 47.652 54.9211 47.652 54.6993 47.5824C54.6993 47.5476 54.9597 47.5592 55.3316 47.4353C55.5736 47.3634 55.7943 47.249 55.9786 47.0999C56.163 46.9508 56.3067 46.7705 56.4002 46.5712C56.4936 46.3718 56.5346 46.1581 56.5203 45.9444C56.506 45.7307 56.4368 45.5221 56.3173 45.3327C56.1453 45.0384 55.9268 44.899 55.9686 44.8719Z" fill="#263238"/>
<path d="M68.3311 135.107L74.1753 157.555L81.8839 157.408L78.4666 133.121L68.3311 135.107Z" fill="#FFBE9D"/>
<path d="M40.8397 72.5547C40.8397 72.5547 40.7095 72.7135 40.4957 72.9962C39.2589 74.6342 35.7719 80.5084 38.7103 84.4388L46.0841 79.0408L47.3255 76.6168" fill="#FFBE9D"/>
<path d="M45.0892 116.977L42.6064 155.309L50.1941 156.835L55.8849 117.787L45.0892 116.977Z" fill="#FFBE9D"/>
<path d="M78.6061 68.7909L67.9127 70.94L67.2943 77.8133L68.7821 81.732C68.7821 81.8714 71.1905 88.462 71.1905 88.462L71.939 90.6421L47.4928 90.8551C47.4092 88.4737 49.3107 86.127 49.3107 86.127C50.7055 84.1638 50.3429 81.1976 49.6966 78.9479C49.4921 78.2354 49.2317 77.0582 49.1108 76.3341V76.2063L47.716 78.2547L39.1891 73.1433C41.9462 68.7135 45.9911 64.2371 46.4793 63.9041C48.2465 62.673 50.4707 61.9889 52.7745 61.968L63.3284 62.0454C63.3284 62.0454 71.6368 61.178 76.4814 60.4965L78.6061 68.7909Z" fill="#455A64"/>
<path d="M76.7046 61.4955C76.3111 61.6813 75.9418 61.9006 75.6027 62.1499C75.2726 62.39 74.9053 62.7153 74.4822 63.0948C74.0095 63.5399 73.4846 63.9446 72.9154 64.3029C71.4114 65.2293 69.6243 65.7836 67.7593 65.9022C66.6649 65.971 65.5644 65.8846 64.5047 65.6466C63.4028 65.3949 62.3288 64.9883 61.1898 64.7173C60.6302 64.5791 60.0525 64.4985 59.4695 64.4772C58.9054 64.4736 58.343 64.5296 57.7958 64.6437C56.7567 64.8897 55.7503 65.2232 54.7923 65.6389C53.915 66.0171 53.0097 66.3482 52.0817 66.6302C51.0804 66.9269 50.0176 67.0524 48.9567 66.9992C47.8958 66.946 46.8587 66.7151 45.9074 66.3204C45.6037 66.1939 45.3115 66.0489 45.0334 65.8867C44.9344 65.8326 44.8411 65.7717 44.7544 65.7047C44.7544 65.6853 45.1542 65.9409 45.9493 66.2468C46.8923 66.6173 47.9143 66.8279 48.9559 66.8664C49.9975 66.905 51.0379 66.7707 52.0166 66.4714C52.9334 66.1851 53.8278 65.8514 54.6947 65.4724C55.6629 65.0447 56.6819 64.7021 57.7353 64.4501C58.3051 64.3304 58.8912 64.2731 59.4788 64.2797C60.0809 64.2975 60.6778 64.3795 61.2549 64.5236C62.4218 64.7986 63.4912 65.209 64.5698 65.4569C65.6079 65.6922 66.6862 65.7799 67.7593 65.7163C69.5876 65.6078 71.3437 65.0783 72.8317 64.1868C73.398 63.8428 73.9227 63.4537 74.3985 63.0251C74.7656 62.7007 75.152 62.3918 75.5562 62.0996C75.8166 61.9164 76.0985 61.7555 76.3977 61.6194C76.4761 61.5846 76.5568 61.5536 76.6395 61.5265C76.6829 61.5033 76.7046 61.493 76.7046 61.4955Z" fill="#263238"/>
<path d="M67.3734 73.0504C67.3141 73.1168 67.2418 73.1744 67.1595 73.2208C66.931 73.3646 66.665 73.4615 66.3831 73.5034C65.9357 73.5687 65.4763 73.5488 65.0394 73.4454C64.4672 73.3045 63.9269 73.086 63.4401 72.7987C62.8675 72.452 62.2628 72.1438 61.6315 71.8771C60.8989 71.6133 60.1041 71.4915 59.3068 71.5208C57.5912 71.5673 55.8105 72.1675 53.988 72.8219C53.0944 73.1497 52.1709 73.4178 51.2263 73.6235C50.3374 73.8223 49.411 73.8775 48.4971 73.7861C47.668 73.6916 46.8742 73.4456 46.1725 73.0659C45.5627 72.7415 45.0076 72.3509 44.5219 71.9042C43.8314 71.2606 43.2193 70.5614 42.6948 69.817C42.5088 69.5576 42.3647 69.3524 42.2717 69.213C42.2203 69.1422 42.1752 69.0685 42.1368 68.9922C42.2054 69.0517 42.2647 69.118 42.3135 69.1897L42.7784 69.7744C43.3259 70.496 43.9482 71.1763 44.6382 71.8074C45.1232 72.2326 45.6698 72.6059 46.2654 72.9187C46.9487 73.2754 47.7162 73.5052 48.5157 73.5925C49.4007 73.6761 50.2967 73.6196 51.1565 73.426C52.0874 73.2173 52.9981 72.9506 53.881 72.6283C55.6989 71.9778 57.5168 71.3659 59.2882 71.3311C60.1239 71.3001 60.9568 71.4327 61.7198 71.7183C62.3545 71.9961 62.9623 72.3146 63.5377 72.6709C64.0064 72.958 64.5276 73.1803 65.0813 73.3292C65.4975 73.4372 65.9372 73.4676 66.3691 73.4183C66.7363 73.3698 67.0823 73.243 67.3734 73.0504V73.0504Z" fill="#263238"/>
<path d="M67.7313 79.6333C67.7313 79.6333 67.6988 79.6797 67.6105 79.7572C67.4863 79.8714 67.3475 79.9739 67.1967 80.0631C66.6269 80.3818 65.9695 80.575 65.2858 80.6246C64.2748 80.6941 63.2577 80.5792 62.3056 80.2877C61.2269 79.9818 60.125 79.4939 58.9348 79.0911C57.8287 78.6857 56.6278 78.4913 55.4199 78.5219C54.4355 78.5645 53.4692 78.7588 52.5699 79.095C51.7466 79.4235 50.9841 79.8486 50.3057 80.3574C50.3057 80.3574 50.3382 80.307 50.4219 80.2296C50.5436 80.1143 50.6741 80.0057 50.8124 79.9043C51.3179 79.5277 51.8845 79.2123 52.4955 78.9672C53.4089 78.602 54.3991 78.3889 55.4106 78.3399C56.6511 78.2929 57.8878 78.4864 59.0231 78.9053C60.2366 79.3157 61.3478 79.8036 62.38 80.1134C63.3004 80.4044 64.2844 80.5298 65.2672 80.4813C65.9247 80.4461 66.5624 80.2801 67.1269 79.9972C67.55 79.7843 67.7127 79.6333 67.7313 79.6333Z" fill="#263238"/>
<path d="M70.3397 85.9606C70.3397 85.9606 70.0933 85.8173 69.6144 85.6121C68.932 85.3391 68.1937 85.1761 67.4385 85.1319C66.3147 85.0709 65.1867 85.1731 64.1049 85.4339C62.8775 85.705 61.5711 86.1426 60.1577 86.5143C58.826 86.8863 57.4289 87.0696 56.0244 87.0564C54.8866 87.041 53.7575 86.8884 52.6722 86.6034C51.9362 86.4083 51.227 86.1487 50.5568 85.8289C50.3197 85.7205 50.143 85.6237 50.0268 85.5578C49.9625 85.5266 49.9032 85.4889 49.8501 85.4456C49.8501 85.4456 50.1198 85.5617 50.6033 85.7592C52.2917 86.4722 54.1547 86.8512 56.0476 86.8667C57.426 86.8686 58.7955 86.6829 60.1019 86.3168C61.4967 85.9489 62.8171 85.5152 64.0677 85.2481C65.1743 84.9922 66.3268 84.903 67.471 84.9847C68.2436 85.0408 68.9939 85.2294 69.6748 85.5385C69.8581 85.6242 70.0323 85.7226 70.1955 85.8328C70.2978 85.9102 70.3397 85.9528 70.3397 85.9606Z" fill="#263238"/>
<path d="M47.53 90.0768L42.8435 134.836L54.425 134.891L60.1436 99.0217L67.6151 135.216L79.2012 133.435L72.0971 90.4524L47.53 90.0768Z" fill="#263238"/>
<path d="M68.438 97.8329C68.438 97.891 64.4768 98.3286 59.5718 98.8126C54.6667 99.2966 50.6869 99.6451 50.6776 99.5871C50.6683 99.529 54.6388 99.0953 59.5439 98.6113C64.4489 98.1272 68.4287 97.7942 68.438 97.8329Z" fill="#455A64"/>
<path d="M82.9347 158.062L82.9021 157.346L74.1754 157.555L74.2497 159.925H74.7891C77.1928 159.975 87.0075 160.045 88.5976 159.634C90.369 159.185 82.9347 158.062 82.9347 158.062Z" fill="#FF725E"/>
<g opacity="0.6">
<path opacity="0.6" d="M77.3973 159.789C77.2391 159.213 76.8235 158.709 76.235 158.38C75.6357 158.035 74.9097 157.877 74.1846 157.934L74.2544 159.816L77.3973 159.789Z" fill="white"/>
</g>
<g opacity="0.6">
<path opacity="0.6" d="M86.5704 158.713C86.5704 158.713 89.1787 159.232 88.8951 159.569C88.6115 159.905 78.6666 160.122 74.2729 159.925V159.774L85.8498 159.596C85.8498 159.596 86.0636 158.74 86.5704 158.713Z" fill="white"/>
</g>
<path d="M74.1196 159.789H74.273H74.7007L76.2815 159.809C77.6159 159.809 79.4616 159.809 81.5027 159.766C83.5437 159.723 85.3802 159.65 86.7146 159.588L88.2907 159.503L88.7184 159.472H88.8672H88.7184H88.2907L86.7099 159.53C85.3756 159.58 83.5344 159.642 81.498 159.685C79.4616 159.727 77.6159 159.743 76.2815 159.751H74.7007H74.273L74.1196 159.789Z" fill="#263238"/>
<path d="M85.8358 159.7C85.8986 159.496 85.9907 159.298 86.1101 159.112C86.2528 158.934 86.4215 158.771 86.6122 158.628C86.3495 158.705 86.1307 158.861 85.9985 159.065C85.9224 159.157 85.8689 159.26 85.8409 159.369C85.813 159.478 85.8113 159.591 85.8358 159.7V159.7Z" fill="#263238"/>
<path d="M83.2369 158.748C83.2369 158.748 83.381 158.643 83.5019 158.484C83.6228 158.326 83.6972 158.19 83.6739 158.178C83.6507 158.167 83.5298 158.287 83.4089 158.442C83.288 158.597 83.209 158.736 83.2369 158.748Z" fill="#263238"/>
<path d="M82.5209 158.477C82.5209 158.477 82.6743 158.419 82.8231 158.31C82.9718 158.202 83.0695 158.105 83.0509 158.085C83.0323 158.066 82.8928 158.144 82.7487 158.252C82.6046 158.36 82.5023 158.461 82.5209 158.477Z" fill="#263238"/>
<path d="M82.0513 157.853C82.2013 157.893 82.36 157.905 82.5162 157.888C82.6734 157.903 82.8325 157.887 82.9811 157.842C82.8311 157.802 82.6724 157.79 82.5162 157.807C82.3591 157.797 82.2012 157.813 82.0513 157.853V157.853Z" fill="#263238"/>
<path d="M81.8839 157.408C82.2099 157.529 82.5793 157.542 82.9161 157.443C82.7443 157.431 82.5717 157.431 82.4 157.443C82.2295 157.419 82.0568 157.407 81.8839 157.408V157.408Z" fill="#263238"/>
<path d="M83.5065 158.155C83.693 158.179 83.8826 158.179 84.0691 158.155C84.2694 158.132 84.4669 158.094 84.6596 158.043C84.7752 158.013 84.8872 157.974 84.9943 157.927C85.058 157.895 85.1058 157.846 85.1291 157.787C85.1359 157.754 85.1307 157.721 85.1141 157.69C85.0975 157.66 85.0704 157.634 85.0362 157.617C84.8208 157.54 84.5814 157.524 84.3541 157.571C84.1268 157.618 83.9239 157.725 83.7762 157.876C83.696 157.964 83.6389 158.064 83.6088 158.171C83.5966 158.209 83.5966 158.249 83.6088 158.287C83.6623 158.147 83.7441 158.016 83.8506 157.9C83.9741 157.781 84.1352 157.694 84.3155 157.648C84.533 157.587 84.7698 157.595 84.9804 157.671C85.0734 157.718 85.0408 157.799 84.9432 157.849C84.8439 157.894 84.7396 157.93 84.6317 157.958C84.4466 158.013 84.257 158.057 84.0644 158.089C83.7204 158.136 83.5065 158.144 83.5065 158.155Z" fill="#263238"/>
<path d="M83.6553 158.175C83.7161 158.082 83.7343 157.975 83.7065 157.873C83.687 157.758 83.6308 157.649 83.5437 157.559C83.4927 157.495 83.4237 157.442 83.3426 157.406C83.2615 157.37 83.1709 157.35 83.0788 157.35C83.0522 157.354 83.0268 157.362 83.0041 157.375C82.9815 157.387 82.962 157.403 82.9468 157.422C82.9317 157.441 82.9212 157.462 82.9159 157.484C82.9106 157.506 82.9107 157.529 82.9161 157.551C82.9329 157.621 82.9678 157.687 83.0184 157.745C83.095 157.839 83.1856 157.925 83.288 158C83.3802 158.077 83.4935 158.134 83.6181 158.167C83.6181 158.167 83.5019 158.093 83.3438 157.958C83.2518 157.882 83.1707 157.797 83.1021 157.706C83.0184 157.613 82.9626 157.45 83.1021 157.427C83.1758 157.433 83.2473 157.451 83.3115 157.482C83.3758 157.513 83.4312 157.555 83.474 157.605C83.5569 157.685 83.6144 157.781 83.6414 157.884C83.6577 157.98 83.6624 158.078 83.6553 158.175V158.175Z" fill="#263238"/>
<path d="M74.2311 157.927C74.2311 157.927 74.4822 157.903 74.8727 157.927C75.3808 157.959 75.8697 158.102 76.2908 158.341C76.701 158.575 77.0233 158.902 77.2207 159.282C77.2913 159.438 77.3518 159.597 77.402 159.758C77.402 159.758 77.402 159.708 77.402 159.623C77.385 159.499 77.349 159.378 77.2951 159.263C77.1138 158.862 76.7892 158.517 76.3652 158.275C75.9274 158.028 75.4154 157.887 74.8867 157.869C74.7313 157.862 74.5756 157.868 74.4218 157.888C74.3562 157.893 74.2919 157.906 74.2311 157.927V157.927Z" fill="#263238"/>
<path d="M78.4666 159.119C78.8861 159.187 79.3141 159.21 79.7405 159.189C80.1671 159.196 80.5932 159.161 81.0098 159.085C81.0098 159.057 80.4379 159.085 79.7405 159.108C79.0431 159.131 78.4713 159.096 78.4666 159.119Z" fill="#263238"/>
<path d="M76.765 159.154C76.765 159.174 76.8162 159.247 76.8766 159.348C76.937 159.449 76.9742 159.534 77.0021 159.534C77.03 159.534 77.044 159.425 76.9696 159.309C76.8952 159.193 76.7836 159.139 76.765 159.154Z" fill="#263238"/>
<path d="M76.1002 158.55C76.1002 158.55 76.1374 158.635 76.2303 158.705C76.3233 158.775 76.4163 158.813 76.4349 158.798C76.4535 158.783 76.3977 158.713 76.3047 158.647C76.2117 158.581 76.1188 158.535 76.1002 158.55Z" fill="#263238"/>
<path d="M75.1703 158.287C75.1703 158.31 75.2958 158.306 75.4213 158.341C75.5469 158.376 75.6445 158.422 75.6677 158.407C75.691 158.391 75.6166 158.298 75.4539 158.26C75.2912 158.221 75.161 158.267 75.1703 158.287Z" fill="#263238"/>
<path d="M74.524 158.171C74.524 158.19 74.5659 158.225 74.6356 158.244C74.7054 158.264 74.7751 158.264 74.7844 158.244C74.7937 158.225 74.7472 158.19 74.6728 158.171C74.5984 158.151 74.524 158.147 74.524 158.171Z" fill="#263238"/>
<path d="M42.3832 154.98L41.0907 159.712H49.8221L50.1941 156.63L42.3832 154.98Z" fill="#FF725E"/>
<path d="M49.9989 159.015C49.5794 159.072 49.154 159.091 48.7296 159.073C47.9439 159.073 46.8699 159.073 45.661 159.026L42.5971 158.918C42.1718 158.923 41.7468 158.894 41.3279 158.833C41.7476 158.779 42.1729 158.761 42.5971 158.779C43.3829 158.779 44.4569 158.779 45.6703 158.825L48.7296 158.934C49.1549 158.926 49.5799 158.954 49.9989 159.015Z" fill="#263238"/>
<path d="M46.3026 155.917C46.3838 156.431 46.3838 156.952 46.3026 157.466C46.2995 157.978 46.2182 158.488 46.0609 158.984C45.9753 158.47 45.9753 157.949 46.0609 157.435C46.0604 156.922 46.1417 156.412 46.3026 155.917V155.917Z" fill="#263238"/>
<path opacity="0.6" d="M41.0907 159.712H49.8221L49.9058 159.026L41.2488 158.844L41.0907 159.631" fill="white"/>
<path d="M96.9756 45.5573L93.7908 46.5137C93.7489 45.4527 92.8609 44.3452 92.8609 44.8757C92.8609 45.4062 92.5587 48.1517 92.5587 48.1517L85.9195 57.7743C84.9896 59.3232 83.3298 60.2022 82.1349 60.361L76.6859 61.329L78.2434 67.3194L85.8358 65.7705C86.8073 65.5714 87.7091 65.1854 88.4689 64.6433C89.2288 64.1013 89.8254 63.4184 90.2108 62.6495L96.5246 50.0375C96.944 49.2263 97.2996 48.3933 97.5893 47.5437C97.6641 47.1953 97.648 46.8376 97.5421 46.4948C97.4362 46.1521 97.243 45.8323 96.9756 45.5573V45.5573Z" fill="#FFBE9D"/>
</svg>
