<svg width="200" height="160" viewBox="0 0 200 160" fill="none" xmlns="http://www.w3.org/2000/svg">
<path d="M156.202 145.325C149.508 141.042 147.989 133.11 148.255 125.953C148.298 124.771 148.156 123.502 148.776 122.458C149.396 121.414 150.843 120.697 152.009 121.197C152.974 121.615 153.395 122.643 153.938 123.498C154.662 124.633 155.722 125.558 156.994 126.166C157.825 126.56 158.85 126.805 159.668 126.391C160.791 125.823 160.925 124.401 160.916 123.215C160.916 121.003 160.902 118.792 160.873 116.583C160.796 115.397 160.926 114.208 161.26 113.06C161.665 111.937 162.552 110.889 163.787 110.573C165.023 110.258 166.547 110.908 166.801 112.071C166.848 112.561 166.861 113.053 166.84 113.545C166.874 114.037 167.124 114.585 167.636 114.727C168.148 114.869 168.669 114.53 169.057 114.183C170.395 113.001 171.304 111.425 172.152 109.907C173 108.39 173.822 106.806 175.036 105.498C176.25 104.19 177.929 103.157 179.771 103.063C181.614 102.968 183.603 104.012 184.076 105.679C184.55 107.346 183.482 109.048 182.32 110.408C180.599 112.416 178.569 114.186 176.293 115.661C175.851 115.886 175.499 116.234 175.286 116.654C175.006 117.442 175.824 118.23 176.676 118.49C177.645 118.782 178.691 118.691 179.69 118.801C180.688 118.912 181.795 119.318 182.174 120.192C182.707 121.402 181.597 122.675 180.508 123.506C178.329 125.173 175.854 126.483 173.189 127.38C172.238 127.699 171.235 127.979 170.464 128.594C169.694 129.208 169.233 130.272 169.698 131.108C170.163 131.943 171.351 132.211 172.35 132.042C173.349 131.872 174.244 131.376 175.195 131.045C176.973 130.43 179.276 130.544 180.413 131.951C180.761 132.436 180.981 132.989 181.055 133.566C181.13 134.142 181.058 134.727 180.843 135.273C180.409 136.359 179.741 137.354 178.88 138.201C176.058 141.303 172.388 143.665 168.243 145.046C164.11 146.358 160.283 146.712 156.189 145.337" fill="#F5F5F5"/>
<path d="M156.103 150.621C156.465 147.308 157.173 144.034 158.217 140.845C159.515 136.958 161.054 133.143 162.827 129.417L164.205 126.474C164.657 125.508 165.109 124.554 165.613 123.64C166.583 121.897 167.658 120.203 168.833 118.569C169.943 116.993 171.058 115.542 172.113 114.191C173.168 112.839 174.184 111.598 175.161 110.502C176.688 108.764 178.365 107.141 180.176 105.648C180.813 105.116 181.326 104.722 181.674 104.465L182.075 104.17C182.117 104.133 182.165 104.101 182.217 104.075C182.178 104.115 182.137 104.152 182.092 104.186L181.709 104.501C181.369 104.777 180.848 105.179 180.236 105.719C178.457 107.233 176.803 108.868 175.29 110.609C174.326 111.708 173.323 112.949 172.277 114.305C171.231 115.661 170.124 117.115 169.022 118.687C167.856 120.322 166.788 122.013 165.824 123.755C165.324 124.661 164.881 125.611 164.425 126.58L163.051 129.52C161.28 133.247 159.738 137.062 158.432 140.947C157.383 144.123 156.663 147.382 156.28 150.68" fill="#E0E0E0"/>
<path d="M165.682 123.621C165.618 123.457 165.575 123.288 165.552 123.116C165.484 122.789 165.406 122.328 165.311 121.721C165.131 120.539 164.937 118.9 164.734 117.095C164.532 115.29 164.304 113.655 164.11 112.481C164.011 111.889 163.925 111.417 163.861 111.09C163.816 110.92 163.792 110.747 163.787 110.573C163.862 110.733 163.917 110.899 163.951 111.07C164.041 111.393 164.153 111.858 164.274 112.453C164.519 113.635 164.765 115.259 164.971 117.071C165.178 118.884 165.346 120.468 165.479 121.701C165.544 122.257 165.6 122.726 165.647 123.104C165.675 123.275 165.687 123.448 165.682 123.621Z" fill="#E0E0E0"/>
<path d="M182.337 120.772C182.119 120.815 181.897 120.84 181.674 120.846C181.244 120.878 180.628 120.925 179.866 121.008C178.338 121.158 176.241 121.434 173.938 121.832C171.635 122.23 169.569 122.675 168.084 123.037C167.343 123.211 166.745 123.368 166.332 123.475C166.121 123.544 165.903 123.593 165.682 123.621C165.88 123.528 166.088 123.451 166.301 123.392C166.732 123.262 167.3 123.081 168.023 122.888C169.5 122.494 171.566 122.017 173.878 121.615C175.847 121.268 177.834 121.014 179.832 120.854C180.598 120.791 181.222 120.768 181.653 120.76C181.881 120.742 182.11 120.746 182.337 120.772V120.772Z" fill="#E0E0E0"/>
<path d="M158.424 140.565C158.424 140.565 158.376 140.506 158.312 140.38L158.023 139.828C157.778 139.347 157.446 138.646 157.042 137.771C156.241 136.026 155.212 133.578 154.119 130.867C153.025 128.156 152.022 125.705 151.26 123.944L150.365 121.863C150.266 121.635 150.184 121.449 150.119 121.296C150.086 121.231 150.063 121.162 150.051 121.091C150.098 121.147 150.135 121.209 150.163 121.276L150.451 121.828C150.692 122.308 151.028 123.01 151.428 123.885C152.233 125.634 153.262 128.077 154.355 130.789C155.449 133.5 156.448 135.955 157.214 137.712L158.122 139.793C158.221 140.021 158.299 140.21 158.368 140.364C158.396 140.429 158.414 140.496 158.424 140.565V140.565Z" fill="#E0E0E0"/>
<path d="M180.559 134.036C180.491 134.073 180.417 134.101 180.34 134.118L179.698 134.315L177.326 135.021C175.325 135.612 172.569 136.463 169.53 137.405C166.491 138.347 163.723 139.174 161.708 139.734C160.697 140.009 159.883 140.23 159.315 140.368L158.656 140.526C158.581 140.55 158.503 140.564 158.424 140.565C158.493 140.529 158.566 140.501 158.643 140.482L159.285 140.285L161.657 139.584C163.658 138.989 166.392 138.138 169.453 137.196C172.513 136.254 175.26 135.427 177.275 134.871C178.286 134.591 179.104 134.374 179.672 134.233L180.327 134.075C180.402 134.053 180.48 134.039 180.559 134.036Z" fill="#E0E0E0"/>
<path d="M191.433 115.204C191.368 115.131 191.311 115.053 191.261 114.971L190.831 114.337C190.469 113.793 189.97 113.028 189.367 112.11L189.5 112.142L186.095 113.966C186.095 113.994 186.173 113.698 186.134 113.824V113.852L186.168 113.903L186.233 114.013L186.371 114.226L186.633 114.644L187.141 115.456L188.067 116.941L187.933 116.91C188.949 116.386 189.806 115.952 190.417 115.649L191.136 115.298C191.223 115.248 191.315 115.207 191.412 115.176C191.342 115.226 191.269 115.272 191.192 115.314L190.516 115.708C189.931 116.039 189.074 116.516 188.032 117.075L187.946 117.119L187.899 117.044C187.606 116.587 187.288 116.09 186.956 115.566L186.44 114.758L186.177 114.341L186.039 114.128L185.975 114.017L185.94 113.966V113.939C185.906 114.065 185.992 113.769 185.983 113.801L189.427 112L189.509 111.956L189.556 112.031C190.155 112.993 190.637 113.801 190.964 114.352C191.115 114.608 191.24 114.817 191.339 114.995C191.379 115.061 191.41 115.131 191.433 115.204Z" fill="#E0E0E0"/>
<path d="M61.6228 9.61116L57.4601 9.63177L57.5722 28.5935L61.7349 28.5729L61.6228 9.61116Z" fill="#E0E0E0"/>
<path d="M32.174 9.65857L21.3905 9.71198L21.4524 20.1819L32.2359 20.1285L32.174 9.65857Z" fill="#EBEBEB"/>
<path d="M42.9013 9.60547L32.1177 9.65887L32.1796 20.1288L42.9632 20.0754L42.9013 9.60547Z" fill="#F5F5F5"/>
<path d="M21.4081 12.6067C28.5714 12.6619 35.7562 12.6067 42.9324 12.5161C42.9589 12.5114 42.9828 12.4984 42.9999 12.4793C43.017 12.4603 43.0264 12.4364 43.0264 12.4117C43.0264 12.387 43.017 12.3631 42.9999 12.344C42.9828 12.325 42.9589 12.312 42.9324 12.3072C35.7691 12.2718 28.5843 12.3072 21.4081 12.4255C21.3818 12.4255 21.3567 12.435 21.3381 12.452C21.3195 12.469 21.3091 12.4921 21.3091 12.5161C21.3091 12.5401 21.3195 12.5632 21.3381 12.5802C21.3567 12.5972 21.3818 12.6067 21.4081 12.6067V12.6067Z" fill="#E0E0E0"/>
<path d="M34.2583 19.9527L14.6714 20.0497L14.7218 28.581L34.3087 28.484L34.2583 19.9527Z" fill="#EBEBEB"/>
<path d="M53.7542 19.8562L34.1673 19.9532L34.2177 28.4844L53.8046 28.3874L53.7542 19.8562Z" fill="#F5F5F5"/>
<path d="M14.6796 22.4187C27.6933 22.5527 40.7542 22.4187 53.7636 22.2414C53.79 22.2367 53.8139 22.2237 53.831 22.2046C53.8482 22.1856 53.8575 22.1617 53.8575 22.137C53.8575 22.1123 53.8482 22.0884 53.831 22.0693C53.8139 22.0503 53.79 22.0373 53.7636 22.0326C40.7499 21.9695 27.689 21.9774 14.6796 22.2375C14.6534 22.2375 14.6282 22.247 14.6096 22.264C14.5911 22.281 14.5806 22.3041 14.5806 22.3281C14.5806 22.3521 14.5911 22.3752 14.6096 22.3922C14.6282 22.4092 14.6534 22.4187 14.6796 22.4187V22.4187Z" fill="#E0E0E0"/>
<path d="M83.2476 28.5858H7.35699V31.6436H83.2476V28.5858Z" fill="#E0E0E0"/>
<path d="M22.8632 30.0556H19.7809V40.4863H22.8632V30.0556Z" fill="#E0E0E0"/>
<path d="M68.8521 30.0556H65.7698V40.4863H68.8521V30.0556Z" fill="#E0E0E0"/>
<path d="M65.6878 2.53737L61.5251 2.55798L61.6793 28.6403L65.842 28.6196L65.6878 2.53737Z" fill="#EBEBEB"/>
<path d="M72.191 7.39545L65.7208 7.42749L65.8458 28.5644L72.3159 28.5324L72.191 7.39545Z" fill="#F5F5F5"/>
<path d="M72.1453 11.4679C71.0717 11.5717 69.9913 11.6059 68.9124 11.5703C67.832 11.6058 66.7502 11.5716 65.6751 11.4679C66.7504 11.3665 67.832 11.3323 68.9124 11.3654C69.9913 11.3322 71.0715 11.3664 72.1453 11.4679V11.4679Z" fill="#E0E0E0"/>
<path d="M72.1453 10.597C71.0715 10.6984 69.9913 10.7327 68.9124 10.6995C67.832 10.7326 66.7504 10.6984 65.6751 10.597C66.7502 10.4933 67.832 10.4591 68.9124 10.4946C69.9913 10.459 71.0717 10.4932 72.1453 10.597V10.597Z" fill="#E0E0E0"/>
<path d="M72.1453 25.3505C71.0719 25.4569 69.9914 25.4925 68.9124 25.4569C67.8319 25.4924 66.75 25.4568 65.6751 25.3505C66.7504 25.2491 67.832 25.2149 68.9124 25.248C69.9913 25.2148 71.0715 25.2491 72.1453 25.3505V25.3505Z" fill="#E0E0E0"/>
<path d="M72.1453 24.4639C71.0717 24.5677 69.9913 24.6019 68.9124 24.5664C67.832 24.6019 66.7502 24.5676 65.6751 24.4639C66.7504 24.3626 67.832 24.3283 68.9124 24.3614C69.9913 24.3282 71.0715 24.3625 72.1453 24.4639V24.4639Z" fill="#E0E0E0"/>
<path d="M69.0028 22.529C68.9425 22.529 68.8909 20.3933 68.8909 17.7649C68.8909 15.1365 68.9425 13.0007 69.0028 13.0007C69.0631 13.0007 69.1147 15.1326 69.1147 17.7649C69.1147 20.3972 69.076 22.529 69.0028 22.529Z" fill="#E0E0E0"/>
<path d="M79.257 12.587H72.2142V28.5424H79.257V12.587Z" fill="#EBEBEB"/>
<path d="M75.9379 24.3891C75.7291 24.3968 75.5208 24.365 75.3261 24.2955C75.1314 24.226 74.9545 24.1204 74.8065 23.9853C74.6586 23.8502 74.5427 23.6886 74.4663 23.5105C74.3898 23.3325 74.3544 23.1419 74.3623 22.9508C74.3513 22.7423 74.3975 22.5346 74.4968 22.3467C74.5961 22.1587 74.7452 21.9966 74.9306 21.875L75.0941 22.076C74.9449 22.1763 74.8246 22.3084 74.7436 22.4608C74.6626 22.6132 74.6233 22.7814 74.6292 22.9508C74.6292 23.268 74.7669 23.5722 75.0119 23.7965C75.2569 24.0207 75.5892 24.1467 75.9357 24.1467C76.2823 24.1467 76.6146 24.0207 76.8596 23.7965C77.1046 23.5722 77.2423 23.268 77.2423 22.9508C77.2493 22.7812 77.2105 22.6127 77.1294 22.4601C77.0483 22.3075 76.9274 22.1756 76.7773 22.076L76.9409 21.875C77.1254 21.9973 77.2739 22.1596 77.3731 22.3474C77.4723 22.5351 77.519 22.7424 77.5092 22.9508C77.517 23.1416 77.4818 23.3318 77.4056 23.5096C77.3294 23.6873 77.2139 23.8488 77.0664 23.9838C76.9189 24.1188 76.7426 24.2245 76.5484 24.2942C76.3542 24.364 76.1463 24.3963 75.9379 24.3891Z" fill="#FAFAFA"/>
<path d="M77.1131 21.4966L76.8721 21.3705C77.1186 21.0785 77.2505 20.719 77.2466 20.3499C77.2466 19.751 77.0184 19.5106 76.6654 19.5106C75.7657 19.5106 76.4286 21.3942 75.2104 21.3942C74.7411 21.3942 74.3494 21.0356 74.3494 20.3145C74.3438 19.9713 74.4486 19.6342 74.6507 19.3451L74.8918 19.4672C74.7026 19.7183 74.6047 20.0175 74.612 20.3223C74.612 20.878 74.8617 21.1105 75.1932 21.1105C76.123 21.1105 75.4644 19.2269 76.6482 19.2269C77.1519 19.2269 77.5092 19.6209 77.5092 20.346C77.5256 20.7598 77.3857 21.1662 77.1131 21.4966V21.4966Z" fill="#FAFAFA"/>
<path d="M77.1131 18.8998L76.8721 18.7737C77.1192 18.4804 77.2511 18.1195 77.2466 17.7492C77.2466 17.1541 77.0184 16.9138 76.6654 16.9138C75.7657 16.9138 76.4287 18.7934 75.2104 18.7934C74.7412 18.7934 74.3494 18.4348 74.3494 17.7176C74.3445 17.3733 74.4492 17.0351 74.6507 16.7443L74.8918 16.8704C74.7018 17.1211 74.6038 17.4205 74.612 17.7255C74.612 18.2772 74.8617 18.5136 75.1932 18.5136C76.123 18.5136 75.4644 16.634 76.6482 16.634C77.1519 16.634 77.5092 17.028 77.5092 17.7531C77.5246 18.1656 77.3848 18.5704 77.1131 18.8998V18.8998Z" fill="#FAFAFA"/>
<path d="M63.5399 8.09086C64.2008 8.09086 64.7366 7.6004 64.7366 6.99538C64.7366 6.39036 64.2008 5.8999 63.5399 5.8999C62.8789 5.8999 62.3431 6.39036 62.3431 6.99538C62.3431 7.6004 62.8789 8.09086 63.5399 8.09086Z" fill="#E0E0E0"/>
<path d="M63.9101 10.006H63.1697V25.52H63.9101V10.006Z" fill="#E0E0E0"/>
<path d="M157.459 101.321C158.444 100.27 159.487 99.2666 160.585 98.3142C161.626 97.3109 162.723 96.356 163.869 95.4534C163.912 95.4928 162.513 96.8405 160.74 98.46C158.966 100.08 157.502 101.36 157.459 101.321Z" fill="#E0E0E0"/>
<path d="M163.869 101.321C162.723 100.418 161.626 99.4634 160.585 98.46C159.487 97.5077 158.444 96.5041 157.459 95.4533C157.502 95.4139 158.97 96.6946 160.744 98.3142C162.517 99.9338 163.912 101.281 163.869 101.321Z" fill="#E0E0E0"/>
<path d="M98.8269 69.4968C99.8129 68.4472 100.856 67.4437 101.952 66.4901C102.993 65.4854 104.089 64.5305 105.237 63.6293C105.28 63.6687 103.881 65.0124 102.112 66.6359C100.342 68.2594 98.87 69.5362 98.8269 69.4968Z" fill="#E0E0E0"/>
<path d="M105.237 69.4968C105.194 69.5362 103.722 68.2555 101.952 66.6359C100.856 65.6825 99.8128 64.679 98.8269 63.6293C99.9737 64.5317 101.07 65.4865 102.112 66.4901C103.872 68.1294 105.28 69.4574 105.237 69.4968Z" fill="#E0E0E0"/>
<path d="M90.0364 18.1393C89.8196 16.9655 89.6759 15.7815 89.6059 14.5928C89.4559 13.4156 89.3797 12.2315 89.3777 11.0463C89.6031 12.2195 89.754 13.4036 89.8298 14.5928C89.974 15.7703 90.043 16.9545 90.0364 18.1393V18.1393Z" fill="#E0E0E0"/>
<path d="M93.5836 14.2736C92.3014 14.4726 91.0079 14.6042 89.7092 14.6676C88.4229 14.8024 87.1295 14.8722 85.8348 14.8765C87.1161 14.6679 88.4099 14.5297 89.7092 14.4627C90.9956 14.3307 92.2892 14.2675 93.5836 14.2736Z" fill="#E0E0E0"/>
<path d="M54.095 57.0958C54.0637 57.0617 54.0363 57.0247 54.0132 56.9855L53.8023 56.6702L53.0231 55.4881L50.324 51.3032L50.4574 51.3347L44.0862 54.7315C44.0862 54.763 44.1637 54.4674 44.1249 54.5935V54.6172L44.1594 54.6684L44.2196 54.7669L44.3488 54.9679L44.5985 55.362C44.7621 55.6247 44.9256 55.8874 45.0892 56.1501L46.0363 57.6633L47.7582 60.4217L47.6248 60.3862L52.2482 57.9943L53.5698 57.3244L53.9228 57.151L54.0563 57.0919C53.9184 57.1837 53.7746 57.2679 53.6258 57.3441L52.3343 58.0415L47.7066 60.5399L47.6205 60.5872L47.5731 60.5083L45.8254 57.7499L44.8697 56.2407C44.7061 55.978 44.5425 55.7153 44.3789 55.4526L44.1249 55.0585L44.0001 54.8576L43.9398 54.7591L43.9054 54.7078V54.6842C43.8709 54.8063 43.957 54.5108 43.9484 54.5423L50.3627 51.1849L50.4445 51.1416L50.4918 51.2165L53.1393 55.5196L53.8583 56.7018C53.9441 56.8295 54.0231 56.961 54.095 57.0958V57.0958Z" fill="#E0E0E0"/>
<path d="M195.092 95.0554C195.092 95.0554 195.037 94.9214 194.899 94.7125C194.697 94.4144 194.395 94.1847 194.038 94.0584C193.783 93.9673 193.507 93.9351 193.235 93.9646C192.964 93.9942 192.704 94.0846 192.479 94.2278C192.289 94.3517 192.129 94.5115 192.011 94.6966C191.894 94.8817 191.821 95.0878 191.798 95.3009C191.774 95.5139 191.801 95.7291 191.877 95.9318C191.952 96.1345 192.074 96.3201 192.234 96.476C192.395 96.6319 192.59 96.7545 192.806 96.8355C193.023 96.9166 193.256 96.9542 193.49 96.9457C193.723 96.9373 193.952 96.8831 194.161 96.7868C194.37 96.6904 194.554 96.5542 194.701 96.3873C194.94 96.1195 195.076 95.7871 195.088 95.4415C195.088 95.1933 195.058 95.0475 195.088 95.0475C195.161 95.1676 195.196 95.3042 195.187 95.4415C195.207 95.8125 195.084 96.1782 194.838 96.474C194.655 96.6968 194.412 96.8733 194.134 96.987C193.855 97.1007 193.55 97.1479 193.246 97.1242C192.87 97.0928 192.514 96.956 192.227 96.7323C191.939 96.5087 191.734 96.2092 191.64 95.8748C191.546 95.5404 191.567 95.1876 191.7 94.8645C191.833 94.5415 192.072 94.264 192.385 94.0702C192.636 93.9162 192.925 93.8221 193.225 93.7966C193.526 93.7712 193.829 93.8151 194.107 93.9244C194.482 94.0726 194.787 94.338 194.968 94.6731C195.048 94.7872 195.091 94.9197 195.092 95.0554V95.0554Z" fill="#E0E0E0"/>
<path d="M114.634 1.26574C114.613 1.26574 114.574 1.13177 114.436 0.922915C114.237 0.623218 113.934 0.393014 113.575 0.268779C113.32 0.178012 113.045 0.145994 112.773 0.17554C112.501 0.205086 112.242 0.295291 112.017 0.438224C111.826 0.562057 111.667 0.721916 111.549 0.90702C111.431 1.09212 111.358 1.29816 111.335 1.51124C111.312 1.72432 111.339 1.93947 111.414 2.1422C111.49 2.34492 111.612 2.53049 111.772 2.68639C111.932 2.84229 112.127 2.96489 112.344 3.04592C112.561 3.12695 112.794 3.16453 113.027 3.15612C113.261 3.14771 113.49 3.09351 113.699 2.99717C113.908 2.90083 114.092 2.7646 114.238 2.59766C114.477 2.32985 114.613 1.99753 114.626 1.65192C114.626 1.40366 114.596 1.25786 114.626 1.25786C114.694 1.37976 114.728 1.51511 114.725 1.65192C114.744 2.02341 114.619 2.3891 114.372 2.68435C114.188 2.90716 113.946 3.08367 113.667 3.19738C113.388 3.31108 113.083 3.35828 112.779 3.33455C112.403 3.30324 112.047 3.16639 111.76 2.94273C111.472 2.71908 111.268 2.41955 111.173 2.08518C111.079 1.75081 111.1 1.39794 111.233 1.07489C111.367 0.751842 111.606 0.474415 111.918 0.2806C112.169 0.126557 112.458 0.032505 112.759 0.00703577C113.06 -0.0184335 113.362 0.0254922 113.64 0.1348C114.015 0.28302 114.32 0.54838 114.501 0.883508C114.579 0.998968 114.625 1.13024 114.634 1.26574V1.26574Z" fill="#E0E0E0"/>
<path d="M34.5638 46.3656C34.5638 46.3656 34.5035 46.2316 34.3658 46.0228C34.1663 45.7231 33.8633 45.4929 33.5048 45.3686C33.2498 45.2775 32.9742 45.2453 32.7024 45.2749C32.4306 45.3044 32.171 45.3948 31.9464 45.5381C31.673 45.7126 31.4645 45.9596 31.349 46.2459C31.2336 46.5321 31.2167 46.8439 31.3006 47.1392C31.3845 47.4345 31.5653 47.6992 31.8185 47.8976C32.0717 48.0961 32.3853 48.2188 32.717 48.2492C32.9897 48.2735 33.2648 48.2359 33.5179 48.1397C33.7709 48.0435 33.9941 47.8916 34.1677 47.6975C34.4042 47.4284 34.5401 47.0969 34.5552 46.7518C34.5552 46.5074 34.5207 46.3577 34.5552 46.3577C34.6231 46.4796 34.6571 46.615 34.6542 46.7518C34.6755 47.1241 34.552 47.4913 34.3055 47.7881C34.122 48.0076 33.8811 48.1811 33.6049 48.2927C33.3288 48.4042 33.0263 48.4503 32.7256 48.4265C32.3497 48.3964 31.9932 48.2604 31.7052 48.0372C31.4172 47.814 31.2118 47.5145 31.1174 47.1801C31.023 46.8456 31.0442 46.4926 31.178 46.1696C31.3118 45.8466 31.5517 45.5695 31.8646 45.3765C32.1154 45.2225 32.4042 45.1281 32.7049 45.102C33.0055 45.0759 33.3086 45.1187 33.5866 45.2268C33.9598 45.3773 34.2642 45.642 34.4475 45.9755C34.5204 46.0949 34.5603 46.2288 34.5638 46.3656V46.3656Z" fill="#E0E0E0"/>
<path d="M187.697 40.0647C187.671 40.0647 187.602 39.777 187.318 39.3159C186.976 38.7666 186.471 38.3172 185.861 38.0201C185.252 37.723 184.563 37.5902 183.874 37.6373C183.235 37.6833 182.621 37.8847 182.096 38.2205C181.81 38.3974 181.556 38.6141 181.343 38.8628C181.117 39.1185 180.936 39.4042 180.805 39.71C180.523 40.3566 180.475 41.0687 180.667 41.7423C180.859 42.4158 181.281 43.0154 181.872 43.4536C182.149 43.6638 182.459 43.8327 182.793 43.954C183.112 44.0735 183.449 44.1492 183.792 44.1786C184.431 44.2347 185.074 44.134 185.656 43.887C186.161 43.6719 186.604 43.3506 186.948 42.9492C187.458 42.3633 187.74 41.6378 187.748 40.8882C187.748 40.3563 187.649 40.0686 187.679 40.0647C187.709 40.1323 187.732 40.2022 187.748 40.2735C187.802 40.475 187.832 40.681 187.839 40.8882C187.856 41.5443 187.665 42.1908 187.29 42.7501C186.915 43.3094 186.372 43.7576 185.725 44.0407C185.114 44.3083 184.436 44.4199 183.762 44.3638C183.398 44.3375 183.041 44.2604 182.703 44.1353C182.346 44.0103 182.014 43.8319 181.722 43.6072C181.092 43.1441 180.642 42.5078 180.438 41.7925C180.234 41.0772 180.287 40.3208 180.589 39.6351C180.727 39.31 180.922 39.0078 181.166 38.7406C181.393 38.478 181.663 38.2493 181.967 38.0628C182.487 37.7353 183.09 37.5338 183.719 37.4773C184.347 37.4208 184.981 37.5111 185.561 37.7397C186.343 38.0445 186.985 38.5876 187.378 39.2765C187.485 39.4589 187.569 39.652 187.628 39.8519C187.657 39.921 187.68 39.9922 187.697 40.0647V40.0647Z" fill="#E0E0E0"/>
<path d="M176.099 89.9484C176.017 89.8315 175.943 89.7105 175.876 89.5859L175.234 88.5022C174.687 87.5683 173.895 86.2246 173 84.6444L172.914 84.4907H173.103L176.293 84.672L179.604 84.873H179.784L179.685 85.0109C178.644 86.4807 177.735 87.7259 177.102 88.5889L176.366 89.5898C176.286 89.7062 176.198 89.8181 176.104 89.9248C176.104 89.9248 176.194 89.775 176.362 89.5307C176.53 89.2864 176.792 88.9081 177.072 88.4786C177.675 87.5841 178.514 86.3428 179.513 84.9084L179.595 85.0582L176.284 84.869L173.09 84.6759L173.194 84.5341C174.055 86.0748 174.761 87.4067 175.277 88.3682C175.527 88.8293 175.729 89.2076 175.884 89.4992C176.039 89.7908 176.099 89.9405 176.099 89.9484Z" fill="#E0E0E0"/>
<path d="M146.081 15.5385C146.081 15.5385 146.004 15.4203 145.853 15.172L145.199 14.0923C144.652 13.1584 143.86 11.8107 142.965 10.2306L142.879 10.0808H143.064L146.258 10.266L149.568 10.467H149.749L149.65 10.6049C148.608 12.0708 147.696 13.316 147.067 14.179L146.331 15.1839C146.251 15.3002 146.163 15.4121 146.069 15.5188C146.069 15.5188 146.159 15.3691 146.327 15.1247L147.033 14.0726C147.64 13.1781 148.475 11.9408 149.478 10.5261L149.56 10.6758L146.249 10.4867L143.055 10.2897L143.158 10.1517C144.019 11.6886 144.725 13.0205 145.242 13.982C145.489 14.447 145.691 14.8253 145.849 15.1169C146.004 15.3769 146.081 15.5267 146.081 15.5385Z" fill="#E0E0E0"/>
<path d="M94.0141 103.429C94.0857 103.306 94.1663 103.188 94.2552 103.074L94.9956 102.05C95.6284 101.167 96.5454 99.8904 97.6474 98.4127L97.7335 98.2945L97.8196 98.4127L99.8731 101.171L101.47 103.354L101.586 103.508H101.384C99.2316 103.508 97.3504 103.472 96.0503 103.453L94.535 103.425C94.1863 103.425 94.0012 103.425 94.0141 103.425C94.027 103.425 94.2294 103.425 94.5953 103.405L96.145 103.382C97.4623 103.362 99.279 103.331 101.384 103.327L101.294 103.48L99.6879 101.301C98.9647 100.32 98.2759 99.3782 97.6474 98.5152H97.8196C96.7391 99.9417 95.8006 101.147 95.1205 102.018L94.3198 103.043C94.1303 103.291 94.0227 103.425 94.0141 103.429Z" fill="#E0E0E0"/>
<path d="M134.316 101.392C141.463 101.392 148.317 103.99 153.372 108.615C158.426 113.24 161.267 119.514 161.269 126.056V154.664H107.363V126.056C107.366 119.514 110.206 113.24 115.261 108.615C120.315 103.99 127.169 101.392 134.316 101.392V101.392Z" fill="#455A64"/>
<path d="M66.0668 140.794L63.3548 142.551L60.3414 149.175C60.3414 149.175 61.1593 149.68 61.7921 149.144C62.4249 148.608 64.8443 144.758 64.8443 144.758V147.036C64.8474 147.482 65.0291 147.913 65.355 148.245C65.681 148.578 66.1287 148.789 66.6136 148.84L71.082 150.117L76.5664 148.687L77.0357 142.713L66.0668 140.794Z" fill="#FFBE9D"/>
<path d="M114.794 96.7499C113.451 96.3952 112.792 94.9884 112.671 93.7156C112.551 92.4428 112.779 91.1267 112.4 89.8972C112.129 89.0224 111.561 88.2185 111.488 87.3122C111.41 86.3349 111.918 85.3931 111.952 84.4159C111.991 83.0485 111.091 81.7796 111.091 80.4122C111.061 78.5208 111.432 75.3959 113.498 75.5023C115.564 75.6087 118.875 78.9227 118.612 80.7984" fill="#263238"/>
<path d="M134.316 81.09L134.273 82.9815L133.843 111.259C133.795 114.542 130.674 117.119 126.834 117.044C122.96 116.969 119.805 114.222 119.796 110.904C119.796 107.421 119.701 103.756 119.701 103.756C119.701 103.756 114.802 103.011 113.786 97.1596C113.283 94.2515 113.442 89.4795 113.709 85.5783C113.766 84.7461 114.006 83.9332 114.416 83.1882C114.825 82.4433 115.394 81.7819 116.09 81.2437C116.786 80.7055 117.593 80.3017 118.464 80.0565C119.335 79.8114 120.25 79.73 121.156 79.8172L134.316 81.09Z" fill="#FFBE9D"/>
<path d="M115.035 88.9002C115.033 89.0962 115.115 89.285 115.263 89.4269C115.411 89.5687 115.613 89.6526 115.827 89.6607C115.933 89.6705 116.039 89.6604 116.141 89.6312C116.242 89.602 116.336 89.5543 116.416 89.4909C116.497 89.4275 116.562 89.3498 116.609 89.2625C116.656 89.1752 116.683 89.0801 116.688 88.9829C116.69 88.8848 116.67 88.7873 116.63 88.6961C116.591 88.6049 116.532 88.5217 116.457 88.4514C116.382 88.3811 116.293 88.3251 116.195 88.2864C116.096 88.2478 115.99 88.2274 115.883 88.2264C115.778 88.2183 115.673 88.2295 115.574 88.2592C115.474 88.2889 115.382 88.3366 115.303 88.3994C115.224 88.4622 115.16 88.5389 115.114 88.6249C115.068 88.7109 115.041 88.8045 115.035 88.9002V88.9002Z" fill="#263238"/>
<path d="M114.858 88.0609C114.957 88.1594 115.581 87.7377 116.464 87.7417C117.346 87.7456 117.992 88.1357 118.087 88.049C118.182 87.9624 118.031 87.8284 117.747 87.655C117.367 87.4157 116.916 87.2879 116.455 87.2885C115.99 87.2885 115.536 87.4268 115.164 87.6826C114.901 87.8323 114.807 88.0175 114.858 88.0609Z" fill="#263238"/>
<path d="M123.868 88.9002C123.865 89.0961 123.945 89.2855 124.093 89.4277C124.24 89.5698 124.442 89.6535 124.656 89.6607C124.762 89.6693 124.868 89.6585 124.969 89.6289C125.069 89.5993 125.163 89.5514 125.243 89.4882C125.323 89.4251 125.389 89.3478 125.436 89.261C125.483 89.1742 125.511 89.0797 125.517 88.9829C125.519 88.787 125.438 88.5981 125.29 88.4566C125.142 88.3152 124.939 88.2325 124.725 88.2263C124.62 88.2166 124.514 88.2265 124.413 88.2555C124.312 88.2845 124.219 88.332 124.139 88.395C124.059 88.458 123.993 88.5353 123.947 88.6222C123.9 88.709 123.874 88.8036 123.868 88.9002V88.9002Z" fill="#263238"/>
<path d="M123.528 88.2264C123.632 88.3249 124.252 87.9072 125.134 87.9072C126.017 87.9072 126.662 88.3013 126.761 88.2146C126.86 88.1279 126.705 87.9939 126.421 87.8205C126.041 87.5824 125.591 87.4547 125.13 87.454C124.664 87.4554 124.212 87.5936 123.838 87.8481C123.571 87.99 123.481 88.1673 123.528 88.2264Z" fill="#263238"/>
<path d="M120.33 94.2003C119.864 94.0704 119.383 93.991 118.896 93.9638C118.668 93.9441 118.466 93.9008 118.418 93.7629C118.401 93.55 118.453 93.3372 118.569 93.1521L119.236 91.5759C120.162 89.3416 120.829 87.5013 120.73 87.4698C120.631 87.4382 119.805 89.2194 118.879 91.4576C118.655 92.0093 118.449 92.5334 118.238 93.0339C118.104 93.2774 118.063 93.5548 118.121 93.822C118.154 93.8942 118.205 93.9586 118.269 94.0105C118.333 94.0623 118.409 94.1003 118.492 94.1215C118.616 94.1537 118.745 94.1709 118.875 94.1727C119.356 94.2392 119.845 94.2485 120.33 94.2003V94.2003Z" fill="#263238"/>
<path d="M119.718 103.756C122.729 103.799 125.693 103.076 128.281 101.668C128.281 101.668 126.202 105.687 119.805 105.139L119.718 103.756Z" fill="#EB996E"/>
<path d="M120.7 96.1469C120.868 95.9539 121.087 95.803 121.336 95.7086C121.586 95.6142 121.857 95.5792 122.125 95.6071C122.32 95.623 122.509 95.6749 122.681 95.7595C122.854 95.8442 123.006 95.9599 123.128 96.0996C123.246 96.234 123.316 96.3984 123.328 96.5704C123.34 96.7425 123.295 96.9138 123.197 97.0611C123.056 97.2065 122.871 97.3097 122.665 97.3575C122.459 97.4053 122.243 97.3954 122.043 97.3291C121.627 97.1941 121.243 96.9852 120.915 96.7144C120.815 96.6495 120.729 96.568 120.661 96.474C120.629 96.4297 120.611 96.3776 120.611 96.3242C120.611 96.2709 120.629 96.2188 120.661 96.1745" fill="#EB996E"/>
<path d="M122.926 94.7598C122.779 94.7598 122.779 95.6307 121.961 96.2494C121.143 96.868 120.119 96.7774 120.115 96.8996C120.115 96.9547 120.338 97.069 120.769 97.0808C121.331 97.0879 121.878 96.9136 122.314 96.5883C122.731 96.2765 122.998 95.8283 123.059 95.3391C123.098 94.9726 122.99 94.7559 122.926 94.7598Z" fill="#263238"/>
<path d="M123.3 85.0463C123.39 85.267 124.269 85.1645 125.306 85.2788C126.344 85.3931 127.179 85.6492 127.312 85.4522C127.377 85.3576 127.23 85.1527 126.882 84.9399C126.431 84.6794 125.922 84.5162 125.392 84.463C124.863 84.4097 124.327 84.4677 123.825 84.6326C123.455 84.7705 123.266 84.9439 123.3 85.0463Z" fill="#263238"/>
<path d="M115.181 85.7241C115.336 85.9093 115.943 85.7241 116.675 85.7241C117.407 85.7241 118.027 85.8462 118.169 85.6571C118.229 85.5625 118.134 85.3773 117.863 85.2039C117.502 84.9923 117.078 84.8877 116.649 84.9044C116.219 84.9111 115.802 85.0406 115.457 85.2749C115.198 85.4443 115.112 85.6334 115.181 85.7241Z" fill="#263238"/>
<path d="M136.671 79.2931C138.001 75.9869 143.537 71.0179 147.795 73.2246C152.457 75.652 150.808 77.3385 152.491 78.4577C152.892 78.7217 154.786 78.1464 155.049 78.5325C155.742 79.5531 155.152 80.8732 154.562 81.9451C154.709 81.9256 154.854 81.8912 154.993 81.8426C155.113 81.7994 155.243 81.7842 155.371 81.7986C155.5 81.8129 155.622 81.8562 155.728 81.9246C155.833 81.993 155.918 82.0844 155.976 82.1904C156.033 82.2965 156.061 82.414 156.056 82.5322C155.976 83.8431 155.474 85.1031 154.614 86.1536C154.906 86.2158 155.209 86.2252 155.505 86.1812C155.599 86.1673 155.696 86.1761 155.785 86.2068C155.875 86.2375 155.954 86.2889 156.015 86.3561C156.077 86.4232 156.118 86.5038 156.135 86.5899C156.152 86.676 156.144 86.7647 156.112 86.8471C155.849 87.4766 155.418 88.0354 154.858 88.4721C154.297 88.9087 153.626 89.2091 152.905 89.3455C151.127 89.6804 149.25 89.0893 147.799 88.0924C146.348 87.0954 145.255 85.728 144.273 84.3212C143.701 83.5134 143.137 82.6623 142.285 82.0948C141.432 81.5274 140.205 81.3067 139.331 81.8426" fill="#263238"/>
<path d="M139.323 81.7165C139.323 81.7165 139.323 81.6535 139.323 81.5628C139.31 81.4271 139.273 81.2942 139.215 81.1688C139.031 80.7533 138.798 80.357 138.522 79.9866C138.256 79.6019 137.952 79.2405 137.614 78.9069C137.356 78.6547 137.162 78.5128 137.183 78.5128C137.39 78.5694 137.577 78.6739 137.726 78.8162C138.104 79.1326 138.435 79.493 138.712 79.8881C139 80.2776 139.221 80.7056 139.366 81.1569C139.415 81.2982 139.431 81.4471 139.413 81.5943C139.383 81.6732 139.331 81.7244 139.323 81.7165Z" fill="#FF725E"/>
<path d="M150.132 90.7877C150.132 90.7877 150.085 90.8311 149.977 90.8941C149.823 90.9897 149.659 91.0703 149.487 91.1345C148.849 91.3713 148.155 91.4554 147.472 91.3788C146.445 91.2734 145.496 90.8277 144.803 90.1257C144.407 89.7006 144.114 89.2037 143.942 88.6677C143.766 88.1012 143.66 87.5182 143.628 86.9299C143.546 85.7477 143.598 84.5931 143.365 83.5922C143.265 83.1196 143.086 82.6638 142.836 82.2406C142.608 81.8798 142.304 81.5649 141.94 81.3146C141.423 80.9299 140.772 80.7284 140.106 80.7471C139.864 80.7745 139.625 80.8206 139.392 80.885C139.443 80.8487 139.499 80.8194 139.56 80.7983C139.732 80.7315 139.913 80.6865 140.098 80.6644C140.793 80.6163 141.483 80.8058 142.035 81.1964C142.423 81.4533 142.75 81.7806 142.995 82.1579C143.264 82.5926 143.457 83.0633 143.567 83.5528C143.817 84.5813 143.77 85.7359 143.852 86.9181C143.884 87.4913 143.985 88.0596 144.153 88.6125C144.311 89.1214 144.582 89.5949 144.949 90.0035C145.504 90.5636 146.226 90.9622 147.025 91.15C147.825 91.3377 148.667 91.3063 149.448 91.0596C149.9 90.9099 150.119 90.768 150.132 90.7877Z" fill="#263238"/>
<path d="M154.429 74.8796C154.48 74.948 154.522 75.0221 154.553 75.1003C154.649 75.3245 154.704 75.5614 154.717 75.8017C154.743 76.1839 154.674 76.5665 154.515 76.9208C154.31 77.4006 153.94 77.806 153.46 78.0754C152.868 78.3892 152.171 78.4916 151.501 78.3631C151.116 78.2962 150.752 78.1524 150.434 77.942C150.116 77.7315 149.853 77.4596 149.663 77.1454C149.283 76.4544 149.033 75.7097 148.923 74.9427C148.75 74.1743 148.587 73.3428 148.019 72.7162C147.739 72.4116 147.363 72.194 146.942 72.0936C146.53 72.0004 146.101 71.9937 145.685 72.0739C144.884 72.239 144.123 72.5368 143.438 72.9527C142.239 73.6238 141.12 74.4069 140.098 75.2894C139.409 75.8851 138.764 76.5209 138.165 77.1927L137.683 77.7484C137.634 77.8187 137.574 77.8824 137.506 77.9375C137.546 77.8624 137.593 77.7911 137.648 77.7247C137.743 77.5868 137.898 77.3937 138.079 77.1454C138.653 76.4444 139.286 75.7857 139.973 75.1752C140.986 74.2688 142.105 73.4667 143.309 72.7832C144.014 72.3516 144.799 72.0418 145.625 71.869C146.074 71.7792 146.54 71.7859 146.985 71.8887C147.464 71.9963 147.893 72.2389 148.212 72.5823C148.832 73.2719 148.992 74.1388 149.159 74.9033C149.262 75.6497 149.499 76.3754 149.861 77.0509C150.035 77.344 150.277 77.5987 150.57 77.7968C150.863 77.995 151.2 78.1318 151.557 78.1976C152.184 78.3222 152.839 78.2339 153.4 77.9493C153.856 77.7011 154.214 77.3254 154.42 76.8775C154.581 76.5396 154.66 76.1741 154.652 75.8056C154.631 75.4882 154.555 75.1758 154.429 74.8796V74.8796Z" fill="#263238"/>
<path d="M138.26 73.4886C138.472 73.667 138.633 73.8902 138.729 74.1388C139.014 74.7288 139.102 75.3828 138.983 76.0187C138.863 76.6546 138.541 77.244 138.057 77.7129C137.875 77.9184 137.642 78.0807 137.377 78.1858C137.356 78.1582 137.618 77.9808 137.941 77.6183C138.364 77.1481 138.646 76.5848 138.759 75.9841C138.871 75.3835 138.81 74.7664 138.582 74.1939C138.41 73.7526 138.225 73.5043 138.26 73.4886Z" fill="#263238"/>
<path d="M138.897 80.7629C138.407 79.6332 137.622 78.6313 136.609 77.8457C135.596 77.0602 134.387 76.5151 133.089 76.2588C131.502 75.9868 129.861 76.1899 128.41 76.8381C127.876 76.5223 127.388 76.1448 126.959 75.715C125.442 74.3147 123.561 73.2909 121.492 72.7399C119.409 72.197 117.182 72.3549 115.216 73.1852C114.244 73.6064 113.391 74.2245 112.72 74.9926C112.048 75.7607 111.577 76.6586 111.341 77.6183C111.127 78.5828 111.208 79.5829 111.575 80.5079C111.943 81.4328 112.583 82.2467 113.425 82.8593C115.147 84.0415 117.73 84.0691 119.387 82.8199C119.271 83.6829 120.097 84.4828 121.031 84.6444C121.504 84.6981 121.983 84.6628 122.44 84.5409C122.896 84.4189 123.321 84.2127 123.688 83.9351C124.416 83.3799 125.101 82.7781 125.737 82.1342C125.991 81.9096 126.253 81.6929 126.52 81.484C127.022 82.4777 127.769 83.351 128.703 84.0349C129.637 84.7188 130.732 85.1946 131.901 85.4246C131.161 86.1615 131.225 87.3161 131.531 88.2776C131.837 89.2391 132.332 90.177 132.31 91.1779C132.31 92.0211 131.901 92.8132 131.725 93.6407C131.485 94.7997 131.668 95.9988 132.246 97.0533C132.465 97.4473 132.736 98.0226 132.982 98.4128C133.412 99.1142 133.412 99.1142 134.049 99.2915C135.367 99.6659 137.64 95.2879 138.225 93.5501C138.716 92.1 138.905 89.4992 139.478 88.0766C140.485 85.5231 139.861 83.0169 138.897 80.7629Z" fill="#263238"/>
<path d="M139.783 86.2561C139.76 86.303 139.73 86.3468 139.693 86.3861C139.593 86.5014 139.47 86.5989 139.331 86.6738C139.072 86.8127 138.779 86.8907 138.479 86.9011C138.178 86.9114 137.88 86.8536 137.609 86.7329C137.426 86.65 137.262 86.5348 137.127 86.394C136.99 86.2411 136.877 86.0713 136.792 85.8896C136.638 85.4996 136.442 85.1247 136.206 84.7705C136.054 84.5993 135.865 84.4576 135.653 84.3534C135.44 84.2493 135.207 84.1847 134.966 84.1636C134.429 84.1101 133.888 84.089 133.348 84.1006C132.792 84.0902 132.241 84.0201 131.703 83.8917C131.206 83.764 130.724 83.5897 130.265 83.3716C129.491 83.0005 128.798 82.5023 128.221 81.9018C127.828 81.5014 127.5 81.0515 127.248 80.5659C127.177 80.4382 127.115 80.3066 127.063 80.1718C127.038 80.1245 127.022 80.074 127.015 80.0221C127.371 80.6662 127.815 81.2661 128.337 81.8072C128.917 82.3791 129.602 82.8539 130.36 83.21C130.808 83.4143 131.277 83.5792 131.759 83.7026C132.28 83.8235 132.815 83.8896 133.352 83.8996C133.903 83.8875 134.454 83.9112 135.001 83.9706C135.267 83.9969 135.526 84.0714 135.761 84.1898C135.996 84.3082 136.203 84.468 136.37 84.6602C136.613 85.0333 136.811 85.4297 136.959 85.8423C137.036 86.0116 137.138 86.1706 137.261 86.3152C137.382 86.4437 137.528 86.5506 137.691 86.6304C137.942 86.7474 138.219 86.8084 138.501 86.8084C138.782 86.8084 139.059 86.7474 139.31 86.6304C139.484 86.5241 139.643 86.3983 139.783 86.2561V86.2561Z" fill="#455A64"/>
<path d="M138.789 88.6204C138.789 88.6204 138.712 88.7268 138.518 88.8608C138.244 89.0495 137.935 89.1911 137.605 89.2785C137.112 89.415 136.588 89.4313 136.086 89.3258C135.465 89.1973 134.902 88.8991 134.471 88.4707C134.085 88.0288 133.758 87.5459 133.498 87.0324C133.286 86.6282 132.994 86.2634 132.637 85.9566C132.401 85.7521 132.115 85.6021 131.802 85.5192C131.68 85.5035 131.56 85.4811 131.441 85.4522C131.565 85.4243 131.695 85.4243 131.819 85.4522C132.16 85.5042 132.479 85.6405 132.741 85.8463C133.125 86.1536 133.443 86.5254 133.675 86.9417C133.934 87.4374 134.255 87.9042 134.631 88.3328C135.031 88.7317 135.55 89.014 136.124 89.1445C136.594 89.2516 137.084 89.2516 137.554 89.1445C137.991 89.0252 138.407 88.8487 138.789 88.6204V88.6204Z" fill="#455A64"/>
<path d="M155.755 81.7559C155.751 81.8324 155.73 81.9075 155.694 81.9766C155.608 82.1864 155.476 82.3781 155.307 82.5401C155.038 82.7984 154.704 82.9919 154.334 83.1036C153.845 83.2612 153.315 83.2804 152.814 83.1588C151.682 82.9066 150.619 81.9766 149.969 80.7472C149.319 79.5177 148.91 78.0557 147.915 76.8066C147.437 76.2044 146.784 75.7373 146.03 75.4589C145.323 75.21 144.564 75.109 143.809 75.1634C142.522 75.2657 141.309 75.7595 140.365 76.5662C139.715 77.1039 139.162 77.7331 138.729 78.4301C138.419 78.9227 138.298 79.2182 138.268 79.2182C138.282 79.1411 138.31 79.0666 138.35 78.9975C138.44 78.7944 138.542 78.5958 138.656 78.4025C139.065 77.68 139.607 77.027 140.257 76.4716C141.222 75.6214 142.475 75.0974 143.809 74.986C144.597 74.9232 145.39 75.0257 146.129 75.2855C146.923 75.5722 147.611 76.0619 148.109 76.6962C149.142 77.9927 149.504 79.4862 150.171 80.6683C150.838 81.8505 151.807 82.7687 152.87 83.0327C153.343 83.1563 153.845 83.148 154.312 83.009C154.646 82.9237 154.952 82.7669 155.205 82.5518C155.459 82.3366 155.653 82.0692 155.772 81.7717L155.755 81.7559Z" fill="#455A64"/>
<path d="M155.591 84.5222C155.591 84.5222 155.544 84.5853 155.436 84.6917C155.27 84.8421 155.093 84.9817 154.906 85.1094C154.61 85.3117 154.286 85.4773 153.942 85.6019C153.483 85.7729 152.986 85.8418 152.491 85.8029C151.856 85.7093 151.248 85.5 150.703 85.1872C150.158 84.8745 149.688 84.4648 149.319 83.9824C148.88 83.4195 148.54 82.7972 148.311 82.1382C148.053 81.4683 147.851 80.759 147.575 80.0576C147.329 79.3741 146.951 78.7363 146.46 78.174C145.999 77.6604 145.375 77.2901 144.674 77.114C143.462 76.8427 142.183 76.9915 141.084 77.5317C140.34 77.8933 139.649 78.3409 139.03 78.8636L138.518 79.2891C138.462 79.3441 138.4 79.3931 138.333 79.4349C138.375 79.3707 138.427 79.3123 138.488 79.2616C138.591 79.1512 138.75 78.9975 138.97 78.8045C139.574 78.2515 140.261 77.7804 141.01 77.4055C142.141 76.8264 143.469 76.6576 144.73 76.9327C145.473 77.1145 146.136 77.5027 146.628 78.0439C147.137 78.6236 147.529 79.2814 147.786 79.9866C148.066 80.6999 148.268 81.4092 148.518 82.0751C148.739 82.7137 149.064 83.3181 149.482 83.8681C150.188 84.8063 151.272 85.4498 152.496 85.6571C152.967 85.7029 153.443 85.6476 153.886 85.4956C154.224 85.3813 154.545 85.2291 154.842 85.0424C155.35 84.735 155.578 84.5104 155.591 84.5222Z" fill="#455A64"/>
<path d="M109.128 143.17L109.856 144.833L108.422 160H144.992L143.361 155.464L147.907 155.677C154.919 156 160.649 150.267 159.284 143.962C159.241 143.773 159.198 143.568 159.142 143.394C156.874 135.281 153.787 124.373 152.715 121.154C150.937 115.83 146.981 113.3 146.981 113.3H146.921C141.449 109.214 134.006 108.851 134.006 108.851L131.264 110.538C129.912 111.367 128.351 111.866 126.729 111.988C125.107 112.11 123.478 111.851 121.996 111.235C121.454 111.01 120.972 110.68 120.582 110.268C120.192 109.857 119.904 109.374 119.736 108.851V108.851C116.516 109.16 113.365 109.912 110.39 111.082C108.699 111.798 107.186 112.823 105.943 114.094C104.7 115.364 103.754 116.853 103.162 118.47L93.6094 144.084L77.3456 142.07L73.8672 150.763L90.3463 154.357C93.3008 155.163 96.4682 155.016 99.3184 153.94C102.169 152.864 104.528 150.925 106.003 148.446L109.128 143.186V143.17ZM139.547 145.235C139.547 145.235 141.109 139.749 142.061 136.798L144.368 145.073L139.547 145.235Z" fill="#FF725E"/>
<path d="M151.983 155.764H151.794H151.243H149.091L141.036 155.792L113.007 155.827H112.912V155.728C113.055 152.6 113.21 149.317 113.364 145.928V145.834H113.468L123.881 145.534L144.368 144.971L144.269 145.093C143.503 142.535 142.879 140.045 142.276 137.669C141.673 135.293 141.135 133.015 140.606 130.871C140.353 129.799 140.105 128.759 139.861 127.75C139.595 126.782 139.399 125.799 139.275 124.807C139.184 123.889 139.184 122.966 139.275 122.048C139.352 121.204 139.519 120.368 139.775 119.554C140.195 118.154 141.04 116.892 142.211 115.913C143.098 115.198 144.19 114.733 145.358 114.573C146.083 114.466 146.825 114.504 147.532 114.683C147.713 114.731 147.89 114.791 148.062 114.861C148.178 114.904 148.234 114.932 148.234 114.932C148.234 114.932 147.997 114.833 147.524 114.715C146.82 114.549 146.087 114.521 145.371 114.632C144.221 114.803 143.149 115.272 142.28 115.984C141.133 116.956 140.307 118.204 139.9 119.586C139.652 120.394 139.49 121.223 139.418 122.06C139.324 122.978 139.324 123.901 139.418 124.819C139.544 125.804 139.742 126.781 140.012 127.743C140.257 128.747 140.507 129.788 140.769 130.859C141.299 133.003 141.863 135.273 142.452 137.649C143.042 140.025 143.688 142.516 144.459 145.065L144.493 145.183H144.36L123.894 145.759L113.476 146.058L113.584 145.96C113.425 149.349 113.27 152.631 113.123 155.76L113.016 155.658L141.045 155.697L149.099 155.725H151.252H151.803C151.864 155.734 151.924 155.748 151.983 155.764V155.764Z" fill="#263238"/>
<path d="M111.156 120.874C111.175 120.954 111.182 121.036 111.178 121.118C111.178 121.28 111.178 121.512 111.178 121.824C111.118 122.688 110.952 123.543 110.683 124.373C110.276 125.597 109.799 126.801 109.253 127.979C108.577 129.409 108.049 130.895 107.678 132.416C107.375 133.948 107.366 135.516 107.652 137.05C107.883 138.305 108.214 139.543 108.642 140.754C109.004 141.791 109.327 142.622 109.55 143.197L109.8 143.859C109.835 143.935 109.86 144.014 109.873 144.096C109.825 144.027 109.786 143.953 109.757 143.875C109.684 143.706 109.585 143.481 109.469 143.225C109.219 142.658 108.875 141.834 108.491 140.798C108.038 139.585 107.69 138.341 107.45 137.078C107.144 135.523 107.144 133.931 107.45 132.377C107.82 130.843 108.352 129.347 109.038 127.908C109.641 126.576 110.17 125.374 110.506 124.334C110.787 123.515 110.976 122.673 111.07 121.82C111.139 121.213 111.135 120.874 111.156 120.874Z" fill="#263238"/>
<path d="M144.368 145.077C144.613 144.996 144.875 144.965 145.134 144.986C145.762 145.001 146.379 145.135 146.947 145.38C147.529 145.61 148.029 145.986 148.389 146.464C148.55 146.654 148.647 146.883 148.669 147.122C148.63 147.122 148.54 146.878 148.26 146.547C147.884 146.121 147.401 145.784 146.852 145.566C146.307 145.34 145.725 145.197 145.13 145.144C144.875 145.138 144.62 145.115 144.368 145.077V145.077Z" fill="#263238"/>
<path d="M141.148 110.333C141.383 110.395 141.612 110.474 141.833 110.569C142.052 110.652 142.319 110.751 142.625 110.877L143.645 111.334C144.024 111.503 144.424 111.728 144.859 111.937C145.294 112.146 145.72 112.425 146.202 112.701C147.206 113.325 148.149 114.026 149.022 114.798C150.614 116.207 151.831 117.933 152.578 119.842C152.709 120.169 152.818 120.503 152.905 120.843C152.982 121.142 153.055 121.394 153.085 121.631C153.134 121.85 153.165 122.073 153.18 122.297C153.099 122.085 153.039 121.868 152.999 121.646C152.961 121.434 152.875 121.185 152.784 120.89C152.694 120.594 152.573 120.271 152.431 119.909C151.648 118.043 150.432 116.356 148.867 114.963C148.004 114.2 147.074 113.502 146.086 112.879C145.625 112.603 145.186 112.331 144.764 112.091C144.342 111.85 143.946 111.645 143.572 111.468L142.569 110.987L141.798 110.648C141.573 110.558 141.356 110.452 141.148 110.333V110.333Z" fill="#263238"/>
<g opacity="0.3">
<path opacity="0.3" d="M139.723 126.844C139.723 126.844 136.09 141.531 136.146 142.969C136.156 143.725 136.282 144.475 136.52 145.199L139.534 145.223L139.56 144.951L142.099 136.64L139.723 126.844Z" fill="black"/>
</g>
<path d="M119.757 126.103C119.757 126.127 119.374 126.265 118.763 126.678C117.912 127.273 117.265 128.079 116.899 128.999C116.654 129.631 116.553 130.301 116.602 130.97C116.648 131.739 116.896 132.486 117.325 133.149C117.792 133.884 118.459 134.495 119.262 134.922C119.682 135.152 120.136 135.324 120.61 135.434C121.097 135.552 121.6 135.606 122.103 135.592C122.607 135.581 123.107 135.507 123.589 135.371C124.053 135.232 124.497 135.04 124.91 134.8C125.962 134.167 126.741 133.219 127.113 132.119C127.486 131.018 127.428 129.833 126.951 128.767C126.537 127.862 125.846 127.087 124.962 126.533C124.333 126.139 123.924 126.024 123.937 126.001C124.037 126.026 124.135 126.057 124.23 126.095C124.502 126.198 124.764 126.322 125.013 126.466C125.794 126.925 126.436 127.558 126.879 128.304C127.322 129.051 127.553 129.888 127.549 130.737C127.541 131.535 127.331 132.319 126.938 133.031C126.497 133.818 125.842 134.487 125.035 134.973C124.606 135.225 124.145 135.428 123.662 135.576C123.159 135.716 122.637 135.793 122.112 135.805C121.074 135.829 120.049 135.586 119.155 135.103C118.321 134.657 117.629 134.018 117.148 133.251C116.462 132.165 116.241 130.883 116.531 129.656C116.821 128.429 117.6 127.345 118.715 126.615C118.957 126.464 119.212 126.332 119.477 126.221C119.568 126.177 119.661 126.137 119.757 126.103V126.103Z" fill="white"/>
<path d="M121.974 125.205C122.085 126.408 122.122 127.615 122.086 128.822C122.122 130.029 122.085 131.237 121.974 132.44C121.861 131.237 121.823 130.029 121.862 128.822C121.823 127.615 121.861 126.408 121.974 125.205V125.205Z" fill="white"/>
<path d="M108.095 145.759L105.728 144.88C105.728 144.88 102.977 140.608 102.413 140.813C101.849 141.018 101.767 142.323 102.886 144.289L99.774 143.647C99.774 143.647 93.3167 146.799 93.6223 147.158C93.928 147.516 94.535 148.387 95.9427 147.638C97.3504 146.89 99.1928 145.995 99.1928 145.995L102.83 146.748L98.2458 147.536L94.126 151.37C94.126 151.37 95.6112 152.276 96.7778 151.177L108.186 152.82H113.016L113.274 146.976L108.095 145.759Z" fill="#FFBE9D"/>
<path d="M96.7778 151.149C96.8294 151.173 97.0188 150.858 97.402 150.432C97.6266 150.189 97.8909 149.979 98.1855 149.81C98.5588 149.626 98.966 149.507 99.3865 149.459C101.251 149.159 102.753 148.844 102.736 148.758C102.718 148.671 101.195 148.84 99.3219 149.152C98.8563 149.204 98.4086 149.348 98.009 149.573C97.6934 149.77 97.4205 150.018 97.2039 150.306C96.9853 150.549 96.8385 150.84 96.7778 151.149V151.149Z" fill="#EB996E"/>
<path d="M98.5686 151.473C98.6117 151.473 98.6332 151.256 98.9432 151.177C99.2531 151.098 99.774 151.027 100.303 150.948C101.38 150.791 102.271 150.755 102.275 150.661C102.279 150.566 101.367 150.468 100.252 150.629C99.7703 150.688 99.2988 150.802 98.8484 150.968C98.7702 150.999 98.7005 151.045 98.6446 151.104C98.5887 151.162 98.548 151.232 98.5256 151.307C98.5041 151.421 98.5471 151.476 98.5686 151.473Z" fill="#EB996E"/>
<path d="M107.781 145.633C107.393 145.56 107.012 145.461 106.64 145.337C105.943 145.14 104.974 144.892 103.894 144.644L101.126 144.005C100.738 143.934 100.358 143.827 99.9935 143.686C100.389 143.715 100.781 143.775 101.164 143.867C101.879 144.001 102.886 144.194 103.95 144.447C104.877 144.654 105.793 144.905 106.692 145.199C107.072 145.304 107.438 145.45 107.781 145.633V145.633Z" fill="#EB996E"/>
<path d="M147.485 35.7143C147.466 35.5731 147.457 35.4309 147.459 35.2887C147.459 34.9944 147.45 34.6004 147.433 34.1065C147.433 33.0898 147.407 31.683 147.386 30.0044L147.481 30.095H141.256C141.256 30.1186 141.471 29.9019 141.368 29.9925V31.5175C141.368 32.0219 141.368 32.5145 141.368 32.9913C141.368 33.9489 141.368 34.8513 141.368 35.6788L141.269 35.5921L145.754 35.6354L147.046 35.6591C147.343 35.6591 147.506 35.6591 147.515 35.6788C147.372 35.6974 147.228 35.7053 147.085 35.7024H145.832L141.286 35.7497H141.191V35.6591C141.191 34.8316 141.191 33.9292 141.191 32.9716C141.191 32.4948 141.191 32.0022 141.191 31.4978V29.9728C141.092 30.0674 141.329 29.8467 141.303 29.8704H147.528H147.627V29.9571C147.627 31.6594 147.588 33.0859 147.58 34.1183C147.58 34.5912 147.571 34.9734 147.554 35.265C147.541 35.4159 147.518 35.5659 147.485 35.7143V35.7143Z" fill="#263238"/>
<path d="M147.485 30.0753C147.528 30.1147 146.172 31.4151 144.471 32.9795C143.461 33.9479 142.398 34.8685 141.286 35.7379C142.236 34.7235 143.241 33.7541 144.299 32.8337C145.307 31.8631 146.37 30.9423 147.485 30.0753V30.0753Z" fill="#263238"/>
<path d="M147.386 35.6788C146.294 34.8223 145.253 33.912 144.269 32.9519C143.23 32.0406 142.242 31.0805 141.312 30.0753C142.401 30.9363 143.441 31.8477 144.428 32.8061C145.466 33.7179 146.453 34.6767 147.386 35.6788V35.6788Z" fill="#263238"/>
<path d="M184.343 68.8742C184.437 68.746 184.548 68.6294 184.675 68.5275C184.937 68.291 185.26 67.9915 185.639 67.6448C186.461 66.9039 187.611 65.8912 188.885 64.78L188.915 64.7563V64.9061C187.624 63.8145 186.474 62.8215 185.648 62.0964L184.679 61.2295C184.551 61.1307 184.438 61.0167 184.343 60.8906C184.484 60.9712 184.615 61.0649 184.735 61.1704L185.755 61.99C186.616 62.6875 187.783 63.6648 189.07 64.7484L189.156 64.8233L189.07 64.8982L189.04 64.9258C187.748 66.0331 186.599 67.03 185.751 67.7433L184.735 68.5826C184.617 68.6931 184.485 68.7909 184.343 68.8742Z" fill="#263238"/>
<path d="M174.416 60.8906C174.323 61.0189 174.211 61.1354 174.085 61.2374L173.116 62.1201C172.294 62.8609 171.149 63.8736 169.875 64.9849L169.844 65.0085V64.8588C171.136 65.9503 172.281 66.9433 173.112 67.6684L174.08 68.5353C174.208 68.6342 174.321 68.7482 174.416 68.8742C174.274 68.7954 174.143 68.7015 174.024 68.5944C173.745 68.3738 173.405 68.0979 173.004 67.7748C172.143 67.0773 170.977 66.1001 169.689 65.0164L169.603 64.9415L169.689 64.8667L169.72 64.8391C171.011 63.7318 172.16 62.7348 173.008 62.0216L174.024 61.1822C174.144 61.0733 174.275 60.9756 174.416 60.8906Z" fill="#263238"/>
<path d="M176.965 70.7538C176.909 70.7538 177.95 68.0624 179.289 64.7917C180.628 61.521 181.769 58.8809 181.829 58.9006C181.889 58.9203 180.843 61.592 179.5 64.8627C178.157 68.1333 177.021 70.7735 176.965 70.7538Z" fill="#263238"/>
<path d="M195.618 76.4677C195.618 76.4677 195.618 76.3101 195.618 76.0185C195.618 75.7269 195.618 75.2934 195.618 74.7338C195.618 73.6068 195.618 71.9754 195.592 69.8712C195.592 65.6823 195.562 59.7005 195.544 52.4853L195.635 52.5681L163.348 52.5878L163.46 52.4853C163.46 61.1546 163.46 69.3392 163.46 76.4677L163.357 76.3731L186.668 76.4204L193.276 76.444H195.032H195.484H195.639H195.054H193.332L186.745 76.4677L163.37 76.515H163.271V76.4243C163.271 69.2958 163.271 61.1113 163.271 52.442V52.3671H163.387H195.674H195.768V52.4538C195.768 59.6887 195.734 65.6941 195.721 69.8948C195.721 71.9794 195.721 73.6147 195.695 74.7378C195.695 75.2895 195.695 75.715 195.695 76.0066C195.695 76.2982 195.618 76.4677 195.618 76.4677Z" fill="#263238"/>
<path d="M195.872 56.0437C195.872 56.0988 188.583 56.1461 179.599 56.1461C170.615 56.1461 163.323 56.0988 163.323 56.0437C163.323 55.9885 170.606 55.9412 179.599 55.9412C188.592 55.9412 195.872 55.9846 195.872 56.0437Z" fill="#263238"/>
<path d="M165.97 54.2901C165.97 54.3681 165.945 54.4442 165.897 54.509C165.85 54.5738 165.783 54.6243 165.704 54.6542C165.626 54.684 165.539 54.6918 165.456 54.6766C165.372 54.6614 165.295 54.6239 165.235 54.5688C165.175 54.5136 165.134 54.4434 165.117 54.367C165.101 54.2905 165.109 54.2113 165.142 54.1393C165.174 54.0673 165.23 54.0058 165.3 53.9625C165.371 53.9192 165.454 53.8961 165.539 53.8961C165.654 53.8961 165.763 53.9376 165.844 54.0115C165.925 54.0854 165.97 54.1856 165.97 54.2901Z" fill="#263238"/>
<path d="M167.554 54.2901C167.554 54.3681 167.529 54.4442 167.482 54.509C167.434 54.5738 167.367 54.6243 167.288 54.6542C167.21 54.684 167.123 54.6918 167.04 54.6766C166.956 54.6614 166.879 54.6239 166.819 54.5688C166.759 54.5136 166.718 54.4434 166.701 54.367C166.685 54.2905 166.693 54.2113 166.726 54.1393C166.759 54.0673 166.814 54.0058 166.884 53.9625C166.955 53.9192 167.039 53.8961 167.124 53.8961C167.238 53.8961 167.347 53.9376 167.428 54.0115C167.509 54.0854 167.554 54.1856 167.554 54.2901Z" fill="#263238"/>
<path d="M169.138 54.2901C169.138 54.3681 169.113 54.4442 169.066 54.509C169.019 54.5738 168.951 54.6243 168.873 54.6542C168.794 54.684 168.707 54.6918 168.624 54.6766C168.54 54.6614 168.464 54.6239 168.403 54.5688C168.343 54.5136 168.302 54.4434 168.286 54.367C168.269 54.2905 168.278 54.2113 168.31 54.1393C168.343 54.0673 168.398 54.0058 168.469 53.9625C168.54 53.9192 168.623 53.8961 168.708 53.8961C168.822 53.8961 168.932 53.9376 169.012 54.0115C169.093 54.0854 169.138 54.1856 169.138 54.2901Z" fill="#263238"/>
<path d="M129.955 16.236H104.449V32.881H129.955V16.236Z" fill="#455A64"/>
<path d="M130.158 18.7068C130.158 18.7619 124.398 18.8092 117.299 18.8092C110.2 18.8092 104.44 18.7619 104.44 18.7068C104.44 18.6516 110.196 18.6043 117.299 18.6043C124.402 18.6043 130.158 18.6477 130.158 18.7068Z" fill="white"/>
<path d="M106.533 17.4891C106.542 17.5536 106.53 17.6191 106.498 17.6771C106.466 17.7351 106.415 17.7827 106.352 17.8135C106.29 17.8443 106.219 17.8569 106.148 17.8497C106.077 17.8424 106.011 17.8155 105.958 17.7727C105.904 17.7299 105.866 17.6731 105.849 17.6101C105.832 17.547 105.836 17.4806 105.861 17.4198C105.886 17.3589 105.931 17.3065 105.989 17.2697C106.048 17.2328 106.117 17.2131 106.188 17.2133C106.274 17.2089 106.357 17.2354 106.422 17.2869C106.486 17.3385 106.526 17.4111 106.533 17.4891V17.4891Z" fill="white"/>
<path d="M107.785 17.4891C107.795 17.5536 107.783 17.6191 107.751 17.6771C107.719 17.7351 107.668 17.7827 107.605 17.8135C107.543 17.8443 107.471 17.8569 107.401 17.8497C107.33 17.8424 107.264 17.8155 107.21 17.7727C107.157 17.7299 107.119 17.6731 107.102 17.6101C107.084 17.547 107.089 17.4806 107.114 17.4198C107.139 17.3589 107.184 17.3065 107.242 17.2697C107.301 17.2328 107.37 17.2131 107.441 17.2133C107.526 17.2089 107.61 17.2354 107.675 17.2869C107.739 17.3385 107.779 17.4111 107.785 17.4891V17.4891Z" fill="white"/>
<path d="M108.694 17.7649C108.884 17.7649 109.038 17.6414 109.038 17.4891C109.038 17.3368 108.884 17.2133 108.694 17.2133C108.504 17.2133 108.349 17.3368 108.349 17.4891C108.349 17.6414 108.504 17.7649 108.694 17.7649Z" fill="white"/>
<path d="M113.885 25.3427C113.885 26.3436 113.093 26.9465 111.789 26.9465H110.411V28.4282H109.869V23.7349H111.789C113.093 23.7349 113.885 24.3378 113.885 25.3427ZM113.343 25.3427C113.343 24.594 112.801 24.1605 111.776 24.1605H110.411V26.5052H111.776C112.801 26.5091 113.343 26.0796 113.343 25.3427Z" fill="white"/>
<path d="M119.34 23.7349V28.4282H118.806V26.2608H115.594V28.4282H115.065V23.7349H115.607V25.8274H118.819V23.7349H119.34Z" fill="white"/>
<path d="M125.018 25.3427C125.018 26.3436 124.23 26.9465 122.926 26.9465H121.548V28.4282H121.006V23.7349H122.926C124.23 23.7349 125.018 24.3378 125.018 25.3427ZM124.48 25.3427C124.48 24.594 123.937 24.1605 122.913 24.1605H121.548V26.5052H122.913C123.937 26.5091 124.48 26.0796 124.48 25.3427Z" fill="white"/>
<path d="M78.4734 51.9731L78.8092 51.6342C78.9854 51.9002 79.2328 52.1205 79.5282 52.2743C79.8236 52.4281 80.157 52.5103 80.4967 52.5129C81.5084 52.5129 82.0078 51.9849 82.0078 50.8697V46.4011H79.201V45.944H82.5631V50.8579C82.5631 52.2607 81.8528 52.9582 80.4967 52.9582C80.0962 52.9631 79.7007 52.8754 79.3471 52.7031C78.9934 52.5309 78.6929 52.2798 78.4734 51.9731V51.9731Z" fill="#FF725E"/>
<path d="M84.1559 52.2804L84.4056 51.8864C84.9899 52.2985 85.7085 52.5192 86.4461 52.5129C87.6429 52.5129 88.1207 52.1189 88.1207 51.5396C88.1207 50.0264 84.3626 51.1456 84.3626 49.1004C84.3626 48.3123 85.0772 47.6779 86.515 47.6779C87.2043 47.6668 87.8817 47.8438 88.4608 48.1862L88.2111 48.5802C87.7053 48.2621 87.1028 48.098 86.4892 48.1113C85.3828 48.1113 84.8921 48.529 84.8921 49.0886C84.8921 50.6648 88.6545 49.5457 88.6545 51.5239C88.6545 52.3711 87.8581 52.9464 86.4117 52.9464C85.5986 52.9677 84.8022 52.7326 84.1559 52.2804V52.2804Z" fill="#FF725E"/>
<path d="M93.6266 56.6071C93.6266 56.6071 93.6266 56.4968 93.6266 56.288C93.6266 56.0791 93.6266 55.7718 93.6266 55.3856C93.6266 54.5975 93.6266 53.435 93.6008 51.973C93.6008 49.0373 93.5749 44.8603 93.5534 39.8361L93.6481 39.9228H73.9017C73.8759 39.9464 74.1126 39.7297 74.0136 39.8242V44.3244C74.0136 45.8021 74.0136 47.2443 74.0136 48.659C74.0136 51.4765 74.0136 54.1404 74.0136 56.5953L73.9146 56.5047L88.1852 56.548L92.2189 56.5717H93.2865H93.5405H93.6395H93.2865H92.2361L88.2283 56.5953L73.8931 56.6387H73.7941V56.548C73.7941 54.0931 73.7941 51.4253 73.7941 48.6117C73.7941 47.2049 73.7941 45.7627 73.7941 44.2771V39.8439L73.906 39.7375H93.6524H93.7471V39.8242C93.7471 44.8721 93.7127 49.0688 93.6998 52.0164C93.6998 53.4705 93.6998 54.6172 93.674 55.4092C93.674 55.8033 93.674 56.087 93.674 56.2958C93.674 56.5047 93.6266 56.6071 93.6266 56.6071Z" fill="#FF725E"/>
<path d="M93.5836 42.3266C93.5836 42.3817 89.1711 42.429 83.7254 42.429C78.2797 42.429 73.8672 42.3817 73.8672 42.3266C73.8672 42.2714 78.2797 42.2202 83.7254 42.2202C89.1711 42.2202 93.5836 42.2674 93.5836 42.3266Z" fill="#FF725E"/>
<path d="M75.6323 41.3809C75.8225 41.3809 75.9767 41.2556 75.9767 41.1011C75.9767 40.9466 75.8225 40.8213 75.6323 40.8213C75.4421 40.8213 75.2879 40.9466 75.2879 41.1011C75.2879 41.2556 75.4421 41.3809 75.6323 41.3809Z" fill="#FF725E"/>
<path d="M77.238 41.101C77.2467 41.1654 77.2339 41.2307 77.201 41.2882C77.1682 41.3457 77.1171 41.3927 77.0543 41.4229C76.9916 41.4531 76.9203 41.4651 76.85 41.4573C76.7796 41.4495 76.7135 41.4222 76.6605 41.3792C76.6075 41.3361 76.5701 41.2793 76.5533 41.2163C76.5364 41.1532 76.541 41.087 76.5663 41.0264C76.5916 40.9658 76.6365 40.9137 76.695 40.8771C76.7534 40.8404 76.8227 40.8209 76.8936 40.8212C76.9797 40.8169 77.0642 40.8439 77.1287 40.8963C77.1932 40.9487 77.2325 41.0223 77.238 41.101V41.101Z" fill="#FF725E"/>
<path d="M78.4993 41.101C78.5081 41.1654 78.4952 41.2307 78.4624 41.2882C78.4296 41.3457 78.3784 41.3927 78.3157 41.4229C78.253 41.4531 78.1817 41.4651 78.1113 41.4573C78.041 41.4495 77.9749 41.4222 77.9219 41.3792C77.8689 41.3361 77.8314 41.2793 77.8146 41.2163C77.7978 41.1532 77.8023 41.087 77.8276 41.0264C77.8529 40.9658 77.8978 40.9137 77.9563 40.8771C78.0148 40.8404 78.0841 40.8209 78.155 40.8212C78.2411 40.8169 78.3255 40.8439 78.39 40.8963C78.4545 40.9487 78.4938 41.0223 78.4993 41.101V41.101Z" fill="#FF725E"/>
<path d="M165.634 24.2235C165.627 23.8277 165.708 23.4346 165.872 23.0684C166.036 22.7021 166.28 22.3704 166.589 22.0934C166.898 21.8164 167.266 21.6 167.669 21.4574C168.073 21.3149 168.504 21.2491 168.936 21.2642C169.354 21.2487 169.771 21.3125 170.16 21.4515C170.55 21.5906 170.904 21.8018 171.2 22.072L170.912 22.3478C170.654 22.1178 170.348 21.9381 170.012 21.8195C169.676 21.701 169.317 21.6461 168.958 21.6582C168.577 21.6389 168.196 21.6908 167.838 21.8108C167.481 21.9308 167.153 22.1163 166.876 22.3561C166.599 22.5958 166.379 22.8847 166.228 23.2051C166.078 23.5256 166 23.8707 166 24.2196C166 24.5684 166.078 24.9136 166.228 25.234C166.379 25.5545 166.599 25.8434 166.876 26.0831C167.153 26.3229 167.481 26.5084 167.838 26.6284C168.196 26.7484 168.577 26.8003 168.958 26.781C169.318 26.7918 169.677 26.7356 170.013 26.6157C170.349 26.4958 170.655 26.3147 170.912 26.0835L171.2 26.3593C170.905 26.6305 170.551 26.843 170.161 26.9833C169.772 27.1237 169.354 27.1889 168.936 27.175C168.505 27.19 168.074 27.1245 167.671 26.9824C167.269 26.8403 166.901 26.6246 166.593 26.3485C166.284 26.0724 166.039 25.7416 165.875 25.3762C165.71 25.0109 165.628 24.6187 165.634 24.2235Z" fill="#FF725E"/>
<path d="M172.074 26.3869L172.285 26.0716C172.857 26.5528 173.609 26.8151 174.386 26.8046C175.677 26.8046 176.224 26.2963 176.224 25.6618C176.224 23.9122 172.251 24.9643 172.251 22.8128C172.251 21.9892 172.94 21.2641 174.507 21.2641C175.189 21.2608 175.857 21.4432 176.427 21.7882L176.25 22.1311C175.736 21.8103 175.129 21.6362 174.507 21.6306C173.267 21.6306 172.711 22.1547 172.711 22.8128C172.711 24.5624 176.689 23.53 176.689 25.6461C176.689 26.4696 175.97 27.1868 174.395 27.1868C173.537 27.2092 172.703 26.9219 172.074 26.3869Z" fill="#FF725E"/>
<path d="M177.615 26.3869L177.826 26.0717C178.396 26.5549 179.149 26.8175 179.926 26.8046C181.218 26.8046 181.765 26.2963 181.765 25.6619C181.765 23.9123 177.787 24.9644 177.787 22.8128C177.787 21.9893 178.48 21.2642 180.047 21.2642C180.728 21.2616 181.395 21.444 181.963 21.7883L181.79 22.1311C181.282 21.814 180.683 21.6401 180.068 21.6307C178.829 21.6307 178.273 22.1548 178.273 22.8128C178.273 24.5624 182.251 23.53 182.251 25.6461C182.251 26.4697 181.532 27.1869 179.957 27.1869C179.091 27.2145 178.249 26.9268 177.615 26.3869Z" fill="#FF725E"/>
<path d="M187.649 31.8012C187.649 31.8012 187.649 31.6909 187.649 31.4899C187.649 31.289 187.649 30.9855 187.649 30.6033C187.649 29.8152 187.649 28.6842 187.623 27.2302C187.623 24.3181 187.598 20.1371 187.576 15.0144L187.667 15.0971L159.302 15.1168L159.414 15.0144C159.414 20.9686 159.414 26.6391 159.414 31.7855L159.31 31.6909L179.715 31.7382L185.566 31.7618H187.128H187.533C187.58 31.7584 187.628 31.7584 187.675 31.7618H187.546H187.154H185.613L179.784 31.7855L159.31 31.8328H159.207V31.7382C159.207 26.5918 159.207 20.9213 159.207 14.9671V14.9316H159.319L187.684 14.9553H187.774V15.0341C187.753 20.1568 187.735 24.3614 187.727 27.2853C187.727 28.7315 187.727 29.8625 187.727 30.6388C187.727 31.0171 187.727 31.3087 187.727 31.5136C187.658 31.7027 187.649 31.8012 187.649 31.8012Z" fill="#FF725E"/>
<path d="M187.649 17.5206C187.649 17.5758 181.295 17.6231 173.443 17.6231C165.591 17.6231 159.237 17.5758 159.237 17.5206C159.237 17.4654 165.591 17.4182 173.443 17.4182C181.295 17.4182 187.649 17.4615 187.649 17.5206Z" fill="#FF725E"/>
<path d="M161.381 16.2951C161.39 16.3595 161.377 16.4248 161.344 16.4823C161.311 16.5398 161.26 16.5868 161.197 16.617C161.135 16.6472 161.063 16.6592 160.993 16.6514C160.923 16.6436 160.857 16.6163 160.804 16.5733C160.751 16.5302 160.713 16.4734 160.696 16.4103C160.679 16.3473 160.684 16.2811 160.709 16.2205C160.735 16.1599 160.779 16.1078 160.838 16.0712C160.896 16.0345 160.966 16.015 161.037 16.0153C161.123 16.011 161.207 16.038 161.272 16.0904C161.336 16.1428 161.375 16.2164 161.381 16.2951Z" fill="#FF725E"/>
<path d="M162.642 16.2951C162.651 16.3595 162.638 16.4248 162.605 16.4823C162.573 16.5398 162.521 16.5868 162.459 16.617C162.396 16.6472 162.325 16.6592 162.254 16.6514C162.184 16.6436 162.118 16.6163 162.065 16.5733C162.012 16.5302 161.974 16.4734 161.958 16.4103C161.941 16.3473 161.945 16.2811 161.971 16.2205C161.996 16.1599 162.041 16.1078 162.099 16.0712C162.158 16.0345 162.227 16.015 162.298 16.0153C162.384 16.011 162.469 16.038 162.533 16.0904C162.598 16.1428 162.637 16.2164 162.642 16.2951V16.2951Z" fill="#FF725E"/>
<path d="M163.904 16.2951C163.912 16.3595 163.9 16.4248 163.867 16.4823C163.834 16.5398 163.783 16.5868 163.72 16.617C163.657 16.6472 163.586 16.6592 163.516 16.6514C163.445 16.6436 163.379 16.6163 163.326 16.5733C163.273 16.5302 163.236 16.4734 163.219 16.4103C163.202 16.3473 163.207 16.2811 163.232 16.2205C163.257 16.1599 163.302 16.1078 163.361 16.0712C163.419 16.0345 163.488 16.015 163.559 16.0153C163.645 16.011 163.73 16.038 163.794 16.0904C163.859 16.1428 163.898 16.2164 163.904 16.2951V16.2951Z" fill="#FF725E"/>
<path d="M151.071 40.4902H115.452V63.7317H151.071V40.4902Z" fill="#FF725E"/>
<path d="M127.467 51.2795V55.9137H126.301V54.0222H124.01V55.9137H122.844V51.2795H124.01V53.1001H126.301V51.2795H127.467Z" fill="white"/>
<path d="M129.701 52.1504H128.087V51.2795H132.482V52.1504H130.868V55.9137H129.701V52.1504Z" fill="white"/>
<path d="M133.111 51.2795H134.278V55.0231H136.805V55.9137H133.111V51.2795Z" fill="white"/>
<path d="M142.048 55.9137V53.1553L140.563 55.4329H140.033L138.557 53.2144V55.9137H137.45V51.2795H138.415L140.304 54.1483L142.16 51.2795H143.115V55.894L142.048 55.9137Z" fill="white"/>
<path d="M151.355 43.9383C151.355 43.9934 143.313 44.0407 133.395 44.0407C123.477 44.0407 115.439 43.9934 115.439 43.9383C115.439 43.8831 123.477 43.8358 133.395 43.8358C143.313 43.8358 151.355 43.8792 151.355 43.9383Z" fill="white"/>
<path d="M118.362 42.2399C118.373 42.3285 118.354 42.418 118.307 42.4966C118.261 42.5751 118.19 42.6389 118.103 42.6797C118.017 42.7205 117.919 42.7362 117.822 42.7249C117.725 42.7136 117.635 42.6758 117.562 42.6164C117.489 42.5569 117.438 42.4788 117.415 42.3921C117.392 42.3055 117.398 42.2145 117.432 42.131C117.467 42.0476 117.528 41.9757 117.608 41.9248C117.688 41.8738 117.783 41.8463 117.88 41.8458C117.94 41.8426 118 41.8503 118.057 41.8684C118.114 41.8864 118.166 41.9146 118.211 41.9512C118.255 41.9878 118.292 42.0322 118.318 42.0817C118.344 42.1312 118.359 42.185 118.362 42.2399V42.2399Z" fill="white"/>
<path d="M120.11 42.2399C120.121 42.3285 120.101 42.418 120.055 42.4966C120.009 42.5751 119.938 42.6389 119.851 42.6797C119.765 42.7205 119.666 42.7362 119.57 42.7249C119.473 42.7136 119.382 42.6758 119.31 42.6164C119.237 42.5569 119.186 42.4788 119.163 42.3921C119.139 42.3055 119.145 42.2145 119.18 42.131C119.214 42.0476 119.276 41.9757 119.356 41.9248C119.436 41.8738 119.531 41.8463 119.628 41.8458C119.688 41.8426 119.748 41.8503 119.805 41.8684C119.861 41.8864 119.914 41.9146 119.958 41.9512C120.003 41.9878 120.04 42.0322 120.066 42.0817C120.092 42.1312 120.107 42.185 120.11 42.2399V42.2399Z" fill="white"/>
<path d="M121.858 42.2399C121.868 42.3285 121.849 42.418 121.803 42.4966C121.757 42.5751 121.686 42.6389 121.599 42.6797C121.512 42.7205 121.414 42.7362 121.318 42.7249C121.221 42.7136 121.13 42.6758 121.058 42.6164C120.985 42.5569 120.934 42.4788 120.91 42.3921C120.887 42.3055 120.893 42.2145 120.928 42.131C120.962 42.0476 121.023 41.9757 121.103 41.9248C121.183 41.8738 121.278 41.8463 121.376 41.8458C121.436 41.8426 121.496 41.8503 121.553 41.8684C121.609 41.8864 121.661 41.9146 121.706 41.9512C121.751 41.9878 121.788 42.0322 121.814 42.0817C121.84 42.1312 121.855 42.185 121.858 42.2399V42.2399Z" fill="white"/>
<path d="M42.0414 86.256C42.0378 86.2299 42.0378 86.2034 42.0414 86.1772V85.9605C42.0414 85.7595 42.0414 85.4797 42.0414 85.1172C42.0414 84.3724 42.0414 83.3006 42.0156 81.9411C42.0156 79.2103 41.9854 75.3249 41.9639 70.6711L42.0629 70.7578H25.0372C25.0113 70.7775 25.2481 70.5647 25.1491 70.6592V72.7714C25.1491 73.4728 25.1491 74.1703 25.1491 74.856V78.8832C25.1491 81.4998 25.1491 83.9705 25.1491 86.2363L25.0544 86.1457L37.3663 86.193L40.836 86.2166H41.7573H41.994H41.7659H40.8619L37.418 86.2403L25.0458 86.2876H24.9468V86.256C24.9468 83.9902 24.9468 81.5274 24.9468 78.9029V70.675C24.8434 70.7656 25.0802 70.545 25.0587 70.5686H42.0844H42.1792V70.6592C42.1792 75.3367 42.1447 79.2418 42.1318 81.9845C42.1318 83.3361 42.1318 84.404 42.106 85.1369C42.106 85.4916 42.106 85.7674 42.106 85.9644C42.106 86.0511 42.106 86.1181 42.106 86.1733C42.0884 86.2033 42.0667 86.2311 42.0414 86.256Z" fill="#263238"/>
<path d="M42.0414 70.8248C42.0844 70.8642 38.3177 74.3713 33.6296 78.6468C28.9416 82.9224 25.0931 86.3664 25.0586 86.327C25.0242 86.2876 28.7781 82.7805 33.4704 78.501C38.1627 74.2216 41.9983 70.7854 42.0414 70.8248Z" fill="#263238"/>
<path d="M41.7702 86.1576C41.7271 86.197 37.9733 82.7963 33.3886 78.5641C28.8039 74.3319 25.1189 70.8642 25.162 70.8248C25.205 70.7854 28.9589 74.1861 33.5479 78.4183C38.1369 82.6505 41.8132 86.1142 41.7702 86.1576Z" fill="#263238"/>
<path d="M77.535 74.8481C77.535 74.9033 70.7678 74.9506 62.4249 74.9506C54.0821 74.9506 47.3192 74.9033 47.3192 74.8481C47.3192 74.793 54.0821 74.7457 62.4249 74.7457C70.7678 74.7457 77.535 74.793 77.535 74.8481Z" fill="#263238"/>
<path d="M77.535 77.3346C77.535 77.3897 70.7678 77.437 62.4249 77.437C54.0821 77.437 47.3192 77.3897 47.3192 77.3346C47.3192 77.2794 54.0821 77.2321 62.4249 77.2321C70.7678 77.2321 77.535 77.2755 77.535 77.3346Z" fill="#263238"/>
<path d="M77.535 79.8172C77.535 79.8763 70.7678 79.9196 62.4249 79.9196C54.0821 79.9196 47.3192 79.8763 47.3192 79.8172C47.3192 79.7581 54.0821 79.7147 62.4249 79.7147C70.7678 79.7147 77.535 79.762 77.535 79.8172Z" fill="#263238"/>
<path d="M77.535 82.3155C77.535 82.3706 70.7678 82.4179 62.4249 82.4179C54.0821 82.4179 47.3192 82.3706 47.3192 82.3155C47.3192 82.2603 54.0821 82.213 62.4249 82.213C70.7678 82.213 77.535 82.2445 77.535 82.3155Z" fill="#263238"/>
<path d="M60.9871 72.3616C60.9871 72.4207 57.8747 72.468 54.0434 72.468C50.212 72.468 47.0996 72.4207 47.0996 72.3616C47.0996 72.3025 50.2077 72.2592 54.0434 72.2592C57.879 72.2592 60.9871 72.3064 60.9871 72.3616Z" fill="#263238"/>
<path d="M19.6518 65.9661H24.7186H38.8945L88.0992 66.0449H88.2068V66.1592C88.2068 73.8433 88.2068 82.1736 88.2068 90.8193V90.9217H81.9476L82.0595 90.8193V96.1745L81.8701 96.0011L76.2737 90.8784L76.3512 90.906L19.6518 90.8666H19.5743V90.7996C19.5743 83.0603 19.6087 76.846 19.6173 72.5626C19.6173 70.4307 19.6173 68.7796 19.6173 67.6566C19.6173 67.1049 19.6173 66.6793 19.6173 66.3916C19.6173 66.104 19.6173 65.9661 19.6173 65.9661C19.6173 65.9661 19.6173 66.1158 19.6173 66.4074C19.6173 66.699 19.6173 67.1246 19.6173 67.6842C19.6173 68.8112 19.6173 70.4662 19.6173 72.602C19.6173 76.8775 19.6432 83.076 19.6604 90.7996L19.5829 90.7286L76.2953 90.6971H76.3426L76.3727 90.7247L81.9691 95.8474L81.7754 95.9223V90.6971H88.039L87.927 90.7996C87.927 82.1539 87.927 73.8236 87.927 66.1395L88.0346 66.238L38.9032 66.0646L24.6971 66.0015H20.9045H19.923L19.6518 65.9661Z" fill="#263238"/>
<path d="M194.089 146.09H156.723V154.672H194.089V146.09Z" fill="#455A64"/>
<path d="M188.73 148.891H165.957V151.871H188.73V148.891Z" fill="#263238"/>
<path d="M163.086 150.554C163.087 150.884 162.98 151.207 162.781 151.482C162.581 151.756 162.297 151.97 161.965 152.097C161.632 152.224 161.266 152.258 160.912 152.194C160.559 152.13 160.234 151.971 159.979 151.738C159.724 151.505 159.55 151.208 159.479 150.885C159.408 150.562 159.444 150.226 159.582 149.921C159.72 149.617 159.953 149.356 160.253 149.173C160.552 148.989 160.904 148.891 161.265 148.891C161.504 148.891 161.74 148.934 161.961 149.017C162.182 149.1 162.383 149.223 162.552 149.377C162.721 149.532 162.855 149.715 162.947 149.917C163.039 150.119 163.086 150.336 163.086 150.554V150.554Z" fill="#263238"/>
<path d="M190.508 141.412H160.662V146.054H190.508V141.412Z" fill="#263238"/>
<path d="M198.028 132.834H160.662V141.416H198.028V132.834Z" fill="#FF725E"/>
<path d="M172.04 136.908C172.069 136.476 172.237 136.061 172.522 135.715C172.806 135.368 173.196 135.106 173.642 134.961C174.088 134.815 174.57 134.793 175.03 134.896C175.49 134.999 175.907 135.223 176.228 135.541L175.578 136.093C175.443 135.945 175.274 135.826 175.083 135.745C174.891 135.664 174.683 135.622 174.472 135.624C174.113 135.642 173.775 135.785 173.527 136.025C173.28 136.264 173.142 136.581 173.142 136.91C173.142 137.24 173.28 137.557 173.527 137.796C173.775 138.035 174.113 138.179 174.472 138.197C174.684 138.199 174.893 138.157 175.085 138.074C175.276 137.992 175.445 137.871 175.578 137.72L176.228 138.272C175.909 138.593 175.492 138.821 175.032 138.926C174.571 139.031 174.087 139.01 173.639 138.864C173.192 138.719 172.801 138.455 172.517 138.107C172.232 137.759 172.066 137.342 172.04 136.908V136.908Z" fill="white"/>
<path d="M181.545 137.259H180.452V138.236H179.638V137.259H178.553V136.557H179.638V135.584H180.447V136.557H181.541L181.545 137.259Z" fill="white"/>
<path d="M185.342 137.259H184.248V138.236H183.439V137.259H182.354V136.557H183.439V135.584H184.248V136.557H185.342V137.259Z" fill="white"/>
<path d="M166.215 141.176C166.155 141.176 166.103 139.308 166.103 137.003C166.103 134.698 166.155 132.826 166.215 132.826C166.276 132.826 166.327 134.698 166.327 137.003C166.327 139.308 166.293 141.176 166.215 141.176Z" fill="#FAFAFA"/>
<path d="M164.571 141.176C164.511 141.176 164.459 139.308 164.459 137.003C164.459 134.698 164.511 132.826 164.571 132.826C164.684 134.216 164.722 135.61 164.683 137.003C164.722 138.395 164.684 139.787 164.571 141.176V141.176Z" fill="#FAFAFA"/>
<path d="M192.079 141.176C191.966 139.787 191.928 138.395 191.967 137.003C191.928 135.61 191.966 134.216 192.079 132.826C192.139 132.826 192.191 134.698 192.191 137.003C192.191 139.308 192.122 141.176 192.079 141.176Z" fill="#FAFAFA"/>
<path d="M190.452 141.176C190.392 141.176 190.34 139.308 190.34 137.003C190.34 134.698 190.392 132.826 190.452 132.826C190.512 132.826 190.564 134.698 190.564 137.003C190.564 139.308 190.512 141.176 190.452 141.176Z" fill="#FAFAFA"/>
<path d="M173.008 143.678C173.004 143.555 173.028 143.432 173.078 143.317C173.128 143.202 173.204 143.098 173.3 143.012C173.396 142.925 173.511 142.858 173.637 142.814C173.763 142.77 173.898 142.75 174.033 142.756C174.186 142.747 174.339 142.775 174.476 142.838C174.613 142.901 174.729 142.997 174.812 143.115L174.614 143.241C174.55 143.154 174.463 143.084 174.362 143.036C174.26 142.989 174.147 142.966 174.033 142.969C173.828 142.969 173.63 143.044 173.485 143.177C173.34 143.31 173.258 143.49 173.258 143.678C173.258 143.866 173.34 144.047 173.485 144.18C173.63 144.313 173.828 144.387 174.033 144.387C174.146 144.391 174.259 144.369 174.36 144.323C174.462 144.277 174.549 144.208 174.614 144.123L174.812 144.246C174.729 144.364 174.614 144.46 174.477 144.524C174.34 144.588 174.186 144.617 174.033 144.608C173.898 144.614 173.762 144.593 173.636 144.549C173.509 144.504 173.394 144.436 173.298 144.348C173.202 144.261 173.127 144.156 173.077 144.041C173.027 143.926 173.004 143.802 173.008 143.678V143.678Z" fill="#EBEBEB"/>
<path d="M175.062 144.384L175.187 144.186C175.392 144.323 175.639 144.395 175.893 144.391C176.272 144.391 176.427 144.273 176.427 144.096C176.427 143.619 175.135 143.993 175.135 143.272C175.135 142.977 175.415 142.756 175.923 142.756C176.17 142.75 176.413 142.809 176.625 142.925L176.508 143.123C176.335 143.017 176.131 142.962 175.923 142.965C175.561 142.965 175.406 143.095 175.406 143.268C175.406 143.761 176.698 143.387 176.698 144.088C176.698 144.403 176.396 144.608 175.88 144.608C175.588 144.616 175.301 144.537 175.062 144.384V144.384Z" fill="#EBEBEB"/>
<path d="M176.913 144.384L177.038 144.186C177.242 144.324 177.49 144.396 177.744 144.391C178.123 144.391 178.278 144.273 178.278 144.096C178.278 143.619 176.986 143.993 176.986 143.272C176.986 142.977 177.266 142.756 177.774 142.756C178.021 142.75 178.264 142.809 178.476 142.925L178.359 143.123C178.186 143.017 177.982 142.962 177.774 142.965C177.412 142.965 177.257 143.095 177.257 143.268C177.257 143.761 178.549 143.387 178.549 144.088C178.549 144.403 178.248 144.608 177.731 144.608C177.439 144.616 177.152 144.537 176.913 144.384V144.384Z" fill="#EBEBEB"/>
<path d="M165.053 144.561C165.552 144.561 165.957 144.19 165.957 143.733C165.957 143.276 165.552 142.906 165.053 142.906C164.554 142.906 164.149 143.276 164.149 143.733C164.149 144.19 164.554 144.561 165.053 144.561Z" fill="#EBEBEB"/>
<path d="M187.71 144.561C188.209 144.561 188.614 144.19 188.614 143.733C188.614 143.276 188.209 142.906 187.71 142.906C187.21 142.906 186.806 143.276 186.806 143.733C186.806 144.19 187.21 144.561 187.71 144.561Z" fill="#EBEBEB"/>
<path d="M73.9405 100.048H11.1668C8.31381 100.048 6.00098 102.165 6.00098 104.777V140.916C6.00098 143.527 8.31381 145.644 11.1668 145.644H73.9405C76.7935 145.644 79.1063 143.527 79.1063 140.916V104.777C79.1063 102.165 76.7935 100.048 73.9405 100.048Z" fill="#263238"/>
<path d="M30.3364 134.808L26.2899 155.784H45.2829L48.7225 134.378L30.3364 134.808Z" fill="#455A64"/>
<path d="M71.039 100.048H8.26533C5.41231 100.048 3.09949 102.165 3.09949 104.777V140.916C3.09949 143.527 5.41231 145.644 8.26533 145.644H71.039C73.892 145.644 76.2048 143.527 76.2048 140.916V104.777C76.2048 102.165 73.892 100.048 71.039 100.048Z" fill="#455A64"/>
<path d="M46.9145 145.645L48.7225 134.378L49.2262 145.645H46.9145Z" fill="#263238"/>
<path d="M30.4398 133.641C30.5 133.641 30.0394 136.443 29.4109 139.875C28.7824 143.308 28.2271 146.086 28.1625 146.078C28.0979 146.07 28.5628 143.276 29.1913 139.844C29.8199 136.412 30.3795 133.634 30.4398 133.641Z" fill="#263238"/>
<path d="M42.05 121.268C42.05 121.702 41.9093 122.127 41.6459 122.488C41.3824 122.848 41.0079 123.13 40.5698 123.296C40.1316 123.462 39.6495 123.506 39.1844 123.421C38.7192 123.336 38.292 123.127 37.9566 122.82C37.6213 122.513 37.3929 122.122 37.3004 121.696C37.2079 121.271 37.2554 120.829 37.4369 120.428C37.6183 120.027 37.9257 119.684 38.32 119.443C38.7143 119.202 39.1779 119.073 39.6521 119.073C39.9672 119.073 40.2792 119.129 40.5704 119.239C40.8616 119.349 41.1262 119.511 41.3489 119.715C41.5717 119.919 41.7483 120.161 41.8686 120.428C41.9889 120.694 42.0505 120.98 42.05 121.268V121.268Z" fill="#FAFAFA"/>
<path d="M39.6522 123.471C39.1762 123.471 38.7109 123.342 38.3152 123.1C37.9195 122.858 37.611 122.514 37.4289 122.111C37.2468 121.708 37.1991 121.266 37.292 120.838C37.3848 120.411 37.614 120.018 37.9506 119.71C38.2871 119.402 38.7159 119.193 39.1827 119.108C39.6495 119.023 40.1333 119.066 40.573 119.233C41.0128 119.4 41.3886 119.682 41.653 120.044C41.9174 120.406 42.0586 120.832 42.0586 121.268C42.0574 121.852 41.8035 122.412 41.3525 122.824C40.9014 123.237 40.29 123.47 39.6522 123.471V123.471ZM39.6522 119.085C39.1805 119.085 38.7194 119.213 38.3272 119.453C37.935 119.693 37.6293 120.034 37.4488 120.433C37.2683 120.832 37.2211 121.27 37.3131 121.694C37.4051 122.117 37.6322 122.506 37.9658 122.812C38.2993 123.117 38.7243 123.325 39.1869 123.409C39.6495 123.493 40.129 123.45 40.5648 123.285C41.0006 123.12 41.3731 122.84 41.6351 122.481C41.8972 122.122 42.0371 121.7 42.0371 121.268C42.0359 120.689 41.7843 120.135 41.3373 119.726C40.8903 119.316 40.2843 119.086 39.6522 119.085V119.085Z" fill="#263238"/>
<path d="M21.3952 113.619C21.3952 113.619 22.5231 112.161 22.1399 110.542C22.1399 110.542 22.1399 110.018 21.279 108.989C21.0077 108.662 20.6989 108.362 20.3577 108.095C20.0536 107.852 19.7266 107.634 19.3805 107.445C19.2643 107.378 19.1911 107.342 19.1911 107.342C17.9263 106.688 16.4425 106.485 15.024 106.771C13.9363 106.975 12.9432 107.48 12.1785 108.217C11.9235 108.461 11.7049 108.736 11.5284 109.033C11.0814 109.712 10.7935 110.47 10.6831 111.256C10.5727 112.043 10.6421 112.843 10.887 113.604C10.9214 113.706 10.9602 113.809 11.0032 113.907V113.943C11.0032 113.978 11.0334 114.013 11.0506 114.045L11.085 114.116C11.1238 114.199 11.1582 114.277 11.2013 114.356C11.3063 114.553 11.4242 114.744 11.5543 114.928C11.6854 115.144 11.846 115.344 12.0321 115.523V115.523C12.388 115.91 12.8435 116.21 13.3575 116.395C13.8715 116.581 14.4279 116.647 14.9766 116.587C15.1958 116.952 15.5522 117.232 15.9797 117.375C16.8105 117.548 18.1622 117.166 19.1438 116.685C20.1253 116.204 21.533 115.286 21.5114 114.502C21.4991 114.207 21.4485 113.915 21.3608 113.631L21.3952 113.619Z" fill="#263238"/>
<path d="M14.0941 106.771C13.015 106.978 12.0311 107.483 11.2745 108.217C11.0181 108.461 10.7981 108.736 10.6201 109.033C10.0476 110.041 9.06175 111.984 10.3231 114.356C11.5844 116.729 13.4527 116.669 14.2965 116.559C15.1402 116.449 20.4869 113.619 20.4869 113.619C20.4869 113.619 22.1227 111.511 20.7925 109.549C19.6517 107.87 17.2066 106.16 14.0941 106.771Z" fill="#FF725E"/>
<path d="M13.7024 115.901C13.7024 115.901 14.2792 117.194 15.1101 117.363C15.9409 117.532 17.2884 117.154 18.2699 116.673C19.2514 116.193 20.6591 115.274 20.6375 114.49C20.616 113.706 20.2071 112.835 20.065 112.764C19.3991 112.602 18.7037 112.57 18.0231 112.668C17.3426 112.766 16.692 112.994 16.1131 113.336C14.9962 113.895 14.1394 114.807 13.7024 115.901V115.901Z" fill="#F5F5F5"/>
<g opacity="0.4">
<path opacity="0.4" d="M16.5953 108.422C16.8614 108.875 16.9749 109.389 16.9214 109.901C16.868 110.413 16.65 110.899 16.295 111.297C15.94 111.696 15.4639 111.989 14.927 112.14C14.39 112.291 13.8162 112.293 13.2781 112.145C12.74 111.998 12.2617 111.708 11.9037 111.311C11.5457 110.915 11.3241 110.431 11.2667 109.919C11.2094 109.408 11.319 108.892 11.5817 108.438C11.8443 107.983 12.2483 107.61 12.7424 107.366C13.0711 107.203 13.4315 107.102 13.8032 107.067C14.1748 107.032 14.5503 107.064 14.9081 107.162C15.266 107.26 15.5992 107.422 15.8887 107.638C16.1782 107.854 16.4183 108.121 16.5953 108.422V108.422Z" fill="white"/>
</g>
<g opacity="0.4">
<path opacity="0.4" d="M11.1539 115.523C11.5223 114.796 11.5896 113.971 11.3433 113.202C11.0719 112.452 10.5098 111.82 9.76344 111.425C9.70251 112.316 9.84925 113.209 10.1939 114.045C10.4137 114.587 10.739 115.087 11.1539 115.523V115.523Z" fill="white"/>
</g>
<g opacity="0.4">
<path opacity="0.4" d="M21.2445 110.546C20.3795 110.426 19.5908 110.024 19.0232 109.415C18.4879 108.839 18.215 108.097 18.2613 107.342C19.072 107.772 19.7922 108.331 20.3879 108.993C21.2402 110.026 21.2445 110.546 21.2445 110.546Z" fill="white"/>
</g>
<path d="M13.711 115.885C13.725 115.99 13.7601 116.092 13.8143 116.185C13.8431 116.231 13.8865 116.268 13.9387 116.291C13.991 116.314 14.0496 116.323 14.107 116.315C14.2319 116.287 14.3008 116.177 14.3567 116.074C14.9537 115.044 15.8605 114.192 16.9698 113.619C17.4113 113.374 17.9097 113.227 18.4248 113.19C18.8898 113.19 19.3418 113.296 19.8067 113.32C19.9254 113.332 20.0457 113.316 20.1554 113.273C20.2587 113.225 20.2544 113.115 20.2286 113.013C20.2212 112.963 20.2029 112.916 20.1747 112.873C20.1466 112.83 20.1093 112.793 20.065 112.764C18.8424 112.303 17.3271 112.642 16.1906 113.245C15.0948 113.878 14.2324 114.798 13.7153 115.885" fill="#E0E0E0"/>
<path d="M103.821 151.989H62.2312V154.672H103.821V151.989Z" fill="#455A64"/>
<path d="M52.2827 150.956H54.3663C55.2522 150.956 56.1019 151.279 56.7284 151.852C57.3549 152.425 57.7068 153.203 57.7068 154.014V154.672H48.968V154.014C48.9679 153.207 49.3163 152.433 49.9372 151.86C50.5581 151.288 51.4012 150.963 52.2827 150.956V150.956Z" fill="#455A64"/>
<path d="M57.5561 153.837C56.1556 153.938 54.7503 153.973 53.3459 153.939C51.9401 153.973 50.5334 153.938 49.1315 153.837C50.5332 153.733 51.9401 153.699 53.3459 153.734C54.7503 153.699 56.1558 153.733 57.5561 153.837V153.837Z" fill="#263238"/>
<path d="M53.4106 150.925C53.5106 151.391 53.5353 151.867 53.4838 152.34C53.5043 152.813 53.4522 153.286 53.3288 153.746C53.2319 153.282 53.2087 152.806 53.2599 152.336C53.2381 151.861 53.2888 151.386 53.4106 150.925V150.925Z" fill="#263238"/>
<path d="M200 154.672H0V160H200V154.672Z" fill="#263238"/>
</svg>
