<svg width="200" height="160" viewBox="0 0 200 160" fill="none" xmlns="http://www.w3.org/2000/svg">
<path d="M159.847 48.2826H194.8C194.8 48.2826 191.72 43.369 182.709 44.0841C174.12 44.7685 173.681 41.6658 169.311 41.2851C164.942 40.9045 161.303 43.8304 159.847 48.2826Z" fill="#F5F5F5"/>
<path d="M9.69315 31.6502H44.6378C44.6378 31.6502 41.5578 26.7289 32.5599 27.4517C23.9579 28.136 23.5179 25.0333 19.1575 24.6527C14.7971 24.2721 11.1495 27.1979 9.69315 31.6502Z" fill="#F5F5F5"/>
<path d="M72.7713 8.87761H116.886C116.886 8.87761 112.983 2.67216 101.631 3.57568C90.7848 4.44075 90.2348 0.52678 84.7173 0.0423393C79.1997 -0.442101 74.6105 3.27579 72.7713 8.87761Z" fill="#E0E0E0"/>
<path d="M177.196 152.583C171.186 149.239 169.54 142.675 169.479 136.724C169.479 135.732 169.289 134.69 169.791 133.798C170.293 132.906 171.516 132.26 172.554 132.645C173.434 132.96 173.826 133.798 174.314 134.494C174.988 135.418 175.95 136.156 177.086 136.62C177.825 136.92 178.727 137.085 179.427 136.716C180.382 136.205 180.439 135.021 180.382 134.025C180.279 132.187 180.176 130.349 180.074 128.511C179.956 127.527 180.023 126.532 180.272 125.566C180.399 125.087 180.656 124.641 181.021 124.266C181.386 123.892 181.849 123.599 182.37 123.413C183.431 123.113 184.786 123.602 185.063 124.567C185.125 124.975 185.156 125.386 185.156 125.797C185.158 126.001 185.229 126.201 185.361 126.37C185.492 126.539 185.678 126.67 185.895 126.747C186.335 126.847 186.775 126.547 187.114 126.247C188.231 125.209 188.957 123.894 189.635 122.59C190.312 121.287 190.955 119.953 191.971 118.826C192.988 117.7 194.396 116.785 196.01 116.643C197.625 116.5 199.39 117.312 199.865 118.684C200.34 120.057 199.482 121.506 198.545 122.667C197.128 124.394 195.432 125.932 193.511 127.235C193.134 127.435 192.841 127.735 192.675 128.092C192.46 128.761 193.208 129.388 193.96 129.576C194.814 129.788 195.72 129.68 196.6 129.738C197.48 129.796 198.457 130.099 198.822 130.814C199.337 131.802 198.422 132.898 197.502 133.625C195.666 135.082 193.557 136.252 191.267 137.085C190.423 137.324 189.636 137.695 188.944 138.181C188.297 138.715 187.936 139.619 188.376 140.299C188.816 140.98 189.864 141.165 190.73 140.988C191.597 140.811 192.35 140.372 193.168 140.069C194.695 139.5 196.688 139.519 197.753 140.653C198.076 141.045 198.29 141.497 198.379 141.973C198.469 142.449 198.43 142.937 198.268 143.398C197.935 144.318 197.393 145.169 196.675 145.901C194.345 148.576 191.242 150.661 187.686 151.941C184.139 153.168 180.817 153.587 177.183 152.58" fill="#FF725E"/>
<path d="M177.324 156.993C177.505 154.226 177.989 151.479 178.771 148.793C179.74 145.513 180.925 142.284 182.318 139.123L183.4 136.628C183.756 135.813 184.108 135.001 184.509 134.225C185.285 132.74 186.153 131.294 187.109 129.892C188.016 128.55 188.926 127.304 189.793 126.143C190.66 124.982 191.492 123.917 192.297 122.975C193.558 121.48 194.953 120.075 196.468 118.773C197.005 118.311 197.436 117.965 197.726 117.734C197.872 117.627 197.982 117.538 198.065 117.473C198.103 117.443 198.143 117.415 198.184 117.388C198.184 117.388 198.153 117.427 198.078 117.488L197.757 117.761C197.471 118 197.053 118.353 196.525 118.823C195.035 120.141 193.66 121.555 192.411 123.052C191.619 123.998 190.796 125.066 189.934 126.228C189.072 127.389 188.174 128.638 187.294 129.98C186.344 131.379 185.482 132.821 184.711 134.302C184.315 135.071 183.968 135.874 183.607 136.693C183.246 137.512 182.894 138.346 182.529 139.188C181.141 142.343 179.954 145.562 178.974 148.831C178.185 151.507 177.687 154.243 177.486 157.001" fill="#263238"/>
<path d="M184.557 134.217C184.496 134.083 184.451 133.944 184.425 133.802C184.35 133.529 184.262 133.137 184.157 132.648C183.95 131.672 183.717 130.315 183.466 128.804C183.215 127.293 182.956 125.955 182.731 124.986C182.621 124.501 182.529 124.105 182.458 123.832C182.414 123.693 182.386 123.55 182.375 123.406C182.446 123.537 182.5 123.675 182.538 123.817C182.63 124.082 182.749 124.471 182.876 124.97C183.136 125.935 183.418 127.277 183.668 128.788C183.919 130.299 184.135 131.603 184.302 132.633C184.381 133.094 184.452 133.483 184.504 133.786C184.54 133.928 184.558 134.072 184.557 134.217V134.217Z" fill="#263238"/>
<path d="M198.972 131.307C198.783 131.35 198.59 131.377 198.395 131.387C198.026 131.43 197.489 131.491 196.824 131.583C195.504 131.756 193.683 132.056 191.694 132.46C189.705 132.864 187.923 133.306 186.643 133.656C186 133.825 185.486 133.975 185.129 134.079C184.949 134.141 184.761 134.189 184.57 134.221C184.741 134.137 184.919 134.067 185.103 134.009C185.45 133.886 185.961 133.717 186.599 133.533C187.87 133.148 189.652 132.691 191.646 132.283C193.349 131.931 195.072 131.654 196.807 131.453C197.471 131.38 198.012 131.337 198.386 131.318C198.581 131.299 198.777 131.295 198.972 131.307V131.307Z" fill="#263238"/>
<path d="M178.934 148.55C178.893 148.503 178.858 148.453 178.828 148.4L178.56 147.951C178.327 147.566 178.006 146.985 177.618 146.27C176.848 144.844 175.858 142.845 174.789 140.622C173.72 138.4 172.752 136.393 172.017 134.955C171.656 134.255 171.357 133.683 171.137 133.252C171.046 133.067 170.967 132.914 170.9 132.791C170.868 132.737 170.846 132.68 170.834 132.621C170.874 132.668 170.91 132.719 170.939 132.771C171.014 132.894 171.102 133.044 171.212 133.221C171.441 133.606 171.762 134.186 172.149 134.901C172.919 136.328 173.909 138.331 174.978 140.549C176.048 142.768 177.016 144.779 177.75 146.217C178.116 146.916 178.41 147.493 178.63 147.92C178.727 148.104 178.802 148.258 178.868 148.385C178.899 148.437 178.921 148.493 178.934 148.55Z" fill="#263238"/>
<path d="M197.964 142.395C197.906 142.428 197.842 142.454 197.775 142.472L197.22 142.656L195.183 143.318C193.467 143.879 191.1 144.675 188.486 145.559C185.873 146.443 183.497 147.22 181.763 147.751C180.883 148.016 180.192 148.223 179.704 148.358L179.136 148.512C179.072 148.534 179.003 148.547 178.934 148.55C178.995 148.521 179.058 148.495 179.123 148.473L179.678 148.289L181.715 147.628C183.435 147.07 185.798 146.27 188.412 145.386C191.025 144.502 193.401 143.725 195.135 143.198C196.015 142.933 196.706 142.725 197.198 142.591L197.757 142.456C197.823 142.428 197.892 142.407 197.964 142.395V142.395Z" fill="#263238"/>
<path d="M0.637989 145.067C1.15451 144.964 1.68935 144.953 2.21083 145.035C2.73231 145.116 3.22985 145.288 3.67398 145.54C4.55862 146.053 5.29754 146.735 5.83437 147.535C6.91676 149.05 7.29076 151.08 7.32596 152.868C5.05557 152.776 3.12838 151.207 2.20878 150.357C0.752388 149.016 -0.950405 145.817 0.637989 145.067" fill="#FF725E"/>
<path d="M10.9471 154.083C10.4933 153.748 10.1492 153.314 9.94979 152.825C9.75038 152.336 9.70282 151.81 9.81195 151.299C9.92831 150.792 10.1595 150.311 10.492 149.883C10.8245 149.455 11.2515 149.089 11.7479 148.808C11.9596 148.656 12.2069 148.547 12.4722 148.488C12.7376 148.428 13.0145 148.421 13.2835 148.466C13.5238 148.543 13.7359 148.675 13.8977 148.848C14.0595 149.021 14.165 149.229 14.2031 149.45C14.2754 149.893 14.2132 150.345 14.0227 150.761C13.4375 152.203 12.5751 153.506 10.9427 154.075" fill="#FF725E"/>
<path d="M13.0107 159.735C13.0107 159.735 12.9139 159.627 12.7819 159.416C12.6499 159.204 12.4695 158.897 12.2539 158.508C11.6716 157.499 11.2483 156.426 10.9955 155.317C10.7483 154.195 10.8548 153.034 11.3035 151.961C11.4433 151.639 11.6296 151.334 11.8579 151.053C11.9334 150.946 12.0285 150.849 12.1395 150.769C11.8731 151.165 11.6436 151.579 11.4531 152.007C11.0644 153.065 10.9857 154.191 11.2243 155.282C11.4761 156.374 11.8718 157.435 12.4035 158.447C12.6339 158.866 12.8367 159.296 13.0107 159.735V159.735Z" fill="#263238"/>
<path d="M2.15598 147.405C2.3346 147.536 2.49951 147.682 2.64878 147.839C2.95238 148.135 3.38798 148.566 3.91598 149.108C4.97637 150.188 6.41076 151.703 7.95076 153.41C9.49075 155.117 10.8371 156.694 11.7919 157.847C12.2715 158.424 12.6499 158.897 12.9095 159.223C13.0515 159.388 13.1781 159.563 13.2879 159.746C13.1268 159.598 12.9797 159.439 12.8479 159.27L11.6775 157.932C10.6875 156.801 9.32355 155.24 7.78356 153.533C6.24357 151.826 4.83117 150.304 3.82358 149.2L2.60918 147.889C2.44157 147.74 2.28988 147.578 2.15598 147.405V147.405Z" fill="#263238"/>
<path d="M9.43795 156.297C8.45743 155.624 7.30748 155.164 6.08328 154.956C4.85907 154.749 3.59579 154.798 2.39798 155.102C1.79078 155.259 1.11759 155.586 1.05599 156.136C0.994387 156.686 1.58838 157.12 2.15598 157.366C3.35405 157.863 4.69338 158.039 6.00552 157.872C7.31767 157.705 8.54402 157.203 9.53035 156.428" fill="#FF725E"/>
<path d="M3.87197 156.098C3.99798 156.048 4.13128 156.015 4.26797 155.998C4.42344 155.96 4.58247 155.934 4.74317 155.921C4.95421 155.89 5.16731 155.87 5.38117 155.863C5.93798 155.834 6.49671 155.855 7.04876 155.925C7.72379 156.018 8.38587 156.173 9.02435 156.386C9.65641 156.612 10.2596 156.896 10.8239 157.232C11.2775 157.511 11.6977 157.829 12.0779 158.181C12.2344 158.314 12.3813 158.456 12.5179 158.604C12.6219 158.711 12.7175 158.824 12.8039 158.943C12.8911 159.036 12.9609 159.141 13.0107 159.254C12.9755 159.277 12.6499 158.85 11.9855 158.281C11.5921 157.951 11.1666 157.651 10.7139 157.386C9.60173 156.735 8.34302 156.3 7.02236 156.109C6.48422 156.033 5.93946 155.998 5.39437 156.005C4.45277 156.021 3.88077 156.136 3.87197 156.098Z" fill="#263238"/>
<path d="M26.3779 75.3498L145.991 21.4884L138.318 12.0226L177.39 8.95066L159.768 36.5945L151.575 27.6362L30.3731 85.8075L26.3779 75.3498Z" fill="#FF725E"/>
<path d="M47.1282 113.624H19.5755V160H47.1282V113.624Z" fill="#263238"/>
<path d="M39.6174 113.624H12.0647V160H39.6174V113.624Z" fill="#455A64"/>
<path d="M90.1204 98.1569H62.5677V160H90.1204V98.1569Z" fill="#263238"/>
<path d="M81.7957 98.1569H54.243V160H81.7957V98.1569Z" fill="#455A64"/>
<path d="M134.345 78.564H106.792V160H134.345V78.564Z" fill="#263238"/>
<path d="M126.068 78.564H98.5156V160H126.068V78.564Z" fill="#455A64"/>
<path d="M178.754 61.4048H151.201V160H178.754V61.4048Z" fill="#263238"/>
<path d="M167.78 61.4048H140.227V160H167.78V61.4048Z" fill="#455A64"/>
<path d="M27.1127 106.277L29.6779 104.432L25.7531 100.202L21.9647 102.855L22.1891 103.132C23.1967 104.351 27.4163 109.264 28.4107 109.853C29.5195 110.522 27.1127 106.277 27.1127 106.277Z" fill="#FF725E"/>
<g opacity="0.5">
<path opacity="0.5" d="M23.4255 104.393C23.7779 104.035 23.9674 103.577 23.9579 103.105C23.953 102.646 23.7503 102.205 23.3903 101.871L22.0395 102.828L23.4255 104.393Z" fill="white"/>
</g>
<g opacity="0.4">
<path opacity="0.4" d="M28.2171 108.403C28.2171 108.403 28.9695 109.941 28.5867 109.964C28.2039 109.987 23.7467 105.151 21.9867 102.871L22.1011 102.801L27.2447 108.469C27.2447 108.469 27.9751 108.165 28.2171 108.403Z" fill="white"/>
</g>
<path d="M22.0219 102.732C22.0219 102.732 22.0219 102.763 22.0791 102.813L22.2595 103.032L22.9327 103.828C23.5091 104.493 24.3187 105.408 25.2339 106.4C26.1491 107.392 26.9939 108.273 27.6363 108.903L28.3843 109.645L28.5911 109.845L28.6703 109.91L28.6043 109.833L28.4063 109.63L27.6759 108.861C27.0599 108.223 26.2107 107.323 25.2955 106.346C24.3803 105.37 23.5619 104.447 22.9767 103.786L22.2815 103.017L22.0923 102.805C22.0705 102.78 22.047 102.755 22.0219 102.732V102.732Z" fill="#263238"/>
<path d="M27.1699 108.522C27.3471 108.452 27.5332 108.401 27.7243 108.369C27.9168 108.357 28.1101 108.365 28.3007 108.392C28.1247 108.3 27.9164 108.269 27.7155 108.303C27.5091 108.316 27.3151 108.394 27.1699 108.522V108.522Z" fill="#263238"/>
<path d="M26.7387 106.762C26.7387 106.762 26.8795 106.762 27.0467 106.762C27.2139 106.762 27.3503 106.715 27.3459 106.696C27.3415 106.677 27.2051 106.677 27.0379 106.696C26.8707 106.715 26.7343 106.742 26.7387 106.762Z" fill="#263238"/>
<path d="M26.6287 106.273C26.6287 106.292 26.7387 106.323 26.8795 106.342C26.9661 106.362 27.0569 106.362 27.1435 106.342C27.1435 106.323 27.0335 106.292 26.8927 106.273C26.7519 106.254 26.6287 106.254 26.6287 106.273Z" fill="#263238"/>
<path d="M26.8839 105.735C26.8839 105.735 26.9455 105.854 27.0555 105.977C27.1655 106.1 27.2711 106.189 27.2887 106.177C27.25 106.087 27.1917 106.005 27.1171 105.935C27.0027 105.812 26.9015 105.723 26.8839 105.735Z" fill="#263238"/>
<path d="M27.1347 105.431C27.1485 105.543 27.2006 105.649 27.2843 105.735C27.4031 105.889 27.5439 105.973 27.5571 105.962C27.4962 105.868 27.4255 105.779 27.3459 105.697C27.2315 105.547 27.1567 105.424 27.1347 105.431Z" fill="#263238"/>
<path d="M27.2931 106.608C27.3582 106.711 27.4447 106.802 27.5483 106.877C27.6525 106.965 27.7659 107.045 27.8871 107.115C27.9594 107.159 28.0377 107.196 28.1203 107.223C28.1453 107.232 28.1722 107.237 28.1995 107.237C28.2267 107.237 28.2537 107.232 28.2787 107.223C28.3066 107.21 28.3291 107.189 28.3433 107.165C28.3575 107.14 28.3626 107.112 28.3579 107.084C28.3202 106.94 28.2263 106.812 28.0923 106.721C27.9582 106.631 27.7924 106.584 27.6231 106.589C27.5228 106.59 27.4239 106.61 27.3327 106.646C27.298 106.658 27.2665 106.677 27.2403 106.7C27.3624 106.659 27.4921 106.636 27.6231 106.635C27.7616 106.639 27.8958 106.678 28.0103 106.746C28.1491 106.824 28.2471 106.947 28.2831 107.088C28.2831 107.154 28.2127 107.181 28.1379 107.154C28.0617 107.128 27.9893 107.095 27.9223 107.054C27.8014 106.989 27.6867 106.915 27.5791 106.835C27.3987 106.7 27.3019 106.6 27.2931 106.608Z" fill="#263238"/>
<path d="M27.3415 106.7C27.4369 106.684 27.5235 106.641 27.5879 106.577C27.6613 106.511 27.7157 106.431 27.7463 106.342C27.7709 106.287 27.7789 106.226 27.7697 106.167C27.7605 106.108 27.7342 106.052 27.6935 106.004C27.6791 105.991 27.662 105.981 27.6431 105.974C27.6242 105.967 27.604 105.964 27.5835 105.964C27.563 105.964 27.5427 105.967 27.5238 105.974C27.5049 105.981 27.4878 105.991 27.4735 106.004C27.4308 106.045 27.3979 106.094 27.3767 106.146C27.3416 106.231 27.318 106.319 27.3063 106.408C27.2839 106.489 27.2839 106.573 27.3063 106.654C27.3063 106.654 27.3063 106.562 27.3371 106.415C27.3551 106.331 27.3831 106.249 27.4207 106.169C27.4515 106.085 27.5439 105.977 27.6231 106.035C27.6518 106.075 27.6699 106.121 27.676 106.168C27.6821 106.215 27.676 106.263 27.6583 106.308C27.6316 106.388 27.5867 106.462 27.5263 106.527C27.472 106.59 27.41 106.648 27.3415 106.7V106.7Z" fill="#263238"/>
<path d="M23.4255 101.883C23.4255 101.883 23.5487 101.994 23.7027 102.202C23.8982 102.475 24.0019 102.791 24.0019 103.113C24.0019 103.435 23.8982 103.751 23.7027 104.024C23.5531 104.236 23.4211 104.343 23.4299 104.351C23.4387 104.359 23.4695 104.332 23.5267 104.282C23.6087 104.211 23.6824 104.134 23.7467 104.051C23.9579 103.773 24.0711 103.447 24.0723 103.113C24.0668 102.779 23.9473 102.453 23.7291 102.179C23.6635 102.095 23.5883 102.018 23.5047 101.948C23.4651 101.902 23.4299 101.879 23.4255 101.883Z" fill="#263238"/>
<path d="M25.8455 100.894C25.4948 101.098 25.1584 101.321 24.8379 101.56C24.4964 101.784 24.1689 102.024 23.8567 102.279C24.2161 102.077 24.56 101.854 24.8863 101.613C25.2215 101.39 25.5417 101.15 25.8455 100.894Z" fill="#263238"/>
<path d="M24.3979 104.574C24.5298 104.814 24.6985 105.038 24.8995 105.239C25.0789 105.456 25.2905 105.651 25.5287 105.82C25.5287 105.82 25.2691 105.543 24.9567 105.201C24.6443 104.858 24.3979 104.562 24.3979 104.574Z" fill="#263238"/>
<path d="M23.6235 103.743C23.6235 103.743 23.5795 103.816 23.5311 103.893C23.4827 103.97 23.4343 104.036 23.4519 104.047C23.4695 104.059 23.5487 104.016 23.6015 103.924C23.6543 103.832 23.6455 103.747 23.6235 103.743Z" fill="#263238"/>
<path d="M23.7775 103.117C23.7775 103.117 23.7335 103.178 23.7247 103.259C23.7159 103.34 23.7247 103.405 23.7247 103.405C23.7247 103.405 23.7687 103.344 23.7819 103.267C23.7951 103.19 23.7995 103.121 23.7775 103.117Z" fill="#263238"/>
<path d="M23.5663 102.528C23.5663 102.528 23.6059 102.598 23.6411 102.678C23.6763 102.759 23.6763 102.828 23.6983 102.832C23.7203 102.836 23.7511 102.751 23.6983 102.655C23.6455 102.559 23.5795 102.513 23.5663 102.528Z" fill="#263238"/>
<path d="M23.3683 102.14C23.3683 102.14 23.3683 102.19 23.3683 102.236C23.3683 102.282 23.4167 102.313 23.4343 102.309C23.4519 102.305 23.4343 102.259 23.4343 102.213C23.4343 102.167 23.3903 102.136 23.3683 102.14Z" fill="#263238"/>
<path d="M76.0317 96.6613L76.1373 93.7585L69.9157 93.5471L69.7089 97.7763L70.0917 97.8109C71.8077 97.9493 78.8169 98.4222 79.9785 98.1569C81.2721 97.8801 76.0317 96.6613 76.0317 96.6613Z" fill="#FF725E"/>
<g opacity="0.5">
<path opacity="0.5" d="M71.9661 97.8263C71.8943 97.3648 71.6294 96.9429 71.2225 96.6421C70.8247 96.3424 70.3131 96.1834 69.7881 96.1961L69.7177 97.7148L71.9661 97.8263Z" fill="white"/>
</g>
<g opacity="0.4">
<path opacity="0.4" d="M78.5881 97.338C78.5881 97.338 80.4185 97.8686 80.1765 98.1262C79.9345 98.3838 72.8285 98.1262 69.7089 97.7955V97.6725L77.9941 98.0185C77.9941 98.0185 78.2273 97.338 78.5881 97.338Z" fill="white"/>
</g>
<path d="M69.6253 97.6648H69.7309L70.0389 97.6917L71.1697 97.7725C72.1201 97.834 73.4401 97.907 74.9009 97.957C76.3617 98.007 77.6773 98.0301 78.6365 98.0339H80.0753C80.1118 98.0371 80.1487 98.0371 80.1853 98.0339H80.0753H79.7673L78.6365 98.0147C77.6817 98.0147 76.3617 97.9685 74.9009 97.9186C73.4401 97.8686 72.1245 97.8032 71.1697 97.7532L70.0389 97.6917H69.7353L69.6253 97.6648Z" fill="#263238"/>
<path d="M78.0029 98.1031C78.0581 97.9408 78.1349 97.7846 78.2317 97.6379C78.3524 97.5047 78.488 97.3824 78.6365 97.2726C78.4395 97.3286 78.2733 97.4464 78.1701 97.6033C78.0432 97.7451 77.9834 97.9239 78.0029 98.1031V98.1031Z" fill="#263238"/>
<path d="M76.2033 97.2265C76.2033 97.2265 76.3089 97.1458 76.4057 97.0227C76.5025 96.8997 76.5685 96.7959 76.5509 96.7843C76.5333 96.7728 76.4409 96.8651 76.3441 96.9881C76.2473 97.1111 76.1857 97.215 76.2033 97.2265Z" fill="#263238"/>
<path d="M75.7105 96.9766C75.7105 96.9766 75.8249 96.9343 75.9349 96.8574C76.0449 96.7805 76.1241 96.6998 76.1109 96.6844C76.0977 96.669 75.9965 96.7228 75.8865 96.8036C75.7765 96.8843 75.6973 96.9612 75.7105 96.9766Z" fill="#263238"/>
<path d="M75.4113 96.4537C75.5151 96.4882 75.6259 96.5039 75.7369 96.4998C75.8456 96.5159 75.9572 96.5094 76.0625 96.4806C75.9608 96.4442 75.851 96.4284 75.7413 96.4345C75.631 96.4189 75.5182 96.4255 75.4113 96.4537V96.4537Z" fill="#263238"/>
<path d="M75.3189 96.0846C75.4236 96.152 75.5496 96.1896 75.6797 96.1923C75.8052 96.2132 75.9349 96.2026 76.0537 96.1615C75.9337 96.1389 75.8113 96.1273 75.6885 96.1269C75.5665 96.1056 75.443 96.0914 75.3189 96.0846V96.0846Z" fill="#263238"/>
<path d="M76.4321 96.7574C76.5644 96.7789 76.7001 96.7789 76.8325 96.7574C76.9813 96.7489 77.1288 96.727 77.2725 96.6921C77.3577 96.673 77.4403 96.646 77.5189 96.6113C77.5436 96.6012 77.5657 96.5867 77.5838 96.5689C77.602 96.551 77.6158 96.5302 77.6245 96.5075C77.6311 96.4815 77.6293 96.4544 77.6192 96.4292C77.6091 96.4041 77.5911 96.3819 77.5673 96.3653C77.4183 96.2945 77.2456 96.2714 77.0793 96.3002C76.9129 96.329 76.7633 96.4078 76.6565 96.5229C76.5913 96.5893 76.5419 96.6664 76.5113 96.7498C76.5025 96.7813 76.5025 96.8143 76.5113 96.8459C76.557 96.739 76.624 96.6401 76.7093 96.5537C76.8025 96.4643 76.9231 96.4002 77.0569 96.3691C77.1356 96.3488 77.2182 96.3423 77.2998 96.3503C77.3814 96.3582 77.4604 96.3803 77.5321 96.4153C77.5937 96.4576 77.5673 96.5229 77.4969 96.5575C77.4232 96.5888 77.3467 96.6145 77.2681 96.6344C77.1242 96.6709 76.977 96.6966 76.8281 96.7113C76.5861 96.7536 76.4365 96.7498 76.4321 96.7574Z" fill="#263238"/>
<path d="M76.5377 96.7805C76.5868 96.7075 76.6069 96.6223 76.5949 96.5383C76.5849 96.4472 76.5519 96.3592 76.4981 96.2807C76.4671 96.2274 76.4208 96.182 76.3637 96.149C76.3066 96.116 76.2408 96.0964 76.1725 96.0923C76.1522 96.0946 76.1326 96.1005 76.1149 96.1096C76.0972 96.1186 76.0818 96.1306 76.0695 96.145C76.0572 96.1593 76.0483 96.1756 76.0433 96.193C76.0383 96.2103 76.0374 96.2284 76.0405 96.2461C76.0483 96.303 76.0692 96.3579 76.1021 96.4076C76.151 96.486 76.2117 96.5584 76.2825 96.6229C76.4013 96.7344 76.4981 96.7805 76.5025 96.7728C76.5069 96.7651 76.4277 96.7075 76.3221 96.5921C76.2598 96.526 76.2067 96.4537 76.1637 96.3768C76.1109 96.3038 76.0801 96.1692 76.1637 96.1576C76.2473 96.1461 76.3617 96.2422 76.4189 96.3114C76.4732 96.382 76.5092 96.462 76.5245 96.546C76.536 96.6237 76.5404 96.7022 76.5377 96.7805V96.7805Z" fill="#263238"/>
<path d="M69.8189 96.1846C69.8189 96.1846 69.9993 96.1846 70.2589 96.2115C70.6224 96.2598 70.9643 96.3926 71.2489 96.596C71.5262 96.8082 71.7304 97.0838 71.8385 97.3918C71.9221 97.6302 71.9265 97.7763 71.9397 97.7763C71.9472 97.7407 71.9472 97.7042 71.9397 97.6687C71.9352 97.5685 71.9175 97.4692 71.8869 97.3726C71.788 97.0492 71.5812 96.7588 71.2929 96.5383C70.9997 96.3255 70.642 96.1919 70.2633 96.1538C70.1492 96.1444 70.0343 96.1444 69.9201 96.1538C69.8629 96.1692 69.8189 96.1769 69.8189 96.1846Z" fill="#263238"/>
<path d="M70.5669 93.9431C70.5045 94.3124 70.4692 94.6848 70.4613 95.058C70.4268 95.4302 70.418 95.8038 70.4349 96.1769C70.4915 95.8071 70.5253 95.4349 70.5361 95.0619C70.5733 94.6899 70.5835 94.3162 70.5669 93.9431V93.9431Z" fill="#263238"/>
<path d="M72.7713 97.3226C73.066 97.3967 73.3711 97.4343 73.6777 97.4341C73.9816 97.4576 74.2876 97.4473 74.5885 97.4034C74.5885 97.3841 74.1837 97.4034 73.6821 97.3688C73.1805 97.3342 72.7977 97.3034 72.7713 97.3226Z" fill="#263238"/>
<path d="M71.5525 97.2803C71.5525 97.2803 71.5833 97.3572 71.6229 97.4418C71.6625 97.5264 71.6801 97.5956 71.6977 97.5956C71.7153 97.5956 71.7373 97.511 71.6977 97.4149C71.6581 97.3188 71.5657 97.2688 71.5525 97.2803Z" fill="#263238"/>
<path d="M71.1169 96.7651C71.1169 96.7651 71.1169 96.8343 71.2005 96.8958C71.2841 96.9574 71.3237 96.992 71.3413 96.9804C71.3589 96.9689 71.3193 96.9112 71.2577 96.8497C71.1961 96.7882 71.1301 96.7536 71.1169 96.7651Z" fill="#263238"/>
<path d="M70.4701 96.5152C70.4701 96.5344 70.5537 96.5344 70.6461 96.5652C70.7385 96.596 70.8001 96.6421 70.8177 96.6306C70.8353 96.619 70.7825 96.5421 70.6725 96.5037C70.5625 96.4652 70.4613 96.496 70.4701 96.5152Z" fill="#263238"/>
<path d="M70.0037 96.3922C70.0037 96.3922 70.0301 96.4345 70.0829 96.4537C70.1357 96.4729 70.1797 96.4768 70.1885 96.4537C70.1973 96.4306 70.1621 96.4076 70.1137 96.3883C70.0653 96.3691 70.0125 96.373 70.0037 96.3922Z" fill="#263238"/>
<path d="M78.8697 23.7876C78.3153 23.6492 77.3737 26.2713 77.2021 25.6062C77.0305 24.941 78.7817 22.5304 78.1921 22.392C77.4265 22.2305 76.4981 24.991 76.4013 25.2179C76.3045 25.4447 75.9217 25.3294 76.0229 25.1294C76.1681 24.8372 77.6113 21.7537 76.8589 21.5884C76.4409 21.4961 76.3221 22.1651 76.3221 22.1651C76.3221 22.1651 75.2177 25.1371 74.8657 25.0487C74.5137 24.9603 75.0901 23.1955 75.3365 22.6111C75.5829 22.0267 75.3629 21.7037 74.9801 21.8191C74.7205 21.8998 73.9241 23.6723 73.6953 24.2528C73.4665 24.8334 72.8813 26.4367 72.4369 25.4409C71.9925 24.4451 71.2181 23.8261 70.8749 23.7838C70.7948 23.7809 70.7157 23.8 70.6487 23.8385C70.5818 23.877 70.5303 23.9329 70.5016 23.9983C70.473 24.0637 70.4685 24.1353 70.4889 24.2031C70.5093 24.2708 70.5535 24.3313 70.6153 24.3759C70.8839 24.6506 71.1061 24.9574 71.2753 25.2871C71.426 25.5473 71.5242 25.8282 71.5657 26.1175C71.6587 26.6956 71.6868 27.2802 71.6493 27.8631L65.6389 38.786L54.6038 35.7871L53.4906 41.2505C53.4906 41.2505 68.0105 45.9681 68.8905 45.4798C70.8265 44.4263 76.0625 28.7166 76.0625 28.7166C76.9226 27.6225 77.7157 26.4892 78.4385 25.3217C79.2261 23.903 79.0809 23.8414 78.8697 23.7876Z" fill="#B78876"/>
<path d="M22.3739 60.7051C22.064 60.4647 21.7957 60.1862 21.5775 59.8784C21.3824 59.6456 21.2336 59.3856 21.1375 59.1095C21.0099 58.6904 20.9086 58.2656 20.8339 57.8369C20.8339 57.8369 24.6311 47.9366 25.6343 46.4064C26.6375 44.8762 40.4842 40.52 40.4842 40.52L38.7242 34.4876C38.7242 34.4876 26.1007 38.9206 21.2739 42.2579C18.1939 44.3802 15.9939 57.5447 15.9939 57.5562C15.4182 58.5746 14.9056 59.6193 14.4583 60.6858C13.9039 62.2238 14.0579 62.2507 14.2691 62.2776C14.8455 62.3468 15.3647 59.6401 15.6375 60.2783C15.9103 60.9165 14.5639 63.5271 15.1667 63.5771C15.9499 63.6463 16.4339 60.8012 16.4867 60.5628C16.5395 60.3244 16.9267 60.3936 16.8739 60.6051C16.7771 60.9127 15.8311 64.1423 16.6011 64.2153C17.0411 64.2538 17.0411 63.5771 17.0411 63.5771C17.0411 63.5771 17.6703 60.5013 18.0311 60.5474C18.3919 60.5936 18.1015 62.4083 17.9519 63.0158C17.8023 63.6232 18.0663 63.9231 18.4271 63.7578C18.6691 63.6463 19.1839 61.797 19.3071 61.1972C19.4303 60.5974 19.7471 58.9326 20.3675 59.8669C20.9879 60.8012 21.8635 61.3318 22.1979 61.3318C22.2818 61.3298 22.3627 61.3039 22.428 61.2578C22.4934 61.2118 22.5396 61.1483 22.5596 61.0771C22.5796 61.0059 22.5723 60.9309 22.5387 60.8637C22.5052 60.7964 22.4473 60.7407 22.3739 60.7051V60.7051Z" fill="#B78876"/>
<path d="M22.9855 100.833L29.2379 106.942L48.9718 89.5447C51.3904 87.4079 52.8303 84.5714 53.0198 81.5706L53.8602 67.9601L41.0474 61.1203L42.0682 80.1711C42.124 81.1962 41.9388 82.2204 41.5241 83.1806C41.1094 84.1407 40.474 85.0164 39.657 85.7537L22.9855 100.833Z" fill="#263238"/>
<path d="M38.4778 61.647C38.359 61.7854 37.919 70.4515 45.8522 71.5358C46.3274 71.6011 49.1962 71.8549 49.1962 71.8549C58.1986 71.7934 70.3469 71.4704 70.3469 71.4704L68.3273 95.6617L77.8885 95.6886L80.7969 69.8633C81.4349 62.712 74.5269 61.4779 70.7209 61.4048L52.4126 61.2433L38.4778 61.647Z" fill="#263238"/>
<path d="M47.7882 61.647C47.7877 61.9171 47.7057 62.1824 47.5506 62.416C47.2248 63.0183 46.684 63.5119 46.0095 63.8225C45.335 64.1331 44.5634 64.244 43.8106 64.1384C43.4958 64.1159 43.1928 64.0233 42.9306 63.8693C42.9306 63.8386 43.2738 63.9539 43.8106 63.9962C44.5256 64.0609 45.2464 63.9392 45.8823 63.6463C46.5181 63.3534 47.0405 62.9026 47.3834 62.3506C47.6782 61.9431 47.753 61.6393 47.7882 61.647Z" fill="#455A64"/>
<path d="M72.8505 69.8825C72.5218 70.2143 72.1376 70.5008 71.7109 70.7322C71.3263 71.0138 70.8964 71.2444 70.4349 71.4166C70.761 71.0825 71.1457 70.7957 71.5745 70.5669C71.9584 70.2844 72.3885 70.0537 72.8505 69.8825V69.8825Z" fill="#455A64"/>
<path d="M73.2377 71.3281C72.2924 71.5532 71.3123 71.6467 70.3337 71.605C70.7965 71.4616 71.2818 71.3812 71.7725 71.3666C72.2555 71.2858 72.7501 71.2728 73.2377 71.3281V71.3281Z" fill="#455A64"/>
<path d="M42.9482 36.5138C43.3977 36.5161 43.843 36.4391 44.2576 36.2874C44.6722 36.1357 45.0474 35.9124 45.3609 35.6309C45.6744 35.3495 45.9196 35.0156 46.0819 34.6494C46.2442 34.2831 46.3202 33.892 46.3054 33.4995C46.2438 31.9078 46.1734 30.3007 46.1734 30.3007C46.1734 30.3007 48.9058 29.9162 48.9102 27.517C48.9146 25.1179 48.3778 19.643 48.3778 19.643C46.8143 19.0754 45.1057 18.883 43.4287 19.0858C41.7516 19.2886 40.167 19.8791 38.8386 20.7964L38.4382 21.0732L39.635 33.8532C39.7085 34.5777 40.089 35.2521 40.7018 35.7443C41.3147 36.2365 42.1158 36.5109 42.9482 36.5138V36.5138Z" fill="#B78876"/>
<path d="M47.423 23.9068C47.3442 23.8456 47.2965 23.7596 47.2903 23.6677C47.2841 23.5757 47.32 23.4854 47.39 23.4166C47.46 23.3478 47.5585 23.3061 47.6637 23.3007C47.7689 23.2952 47.8722 23.3266 47.951 23.3878C47.99 23.4181 48.0218 23.4548 48.0446 23.4958C48.0673 23.5368 48.0806 23.5814 48.0837 23.6269C48.0867 23.6724 48.0795 23.718 48.0624 23.7611C48.0453 23.8042 48.0187 23.8439 47.984 23.878C47.9493 23.9121 47.9073 23.9398 47.8604 23.9597C47.8134 23.9796 47.7624 23.9912 47.7103 23.9939C47.6582 23.9966 47.6061 23.9903 47.5568 23.9753C47.5075 23.9604 47.462 23.9371 47.423 23.9068V23.9068Z" fill="#263238"/>
<path d="M48.4526 23.4416C48.4086 23.48 48.1402 23.3032 47.7618 23.307C47.3834 23.3109 47.115 23.48 47.071 23.4377C47.027 23.3955 47.071 23.3455 47.2118 23.2647C47.3709 23.1618 47.5638 23.1065 47.7618 23.1071C47.9602 23.1039 48.1541 23.1595 48.3118 23.2647C48.4306 23.3455 48.4746 23.4224 48.4526 23.4416Z" fill="#263238"/>
<path d="M43.8326 23.68C43.8995 23.7154 43.9529 23.7673 43.986 23.8291C44.0192 23.891 44.0307 23.96 44.019 24.0276C44.0073 24.0951 43.973 24.1581 43.9205 24.2087C43.8679 24.2592 43.7993 24.2951 43.7235 24.3116C43.6476 24.3282 43.5679 24.3248 43.4943 24.3018C43.4206 24.2788 43.3564 24.2373 43.3098 24.1825C43.2631 24.1277 43.236 24.0621 43.232 23.9938C43.2279 23.9256 43.2471 23.8579 43.287 23.7991C43.3426 23.7214 43.4305 23.6655 43.5323 23.6432C43.634 23.621 43.7417 23.6342 43.8326 23.68V23.68Z" fill="#263238"/>
<path d="M44.3694 23.7722C44.3254 23.8145 44.0526 23.6338 43.6786 23.6377C43.3046 23.6415 43.0318 23.8107 42.9878 23.7684C42.9438 23.7261 42.9878 23.6761 43.1286 23.5954C43.288 23.4929 43.4807 23.4377 43.6786 23.4377C43.8765 23.4377 44.0692 23.4929 44.2286 23.5954C44.3474 23.6761 44.387 23.753 44.3694 23.7722Z" fill="#263238"/>
<path d="M45.9094 26.2329C46.1021 26.162 46.3077 26.1216 46.5166 26.1137C46.6134 26.1137 46.6926 26.0829 46.697 26.0368C46.6988 25.9508 46.6745 25.8659 46.6266 25.7907L46.3186 25.1256C46.0288 24.5627 45.8062 23.9752 45.6542 23.3724C46.0095 23.9074 46.3043 24.4714 46.5342 25.0564C46.6354 25.2909 46.7322 25.5101 46.8246 25.7292C46.8914 25.8387 46.9131 25.965 46.8862 26.0868C46.8717 26.1198 46.8486 26.1495 46.8189 26.1735C46.7891 26.1975 46.7534 26.2152 46.7146 26.2252C46.6593 26.2338 46.6027 26.2338 46.5474 26.2252C46.3369 26.2609 46.1209 26.2635 45.9094 26.2329V26.2329Z" fill="#263238"/>
<path d="M44.6906 26.6058C45.2634 26.872 45.8953 27.0268 46.543 27.0595C46.4191 27.2351 46.2306 27.3688 46.0084 27.4387C45.7861 27.5085 45.5434 27.5104 45.3198 27.444C44.497 27.1787 44.6906 26.6058 44.6906 26.6058Z" fill="white"/>
<path d="M46.1778 30.266C44.9165 30.3007 43.6722 30.0048 42.605 29.4164C42.605 29.4164 43.485 31.1273 46.191 30.8889L46.1778 30.266Z" fill="#A36957"/>
<path d="M38.1258 23.2109C38.2533 22.7435 38.2258 22.2541 38.0466 21.7999C37.8676 21.3493 37.7697 20.8772 37.7562 20.4004C37.7514 20.1578 37.828 19.9192 37.9766 19.7143C38.1251 19.5093 38.3392 19.3468 38.5922 19.2469C38.9618 19.1393 39.3754 19.2239 39.7494 19.1316C40.1204 18.9993 40.4505 18.7925 40.713 18.528C41.8108 17.6483 43.1718 17.059 44.6378 16.8286C45.0621 16.7375 45.5079 16.7589 45.9182 16.8901C46.1188 16.9619 46.2835 17.0939 46.3827 17.2624C46.4819 17.4308 46.5091 17.6246 46.4594 17.809C46.995 17.5032 47.5923 17.2893 48.2194 17.1785C48.5309 17.1268 48.8528 17.1519 49.1489 17.251C49.445 17.3502 49.7036 17.5194 49.8958 17.7398C50.239 18.2012 50.019 18.9547 49.4074 19.0893C49.5821 19.1245 49.747 19.1897 49.8925 19.2812C50.038 19.3726 50.1612 19.4884 50.255 19.6219C50.3488 19.7554 50.4112 19.9038 50.4387 20.0586C50.4662 20.2134 50.4581 20.3714 50.415 20.5234C50.3065 20.8266 50.1046 21.0978 49.8314 21.3074C49.5582 21.5169 49.2243 21.6567 48.8662 21.7114C48.1467 21.8105 47.4097 21.7292 46.741 21.4769C46.0678 21.2539 45.421 20.9463 44.7566 20.708C44.5302 20.9751 44.2283 21.1864 43.8805 21.3212C43.5327 21.456 43.1508 21.5096 42.7722 21.4769C42.0199 21.4047 41.2884 21.2159 40.6118 20.9194C40.7383 21.601 40.6718 22.2993 40.4182 22.9533C40.2588 23.1998 40.122 23.4569 40.009 23.7223C39.9441 24.0975 39.9191 24.4772 39.9342 24.8565C39.899 25.2409 39.6614 25.6562 39.2302 25.7138C39.0339 25.7207 38.8405 25.6699 38.6811 25.5695C38.5216 25.4692 38.4051 25.3251 38.3502 25.1602C38.2506 24.8266 38.2252 24.4794 38.2754 24.1375C38.2754 23.7953 37.9454 23.53 38.139 23.2224" fill="#263238"/>
<path d="M38.8298 23.9837C38.8219 23.8885 38.7712 23.7998 38.6888 23.7372C38.6063 23.6745 38.4989 23.6429 38.3898 23.6492C37.8838 23.6684 37.0698 23.8991 37.0698 25.1294C37.105 26.8865 38.9926 26.329 38.997 26.2829C39.0014 26.2367 38.8914 24.6642 38.8298 23.9837Z" fill="#B78876"/>
<path d="M38.535 25.6177C38.535 25.6177 38.4998 25.6408 38.4426 25.6639C38.358 25.6938 38.2633 25.6938 38.1786 25.6639C38.0486 25.5929 37.942 25.4935 37.8695 25.3755C37.7969 25.2575 37.7609 25.1249 37.765 24.991C37.7565 24.841 37.7865 24.6912 37.853 24.5527C37.8729 24.498 37.9065 24.4478 37.9514 24.4059C37.9963 24.364 38.0514 24.3314 38.1126 24.3105C38.1536 24.3014 38.1969 24.3048 38.2354 24.3202C38.2738 24.3356 38.305 24.362 38.3238 24.3951C38.3502 24.4412 38.3238 24.4758 38.3502 24.4797C38.3766 24.4835 38.3898 24.4489 38.3722 24.3759C38.3607 24.3331 38.3327 24.2951 38.293 24.2682C38.2656 24.2504 38.2343 24.2374 38.2011 24.2302C38.1678 24.2229 38.1333 24.2215 38.0994 24.2259C38.0169 24.2406 37.9403 24.2739 37.877 24.3225C37.8137 24.371 37.766 24.4332 37.7386 24.5027C37.655 24.6561 37.6157 24.8251 37.6242 24.9949C37.6142 25.1545 37.6592 25.313 37.7533 25.4501C37.8474 25.5872 37.9864 25.6964 38.1522 25.7638C38.2063 25.7764 38.2628 25.778 38.3177 25.7687C38.3726 25.7594 38.4243 25.7393 38.469 25.71C38.5306 25.66 38.5394 25.6216 38.535 25.6177Z" fill="#A36957"/>
<path d="M44.2902 22.4996C43.9824 22.5608 43.671 22.607 43.3574 22.638C42.8558 22.738 42.4774 22.9264 42.451 22.8802C42.4246 22.8341 42.7502 22.5573 43.3046 22.4458C43.4645 22.396 43.6343 22.3751 43.8037 22.3844C43.9731 22.3936 44.1386 22.4328 44.2902 22.4996V22.4996Z" fill="#263238"/>
<path d="M45.399 29.2087C45.3374 29.2087 45.2934 28.9665 45.3022 28.6705C45.311 28.3744 45.3726 28.1322 45.4386 28.1361C45.5046 28.1399 45.5442 28.3783 45.531 28.6743C45.5178 28.9704 45.4606 29.2126 45.399 29.2087Z" fill="#263238"/>
<path d="M45.9578 29.0357C45.8962 29.0357 45.8434 28.8319 45.8434 28.582C45.8434 28.3321 45.8962 28.1284 45.9578 28.1284C46.0194 28.1284 46.0722 28.3321 46.0722 28.582C46.0722 28.8319 46.0062 29.0357 45.9578 29.0357Z" fill="#263238"/>
<path d="M46.543 28.9088C46.4814 28.9088 46.4154 28.7358 46.3934 28.5244C46.3714 28.3129 46.3934 28.1168 46.4682 28.113C46.543 28.1091 46.6002 28.286 46.6222 28.4975C46.6442 28.7089 46.609 28.905 46.543 28.9088Z" fill="#263238"/>
<path d="M61.2829 37.302C58.203 36.1485 56.003 35.4911 54.3222 34.6837C49.0422 32.1654 47.753 32.8766 46.5518 32.8228C44.3376 33.5935 41.9051 33.7479 39.5866 33.265V33.265C36.5066 33.5725 34.7466 34.8336 31.3059 36.037L24.4551 39.2474L29.3963 45.2568L35.7366 43.4075C36.2602 45.7143 36.3878 47.556 36.7398 50.3588L37.413 61.6701L56.6102 61.4125L54.6654 50.6472L53.4994 42.1656L59.1446 44.2033L61.2829 37.2827" fill="#FF725E"/>
<g opacity="0.4">
<path opacity="0.4" d="M54.5818 34.7683C54.5818 34.7683 54.5818 34.7683 54.6346 34.8067C54.6815 34.852 54.7214 34.9024 54.7534 34.9567C54.8036 35.0678 54.8245 35.1873 54.8146 35.3065C54.8047 35.4256 54.7642 35.5413 54.6962 35.6449C54.4972 35.9808 54.1635 36.2409 53.759 36.3754C53.2254 36.5096 52.673 36.5782 52.1178 36.5792C51.8054 36.5965 51.4957 36.6416 51.1938 36.7137C50.8808 36.8042 50.5844 36.9337 50.3138 37.0982C49.7418 37.4596 49.2402 37.9633 48.6286 38.4362C48.3128 38.6866 47.9515 38.8893 47.5594 39.036C47.1407 39.1824 46.6835 39.2237 46.2394 39.1552C45.3242 39.0129 44.563 38.5285 43.7314 38.2016C42.9143 37.8897 42.0137 37.7832 41.131 37.8941C40.3003 37.9911 39.4773 38.1336 38.667 38.3208C37.9188 38.4821 37.1536 38.5762 36.3834 38.6015C35.701 38.6243 35.0222 38.5043 34.4035 38.2516C33.9011 38.0237 33.4876 37.6704 33.2155 37.2366C33.0058 36.9113 32.9066 36.5406 32.9295 36.1678C32.9533 35.934 33.0441 35.7092 33.1935 35.5142C33.246 35.4473 33.3081 35.3866 33.3783 35.3335C33.1707 35.5776 33.0471 35.8683 33.0219 36.1716C33.0123 36.5262 33.1192 36.8758 33.3299 37.1789C33.596 37.5873 33.996 37.9168 34.4783 38.1248C35.0756 38.3562 35.7264 38.4628 36.379 38.4362C37.1352 38.4044 37.8856 38.3052 38.6186 38.1401C39.4377 37.9488 40.2694 37.8011 41.109 37.698C42.0307 37.5822 42.9711 37.694 43.8238 38.0209C44.7038 38.3593 45.4342 38.8322 46.2746 38.9591C46.6807 39.0257 47.1 38.991 47.4846 38.8591C47.8536 38.7218 48.194 38.5321 48.4922 38.2978C49.095 37.8441 49.6098 37.3327 50.2082 36.9636C50.5001 36.7841 50.8223 36.6453 51.163 36.5522C51.4781 36.4807 51.8012 36.4395 52.1266 36.4292C52.6682 36.4318 53.2079 36.3737 53.7326 36.2562C54.1126 36.1369 54.4321 35.904 54.6346 35.5987C54.7018 35.5045 54.7449 35.3986 54.7608 35.2885C54.7768 35.1783 54.7652 35.0664 54.727 34.9605C54.6434 34.8298 54.5686 34.776 54.5818 34.7683Z" fill="black"/>
</g>
<g opacity="0.4">
<path opacity="0.4" d="M53.1166 42.65C53.065 42.7306 53.0046 42.8066 52.9362 42.8769C52.7425 43.0808 52.5191 43.2618 52.2718 43.4151C51.8747 43.6609 51.4262 43.8359 50.9518 43.9303C50.3232 44.0644 49.6648 44.0471 49.0466 43.8804C48.3646 43.6997 47.7002 43.3306 46.917 43.1729C46.0639 43.0617 45.1934 43.2198 44.4618 43.6189C43.6269 44.0645 42.7271 44.4098 41.7866 44.6455C40.7459 44.8436 39.6638 44.7985 38.6494 44.5147C38.1375 44.3691 37.6505 44.1635 37.2018 43.9034C36.7618 43.6458 36.3658 43.3536 35.9698 43.0922C35.589 42.8278 35.1741 42.6033 34.7335 42.4232C34.3048 42.2654 33.8532 42.1606 33.3915 42.1118C32.5228 42.0397 31.6504 42.0063 30.7779 42.0118C30.0044 42.0072 29.2366 41.8956 28.5031 41.6812C27.887 41.4998 27.3505 41.1559 26.9675 40.6969C26.6826 40.3503 26.5122 39.942 26.4747 39.5166C26.454 39.2523 26.51 38.9879 26.6375 38.7476C26.6787 38.6622 26.7352 38.5831 26.8047 38.5131C26.8047 38.5131 26.7519 38.5977 26.6815 38.763C26.5688 39.0066 26.5294 39.2713 26.5671 39.5319C26.6138 39.9398 26.789 40.3284 27.0731 40.6546C27.4485 41.0859 27.9659 41.4065 28.5559 41.5735C29.2764 41.7707 30.0272 41.8705 30.7823 41.8696C31.6633 41.8559 32.5445 41.8829 33.4223 41.9503C33.9032 42.0001 34.374 42.1075 34.8215 42.2694C35.279 42.4542 35.7102 42.6852 36.1062 42.9576C36.511 43.2229 36.9026 43.5113 37.3294 43.7573C37.7607 44.0079 38.2283 44.207 38.7198 44.3494C39.6962 44.6205 40.7366 44.6642 41.7382 44.4763C42.6661 44.2493 43.5542 43.913 44.3782 43.4767C44.7836 43.2886 45.2135 43.144 45.6586 43.0461C46.0928 42.9579 46.5444 42.9579 46.9786 43.0461C47.8102 43.2229 48.4614 43.5997 49.117 43.7804C49.707 43.9474 50.3373 43.9739 50.943 43.8573C51.4033 43.7729 51.8408 43.6123 52.2322 43.3844C52.5615 43.1734 52.8587 42.9267 53.1166 42.65V42.65Z" fill="black"/>
</g>
<g opacity="0.4">
<path opacity="0.4" d="M60.1345 40.1163C60.1345 40.1509 59.7693 40.1971 59.2545 40.4547C58.5936 40.8163 57.9746 41.2335 57.4066 41.7004C56.8155 42.18 56.0925 42.5178 55.3078 42.6808C54.9795 42.753 54.6331 42.7287 54.3222 42.6116C54.6408 42.6155 54.9591 42.5923 55.2726 42.5424C56.0122 42.3442 56.6917 42.0039 57.2614 41.5466C57.8372 41.0689 58.4822 40.6592 59.1798 40.3278C59.4685 40.1793 59.7997 40.106 60.1345 40.1163Z" fill="black"/>
</g>
<g opacity="0.4">
<path opacity="0.4" d="M53.759 49.4937C53.759 49.4937 53.759 49.5552 53.693 49.6514C53.6034 49.7941 53.4769 49.9166 53.3234 50.0089C53.0341 50.1699 52.7069 50.2715 52.3662 50.3061C52.0256 50.3407 51.6804 50.3075 51.3566 50.2089C50.5294 50.0128 49.6626 49.5283 48.5626 49.4707C47.3667 49.433 46.1732 49.5894 45.0426 49.932C43.8957 50.2834 42.7187 50.5546 41.5226 50.7433C40.5291 50.8885 39.509 50.7914 38.5746 50.4626C37.9435 50.2433 37.3959 49.8729 36.995 49.3938C36.8874 49.2642 36.7987 49.1234 36.731 48.9747C36.7032 48.9245 36.6825 48.8716 36.6694 48.817C36.6694 48.817 36.7838 49.0247 37.0654 49.3438C37.479 49.7895 38.0213 50.1306 38.6362 50.3319C39.5471 50.6316 40.534 50.71 41.4918 50.5587C42.671 50.3627 43.8315 50.0889 44.9634 49.7398C46.1191 49.3897 47.341 49.237 48.5626 49.29C49.0976 49.3322 49.6218 49.4477 50.1158 49.6321C50.5558 49.7975 50.9958 49.9666 51.3874 50.0704C51.6905 50.171 52.0153 50.2118 52.3386 50.1899C52.6619 50.1679 52.9756 50.0838 53.2574 49.9436C53.4615 49.8289 53.6331 49.675 53.759 49.4937Z" fill="black"/>
</g>
<g opacity="0.4">
<path opacity="0.4" d="M55.6642 56.3336C55.6749 56.3934 55.6749 56.4544 55.6642 56.5143C55.6268 56.6888 55.5407 56.8526 55.4134 56.991C55.162 57.2333 54.8463 57.4178 54.4942 57.5284C54.142 57.6391 53.7641 57.6724 53.3938 57.6254C52.8932 57.5599 52.4029 57.4437 51.933 57.2794C51.4062 57.0964 50.857 56.9674 50.2962 56.8949C49.1126 56.7565 47.819 57.1179 46.5122 57.5293C45.8522 57.7331 45.1922 57.933 44.5542 58.0752C42.8605 58.4439 41.0738 58.3002 39.4854 57.6677C38.8161 57.4104 38.1947 57.067 37.6418 56.6488C37.4851 56.5395 37.338 56.4199 37.2018 56.2913C37.1094 56.2028 37.061 56.1567 37.0698 56.149C37.8048 56.7204 38.6359 57.1898 39.5338 57.5408C40.5097 57.8978 41.556 58.0846 42.6138 58.0906C43.2401 58.0879 43.8637 58.0181 44.4706 57.883C45.1042 57.7407 45.7466 57.5447 46.4022 57.3409C47.7222 56.9333 49.0422 56.5719 50.2918 56.7142C50.8673 56.791 51.4292 56.9318 51.9638 57.1333C52.4214 57.2977 52.8979 57.4188 53.385 57.4947C53.7327 57.5434 54.0887 57.5193 54.4238 57.4244C54.7588 57.3294 55.0633 57.1664 55.3122 56.9487C55.4872 56.773 55.6083 56.5613 55.6642 56.3336V56.3336Z" fill="black"/>
</g>
<g opacity="0.4">
<path opacity="0.4" d="M40.5634 42.3578C40.2493 42.1042 39.9688 41.8205 39.7274 41.512C39.426 41.2444 39.1643 40.9448 38.9486 40.62C39.6712 41.0475 40.233 41.6521 40.5634 42.3578V42.3578Z" fill="black"/>
</g>
<g opacity="0.4">
<path opacity="0.4" d="M51.6514 39.8549C51.4331 40.1964 51.1522 40.5042 50.8198 40.7661C50.5398 41.0706 50.202 41.3307 49.821 41.5351C50.0372 41.1924 50.3184 40.8843 50.6526 40.6238C50.9325 40.3193 51.2704 40.0592 51.6514 39.8549V39.8549Z" fill="black"/>
</g>
<g opacity="0.4">
<path opacity="0.4" d="M57.8378 39.3243C57.7982 39.3705 57.3978 39.1513 56.9006 38.836C56.4034 38.5208 56.069 38.2324 56.1042 38.1863C56.4507 38.2927 56.7694 38.4587 57.0414 38.6746C57.5122 38.9898 57.8686 39.282 57.8378 39.3243Z" fill="black"/>
</g>
<g opacity="0.4">
<path opacity="0.4" d="M30.2543 38.1286C30.3323 38.4344 30.284 38.7545 30.1179 39.0321C29.9287 39.505 29.6163 39.8011 29.5679 39.8011C29.6448 39.5182 29.7569 39.2436 29.9023 38.9821C29.9823 38.6869 30.1004 38.4006 30.2543 38.1286V38.1286Z" fill="black"/>
</g>
<g opacity="0.4">
<path opacity="0.4" d="M40.9022 55.5031C40.8494 55.5377 40.4622 55.1955 40.0618 54.7341C39.7799 54.4776 39.5547 54.1778 39.3974 53.8498C39.4502 53.8152 39.8374 54.1536 40.2378 54.6188C40.5199 54.8752 40.7452 55.175 40.9022 55.5031V55.5031Z" fill="black"/>
</g>
<g opacity="0.4">
<path opacity="0.4" d="M46.3978 53.3116C46.1626 53.6492 45.8653 53.9506 45.5178 54.2036C45.2181 54.5039 44.8607 54.7563 44.4618 54.9494C44.6986 54.6129 44.9957 54.3117 45.3418 54.0575C45.6445 53.7599 46.0013 53.5078 46.3978 53.3116V53.3116Z" fill="black"/>
</g>
<g opacity="0.4">
<path opacity="0.4" d="M53.2134 54.9072C52.821 54.78 52.4586 54.591 52.1442 54.3497C51.5854 53.9959 51.1674 53.673 51.207 53.6269C51.598 53.7582 51.9598 53.9482 52.2762 54.1882C52.6363 54.3757 52.9539 54.6194 53.2134 54.9072Z" fill="black"/>
</g>
<g opacity="0.4">
<path opacity="0.4" d="M42.4026 46.6102C42.0402 46.9071 41.6277 47.1535 41.1794 47.3407C40.7735 47.5837 40.3287 47.7728 39.8594 47.902C40.2232 47.6037 40.6372 47.3561 41.087 47.1676C41.4899 46.9235 41.9337 46.7354 42.4026 46.6102V46.6102Z" fill="black"/>
</g>
<g opacity="0.4">
<path opacity="0.4" d="M48.413 47.0561C48.0219 47.0495 47.6486 46.9118 47.3702 46.6717C47.0456 46.4759 46.8227 46.176 46.7498 45.8374C46.807 45.8104 47.0622 46.1834 47.5198 46.5179C47.9774 46.8524 48.4306 46.9985 48.413 47.0561Z" fill="black"/>
</g>
<g opacity="0.4">
<path opacity="0.4" d="M40.1586 35.1873C40.185 35.2373 39.7846 35.4488 39.2786 35.6526C38.9743 35.8085 38.6352 35.9055 38.2842 35.9371C38.2578 35.8871 38.6626 35.6795 39.1642 35.4719C39.4682 35.3152 39.8075 35.2182 40.1586 35.1873Z" fill="black"/>
</g>
<g opacity="0.4">
<path opacity="0.4" d="M46.3494 36.087C45.9623 36.0209 45.5934 35.8903 45.2626 35.7025C44.8961 35.5726 44.5626 35.3805 44.2814 35.1374C44.6674 35.2068 45.0357 35.337 45.3682 35.5218C45.7348 35.6518 46.0682 35.8439 46.3494 36.087V36.087Z" fill="black"/>
</g>
<g opacity="0.4">
<path opacity="0.4" d="M51.5766 34.553C51.2537 34.6777 50.9044 34.7419 50.5514 34.7413C50.2063 34.8068 49.8492 34.8068 49.5042 34.7413C49.8271 34.6166 50.1763 34.5525 50.5294 34.553C50.8744 34.4875 51.2315 34.4875 51.5766 34.553V34.553Z" fill="black"/>
</g>
<g opacity="0.4">
<path opacity="0.4" d="M41.3246 60.5628C41.285 60.6089 40.8846 60.3936 40.4138 60.0861C39.943 59.7785 39.6042 59.4901 39.6438 59.4478C39.9822 59.5495 40.2924 59.7119 40.5546 59.9246C41.0166 60.2322 41.3642 60.5167 41.3246 60.5628Z" fill="black"/>
</g>
<g opacity="0.4">
<path opacity="0.4" d="M49.5042 59.3632C49.5482 59.3978 49.227 59.7669 48.6946 60.0861C48.3897 60.3015 48.0198 60.435 47.6298 60.4705C47.6034 60.4167 48.0698 60.2168 48.5626 59.9092C48.8554 59.7009 49.1708 59.5181 49.5042 59.3632Z" fill="black"/>
</g>
<g opacity="0.4">
<path opacity="0.4" d="M54.8414 60.8089C54.4735 60.7556 54.1209 60.6407 53.803 60.4705C53.4529 60.3555 53.1327 60.1803 52.8614 59.9553C53.2316 60.0031 53.5866 60.1169 53.9042 60.2898C54.2531 60.4064 54.5717 60.5829 54.8414 60.8089Z" fill="black"/>
</g>
<path d="M74.0781 69.4365C73.9668 69.4588 73.8534 69.4717 73.7393 69.475C73.5149 69.475 73.1849 69.5134 72.7625 69.5365C71.9133 69.5788 70.6813 69.6249 69.1589 69.6711C66.1141 69.7595 61.9077 69.8479 57.279 69.871C54.9558 69.871 52.7426 69.871 50.7274 69.7941C48.9177 69.726 47.1649 69.2216 45.663 68.3369C44.661 67.733 43.84 66.9273 43.2694 65.9878C43.0625 65.6445 42.9002 65.2821 42.7854 64.9074C42.8162 64.9074 42.9438 65.2919 43.3442 65.9493C43.937 66.8589 44.7622 67.6365 45.7554 68.2216C47.2408 69.0706 48.9626 69.5504 50.7362 69.6095C52.7426 69.6826 54.9602 69.6749 57.279 69.6711C61.9253 69.648 66.1273 69.5826 69.1589 69.5327L72.7625 69.4558L73.7437 69.4327C73.8551 69.425 73.967 69.4263 74.0781 69.4365V69.4365Z" fill="#455A64"/>
</svg>
