<svg width="200" height="160" viewBox="0 0 200 160" fill="none" xmlns="http://www.w3.org/2000/svg">
<path d="M40.5497 13.7129H6.40709V92.8588H40.5497V13.7129Z" fill="#EBEBEB"/>
<path d="M38.8337 16.0082H7.77188V90.5008H38.8337V16.0082Z" fill="#FAFAFA"/>
<path d="M38.8337 16.8851L7.77188 67.8719V16.0082H38.8337V16.8851Z" fill="#F5F5F5"/>
<path d="M39.5076 37.4361H7.77188V38.2282H39.5076V37.4361Z" fill="#EBEBEB"/>
<path d="M39.5076 55.1759H7.77188V55.968H39.5076V55.1759Z" fill="#EBEBEB"/>
<path d="M39.5076 72.9157H7.77188V73.7079H39.5076V72.9157Z" fill="#EBEBEB"/>
<path d="M22.5191 37.8303L22.5191 92.6083H24.0894L24.0894 37.8303H22.5191Z" fill="#EBEBEB"/>
<path d="M14.4645 16.0082H13.7536V37.8339H14.4645V16.0082Z" fill="#EBEBEB"/>
<path d="M20.5975 16.0082H19.8866V37.8339H20.5975V16.0082Z" fill="#EBEBEB"/>
<path d="M26.7276 16.0082H26.0167V37.8339H26.7276V16.0082Z" fill="#EBEBEB"/>
<path d="M32.8606 16.0082H32.1497V37.8339H32.8606V16.0082Z" fill="#EBEBEB"/>
<path d="M6.40995 12.3681H4.96521V93.3451H6.40995V12.3681Z" fill="#F5F5F5"/>
<path d="M41.9944 93.5698L40.5497 92.8588V12.3681H41.9944V93.5698Z" fill="#E0E0E0"/>
<path d="M41.9973 11.5539H4.96521V13.7129H41.9973V11.5539Z" fill="#E0E0E0"/>
<path d="M42.9738 93.8351H3.94019V95.8468H42.9738V93.8351Z" fill="#E0E0E0"/>
<path d="M40.5497 92.8588L42.9709 93.8351H3.94019L6.4071 92.8588H40.5497Z" fill="#EBEBEB"/>
<path d="M187.419 63.0492C187.419 63.0492 185.003 62.8245 185.226 69.8099C185.449 76.7953 186.003 80.5164 186.003 80.5164C186.003 80.5164 185.931 82.0675 185.001 81.7617C184.07 81.4559 182.322 79.949 181.457 81.0764C180.592 82.2038 180.886 84.0238 182.068 86.1497C183.25 88.2755 185.729 93.0098 185.951 93.4409C186.174 93.8719 186.257 94.6567 185.597 94.5793C184.938 94.502 180.492 92.5567 179.901 95.3346C179.31 98.1126 183.373 103.296 183.807 103.871C184.241 104.446 184.267 104.814 184.093 105.164C183.918 105.514 182.468 104.678 181.186 104.192C179.904 103.705 178.351 103.429 178.114 105.068C177.877 106.708 179.667 111.509 186.363 116.552L189.583 118.627L192.633 116.118C198.914 110.223 200.307 105.231 199.948 103.628C199.588 102.025 198.06 102.501 196.821 103.149C195.582 103.797 194.209 104.818 194.006 104.494C193.803 104.17 193.797 103.801 194.186 103.171C194.574 102.541 198.212 96.8636 197.409 94.174C196.607 91.4845 192.336 93.9972 191.699 94.1556C191.062 94.3141 191.074 93.5182 191.259 93.0688C191.445 92.6193 193.543 87.5681 194.557 85.3133C195.571 83.0586 195.753 81.2348 194.771 80.1885C193.789 79.1422 192.201 80.9032 191.299 81.3269C190.397 81.7506 190.208 80.2217 190.208 80.2217C190.208 80.2217 190.468 76.4489 190.149 69.4672C189.829 62.4855 187.373 63.0492 187.373 63.0492" fill="#EBEBEB"/>
<path d="M187.607 69.3051C187.61 69.3542 187.61 69.4034 187.607 69.4525L187.633 69.8799C187.653 70.2483 187.682 70.8194 187.719 71.5304C187.793 72.9636 187.89 75.0379 188.004 77.5984C188.224 82.727 188.484 89.8119 188.747 97.6373C189.009 105.463 189.258 112.555 189.455 117.68C189.558 120.24 189.637 122.311 189.695 123.752C189.723 124.466 189.743 125.019 189.757 125.406C189.757 125.586 189.757 125.73 189.757 125.833C189.759 125.882 189.759 125.931 189.757 125.981C189.757 125.981 189.757 125.933 189.757 125.833C189.757 125.734 189.757 125.59 189.732 125.406C189.712 125.037 189.68 124.466 189.643 123.755C189.569 122.326 189.475 120.251 189.358 117.687C189.135 112.559 188.878 105.474 188.612 97.6447C188.347 89.8155 188.104 82.7343 187.904 77.6058C187.804 75.0489 187.722 72.9747 187.667 71.5341C187.639 70.823 187.616 70.2667 187.602 69.8835C187.602 69.6993 187.602 69.5556 187.602 69.4525C187.602 69.3493 187.607 69.3051 187.607 69.3051Z" fill="#E0E0E0"/>
<path d="M183.839 83.3128C183.911 83.374 183.978 83.4457 184.038 83.5265C184.164 83.6739 184.324 83.8949 184.549 84.1602C184.975 84.7055 185.549 85.4755 186.166 86.3413C186.782 87.2071 187.308 87.9661 187.742 88.5519L188.221 89.2224C188.285 89.2986 188.341 89.3839 188.39 89.4766C188.39 89.4766 188.31 89.4103 188.187 89.2666C188.064 89.1229 187.901 88.8982 187.679 88.6292C187.256 88.0803 186.694 87.2992 186.074 86.4187L184.489 84.2081C184.298 83.9465 184.138 83.7218 184.007 83.5375C183.944 83.471 183.888 83.3956 183.839 83.3128V83.3128Z" fill="#E0E0E0"/>
<path d="M188.707 89.355C188.684 89.3255 189.863 87.7339 191.339 85.7997C192.815 83.8654 194.034 82.3254 194.057 82.3586C194.08 82.3917 192.915 83.9796 191.428 85.9139C189.94 87.8481 188.732 89.3882 188.707 89.355Z" fill="#E0E0E0"/>
<path d="M188.695 101.399C188.764 101.328 188.839 101.266 188.918 101.215L189.549 100.758C190.08 100.389 190.814 99.8368 191.605 99.2105C192.396 98.5842 193.101 97.9873 193.603 97.5489L194.203 97.0294C194.273 96.9574 194.351 96.8991 194.434 96.8562C194.372 96.9395 194.305 97.0148 194.231 97.081C194.097 97.2173 193.9 97.4089 193.66 97.641C193.166 98.1015 192.47 98.7168 191.662 99.3468C190.854 99.9768 190.126 100.496 189.583 100.857C189.298 101.038 189.089 101.178 188.932 101.27C188.858 101.325 188.778 101.369 188.695 101.399V101.399Z" fill="#E0E0E0"/>
<path d="M183.359 97.1731C183.437 97.2082 183.511 97.2539 183.582 97.3094C183.721 97.4052 183.921 97.5489 184.153 97.7257C184.644 98.0942 185.318 98.5916 186.057 99.1589C186.797 99.7263 187.462 100.264 187.941 100.633C188.181 100.828 188.373 100.983 188.512 101.097C188.585 101.147 188.651 101.211 188.709 101.285C188.631 101.251 188.557 101.205 188.487 101.148C188.347 101.053 188.147 100.909 187.916 100.732C187.428 100.364 186.754 99.8663 186.014 99.2989C185.275 98.7315 184.609 98.1936 184.13 97.8252C183.89 97.6336 183.699 97.4752 183.559 97.361C183.419 97.2468 183.353 97.1952 183.359 97.1731Z" fill="#E0E0E0"/>
<path d="M182.3 107.817C182.4 107.86 182.496 107.92 182.585 107.994L183.336 108.528C183.967 108.981 184.832 109.633 185.786 110.337C186.739 111.041 187.599 111.711 188.218 112.179L188.946 112.758C189.04 112.822 189.127 112.9 189.206 112.99C189.107 112.942 189.012 112.882 188.921 112.813L188.17 112.279C187.542 111.822 186.674 111.173 185.72 110.466C184.766 109.759 183.907 109.095 183.29 108.624L182.559 108.045C182.468 107.978 182.381 107.902 182.3 107.817Z" fill="#E0E0E0"/>
<path d="M189.066 112.817C189.154 112.722 189.25 112.64 189.352 112.573L190.134 111.958C190.797 111.439 191.707 110.717 192.704 109.884C193.7 109.051 194.574 108.274 195.208 107.703L195.962 107.029C196.05 106.937 196.146 106.86 196.247 106.796C196.167 106.898 196.081 106.991 195.99 107.076C195.819 107.25 195.571 107.496 195.259 107.795C194.637 108.388 193.763 109.188 192.77 110.005C191.776 110.823 190.859 111.545 190.2 112.039C189.863 112.286 189.589 112.481 189.395 112.614C189.29 112.693 189.18 112.761 189.066 112.817V112.817Z" fill="#E0E0E0"/>
<path d="M193.906 119.99H184.995L187.904 148.396H190.999L193.906 119.99Z" fill="#E0E0E0"/>
<path d="M185.457 123.479C185.457 123.479 185.457 123.519 185.506 123.582C185.564 123.669 185.638 123.737 185.72 123.781C185.876 123.85 186.041 123.873 186.205 123.846C186.368 123.82 186.525 123.746 186.662 123.63C187.022 123.376 187.336 122.871 187.804 122.65C188.338 122.428 188.914 122.442 189.44 122.69C189.978 122.926 190.491 123.247 190.968 123.645C191.365 123.967 191.779 124.254 192.207 124.503C192.499 124.672 192.807 124.787 193.124 124.846C193.21 124.862 193.297 124.87 193.383 124.868C193.441 124.868 193.472 124.868 193.472 124.868C193.049 124.784 192.638 124.624 192.25 124.393C191.832 124.129 191.427 123.834 191.037 123.508C190.554 123.096 190.033 122.766 189.486 122.525C188.928 122.264 188.318 122.255 187.756 122.499C187.518 122.623 187.298 122.799 187.105 123.018C186.943 123.202 186.773 123.372 186.594 123.527C186.47 123.637 186.33 123.711 186.182 123.745C186.034 123.779 185.883 123.771 185.737 123.722C185.632 123.666 185.537 123.583 185.457 123.479V123.479Z" fill="#F5F5F5"/>
<path d="M185.783 128.714C185.783 128.714 185.854 128.596 185.994 128.409C186.195 128.149 186.438 127.95 186.705 127.826C187.102 127.64 187.523 127.558 187.944 127.583C188.465 127.635 188.982 127.726 189.495 127.856C190.018 127.987 190.553 128.016 191.082 127.941C191.515 127.869 191.936 127.713 192.333 127.48C192.599 127.326 192.851 127.133 193.084 126.905C193.173 126.829 193.253 126.736 193.321 126.629C192.992 126.908 192.647 127.154 192.29 127.366C191.9 127.577 191.488 127.716 191.068 127.778C190.55 127.839 190.028 127.805 189.518 127.679C188.999 127.547 188.475 127.46 187.947 127.417C187.51 127.4 187.074 127.499 186.668 127.708C186.393 127.851 186.147 128.076 185.951 128.364C185.9 128.444 185.855 128.531 185.817 128.622C185.802 128.65 185.79 128.681 185.783 128.714Z" fill="#F5F5F5"/>
<path d="M192.898 131.514C192.825 131.439 192.742 131.383 192.653 131.349C192.415 131.236 192.166 131.167 191.913 131.146C191.54 131.115 191.165 131.143 190.797 131.227C190.383 131.315 189.94 131.463 189.469 131.595C189.034 131.726 188.588 131.79 188.141 131.787C187.779 131.775 187.421 131.675 187.088 131.492C186.783 131.31 186.511 131.05 186.288 130.726C186.322 130.838 186.374 130.939 186.44 131.024C186.608 131.272 186.814 131.473 187.045 131.614C187.387 131.822 187.758 131.94 188.136 131.96C188.594 131.974 189.052 131.912 189.498 131.776C189.972 131.647 190.414 131.496 190.82 131.407C191.178 131.318 191.543 131.279 191.907 131.29C192.244 131.311 192.576 131.386 192.898 131.514Z" fill="#F5F5F5"/>
<path d="M186.571 135.453C186.841 135.303 187.14 135.265 187.428 135.342C187.741 135.441 188.045 135.587 188.333 135.777C188.702 136.007 189.101 136.148 189.509 136.193C190.254 136.28 191 136.057 191.639 135.556C191.831 135.406 192.009 135.23 192.17 135.029C192.279 134.882 192.333 134.797 192.327 134.786C192.091 135.023 191.844 135.242 191.588 135.442C190.957 135.89 190.238 136.087 189.52 136.005C188.678 135.946 188.03 135.294 187.445 135.21C187.22 135.159 186.989 135.184 186.774 135.283C186.631 135.361 186.565 135.445 186.571 135.453Z" fill="#F5F5F5"/>
<path d="M187.068 140.906C187.323 140.914 187.577 140.848 187.81 140.714C188.258 140.522 188.812 140.08 189.46 139.749C189.761 139.59 190.081 139.502 190.405 139.491C190.669 139.491 190.93 139.568 191.168 139.716C191.384 139.865 191.572 140.074 191.719 140.327C191.707 140.239 191.677 140.157 191.633 140.088C191.527 139.884 191.384 139.716 191.216 139.598C190.968 139.424 190.691 139.328 190.408 139.318C190.066 139.318 189.726 139.405 189.409 139.572C188.738 139.918 188.201 140.375 187.773 140.592C187.345 140.81 187.065 140.876 187.068 140.906Z" fill="#F5F5F5"/>
<path d="M187.505 143.444C187.685 143.557 187.878 143.636 188.076 143.68C188.54 143.825 189.011 143.927 189.486 143.986C189.96 144.047 190.437 144.065 190.914 144.041C191.112 144.049 191.311 144.018 191.502 143.949C191.502 143.894 190.6 143.949 189.503 143.798C188.407 143.647 187.516 143.389 187.505 143.444Z" fill="#F5F5F5"/>
<path d="M188.849 16.9661H161.337V40.3098H188.849V16.9661Z" fill="#E0E0E0"/>
<path d="M187.879 17.9204H162.293V39.2635H187.879V17.9204Z" fill="#FAFAFA"/>
<path d="M179.259 25.7016H170.913V31.5744H179.259V25.7016Z" fill="#E0E0E0"/>
<path d="M196.581 148.772C196.581 148.827 152.571 148.867 98.2964 148.867C44.0217 148.867 0 148.827 0 148.772C0 148.716 44.0017 148.676 98.2964 148.676C152.591 148.676 196.581 148.72 196.581 148.772Z" fill="#263238"/>
<path d="M74.0499 0H132.967V72.4073C132.967 73.9922 132.479 75.5122 131.611 76.6329C130.742 77.7536 129.564 78.3832 128.336 78.3832H74.0499V0Z" fill="#EBEBEB"/>
<path d="M128.102 23.3289C128.102 23.4874 117.455 23.6163 104.321 23.6163C91.1869 23.6163 80.5341 23.4874 80.5341 23.3289C80.5341 23.1705 91.1812 23.0416 104.321 23.0416C117.461 23.0416 128.102 23.1705 128.102 23.3289Z" fill="#455A64"/>
<path d="M104.601 28.6453C104.601 28.8038 99.3414 28.9327 92.8515 28.9327C86.3616 28.9327 81.0994 28.8038 81.0994 28.6453C81.0994 28.4869 86.3616 28.358 92.8515 28.358C99.3414 28.358 104.601 28.4796 104.601 28.6453Z" fill="#455A64"/>
<path d="M113.994 28.148C113.994 28.3064 112.601 28.4353 110.882 28.4353C109.163 28.4353 107.77 28.3064 107.77 28.148C107.77 27.9895 109.163 27.8606 110.882 27.8606C112.601 27.8606 113.994 27.9895 113.994 28.148Z" fill="#455A64"/>
<path d="M129.372 27.8201C129.372 27.9785 126.614 28.1074 123.211 28.1074C119.808 28.1074 117.049 27.9785 117.049 27.8201C117.049 27.6616 119.808 27.5327 123.211 27.5327C126.614 27.5327 129.372 27.6616 129.372 27.8201Z" fill="#455A64"/>
<path d="M102.639 33.7186C102.639 33.8807 97.6911 34.0096 91.5866 34.0096C85.4822 34.0096 80.5341 33.8807 80.5341 33.7186C80.5341 33.5565 85.4822 33.4312 91.5866 33.4312C97.6911 33.4312 102.639 33.5602 102.639 33.7186Z" fill="#455A64"/>
<path d="M129.372 33.5749C129.372 33.7334 123.97 33.8623 117.306 33.8623C110.642 33.8623 105.237 33.7334 105.237 33.5749C105.237 33.4165 110.639 33.2876 117.306 33.2876C123.973 33.2876 129.372 33.4128 129.372 33.5749Z" fill="#455A64"/>
<path d="M129.372 38.6887C129.372 38.8471 126.968 38.9761 123.999 38.9761C121.03 38.9761 118.625 38.8471 118.625 38.6887C118.625 38.5303 121.032 38.3976 123.999 38.3976C126.966 38.3976 129.372 38.5266 129.372 38.6887Z" fill="#455A64"/>
<path d="M107.142 17.6367C107.142 17.7951 101.311 17.9241 94.1221 17.9241C86.9326 17.9241 81.0994 17.7951 81.0994 17.6367C81.0994 17.4783 86.9298 17.3493 94.1221 17.3493C101.314 17.3493 107.142 17.4783 107.142 17.6367Z" fill="#FF725E"/>
<path d="M143.366 43.9057H29.2916C26.9941 43.9057 25.1316 46.309 25.1316 49.2737V142.976C25.1316 145.941 26.9941 148.344 29.2916 148.344H143.366C145.663 148.344 147.526 145.941 147.526 142.976V49.2737C147.526 46.309 145.663 43.9057 143.366 43.9057Z" fill="#263238"/>
<path d="M20.1835 140.618H152.785V143.197C152.785 144.936 152.25 146.605 151.297 147.834C150.344 149.064 149.051 149.755 147.703 149.755H25.2658C23.9179 149.755 22.6252 149.064 21.6721 147.834C20.7189 146.605 20.1835 144.936 20.1835 143.197V140.618Z" fill="#263238"/>
<path d="M144.065 48.0542H28.5864V136.252H144.065V48.0542Z" fill="#455A64"/>
<path d="M74.4325 140.618H74.9493H76.4569L82.0502 140.589L100.76 140.537H100.897L100.829 140.692L100.087 142.335L99.3014 144.07L99.2786 144.122H99.2329L76.0771 144.067H76.0571V144.045L74.8437 141.499L74.5382 140.854L74.4411 140.64C74.4411 140.64 74.4839 140.718 74.5553 140.865L74.8808 141.51C75.1663 142.081 75.5774 142.914 76.1171 143.993L76.0857 143.971L99.2414 143.916L99.1729 143.967L99.9581 142.232L100.7 140.589L100.769 140.743L82.1359 140.692L76.5054 140.648H74.975H74.5724L74.4325 140.618Z" fill="#455A64"/>
<path d="M147.523 140.618C147.523 140.673 120.113 140.714 86.3302 140.714C52.5473 140.714 25.1316 140.673 25.1316 140.618C25.1316 140.563 52.5245 140.522 86.3302 140.522C120.136 140.522 147.523 140.567 147.523 140.618Z" fill="#455A64"/>
<path d="M116.278 30.4396C117.187 30.4396 118.059 30.9054 118.701 31.7345C119.344 32.5636 119.705 33.6882 119.705 34.8607V43.913H109.483V35.5534C109.483 34.8817 109.585 34.2165 109.784 33.5958C109.983 32.9752 110.275 32.4112 110.643 31.9363C111.011 31.4613 111.448 31.0847 111.929 30.8279C112.41 30.571 112.926 30.4391 113.446 30.4396H116.278Z" fill="#263238"/>
<path d="M116.278 30.4396C116.278 30.4948 106.634 30.5243 94.7359 30.5132C82.8383 30.5022 73.1934 30.4432 73.1934 30.3917C73.1934 30.3401 82.8354 30.3069 94.7359 30.318C106.636 30.329 116.278 30.388 116.278 30.4396Z" fill="#263238"/>
<path d="M116.199 30.4285L111.933 30.3917L105.74 30.4396H60.245C58.3897 30.4396 56.6104 31.3906 55.2986 33.0834C53.9867 34.7762 53.2497 37.0721 53.2497 39.4661V136.462H112.17V35.3876C112.344 30.4396 116.199 30.4285 116.199 30.4285Z" fill="#FAFAFA"/>
<path d="M116.199 30.4285L80.6712 30.528H62.9089H60.6875C60.3163 30.528 59.9509 30.528 59.5854 30.5685C59.2222 30.6183 58.8624 30.7033 58.509 30.8227C57.4425 31.1777 56.4578 31.8584 55.6379 32.8074C54.8179 33.7564 54.1869 34.9458 53.7979 36.2755C53.7408 36.5002 53.6609 36.7139 53.6209 36.9423L53.4867 37.6276C53.417 38.0908 53.3741 38.56 53.3582 39.0313C53.3268 40.9287 53.3582 42.8483 53.3582 44.7567L53.4067 136.44L53.264 136.256L112.184 136.308L112.081 136.44L112.11 81.9128L112.144 54.649L112.164 41.0172V37.6092V35.9034C112.156 35.6192 112.164 35.3347 112.19 35.0523C112.205 34.7687 112.24 34.4875 112.295 34.2123C112.479 33.0862 112.99 32.0936 113.723 31.438C114.085 31.1124 114.485 30.8637 114.908 30.7012C115.327 30.538 115.761 30.4464 116.199 30.4285V30.4285ZM116.199 30.4285C115.758 30.4536 115.322 30.554 114.902 30.7269C114.48 30.8897 114.081 31.1385 113.72 31.4638C112.992 32.1199 112.487 33.1117 112.31 34.2344C112.255 34.5084 112.221 34.7884 112.207 35.0707C112.184 35.3533 112.176 35.6378 112.184 35.9218V41.0319L112.207 54.6638L112.241 81.9275L112.267 136.455V136.595H112.161L53.2411 136.643H53.1012V136.459L53.1469 44.7751C53.1469 42.863 53.1469 40.9582 53.1669 39.0387C53.1835 38.555 53.2274 38.0736 53.2982 37.5981L53.441 36.8981C53.481 36.6623 53.5638 36.4413 53.6209 36.2128C54.0211 34.8498 54.6694 33.6308 55.5112 32.6588C56.353 31.6867 57.3635 30.99 58.4576 30.6275C58.8205 30.5064 59.1898 30.4202 59.5626 30.3696C59.9366 30.3438 60.3106 30.318 60.679 30.329H62.9003H80.6626L116.199 30.4285Z" fill="#263238"/>
<path d="M62.1266 47.8921H72.4053L72.4224 52.3353H71.9285C71.7686 50.7462 71.308 49.6703 70.5466 49.1079C69.9458 48.7507 69.2891 48.5779 68.6279 48.6031V60.2086C68.6279 61.0229 68.7364 61.5608 68.9562 61.826C69.1761 62.0913 69.6329 62.2239 70.3296 62.2239V62.7839H64.2451V62.2239C64.9104 62.2239 65.3558 62.0876 65.5728 61.8187C65.7898 61.5497 65.904 61.0155 65.904 60.2086V48.6031C65.2431 48.5828 64.5872 48.7553 63.9853 49.1079C63.1687 49.6863 62.7062 50.7584 62.6005 52.3353H62.1094L62.1266 47.8921Z" fill="#FF725E"/>
<path d="M104.084 48.9089C104.084 49.0673 98.4134 49.1963 91.4182 49.1963C84.4229 49.1963 78.7525 49.0673 78.7525 48.9089C78.7525 48.7505 84.4229 48.6216 91.4182 48.6216C98.4134 48.6216 104.084 48.7358 104.084 48.9089Z" fill="#FF725E"/>
<path d="M89.0541 54.1185C89.0541 54.2769 86.8613 54.4059 84.1574 54.4059C81.4535 54.4059 79.2607 54.2769 79.2607 54.1185C79.2607 53.9601 81.4535 53.8275 84.1574 53.8275C86.8613 53.8275 89.0541 53.9564 89.0541 54.1185Z" fill="#455A64"/>
<path d="M76.7081 70.0494C76.7081 70.2078 72.5452 70.3367 67.4087 70.3367C62.2722 70.3367 58.1064 70.2078 58.1064 70.0494C58.1064 69.8909 62.2693 69.762 67.4087 69.762C72.5481 69.762 76.7081 69.9094 76.7081 70.0494Z" fill="#455A64"/>
<path d="M97.7739 70.0494C97.7739 70.2078 93.6081 70.3367 88.4744 70.3367C83.3408 70.3367 79.1722 70.2078 79.1722 70.0494C79.1722 69.8909 83.3351 69.762 88.4744 69.762C93.6138 69.762 97.7739 69.9094 97.7739 70.0494Z" fill="#FF725E"/>
<path d="M76.7081 74.3047C76.7081 74.4631 72.5452 74.5921 67.4087 74.5921C62.2722 74.5921 58.1064 74.4631 58.1064 74.3047C58.1064 74.1463 62.2693 74.0173 67.4087 74.0173C72.5481 74.0173 76.7081 74.1463 76.7081 74.3047Z" fill="#455A64"/>
<path d="M76.7081 78.56C76.7081 78.7185 72.5452 78.8474 67.4087 78.8474C62.2722 78.8474 58.1064 78.7185 58.1064 78.56C58.1064 78.4016 62.2693 78.269 67.4087 78.269C72.5481 78.269 76.7081 78.3832 76.7081 78.56Z" fill="#FF725E"/>
<path d="M89.0541 62.784C89.0541 62.9424 86.8613 63.0713 84.1574 63.0713C81.4535 63.0713 79.2607 62.9424 79.2607 62.784C79.2607 62.6255 81.4535 62.4966 84.1574 62.4966C86.8613 62.4966 89.0541 62.6255 89.0541 62.784Z" fill="#455A64"/>
<path d="M106.043 70.0494C106.043 70.2078 104.581 70.3367 102.779 70.3367C100.977 70.3367 99.5127 70.2078 99.5127 70.0494C99.5127 69.8909 100.975 69.762 102.779 69.762C104.584 69.762 106.043 69.9094 106.043 70.0494Z" fill="#455A64"/>
<path d="M107.79 54.1185C107.79 54.2769 104.027 54.4059 99.3871 54.4059C94.7473 54.4059 90.9842 54.2769 90.9842 54.1185C90.9842 53.9601 94.7445 53.8275 99.3871 53.8275C104.03 53.8275 107.79 53.9564 107.79 54.1185Z" fill="#455A64"/>
<path d="M107.03 58.267C107.03 58.4254 100.815 58.5544 93.1456 58.5544C85.4765 58.5544 79.2607 58.4254 79.2607 58.267C79.2607 58.1086 85.4765 57.9796 93.1456 57.9796C100.815 57.9796 107.03 58.1196 107.03 58.267Z" fill="#455A64"/>
<path d="M106.043 74.3047C106.043 74.4631 100.027 74.5921 92.6231 74.5921C85.2195 74.5921 79.1864 74.4631 79.1864 74.3047C79.1864 74.1463 85.1995 74.0173 92.6231 74.0173C100.047 74.0173 106.043 74.1463 106.043 74.3047Z" fill="#455A64"/>
<path d="M106.043 86.6213C106.043 86.7797 100.398 86.9087 93.4368 86.9087C86.4758 86.9087 80.8282 86.7797 80.8282 86.6213C80.8282 86.4628 86.4729 86.3339 93.4368 86.3339C100.401 86.3339 106.043 86.4628 106.043 86.6213Z" fill="#FF725E"/>
<path d="M106.043 90.7624C106.043 90.9209 100.398 91.0498 93.4368 91.0498C86.4758 91.0498 80.8282 90.9209 80.8282 90.7624C80.8282 90.604 86.4729 90.4751 93.4368 90.4751C100.401 90.4751 106.043 90.604 106.043 90.7624Z" fill="#455A64"/>
<path d="M106.043 94.9036C106.043 95.062 100.398 95.1909 93.4368 95.1909C86.4758 95.1909 80.8282 95.062 80.8282 94.9036C80.8282 94.7451 86.4729 94.6162 93.4368 94.6162C100.401 94.6162 106.043 94.7451 106.043 94.9036Z" fill="#455A64"/>
<path d="M106.043 99.0447C106.043 99.2031 100.398 99.3321 93.4368 99.3321C86.4758 99.3321 80.8282 99.2031 80.8282 99.0447C80.8282 98.8863 86.4729 98.7573 93.4368 98.7573C100.401 98.7573 106.043 98.8863 106.043 99.0447Z" fill="#455A64"/>
<path d="M95.3441 103.186C95.3441 103.263 94.5304 103.337 93.217 103.389C91.9036 103.44 90.0762 103.473 88.0776 103.473C86.0789 103.473 84.2573 103.44 82.9382 103.389C81.6191 103.337 80.8139 103.263 80.8139 103.186C80.8139 103.109 81.6248 103.035 82.9382 102.983C84.2516 102.932 86.0789 102.898 88.0776 102.898C90.0762 102.898 91.895 102.932 93.217 102.983C94.5389 103.035 95.3441 103.105 95.3441 103.186Z" fill="#455A64"/>
<path d="M101.474 78.7811C101.474 78.9395 96.6204 79.0685 90.6244 79.0685C84.6285 79.0685 79.7746 78.9395 79.7746 78.7811C79.7746 78.6227 84.6285 78.4937 90.6244 78.4937C96.6204 78.4937 101.474 78.6227 101.474 78.7811Z" fill="#455A64"/>
<path d="M76.2684 87.0892L77.6075 119.054L53.3867 122.967L53.3668 86.8166L76.2684 87.0892Z" fill="#E0E0E0"/>
<path d="M44.9084 84.8744L44.7387 118.784L77.6072 119.058L77.7769 85.1483L44.9084 84.8744Z" fill="#F5F5F5"/>
<path d="M46.0311 87.0209L45.8828 116.66L76.4415 116.915L76.5898 87.2755L46.0311 87.0209Z" fill="#FF725E"/>
<g opacity="0.2">
<path opacity="0.2" d="M45.8804 116.656L56.6474 98.3226L63.2001 109.902L67.7171 103.779L76.4426 116.91L45.8804 116.656Z" fill="black"/>
</g>
<g opacity="0.2">
<path opacity="0.2" d="M66.0753 96.1415C66.0725 96.7559 65.9285 97.3555 65.6615 97.8642C65.3946 98.373 65.0167 98.7682 64.5756 98.9998C64.1346 99.2314 63.6502 99.289 63.1838 99.1652C62.7174 99.0415 62.2899 98.7421 61.9554 98.3048C61.6209 97.8675 61.3944 97.312 61.3046 96.7086C61.2149 96.1052 61.2658 95.481 61.451 94.9149C61.6362 94.3489 61.9474 93.8664 62.3451 93.5286C62.7429 93.1908 63.2093 93.0129 63.6855 93.0172C64.0015 93.0196 64.3139 93.1024 64.6051 93.2608C64.8962 93.4191 65.1603 93.65 65.3823 93.9401C65.6042 94.2303 65.7797 94.5741 65.8986 94.9518C66.0175 95.3295 66.0776 95.7338 66.0753 96.1415V96.1415Z" fill="black"/>
</g>
<path d="M80.7711 127.053C80.7711 127.182 80.7413 127.309 80.6854 127.417C80.6296 127.525 80.5502 127.609 80.4573 127.659C80.3645 127.708 80.2623 127.721 80.1637 127.696C80.0651 127.671 79.9746 127.608 79.9035 127.516C79.8324 127.425 79.784 127.308 79.7644 127.181C79.7448 127.053 79.7548 126.922 79.7933 126.802C79.8318 126.682 79.8969 126.579 79.9805 126.507C80.0641 126.435 80.1623 126.397 80.2628 126.397C80.3297 126.396 80.396 126.413 80.4578 126.446C80.5196 126.479 80.5758 126.527 80.6231 126.588C80.6703 126.649 80.7078 126.721 80.7332 126.801C80.7586 126.881 80.7715 126.966 80.7711 127.053V127.053Z" fill="#263238"/>
<path d="M83.789 127.053C83.789 127.182 83.7592 127.309 83.7034 127.417C83.6475 127.525 83.5682 127.609 83.4753 127.659C83.3824 127.708 83.2802 127.721 83.1817 127.696C83.0831 127.671 82.9925 127.608 82.9214 127.516C82.8504 127.425 82.802 127.308 82.7823 127.181C82.7627 127.053 82.7728 126.922 82.8113 126.802C82.8497 126.682 82.9149 126.579 82.9985 126.507C83.082 126.435 83.1803 126.397 83.2808 126.397C83.4156 126.397 83.5449 126.466 83.6402 126.589C83.7355 126.712 83.789 126.879 83.789 127.053V127.053Z" fill="#263238"/>
<path d="M86.8041 127.053C86.8041 127.182 86.7743 127.309 86.7185 127.417C86.6626 127.525 86.5833 127.609 86.4904 127.659C86.3975 127.708 86.2954 127.721 86.1968 127.696C86.0982 127.671 86.0076 127.608 85.9365 127.516C85.8655 127.425 85.8171 127.308 85.7975 127.181C85.7778 127.053 85.7879 126.922 85.8264 126.802C85.8648 126.682 85.93 126.579 86.0136 126.507C86.0971 126.435 86.1954 126.397 86.2959 126.397C86.4307 126.397 86.56 126.466 86.6553 126.589C86.7506 126.712 86.8041 126.879 86.8041 127.053V127.053Z" fill="#263238"/>
<path d="M97.9166 111.814C97.9166 111.973 93.7509 112.102 88.6143 112.102C83.4778 112.102 79.3121 111.973 79.3121 111.814C79.3121 111.656 83.4778 111.527 88.6143 111.527C93.7509 111.527 97.9166 111.656 97.9166 111.814Z" fill="#FF725E"/>
<path d="M106.185 116.07C106.185 116.228 100.169 116.357 92.7487 116.357C85.328 116.357 79.3121 116.228 79.3121 116.07C79.3121 115.911 85.328 115.782 92.7487 115.782C100.169 115.782 106.185 115.911 106.185 116.07Z" fill="#455A64"/>
<path d="M165.99 123.637L165.832 144.062L185.63 144.318L185.788 123.892L165.99 123.637Z" fill="#F5F5F5"/>
<path d="M165.982 124.456L165.892 142.31L184.299 142.463L184.389 124.609L165.982 124.456Z" fill="#FF725E"/>
<path opacity="0.2" d="M165.888 142.302L172.372 131.26L176.321 138.234L179.042 134.546L184.295 142.457L165.888 142.302Z" fill="black"/>
<g opacity="0.2">
<path opacity="0.2" d="M178.054 129.963C178.053 130.334 177.966 130.695 177.806 131.002C177.646 131.309 177.418 131.548 177.153 131.688C176.887 131.828 176.595 131.864 176.314 131.79C176.033 131.716 175.775 131.536 175.573 131.273C175.371 131.01 175.234 130.675 175.179 130.311C175.125 129.948 175.155 129.572 175.266 129.23C175.378 128.889 175.565 128.598 175.804 128.394C176.044 128.19 176.325 128.082 176.612 128.084C176.996 128.087 177.364 128.287 177.634 128.639C177.904 128.991 178.055 129.467 178.054 129.963V129.963Z" fill="black"/>
</g>
<path d="M162.403 121.028L162.301 141.454L182.099 141.619L182.201 121.193L162.403 121.028Z" fill="#F5F5F5"/>
<path d="M163.082 122.32L162.993 140.174L181.4 140.327L181.489 122.473L163.082 122.32Z" fill="#FF725E"/>
<path opacity="0.2" d="M162.984 140.169L169.468 129.127L173.417 136.101L176.138 132.413L181.392 140.323L162.984 140.169Z" fill="black"/>
<g opacity="0.2">
<path opacity="0.2" d="M175.15 127.815C175.148 128.186 175.061 128.548 174.9 128.855C174.738 129.162 174.51 129.4 174.243 129.539C173.977 129.678 173.684 129.712 173.403 129.636C173.122 129.56 172.864 129.378 172.663 129.113C172.462 128.848 172.326 128.512 172.274 128.147C172.221 127.782 172.254 127.406 172.367 127.065C172.481 126.724 172.67 126.435 172.911 126.233C173.153 126.031 173.435 125.927 173.723 125.933C174.105 125.94 174.469 126.143 174.736 126.495C175.004 126.848 175.152 127.322 175.15 127.815Z" fill="black"/>
</g>
<path d="M159.82 119.271L159.718 139.696L179.515 139.861L179.617 119.436L159.82 119.271Z" fill="#F5F5F5"/>
<path d="M160.496 120.558L160.406 138.412L178.813 138.565L178.903 120.712L160.496 120.558Z" fill="#FF725E"/>
<path opacity="0.2" d="M160.4 138.408L166.884 127.362L170.833 134.34L173.551 130.649L178.808 138.559L160.4 138.408Z" fill="black"/>
<g opacity="0.2">
<path opacity="0.2" d="M172.563 126.051C172.562 126.421 172.474 126.783 172.313 127.09C172.152 127.397 171.923 127.635 171.657 127.774C171.39 127.913 171.098 127.947 170.816 127.871C170.535 127.795 170.277 127.613 170.076 127.348C169.875 127.083 169.74 126.747 169.687 126.382C169.634 126.018 169.667 125.641 169.78 125.3C169.894 124.959 170.083 124.67 170.325 124.468C170.566 124.267 170.848 124.162 171.136 124.168C171.518 124.176 171.882 124.378 172.15 124.73C172.417 125.083 172.566 125.557 172.563 126.051Z" fill="black"/>
</g>
<path d="M157.566 121.925L157.408 142.35L177.206 142.606L177.364 122.18L157.566 121.925Z" fill="#F5F5F5"/>
<path d="M157.593 122.754L157.504 140.607L175.911 140.761L176 122.907L157.593 122.754Z" fill="#455A64"/>
<path opacity="0.2" d="M157.496 140.603L163.981 129.558L167.929 136.532L170.647 132.844L175.904 140.755L157.496 140.603Z" fill="black"/>
<g opacity="0.2">
<path opacity="0.2" d="M169.671 128.246C169.669 128.617 169.582 128.979 169.421 129.286C169.259 129.593 169.031 129.831 168.764 129.97C168.498 130.109 168.205 130.143 167.924 130.067C167.642 129.991 167.385 129.809 167.184 129.544C166.983 129.279 166.847 128.943 166.795 128.578C166.742 128.213 166.774 127.837 166.888 127.496C167.002 127.155 167.191 126.866 167.432 126.664C167.674 126.462 167.956 126.358 168.243 126.364C168.626 126.37 168.991 126.571 169.259 126.924C169.527 127.277 169.675 127.753 169.671 128.246Z" fill="black"/>
</g>
<path d="M188.136 129.053H176.706V148.775H188.136V129.053Z" fill="#263238"/>
<path d="M154.824 129.053V148.772H177.666V129.053H154.824ZM168.686 133.718H163.832C163.553 133.718 163.286 133.575 163.089 133.32C162.892 133.066 162.781 132.721 162.781 132.362C162.781 132.002 162.892 131.657 163.089 131.403C163.286 131.149 163.553 131.006 163.832 131.006H168.686C168.965 131.006 169.232 131.149 169.429 131.403C169.626 131.657 169.737 132.002 169.737 132.362C169.737 132.721 169.626 133.066 169.429 133.32C169.232 133.575 168.965 133.718 168.686 133.718Z" fill="#FF725E"/>
<path d="M139.991 146.712L118.734 145.032C118.6 144.638 118.511 144.409 118.511 144.409L112.749 144.56L110.874 144.409L110.799 144.608L91.4581 145.106C87.6008 145.106 83.5463 148.142 83.5463 152.021C83.4978 155.705 84.8854 159.721 88.3403 159.629L114.691 159.515L141.045 159.629C144.499 159.721 145.413 157.05 145.419 153.841C145.821 147.902 142.938 146.76 139.991 146.712Z" fill="#455A64"/>
<path d="M90.7586 159.633H90.8843H91.2583L92.6859 159.614L97.9909 159.585L115.693 159.555L115.619 159.655C115.582 158.918 115.545 158.111 115.505 157.308C115.425 155.665 115.348 154.044 115.273 152.518L115.339 152.607L99.0359 150.227L94.2049 149.516L92.9029 149.313L92.566 149.258C92.5283 149.254 92.491 149.245 92.4546 149.232H92.5688L92.9057 149.273L94.2106 149.438L99.0473 150.094L115.353 152.371H115.413V152.448C115.49 153.988 115.568 155.606 115.648 157.238C115.687 158.041 115.725 158.841 115.762 159.585V159.688H115.685L97.9823 159.655L92.6773 159.625H91.2497H90.8757L90.7586 159.633Z" fill="#263238"/>
<path d="M96.1921 149.877C96.175 149.903 95.9066 149.626 95.4469 149.262C94.8415 148.786 94.1908 148.415 93.511 148.156C92.83 147.906 92.1263 147.772 91.4182 147.758C90.8757 147.758 90.5388 147.803 90.5359 147.758C90.6107 147.72 90.6897 147.696 90.77 147.688C90.9846 147.646 91.2011 147.621 91.4182 147.615C92.8689 147.56 94.2968 148.089 95.504 149.129C95.6857 149.283 95.8592 149.453 96.0236 149.637C96.1378 149.788 96.1978 149.858 96.1921 149.877Z" fill="#263238"/>
<path d="M138.341 148.418C138.341 148.469 134.158 149.777 128.978 151.339C123.799 152.902 119.588 154.125 119.579 154.073C119.571 154.022 123.762 152.714 128.944 151.152C134.126 149.589 138.332 148.385 138.341 148.418Z" fill="#263238"/>
<path d="M134.797 147.887C134.223 148.15 133.672 148.491 133.153 148.904C132.664 149.371 132.216 149.908 131.819 150.503C131.883 150.281 131.98 150.077 132.105 149.903C132.66 149.005 133.414 148.346 134.266 148.016C134.436 147.933 134.616 147.889 134.797 147.887V147.887Z" fill="#263238"/>
<path d="M126.883 116.744L133.618 131.872C134.028 132.791 134.254 133.827 134.278 134.888C134.301 135.948 134.121 136.999 133.752 137.947C133.328 139.041 132.67 139.957 131.856 140.585C131.042 141.213 130.106 141.529 129.158 141.495L118.817 141.127L118.546 136.274L127.651 134.016L121.512 120.303L126.883 116.744Z" fill="#FFBE9D"/>
<path d="M101.785 142.63L111.293 145.879L111.502 142.195L102.739 135.63L109.14 120.303L103.77 116.744L97.0344 131.872C96.6518 132.788 96.4306 133.802 96.3865 134.842C96.3424 135.881 96.4764 136.921 96.779 137.885C97.0816 138.85 97.5454 139.718 98.1374 140.425C98.7293 141.132 99.4348 141.662 100.204 141.978L101.785 142.63Z" fill="#FFBE9D"/>
<path d="M124.025 126.456L130.523 122.035C129.724 119.943 128.792 117.939 127.739 116.044C125.726 112.452 122.6 109.943 119.059 108.985L111.585 109.099C110.672 109.203 109.774 109.47 108.918 109.891V109.854C104.861 111.008 100.352 122.425 100.352 122.425L106.285 126.445L106.417 127.646C106.59 129.237 107.127 130.726 107.958 131.923L106.245 146.539L125.415 147.051L122.98 136.595L124.025 126.456Z" fill="#FF725E"/>
<path d="M108.127 132.004C108.022 131.928 107.926 131.834 107.841 131.724C107.595 131.445 107.376 131.128 107.187 130.781C106.571 129.613 106.288 128.206 106.385 126.798C106.482 126.047 106.629 125.307 106.825 124.588C106.996 123.921 107.173 123.332 107.325 122.838C107.476 122.344 107.61 121.95 107.701 121.681C107.743 121.536 107.799 121.399 107.867 121.272C107.841 121.422 107.804 121.569 107.756 121.71C107.667 122.024 107.556 122.418 107.422 122.886C107.287 123.354 107.119 123.991 106.956 124.643C106.768 125.356 106.627 126.088 106.534 126.832C106.486 127.575 106.541 128.324 106.696 129.042C106.819 129.633 107.012 130.196 107.267 130.711C107.525 131.172 107.813 131.605 108.127 132.004Z" fill="#263238"/>
<path d="M105.249 150.068L104.164 133.765H127.545L125.995 150.271L105.249 150.068Z" fill="#263238"/>
<path d="M117.343 142.46C117.344 142.841 117.257 143.213 117.093 143.53C116.93 143.847 116.697 144.094 116.425 144.24C116.152 144.386 115.852 144.425 115.563 144.35C115.274 144.276 115.008 144.093 114.799 143.824C114.591 143.555 114.449 143.212 114.391 142.838C114.334 142.465 114.363 142.078 114.477 141.726C114.59 141.375 114.781 141.074 115.027 140.863C115.272 140.652 115.561 140.54 115.856 140.541C116.25 140.541 116.629 140.743 116.908 141.103C117.187 141.463 117.343 141.951 117.343 142.46Z" fill="#FAFAFA"/>
<path d="M115.445 153.252L119.416 153.966V159.537L115.765 159.415L115.445 153.252Z" fill="#FFBE9D"/>
<path d="M119.419 153.966H121.204C121.551 153.966 121.891 154.085 122.192 154.309L123.131 155.016C123.662 155.396 124.212 155.734 124.776 156.026C125.861 156.475 127.685 157.083 128.071 157.466C129.167 158.572 128.833 159.85 128.23 159.983C127.702 160.104 119.416 159.541 119.416 159.541L119.419 153.966Z" fill="#FF725E"/>
<path d="M122.346 159.069C122.207 158.608 122.142 158.116 122.155 157.621C122.116 157.124 122.159 156.622 122.28 156.147C122.309 156.63 122.317 157.115 122.303 157.599C122.34 158.088 122.354 158.578 122.346 159.069V159.069Z" fill="#263238"/>
<path d="M123.194 159.043C123.101 158.161 123.106 157.267 123.211 156.387C123.28 156.824 123.302 157.272 123.277 157.717C123.297 158.162 123.269 158.608 123.194 159.043Z" fill="#263238"/>
<path d="M124.193 159.264C124.039 158.366 123.984 157.445 124.028 156.527C124.128 156.969 124.181 157.426 124.185 157.886C124.236 158.343 124.239 158.807 124.193 159.264V159.264Z" fill="#263238"/>
<path d="M121.575 157.595C121.447 157.574 121.324 157.524 121.209 157.448C120.885 157.272 120.583 157.032 120.316 156.737C120.233 156.645 120.147 156.542 120.062 156.427C119.965 156.311 119.888 156.17 119.833 156.015C119.802 155.922 119.791 155.819 119.8 155.719C119.809 155.618 119.838 155.522 119.885 155.44C119.94 155.354 120.018 155.298 120.104 155.285C120.186 155.274 120.269 155.285 120.347 155.319C120.658 155.463 120.932 155.716 121.137 156.05C121.343 156.384 121.473 156.785 121.511 157.209C121.55 157.632 121.497 158.061 121.357 158.448C121.218 158.834 120.997 159.163 120.721 159.397C120.598 159.511 120.458 159.593 120.31 159.636C120.234 159.66 120.155 159.66 120.079 159.636C120.039 159.62 120.003 159.593 119.972 159.557C119.941 159.522 119.916 159.479 119.899 159.43C119.874 159.343 119.865 159.249 119.874 159.157C119.883 159.064 119.909 158.976 119.95 158.9C120.013 158.763 120.089 158.639 120.179 158.531C120.433 158.215 120.731 157.965 121.058 157.794C121.174 157.722 121.299 157.677 121.426 157.662C121.426 157.662 121.301 157.728 121.081 157.864C120.772 158.057 120.492 158.317 120.253 158.634C120.173 158.731 120.105 158.843 120.05 158.966C120.021 159.022 120.002 159.086 119.995 159.153C119.987 159.22 119.992 159.288 120.007 159.353C120.036 159.413 120.081 159.459 120.133 159.482C120.185 159.504 120.241 159.503 120.293 159.478C120.422 159.436 120.543 159.362 120.65 159.261C120.902 159.043 121.103 158.739 121.231 158.383C121.358 158.028 121.407 157.633 121.372 157.244C121.337 156.855 121.219 156.485 121.032 156.177C120.844 155.868 120.595 155.632 120.31 155.495C120.258 155.462 120.2 155.45 120.143 155.461C120.086 155.471 120.033 155.504 119.99 155.554C119.958 155.613 119.937 155.681 119.931 155.753C119.925 155.825 119.934 155.897 119.956 155.963C120.065 156.225 120.213 156.455 120.393 156.641C120.748 157.034 121.146 157.356 121.575 157.595V157.595Z" fill="#263238"/>
<path d="M128.23 159.979C128.321 159.876 128.395 159.751 128.447 159.611C128.5 159.419 128.516 159.214 128.496 159.013C128.475 158.811 128.419 158.618 128.33 158.45C128.073 157.935 127.683 157.555 127.228 157.378C126.723 157.142 126.123 157.032 125.515 156.785C124.476 156.383 123.484 155.8 122.566 155.053C122.217 154.766 121.946 154.508 121.763 154.316C121.664 154.228 121.573 154.124 121.492 154.007C121.6 154.077 121.702 154.159 121.798 154.254C121.989 154.42 122.266 154.659 122.623 154.932C123.546 155.638 124.531 156.197 125.558 156.597C126.155 156.836 126.751 156.965 127.271 157.205C127.75 157.405 128.155 157.823 128.413 158.38C128.503 158.567 128.557 158.779 128.57 158.998C128.583 159.218 128.555 159.438 128.487 159.64C128.442 159.744 128.38 159.833 128.305 159.902C128.27 159.968 128.233 159.987 128.23 159.979Z" fill="#263238"/>
<path d="M125.527 112.99C125.53 113.017 125.53 113.044 125.527 113.071V113.299C125.512 113.513 125.489 113.811 125.464 114.191C125.401 114.983 125.312 116.114 125.204 117.536V117.621L125.144 117.58L121.678 115.226L121.761 115.197L119.887 119.279L119.848 119.364L119.785 119.305L116.644 116.184H116.735L115.362 117.573L113.489 119.463L113.42 119.533L113.38 119.434L111.596 115.178L111.684 115.215L107.904 117.389L107.833 117.429V117.333L107.262 112.993L107.319 113.038L105.143 114.121L104.572 114.393L104.424 114.463L104.372 114.482C104.372 114.482 104.387 114.482 104.418 114.449L104.564 114.368L105.135 114.066L107.285 112.96L107.333 112.938V113.004C107.502 114.213 107.701 115.668 107.933 117.337L107.853 117.282L111.625 115.071L111.684 115.038L111.716 115.108C112.287 116.457 112.881 117.879 113.506 119.364L113.395 119.334L115.268 117.44L116.641 116.051L116.687 116.007L116.732 116.051L119.873 119.179L119.77 119.205L121.658 115.152L121.686 115.09L121.738 115.123L125.164 117.503L125.098 117.547L125.401 114.209C125.438 113.841 125.467 113.535 125.487 113.321C125.487 113.229 125.507 113.156 125.512 113.093C125.515 113.058 125.52 113.024 125.527 112.99V112.99Z" fill="#F5F5F5"/>
<path d="M128.302 117.094C128.3 117.13 128.295 117.166 128.288 117.201C128.27 117.282 128.25 117.385 128.228 117.514C128.168 117.798 128.088 118.203 127.982 118.719C127.762 119.78 127.442 121.298 127.048 123.203L127.031 123.276L126.98 123.243L122.951 120.753L123.031 120.723C122 122.617 120.858 124.721 119.639 126.968L119.588 127.06L119.528 126.979L116.279 122.713L115.593 121.817H115.685L111.293 125.373L111.23 125.424L111.193 125.343L108.824 119.942L108.898 119.979L104.381 121.987L104.338 122.005L104.324 121.95C103.895 120.351 103.556 119.08 103.322 118.199C103.21 117.772 103.122 117.437 103.062 117.201C103.033 117.094 103.013 117.009 102.996 116.943C102.987 116.915 102.981 116.885 102.979 116.855C102.992 116.881 103.001 116.909 103.007 116.939L103.085 117.19C103.15 117.426 103.244 117.754 103.37 118.177C103.613 119.054 103.967 120.318 104.412 121.913L104.355 121.876L108.855 119.839L108.903 119.817L108.929 119.876L111.313 125.262L111.213 125.229L115.605 121.666L115.653 121.626L115.696 121.681C115.923 121.981 116.151 122.279 116.381 122.576L119.639 126.846H119.528L122.937 120.616L122.965 120.561L123.014 120.59L127.028 123.118L126.963 123.158L127.939 118.689L128.208 117.492C128.239 117.367 128.262 117.264 128.282 117.186C128.286 117.155 128.292 117.124 128.302 117.094V117.094Z" fill="#F5F5F5"/>
<path d="M125.415 91.3924C124.842 91.4698 124.263 91.3943 123.714 91.1706C123.165 90.9468 122.658 90.5797 122.223 90.0919C123.262 90.7698 124.647 89.8377 125.015 88.4118C125.384 86.986 125.081 84.3297 124.173 83.3865C123.737 82.9387 123.227 82.6273 122.682 82.4764C122.137 82.3256 121.572 82.3395 121.032 82.517C119.962 82.8854 118.828 84.9891 118.477 86.345L118.497 86.3855C118.334 86.3008 118.166 86.2234 118 86.1497C116.815 85.6093 115.553 85.4118 114.303 85.5713C113.049 85.7389 111.867 86.4103 110.925 87.4908L118.186 102.548C119.505 102.401 120.673 101.252 121.364 99.7963C122.055 98.341 122.32 96.6057 122.386 94.8999C122.403 94.4688 122.4 94.0378 122.386 93.6067L124.718 94.0893C124.3 93.3643 123.773 92.7554 123.168 92.2988C123.568 92.4836 124.004 92.4952 124.409 92.3316C124.815 92.1681 125.168 91.8383 125.415 91.3924V91.3924Z" fill="#263238"/>
<path d="M116.244 114.762C117.192 114.736 118.095 114.236 118.762 113.367C119.429 112.498 119.808 111.328 119.819 110.105L119.987 91.3704C119.996 90.9963 119.894 90.632 119.702 90.3515C119.51 90.071 119.243 89.8952 118.954 89.8598L112.821 87.8592C110.854 87.594 109.552 90.7109 109.426 93.253C109.289 96.0789 109.206 99.5347 109.466 101.646C109.988 105.883 112.507 106.435 112.507 106.435C112.507 106.435 112.507 108.075 112.507 110.083C112.509 110.708 112.608 111.327 112.797 111.903C112.986 112.478 113.262 113 113.61 113.436C113.957 113.873 114.368 114.216 114.818 114.445C115.269 114.675 115.751 114.786 116.236 114.773L116.244 114.762Z" fill="#FFBE9D"/>
<path d="M110.699 95.9978C110.699 96.1399 110.741 96.2768 110.817 96.3793C110.893 96.4819 110.998 96.5419 111.108 96.5467C111.161 96.5523 111.215 96.5439 111.266 96.5221C111.317 96.5003 111.364 96.4655 111.405 96.4199C111.445 96.3742 111.478 96.3185 111.502 96.2562C111.525 96.1938 111.539 96.126 111.542 96.0567C111.543 95.915 111.502 95.7781 111.426 95.6754C111.35 95.5728 111.246 95.5126 111.136 95.5078C111.083 95.5023 111.029 95.5106 110.977 95.5324C110.926 95.5541 110.879 95.5888 110.838 95.6345C110.797 95.6801 110.764 95.7357 110.74 95.7981C110.717 95.8605 110.703 95.9284 110.699 95.9978V95.9978Z" fill="#263238"/>
<path d="M109.997 95.051C110.048 95.1246 110.368 94.8188 110.822 94.8188C111.276 94.8188 111.607 95.1136 111.656 95.0436C111.704 94.9736 111.627 94.8815 111.482 94.7452C111.285 94.5718 111.052 94.4794 110.814 94.4799C110.577 94.4791 110.347 94.5759 110.157 94.7562C110.028 94.8925 109.997 95.0215 109.997 95.051Z" fill="#263238"/>
<path d="M115.014 95.9978C115.012 96.1402 115.054 96.2777 115.13 96.3804C115.207 96.4831 115.312 96.5429 115.422 96.5468C115.476 96.5523 115.53 96.5439 115.581 96.5222C115.632 96.5004 115.679 96.4657 115.72 96.4201C115.761 96.3745 115.794 96.3188 115.818 96.2564C115.842 96.1941 115.856 96.1262 115.859 96.0568C115.86 95.9146 115.817 95.7777 115.741 95.6752C115.665 95.5727 115.561 95.5126 115.45 95.5078C115.397 95.5018 115.342 95.5098 115.291 95.5313C115.24 95.5529 115.192 95.5876 115.152 95.6333C115.111 95.679 115.078 95.7348 115.054 95.7975C115.03 95.8601 115.016 95.9282 115.014 95.9978Z" fill="#263238"/>
<path d="M114.465 95.1615C114.517 95.2315 114.837 94.9294 115.291 94.9294C115.745 94.9294 116.076 95.2241 116.124 95.1504C116.173 95.0767 116.096 94.992 115.95 94.8557C115.754 94.6806 115.521 94.588 115.282 94.5904C115.046 94.5885 114.816 94.6841 114.625 94.8631C114.485 95.0031 114.44 95.1283 114.465 95.1615Z" fill="#263238"/>
<path d="M112.818 99.5016C112.579 99.4049 112.331 99.3468 112.081 99.3284C111.967 99.3284 111.859 99.2842 111.839 99.181C111.828 99.0269 111.855 98.8722 111.916 98.7389L112.258 97.6005C112.732 95.9831 113.078 94.653 113.026 94.6272C112.975 94.6015 112.55 95.8946 112.073 97.5157L111.744 98.6579C111.673 98.8386 111.652 99.0453 111.684 99.2437C111.701 99.2972 111.727 99.3451 111.76 99.3835C111.793 99.4219 111.833 99.4497 111.876 99.4647C111.94 99.487 112.006 99.4982 112.073 99.4979C112.32 99.5398 112.57 99.5411 112.818 99.5016V99.5016Z" fill="#263238"/>
<path d="M112.507 106.424C114.054 106.455 115.577 105.931 116.907 104.91C116.907 104.91 115.839 107.821 112.55 107.423L112.507 106.424Z" fill="#EB996E"/>
<path d="M113.012 100.909C113.098 100.769 113.211 100.66 113.338 100.592C113.466 100.524 113.606 100.498 113.743 100.518C113.844 100.532 113.941 100.571 114.029 100.634C114.118 100.698 114.195 100.784 114.257 100.887C114.318 100.984 114.354 101.103 114.361 101.227C114.367 101.352 114.344 101.476 114.294 101.583C114.221 101.688 114.126 101.762 114.02 101.797C113.914 101.832 113.803 101.825 113.7 101.778C113.49 101.678 113.296 101.527 113.129 101.333C113.078 101.286 113.034 101.227 113.001 101.159C112.984 101.127 112.975 101.089 112.975 101.051C112.975 101.012 112.984 100.974 113.001 100.942" fill="#EB996E"/>
<path d="M114.154 99.9031C114.08 99.9031 114.08 100.533 113.657 100.986C113.235 101.439 112.712 101.355 112.709 101.454C112.707 101.554 112.827 101.579 113.046 101.587C113.336 101.587 113.617 101.457 113.84 101.218C114.054 100.992 114.191 100.667 114.223 100.312C114.243 100.058 114.186 99.9031 114.154 99.9031Z" fill="#263238"/>
<path d="M114.26 94.1373C114.306 94.2957 114.757 94.222 115.291 94.303C115.825 94.3841 116.253 94.572 116.321 94.432C116.353 94.362 116.279 94.2146 116.107 94.0636C115.875 93.8748 115.613 93.7565 115.341 93.7176C115.068 93.6786 114.792 93.7201 114.534 93.8388C114.34 93.9383 114.24 94.0636 114.26 94.1373Z" fill="#263238"/>
<path d="M110.071 93.9714C110.151 94.1041 110.462 93.9714 110.839 93.9714C111.216 93.9714 111.533 94.0635 111.605 93.9235C111.639 93.8535 111.587 93.7209 111.447 93.5956C111.263 93.441 111.045 93.365 110.825 93.3783C110.604 93.3834 110.389 93.4774 110.211 93.6472C110.08 93.7725 110.037 93.9088 110.071 93.9714Z" fill="#263238"/>
<path d="M119.622 96.6388C119.755 96.5463 119.905 96.5025 120.056 96.5122C120.207 96.522 120.353 96.5849 120.479 96.6941C120.782 96.9227 121.015 97.2795 121.138 97.7043C121.261 98.129 121.267 98.5956 121.154 99.025C121.041 99.4545 120.817 99.8204 120.519 100.061C120.221 100.302 119.868 100.402 119.519 100.345" fill="#FFBE9D"/>
<path d="M119.853 99.0816C119.853 99.0521 119.979 99.1147 120.139 99.0226C120.238 98.9505 120.318 98.8418 120.369 98.7105C120.42 98.5792 120.439 98.4313 120.424 98.2858C120.424 98.1407 120.39 97.999 120.328 97.8784C120.265 97.7578 120.177 97.6637 120.073 97.6079C119.907 97.5194 119.788 97.5636 119.788 97.5305C119.788 97.4973 119.899 97.3979 120.116 97.4605C120.241 97.4991 120.354 97.5897 120.436 97.7184C120.535 97.8763 120.592 98.0715 120.598 98.2747C120.616 98.4601 120.585 98.6477 120.51 98.8078C120.436 98.9679 120.322 99.0915 120.187 99.1589C119.956 99.2437 119.836 99.0963 119.853 99.0816Z" fill="#EB996E"/>
<path d="M120.75 99.94C120.75 99.94 120.807 99.9805 120.901 100.076L121.304 100.489L122.731 102.044L122.78 102.095L122.74 102.158C122.212 102.976 121.623 104 120.964 105.068C120.813 105.312 120.664 105.547 120.518 105.769L120.396 105.953V105.71C120.339 103.985 120.29 102.456 120.264 101.358C120.264 100.839 120.247 100.404 120.242 100.069C120.23 99.912 120.23 99.7542 120.242 99.5973C120.27 99.7506 120.285 99.9076 120.287 100.065C120.304 100.401 120.327 100.832 120.356 101.355C120.407 102.46 120.47 103.974 120.536 105.702L120.407 105.643L120.847 104.951C121.506 103.882 122.1 102.865 122.643 102.051V102.165L121.258 100.559L120.875 100.12C120.828 100.066 120.786 100.006 120.75 99.94V99.94Z" fill="#455A64"/>
<path d="M114.106 86.006C113.3 86.0154 112.498 86.1289 111.71 86.345C110.918 86.5638 110.196 87.088 109.64 87.8482C109.366 88.2312 109.171 88.6961 109.071 89.2011C108.971 89.706 108.971 90.235 109.069 90.7403C109.181 91.2405 109.423 91.6759 109.754 91.9737C110.085 92.2715 110.485 92.4135 110.888 92.3761C111.493 92.273 112.073 91.6946 112.658 91.923C113.243 92.1514 113.515 93.0098 114.086 93.1462C114.657 93.2825 115.145 92.6304 115.71 92.564C116.338 92.494 116.881 93.1572 117.161 93.8867C117.441 94.6162 117.546 95.4341 117.826 96.1599C117.903 96.4016 118.02 96.6193 118.168 96.7984C118.315 96.9776 118.491 97.1141 118.683 97.1989C118.864 97.2469 119.051 97.2386 119.23 97.1745C119.408 97.1104 119.572 96.9925 119.708 96.8305C119.976 96.5 120.181 96.094 120.307 95.6441C120.604 94.703 120.728 93.686 120.669 92.6728C120.611 91.6595 120.372 90.6775 119.97 89.8034C119.569 88.9294 119.016 88.187 118.355 87.6343C117.695 87.0816 116.944 86.7337 116.161 86.6176" fill="#263238"/>
<path d="M122.112 90.5082C122.086 90.5082 122.009 90.1656 121.809 89.6461C121.273 88.2916 120.366 87.2416 119.265 86.6987C118.845 86.4923 118.568 86.4297 118.571 86.3965C118.574 86.3634 118.645 86.3965 118.771 86.3965C118.951 86.4286 119.129 86.4816 119.302 86.555C119.875 86.7992 120.403 87.1958 120.85 87.7192C121.299 88.2402 121.658 88.878 121.903 89.5908C121.979 89.804 122.038 90.0261 122.08 90.254C122.102 90.3359 122.112 90.4218 122.112 90.5082V90.5082Z" fill="#FF725E"/>
<path d="M124.624 84.3002C124.368 84.1663 124.103 84.0604 123.833 83.9833C123.177 83.8394 122.502 83.9684 121.906 84.3518C121.315 84.7503 120.805 85.3234 120.419 86.0244C120.113 86.5586 119.97 86.9308 119.947 86.916C119.961 86.8185 119.988 86.7249 120.027 86.6397C120.115 86.3994 120.216 86.1679 120.33 85.9471C120.706 85.1997 121.227 84.5915 121.84 84.1823C122.458 83.7797 123.163 83.6614 123.839 83.847C124.044 83.9034 124.241 83.9977 124.424 84.127C124.559 84.2228 124.63 84.2781 124.624 84.3002Z" fill="#455A64"/>
<path d="M121.466 89.2776C121.503 89.5668 121.503 89.8617 121.466 90.1508C121.409 90.8526 121.27 91.5394 121.055 92.1882C120.841 92.8363 120.553 93.4388 120.199 93.9751C120.061 94.2072 119.894 94.4077 119.705 94.5683C120.195 93.8236 120.607 92.9985 120.93 92.1145C121.202 91.2027 121.383 90.2491 121.466 89.2776Z" fill="#455A64"/>
<path d="M121.561 89.3698C121.598 89.4439 121.626 89.5263 121.641 89.6129C121.7 89.8394 121.743 90.0725 121.769 90.3092C121.862 91.0969 121.832 91.9004 121.681 92.6729C121.53 93.4453 121.261 94.1711 120.89 94.8078C120.779 94.9998 120.654 95.1786 120.519 95.342C120.421 95.4599 120.367 95.5188 120.359 95.5078C120.35 95.4967 120.544 95.2204 120.804 94.7267C121.14 94.0861 121.388 93.3758 121.538 92.6267C121.681 91.8752 121.725 91.0979 121.666 90.3277C121.618 89.7382 121.535 89.3771 121.561 89.3698Z" fill="#455A64"/>
<path d="M130.201 90.3351C129.886 90.463 129.619 90.7356 129.45 91.1011C129.281 91.4666 129.222 91.8995 129.284 92.3175C129.346 92.7354 129.525 93.1093 129.787 93.3681C130.049 93.6268 130.375 93.7523 130.704 93.7207C131.033 93.6891 131.342 93.5026 131.571 93.1967C131.8 92.8909 131.935 92.4869 131.948 92.0616C131.962 91.6364 131.854 91.2195 131.645 90.8903C131.436 90.5611 131.14 90.3425 130.814 90.2761" fill="#EBEBEB"/>
<path d="M134.061 83.0954C133.699 83.2416 133.392 83.5542 133.197 83.9736C133.003 84.393 132.934 84.8901 133.005 85.3704C133.076 85.8506 133.281 86.2805 133.582 86.5782C133.882 86.876 134.257 87.0209 134.635 86.9854C135.013 86.9498 135.367 86.7363 135.631 86.3855C135.895 86.0347 136.05 85.571 136.066 85.0826C136.082 84.5941 135.959 84.1151 135.719 83.7365C135.479 83.3579 135.14 83.1061 134.766 83.0291" fill="#EBEBEB"/>
<path d="M142.304 51.1895C139.734 50.9095 137.11 51.6537 135.337 54.0927C134.456 55.3265 133.8 56.7978 133.414 58.3999C133.029 60.002 132.925 61.6946 133.11 63.355C130.363 64.8287 128.867 69.3383 129.932 72.9342C130.997 76.53 134.452 78.5711 137.256 77.2927C137.89 79.3653 138.932 81.189 140.278 82.5838C141.625 83.9786 143.23 84.8964 144.936 85.2467C146.641 85.5971 148.388 85.3678 150.004 84.5816C151.619 83.7954 153.048 82.4794 154.15 80.7633C156.842 81.548 159.86 81.5001 162.145 79.4517C164.429 77.4032 165.434 72.9157 163.709 70.1304C166.813 69.1541 168.389 64.1545 167.47 60.205C166.55 56.2554 163.792 53.4259 160.851 51.8232C158.907 50.7621 156.48 50.2095 154.821 51.8932C154.154 50.5685 153.251 49.4689 152.187 48.6859C151.124 47.9029 149.93 47.4592 148.707 47.3917C147.484 47.3243 146.266 47.6352 145.154 48.2983C144.043 48.9615 143.071 49.9578 142.318 51.2042" fill="#F5F5F5"/>
<path d="M142.304 51.1895C142.304 51.1895 142.355 51.1011 142.461 50.9316C142.617 50.6832 142.784 50.4458 142.96 50.2205C143.649 49.3458 144.459 48.6448 145.347 48.1536C145.991 47.7938 146.669 47.5461 147.363 47.4168C148.194 47.2675 149.039 47.3011 149.861 47.5163C150.813 47.7634 151.721 48.2356 152.54 48.9089C153.464 49.6697 154.253 50.6742 154.855 51.8564H154.781C155.486 51.1706 156.342 50.7913 157.225 50.7732C158.161 50.7512 159.093 50.9433 159.977 51.3406C160.917 51.7514 161.821 52.286 162.676 52.9359C163.583 53.6114 164.422 54.4294 165.174 55.3712C165.97 56.3576 166.624 57.5175 167.107 58.7976C167.347 59.4654 167.531 60.1645 167.655 60.8829C167.769 61.6199 167.808 62.3728 167.772 63.1229C167.701 64.6719 167.316 66.1697 166.656 67.4667C166.312 68.1246 165.883 68.7015 165.388 69.1725C164.884 69.6531 164.313 70.0056 163.706 70.2115L163.744 70.0678C164.118 70.6849 164.381 71.4025 164.512 72.1678C164.641 72.9457 164.657 73.7479 164.557 74.5331C164.346 76.1462 163.747 77.6324 162.844 78.7811C161.896 79.9221 160.719 80.698 159.446 81.0212C158.158 81.3608 156.834 81.4119 155.532 81.1722C155.055 81.0949 154.584 80.9733 154.121 80.848L154.196 80.8149C153.354 82.1363 152.315 83.227 151.142 84.0228C149.968 84.8186 148.683 85.3034 147.362 85.4486C146.041 85.5938 144.711 85.3965 143.45 84.8684C142.189 84.3402 141.023 83.4919 140.02 82.3733C138.77 81.0104 137.796 79.2756 137.181 77.3185L137.267 77.3664C136.478 77.6942 135.644 77.8062 134.819 77.6952C133.994 77.5842 133.196 77.2526 132.476 76.7216C131.791 76.2446 131.191 75.5893 130.713 74.7972C130.234 74.005 129.889 73.0934 129.698 72.1199C129.376 70.2885 129.579 68.3685 130.269 66.7151C130.88 65.1893 131.877 63.9799 133.096 63.2887L133.067 63.3587C132.904 61.8988 132.964 60.4118 133.244 58.9818C133.602 57.1317 134.319 55.4299 135.328 54.0375C135.621 53.6432 135.941 53.2843 136.285 52.9653C136.885 52.4085 137.549 51.9771 138.252 51.6869C139.564 51.1662 140.944 50.9944 142.309 51.1821C142.309 51.1821 142.218 51.1821 142.041 51.1821C141.864 51.1821 141.601 51.1563 141.253 51.1563C140.238 51.1569 139.229 51.362 138.264 51.7643C137.566 52.0572 136.909 52.4899 136.316 53.0464C135.977 53.363 135.662 53.7194 135.374 54.1111C135.067 54.5401 134.786 54.9996 134.535 55.4854C133.979 56.5665 133.57 57.7611 133.324 59.0186C133.052 60.4342 132.996 61.9044 133.158 63.3477V63.3956L133.121 63.4177C131.929 64.1022 130.953 65.2914 130.355 66.7888C129.675 68.4093 129.472 70.2922 129.784 72.0905C129.979 73.0442 130.326 73.9349 130.802 74.7057C131.279 75.4765 131.876 76.1104 132.553 76.5669C133.258 77.0848 134.038 77.4079 134.845 77.5158C135.651 77.6236 136.467 77.5137 137.239 77.1932L137.299 77.1674L137.324 77.2448C137.949 79.2125 138.938 80.9525 140.205 82.3129C141.472 83.6732 142.978 84.6123 144.591 85.0481C146.332 85.4654 148.129 85.2817 149.798 84.5157C151.467 83.7498 152.949 82.4286 154.096 80.6859L154.124 80.6417H154.167C154.627 80.767 155.092 80.8885 155.566 80.9622C156.85 81.1978 158.156 81.148 159.426 80.8149C160.673 80.5015 161.826 79.7433 162.756 78.6264C163.634 77.5063 164.217 76.0572 164.42 74.4853C164.529 73.7345 164.516 72.9629 164.381 72.219C164.247 71.4752 163.995 70.7753 163.641 70.1636L163.572 70.0531L163.681 70.0162C164.269 69.8146 164.823 69.4735 165.314 69.0104C165.79 68.5429 166.201 67.9749 166.53 67.3304C167.179 66.0605 167.557 64.593 167.627 63.075C167.665 62.335 167.628 61.5917 167.515 60.8644C167.394 60.1598 167.214 59.4742 166.978 58.8197C166.504 57.5554 165.86 56.4092 165.077 55.4338C164.334 54.5001 163.503 53.6894 162.604 53.0206C161.759 52.3729 160.865 51.8395 159.935 51.429C159.063 51.0363 158.145 50.8442 157.222 50.8616C156.361 50.8752 155.525 51.2416 154.835 51.9079L154.792 51.9521L154.761 51.8932C153.627 49.6767 151.858 48.1306 149.841 47.5936C149.028 47.3762 148.192 47.3376 147.369 47.4794C145.719 47.7815 144.184 48.7412 142.978 50.2242C142.746 50.519 142.575 50.7548 142.469 50.9206C142.364 51.0863 142.304 51.1895 142.304 51.1895Z" fill="#263238"/>
<path d="M159.963 62.6735C159.963 62.8319 154.898 62.9608 148.654 62.9608C142.409 62.9608 137.347 62.8319 137.347 62.6735C137.347 62.515 142.409 62.3861 148.654 62.3861C154.898 62.3861 159.963 62.515 159.963 62.6735Z" fill="#455A64"/>
<path d="M159.963 65.8567C159.963 66.0151 154.898 66.144 148.654 66.144C142.409 66.144 137.347 66.0151 137.347 65.8567C137.347 65.6982 142.409 65.5656 148.654 65.5656C154.898 65.5656 159.963 65.6798 159.963 65.8567Z" fill="#455A64"/>
<path d="M159.963 69.0067C159.963 69.1652 154.898 69.2941 148.654 69.2941C142.409 69.2941 137.347 69.1652 137.347 69.0067C137.347 68.8483 142.409 68.7194 148.654 68.7194C154.898 68.7194 159.963 68.8483 159.963 69.0067Z" fill="#455A64"/>
<path d="M159.963 72.1715C159.963 72.3299 154.898 72.4589 148.654 72.4589C142.409 72.4589 137.347 72.3299 137.347 72.1715C137.347 72.0131 142.409 71.8841 148.654 71.8841C154.898 71.8841 159.963 72.0131 159.963 72.1715Z" fill="#455A64"/>
</svg>
