<svg width="451" height="401" viewBox="0 0 451 401" fill="none" xmlns="http://www.w3.org/2000/svg">
<path d="M10.9694 198.926H445.347" stroke="#263238" stroke-linecap="round" stroke-linejoin="round"/>
<path d="M65.043 235.614C85.4251 235.614 101.948 230.07 101.948 223.232C101.948 216.394 85.4251 210.851 65.043 210.851C44.661 210.851 28.1382 216.394 28.1382 223.232C28.1382 230.07 44.661 235.614 65.043 235.614Z" fill="#263238"/>
<path d="M43.4961 184.224L48.6422 221.979C48.6422 228.03 61.1348 232.941 76.55 232.941C91.9653 232.941 104.458 228.03 104.458 221.979L109.604 184.224H43.4961Z" fill="white"/>
<path d="M71.7134 184.224H43.4961L48.6422 221.979C48.6422 228.03 61.1348 232.941 76.55 232.941C77.551 232.941 78.5366 232.92 79.507 232.878C70.7163 218.788 70.5673 198.107 71.7134 184.224Z" fill="#FF725E"/>
<path opacity="0.4" d="M71.7134 184.224H43.4961L48.6422 221.979C48.6422 228.03 61.1348 232.941 76.55 232.941C77.551 232.941 78.5366 232.92 79.507 232.878C70.7163 218.788 70.5673 198.107 71.7134 184.224Z" fill="white"/>
<path d="M43.4961 184.224L48.6422 221.979C48.6422 228.03 61.1348 232.941 76.55 232.941C91.9653 232.941 104.458 228.03 104.458 221.979L109.604 184.224H43.4961Z" stroke="#263238" stroke-linecap="round" stroke-linejoin="round"/>
<path d="M76.55 197.206C94.8052 197.206 109.604 191.394 109.604 184.224C109.604 177.054 94.8052 171.241 76.55 171.241C58.2949 171.241 43.4961 177.054 43.4961 184.224C43.4961 191.394 58.2949 197.206 76.55 197.206Z" fill="white" stroke="#263238" stroke-linecap="round" stroke-linejoin="round"/>
<path d="M76.55 195.175C92.862 195.175 106.085 190.119 106.085 183.882C106.085 177.644 92.862 172.588 76.55 172.588C60.2381 172.588 47.0147 177.644 47.0147 183.882C47.0147 190.119 60.2381 195.175 76.55 195.175Z" fill="#263238" stroke="#263238" stroke-linecap="round" stroke-linejoin="round"/>
<path d="M78.7964 185.052C78.7964 185.052 76.1604 163.067 59.7365 146.427C43.3127 129.787 47.3356 131.828 47.3356 131.828" stroke="#263238" stroke-linecap="round" stroke-linejoin="round"/>
<path d="M108.389 119.685C108.389 119.685 88.6759 137.517 85.3866 157.72C82.0972 177.924 84.2405 181.188 84.2405 181.188" stroke="#263238" stroke-linecap="round" stroke-linejoin="round"/>
<path d="M82.0284 183.84C82.0284 183.84 78.1775 171.407 74.2349 146.427C70.2922 121.447 72.2636 108.402 72.2636 108.402" stroke="#263238" stroke-linecap="round" stroke-linejoin="round"/>
<path d="M49.0433 138.625C49.0433 138.625 43.5305 144.034 35.0492 133.445C26.568 122.856 29.3874 110.506 29.3874 110.506C29.3874 110.506 33.7083 116.463 40.2526 118.971C46.7969 121.478 56.3555 135.724 49.0433 138.625Z" fill="#FF725E"/>
<path d="M72.2177 114.339C72.2177 114.339 64.3325 116.121 63.6792 103.056C63.0259 89.9911 72.8481 81.0704 72.8481 81.0704C72.8481 81.0704 72.8481 88.1987 76.7907 93.5035C80.7334 98.8083 80.1145 115.531 72.2177 114.339Z" fill="#FF725E"/>
<path d="M104.756 126.285C104.756 126.285 97.0769 123.871 104.446 112.619C111.816 101.367 125.466 98.7772 125.466 98.7772C125.466 98.7772 121.145 104.745 121.203 111.21C121.26 117.675 110.681 131.186 104.756 126.285Z" fill="#FF725E"/>
<path d="M81.421 182.079C81.421 182.079 86.6817 160.684 97.8563 150.592C104.485 144.592 113.45 141.177 122.83 141.081C122.83 141.081 109.684 145.836 105.742 155.337C101.799 164.838 95.1973 185.643 95.1973 185.643H62.3726C62.3726 185.643 58.4185 177.924 47.2439 169.003C36.0693 160.083 17.6627 154.156 17.6627 154.156C17.6627 154.156 38.0406 147.618 52.5046 152.965C66.9685 158.311 77.4784 180.939 77.4784 180.939L81.421 182.079Z" fill="#FF725E"/>
<path d="M86.4868 182.027C86.4868 182.027 73.444 173.935 59.2093 175.282C44.9746 176.629 43.7941 187.083 43.1637 190.119C42.8146 191.902 42.6192 193.707 42.5792 195.517C42.5792 195.517 60.917 190.461 72.2177 188.772C83.5184 187.083 88.2633 191.808 86.4868 182.027Z" fill="#FF725E"/>
<path d="M81.6273 182.027C81.6273 182.027 89.8335 173.935 98.8191 175.282C107.805 176.629 108.515 187.083 108.882 190.119C109.108 191.911 109.235 193.713 109.26 195.517C109.26 195.517 97.6959 190.461 90.6129 188.772C83.5299 187.083 80.5041 191.808 81.6273 182.027Z" fill="#FF725E"/>
<path d="M130.864 51.9251H378.952C381.427 51.9251 383.8 52.8137 385.549 54.3953C387.299 55.9769 388.282 58.1221 388.282 60.3589V217.14H121.535V60.3485C121.538 58.1135 122.522 55.971 124.272 54.3916C126.021 52.8122 128.392 51.9251 130.864 51.9251V51.9251Z" fill="#263238" stroke="#263238" stroke-linecap="round" stroke-linejoin="round"/>
<path d="M428.281 290.174H81.5242L121.535 217.14H388.27L428.281 290.174Z" fill="white" stroke="#263238" stroke-linecap="round" stroke-linejoin="round"/>
<path d="M372.122 65.0005H137.695V204.054H372.122V65.0005Z" fill="#FF725E" stroke="#263238" stroke-linecap="round" stroke-linejoin="round"/>
<path d="M202.826 163.378C215.766 151.681 215.766 132.715 202.826 121.018C189.886 109.32 168.907 109.32 155.967 121.018C143.027 132.715 143.027 151.681 155.967 163.378C168.907 175.076 189.886 175.076 202.826 163.378Z" fill="#263238"/>
<path d="M279.4 163.376C292.34 151.679 292.34 132.713 279.4 121.016C266.46 109.318 245.481 109.318 232.541 121.016C219.601 132.713 219.601 151.679 232.541 163.376C245.481 175.074 266.46 175.074 279.4 163.376Z" fill="#263238"/>
<path d="M340.07 171.355C357.892 167.6 368.972 151.496 364.818 135.385C360.664 119.274 342.849 109.257 325.028 113.012C307.206 116.768 296.126 132.872 300.28 148.983C304.433 165.094 322.248 175.111 340.07 171.355Z" fill="#263238"/>
<path d="M156.629 134.564C156.629 134.564 171.231 98.5078 179.815 98.5078C188.399 98.5078 203.517 134.139 203.517 134.139L200.961 134.346C200.961 134.346 186.119 103.118 181.718 101.191C177.316 99.2642 169.191 110.62 159.219 134.522L156.629 134.564Z" fill="white" stroke="#263238" stroke-linecap="round" stroke-linejoin="round"/>
<path d="M158.108 132.461H201.992C203.305 132.461 204.565 132.932 205.493 133.771C206.422 134.611 206.944 135.749 206.944 136.936V158.218C206.944 159.169 206.526 160.08 205.782 160.753C205.038 161.425 204.03 161.803 202.978 161.803H157.133C156.082 161.803 155.073 161.425 154.329 160.753C153.586 160.08 153.168 159.169 153.168 158.218V136.947C153.166 136.359 153.293 135.777 153.54 135.233C153.788 134.69 154.151 134.195 154.61 133.779C155.069 133.362 155.614 133.031 156.214 132.805C156.814 132.579 157.457 132.462 158.108 132.461V132.461Z" fill="white" stroke="#263238" stroke-linecap="round" stroke-linejoin="round"/>
<path d="M153.615 148.188H202.302" stroke="#263238" stroke-linecap="round" stroke-linejoin="round"/>
<path d="M204.399 133.507C204.399 133.507 203.253 134.771 203.253 138.335C203.253 141.899 201.866 160.767 202.107 161.595C202.348 162.424 203.734 161.813 203.734 161.813" fill="white"/>
<path d="M204.399 133.507C204.399 133.507 203.253 134.771 203.253 138.335C203.253 141.899 201.866 160.767 202.107 161.595C202.348 162.424 203.734 161.813 203.734 161.813" stroke="#263238" stroke-linecap="round" stroke-linejoin="round"/>
<path d="M179.815 143.992H176.102V151.535H179.815V143.992Z" fill="white" stroke="#263238" stroke-linecap="round" stroke-linejoin="round"/>
<path d="M226.978 124.679C226.978 124.679 242.462 123.457 260.639 123.457C278.816 123.457 287.355 124.493 287.573 125.529C287.79 126.565 285.109 139.734 285.109 140.946C285.109 142.158 285.109 159.212 284.662 160.228C284.215 161.243 282.186 162.051 281.292 162.248C280.398 162.445 233.258 162.859 231.917 162.859C231.241 162.81 230.611 162.532 230.152 162.08C229.693 161.629 229.44 161.038 229.442 160.425C229.442 159.212 230.118 145.816 228.995 140.946C227.872 136.076 226.978 124.679 226.978 124.679Z" fill="white" stroke="#263238" stroke-linecap="round" stroke-linejoin="round"/>
<path d="M243.631 131.373C243.631 131.373 243.401 115.344 245.201 109.863C245.973 107.544 247.542 105.507 249.681 104.048C251.821 102.589 254.418 101.785 257.098 101.751C260.576 101.962 263.893 103.155 266.582 105.16C269.272 107.166 271.197 109.883 272.089 112.93C274.381 120.836 272.536 130.782 272.318 131.797C272.1 132.813 269.625 135.652 269.166 130.171C268.708 124.69 269.625 111.915 267.825 108.257C266.796 106.338 265.094 104.78 262.984 103.826C260.874 102.872 258.474 102.576 256.158 102.984C251.436 104.02 248.972 105.823 248.078 111.096C247.184 116.37 248.972 128.554 247.848 131.186C246.725 133.818 244.032 135.02 243.631 131.373Z" fill="white" stroke="#263238" stroke-linecap="round" stroke-linejoin="round"/>
<path d="M231.241 124.876C231.241 124.876 230.095 135.631 230.095 139.692C230.095 143.754 229.866 146.386 229.866 146.386" fill="white"/>
<path d="M231.241 124.876C231.241 124.876 230.095 135.631 230.095 139.692C230.095 143.754 229.866 146.386 229.866 146.386" stroke="#263238" stroke-linecap="round" stroke-linejoin="round"/>
<path d="M283.745 125.083C283.745 125.083 284.203 135.838 284.203 142.127" stroke="#263238" stroke-linecap="round" stroke-linejoin="round"/>
<path d="M341.623 123.022C341.345 123.024 341.076 122.935 340.865 122.771C340.654 122.607 340.516 122.38 340.477 122.131C338.265 109.625 335.492 95.8346 334.071 91.3587C331.973 95.586 327.366 109.045 323.549 121.281C323.466 121.556 323.265 121.789 322.991 121.93C322.717 122.071 322.392 122.108 322.088 122.032C321.784 121.957 321.526 121.775 321.37 121.527C321.214 121.28 321.173 120.986 321.257 120.711C321.257 120.628 323.71 112.827 326.369 105.045C331.904 88.8203 332.947 88.468 333.773 88.2297C333.979 88.166 334.198 88.1479 334.414 88.1767C334.629 88.2055 334.834 88.2806 335.01 88.3955C335.618 88.7996 336.454 89.3487 339.755 105.843C341.348 113.8 342.747 121.716 342.758 121.799C342.786 121.937 342.782 122.078 342.748 122.215C342.714 122.351 342.649 122.48 342.558 122.593C342.467 122.707 342.351 122.802 342.218 122.874C342.085 122.946 341.937 122.993 341.784 123.011C341.731 123.02 341.677 123.023 341.623 123.022V123.022Z" fill="white" stroke="#263238" stroke-linecap="round" stroke-linejoin="round"/>
<path d="M304.432 119.54C304.432 119.54 327.251 118.276 335.114 118.556C342.976 118.836 356.947 119.592 356.89 120.411C356.832 121.229 356.557 147.349 355.744 152.53C354.93 157.71 350.838 164.217 347.285 165.408C343.732 166.6 331.79 166.165 325.67 165.937C319.549 165.709 314.036 164.983 311.286 161.45C308.535 157.917 306.564 143.08 306.564 143.08L304.432 119.54Z" fill="white" stroke="#263238" stroke-linecap="round" stroke-linejoin="round"/>
<path d="M322.564 125.218C322.574 124.812 322.452 124.412 322.213 124.067C321.973 123.723 321.627 123.45 321.217 123.283C320.808 123.115 320.353 123.06 319.908 123.124C319.464 123.189 319.051 123.37 318.72 123.645C318.389 123.92 318.155 124.277 318.047 124.672C317.939 125.067 317.962 125.481 318.112 125.865C318.263 126.248 318.535 126.582 318.894 126.826C319.254 127.071 319.685 127.214 320.134 127.239C320.441 127.255 320.75 127.216 321.04 127.123C321.33 127.029 321.597 126.884 321.824 126.695C322.051 126.507 322.233 126.279 322.36 126.025C322.487 125.771 322.556 125.497 322.564 125.218Z" fill="white" stroke="#263238" stroke-linecap="round" stroke-linejoin="round"/>
<path d="M344.35 126.537C344.561 125.391 343.704 124.308 342.436 124.117C341.169 123.927 339.97 124.701 339.76 125.847C339.549 126.993 340.406 128.076 341.673 128.267C342.941 128.457 344.139 127.683 344.35 126.537Z" fill="white" stroke="#263238" stroke-linecap="round" stroke-linejoin="round"/>
<path d="M308.421 154.25C308.421 154.25 324.81 152.995 354.804 154.364Z" fill="white"/>
<path d="M308.421 154.25C308.421 154.25 324.81 152.995 354.804 154.364" stroke="#263238" stroke-linecap="round" stroke-linejoin="round"/>
<path d="M367.698 69.1035H141.328V85.7431H367.698V69.1035Z" fill="#263238"/>
<path d="M251.115 78.5837H273.556" stroke="white" stroke-width="2" stroke-miterlimit="10"/>
<path d="M299.515 78.5837H321.956" stroke="white" stroke-width="2" stroke-miterlimit="10"/>
<path d="M360.603 73.4344C360.56 73.3796 360.504 73.3349 360.438 73.3042C360.372 73.2735 360.299 73.2578 360.225 73.2582H347.927L347.457 71.9735C347.424 71.888 347.362 71.814 347.279 71.762C347.197 71.71 347.099 71.6825 346.999 71.6834H343.881C343.757 71.6834 343.637 71.7281 343.549 71.8078C343.461 71.8875 343.411 71.9955 343.411 72.1082C343.41 72.1648 343.421 72.2212 343.444 72.2739C343.467 72.3267 343.501 72.3747 343.545 72.4153C343.589 72.4558 343.641 72.488 343.699 72.51C343.757 72.532 343.819 72.5433 343.881 72.5433H346.655L349.658 80.6974C349.691 80.7829 349.753 80.8568 349.835 80.9088C349.918 80.9608 350.016 80.9883 350.116 80.9875H350.288C350.12 81.2263 350.029 81.5024 350.024 81.7853C350.005 81.9909 350.034 82.1979 350.108 82.3932C350.182 82.5884 350.3 82.7677 350.455 82.9196C350.609 83.0715 350.797 83.1927 351.006 83.2757C351.215 83.3586 351.441 83.4015 351.669 83.4015C351.897 83.4015 352.123 83.3586 352.332 83.2757C352.541 83.1927 352.729 83.0715 352.884 82.9196C353.038 82.7677 353.156 82.5884 353.23 82.3932C353.304 82.1979 353.333 81.9909 353.314 81.7853C353.315 81.5017 353.223 81.2241 353.05 80.9875H355.342C355.178 81.2272 355.091 81.5034 355.09 81.7853C355.071 81.9909 355.1 82.1979 355.174 82.3932C355.248 82.5884 355.366 82.7677 355.52 82.9196C355.675 83.0715 355.863 83.1927 356.072 83.2757C356.281 83.3586 356.507 83.4015 356.735 83.4015C356.963 83.4015 357.189 83.3586 357.398 83.2757C357.607 83.1927 357.795 83.0715 357.95 82.9196C358.104 82.7677 358.222 82.5884 358.296 82.3932C358.37 82.1979 358.399 81.9909 358.38 81.7853C358.375 81.5024 358.284 81.2263 358.116 80.9875H358.483C358.61 80.9875 358.733 80.9416 358.823 80.86C358.913 80.7784 358.964 80.6677 358.964 80.5523C358.964 80.4956 358.952 80.4395 358.927 80.3873C358.903 80.3351 358.867 80.2878 358.822 80.2482C358.778 80.2086 358.724 80.1775 358.666 80.1568C358.608 80.1361 358.545 80.1261 358.483 80.1275H350.46L349.933 78.6977H358.872C358.976 78.6989 359.077 78.669 359.16 78.6128C359.243 78.5566 359.303 78.4771 359.331 78.3869L360.695 73.8074C360.712 73.743 360.713 73.6759 360.697 73.6113C360.681 73.5466 360.649 73.4861 360.603 73.4344ZM351.663 82.4173C351.525 82.4193 351.388 82.384 351.272 82.3158C351.155 82.2476 351.064 82.1497 351.009 82.0344C350.955 81.9191 350.939 81.7917 350.965 81.6684C350.991 81.5452 351.056 81.4316 351.154 81.3422C351.251 81.2527 351.375 81.1915 351.511 81.1663C351.647 81.141 351.788 81.1529 351.917 81.2004C352.045 81.2479 352.155 81.3289 352.232 81.4331C352.31 81.5372 352.351 81.6598 352.351 81.7853C352.351 81.9511 352.279 82.1103 352.15 82.2285C352.022 82.3468 351.847 82.4146 351.663 82.4173V82.4173ZM356.718 82.4173C356.579 82.4193 356.443 82.384 356.326 82.3158C356.21 82.2476 356.118 82.1497 356.064 82.0344C356.009 81.9191 355.994 81.7917 356.019 81.6684C356.045 81.5452 356.111 81.4316 356.208 81.3422C356.305 81.2527 356.43 81.1915 356.566 81.1663C356.702 81.141 356.843 81.1529 356.971 81.2004C357.1 81.2479 357.209 81.3289 357.287 81.4331C357.364 81.5372 357.405 81.6598 357.405 81.7853C357.407 81.8678 357.39 81.9497 357.356 82.0263C357.323 82.103 357.272 82.1727 357.208 82.2315C357.144 82.2904 357.068 82.3371 356.984 82.369C356.899 82.4009 356.809 82.4173 356.718 82.4173V82.4173ZM357.99 77.8378H356.225V74.1285H357.99V77.8378ZM353.497 74.1285H355.274V77.8378H353.497V74.1285ZM352.546 77.8378H350.769V74.1285H352.512L352.546 77.8378ZM348.236 74.1285H349.818V77.8378H349.6L348.236 74.1285ZM358.953 76.3147V74.1285H359.594L358.953 76.3147Z" fill="white"/>
<path d="M364.305 73.1649C364.316 72.5378 364.121 71.9219 363.744 71.3954C363.367 70.869 362.825 70.4559 362.187 70.2087C361.55 69.9616 360.845 69.8916 360.163 70.0076C359.481 70.1236 358.853 70.4204 358.359 70.8602C357.864 71.3001 357.525 71.863 357.386 72.4773C357.246 73.0917 357.312 73.7297 357.575 74.3102C357.838 74.8906 358.286 75.3873 358.862 75.7369C359.438 76.0864 360.116 76.2731 360.809 76.2732C361.726 76.2707 362.605 75.944 363.258 75.3631C363.911 74.7822 364.287 73.9932 364.305 73.1649V73.1649Z" fill="white"/>
<path d="M359.388 75.1128C359.304 75.0544 359.246 74.9694 359.228 74.8745C359.203 74.7716 359.207 74.6649 359.239 74.5638C359.271 74.4626 359.33 74.3701 359.411 74.2943L361.016 72.8749C361.108 72.8127 361.184 72.7334 361.24 72.6422C361.295 72.5511 361.328 72.4502 361.337 72.3465C361.338 72.282 361.321 72.2182 361.289 72.1606C361.258 72.1029 361.211 72.0529 361.153 72.0149C361.028 71.9298 360.874 71.886 360.718 71.8906H360.534H360.328L360.168 71.9527L359.996 72.046L359.847 72.1185C359.784 72.1391 359.715 72.1391 359.652 72.1185C359.574 72.1021 359.505 72.0618 359.457 72.0046C359.408 71.9447 359.369 71.8783 359.342 71.8077C359.313 71.7375 359.313 71.6603 359.342 71.5901C359.376 71.5098 359.442 71.4435 359.526 71.4036C359.952 71.1662 360.446 71.0473 360.947 71.0617C361.337 71.0541 361.715 71.1842 362.001 71.4243C362.13 71.5288 362.232 71.6568 362.301 71.7997C362.37 71.9426 362.405 72.0972 362.403 72.2532C362.402 72.4778 362.339 72.6986 362.219 72.8956C362.075 73.1321 361.881 73.34 361.646 73.5069L360.42 74.3876H362.024C362.069 74.3866 362.113 74.3967 362.151 74.4168C362.189 74.4369 362.221 74.4662 362.242 74.5015C362.294 74.5798 362.322 74.6693 362.322 74.7606C362.32 74.8582 362.293 74.954 362.242 75.0403C362.219 75.0742 362.187 75.1024 362.149 75.1223C362.111 75.1422 362.068 75.1532 362.024 75.1543H359.732C359.675 75.1703 359.615 75.175 359.555 75.1678C359.496 75.1606 359.439 75.1419 359.388 75.1128V75.1128Z" fill="#263238"/>
<path d="M232.628 82.4173H149.764C149.039 82.4173 148.321 82.288 147.652 82.0369C146.982 81.7858 146.374 81.4178 145.862 80.9539C145.35 80.4901 144.944 79.9395 144.667 79.3336C144.391 78.7278 144.25 78.0786 144.251 77.4233V77.4233C144.251 76.1016 144.832 74.834 145.866 73.8994C146.9 72.9648 148.302 72.4397 149.764 72.4397H232.628C234.09 72.4397 235.492 72.9648 236.526 73.8994C237.56 74.834 238.141 76.1016 238.141 77.4233C238.142 78.0786 238.001 78.7278 237.724 79.3336C237.448 79.9395 237.042 80.4901 236.53 80.9539C236.018 81.4178 235.41 81.7858 234.74 82.0369C234.071 82.288 233.353 82.4173 232.628 82.4173V82.4173Z" fill="white"/>
<path d="M162.383 181.478H196.308" stroke="#263238" stroke-width="2" stroke-linecap="round" stroke-linejoin="round"/>
<path d="M162.383 187.29H196.308" stroke="#263238" stroke-width="2" stroke-linecap="round" stroke-linejoin="round"/>
<path d="M239 181.478H272.937" stroke="#263238" stroke-width="2" stroke-linecap="round" stroke-linejoin="round"/>
<path d="M239 187.29H272.937" stroke="#263238" stroke-width="2" stroke-linecap="round" stroke-linejoin="round"/>
<path d="M315.63 181.478H349.555" stroke="#263238" stroke-width="2" stroke-linecap="round" stroke-linejoin="round"/>
<path d="M315.63 187.29H349.555" stroke="#263238" stroke-width="2" stroke-linecap="round" stroke-linejoin="round"/>
<path d="M243.78 240.266L244.238 231.366H230.152L229.213 240.266H243.78Z" fill="#263238" stroke="white" stroke-linecap="round" stroke-linejoin="round"/>
<path d="M272.914 240.266L272.432 231.366H258.335L258.347 240.266H272.914Z" fill="#263238" stroke="white" stroke-linecap="round" stroke-linejoin="round"/>
<path d="M348.775 249.777H363.835L360.305 240.266H345.738L348.775 249.777Z" fill="#263238" stroke="white" stroke-linecap="round" stroke-linejoin="round"/>
<path d="M229.213 240.266L230.152 231.366H216.055L214.657 240.266H229.213Z" fill="#263238" stroke="white" stroke-linecap="round" stroke-linejoin="round"/>
<path d="M200.09 240.266L201.958 231.366H187.872L185.523 240.266H200.09Z" fill="#263238" stroke="white" stroke-linecap="round" stroke-linejoin="round"/>
<path d="M331.171 240.266L328.81 231.366H314.713L316.604 240.266H331.171Z" fill="#263238" stroke="white" stroke-linecap="round" stroke-linejoin="round"/>
<path d="M345.738 240.266L342.896 231.366H328.81L331.171 240.266H345.738Z" fill="#263238" stroke="white" stroke-linecap="round" stroke-linejoin="round"/>
<path d="M185.523 240.266L187.872 231.366H173.775L170.956 240.266H185.523Z" fill="#263238" stroke="white" stroke-linecap="round" stroke-linejoin="round"/>
<path d="M287.481 240.266L286.53 231.366H272.433L272.914 240.266H287.481Z" fill="#263238" stroke="white" stroke-linecap="round" stroke-linejoin="round"/>
<path d="M360.305 240.266L356.993 231.366H342.896L345.738 240.266H360.305Z" fill="#263238" stroke="white" stroke-linecap="round" stroke-linejoin="round"/>
<path d="M316.604 240.266L314.713 231.366H300.615L302.037 240.266H316.604Z" fill="#263238" stroke="white" stroke-linecap="round" stroke-linejoin="round"/>
<path d="M302.037 240.266L300.615 231.366H286.53L287.481 240.266H302.037Z" fill="#263238" stroke="white" stroke-linecap="round" stroke-linejoin="round"/>
<path d="M258.347 240.266L258.335 231.366H244.238L243.78 240.266H258.347Z" fill="#263238" stroke="white" stroke-linecap="round" stroke-linejoin="round"/>
<path d="M156.388 240.266H141.821L137.798 249.777H152.87L156.388 240.266Z" fill="#263238" stroke="white" stroke-linecap="round" stroke-linejoin="round"/>
<path d="M159.678 231.366H145.592L141.821 240.266H156.388L159.678 231.366Z" fill="#263238" stroke="white" stroke-linecap="round" stroke-linejoin="round"/>
<path d="M170.956 240.266L173.775 231.366H159.678L156.388 240.266H170.956Z" fill="#263238" stroke="white" stroke-linecap="round" stroke-linejoin="round"/>
<path d="M133.489 259.972L128.859 270.934H145.053L149.099 259.972H133.489Z" fill="#263238" stroke="white" stroke-linecap="round" stroke-linejoin="round"/>
<path d="M152.87 249.777H137.798L133.489 259.972H149.099L152.87 249.777Z" fill="#263238" stroke="white" stroke-linecap="round" stroke-linejoin="round"/>
<path d="M149.099 259.972L145.053 270.934H161.248L164.709 259.972H149.099Z" fill="#263238" stroke="white" stroke-linecap="round" stroke-linejoin="round"/>
<path d="M214.657 240.266L216.055 231.366H201.958L200.09 240.266H214.657Z" fill="#263238" stroke="white" stroke-linecap="round" stroke-linejoin="round"/>
<path d="M213.144 249.777L214.657 240.266H200.09L198.084 249.777H213.144Z" fill="#263238" stroke="white" stroke-linecap="round" stroke-linejoin="round"/>
<path d="M198.084 249.777L200.09 240.266H185.523L183.013 249.777H198.084Z" fill="#263238" stroke="white" stroke-linecap="round" stroke-linejoin="round"/>
<path d="M228.215 249.777L229.213 240.266H214.657L213.144 249.777H228.215Z" fill="#263238" stroke="white" stroke-linecap="round" stroke-linejoin="round"/>
<path d="M170.956 240.266H156.388L152.87 249.777H167.941L170.956 240.266Z" fill="#263238" stroke="white" stroke-linecap="round" stroke-linejoin="round"/>
<path d="M352.019 259.972H367.629L363.835 249.777H348.775L352.019 259.972Z" fill="#263238" stroke="white" stroke-linecap="round" stroke-linejoin="round"/>
<path d="M183.013 249.777L185.523 240.266H170.956L167.941 249.777H183.013Z" fill="#263238" stroke="white" stroke-linecap="round" stroke-linejoin="round"/>
<path d="M152.87 249.777L149.099 259.972H164.709L167.941 249.777H152.87Z" fill="#263238" stroke="white" stroke-linecap="round" stroke-linejoin="round"/>
<path d="M318.632 249.777L316.604 240.266H302.037L303.561 249.777H318.632Z" fill="#263238" stroke="white" stroke-linecap="round" stroke-linejoin="round"/>
<path d="M303.561 249.777L302.037 240.266H287.481L288.49 249.777H303.561Z" fill="#263238" stroke="white" stroke-linecap="round" stroke-linejoin="round"/>
<path d="M348.775 249.777L345.738 240.266H331.171L333.704 249.777H348.775Z" fill="#263238" stroke="white" stroke-linecap="round" stroke-linejoin="round"/>
<path d="M258.358 249.777L258.347 240.266H243.78L243.287 249.777H258.358Z" fill="#263238" stroke="white" stroke-linecap="round" stroke-linejoin="round"/>
<path d="M288.49 249.777L287.481 240.266H272.914L273.43 249.777H288.49Z" fill="#263238" stroke="white" stroke-linecap="round" stroke-linejoin="round"/>
<path d="M273.43 249.777L272.914 240.266H258.347L258.358 249.777H273.43Z" fill="#263238" stroke="white" stroke-linecap="round" stroke-linejoin="round"/>
<path d="M243.287 249.777L243.78 240.266H229.213L228.215 249.777H243.287Z" fill="#263238" stroke="white" stroke-linecap="round" stroke-linejoin="round"/>
<path d="M288.49 249.777L289.59 259.972H305.188L303.561 249.777H288.49Z" fill="#263238" stroke="white" stroke-linecap="round" stroke-linejoin="round"/>
<path d="M303.561 249.777L305.188 259.972H320.799L318.632 249.777H303.561Z" fill="#263238" stroke="white" stroke-linecap="round" stroke-linejoin="round"/>
<path d="M167.941 249.777L164.709 259.972H180.319L183.013 249.777H167.941Z" fill="#263238" stroke="white" stroke-linecap="round" stroke-linejoin="round"/>
<path d="M318.632 249.777L320.799 259.972H336.409L333.704 249.777H318.632Z" fill="#263238" stroke="white" stroke-linecap="round" stroke-linejoin="round"/>
<path d="M258.358 249.777L258.37 259.972H273.98L273.43 249.777H258.358Z" fill="#263238" stroke="white" stroke-linecap="round" stroke-linejoin="round"/>
<path d="M333.704 249.777L336.409 259.972H352.019L348.775 249.777H333.704Z" fill="#263238" stroke="white" stroke-linecap="round" stroke-linejoin="round"/>
<path d="M273.43 249.777L273.98 259.972H289.59L288.49 249.777H273.43Z" fill="#263238" stroke="white" stroke-linecap="round" stroke-linejoin="round"/>
<path d="M198.084 249.777L195.929 259.972H211.539L213.144 249.777H198.084Z" fill="#263238" stroke="white" stroke-linecap="round" stroke-linejoin="round"/>
<path d="M183.013 249.777L180.319 259.972H195.929L198.084 249.777H183.013Z" fill="#263238" stroke="white" stroke-linecap="round" stroke-linejoin="round"/>
<path d="M243.287 249.777L242.76 259.972H258.37L258.358 249.777H243.287Z" fill="#263238" stroke="white" stroke-linecap="round" stroke-linejoin="round"/>
<path d="M228.215 249.777L227.15 259.972H242.76L243.287 249.777H228.215Z" fill="#263238" stroke="white" stroke-linecap="round" stroke-linejoin="round"/>
<path d="M213.144 249.777L211.539 259.972H227.15L228.215 249.777H213.144Z" fill="#263238" stroke="white" stroke-linecap="round" stroke-linejoin="round"/>
<path d="M333.704 249.777L331.171 240.266H316.604L318.632 249.777H333.704Z" fill="#263238" stroke="white" stroke-linecap="round" stroke-linejoin="round"/>
<path d="M159.678 231.366L163.047 222.248H149.432L145.592 231.366H159.678Z" fill="#263238" stroke="white" stroke-linecap="round" stroke-linejoin="round"/>
<path d="M145.592 231.366H132.572L128.377 240.266H141.821L145.592 231.366Z" fill="#263238" stroke="white" stroke-linecap="round" stroke-linejoin="round"/>
<path d="M149.432 222.248H136.87L132.572 231.366H145.592L149.432 222.248Z" fill="#263238" stroke="white" stroke-linecap="round" stroke-linejoin="round"/>
<path d="M141.821 240.266H128.377L123.896 249.777H137.798L141.821 240.266Z" fill="#263238" stroke="white" stroke-linecap="round" stroke-linejoin="round"/>
<path d="M137.798 249.777H123.896L119.082 259.972H133.489L137.798 249.777Z" fill="#263238" stroke="white" stroke-linecap="round" stroke-linejoin="round"/>
<path d="M133.489 259.972H119.082L113.913 270.934H128.859L133.489 259.972Z" fill="#263238" stroke="white" stroke-linecap="round" stroke-linejoin="round"/>
<path d="M374.861 240.266L378.907 249.777H392.236L387.755 240.266H374.861Z" fill="#263238" stroke="white" stroke-linecap="round" stroke-linejoin="round"/>
<path d="M383.239 259.972H397.05L392.236 249.777H378.907L383.239 259.972Z" fill="#263238" stroke="white" stroke-linecap="round" stroke-linejoin="round"/>
<path d="M387.892 270.934H402.219L397.05 259.972H383.239L387.892 270.934Z" fill="#263238" stroke="white" stroke-linecap="round" stroke-linejoin="round"/>
<path d="M272.433 231.366L271.94 222.248H258.324L258.335 231.366H272.433Z" fill="#263238" stroke="white" stroke-linecap="round" stroke-linejoin="round"/>
<path d="M374.861 240.266H387.755L383.56 231.366H371.09L374.861 240.266Z" fill="#263238" stroke="white" stroke-linecap="round" stroke-linejoin="round"/>
<path d="M367.629 259.972H383.239L378.907 249.777H363.835L367.629 259.972Z" fill="#263238" stroke="white" stroke-linecap="round" stroke-linejoin="round"/>
<path d="M173.775 231.366L176.663 222.248H163.047L159.678 231.366H173.775Z" fill="#263238" stroke="white" stroke-linecap="round" stroke-linejoin="round"/>
<path d="M356.993 231.366L360.305 240.266H374.861L371.09 231.366H356.993Z" fill="#263238" stroke="white" stroke-linecap="round" stroke-linejoin="round"/>
<path d="M383.56 231.366L379.262 222.248H367.216L371.09 231.366H383.56Z" fill="#263238" stroke="white" stroke-linecap="round" stroke-linejoin="round"/>
<path d="M371.09 231.366L367.216 222.248H353.612L356.993 231.366H371.09Z" fill="#263238" stroke="white" stroke-linecap="round" stroke-linejoin="round"/>
<path d="M320.799 259.972L323.137 270.934H339.32L336.409 259.972H320.799Z" fill="#263238" stroke="white" stroke-linecap="round" stroke-linejoin="round"/>
<path d="M371.697 270.934H387.892L383.239 259.972H367.629L371.697 270.934Z" fill="#263238" stroke="white" stroke-linecap="round" stroke-linejoin="round"/>
<path d="M356.993 231.366L353.612 222.248H339.996L342.896 231.366H356.993Z" fill="#263238" stroke="white" stroke-linecap="round" stroke-linejoin="round"/>
<path d="M352.019 259.972L355.514 270.934H371.698L367.629 259.972H352.019Z" fill="#263238" stroke="white" stroke-linecap="round" stroke-linejoin="round"/>
<path d="M336.409 259.972L339.32 270.934H355.514L352.019 259.972H336.409Z" fill="#263238" stroke="white" stroke-linecap="round" stroke-linejoin="round"/>
<path d="M363.835 249.777H378.907L374.861 240.266H360.305L363.835 249.777Z" fill="#263238" stroke="white" stroke-linecap="round" stroke-linejoin="round"/>
<path d="M230.152 231.366L231.104 222.248H217.488L216.055 231.366H230.152Z" fill="#263238" stroke="white" stroke-linecap="round" stroke-linejoin="round"/>
<path d="M342.896 231.366L339.996 222.248H326.38L328.81 231.366H342.896Z" fill="#263238" stroke="white" stroke-linecap="round" stroke-linejoin="round"/>
<path d="M216.055 231.366L217.488 222.248H203.883L201.958 231.366H216.055Z" fill="#263238" stroke="white" stroke-linecap="round" stroke-linejoin="round"/>
<path d="M258.335 231.366L258.324 222.248H244.719L244.238 231.366H258.335Z" fill="#263238" stroke="white" stroke-linecap="round" stroke-linejoin="round"/>
<path d="M201.958 231.366L203.883 222.248H190.268L187.872 231.366H201.958Z" fill="#263238" stroke="white" stroke-linecap="round" stroke-linejoin="round"/>
<path d="M187.872 231.366L190.268 222.248H176.663L173.775 231.366H187.872Z" fill="#263238" stroke="white" stroke-linecap="round" stroke-linejoin="round"/>
<path d="M244.238 231.366L244.719 222.248H231.104L230.152 231.366H244.238Z" fill="#263238" stroke="white" stroke-linecap="round" stroke-linejoin="round"/>
<path d="M328.81 231.366L326.38 222.248H312.776L314.713 231.366H328.81Z" fill="#263238" stroke="white" stroke-linecap="round" stroke-linejoin="round"/>
<path d="M314.713 231.366L312.776 222.248H299.16L300.615 231.366H314.713Z" fill="#263238" stroke="white" stroke-linecap="round" stroke-linejoin="round"/>
<path d="M286.53 231.366L285.544 222.248H271.94L272.433 231.366H286.53Z" fill="#263238" stroke="white" stroke-linecap="round" stroke-linejoin="round"/>
<path d="M320.799 259.972H305.188H289.59H273.98H258.37H242.76H227.15H211.539H195.929H180.319H164.709L161.248 270.934H177.431H193.626H209.809H226.003H242.187H258.381H274.564H290.759H306.942H323.137L320.799 259.972Z" fill="#263238" stroke="white" stroke-linecap="round" stroke-linejoin="round"/>
<path d="M300.615 231.366L299.16 222.248H285.544L286.53 231.366H300.615Z" fill="#263238" stroke="white" stroke-linecap="round" stroke-linejoin="round"/>
<path d="M428.442 290.174H81.5242V294.629H428.442V290.174Z" fill="#263238" stroke="#263238" stroke-linecap="round" stroke-linejoin="round"/>
<path d="M312.088 368.689L186.44 369.591C183.758 369.591 181.855 368.161 182.187 366.369L190.21 323.785C190.462 322.438 192.502 321.35 194.795 321.34L302.449 320.894C304.741 320.894 306.77 321.931 307.034 323.288L316.203 365.446C316.558 367.208 314.69 368.679 312.088 368.689Z" fill="#FF725E" stroke="#263238" stroke-linecap="round" stroke-linejoin="round"/>
<path d="M252.513 328.541H291.928" stroke="#263238" stroke-linecap="round" stroke-linejoin="round"/>
<path d="M232.181 331.556H291.928" stroke="#263238" stroke-linecap="round" stroke-linejoin="round"/>
<path d="M230.553 357.583C206.646 364.462 191.333 365.685 182.417 365.281L182.13 366.814C181.844 368.358 183.483 369.612 185.786 369.591L312.776 368.689C315.068 368.689 316.615 367.415 316.283 365.882L310.793 340.497C277.624 339.731 268.043 346.807 230.553 357.583Z" fill="#263238" stroke="#263238" stroke-linecap="round" stroke-linejoin="round"/>
<path d="M210.015 339.389L200.101 339.441C199.173 339.441 198.497 338.985 198.588 338.404L199.436 332.706C199.528 332.167 200.319 331.722 201.213 331.722L210.886 331.67C211.78 331.67 212.456 332.105 212.399 332.644L211.792 338.332C211.734 338.912 210.932 339.378 210.015 339.389Z" fill="white" stroke="#263238" stroke-linecap="round" stroke-linejoin="round"/>
<path d="M206.634 336.726H204.181C203.734 336.726 203.402 336.508 203.436 336.239L203.631 334.83C203.631 334.561 204.055 334.343 204.491 334.343H206.955C207.402 334.343 207.734 334.561 207.7 334.82L207.528 336.229C207.471 336.477 207.081 336.726 206.634 336.726Z" fill="white" stroke="#263238" stroke-linecap="round" stroke-linejoin="round"/>
<path d="M199.459 332.582H203.264C203.998 332.582 204.548 332.934 204.491 333.39L204.365 334.344" stroke="#263238" stroke-linecap="round" stroke-linejoin="round"/>
<path d="M212.422 332.582H208.674C207.929 332.582 207.287 332.944 207.23 333.39L207.115 334.354" stroke="#263238" stroke-linecap="round" stroke-linejoin="round"/>
<path d="M198.554 338.633H202.428C203.184 338.633 203.849 338.25 203.906 337.783L204.032 336.809" stroke="#263238" stroke-linecap="round" stroke-linejoin="round"/>
<path d="M211.769 338.561H207.952C207.196 338.561 206.623 338.198 206.68 337.731L206.806 336.747" stroke="#263238" stroke-linecap="round" stroke-linejoin="round"/>
<path d="M199.012 335.731L203.505 335.711" stroke="#263238" stroke-linecap="round" stroke-linejoin="round"/>
<path d="M207.459 335.69L211.941 335.669" stroke="#263238" stroke-linecap="round" stroke-linejoin="round"/>
<path d="M197.522 351.397C197.326 351.338 197.144 351.246 196.984 351.128C196.855 351.009 196.753 350.868 196.686 350.713C196.619 350.55 196.58 350.379 196.571 350.205C196.549 350.02 196.549 349.832 196.571 349.646C196.574 349.385 196.638 349.127 196.758 348.89C196.877 348.652 197.051 348.439 197.266 348.266C197.482 348.092 197.736 347.961 198.011 347.881C198.286 347.801 198.576 347.774 198.863 347.802C200.17 347.802 200.743 348.403 200.571 349.625C200.548 349.815 200.506 350.002 200.445 350.185C200.383 350.361 200.294 350.528 200.181 350.682C200.068 350.845 199.925 350.988 199.757 351.107C199.574 351.231 199.368 351.325 199.15 351.387C198.881 351.454 198.604 351.489 198.325 351.49C198.054 351.496 197.783 351.465 197.522 351.397V351.397ZM198.772 351.034C198.884 351 198.991 350.955 199.093 350.9C199.177 350.842 199.254 350.776 199.322 350.703C199.395 350.627 199.456 350.544 199.505 350.454C199.554 350.368 199.593 350.278 199.62 350.185C199.62 350.081 199.677 349.988 199.7 349.905C199.707 349.812 199.707 349.718 199.7 349.625C199.7 349.522 199.7 349.428 199.7 349.346V349.066C199.707 348.973 199.707 348.879 199.7 348.786C199.676 348.707 199.641 348.63 199.597 348.558C199.548 348.484 199.486 348.417 199.413 348.361C199.329 348.311 199.236 348.273 199.138 348.247C199.013 348.226 198.885 348.226 198.76 348.247C198.627 348.231 198.492 348.231 198.359 348.247C198.25 348.276 198.146 348.318 198.05 348.372C197.962 348.426 197.885 348.492 197.82 348.568C197.748 348.634 197.69 348.711 197.648 348.796C197.598 348.886 197.555 348.98 197.522 349.076C197.488 349.167 197.461 349.261 197.442 349.356C197.436 349.453 197.436 349.549 197.442 349.646V349.915V350.195C197.435 350.288 197.435 350.382 197.442 350.475C197.466 350.558 197.501 350.638 197.545 350.713C197.587 350.789 197.645 350.856 197.717 350.91C197.802 350.964 197.894 351.006 197.992 351.034C198.121 351.056 198.253 351.056 198.382 351.034C198.511 351.05 198.642 351.05 198.772 351.034V351.034Z" fill="white"/>
<path d="M203.035 351.356C202.834 351.307 202.649 351.214 202.497 351.086C202.357 350.973 202.251 350.831 202.187 350.672C202.116 350.513 202.073 350.345 202.061 350.174C202.039 349.988 202.039 349.801 202.061 349.615C202.06 349.359 202.118 349.106 202.231 348.871C202.344 348.637 202.51 348.426 202.718 348.253C202.926 348.079 203.172 347.947 203.439 347.864C203.707 347.781 203.991 347.749 204.273 347.771C205.591 347.771 206.164 348.361 206.015 349.594C205.996 349.783 205.958 349.971 205.9 350.154C205.836 350.329 205.748 350.496 205.637 350.651C205.525 350.808 205.39 350.951 205.236 351.076C205.053 351.198 204.847 351.289 204.628 351.345C204.361 351.422 204.083 351.46 203.803 351.459C203.542 351.464 203.283 351.429 203.035 351.356ZM204.273 350.993C204.386 350.967 204.495 350.925 204.594 350.869C204.681 350.81 204.758 350.74 204.823 350.661C204.891 350.588 204.949 350.508 204.995 350.423C205.042 350.337 205.08 350.246 205.11 350.154C205.11 350.05 205.167 349.957 205.19 349.874V349.594C205.19 349.491 205.19 349.397 205.19 349.314C205.195 349.218 205.195 349.121 205.19 349.024C205.196 348.935 205.196 348.845 205.19 348.755C205.166 348.674 205.127 348.597 205.075 348.527C205.031 348.45 204.968 348.383 204.892 348.33C204.807 348.28 204.714 348.242 204.617 348.216C204.492 348.195 204.364 348.195 204.239 348.216C204.106 348.2 203.971 348.2 203.837 348.216C203.731 348.243 203.631 348.285 203.539 348.34C203.446 348.392 203.365 348.459 203.299 348.537C203.234 348.608 203.176 348.685 203.127 348.765C203.127 348.848 203.047 348.941 203.012 349.045C202.978 349.149 203.012 349.242 202.932 349.325C202.852 349.408 202.932 349.511 202.932 349.615C202.927 349.705 202.927 349.795 202.932 349.884V350.195C202.925 350.288 202.925 350.382 202.932 350.475C202.958 350.559 202.996 350.639 203.047 350.713C203.091 350.787 203.149 350.854 203.219 350.91C203.306 350.966 203.403 351.008 203.505 351.034C203.634 351.051 203.766 351.051 203.895 351.034C204.023 351.041 204.151 351.027 204.273 350.993V350.993Z" fill="white"/>
<path d="M208.537 351.324C208.337 351.273 208.152 351.181 207.998 351.055C207.859 350.942 207.753 350.8 207.688 350.641C207.608 350.484 207.561 350.315 207.551 350.143C207.528 349.957 207.528 349.77 207.551 349.584C207.543 349.329 207.595 349.076 207.704 348.84C207.813 348.605 207.975 348.393 208.181 348.219C208.387 348.045 208.631 347.912 208.898 347.829C209.165 347.747 209.448 347.716 209.729 347.74C211.035 347.74 211.631 348.33 211.505 349.563C211.486 349.752 211.447 349.94 211.39 350.123C211.33 350.296 211.249 350.462 211.15 350.62C211.04 350.779 210.9 350.919 210.737 351.034C210.559 351.16 210.357 351.255 210.141 351.314C209.878 351.391 209.604 351.43 209.327 351.428C209.059 351.433 208.792 351.398 208.537 351.324V351.324ZM209.774 350.962C209.885 350.937 209.989 350.895 210.084 350.837C210.175 350.779 210.256 350.71 210.325 350.63C210.389 350.557 210.443 350.477 210.485 350.392C210.53 350.305 210.568 350.215 210.6 350.123C210.6 350.019 210.623 349.926 210.668 349.843V349.563C210.668 349.459 210.668 349.366 210.668 349.283C210.674 349.187 210.674 349.09 210.668 348.993C210.661 348.902 210.642 348.811 210.611 348.724C210.587 348.643 210.549 348.565 210.496 348.496C210.455 348.417 210.392 348.349 210.313 348.299C210.229 348.247 210.136 348.208 210.038 348.185C209.912 348.15 209.78 348.133 209.648 348.133C209.517 348.139 209.386 348.156 209.259 348.185C209.153 348.212 209.052 348.254 208.961 348.309C208.874 348.36 208.797 348.423 208.731 348.496C208.666 348.57 208.609 348.65 208.559 348.734C208.514 348.821 208.476 348.912 208.445 349.004C208.412 349.098 208.389 349.195 208.376 349.294C208.369 349.39 208.369 349.487 208.376 349.584C208.376 349.677 208.376 349.77 208.376 349.853C208.371 349.946 208.371 350.04 208.376 350.133C208.369 350.226 208.369 350.32 208.376 350.413C208.407 350.495 208.445 350.575 208.491 350.651C208.539 350.722 208.601 350.786 208.674 350.837C208.761 350.897 208.857 350.942 208.961 350.972C209.09 350.989 209.221 350.989 209.35 350.972C209.491 350.988 209.634 350.985 209.774 350.962V350.962Z" fill="white"/>
<path d="M214.038 351.293C213.838 351.242 213.654 351.15 213.499 351.024C213.361 350.908 213.251 350.767 213.178 350.61C213.102 350.451 213.052 350.284 213.029 350.112C213.018 349.926 213.018 349.739 213.029 349.553C213.018 349.299 213.067 349.046 213.173 348.811C213.279 348.575 213.44 348.363 213.644 348.189C213.848 348.014 214.091 347.881 214.356 347.798C214.622 347.715 214.904 347.685 215.184 347.709C216.491 347.709 217.098 348.299 216.983 349.532C216.974 349.718 216.94 349.903 216.88 350.081C216.831 350.259 216.754 350.43 216.651 350.589C216.546 350.747 216.41 350.888 216.25 351.003C216.071 351.127 215.869 351.222 215.654 351.283C215.39 351.355 215.116 351.394 214.84 351.397C214.568 351.404 214.297 351.368 214.038 351.293V351.293ZM215.276 350.931C215.387 350.903 215.492 350.857 215.585 350.796C215.672 350.742 215.75 350.675 215.814 350.599C215.872 350.516 215.929 350.444 215.975 350.361L216.078 350.092C216.078 349.988 216.101 349.895 216.147 349.812V349.532C216.147 349.428 216.147 349.335 216.147 349.242C216.152 349.149 216.152 349.055 216.147 348.962C216.131 348.871 216.108 348.781 216.078 348.693C216.057 348.611 216.018 348.533 215.963 348.465C215.918 348.388 215.856 348.321 215.78 348.268C215.695 348.212 215.597 348.173 215.493 348.154C215.368 348.137 215.241 348.137 215.115 348.154C214.982 348.138 214.847 348.138 214.714 348.154C214.608 348.181 214.507 348.223 214.416 348.278C214.332 348.332 214.255 348.395 214.187 348.465C214.13 348.548 214.072 348.62 214.026 348.703L213.923 348.973C213.891 349.067 213.868 349.164 213.855 349.263C213.855 349.346 213.855 349.439 213.855 349.542C213.855 349.646 213.855 349.739 213.855 349.822C213.849 349.915 213.849 350.009 213.855 350.102C213.865 350.193 213.884 350.283 213.912 350.371C213.938 350.455 213.977 350.535 214.026 350.61C214.076 350.687 214.142 350.754 214.221 350.806C214.303 350.864 214.396 350.907 214.496 350.931C214.622 350.97 214.754 350.987 214.886 350.983C215.018 350.981 215.149 350.964 215.276 350.931V350.931Z" fill="white"/>
<path d="M225.751 351.231C225.548 351.18 225.36 351.088 225.201 350.962C225.059 350.846 224.946 350.705 224.869 350.547C224.782 350.391 224.724 350.223 224.697 350.05C224.673 349.864 224.673 349.676 224.697 349.491C224.673 349.24 224.711 348.989 224.808 348.753C224.904 348.518 225.057 348.304 225.255 348.128C225.453 347.952 225.692 347.818 225.954 347.735C226.216 347.651 226.495 347.621 226.771 347.646C228.078 347.646 228.697 348.247 228.639 349.47C228.631 349.658 228.604 349.845 228.559 350.029C228.512 350.203 228.438 350.371 228.341 350.527C228.244 350.684 228.116 350.825 227.963 350.941C227.787 351.063 227.589 351.157 227.379 351.221C227.116 351.298 226.841 351.336 226.565 351.335C226.289 351.343 226.014 351.307 225.751 351.231V351.231ZM226.966 350.869C227.075 350.841 227.18 350.799 227.276 350.744C227.357 350.683 227.43 350.613 227.493 350.537C227.554 350.464 227.605 350.384 227.642 350.299C227.685 350.212 227.72 350.122 227.745 350.029C227.745 349.926 227.745 349.833 227.745 349.75C227.752 349.656 227.752 349.563 227.745 349.47C227.751 349.377 227.751 349.283 227.745 349.19C227.751 349.097 227.751 349.004 227.745 348.91C227.745 348.807 227.745 348.714 227.677 348.641C227.642 348.559 227.599 348.479 227.551 348.403C227.494 348.331 227.424 348.268 227.344 348.216C227.258 348.159 227.161 348.116 227.058 348.092C226.932 348.075 226.805 348.075 226.68 348.092C226.548 348.092 226.416 348.109 226.29 348.144C226.186 348.172 226.086 348.21 225.992 348.258C225.908 348.312 225.835 348.379 225.774 348.454C225.709 348.525 225.659 348.606 225.625 348.693C225.58 348.779 225.546 348.869 225.522 348.962C225.522 349.066 225.522 349.159 225.465 349.242C225.459 349.339 225.459 349.435 225.465 349.532C225.459 349.622 225.459 349.712 225.465 349.801C225.459 349.895 225.459 349.988 225.465 350.081C225.474 350.177 225.497 350.271 225.533 350.361C225.564 350.445 225.606 350.525 225.66 350.599C225.712 350.674 225.778 350.741 225.854 350.796C225.94 350.854 226.037 350.896 226.141 350.92C226.27 350.937 226.401 350.937 226.531 350.92C226.678 350.921 226.826 350.9 226.966 350.858V350.869Z" fill="white"/>
<path d="M231.241 351.231C231.035 351.178 230.844 351.086 230.68 350.962C230.538 350.846 230.424 350.705 230.347 350.547C230.256 350.393 230.197 350.224 230.175 350.05C230.151 349.864 230.151 349.676 230.175 349.491C230.14 349.243 230.167 348.991 230.253 348.753C230.34 348.516 230.484 348.299 230.675 348.118C230.866 347.937 231.099 347.797 231.358 347.709C231.617 347.62 231.894 347.584 232.169 347.605C233.476 347.605 234.106 348.206 234.061 349.428C234.064 349.789 233.969 350.145 233.785 350.465C233.688 350.622 233.56 350.763 233.407 350.879C233.236 351.003 233.042 351.098 232.834 351.159C232.57 351.231 232.296 351.269 232.02 351.273C231.76 351.296 231.497 351.282 231.241 351.231V351.231ZM232.456 350.869C232.565 350.843 232.666 350.797 232.754 350.734C232.84 350.682 232.914 350.615 232.972 350.537C233.033 350.464 233.083 350.384 233.121 350.299C233.158 350.211 233.189 350.121 233.212 350.029C233.212 349.926 233.212 349.833 233.212 349.75C233.212 349.667 233.212 349.573 233.212 349.47V349.159C233.218 349.066 233.218 348.973 233.212 348.879C233.199 348.788 233.176 348.698 233.144 348.61C233.109 348.525 233.063 348.445 233.006 348.372C232.953 348.3 232.887 348.237 232.811 348.185C232.724 348.129 232.627 348.087 232.525 348.061C232.396 348.044 232.264 348.044 232.135 348.061C232.006 348.044 231.875 348.044 231.745 348.061C231.645 348.092 231.549 348.134 231.459 348.185C231.373 348.237 231.299 348.304 231.241 348.382C231.179 348.451 231.129 348.528 231.092 348.61C231.053 348.701 231.023 348.794 231 348.89C231 348.993 231 349.087 230.943 349.169C230.886 349.252 230.943 349.356 230.943 349.46V349.729C230.932 349.822 230.932 349.916 230.943 350.009C230.953 350.104 230.976 350.198 231.012 350.288C231.04 350.37 231.083 350.447 231.138 350.516C231.191 350.591 231.256 350.658 231.333 350.713C231.42 350.769 231.517 350.811 231.619 350.838C231.745 350.877 231.877 350.894 232.009 350.889C232.161 350.89 232.312 350.869 232.456 350.827V350.869Z" fill="white"/>
<path d="M236.754 351.159C236.549 351.103 236.358 351.012 236.192 350.889C236.043 350.777 235.926 350.635 235.848 350.475C235.762 350.318 235.7 350.15 235.665 349.978C235.646 349.791 235.646 349.604 235.665 349.418C235.632 349.171 235.662 348.92 235.752 348.684C235.841 348.448 235.988 348.234 236.182 348.057C236.376 347.879 236.611 347.744 236.871 347.66C237.131 347.577 237.408 347.547 237.682 347.574C238.989 347.574 239.631 348.175 239.608 349.397C239.607 349.585 239.588 349.772 239.55 349.957C239.512 350.132 239.443 350.3 239.344 350.454C239.255 350.614 239.13 350.755 238.977 350.869C238.81 350.997 238.615 351.092 238.404 351.148C238.145 351.223 237.874 351.258 237.602 351.252C237.316 351.26 237.03 351.228 236.754 351.159ZM237.9 350.796C238.007 350.766 238.107 350.721 238.198 350.661C238.282 350.607 238.355 350.54 238.416 350.465C238.471 350.39 238.517 350.31 238.553 350.226C238.591 350.138 238.621 350.048 238.645 349.957C238.645 349.853 238.645 349.76 238.645 349.677C238.645 349.594 238.645 349.501 238.645 349.397C238.651 349.304 238.651 349.211 238.645 349.118C238.656 349.021 238.656 348.924 238.645 348.828C238.629 348.736 238.606 348.646 238.576 348.558C238.539 348.478 238.493 348.402 238.439 348.33C238.382 348.258 238.312 348.195 238.232 348.144C238.145 348.088 238.048 348.046 237.946 348.019C237.817 348.002 237.685 348.002 237.556 348.019C237.427 348.003 237.296 348.003 237.166 348.019C237.064 348.046 236.967 348.088 236.88 348.144C236.796 348.198 236.723 348.265 236.662 348.341C236.608 348.412 236.562 348.488 236.525 348.568C236.486 348.659 236.455 348.753 236.433 348.848C236.433 348.942 236.433 349.045 236.433 349.128C236.427 349.225 236.427 349.321 236.433 349.418C236.422 349.508 236.422 349.598 236.433 349.687C236.423 349.781 236.423 349.874 236.433 349.967C236.441 350.06 236.464 350.15 236.502 350.237C236.536 350.321 236.582 350.401 236.639 350.475C236.693 350.556 236.764 350.626 236.849 350.681C236.934 350.737 237.03 350.776 237.132 350.796C237.258 350.831 237.39 350.848 237.522 350.848C237.65 350.847 237.777 350.829 237.9 350.796V350.796Z" fill="white"/>
<path d="M242.209 351.128C242.005 351.07 241.815 350.979 241.648 350.858C241.499 350.744 241.378 350.603 241.292 350.444C241.206 350.287 241.144 350.119 241.109 349.947C241.072 349.762 241.053 349.575 241.052 349.387C241.013 349.141 241.038 348.891 241.123 348.655C241.208 348.419 241.352 348.204 241.543 348.026C241.735 347.848 241.968 347.711 242.227 347.628C242.485 347.544 242.762 347.515 243.035 347.543C244.341 347.543 244.994 348.144 244.994 349.366C245 349.551 244.981 349.735 244.937 349.915C244.904 350.092 244.842 350.263 244.754 350.423C244.661 350.581 244.537 350.721 244.387 350.838C244.222 350.964 244.031 351.059 243.825 351.117C243.565 351.186 243.295 351.221 243.023 351.221C242.748 351.225 242.474 351.193 242.209 351.128V351.128ZM243.413 350.765C243.518 350.731 243.618 350.685 243.711 350.63C243.793 350.578 243.864 350.511 243.917 350.433C243.972 350.359 244.018 350.279 244.055 350.195C244.095 350.105 244.122 350.011 244.135 349.915C244.135 349.822 244.135 349.729 244.135 349.646C244.135 349.563 244.135 349.47 244.135 349.366C244.135 349.263 244.135 349.169 244.135 349.087C244.135 349.004 244.135 348.9 244.135 348.796C244.115 348.705 244.088 348.615 244.055 348.527C244.018 348.447 243.972 348.371 243.917 348.299C243.86 348.227 243.791 348.164 243.711 348.113C243.624 348.057 243.527 348.015 243.424 347.988C243.295 347.972 243.164 347.972 243.035 347.988C242.905 347.971 242.774 347.971 242.645 347.988C242.542 348.015 242.446 348.057 242.358 348.113C242.276 348.165 242.206 348.232 242.152 348.309C242.09 348.378 242.04 348.455 242.003 348.537C242.003 348.62 241.946 348.714 241.923 348.817C241.917 348.91 241.917 349.004 241.923 349.097C241.923 349.18 241.923 349.283 241.923 349.377C241.923 349.47 241.923 349.574 241.923 349.656C241.923 349.739 241.923 349.833 241.923 349.936C241.941 350.028 241.968 350.118 242.003 350.206C242.037 350.29 242.084 350.37 242.141 350.444C242.194 350.521 242.264 350.588 242.347 350.641C242.437 350.698 242.538 350.74 242.645 350.765C242.771 350.8 242.903 350.817 243.035 350.817C243.163 350.815 243.29 350.798 243.413 350.765V350.765Z" fill="white"/>
<path d="M253.946 351.055C253.732 351.004 253.533 350.912 253.361 350.786C253.212 350.669 253.088 350.529 252.994 350.371C252.902 350.214 252.833 350.047 252.788 349.874C252.74 349.691 252.717 349.503 252.719 349.314C252.719 348.092 253.327 347.481 254.633 347.481C254.905 347.451 255.181 347.477 255.44 347.557C255.699 347.638 255.934 347.77 256.128 347.945C256.323 348.119 256.47 348.331 256.561 348.565C256.651 348.799 256.682 349.048 256.65 349.294C256.674 349.48 256.674 349.667 256.65 349.853C256.625 350.027 256.567 350.195 256.479 350.351C256.401 350.511 256.284 350.653 256.135 350.765C255.974 350.891 255.787 350.986 255.585 351.045C255.06 351.176 254.505 351.176 253.98 351.045L253.946 351.055ZM255.092 350.692C255.292 350.635 255.466 350.518 255.585 350.361C255.638 350.287 255.68 350.207 255.711 350.123C255.747 350.036 255.77 349.945 255.779 349.853C255.779 349.75 255.779 349.656 255.779 349.573V349.304C255.779 349.2 255.779 349.097 255.779 349.014C255.779 348.931 255.779 348.838 255.779 348.734C255.779 348.631 255.722 348.548 255.688 348.465L255.539 348.227C255.475 348.157 255.402 348.094 255.321 348.04C255.234 347.984 255.137 347.942 255.034 347.916C254.905 347.905 254.774 347.905 254.645 347.916C254.513 347.915 254.381 347.933 254.255 347.968C254.152 347.994 254.056 348.036 253.969 348.092C253.895 348.146 253.83 348.209 253.774 348.278C253.719 348.353 253.673 348.433 253.636 348.517C253.636 348.589 253.636 348.682 253.567 348.786C253.557 348.879 253.557 348.973 253.567 349.066V349.356C253.561 349.446 253.561 349.536 253.567 349.625C253.556 349.718 253.556 349.812 253.567 349.905C253.586 350 253.613 350.094 253.648 350.185C253.693 350.263 253.743 350.339 253.797 350.413C253.854 350.491 253.928 350.557 254.014 350.61C254.104 350.667 254.205 350.709 254.312 350.734C254.441 350.756 254.573 350.756 254.702 350.734C254.833 350.737 254.965 350.723 255.092 350.692Z" fill="white"/>
<path d="M259.355 351.024C259.143 350.969 258.945 350.877 258.771 350.755C258.618 350.641 258.494 350.5 258.404 350.34C258.307 350.184 258.234 350.017 258.186 349.843C258.14 349.659 258.113 349.472 258.106 349.283C258.049 348.061 258.679 347.45 259.986 347.45C260.259 347.421 260.536 347.447 260.796 347.528C261.056 347.608 261.293 347.74 261.49 347.914C261.687 348.087 261.838 348.299 261.933 348.532C262.027 348.766 262.063 349.015 262.037 349.263C262.055 349.449 262.055 349.636 262.037 349.822C262.011 349.994 261.956 350.162 261.877 350.319C261.792 350.476 261.675 350.616 261.533 350.734C261.372 350.86 261.185 350.955 260.983 351.014C260.724 351.089 260.452 351.124 260.181 351.117C259.902 351.122 259.624 351.091 259.355 351.024V351.024ZM260.501 350.661C260.605 350.631 260.702 350.586 260.788 350.527C260.864 350.471 260.93 350.405 260.983 350.33C261.034 350.255 261.076 350.175 261.109 350.092C261.144 350.005 261.167 349.914 261.178 349.822C261.178 349.719 261.178 349.625 261.178 349.542V349.263C261.178 349.159 261.178 349.066 261.178 348.983C261.17 348.888 261.15 348.794 261.12 348.703C261.082 348.52 261 348.347 260.88 348.196C260.819 348.123 260.745 348.06 260.662 348.009C260.571 347.953 260.47 347.911 260.364 347.885C260.234 347.873 260.104 347.873 259.974 347.885C259.849 347.868 259.721 347.868 259.596 347.885C259.493 347.911 259.397 347.953 259.309 348.009C259.236 348.064 259.171 348.126 259.115 348.196C259.059 348.268 259.016 348.349 258.989 348.434C258.951 348.52 258.928 348.611 258.92 348.703C258.92 348.807 258.92 348.9 258.92 348.983C258.908 349.079 258.908 349.177 258.92 349.273C258.914 349.363 258.914 349.453 258.92 349.542C258.92 349.625 258.92 349.719 258.92 349.822C258.94 349.915 258.971 350.005 259.012 350.092C259.054 350.177 259.108 350.257 259.172 350.33C259.225 350.407 259.296 350.474 259.378 350.527C259.469 350.582 259.57 350.624 259.676 350.651C259.807 350.685 259.942 350.702 260.077 350.703C260.232 350.712 260.387 350.698 260.536 350.661H260.501Z" fill="white"/>
<path d="M264.822 350.993C264.61 350.937 264.412 350.846 264.238 350.724C264.085 350.607 263.957 350.467 263.86 350.309C263.759 350.153 263.682 349.986 263.63 349.812C263.58 349.628 263.55 349.441 263.539 349.252C263.47 348.03 264.089 347.418 265.384 347.418C265.659 347.388 265.938 347.414 266.2 347.493C266.463 347.573 266.703 347.704 266.903 347.878C267.102 348.051 267.257 348.263 267.355 348.497C267.453 348.731 267.492 348.982 267.47 349.232C267.487 349.414 267.487 349.598 267.47 349.781C267.449 349.956 267.398 350.127 267.321 350.288C267.237 350.442 267.124 350.583 266.988 350.703C266.828 350.829 266.641 350.924 266.438 350.983C266.182 351.052 265.915 351.087 265.647 351.086C265.369 351.091 265.091 351.059 264.822 350.993V350.993ZM265.968 350.63C266.07 350.596 266.166 350.551 266.255 350.496C266.334 350.443 266.4 350.376 266.45 350.299C266.501 350.224 266.543 350.144 266.576 350.06C266.582 349.971 266.582 349.881 266.576 349.791C266.576 349.687 266.576 349.594 266.576 349.511C266.581 349.418 266.581 349.325 266.576 349.232V348.952C266.562 348.858 266.543 348.764 266.519 348.672C266.5 348.578 266.465 348.487 266.415 348.403C266.375 348.319 266.325 348.239 266.266 348.164C266.202 348.094 266.129 348.032 266.049 347.978C265.956 347.924 265.856 347.882 265.751 347.854C265.621 347.843 265.491 347.843 265.361 347.854C265.229 347.853 265.098 347.871 264.971 347.905C264.872 347.932 264.779 347.974 264.696 348.03C264.62 348.081 264.554 348.144 264.501 348.216C264.448 348.29 264.406 348.371 264.375 348.455C264.367 348.544 264.367 348.634 264.375 348.724C264.365 348.817 264.365 348.911 264.375 349.004V349.294V349.563C264.385 349.658 264.404 349.751 264.433 349.843C264.453 349.935 264.484 350.026 264.524 350.112C264.567 350.197 264.621 350.277 264.685 350.351C264.742 350.428 264.816 350.495 264.902 350.547C264.994 350.603 265.094 350.645 265.2 350.672C265.327 350.706 265.458 350.723 265.59 350.724C265.728 350.712 265.864 350.68 265.991 350.63H265.968Z" fill="white"/>
<path d="M270.289 350.951C270.078 350.899 269.88 350.811 269.705 350.692C269.548 350.577 269.416 350.436 269.315 350.278C269.211 350.122 269.13 349.955 269.074 349.781C269.025 349.597 268.995 349.41 268.983 349.221C268.879 347.999 269.487 347.387 270.794 347.387C271.069 347.36 271.348 347.387 271.611 347.467C271.873 347.547 272.114 347.678 272.314 347.85C272.515 348.023 272.672 348.234 272.774 348.467C272.875 348.7 272.919 348.95 272.902 349.2C272.925 349.383 272.925 349.567 272.902 349.75C272.881 349.925 272.831 350.096 272.753 350.257C272.677 350.413 272.568 350.554 272.432 350.672C272.278 350.798 272.094 350.89 271.894 350.941C271.639 351.019 271.372 351.058 271.103 351.055C270.827 351.061 270.552 351.026 270.289 350.951V350.951ZM271.435 350.599C271.537 350.565 271.633 350.52 271.722 350.465C271.798 350.409 271.864 350.343 271.917 350.268C271.962 350.191 272.001 350.112 272.031 350.029C272.039 349.936 272.039 349.843 272.031 349.75C272.037 349.66 272.037 349.57 272.031 349.48C272.037 349.387 272.037 349.294 272.031 349.2V348.921C272.019 348.826 271.996 348.732 271.963 348.641C271.944 348.547 271.909 348.456 271.859 348.372C271.818 348.286 271.764 348.206 271.699 348.133C271.638 348.061 271.564 347.998 271.481 347.947C271.39 347.891 271.289 347.849 271.183 347.822C271.054 347.806 270.923 347.806 270.794 347.822C270.662 347.822 270.53 347.84 270.404 347.874C270.306 347.903 270.213 347.945 270.129 347.999C269.984 348.111 269.876 348.258 269.819 348.423C269.791 348.512 269.772 348.602 269.762 348.693C269.762 348.796 269.762 348.89 269.762 348.973C269.762 349.055 269.762 349.159 269.762 349.263C269.756 349.352 269.756 349.442 269.762 349.532C269.762 349.615 269.762 349.708 269.831 349.812C269.851 349.905 269.886 349.996 269.934 350.081C269.975 350.167 270.029 350.247 270.094 350.319C270.152 350.397 270.226 350.464 270.312 350.516C270.403 350.572 270.504 350.614 270.61 350.641C270.743 350.662 270.879 350.662 271.011 350.641C271.158 350.649 271.305 350.635 271.447 350.599H271.435Z" fill="white"/>
<path d="M281.922 350.889C281.704 350.831 281.499 350.74 281.315 350.62C281.158 350.502 281.023 350.362 280.914 350.206C280.802 350.052 280.717 349.885 280.662 349.708C280.603 349.526 280.564 349.338 280.547 349.149C280.409 347.936 280.982 347.325 282.289 347.315C282.567 347.29 282.848 347.319 283.113 347.399C283.378 347.479 283.622 347.609 283.827 347.78C284.033 347.951 284.196 348.16 284.306 348.392C284.417 348.625 284.471 348.875 284.467 349.128C284.489 349.314 284.489 349.502 284.467 349.688C284.452 349.858 284.41 350.026 284.341 350.185C284.276 350.341 284.174 350.482 284.043 350.599C283.886 350.725 283.703 350.82 283.504 350.879C283.248 350.95 282.981 350.985 282.713 350.983C282.446 350.985 282.18 350.953 281.922 350.889V350.889ZM283.068 350.527C283.167 350.494 283.26 350.449 283.343 350.392C283.419 350.339 283.482 350.272 283.527 350.195C283.571 350.12 283.606 350.04 283.63 349.957C283.657 349.869 283.676 349.779 283.687 349.688V349.408C283.693 349.318 283.693 349.228 283.687 349.138C283.687 349.035 283.687 348.942 283.687 348.848C283.687 348.755 283.687 348.672 283.607 348.569C283.578 348.476 283.539 348.386 283.492 348.299C283.447 348.219 283.394 348.142 283.332 348.071C283.267 347.998 283.19 347.935 283.103 347.885C283.006 347.831 282.902 347.789 282.793 347.76C282.664 347.744 282.533 347.744 282.404 347.76C282.278 347.744 282.151 347.744 282.025 347.76C281.925 347.785 281.832 347.827 281.75 347.885C281.678 347.941 281.616 348.007 281.567 348.082C281.517 348.152 281.479 348.229 281.452 348.309C281.445 348.399 281.445 348.489 281.452 348.579C281.447 348.672 281.447 348.765 281.452 348.859C281.452 348.952 281.452 349.045 281.452 349.149V349.418C281.474 349.513 281.501 349.606 281.533 349.698C281.556 349.791 281.591 349.881 281.636 349.967C281.682 350.053 281.74 350.133 281.808 350.206C281.869 350.284 281.947 350.351 282.037 350.402C282.131 350.46 282.236 350.502 282.346 350.527C282.473 350.561 282.604 350.578 282.736 350.579C282.849 350.574 282.96 350.557 283.068 350.527V350.527Z" fill="white"/>
<path d="M287.366 350.858C287.154 350.796 286.953 350.705 286.77 350.589C286.607 350.474 286.467 350.333 286.358 350.174C286.247 350.019 286.158 349.852 286.094 349.677C286.031 349.495 285.989 349.307 285.968 349.118C285.808 347.905 286.381 347.294 287.676 347.284C287.956 347.259 288.238 347.288 288.505 347.368C288.772 347.448 289.017 347.577 289.226 347.748C289.434 347.919 289.6 348.127 289.714 348.359C289.828 348.591 289.887 348.843 289.888 349.097C289.904 349.283 289.904 349.47 289.888 349.656C289.877 349.826 289.839 349.994 289.773 350.154C289.706 350.308 289.604 350.449 289.475 350.568C289.325 350.694 289.145 350.787 288.948 350.838C288.694 350.917 288.426 350.956 288.157 350.952C287.89 350.953 287.624 350.921 287.366 350.858V350.858ZM288.512 350.496C288.611 350.464 288.704 350.418 288.787 350.361C288.86 350.305 288.922 350.238 288.971 350.164C289.064 350.008 289.111 349.833 289.108 349.656C289.12 349.563 289.12 349.47 289.108 349.377C289.114 349.287 289.114 349.197 289.108 349.107C289.096 349.01 289.077 348.913 289.051 348.817C289.038 348.721 289.011 348.627 288.971 348.537C288.942 348.445 288.903 348.355 288.856 348.268C288.81 348.186 288.752 348.109 288.684 348.04C288.62 347.964 288.542 347.898 288.455 347.843C288.356 347.797 288.252 347.759 288.146 347.729C288.016 347.713 287.885 347.713 287.756 347.729C287.631 347.713 287.503 347.713 287.378 347.729C287.28 347.758 287.187 347.8 287.103 347.854C287.033 347.906 286.975 347.969 286.931 348.04C286.878 348.113 286.84 348.194 286.816 348.278C286.809 348.368 286.809 348.458 286.816 348.548C286.811 348.641 286.811 348.734 286.816 348.828V349.118C286.81 349.207 286.81 349.297 286.816 349.387C286.833 349.482 286.86 349.576 286.896 349.667C286.924 349.76 286.962 349.85 287.011 349.936C287.057 350.022 287.115 350.102 287.183 350.174C287.245 350.253 287.322 350.32 287.412 350.371C287.506 350.429 287.611 350.471 287.722 350.496C287.851 350.512 287.982 350.512 288.111 350.496C288.245 350.509 288.379 350.509 288.512 350.496V350.496Z" fill="white"/>
<path d="M292.822 350.817C292.602 350.763 292.396 350.672 292.214 350.547C292.047 350.451 291.896 350.332 291.767 350.195C291.657 350.04 291.568 349.873 291.504 349.698C291.442 349.515 291.396 349.328 291.366 349.138C291.183 347.926 291.744 347.315 293.04 347.304C293.324 347.276 293.613 347.301 293.886 347.378C294.16 347.456 294.412 347.584 294.628 347.754C294.843 347.925 295.017 348.134 295.139 348.369C295.26 348.604 295.326 348.859 295.332 349.118C295.342 349.301 295.342 349.484 295.332 349.667C295.323 349.84 295.284 350.012 295.217 350.174C295.154 350.329 295.056 350.47 294.931 350.589C294.783 350.717 294.601 350.81 294.403 350.858C294.153 350.937 293.889 350.975 293.624 350.972C293.349 350.959 293.078 350.907 292.822 350.817V350.817ZM293.968 350.454C294.066 350.425 294.159 350.383 294.243 350.33C294.313 350.274 294.371 350.207 294.415 350.133C294.508 349.977 294.555 349.802 294.552 349.625V349.346V349.076C294.552 348.973 294.552 348.869 294.495 348.786C294.472 348.691 294.441 348.597 294.403 348.506C294.374 348.414 294.336 348.323 294.289 348.237C294.238 348.154 294.177 348.078 294.106 348.009C294.041 347.933 293.964 347.867 293.876 347.812C293.777 347.766 293.673 347.728 293.567 347.698C293.438 347.682 293.306 347.682 293.177 347.698C293.052 347.68 292.924 347.68 292.799 347.698C292.7 347.725 292.607 347.767 292.524 347.822C292.455 347.875 292.396 347.938 292.352 348.009C292.308 348.085 292.273 348.165 292.249 348.247C292.236 348.337 292.236 348.427 292.249 348.517C292.237 348.61 292.237 348.703 292.249 348.796C292.238 348.893 292.238 348.99 292.249 349.087C292.249 349.18 292.249 349.273 292.249 349.356C292.249 349.439 292.249 349.532 292.329 349.636C292.36 349.729 292.402 349.82 292.455 349.905C292.502 349.99 292.559 350.07 292.627 350.143C292.693 350.222 292.775 350.289 292.868 350.34C292.962 350.398 293.067 350.44 293.177 350.465C293.306 350.486 293.438 350.486 293.567 350.465C293.696 350.484 293.829 350.48 293.957 350.454H293.968Z" fill="white"/>
<path d="M298.266 350.786C298.046 350.732 297.84 350.641 297.659 350.516C297.489 350.408 297.345 350.271 297.234 350.112C297.117 349.958 297.02 349.791 296.948 349.615C296.888 349.432 296.842 349.245 296.81 349.055C296.604 347.843 297.154 347.232 298.449 347.222C298.733 347.196 299.02 347.223 299.292 347.302C299.564 347.38 299.815 347.509 300.03 347.679C300.245 347.849 300.419 348.057 300.542 348.29C300.664 348.523 300.732 348.777 300.742 349.035C300.757 349.217 300.757 349.401 300.742 349.584C300.742 349.757 300.707 349.929 300.638 350.091C300.581 350.248 300.483 350.39 300.352 350.506C300.207 350.633 300.03 350.725 299.836 350.775C299.317 350.921 298.762 350.921 298.243 350.775L298.266 350.786ZM299.412 350.423C299.512 350.399 299.606 350.356 299.687 350.299C299.757 350.243 299.815 350.176 299.859 350.102C299.903 350.027 299.934 349.947 299.951 349.864C299.963 349.771 299.963 349.677 299.951 349.584C299.957 349.494 299.957 349.404 299.951 349.314C299.961 349.221 299.961 349.128 299.951 349.035C299.951 348.931 299.951 348.838 299.893 348.755C299.836 348.672 299.836 348.579 299.802 348.475C299.769 348.382 299.727 348.292 299.676 348.206C299.625 348.123 299.563 348.047 299.492 347.978C299.426 347.899 299.345 347.832 299.252 347.781C299.154 347.731 299.05 347.693 298.942 347.667C298.813 347.651 298.682 347.651 298.552 347.667C298.427 347.651 298.3 347.651 298.174 347.667C298.079 347.693 297.989 347.736 297.911 347.791C297.841 347.844 297.783 347.907 297.739 347.978C297.694 348.053 297.66 348.133 297.636 348.216C297.636 348.299 297.636 348.382 297.636 348.486C297.629 348.579 297.629 348.672 297.636 348.765V349.055C297.636 349.149 297.636 349.242 297.636 349.325C297.636 349.408 297.693 349.501 297.727 349.605C297.76 349.698 297.802 349.788 297.853 349.874C297.902 349.958 297.96 350.038 298.025 350.112C298.097 350.186 298.177 350.252 298.266 350.309C298.363 350.363 298.467 350.405 298.575 350.433C298.709 350.449 298.843 350.449 298.977 350.433C299.113 350.458 299.254 350.454 299.389 350.423H299.412Z" fill="white"/>
<path d="M294.335 359.82C294.701 362.235 292.042 364.234 288.363 364.255C284.684 364.276 281.487 362.317 281.223 359.914C280.96 357.51 283.641 355.614 287.217 355.593C290.793 355.572 293.968 357.448 294.335 359.82Z" fill="white" stroke="#263238" stroke-linecap="round" stroke-linejoin="round"/>
<path d="M303.229 359.769C303.664 362.172 301.051 364.172 297.383 364.193C293.716 364.213 290.507 362.266 290.128 359.852C289.75 357.437 292.421 355.562 295.997 355.541C299.572 355.521 302.804 357.448 303.229 359.769Z" fill="white" stroke="#263238" stroke-linecap="round" stroke-linejoin="round"/>
<path d="M112.16 400C112.16 400 137.787 351.428 141.73 342.072C145.672 332.716 200.881 309.093 203.838 304.607C206.794 300.121 210.714 286.341 213.706 280.549C216.697 274.757 214.198 272.519 216.17 267.619C218.141 262.718 221.591 256.926 216.663 256.926C211.734 256.926 205.327 261.827 202.852 269.846C200.376 277.866 190.531 284.559 190.531 284.559L191.024 279.212C191.517 273.856 197.431 257.372 199.895 253.808C202.359 250.243 217.155 235.987 219.127 235.541C221.098 235.096 225.533 239.105 229.969 239.105C234.404 239.105 235.39 235.997 232.926 234.205C230.462 232.412 228.49 226.62 222.611 223.056C216.731 219.492 210.29 223.056 210.29 223.056C208.646 220.582 206.835 218.202 204.869 215.928C202.393 213.255 197.465 208.8 191.058 207.463C189.182 207.076 187.233 207.075 185.357 207.461C183.48 207.846 181.723 208.608 180.216 209.691C177.947 209.264 175.65 208.967 173.339 208.8C168.411 208.354 164.961 211.027 160.033 218.125C155.105 225.222 147.208 239.074 147.208 239.074C147.208 239.074 149.179 226.144 149.179 220.798C149.179 215.451 149.672 209.66 147.208 207.432C144.744 205.204 142.28 207.878 141.294 215.897C140.308 223.916 128.973 251.994 127.541 259.568C126.108 267.142 110.292 309.031 101.902 319.734C93.5125 330.437 48.1722 377.216 48.1722 377.216L112.16 400ZM183.139 242.255C183.139 242.255 190.015 224.424 192.01 224.424C194.004 224.424 201.373 229.325 201.373 229.325L183.139 242.255Z" fill="white" stroke="#263238" stroke-linecap="round" stroke-linejoin="round"/>
<path d="M123.472 278.933C123.472 278.933 131.873 255.175 133.271 249.062C134.268 244.752 137.798 249.777 137.798 249.777C137.798 249.777 144.675 245.332 144.675 249.062C144.753 251.432 145.656 253.72 147.254 255.6C147.254 255.6 145.707 249.062 152.984 247.197C160.262 245.332 163.299 248.13 161.764 255.6C160.228 263.07 162.795 260.262 164.342 258.397C165.89 256.532 163.827 251.86 173.122 248.596C182.417 245.332 187.586 248.596 186.027 255.6C184.468 262.604 181.901 268.665 181.901 278.933C181.901 289.2 183.964 298.536 186.027 298.536C188.09 298.536 199.459 287.802 201.522 294.806C203.585 301.81 199.459 301.81 188.617 310.202C177.775 318.594 149.374 325.609 144.732 334.032C140.091 342.455 136.985 347.563 133.89 348.03C130.796 348.496 125.627 331.701 110.647 333.524C95.6673 335.348 80.1833 348.931 83.805 343.326C87.4267 337.721 100.836 328.821 108.584 312.989C116.332 297.158 123.472 278.933 123.472 278.933Z" fill="#FF725E"/>
<path opacity="0.4" d="M123.472 278.933C123.472 278.933 131.873 255.175 133.271 249.062C134.268 244.752 137.798 249.777 137.798 249.777C137.798 249.777 144.675 245.332 144.675 249.062C144.753 251.432 145.656 253.72 147.254 255.6C147.254 255.6 145.707 249.062 152.984 247.197C160.262 245.332 163.299 248.13 161.764 255.6C160.228 263.07 162.795 260.262 164.342 258.397C165.89 256.532 163.827 251.86 173.122 248.596C182.417 245.332 187.586 248.596 186.027 255.6C184.468 262.604 181.901 268.665 181.901 278.933C181.901 289.2 183.964 298.536 186.027 298.536C188.09 298.536 199.459 287.802 201.522 294.806C203.585 301.81 199.459 301.81 188.617 310.202C177.775 318.594 149.374 325.609 144.732 334.032C140.091 342.455 136.985 347.563 133.89 348.03C130.796 348.496 125.627 331.701 110.647 333.524C95.6673 335.348 80.1833 348.931 83.805 343.326C87.4267 337.721 100.836 328.821 108.584 312.989C116.332 297.158 123.472 278.933 123.472 278.933Z" fill="white"/>
<path d="M180.182 209.722C180.182 209.722 166.428 231.117 163.426 235.572C160.423 240.028 158.004 244.037 154.543 245.819C151.082 247.601 148.629 251.611 149.615 252.948" fill="white"/>
<path d="M180.182 209.722C180.182 209.722 166.428 231.117 163.426 235.572C160.423 240.028 158.004 244.037 154.543 245.819C151.082 247.601 148.629 251.611 149.615 252.948" stroke="#263238" stroke-linecap="round" stroke-linejoin="round"/>
<path d="M147.151 239.136C145.627 241.66 143.625 243.921 141.237 245.819C137.294 248.927 132.859 251.611 131.873 255.144C131.198 257.403 130.029 259.517 128.435 261.361" fill="white"/>
<path d="M147.151 239.136C145.627 241.66 143.625 243.921 141.237 245.819C137.294 248.927 132.859 251.611 131.873 255.144C131.198 257.403 130.029 259.517 128.435 261.361" stroke="#263238" stroke-linecap="round" stroke-linejoin="round"/>
<path d="M183.139 242.255C183.139 242.255 173.282 248.047 170.818 249.829C168.354 251.611 167.38 255.621 167.38 255.621" fill="white"/>
<path d="M183.139 242.255C183.139 242.255 173.282 248.047 170.818 249.829C168.354 251.611 167.38 255.621 167.38 255.621" stroke="#263238" stroke-linecap="round" stroke-linejoin="round"/>
<path d="M210.256 223.087L201.373 229.325" stroke="#263238" stroke-linecap="round" stroke-linejoin="round"/>
<path d="M450 372.067C450 372.067 405.141 332.416 401.691 324.407C398.242 316.398 399.227 314.605 396.27 308.865C393.313 303.125 384.442 293.21 383.949 286.071C383.457 278.933 379.514 262.003 379.514 256.211C379.514 250.419 378.036 241.955 376.076 240.618C374.116 239.281 363.251 237.044 363.251 237.044C363.251 237.044 357.337 220.114 352.936 219.223C348.535 218.332 339.583 222.756 339.583 222.756C339.583 222.756 337.612 219.648 335.148 214.737C332.684 209.825 328.271 209.836 322.827 211.628C317.383 213.421 306.552 217.42 306.552 217.42C306.552 217.42 294.232 208.955 290.289 214.312C286.346 219.668 281.418 229.459 280.432 233.024C279.447 236.588 286.266 236.463 287.745 235.572C289.223 234.681 294.77 230.993 294.77 230.993C294.77 230.993 305.567 238.37 307.538 242.39C309.509 246.41 313.452 265.111 313.945 268.675C314.438 272.24 312.466 283.378 312.466 283.378C312.466 283.378 303.103 268.23 298.713 263.775C294.323 259.32 287.871 256.646 282.942 256.646C278.014 256.646 274.564 261.547 278.507 263.775C282.45 266.002 286.885 268.675 287.871 271.794C288.856 274.913 298.713 290.962 299.699 296.754C300.684 302.545 307.584 314.129 313.991 317.693C320.397 321.257 344.065 325.712 348.5 329.732C352.936 333.752 384.488 390.333 384.488 390.333L450 372.067ZM315.423 225.864H323.32L331.698 240.577L315.423 225.864Z" fill="white" stroke="#263238" stroke-linecap="round" stroke-linejoin="round"/>
<path d="M378.013 262.594C378.013 262.594 372.282 248.088 365.623 250.927C358.964 253.766 357.875 255.134 357.875 255.134C357.875 255.134 354.254 249.953 348.065 251.86C341.876 253.766 339.801 249.995 339.801 249.995C339.801 249.995 331.538 245.332 326.38 249.062C321.223 252.792 325.349 263.06 327.412 271.463C329.475 279.865 324.833 296.204 323.801 297.603C322.77 299.002 308.822 293.407 307.274 298.536C305.727 303.664 311.916 314.875 324.317 318.605C336.718 322.335 346.002 324.21 350.678 328.406C355.354 332.602 367.205 362.949 377.531 365.281C387.858 367.612 399.216 354.08 410.058 355.013C420.9 355.945 434.837 362.949 429.164 356.878C423.49 350.806 399.731 328.903 398.219 320.946C396.706 312.989 390.987 307.405 388.408 303.675C385.829 299.945 381.164 277.534 379.56 271.452C378.72 268.553 378.201 265.586 378.013 262.594V262.594Z" fill="#FF725E"/>
<path opacity="0.4" d="M378.013 262.594C378.013 262.594 372.282 248.088 365.623 250.927C358.964 253.766 357.875 255.134 357.875 255.134C357.875 255.134 354.254 249.953 348.065 251.86C341.876 253.766 339.801 249.995 339.801 249.995C339.801 249.995 331.538 245.332 326.38 249.062C321.223 252.792 325.349 263.06 327.412 271.463C329.475 279.865 324.833 296.204 323.801 297.603C322.77 299.002 308.822 293.407 307.274 298.536C305.727 303.664 311.916 314.875 324.317 318.605C336.718 322.335 346.002 324.21 350.678 328.406C355.354 332.602 367.205 362.949 377.531 365.281C387.858 367.612 399.216 354.08 410.058 355.013C420.9 355.945 434.837 362.949 429.164 356.878C423.49 350.806 399.731 328.903 398.219 320.946C396.706 312.989 390.987 307.405 388.408 303.675C385.829 299.945 381.164 277.534 379.56 271.452C378.72 268.553 378.201 265.586 378.013 262.594V262.594Z" fill="white"/>
<path d="M339.583 222.756L346.46 234.339C346.46 234.339 349.268 240.421 352.11 242.98C354.953 245.539 357.428 247.467 358.494 250.679C359.56 253.89 359.904 255.486 359.904 255.486" fill="white"/>
<path d="M339.583 222.756L346.46 234.339C346.46 234.339 349.268 240.421 352.11 242.98C354.953 245.539 357.428 247.467 358.494 250.679C359.56 253.89 359.904 255.486 359.904 255.486" stroke="#263238" stroke-linecap="round" stroke-linejoin="round"/>
<path d="M363.239 237.044L370.15 249.974" stroke="#263238" stroke-linecap="round" stroke-linejoin="round"/>
<path d="M306.552 217.441L315.423 225.906" stroke="#263238" stroke-linecap="round" stroke-linejoin="round"/>
<path d="M371.995 252.948C372.147 255.64 372.503 258.319 373.061 260.967Z" fill="white"/>
<path d="M371.995 252.948C372.147 255.64 372.503 258.319 373.061 260.967" stroke="#263238" stroke-linecap="round" stroke-linejoin="round"/>
<path d="M336.535 245.55C336.535 245.55 340.787 248.43 341.497 252.274Z" fill="white"/>
<path d="M336.535 245.55C336.535 245.55 340.787 248.43 341.497 252.274" stroke="#263238" stroke-linecap="round" stroke-linejoin="round"/>
<path d="M294.77 231.045C294.77 231.045 290.874 229.636 290.874 226.817Z" fill="white"/>
<path d="M294.77 231.045C294.77 231.045 290.874 229.636 290.874 226.817" stroke="#263238" stroke-linecap="round" stroke-linejoin="round"/>
<path d="M323.32 225.864C323.32 225.864 320.501 223.906 320.501 221.44Z" fill="white"/>
<path d="M323.32 225.864C323.32 225.864 320.501 223.906 320.501 221.44" stroke="#263238" stroke-linecap="round" stroke-linejoin="round"/>
</svg>
