<svg width="200" height="160" viewBox="0 0 200 160" fill="none" xmlns="http://www.w3.org/2000/svg">
<path d="M58.5991 6.25886H15.1671V46.8954H58.5991V6.25886Z" fill="#E0E0E0"/>
<path d="M55.6583 6.25886H12.2263V46.8954H55.6583V6.25886Z" fill="#FAFAFA"/>
<path d="M55.67 46.8954H12.2167V6.24734H55.67V46.8954ZM12.2381 46.8954H55.6444V6.27421H12.2381V46.8954Z" fill="#E0E0E0"/>
<path d="M49.8162 11.7247H18.0621V41.4373H49.8162V11.7247Z" fill="#FAFAFA"/>
<path d="M18.0621 41.6331C17.8389 41.9329 17.5762 42.2074 17.2796 42.4506C16.775 42.9304 16.0609 43.6021 15.2613 44.2892C14.4617 44.9763 13.7305 45.6249 13.1874 46.0702C12.9113 46.3301 12.6028 46.5606 12.2681 46.7573C12.4988 46.4581 12.7687 46.1849 13.072 45.9435C13.5765 45.4637 14.2906 44.792 15.0945 44.1011C15.8984 43.4102 16.6297 42.7615 17.1727 42.3163C17.4393 42.059 17.7377 41.8297 18.0621 41.6331V41.6331Z" fill="#E0E0E0"/>
<path d="M49.816 41.5601C50.1487 41.762 50.4544 41.9977 50.7268 42.2626C51.2656 42.7193 51.9883 43.3603 52.7751 44.0743C53.5619 44.7882 54.2632 45.4522 54.7592 45.9397C55.0511 46.1841 55.3082 46.46 55.5246 46.7611C55.1929 46.5611 54.8886 46.3266 54.6181 46.0625C54.0836 45.6058 53.3566 44.9648 52.5656 44.247C51.7745 43.5292 51.0775 42.8652 50.5772 42.3815C50.2884 42.1355 50.033 41.8598 49.816 41.5601V41.5601Z" fill="#E0E0E0"/>
<path d="M49.7307 11.8014C49.9556 11.5028 50.2182 11.2284 50.5132 10.9839C51.0221 10.5041 51.7362 9.85539 52.5315 9.14913C53.3269 8.44288 54.0666 7.81339 54.6097 7.3643C54.8827 7.10406 55.19 6.87463 55.5248 6.68108C55.3019 6.97885 55.0407 7.25198 54.7465 7.49481C54.2377 7.9746 53.5236 8.62712 52.724 9.33337C51.9243 10.0396 51.1846 10.673 50.6458 11.122C50.3725 11.3809 50.0652 11.609 49.7307 11.8014Z" fill="#E0E0E0"/>
<path d="M17.9766 11.8744C17.6426 11.674 17.3368 11.4382 17.0658 11.1719C16.5313 10.719 15.8086 10.078 15.0219 9.36024C14.2351 8.64247 13.5338 7.98612 13.0335 7.49865C12.744 7.2508 12.4871 6.9739 12.2681 6.6734C12.6002 6.87014 12.9058 7.10069 13.1789 7.36047C13.7134 7.81339 14.4617 8.45439 15.2271 9.176C15.9925 9.89761 16.7194 10.554 17.2155 11.0414C17.5073 11.2891 17.7631 11.569 17.9766 11.8744V11.8744Z" fill="#E0E0E0"/>
<path d="M49.7306 41.4373C49.7306 41.4373 49.7306 41.3836 49.7306 41.2914C49.7306 41.1993 49.7306 41.0535 49.7306 40.8769C49.7306 40.4931 49.7306 39.9672 49.7306 39.2725C49.7306 37.8638 49.7306 35.818 49.6964 33.2156C49.6964 28.0146 49.6622 20.5989 49.6322 11.7208L49.7562 11.8283H18.1134L18.2502 11.7016C18.2502 22.6064 18.2502 32.8125 18.2502 41.4143L18.1305 41.303L41.0587 41.3605L47.4985 41.3874H49.2089H49.6365H49.7904H49.6493H49.2217H47.5412L41.1271 41.4143L18.1219 41.4718H17.9979V41.3644C17.9979 32.7588 17.9979 22.5565 17.9979 11.6517V11.5826H18.139H49.7819H49.846V11.694C49.8204 20.5989 49.799 28.0376 49.7819 33.2578C49.7819 35.8448 49.7562 37.8868 49.752 39.2878C49.752 39.9749 49.752 40.5046 49.752 40.8692C49.752 41.042 49.752 41.1763 49.752 41.2723C49.7509 41.3278 49.7437 41.383 49.7306 41.4373Z" fill="#E0E0E0"/>
<path d="M39.2372 21.8234H28.6411V31.3348H39.2372V21.8234Z" fill="#EBEBEB"/>
<path d="M163.473 6.9865L159.278 7.00687L159.391 25.7492L163.586 25.7289L163.473 6.9865Z" fill="#E0E0E0"/>
<path d="M133.79 7.03867L122.924 7.09144L122.987 17.4395L133.852 17.3867L133.79 7.03867Z" fill="#EBEBEB"/>
<path d="M144.612 6.9861L133.742 7.03889L133.805 17.3869L144.674 17.3341L144.612 6.9861Z" fill="#F5F5F5"/>
<path d="M122.941 9.95519C130.162 10.0089 137.39 9.9795 144.625 9.86691C144.656 9.86691 144.685 9.85599 144.707 9.83655C144.728 9.81712 144.74 9.79076 144.74 9.76327C144.74 9.73579 144.728 9.70943 144.707 9.68999C144.685 9.67056 144.656 9.65964 144.625 9.65964C137.403 9.62509 130.159 9.65964 122.941 9.77863C122.915 9.77863 122.89 9.78793 122.872 9.80448C122.853 9.82104 122.843 9.84349 122.843 9.86691C122.843 9.89032 122.853 9.91278 122.872 9.92933C122.89 9.94589 122.915 9.95519 122.941 9.95519V9.95519Z" fill="#E0E0E0"/>
<path d="M135.891 17.2153L116.148 17.3112L116.199 25.7439L135.942 25.648L135.891 17.2153Z" fill="#EBEBEB"/>
<path d="M155.543 17.1199L135.801 17.2157L135.851 25.6485L155.594 25.5526L155.543 17.1199Z" fill="#F5F5F5"/>
<path d="M116.164 19.6624C129.278 19.7967 142.44 19.6624 155.559 19.4858C155.59 19.4858 155.619 19.4749 155.641 19.4554C155.662 19.436 155.674 19.4097 155.674 19.3822C155.674 19.3547 155.662 19.3283 155.641 19.3089C155.619 19.2894 155.59 19.2785 155.559 19.2785C142.444 19.2171 129.278 19.2248 116.164 19.4858C116.137 19.4858 116.112 19.4951 116.094 19.5117C116.076 19.5282 116.065 19.5507 116.065 19.5741C116.065 19.5975 116.076 19.62 116.094 19.6365C116.112 19.6531 116.137 19.6624 116.164 19.6624V19.6624Z" fill="#E0E0E0"/>
<path d="M185.273 25.75H108.779V28.7708H185.273V25.75Z" fill="#E0E0E0"/>
<path d="M124.408 27.2009H121.303V33.2655H124.408V27.2009Z" fill="#E0E0E0"/>
<path d="M170.764 27.2009H167.66V33.2655H170.764V27.2009Z" fill="#E0E0E0"/>
<path d="M167.57 -2.28607e-06L163.375 0.0203705L163.531 25.7983L167.726 25.778L167.57 -2.28607e-06Z" fill="#EBEBEB"/>
<path d="M174.129 4.80064L167.608 4.83231L167.734 25.7241L174.254 25.6925L174.129 4.80064Z" fill="#F5F5F5"/>
<path d="M174.083 8.83055C173.001 8.9342 171.912 8.96883 170.824 8.93419C169.735 8.96878 168.645 8.93415 167.562 8.83055C169.733 8.69749 171.912 8.69749 174.083 8.83055V8.83055Z" fill="#E0E0E0"/>
<path d="M174.083 7.95541C173 8.0542 171.912 8.08754 170.824 8.0552C169.736 8.08743 168.646 8.05408 167.562 7.95541C169.733 7.81722 171.912 7.81722 174.083 7.95541V7.95541Z" fill="#E0E0E0"/>
<path d="M174.083 22.5565C171.912 22.6895 169.733 22.6895 167.562 22.5565C169.733 22.4183 171.912 22.4183 174.083 22.5565V22.5565Z" fill="#E0E0E0"/>
<path d="M174.083 21.6775C171.912 21.8106 169.733 21.8106 167.562 21.6775C169.733 21.5444 171.912 21.5444 174.083 21.6775V21.6775Z" fill="#E0E0E0"/>
<path d="M170.931 19.7622C170.867 19.7622 170.816 17.6549 170.816 15.0564C170.816 12.4578 170.867 10.3467 170.931 10.3467C170.996 10.3467 171.043 12.454 171.043 15.0564C171.043 17.6588 170.991 19.7622 170.931 19.7622Z" fill="#E0E0E0"/>
<path d="M181.254 9.93599H174.156V25.7039H181.254V9.93599Z" fill="#EBEBEB"/>
<path d="M166.617 4.40878C166.617 4.62286 166.546 4.83213 166.414 5.01013C166.281 5.18813 166.093 5.32687 165.872 5.4088C165.652 5.49072 165.41 5.51216 165.176 5.47039C164.942 5.42863 164.727 5.32554 164.558 5.17416C164.39 5.02278 164.275 4.82991 164.228 4.61994C164.182 4.40998 164.206 4.19234 164.297 3.99455C164.388 3.79677 164.543 3.62772 164.741 3.50878C164.939 3.38984 165.172 3.32636 165.411 3.32636C165.731 3.32636 166.037 3.4404 166.264 3.64339C166.49 3.84639 166.617 4.1217 166.617 4.40878V4.40878Z" fill="#E0E0E0"/>
<path d="M165.783 7.38733H165.039V22.7215H165.783V7.38733Z" fill="#E0E0E0"/>
<path d="M164.5 43.0187C165.36 42.3414 166.316 41.7696 167.344 41.3183L167.434 38.4779L172.565 37.5683L173.848 40.1668C174.99 40.2328 176.118 40.4355 177.2 40.7694L179.501 38.8157L183.854 41.4373L182.712 44.0896C183.468 44.8601 184.106 45.7187 184.606 46.6421L187.775 46.7227L188.788 51.3287L185.889 52.4802C185.817 53.5042 185.593 54.515 185.222 55.4857L187.394 57.5507L184.491 61.4812L181.549 60.4486C180.689 61.127 179.731 61.6989 178.701 62.149L178.616 64.9894L173.484 65.8991L172.202 63.3005C171.059 63.2345 169.932 63.0318 168.849 62.6979L166.549 64.6516L162.196 62.03L163.337 59.3777C162.581 58.6072 161.944 57.7486 161.443 56.8252L158.274 56.7446L157.261 52.1386L160.156 50.9871C160.232 49.9632 160.457 48.9527 160.827 47.9817L158.655 45.9167L161.571 42.0092L164.526 43.0302L164.5 43.0187ZM168.481 48.7455C167.862 49.5747 167.53 50.5502 167.528 51.5486C167.526 52.547 167.854 53.5234 168.471 54.3545C169.087 55.1855 169.964 55.8338 170.991 56.2173C172.018 56.6008 173.149 56.7023 174.24 56.509C175.331 56.3157 176.334 55.8362 177.122 55.1312C177.909 54.4262 178.446 53.5274 178.665 52.5485C178.883 51.5695 178.773 50.5544 178.349 49.6315C177.925 48.7086 177.205 47.9194 176.281 47.3637C175.042 46.6189 173.525 46.3461 172.062 46.6052C170.6 46.8643 169.312 47.6342 168.481 48.7455Z" fill="#FF725E"/>
<path d="M140.875 41.1801C141.358 40.9169 141.879 40.7141 142.423 40.5775L142.739 39.2034L145.326 39.1612L145.698 40.5238C146.247 40.6448 146.775 40.832 147.268 41.0803L148.576 40.3127L150.44 41.9286L149.628 43.1262C149.921 43.5601 150.146 44.0275 150.299 44.5157L151.83 44.8035L151.877 47.1257L150.359 47.4597C150.221 47.9512 150.013 48.4247 149.739 48.8683L150.594 50.0429L148.794 51.7126L147.46 50.9833C146.976 51.2455 146.456 51.4494 145.912 51.5897L145.591 52.9639L143.004 53.0022L142.632 51.6396C142.084 51.5186 141.557 51.3328 141.063 51.0869L139.755 51.8546L137.895 50.2425L138.707 49.0411C138.412 48.6077 138.185 48.1402 138.031 47.6516L136.501 47.3676L136.458 45.0454L137.976 44.7114C138.109 44.219 138.316 43.7451 138.592 43.3027L137.736 42.1282L139.532 40.4547L140.871 41.184L140.875 41.1801ZM142.252 44.2738C141.871 44.6283 141.615 45.0763 141.518 45.561C141.42 46.0458 141.485 46.5457 141.704 46.9974C141.923 47.4491 142.286 47.8324 142.748 48.0989C143.209 48.3654 143.748 48.503 144.297 48.4944C144.846 48.4859 145.379 48.3314 145.83 48.0507C146.281 47.7699 146.629 47.3755 146.831 46.9172C147.032 46.4589 147.077 45.9573 146.961 45.4759C146.845 44.9944 146.572 44.5548 146.177 44.2124C145.915 43.985 145.606 43.8062 145.266 43.6862C144.927 43.5662 144.565 43.5073 144.2 43.513C143.836 43.5187 143.476 43.5889 143.142 43.7194C142.807 43.8499 142.505 44.0383 142.252 44.2738V44.2738Z" fill="#455A64"/>
<path d="M142.252 44.2738C142.398 44.1134 142.573 43.9759 142.769 43.867C143.306 43.5551 143.947 43.4194 144.582 43.4831C145.021 43.5224 145.443 43.6539 145.814 43.867C146.238 44.1171 146.581 44.4642 146.806 44.8726C146.931 45.0919 147.016 45.3277 147.058 45.5712C147.105 45.8254 147.105 46.0847 147.058 46.3389C146.98 46.8803 146.71 47.3848 146.288 47.7783C145.864 48.1684 145.313 48.4278 144.715 48.5191C144.432 48.5612 144.143 48.5612 143.86 48.5191C143.587 48.4889 143.322 48.4216 143.073 48.3195C142.608 48.1318 142.209 47.8346 141.918 47.4597C141.607 47.0637 141.43 46.595 141.409 46.1105C141.389 45.626 141.525 45.1467 141.803 44.7306C141.917 44.5528 142.061 44.3922 142.23 44.2547C142.23 44.2547 142.064 44.4197 141.85 44.7613C141.553 45.2469 141.445 45.8073 141.542 46.3542C141.615 46.7555 141.798 47.1341 142.075 47.4558C142.352 47.7775 142.714 48.0322 143.128 48.1966C143.366 48.2931 143.618 48.3565 143.877 48.3847C144.144 48.4249 144.417 48.4249 144.685 48.3847C145.251 48.2989 145.772 48.0524 146.17 47.6814C146.569 47.3104 146.825 46.8345 146.9 46.3235C146.943 46.0832 146.943 45.8384 146.9 45.5981C146.861 45.3674 146.783 45.1434 146.669 44.934C146.501 44.6284 146.265 44.3573 145.974 44.1379C145.684 43.9184 145.346 43.7554 144.982 43.6591C144.618 43.5628 144.236 43.5353 143.859 43.5783C143.483 43.6214 143.12 43.7341 142.795 43.9092C142.431 44.1165 142.269 44.2854 142.252 44.2738Z" fill="#455A64"/>
<path d="M140.875 41.1801L140.789 41.1379L140.533 41.0074L139.524 40.47H139.554L137.77 42.1474V42.1052L138.626 43.2567V43.2759V43.2989C138.354 43.7392 138.149 44.2104 138.018 44.6999V44.7268H137.989L136.471 45.0684L136.513 45.0147C136.53 45.7465 136.547 46.5206 136.565 47.3368L136.513 47.2831L138.048 47.5671H138.087V47.6017C138.248 48.0966 138.484 48.5693 138.788 49.0065L138.81 49.0372L138.788 49.0679L137.98 50.2693V50.1926L139.84 51.8047H139.75L141.059 51.037L141.093 51.014L141.136 51.0332C141.624 51.2766 142.146 51.4612 142.688 51.5821H142.731V51.6243L143.103 52.9869L143.026 52.9332L145.613 52.8909L145.536 52.9485C145.638 52.5148 145.745 52.0465 145.856 51.5744V51.5322H145.904C146.439 51.3942 146.952 51.1942 147.43 50.9372V50.9372H147.473H147.511L148.85 51.6665H148.751L150.547 49.9968V50.0851L149.692 48.9106L149.666 48.8722L149.688 48.8376C149.961 48.4002 150.167 47.9315 150.299 47.4443V47.4059H150.342L151.864 47.072L151.804 47.1411C151.804 46.3466 151.775 45.575 151.762 44.8189L151.822 44.8803L150.291 44.5924H150.248V44.5579C150.097 44.074 149.874 43.6105 149.585 43.1799V43.1492V43.1185L150.398 41.9209V41.9939L148.538 40.3741H148.615L147.306 41.1418H147.276H147.246C146.757 40.8965 146.233 40.7106 145.69 40.589H145.66V40.5622C145.527 40.067 145.407 39.6218 145.296 39.1996L145.339 39.2303L142.752 39.261L142.786 39.2341C142.658 39.783 142.551 40.2321 142.461 40.6082C142.054 40.7102 141.659 40.8477 141.281 41.0189L141.003 41.1494L140.909 41.1917C140.936 41.1719 140.965 41.154 140.995 41.1379L141.268 40.9959C141.645 40.8176 142.04 40.6736 142.448 40.566C142.534 40.1822 142.632 39.7408 142.756 39.1919V39.165H142.786L145.373 39.1151H145.412V39.1458C145.527 39.568 145.651 40.0133 145.788 40.5084L145.75 40.4739C146.304 40.5949 146.837 40.7821 147.336 41.0304H147.276L148.58 40.2628L148.623 40.2397L148.657 40.2705L150.522 41.8787L150.56 41.9133L150.534 41.9555C150.269 42.3393 150.004 42.7423 149.726 43.1531V43.0916C150.021 43.5294 150.25 44.0006 150.406 44.4926L150.355 44.4504L151.886 44.7344H151.941V44.7843C151.958 45.552 151.976 46.3261 151.993 47.1065V47.1603H151.933L150.415 47.4942L150.47 47.4443C150.335 47.9435 150.125 48.4238 149.846 48.8722V48.8146L150.701 49.9853L150.735 50.0352L150.693 50.0736L148.897 51.7471L148.85 51.7855L148.798 51.7586L147.46 51.0293H147.541C147.053 51.2967 146.527 51.5021 145.976 51.6396L146.032 51.5859C145.925 52.058 145.814 52.5263 145.715 52.96V53.0176H145.651L143.064 53.056H143V53.0022C142.872 52.5301 142.743 52.0657 142.628 51.6358L142.684 51.6857C142.129 51.5631 141.596 51.3746 141.097 51.1253H141.174L139.866 51.893L139.814 51.9237L139.772 51.8853L137.916 50.2732L137.873 50.2348L137.903 50.1926L138.715 48.995V49.0564C138.399 48.6246 138.15 48.1558 137.976 47.6631L138.023 47.7053L136.492 47.4175H136.445V47.3714C136.445 46.5577 136.415 45.7785 136.402 45.0492V45.007H136.449L137.967 44.6769L137.929 44.7114C138.067 44.2151 138.278 43.7375 138.557 43.2912V43.3373L137.702 42.1589V42.1359L137.723 42.1129L139.532 40.4509L140.52 41.0036L140.772 41.1456C140.807 41.1548 140.842 41.1664 140.875 41.1801V41.1801Z" fill="#455A64"/>
<path d="M149.85 110.65L141.025 109.434L140.644 104.609C138.864 103.915 137.194 103.012 135.679 101.922L130.736 103.841L125.451 97.3774L128.979 93.7271C128.269 92.1023 127.805 90.3996 127.598 88.6643L122.578 86.891L123.933 78.9687L129.304 78.627C130.078 77.0294 131.084 75.5309 132.297 74.1707L130.159 69.7336L137.36 64.9894L141.422 68.156C143.233 67.5208 145.13 67.1039 147.062 66.9163L149.051 62.3908L157.877 63.6076L158.257 68.4286C160.037 69.1229 161.707 70.0264 163.222 71.1154L168.169 69.1962L173.476 75.683L169.948 79.3295C170.656 80.9546 171.119 82.6572 171.325 84.3922L176.345 86.1656L174.985 94.1071L169.61 94.4449C168.837 96.0428 167.83 97.5413 166.617 98.9012L168.755 103.342L161.537 108.079L157.47 104.912C155.66 105.548 153.763 105.963 151.83 106.148L149.85 110.65ZM141.037 109.414L149.838 110.631L151.813 106.129C153.749 105.945 155.649 105.528 157.462 104.889V104.889L161.528 108.056L168.721 103.319L166.583 98.8858C167.797 97.5254 168.804 96.0254 169.576 94.4257L174.947 94.0879L176.298 86.1886L171.286 84.4076C171.081 82.6708 170.616 80.9667 169.905 79.341L173.433 75.6946L168.165 69.25L163.226 71.1691C161.711 70.0727 160.04 69.1627 158.257 68.4631L157.881 63.6421L149.076 62.4292L147.105 66.9316C145.171 67.1193 143.273 67.5361 141.461 68.1714L137.398 65.0048L130.219 69.7336L132.357 74.1669C131.133 75.5267 130.119 77.0282 129.342 78.6309V78.6309L123.972 78.9725L122.62 86.8718L127.636 88.6451C127.836 90.3846 128.293 92.0923 128.996 93.7233V93.7233L125.468 97.3697L130.736 103.81L135.675 101.891C137.192 102.982 138.865 103.885 140.648 104.578V104.578L141.037 109.414ZM149.795 94.9055C149.305 94.9047 148.816 94.8713 148.332 94.8057C146.937 94.6114 145.607 94.1425 144.437 93.4326C143.267 92.7227 142.286 91.7894 141.565 90.6995C140.844 89.6096 140.4 88.3901 140.266 87.1283C140.131 85.8664 140.309 84.5935 140.787 83.4007C141.265 82.2078 142.031 81.1245 143.029 80.2284C144.028 79.3323 145.235 78.6455 146.564 78.2172C147.893 77.7889 149.312 77.6297 150.717 77.751C152.123 77.8723 153.481 78.271 154.695 78.9188C156.333 79.7945 157.642 81.0897 158.455 82.6381C159.267 84.1865 159.545 85.9175 159.253 87.6088C158.964 89.3023 158.117 90.8796 156.822 92.138C155.527 93.3965 153.842 94.2787 151.984 94.6713C151.267 94.8264 150.532 94.905 149.795 94.9055V94.9055ZM144.125 79.3794C142.613 80.3808 141.463 81.7596 140.818 83.3438C140.173 84.9281 140.062 86.6477 140.499 88.2882C141.086 90.5026 142.629 92.417 144.788 93.6109C146.948 94.8049 149.546 95.1808 152.014 94.656C153.392 94.362 154.681 93.7967 155.786 93.0011C156.891 92.2055 157.785 91.1993 158.404 90.0555C159.023 88.9116 159.351 87.6586 159.364 86.387C159.378 85.1155 159.076 83.8571 158.481 82.7029C157.887 81.5488 157.014 80.5277 155.925 79.7135C154.837 78.8993 153.561 78.3123 152.189 77.995C150.817 77.6776 149.384 77.6379 147.993 77.8787C146.602 78.1194 145.288 78.6346 144.146 79.387L144.125 79.3794Z" fill="#E0E0E0"/>
<path d="M144.125 79.3794C144.725 78.9107 145.407 78.5346 146.143 78.2662C147.858 77.618 149.745 77.4278 151.578 77.7185C153.41 78.0092 155.111 78.7685 156.474 79.9052C157.76 80.9766 158.702 82.3379 159.202 83.8472C159.758 85.5195 159.743 87.3029 159.16 88.9675C158.542 90.7644 157.297 92.3353 155.608 93.4482C153.92 94.561 151.877 95.1567 149.782 95.1473C148.794 95.1527 147.811 95.0166 146.87 94.7443C145.964 94.4973 145.105 94.1257 144.326 93.6427C142.872 92.7627 141.708 91.5485 140.956 90.1267C140.306 88.8913 139.989 87.5354 140.033 86.1694C140.087 84.1937 140.899 82.2955 142.333 80.7957C142.842 80.2454 143.447 79.7734 144.125 79.3986C144.168 79.4446 143.449 79.8668 142.5 80.9339C141.172 82.4306 140.441 84.2831 140.422 86.1963C140.404 87.5979 140.777 88.9813 141.509 90.2198C142.24 91.4583 143.306 92.5124 144.608 93.2857C146.142 94.2008 147.944 94.6871 149.786 94.6828C151.764 94.6863 153.691 94.1215 155.285 93.071C156.88 92.0205 158.058 90.5395 158.646 88.8447C158.937 88.047 159.082 87.2121 159.074 86.3728C159.087 85.5677 158.964 84.7654 158.711 83.9931C158.244 82.5532 157.358 81.2509 156.145 80.22C155.09 79.3208 153.814 78.6568 152.421 78.2816C150.383 77.7232 148.195 77.7935 146.207 78.4812C145.497 78.7491 144.802 79.0489 144.125 79.3794V79.3794Z" fill="#263238"/>
<path d="M141.448 68.1445C141.352 68.0911 141.262 68.0294 141.179 67.9603L140.396 67.373L137.317 65.0316H137.429L130.266 69.8104L130.313 69.6607L132.481 74.0901L132.52 74.1669L132.46 74.236C131.253 75.5907 130.254 77.0843 129.488 78.6769L129.441 78.7652H129.334L123.955 79.1184L124.134 78.9725C123.707 81.4636 123.279 84.1082 122.8 86.8872L122.668 86.6799L127.671 88.4494L127.799 88.4954V88.6183C128.009 90.3378 128.472 92.0248 129.176 93.635L129.231 93.754L129.137 93.8499L125.61 97.5079V97.2354L130.938 103.703L130.63 103.63L135.568 101.711L135.714 101.653L135.838 101.742C137.337 102.83 138.99 103.733 140.755 104.428L140.901 104.486V104.628C141.02 106.14 141.149 107.791 141.281 109.457L141.055 109.234L149.906 110.397L149.611 110.551C150.235 109.127 150.894 107.591 151.587 106.048L151.646 105.906H151.813C153.719 105.721 155.588 105.309 157.372 104.682V104.682L157.53 104.628L157.654 104.724L161.721 107.898H161.383L168.575 103.166L168.486 103.457L166.348 99.0202L166.283 98.8858L166.386 98.7707C167.598 97.4281 168.605 95.9462 169.379 94.3643L169.443 94.2299H169.602L174.981 93.8922L174.742 94.0917C175.209 91.3895 175.664 88.7513 176.106 86.1771L176.26 86.4227L171.248 84.6417L171.107 84.5957V84.4613C170.903 82.7425 170.446 81.0555 169.747 79.4446L169.696 79.3256L169.79 79.2258L173.33 75.5794V75.8366L168.067 69.369L168.319 69.4304L163.371 71.3495L163.265 71.3918L163.17 71.3265C161.67 70.2383 160.015 69.3347 158.249 68.6397L158.146 68.5974V68.5015C158.014 66.7474 157.894 65.166 157.783 63.6729L157.919 63.8072L149.051 62.5098L149.183 62.4407C148.38 64.2332 147.721 65.7072 147.174 66.9316L147.152 66.9777H147.101C145.651 67.1078 144.219 67.3649 142.825 67.7453L141.794 68.0409C141.684 68.0814 141.569 68.1135 141.452 68.1368C141.558 68.085 141.668 68.0413 141.782 68.0063C142.004 67.9257 142.342 67.8067 142.799 67.6686C144.195 67.2533 145.635 66.9691 147.097 66.8203L147.024 66.8702C147.554 65.6381 148.191 64.1603 148.965 62.3563L149 62.2719H149.098L157.924 63.4541H158.048V63.5692C158.172 65.0623 158.3 66.6399 158.445 68.3979L158.339 68.2597C160.14 68.9616 161.83 69.8755 163.363 70.9772L163.162 70.9504L168.097 69.0312L168.25 68.9698L168.349 69.0926L173.643 75.5372L173.749 75.6715L173.63 75.7943L170.106 79.4523L170.145 79.2335C170.865 80.8792 171.338 82.6037 171.552 84.3615L171.398 84.1773L176.418 85.9621L176.606 86.0274L176.572 86.2078C176.135 88.782 175.688 91.4203 175.229 94.1225L175.199 94.3105H174.99L169.61 94.656L169.833 94.514C169.047 96.1352 168.023 97.6547 166.788 99.0317L166.827 98.786C167.536 100.247 168.249 101.725 168.965 103.219L169.05 103.4L168.875 103.515L161.682 108.255L161.507 108.37L161.345 108.24C159.996 107.191 158.639 106.134 157.274 105.069L157.552 105.112C155.722 105.763 153.804 106.193 151.847 106.39L152.074 106.232C151.394 107.768 150.723 109.303 150.099 110.739L150.017 110.919L149.804 110.888L140.986 109.672L140.772 109.641V109.449C140.64 107.783 140.512 106.133 140.396 104.62L140.554 104.82C138.748 104.112 137.055 103.191 135.521 102.079L135.791 102.114L130.843 104.033L130.664 104.087L130.54 103.941C128.714 101.696 126.927 99.5077 125.272 97.4772L125.156 97.3352L125.285 97.2046L128.825 93.5582L128.782 93.7732C128.069 92.1266 127.603 90.4021 127.397 88.6451L127.538 88.814L122.527 87.033L122.364 86.9755L122.39 86.8219C122.873 84.0468 123.335 81.4022 123.767 78.9111L123.788 78.7691H123.946L129.325 78.4428L129.172 78.5388C129.963 76.927 130.99 75.4169 132.225 74.0479L132.203 74.1976L130.065 69.7528L130.022 69.6607L130.112 69.6031L137.335 64.9011L137.39 64.8627L137.441 64.905L140.435 67.2886L141.204 67.9142C141.291 67.9865 141.372 68.0634 141.448 68.1445V68.1445Z" fill="#263238"/>
<path d="M184.786 125.363C185.368 122.797 185.628 120.181 185.56 117.563C185.504 114.969 184.871 112.339 183.353 110.136C181.662 112.526 180.892 115.349 181.164 118.17C181.361 120.888 182.593 123.463 184.653 125.463" fill="#FF725E"/>
<path d="M181.061 132.303C181.1 129.512 181.061 126.691 180.339 123.981C179.616 121.271 178.089 118.646 175.635 116.945C174.734 119.811 174.825 122.855 175.896 125.674C176.969 128.472 178.406 130.56 181.07 132.303" fill="#FF725E"/>
<path d="M176.349 140.551C176.777 138.056 177.11 135.531 176.811 133.024C176.512 130.518 175.528 128.011 173.531 126.223C172.344 128.692 172.02 131.426 172.603 134.064C173.193 136.678 174.198 138.705 176.349 140.551" fill="#FF725E"/>
<path d="M172.924 146.447C172.774 143.614 172.552 140.758 171.62 138.052C170.688 135.346 168.973 132.767 166.356 131.182C165.635 134.134 165.933 137.214 167.211 140.01C168.494 142.785 170.093 144.823 172.907 146.443" fill="#FF725E"/>
<path d="M167.827 153.402C167.925 150.803 167.968 148.178 167.344 145.641C166.72 143.104 165.373 140.632 163.115 139.004C162.213 141.656 162.229 144.491 163.162 147.134C164.098 149.759 165.39 151.74 167.827 153.402" fill="#FF725E"/>
<path d="M163.589 159.359C163.692 156.76 163.73 154.135 163.11 151.598C162.49 149.061 161.456 146.831 159.202 145.203C158.296 147.832 157.992 150.469 158.928 153.091C159.865 155.713 161.152 157.697 163.589 159.359" fill="#FF725E"/>
<path d="M181.074 132.226C183.029 131.045 185.131 130.075 187.339 129.335C189.065 128.722 190.864 128.286 192.701 128.038C194.548 127.791 196.434 128.017 198.144 128.691C195.991 130.707 193.229 132.116 190.197 132.744C187.164 133.372 183.994 133.192 181.074 132.226Z" fill="#FF725E"/>
<path d="M167.818 153.448C169.409 152.487 171.119 151.697 172.915 151.095C174.32 150.595 175.783 150.241 177.277 150.039C178.778 149.839 180.312 150.022 181.703 150.569C179.951 152.209 177.705 153.355 175.239 153.866C172.772 154.378 170.194 154.232 167.818 153.448" fill="#FF725E"/>
<path d="M164.496 158.173C166.206 157.574 168.503 156.338 170.324 156.131C171.816 155.924 173.33 155.87 174.835 155.97C176.35 156.076 177.801 156.563 179.022 157.375C176.904 158.617 174.432 159.284 171.902 159.294C169.388 159.294 166.6 159.401 164.496 158.169" fill="#FF725E"/>
<path d="M177.046 140.037C179.001 138.855 181.105 137.884 183.315 137.146C185.04 136.531 186.837 136.094 188.673 135.845C190.52 135.601 192.406 135.829 194.116 136.502C191.961 138.516 189.199 139.923 186.168 140.551C183.136 141.179 179.966 141 177.046 140.037" fill="#FF725E"/>
<path d="M171.624 148.45C173.398 147.057 175.348 145.856 177.435 144.873C179.059 144.068 180.781 143.433 182.566 142.981C184.363 142.526 186.266 142.537 188.057 143.011C186.204 145.256 183.662 146.965 180.742 147.932C177.822 148.898 174.652 149.078 171.62 148.45" fill="#FF725E"/>
<path d="M184.384 126.23C187.573 126.006 190.656 125.098 193.373 123.582C196.09 122.067 198.363 119.988 200 117.521C197.652 117.786 195.296 118.289 193.252 119.337C189.831 121.114 187.544 124.108 184.384 126.246" fill="#FF725E"/>
<path d="M187.963 119.705C190.301 118.699 192.145 116.955 193.141 114.806C194.137 112.657 194.217 110.254 193.364 108.056C191.299 109.344 189.692 111.14 188.734 113.227C187.776 115.314 187.509 117.604 187.963 119.824" fill="#FF725E"/>
<path d="M163.192 159.839C163.216 159.798 163.243 159.758 163.273 159.72C163.333 159.632 163.418 159.52 163.521 159.378C163.756 159.071 164.085 158.634 164.504 158.077C164.923 157.52 165.458 156.826 166.04 156.012C166.621 155.198 167.322 154.285 168.024 153.245C168.725 152.204 169.537 151.084 170.35 149.851C171.162 148.619 172.03 147.299 172.915 145.902C174.686 143.1 176.589 139.995 178.474 136.69C182.289 130.08 185.487 123.985 187.783 119.567L190.529 114.331C190.849 113.725 191.097 113.245 191.273 112.911C191.354 112.758 191.418 112.635 191.469 112.527C191.521 112.42 191.542 112.405 191.542 112.405C191.531 112.45 191.513 112.493 191.491 112.535C191.448 112.631 191.388 112.754 191.311 112.919L190.61 114.358C189.994 115.602 189.096 117.406 187.963 119.621C185.705 124.058 182.524 130.165 178.709 136.778C176.807 140.083 174.9 143.188 173.112 145.99C172.21 147.383 171.355 148.711 170.517 149.932C169.678 151.153 168.896 152.289 168.165 153.317C167.434 154.346 166.749 155.263 166.151 156.07C165.552 156.876 165.026 157.563 164.581 158.119L163.568 159.397L163.299 159.727C163.23 159.804 163.196 159.843 163.192 159.839Z" fill="#263238"/>
<path d="M15.7316 134.222C14.6113 131.98 13.7723 129.633 13.2301 127.224C12.6162 124.838 12.7225 122.349 13.538 120.012C15.6363 121.887 16.9887 124.33 17.3865 126.963C17.8231 129.479 17.2858 132.053 15.8642 134.256" fill="#FF725E"/>
<path d="M20.7432 139.887C20.0633 137.338 19.4604 134.751 19.486 132.13C19.5117 129.508 20.3412 126.829 22.1842 124.814C23.6719 127.277 24.288 130.089 23.9502 132.874C23.6124 135.634 22.7786 137.814 20.7432 139.906" fill="#FF725E"/>
<path d="M26.9563 146.573C26.0113 144.366 25.1048 142.117 24.8183 139.768C24.5318 137.419 24.8568 134.936 26.2551 132.932C27.9067 134.974 28.8269 137.418 28.8934 139.941C28.9575 142.443 28.5 144.485 26.9563 146.573" fill="#FF725E"/>
<path d="M31.459 151.325C30.9458 148.708 30.4926 146.048 30.7235 143.395C30.9544 140.743 31.9293 138.068 33.9605 136.129C35.2925 138.707 35.719 141.588 35.1834 144.389C34.6489 147.165 33.6526 149.329 31.4461 151.333" fill="#FF725E"/>
<path d="M37.7192 156.749C37.0265 154.388 36.3851 151.989 36.3723 149.552C36.3594 147.115 37.0265 144.601 38.7155 142.693C40.1543 144.953 40.7927 147.553 40.5457 150.147C40.2934 152.719 39.5622 154.753 37.7192 156.749Z" fill="#FF725E"/>
<path d="M20.7133 139.818C18.6481 139.097 16.4951 138.599 14.2992 138.333C12.5771 138.089 10.8297 138.024 9.09098 138.137C7.34397 138.255 5.66932 138.812 4.25903 139.745C6.6943 141.192 9.54713 141.97 12.4676 141.983C15.3882 141.996 18.2494 141.243 20.7005 139.818" fill="#FF725E"/>
<path d="M37.7362 156.787C36.0592 156.203 34.3109 155.798 32.528 155.582C31.127 155.383 29.7052 155.329 28.2904 155.421C26.8689 155.514 25.5061 155.968 24.3607 156.73C26.3421 157.907 28.663 158.539 31.0389 158.549C33.4148 158.559 35.7424 157.947 37.7362 156.787" fill="#FF725E"/>
<path d="M26.1994 146.22C24.1339 145.501 21.9809 145.004 19.7853 144.739C18.0647 144.495 16.3186 144.43 14.5813 144.543C12.8347 144.66 11.16 145.216 9.74939 146.147C12.1847 147.595 15.0375 148.372 17.958 148.385C20.8785 148.398 23.7398 147.646 26.1908 146.22" fill="#FF725E"/>
<path d="M33.0966 152.918C31.1532 151.972 29.0921 151.235 26.9562 150.723C25.2834 150.294 23.5621 150.037 21.8249 149.955C20.0751 149.875 18.3355 150.238 16.8048 151.003C19.0193 152.711 21.7409 153.803 24.6362 154.144C27.5315 154.485 30.4747 154.06 33.1052 152.922" fill="#FF725E"/>
<path d="M16.3046 134.943C13.3322 135.328 10.3003 135.068 7.46324 134.184C4.6262 133.299 2.06686 131.817 0 129.861C2.20643 129.602 4.44823 129.742 6.59369 130.272C10.1343 131.262 12.918 133.581 16.3046 134.943Z" fill="#FF725E"/>
<path d="M11.5368 129.627C9.16377 129.142 7.07353 127.888 5.66607 126.105C4.25861 124.323 3.63278 122.137 3.90834 119.966C6.0909 120.763 7.97165 122.108 9.32591 123.838C10.6802 125.569 11.4507 127.614 11.5454 129.727" fill="#FF725E"/>
<path d="M39.2285 158.265C39.1912 158.243 39.1568 158.217 39.1259 158.188L38.8437 157.954L37.7789 157.056C37.3171 156.672 36.7527 156.166 36.1155 155.582C35.4784 154.999 34.7387 154.35 33.9775 153.601C30.7961 150.642 26.5543 146.424 22.1029 141.587C17.6515 136.751 13.7817 132.253 11.0151 128.978C9.62961 127.34 8.52211 126.008 7.76098 125.086L6.90576 124.019L6.68341 123.739C6.65531 123.709 6.63226 123.675 6.61499 123.639L6.70051 123.724L6.93997 123.992L7.84649 125.037C8.63757 125.958 9.76645 127.274 11.1604 128.875C13.957 132.13 17.8397 136.613 22.2782 141.442C26.7168 146.27 30.9458 150.508 34.093 153.49C34.8712 154.258 35.6024 154.903 36.231 155.49C36.8596 156.077 37.4112 156.576 37.8645 156.983L38.9035 157.927L39.1687 158.173L39.2285 158.265Z" fill="#263238"/>
<path d="M165.137 159.839L170.555 108.347C170.66 107.387 170.542 106.418 170.209 105.5C169.876 104.583 169.336 103.737 168.621 103.016C167.907 102.295 167.034 101.715 166.058 101.311C165.081 100.907 164.023 100.689 162.948 100.671L102.617 99.5959C100.63 99.5598 98.7029 100.206 97.2287 101.402C95.7545 102.598 94.8447 104.255 94.6849 106.033L90.0625 159.816L165.137 159.839Z" fill="#455A64"/>
<path d="M156.577 159.827C156.594 159.768 156.606 159.708 156.611 159.647C156.611 159.516 156.649 159.34 156.679 159.11C156.735 158.63 156.82 157.939 156.923 157.052C157.124 155.256 157.415 152.673 157.778 149.483C158.475 143.077 159.437 134.249 160.498 124.495C161.306 116.895 162.058 109.86 162.666 104.133C162.666 103.846 162.657 103.562 162.64 103.281C162.646 102.999 162.613 102.718 162.542 102.444C162.38 101.91 162.03 101.438 161.545 101.097C161.083 100.775 160.522 100.59 159.937 100.567L158.351 100.54L153.062 100.467L149.679 100.429H148.794C148.593 100.429 148.49 100.429 148.49 100.429C148.49 100.429 148.593 100.429 148.794 100.448L149.679 100.479L153.062 100.563L158.347 100.678L159.929 100.717C160.491 100.74 161.029 100.924 161.466 101.242C161.903 101.56 162.215 101.994 162.358 102.482C162.425 102.745 162.455 103.015 162.448 103.285C162.448 103.561 162.448 103.841 162.469 104.125C161.849 109.852 161.083 116.888 160.258 124.488C159.223 134.241 158.287 143.073 157.611 149.479C157.282 152.673 157.017 155.237 156.833 157.056C156.748 157.943 156.683 158.637 156.636 159.117C156.615 159.347 156.602 159.524 156.589 159.655C156.581 159.712 156.577 159.77 156.577 159.827V159.827Z" fill="#263238"/>
<path d="M88.181 69.6338C87.8655 69.3448 87.4767 69.1288 87.0478 69.0043H87.1291C87.0514 68.9901 86.9729 68.9798 86.8939 68.9736C86.7504 68.9393 86.6006 68.9315 86.4536 68.9506C86.3066 68.9698 86.1655 69.0155 86.0387 69.0849V69.0849C85.5626 69.2485 85.1721 69.5662 84.944 69.9754C84.7688 70.3382 84.7077 70.7372 84.7673 71.129C84.8268 71.5207 85.0048 71.8904 85.2818 72.1978C85.4842 72.4781 85.7764 72.6967 86.1199 72.8251C86.4635 72.9535 86.8422 72.9855 87.2064 72.9169C87.5705 72.8484 87.9031 72.6825 88.1602 72.4411C88.4174 72.1997 88.5871 71.8941 88.6471 71.5645C88.7557 71.2334 88.7699 70.8831 88.6885 70.5458C88.6071 70.2084 88.4325 69.8949 88.181 69.6338Z" fill="#455A64"/>
<path d="M84.7516 60.2989C83.32 59.947 82.004 59.2906 80.915 58.3853C79.8261 57.4799 78.9962 56.3523 78.4957 55.098C78.0156 53.8321 77.8773 52.4819 78.0921 51.1586C78.3069 49.8353 78.8688 48.5768 79.7315 47.4865C77.9612 47.8934 76.1995 46.4156 75.836 44.7997C75.4726 43.1838 76.114 41.5102 76.7981 39.9711C78.3632 36.459 80.3216 32.9354 83.5842 30.5748C86.8469 28.2142 91.7088 27.316 95.2322 29.3465C95.2622 27.9685 97.0624 27.2776 98.559 27.0435C105.084 26.0762 112.071 27.6116 117.211 31.3885C122.351 35.1654 125.494 41.1725 125.186 47.1756C127.401 50.2924 125.981 55.0289 122.334 56.7024C122.982 60.317 122.227 64.0217 120.196 67.1965C118.152 70.3412 114.953 72.7498 111.148 74.0095" fill="#FF725E"/>
<path d="M86.6887 56.9174C87.0864 51.7855 90.922 45.5136 96.6134 46.0894L114.368 50.2348C115.205 50.3164 115.977 50.6774 116.531 51.2461C117.086 51.8149 117.382 52.5499 117.361 53.3055L115.146 91.8041L115.27 91.8271C115.27 91.8271 111.161 102.651 99.4485 99.2889C97.118 98.621 96.0661 96.3295 95.6 93.9728H95.4803C95.4803 93.6926 95.4803 93.4354 95.4803 93.1667C95.2605 91.4111 95.2462 89.6396 95.4375 87.8813V87.8813C95.4375 84.7722 95.4375 83.4979 95.4375 83.5286C95.4375 83.5593 88.1426 82.3771 86.693 73.833C85.9532 69.5877 86.244 62.6327 86.6887 56.9174Z" fill="#B78876"/>
<path d="M89.8571 62.3601C89.8513 62.6464 89.9707 62.9233 90.1898 63.1314C90.4088 63.3395 90.7101 63.4623 91.0288 63.4733C91.1855 63.4875 91.3439 63.4731 91.4943 63.4309C91.6447 63.3887 91.784 63.3196 91.9039 63.2278C92.0238 63.136 92.1217 63.0233 92.1917 62.8967C92.2618 62.77 92.3026 62.6319 92.3116 62.4906C92.3164 62.2053 92.1972 61.9295 91.9792 61.7217C91.7613 61.5139 91.4618 61.3905 91.1442 61.3775C90.9873 61.3638 90.829 61.3786 90.6786 61.421C90.5282 61.4633 90.3888 61.5324 90.2688 61.6241C90.1487 61.7157 90.0504 61.8281 89.9797 61.9546C89.909 62.081 89.8673 62.2189 89.8571 62.3601V62.3601Z" fill="#263238"/>
<path d="M88.3306 60.5523C88.4803 60.6981 89.4124 60.0878 90.7295 60.0993C92.0465 60.1109 93.0001 60.7058 93.1454 60.5638C93.2139 60.4985 93.0642 60.2414 92.6451 59.965C92.0801 59.6062 91.4045 59.4144 90.7124 59.4161C90.0274 59.4099 89.358 59.5995 88.801 59.9573C88.4076 60.2299 88.2707 60.4909 88.3306 60.5523Z" fill="#263238"/>
<path d="M102.54 62.5559C102.534 62.8422 102.654 63.1191 102.873 63.3272C103.092 63.5353 103.393 63.658 103.712 63.669C103.868 63.6832 104.027 63.6688 104.177 63.6266C104.328 63.5844 104.467 63.5154 104.587 63.4235C104.707 63.3317 104.805 63.2191 104.875 63.0924C104.945 62.9657 104.985 62.8276 104.994 62.6864C104.998 62.4013 104.879 62.1261 104.661 61.9185C104.443 61.7109 104.144 61.5872 103.827 61.5733C103.67 61.5591 103.512 61.5735 103.361 61.6156C103.21 61.6577 103.071 61.7268 102.95 61.8185C102.83 61.9103 102.732 62.0229 102.661 62.1496C102.591 62.2763 102.55 62.4145 102.54 62.5559V62.5559Z" fill="#263238"/>
<path d="M101.266 60.8517C101.42 60.9975 102.352 60.3872 103.664 60.3987C104.977 60.4103 105.939 61.0052 106.08 60.8632C106.153 60.7979 105.999 60.5408 105.58 60.2644C105.015 59.9052 104.34 59.7133 103.647 59.7155C102.964 59.7093 102.296 59.8989 101.74 60.2567C101.334 60.5292 101.193 60.7903 101.266 60.8517Z" fill="#263238"/>
<path d="M96.4294 69.5762C96.4294 69.511 95.6212 69.3805 94.2913 69.2193C93.9578 69.1847 93.6371 69.1233 93.5858 68.916C93.5571 68.6048 93.6379 68.2934 93.8167 68.0255C94.1374 67.2963 94.4709 66.5363 94.8259 65.7225C96.2284 62.4638 97.2461 59.7808 97.1007 59.7309C96.9553 59.681 95.6982 62.2834 94.2956 65.5421C93.9578 66.3482 93.6328 67.112 93.325 67.8451C93.1119 68.2079 93.0469 68.6261 93.1411 69.0273C93.1899 69.134 93.2648 69.2294 93.3603 69.3064C93.4558 69.3835 93.5694 69.4403 93.6927 69.4726C93.8781 69.5184 94.0692 69.5429 94.2614 69.5455C95.5998 69.6338 96.4251 69.6453 96.4294 69.5762Z" fill="#263238"/>
<path d="M95.416 83.5401C99.9015 83.6291 104.326 82.5979 108.197 80.5616C108.197 80.5616 105.059 86.4189 95.5272 85.5514L95.416 83.5401Z" fill="#AA6550"/>
<path d="M96.964 72.4243C97.2185 72.1439 97.5483 71.9264 97.9224 71.7921C98.2964 71.6578 98.7024 71.6112 99.1021 71.6566C99.3924 71.6807 99.6742 71.7578 99.9301 71.8832C100.186 72.0086 100.411 72.1797 100.59 72.3859C100.764 72.5834 100.866 72.8239 100.883 73.0751C100.899 73.3262 100.83 73.576 100.684 73.7907C100.472 73.9981 100.197 74.1451 99.8932 74.2133C99.5891 74.2816 99.2694 74.2681 98.9738 74.1746C98.355 73.9717 97.7868 73.6612 97.3018 73.261C97.1547 73.1663 97.0286 73.0479 96.9298 72.9118C96.8792 72.8471 96.8521 72.77 96.8521 72.691C96.8521 72.612 96.8792 72.535 96.9298 72.4703" fill="#AA6550"/>
<path d="M100.304 70.4168C100.09 70.4168 100.077 71.6873 98.8455 72.5893C97.614 73.4913 96.1003 73.357 96.0875 73.5182C96.0661 73.5988 96.4253 73.7715 97.0667 73.7907C97.9023 73.8061 98.7171 73.556 99.3672 73.0845C99.9937 72.6336 100.399 71.9806 100.496 71.2651C100.547 70.7277 100.389 70.4091 100.304 70.4168Z" fill="#263238"/>
<path d="M100.693 58.7943C100.821 59.1167 102.134 58.9709 103.686 59.1474C105.238 59.324 106.474 59.7117 106.679 59.4238C106.773 59.2856 106.56 58.9824 106.059 58.6561C105.393 58.2666 104.634 58.0234 103.844 57.946C103.055 57.8554 102.253 57.9357 101.505 58.1802C100.924 58.3798 100.637 58.6293 100.693 58.7943Z" fill="#263238"/>
<path d="M88.8523 57.14C89.0832 57.4087 89.9898 57.14 91.0802 57.14C92.1706 57.14 93.0899 57.3319 93.3037 57.0517C93.3978 56.9174 93.2567 56.6487 92.8761 56.3915C92.3426 56.0744 91.7109 55.9172 91.0716 55.9424C90.4307 55.9466 89.8073 56.1304 89.2885 56.4683C88.8823 56.7331 88.7583 57.0095 88.8523 57.14Z" fill="#263238"/>
<path d="M111.362 61.3775C111.317 60.871 111.231 60.3682 111.105 59.8729C110.941 59.2988 110.681 58.7502 110.335 58.2454C109.882 57.5736 109.29 56.9859 108.591 56.5143C107.685 55.8977 106.62 55.4954 105.496 55.3445C104.371 55.1935 103.222 55.2989 102.155 55.6507C101.542 55.8478 100.965 56.1274 100.445 56.4798C99.8917 56.8393 99.4078 57.2776 99.0123 57.7772C98.1543 58.8188 97.6913 60.0801 97.6913 61.3756C97.6913 62.6711 98.1543 63.9324 99.0123 64.9741C99.4078 65.4737 99.8917 65.9119 100.445 66.2714C100.965 66.6238 101.542 66.9034 102.155 67.1005C103.296 67.4738 104.527 67.5678 105.721 67.373C106.765 67.1971 107.748 66.8026 108.591 66.2215C109.29 65.7499 109.882 65.1623 110.335 64.4904C110.682 63.986 110.942 63.4373 111.105 62.863C111.231 62.3689 111.316 61.8673 111.362 61.3622C111.366 61.3953 111.366 61.4288 111.362 61.462C111.362 61.5387 111.362 61.6347 111.362 61.7575C111.362 61.917 111.348 62.0761 111.319 62.2335C111.292 62.452 111.249 62.6687 111.19 62.8821C111.036 63.4682 110.784 64.0299 110.442 64.548C109.993 65.2407 109.397 65.8482 108.689 66.3367C107.764 66.9778 106.673 67.3985 105.518 67.5595C104.363 67.7206 103.181 67.6168 102.082 67.2579C101.447 67.0582 100.85 66.7721 100.312 66.4096C100.032 66.2234 99.7668 66.0208 99.5168 65.8031C99.2681 65.5766 99.038 65.3342 98.8284 65.0777C97.94 64.0023 97.4604 62.699 97.4604 61.3602C97.4604 60.0215 97.94 58.7182 98.8284 57.6428C99.038 57.3863 99.2681 57.1439 99.5168 56.9174C99.7668 56.6997 100.032 56.4971 100.312 56.3109C100.85 55.9484 101.447 55.6623 102.082 55.4626C103.258 55.0809 104.527 54.9907 105.756 55.2016C106.73 55.3667 107.655 55.7173 108.466 56.2297C109.277 56.7422 109.957 57.4046 110.459 58.1725C110.801 58.6906 111.054 59.2523 111.208 59.8383C111.266 60.0518 111.309 60.2685 111.336 60.487C111.364 60.6444 111.379 60.8035 111.379 60.963C111.379 61.0858 111.379 61.1818 111.379 61.2585C111.379 61.2987 111.373 61.3388 111.362 61.3775V61.3775Z" fill="#263238"/>
<path d="M122.291 57.1515C122.272 57.1137 122.259 57.0736 122.253 57.0325C122.227 56.9442 122.197 56.8291 122.163 56.6832C122.129 56.5374 122.082 56.3339 122.013 56.1113C121.945 55.8887 121.863 55.6277 121.778 55.3436C121.224 53.7172 120.423 52.1672 119.396 50.7376C117.873 48.6173 115.919 46.7735 113.636 45.3025C110.821 43.5242 107.627 42.2867 104.255 41.6676C100.879 41.0391 97.4073 40.9353 93.9921 41.3605C91.2027 41.6607 88.4805 42.3402 85.9189 43.3757C84.9412 43.7816 84.0017 44.2579 83.1095 44.7997C82.4387 45.2131 81.8001 45.667 81.1981 46.1585L80.5482 46.7074L80.1206 47.1411L79.8469 47.4021C79.8164 47.4348 79.7819 47.4644 79.7443 47.4904C79.7684 47.4543 79.7971 47.4208 79.8298 47.3906L80.0863 47.1142L80.514 46.669L81.1511 46.1009C81.7466 45.5969 82.3811 45.1313 83.0497 44.7076C83.9429 44.1529 84.8854 43.6651 85.8676 43.249C88.4393 42.1834 91.1804 41.4841 93.9921 41.1763C97.4247 40.7392 100.916 40.8392 104.31 41.4719C107.712 42.0981 110.931 43.3516 113.765 45.1528C116.064 46.6413 118.026 48.5094 119.546 50.657C120.569 52.1012 121.354 53.6707 121.876 55.3168L122.094 56.0844C122.159 56.3109 122.188 56.5067 122.223 56.664C122.257 56.8214 122.274 56.9289 122.291 57.0172C122.299 57.0617 122.299 57.107 122.291 57.1515Z" fill="#263238"/>
<path d="M124.604 48.8991C124.591 48.871 124.584 48.8411 124.583 48.8108C124.583 48.7378 124.583 48.6534 124.545 48.5459C124.519 48.3156 124.459 47.9779 124.361 47.5441C124.071 46.3268 123.578 45.1557 122.898 44.0704C121.887 42.4615 120.575 41.0204 119.02 39.8098C117.106 38.3354 115.011 37.0606 112.777 36.0099C108.744 34.0487 104.548 32.3702 100.227 30.9893C98.5675 30.4596 97.2077 30.0681 96.267 29.8071L95.1723 29.5077L94.8944 29.4271C94.8302 29.4271 94.796 29.3964 94.8003 29.3926C94.8046 29.3887 94.8345 29.3926 94.8986 29.3926L95.1851 29.454C95.4374 29.5116 95.8094 29.596 96.2841 29.7188C97.2334 29.9568 98.5974 30.3253 100.269 30.8396C104.617 32.1881 108.834 33.8571 112.875 35.8295C115.124 36.8875 117.229 38.1755 119.148 39.6678C120.711 40.8978 122.024 42.3629 123.027 43.9975C123.701 45.0993 124.177 46.2898 124.438 47.5249C124.508 47.8599 124.556 48.1982 124.583 48.5382C124.583 48.6457 124.583 48.734 124.583 48.8031C124.596 48.8337 124.604 48.8662 124.604 48.8991Z" fill="#263238"/>
<path d="M95.3178 48.5267C95.3178 48.5267 104.259 48.4077 111.028 57.4662C115.488 63.4387 116.429 70.935 116.429 70.935L119.879 56.6679L117.314 50.1427L111.135 47.0067L99.41 46.4156L94.9843 48.3809" fill="#FF725E"/>
<path d="M112.837 49.2675C98.5975 46.1969 87.2103 50.419 85.1236 60.4486L81.3008 54.8485L89.6348 45.8437L97.7593 43.9476L114.09 46.1777L112.837 49.2675Z" fill="#FF725E"/>
<path d="M122.043 48.4001C122.026 48.3606 122.014 48.3193 122.009 48.2772C122.009 48.1851 121.97 48.0661 121.941 47.9164C121.912 47.7197 121.869 47.5248 121.812 47.333C121.744 47.1027 121.688 46.8379 121.573 46.5653C121.322 45.8567 120.993 45.1726 120.589 44.5233C120.053 43.6661 119.405 42.8686 118.661 42.1474C117.759 41.2709 116.741 40.4974 115.629 39.8444C114.349 39.1029 112.97 38.5096 111.524 38.0787C108.471 37.146 104.896 36.8159 101.18 36.885C97.4644 36.9541 93.911 37.2689 90.7852 38.0097C89.3119 38.3525 87.8797 38.8243 86.5091 39.4183C85.3151 39.94 84.1881 40.5771 83.1481 41.3183C81.6259 42.3815 80.3492 43.7009 79.3894 45.2027C79.2227 45.4714 79.0773 45.7094 78.9618 45.9243C78.8464 46.1393 78.7523 46.3082 78.6882 46.4655C78.624 46.6229 78.5727 46.7189 78.53 46.8072C78.4872 46.8954 78.4744 46.9223 78.4701 46.9185C78.6769 46.3085 78.9564 45.7204 79.3039 45.1643C80.243 43.6357 81.5138 42.2914 83.0412 41.2108C84.0839 40.46 85.217 39.8163 86.4193 39.2917C87.7994 38.6838 89.2432 38.2004 90.7296 37.8484C93.8725 37.0808 97.443 36.7814 101.176 36.6969C104.909 36.6125 108.509 36.9656 111.588 37.9175C113.05 38.356 114.442 38.961 115.732 39.7177C116.852 40.3807 117.875 41.1673 118.776 42.0591C119.522 42.7923 120.168 43.6028 120.7 44.4734C121.098 45.1327 121.417 45.8274 121.654 46.5461C121.744 46.8059 121.818 47.0698 121.876 47.3368C121.929 47.5311 121.965 47.7287 121.983 47.9279C122.005 48.0815 122.022 48.2005 122.035 48.3118C122.04 48.341 122.043 48.3705 122.043 48.4001V48.4001Z" fill="#263238"/>
<path d="M86.1925 57.0363C85.9919 57.0232 85.7937 56.9884 85.6024 56.9327C85.0779 56.7824 84.5841 56.5569 84.14 56.2648C83.4892 55.8181 82.9355 55.2678 82.5065 54.6412C81.9856 53.8739 81.6005 53.0387 81.3648 52.1655C80.969 50.5774 80.9486 48.9324 81.3049 47.3368C81.4095 46.8537 81.5656 46.3807 81.771 45.9243C81.8395 45.7631 81.9121 45.6441 81.9549 45.5635C81.9977 45.4829 82.0319 45.4407 82.0361 45.4445C81.7913 46.0706 81.5983 46.7121 81.4589 47.3637C81.1546 48.9411 81.1967 50.5566 81.5829 52.1194C81.8147 52.9714 82.1835 53.7886 82.6776 54.5453C83.0867 55.1584 83.6137 55.7016 84.234 56.1497C84.8256 56.5435 85.488 56.8434 86.1925 57.0363V57.0363Z" fill="#FAFAFA"/>
<path d="M116.322 48.9336L116.228 48.9067L115.963 48.8031L115.535 48.6342L114.936 48.4308C113.663 48.0086 112.338 47.7226 110.989 47.5787C108.989 47.3637 106.967 47.3714 104.969 47.6017C103.84 47.7207 102.664 47.9126 101.45 48.1352C100.235 48.3578 98.9908 48.6304 97.7379 48.9797C92.6836 50.2924 88.7882 53.1519 87.0478 55.7889C86.3441 56.8305 85.8153 57.9596 85.4785 59.1398C85.3545 59.5581 85.2818 59.8844 85.2305 60.1109C85.2048 60.2107 85.1877 60.2951 85.1706 60.3642C85.1643 60.3933 85.1542 60.4216 85.1407 60.4486C85.1341 60.4195 85.1341 60.3895 85.1407 60.3604C85.1407 60.2913 85.1663 60.2068 85.1834 60.1032C85.2337 59.7725 85.3036 59.4445 85.393 59.1206C85.6967 57.9218 86.2075 56.7731 86.9067 55.716C88.6513 53.0291 92.5853 50.112 97.6866 48.8069C98.9695 48.4576 100.201 48.189 101.42 47.9625C102.638 47.736 103.819 47.5518 104.956 47.4405C106.97 47.2103 109.009 47.2103 111.024 47.4405C112.38 47.5995 113.708 47.9089 114.979 48.3617L115.573 48.5843L116.001 48.7724L116.258 48.8914C116.296 48.9144 116.326 48.9298 116.322 48.9336Z" fill="#263238"/>
<path d="M97.6866 48.9528C97.7904 48.9426 97.8951 48.9426 97.9988 48.9528C98.2943 48.9728 98.5884 49.0074 98.8797 49.0564C99.9543 49.2415 100.997 49.5539 101.98 49.9853C104.477 51.0485 107.594 53.1942 110.079 56.2687C111.229 57.7236 112.237 59.2646 113.093 60.8747C113.821 62.171 114.465 63.5039 115.022 64.8666C115.402 65.783 115.707 66.7234 115.933 67.6801C116.005 68.0217 116.057 68.2865 116.078 68.4669C116.098 68.558 116.108 68.6506 116.108 68.7433C116.072 68.6566 116.048 68.5664 116.035 68.4746C116.001 68.2942 115.937 68.0332 115.847 67.707C115.589 66.7608 115.264 65.8301 114.876 64.9203C114.3 63.572 113.643 62.2523 112.909 60.9668C112.052 59.3774 111.051 57.8536 109.916 56.4107C107.834 53.7901 105.099 51.6424 101.928 50.1388C100.961 49.7011 99.937 49.3724 98.8797 49.1601C98.5034 49.091 98.2126 49.0411 98.0245 49.018C97.9097 49.0066 97.7965 48.9847 97.6866 48.9528Z" fill="#263238"/>
<path d="M95.2194 61.3775C95.1775 60.8708 95.0917 60.3677 94.9629 59.8729C94.7987 59.2988 94.5392 58.7502 94.1932 58.2454C93.7403 57.5736 93.148 56.9859 92.4485 56.5143C91.6063 55.9332 90.6233 55.5387 89.5793 55.3628C88.3847 55.168 87.1538 55.2621 86.0131 55.6354C85.3995 55.8325 84.8228 56.112 84.3026 56.4644C83.7496 56.824 83.2657 57.2622 82.8701 57.7618C82.0148 58.8044 81.5533 60.0654 81.5533 61.3602C81.5533 62.6551 82.0148 63.916 82.8701 64.9587C83.2657 65.4583 83.7496 65.8965 84.3026 66.2561C84.8228 66.6085 85.3995 66.888 86.0131 67.0851C87.1551 67.4591 88.3876 67.5532 89.5836 67.3577C90.533 67.1969 91.4342 66.8585 92.2284 66.3645C93.0225 65.8705 93.692 65.2319 94.1932 64.4904C94.54 63.986 94.7995 63.4373 94.9629 62.863C95.0912 62.3694 95.177 61.8676 95.2194 61.3622C95.2263 61.3951 95.2263 61.429 95.2194 61.462C95.2194 61.5387 95.2194 61.6347 95.2194 61.7575C95.2193 61.9222 95.2035 62.0865 95.1724 62.2488C95.1457 62.4674 95.1028 62.6841 95.0441 62.8975C94.8955 63.4785 94.6504 64.0362 94.3172 64.5518C93.8676 65.2445 93.2722 65.8521 92.564 66.3405C91.6386 66.9816 90.5477 67.4023 89.3926 67.5634C88.2376 67.7244 87.0559 67.6206 85.9575 67.2617C85.3224 67.0621 84.7253 66.776 84.1872 66.4134C83.9075 66.2272 83.6418 66.0246 83.3918 65.807C83.1431 65.5805 82.913 65.338 82.7034 65.0815C81.815 64.0061 81.3354 62.7029 81.3354 61.3641C81.3354 60.0253 81.815 58.722 82.7034 57.6466C82.913 57.3902 83.1431 57.1477 83.3918 56.9212C83.6418 56.7035 83.9075 56.501 84.1872 56.3147C84.7253 55.9522 85.3224 55.6661 85.9575 55.4665C87.4854 54.9698 89.159 54.9701 90.6867 55.4674C92.2143 55.9647 93.4991 56.9275 94.3172 58.1879C94.6591 58.7059 94.9114 59.2676 95.0655 59.8537C95.1238 60.0672 95.1667 60.2839 95.1938 60.5024C95.2224 60.6597 95.2367 60.8189 95.2365 60.9783C95.2365 61.1012 95.2365 61.1971 95.2365 61.2739C95.2375 61.3091 95.2317 61.3441 95.2194 61.3775V61.3775Z" fill="#263238"/>
<path d="M116.719 69.1578C116.41 68.8693 116.027 68.6532 115.603 68.5284H115.689C115.61 68.5113 115.53 68.4997 115.449 68.4938C115.306 68.4592 115.156 68.4515 115.008 68.4713C114.861 68.4912 114.72 68.538 114.594 68.609C114.12 68.774 113.731 69.0914 113.504 69.4995C113.328 69.8621 113.266 70.2612 113.326 70.6532C113.385 71.0451 113.564 71.4148 113.842 71.7219C114.043 72.0026 114.335 72.2218 114.678 72.3506C115.022 72.4793 115.401 72.5115 115.765 72.4429C116.129 72.3742 116.461 72.208 116.718 71.9662C116.975 71.7244 117.144 71.4184 117.203 71.0885C117.31 70.7563 117.322 70.405 117.238 70.0674C117.153 69.7298 116.975 69.4169 116.719 69.1578Z" fill="#455A64"/>
<path d="M89.6477 53.1097C89.4969 53.0618 89.3533 52.9973 89.2201 52.9178C89.0599 52.8387 88.9056 52.7502 88.7583 52.653C88.5573 52.534 88.3632 52.4059 88.1768 52.2691C87.6847 51.9213 87.2269 51.536 86.8084 51.1176C86.2971 50.6007 85.8391 50.0431 85.4401 49.4518C85.0523 48.8534 84.7246 48.2253 84.4609 47.5748C84.2506 47.0427 84.0904 46.4958 83.9819 45.9397C83.9264 45.7055 83.9093 45.4868 83.8836 45.2987C83.8581 45.1372 83.8452 44.9743 83.8451 44.8112C83.8277 44.6722 83.8277 44.5319 83.8451 44.3928C83.8879 44.3928 83.9135 44.9839 84.1273 45.9282C84.2571 46.4721 84.43 47.007 84.6447 47.5288C84.9136 48.1638 85.2411 48.7775 85.624 49.3635C86.0162 49.9442 86.461 50.4949 86.9538 51.0101C87.3596 51.4293 87.7983 51.8218 88.2666 52.1847C89.1004 52.7758 89.6691 53.0752 89.6477 53.1097Z" fill="#FAFAFA"/>
<path d="M90.2677 42.3125C90.3019 42.3125 90.0283 42.8728 89.7161 43.7941C89.306 44.9905 89.0646 46.2285 88.9977 47.4789C88.9334 48.7309 89.0411 49.9852 89.3184 51.2136C89.5365 52.154 89.746 52.722 89.7161 52.7489C89.6356 52.6291 89.5738 52.4999 89.5322 52.3651C89.3854 52.0051 89.264 51.6372 89.1688 51.2635C88.5091 48.7812 88.647 46.1819 89.5665 43.7672C89.6976 43.3935 89.8561 43.0281 90.0411 42.6733C90.1004 42.5453 90.1764 42.4242 90.2677 42.3125Z" fill="#FAFAFA"/>
<path d="M99.9529 47.9356C99.7443 47.5803 99.5574 47.2151 99.3927 46.8417C98.5072 45.0842 97.334 43.4554 95.912 42.0092C95.6006 41.7216 95.3066 41.4192 95.0311 41.1034C95.1367 41.1574 95.2331 41.2246 95.3176 41.303C95.4972 41.4373 95.7452 41.6446 96.0275 41.9133C97.5317 43.3234 98.7232 44.9778 99.5381 46.788C99.692 47.1334 99.8032 47.4175 99.8716 47.617C99.9151 47.7193 99.9425 47.8266 99.9529 47.9356V47.9356Z" fill="#FAFAFA"/>
<path d="M102.775 41.825C102.911 42.0804 102.999 42.3539 103.036 42.6349C103.313 43.9732 103.263 45.3495 102.891 46.669C102.831 46.9455 102.724 47.2122 102.574 47.4597C102.783 46.5334 102.925 45.5963 103.002 44.6538C102.993 43.7076 102.917 42.7627 102.775 41.825V41.825Z" fill="#FAFAFA"/>
<path d="M107.573 43.2874C107.719 44.0014 107.684 44.736 107.469 45.4359C107.254 46.1359 106.866 46.7832 106.333 47.3292C106.702 46.7052 107.011 46.0542 107.256 45.3831C107.428 44.6939 107.534 43.9928 107.573 43.2874V43.2874Z" fill="#FAFAFA"/>
<path d="M111.712 58.9056C111.669 58.9056 111.759 58.2416 111.764 57.1745C111.76 55.7807 111.575 54.392 111.212 53.0368C110.842 51.6875 110.295 50.3823 109.583 49.1485C109.031 48.2043 108.616 47.6554 108.646 47.6362C108.77 47.7518 108.878 47.8808 108.967 48.0201C109.241 48.3661 109.492 48.7263 109.72 49.0986C110.481 50.3271 111.056 51.6412 111.43 53.0061C111.8 54.3709 111.964 55.7743 111.917 57.1784C111.906 57.6021 111.869 58.025 111.806 58.445C111.792 58.601 111.76 58.7552 111.712 58.9056V58.9056Z" fill="#455A64"/>
<path d="M120.542 52.4649C120.577 52.6396 120.593 52.817 120.589 52.9946C120.589 53.1673 120.589 53.3784 120.589 53.6241C120.589 53.8697 120.589 54.1461 120.542 54.4531C120.478 55.1722 120.36 55.8865 120.187 56.5911C119.758 58.3175 119.017 59.9693 117.994 61.4812C117.573 62.096 117.109 62.6857 116.604 63.2468C116.394 63.4886 116.176 63.692 115.997 63.8724C115.817 64.0528 115.65 64.2064 115.514 64.3254C115.384 64.4551 115.241 64.5734 115.086 64.6785C115.197 64.5318 115.325 64.3955 115.467 64.2716C115.595 64.145 115.753 63.9876 115.92 63.7995C116.087 63.6114 116.296 63.4157 116.497 63.1585C116.983 62.5924 117.43 62.0002 117.835 61.3852C118.322 60.6294 118.751 59.8445 119.118 59.0361C119.476 58.2225 119.77 57.3875 119.999 56.5374C120.181 55.8417 120.315 55.1367 120.401 54.4263C120.448 54.123 120.457 53.8467 120.478 53.6049C120.499 53.363 120.512 53.1558 120.512 52.9831C120.505 52.8099 120.515 52.6365 120.542 52.4649V52.4649Z" fill="#FAFAFA"/>
<path d="M109.809 37.7525C109.869 38.0185 109.869 38.2926 109.809 38.5585C109.696 39.2059 109.439 39.8264 109.054 40.3833C108.669 40.9403 108.164 41.4227 107.569 41.8019C107.333 41.9766 107.061 42.1071 106.769 42.1858C106.769 42.1589 107.051 42.0092 107.475 41.706C108.58 40.9057 109.349 39.7917 109.655 38.547C109.692 38.28 109.743 38.0148 109.809 37.7525V37.7525Z" fill="#FAFAFA"/>
<path d="M118.143 41.8288C118.204 42.0917 118.197 42.3634 118.122 42.6234C117.993 43.2576 117.7 43.8559 117.267 44.3698C116.829 44.885 116.26 45.2983 115.608 45.575C115.346 45.708 115.053 45.7842 114.752 45.7977C114.752 45.767 115.065 45.6787 115.531 45.4484C116.133 45.1457 116.661 44.7371 117.083 44.247C117.503 43.7556 117.807 43.1928 117.977 42.5926C118.096 42.132 118.105 41.8288 118.143 41.8288Z" fill="#FAFAFA"/>
<path d="M121.137 45.1375C121.023 45.3679 120.858 45.5755 120.653 45.7478C119.724 46.6505 118.445 47.1999 117.079 47.2831C116.801 47.3182 116.519 47.3012 116.249 47.2332C117.174 47.1737 118.082 46.9752 118.934 46.6459C119.756 46.2561 120.501 45.7463 121.137 45.1375V45.1375Z" fill="#FAFAFA"/>
<path d="M101.355 41.0266C100.924 40.4769 100.692 39.8218 100.688 39.1497C100.607 38.4857 100.756 37.8153 101.116 37.2305C100.965 37.8612 100.891 38.5046 100.894 39.1497C100.975 39.7879 101.13 40.4169 101.355 41.0266V41.0266Z" fill="#FAFAFA"/>
<path d="M100.051 41.3298C100.051 41.349 99.7905 41.1725 99.4655 40.827C98.6318 39.9103 98.1252 38.7894 98.0116 37.6105C97.9694 37.3694 97.9781 37.1233 98.0373 36.885C98.1573 37.6884 98.3708 38.4783 98.6744 39.2418C99.0483 39.9802 99.51 40.6803 100.051 41.3298V41.3298Z" fill="#455A64"/>
<path d="M92.5299 37.7525C92.734 39.0811 92.4067 40.4315 91.6063 41.564C91.5421 41.5371 91.974 40.7426 92.2263 39.687C92.4786 38.6315 92.4615 37.7525 92.5299 37.7525Z" fill="#FAFAFA"/>
<path d="M86.0943 43.1607C86.0943 43.1838 85.889 43.1262 85.6153 42.9611C85.2679 42.7361 84.9766 42.4485 84.7601 42.1167C84.5335 41.7873 84.3878 41.4183 84.3325 41.0343C84.2983 40.7426 84.3325 40.5583 84.3625 40.5622C84.4838 41.068 84.6793 41.5572 84.944 42.0169C85.2683 42.4429 85.6552 42.8277 86.0943 43.1607V43.1607Z" fill="#455A64"/>
<path d="M89.4553 28.3447C89.4852 28.3677 89.0277 28.8053 88.4547 29.6305C87.7241 30.7044 87.2617 31.9077 87.0993 33.1574C86.9369 34.4072 87.0783 35.6737 87.5139 36.8697C87.8475 37.7909 88.1938 38.309 88.1553 38.3282C88.0509 38.2204 87.9631 38.1003 87.8945 37.9713C87.6869 37.6326 87.5096 37.2796 87.3643 36.9157C86.8789 35.7053 86.7136 34.4102 86.8813 33.1326C87.049 31.855 87.5452 30.6298 88.3307 29.5538C88.566 29.2301 88.8291 28.9234 89.1175 28.6364C89.3184 28.4368 89.4424 28.3332 89.4553 28.3447Z" fill="#FAFAFA"/>
<path d="M80.8389 32.6667C80.8774 32.6667 80.7449 33.158 80.7449 33.9487C80.7391 34.9789 81.0078 35.9953 81.5285 36.9134C82.0492 37.8314 82.8067 38.6245 83.7381 39.2264C84.4522 39.6909 84.9653 39.8751 84.9482 39.9096C84.8196 39.8911 84.6953 39.8535 84.5805 39.7983C84.2553 39.6712 83.9433 39.5183 83.6483 39.3416C82.6627 38.7545 81.8606 37.9512 81.3179 37.0079C80.7835 36.0575 80.5261 35.001 80.5695 33.9372C80.5824 33.6193 80.6282 33.3032 80.7064 32.9929C80.7296 32.8782 80.7745 32.7679 80.8389 32.6667V32.6667Z" fill="#455A64"/>
<path d="M97.366 30.3215C97.4321 30.4001 97.4828 30.4884 97.5156 30.5825C97.6354 30.8298 97.7284 31.0869 97.7936 31.3501C98.0206 32.2082 98.0466 33.0992 97.87 33.9667C97.6933 34.8343 97.3178 35.6594 96.7673 36.3899C96.6032 36.6116 96.4156 36.8185 96.2071 37.0079C96.0618 37.1422 95.9762 37.2113 95.9634 37.1998C95.9506 37.1883 96.2499 36.8735 96.6347 36.3131C97.645 34.8382 98.0035 33.0773 97.6396 31.377C97.5028 30.7206 97.3104 30.3368 97.366 30.3215Z" fill="#FAFAFA"/>
<path d="M101.651 31.5958C101.762 31.8643 101.815 32.1499 101.804 32.4364C101.853 33.8374 101.321 35.2049 100.312 36.2747C100.118 36.5036 99.8788 36.6987 99.6066 36.8505C99.7876 36.6204 99.9817 36.3987 100.188 36.1865C101.097 35.1046 101.607 33.7948 101.646 32.4402C101.659 31.9259 101.616 31.5996 101.651 31.5958Z" fill="#455A64"/>
<path d="M108.557 33.7875C108.582 33.7875 108.711 33.941 108.826 34.2442C108.972 34.6449 109.024 35.0682 108.98 35.4879C108.93 35.909 108.784 36.3166 108.552 36.6854C108.373 36.9656 108.214 37.1038 108.193 37.0693C108.46 36.5558 108.643 36.0101 108.736 35.4495C108.764 34.8906 108.704 34.331 108.557 33.7875V33.7875Z" fill="#FAFAFA"/>
<path d="M115.877 38.0212C115.916 38.0634 115.578 38.3743 115.022 38.5816C114.711 38.7416 114.35 38.8038 113.996 38.7581C114.294 38.6126 114.608 38.493 114.932 38.4012C115.234 38.249 115.55 38.1218 115.877 38.0212Z" fill="#FAFAFA"/>
<path d="M120.204 41.0919C120.477 41.5 120.588 41.9787 120.521 42.4506C120.529 42.9257 120.362 43.3898 120.046 43.771C119.986 43.7442 120.26 43.1799 120.298 42.4391C120.337 41.6983 120.14 41.111 120.204 41.0919Z" fill="#455A64"/>
<path d="M113.453 29.1124C113.453 29.1124 113.538 29.1853 113.641 29.3427C113.787 29.5657 113.909 29.801 114.004 30.0451C114.333 30.856 114.422 31.7297 114.262 32.5807C114.103 33.4317 113.7 34.2311 113.093 34.9006C112.913 35.1033 112.711 35.2897 112.49 35.4572C112.337 35.5761 112.242 35.6299 112.23 35.6184C112.217 35.6069 112.546 35.3343 112.969 34.8162C113.521 34.1468 113.889 33.37 114.043 32.5489C114.196 31.7278 114.132 30.8856 113.855 30.0912C113.649 29.477 113.418 29.1277 113.453 29.1124Z" fill="#455A64"/>
<path d="M118.93 33.1426C118.928 33.4289 118.858 33.7116 118.725 33.9717C118.441 34.6146 117.992 35.1884 117.415 35.6465C116.837 36.1047 116.148 36.4343 115.402 36.6087C115.099 36.696 114.778 36.7248 114.462 36.6931C114.462 36.6586 114.817 36.6279 115.36 36.4743C116.064 36.2692 116.713 35.9359 117.267 35.4954C117.821 35.0549 118.268 34.5166 118.58 33.9141C118.819 33.4612 118.892 33.135 118.93 33.1426Z" fill="#FAFAFA"/>
<path d="M122.967 37.7525C122.984 37.9423 122.946 38.133 122.855 38.3052C122.678 38.7323 122.396 39.1186 122.032 39.4359C121.667 39.7533 121.228 39.9938 120.747 40.1399C120.553 40.2131 120.341 40.2421 120.132 40.2244C120.771 40.0104 121.362 39.6944 121.876 39.2917C122.343 38.844 122.713 38.322 122.967 37.7525V37.7525Z" fill="#455A64"/>
<path d="M84.1914 94.0687L94.7832 88.5799L115.59 86.7375L115.727 89.4742L110.109 127.631L114.684 159.827H81.3435L84.1914 94.0687Z" fill="#263238"/>
<path d="M94.0049 92.4796L93.3507 86.987C93.3236 86.7573 93.3475 86.5251 93.4212 86.3039C93.4949 86.0826 93.6169 85.8767 93.78 85.6982C93.9432 85.5196 94.1442 85.3719 94.3715 85.2637C94.5987 85.1555 94.8477 85.0889 95.1039 85.0678L114.509 83.4941C114.633 83.4841 114.759 83.497 114.878 83.5321C114.996 83.5671 115.106 83.6236 115.2 83.6979C115.293 83.7723 115.369 83.8631 115.422 83.9646C115.475 84.0662 115.505 84.1764 115.509 84.2886L115.727 90.8138L110.109 99.3733L104.332 101.016H97.2719L93.2096 97.124L94.0049 92.4796Z" fill="#263238"/>
<path d="M112.863 88.7334C112.603 88.7241 112.345 88.7011 112.089 88.6643C111.385 88.6046 110.677 88.593 109.972 88.6298C108.926 88.694 107.887 88.8287 106.863 89.0328C105.704 89.2516 104.447 89.5587 103.113 89.8504C101.858 90.1417 100.58 90.3457 99.2903 90.4607C98.2309 90.5486 97.1626 90.4838 96.126 90.2688C95.4267 90.1189 94.7585 89.8701 94.1462 89.5318C93.9834 89.4371 93.8264 89.3346 93.6758 89.2247C93.5732 89.148 93.5219 89.1019 93.5305 89.0981C93.539 89.0942 93.7614 89.2362 94.1975 89.4589C94.8143 89.7628 95.4768 89.9852 96.1645 90.1191C97.1864 90.3099 98.235 90.3578 99.2732 90.2611C100.548 90.1367 101.812 89.9288 103.053 89.6393C104.383 89.3475 105.649 89.0443 106.82 88.8371C107.855 88.6391 108.906 88.5184 109.963 88.4762C110.678 88.4515 111.394 88.4862 112.101 88.5799C112.354 88.6183 112.529 88.649 112.674 88.6797C112.739 88.6924 112.802 88.7104 112.863 88.7334V88.7334Z" fill="#455A64"/>
<g opacity="0.3">
<path opacity="0.3" d="M94.4669 89.5894C93.9452 90.8714 93.9323 92.4605 94.9843 93.4277C95.8395 94.2299 97.2249 94.4295 98.4393 94.1954C99.6418 93.9178 100.783 93.4583 101.813 92.8366C104.486 91.4087 107.197 89.931 110.233 89.3284C110.432 89.3054 110.619 89.2337 110.776 89.1211C110.813 89.0926 110.844 89.0575 110.865 89.0179C110.887 88.9783 110.899 88.9352 110.901 88.8911C110.903 88.8471 110.895 88.8033 110.877 88.7622C110.859 88.7212 110.832 88.6839 110.797 88.6528C110.721 88.6104 110.634 88.5878 110.545 88.5876C107.859 88.3457 105.277 89.2977 102.647 89.8273C100.017 90.357 96.994 90.9136 94.5866 89.6393" fill="black"/>
</g>
<path d="M98.1656 84.8951C97.89 85.0284 97.6596 85.226 97.4986 85.467C97.195 85.9084 97.2335 86.6569 97.2335 87.4668C97.2848 89.0942 97.5841 90.3916 97.5114 90.4069C97.3788 90.1398 97.2909 89.8565 97.2506 89.5663C97.1004 88.8767 97.0146 88.1769 96.994 87.4744C96.9747 87.0905 96.9833 86.7059 97.0197 86.3229C97.0456 85.9949 97.16 85.6774 97.3532 85.3979C97.486 85.2086 97.6758 85.0569 97.9005 84.9603C98.0716 84.8951 98.1656 84.8951 98.1656 84.8951Z" fill="#455A64"/>
<path d="M103.297 89.6661C103.22 89.6661 103.395 88.4609 103.156 87.01C102.916 85.5591 102.395 84.446 102.467 84.4191C102.642 84.6332 102.777 84.8718 102.865 85.1254C103.119 85.7235 103.297 86.3454 103.395 86.9793C103.5 87.6146 103.521 88.2587 103.459 88.8985C103.454 89.1607 103.399 89.4203 103.297 89.6661Z" fill="#455A64"/>
<path d="M109.548 83.9585C109.721 84.1486 109.847 84.3698 109.916 84.6072C110.341 85.7376 110.249 86.9731 109.66 88.0425C109.56 88.2717 109.402 88.4768 109.198 88.6413C109.584 87.9159 109.831 87.1373 109.929 86.3383C110.04 84.9949 109.471 83.9815 109.548 83.9585Z" fill="#455A64"/>
<path d="M70.0077 141.085C70.0077 141.085 74.7114 109.994 76.084 104.355C76.6008 102.24 77.5865 100.239 78.9822 98.4729C80.3779 96.7064 82.1553 95.2099 84.2085 94.0726L85.5127 150.404L79.7785 156.883L73.3644 159.086C71.8959 159.593 70.2748 159.616 68.7891 159.152L62.6444 157.233L62.1227 146.723L67.3138 145.376L70.0077 141.085Z" fill="#263238"/>
<path d="M133.93 93.539C136.284 94.3611 138.377 95.6895 140.025 97.4075C141.672 99.1256 142.825 101.181 143.381 103.392C147.049 117.905 153.327 137.216 153.425 143.445C153.549 151.379 149.683 156.81 144.638 157.812C141.751 158.384 122.12 158.096 111.46 157.893C109.556 157.855 107.732 157.204 106.319 156.059C104.906 154.914 103.998 153.351 103.763 151.655C103.502 149.805 104.061 147.937 105.317 146.453C106.574 144.968 108.429 143.985 110.485 143.714L132.083 140.862L128.072 120.745L132.04 92.8827L133.93 93.539Z" fill="#263238"/>
<path d="M115.172 87.3132L123.822 90.4875L132.049 92.8827L132.246 114.98L127.35 159.77L110.181 159.827L110.216 139.837C109.577 130.201 110.278 120.531 112.302 111.05L114.915 92.0459" fill="#263238"/>
<path d="M127.829 118.711C127.86 118.783 127.881 118.857 127.893 118.934C127.931 119.106 127.978 119.317 128.034 119.578C128.154 120.169 128.32 120.976 128.517 121.954C128.915 123.992 129.449 126.756 130.044 129.808C130.638 132.859 131.121 135.63 131.502 137.668C131.673 138.655 131.814 139.461 131.929 140.056C131.972 140.321 132.006 140.536 132.032 140.708C132.044 140.785 132.044 140.862 132.032 140.939C132.001 140.867 131.979 140.792 131.968 140.716C131.925 140.543 131.878 140.332 131.818 140.071C131.699 139.48 131.532 138.678 131.326 137.695C130.925 135.688 130.381 132.913 129.8 129.842C129.218 126.771 128.701 123.996 128.346 121.981C128.175 120.995 128.038 120.189 127.918 119.594C127.88 119.329 127.85 119.114 127.824 118.941C127.813 118.865 127.815 118.787 127.829 118.711Z" fill="#263238"/>
<path d="M135.932 96.6788C135.718 96.7672 135.496 96.8404 135.269 96.8976C134.669 97.0943 134.082 97.3225 133.511 97.5808C131.636 98.4465 130.01 99.6907 128.761 101.216C128.404 101.645 128.091 102.103 127.824 102.582C127.594 103.035 127.406 103.505 127.264 103.987C127.022 104.809 126.864 105.649 126.794 106.497C126.721 107.219 126.708 107.81 126.704 108.217C126.719 108.428 126.719 108.639 126.704 108.85C126.651 108.642 126.626 108.43 126.627 108.217C126.591 107.64 126.591 107.062 126.627 106.486C126.675 105.626 126.818 104.772 127.055 103.937C127.195 103.441 127.384 102.957 127.619 102.49C127.888 101.998 128.207 101.529 128.573 101.089C129.841 99.5355 131.513 98.2837 133.443 97.4426C134.026 97.1925 134.629 96.9833 135.248 96.817C135.47 96.7494 135.699 96.7031 135.932 96.6788Z" fill="#263238"/>
<path d="M109.989 143.795C110.089 143.798 110.19 143.791 110.288 143.775L111.144 143.679L114.299 143.296L124.699 141.91L132.259 140.866H132.229C133.192 140.99 134.099 141.35 134.85 141.906C135.438 142.327 135.926 142.849 136.287 143.441C136.591 143.964 136.807 144.524 136.928 145.103C136.935 145.064 136.935 145.024 136.928 144.984C136.928 144.904 136.928 144.789 136.877 144.639C136.787 144.204 136.625 143.784 136.398 143.391C136.044 142.775 135.556 142.229 134.961 141.787C134.192 141.201 133.256 140.818 132.259 140.682H132.229L124.677 141.703L114.291 143.15L111.148 143.61L110.293 143.748C110.19 143.754 110.088 143.769 109.989 143.795Z" fill="#263238"/>
<path d="M111.725 157.9C111.796 157.89 111.866 157.869 111.93 157.839C112.126 157.776 112.316 157.699 112.499 157.609C113.176 157.285 113.781 156.852 114.282 156.331C115.025 155.553 115.577 154.644 115.903 153.663C116.306 152.462 116.413 151.197 116.215 149.955C115.99 148.709 115.399 147.539 114.504 146.566C113.787 145.774 112.899 145.121 111.892 144.647C111.221 144.325 110.5 144.096 109.754 143.967C109.493 143.917 109.279 143.917 109.138 143.898C109.067 143.89 108.995 143.89 108.924 143.898C109.939 144.05 110.92 144.35 111.828 144.785C112.799 145.27 113.655 145.922 114.346 146.704C115.202 147.655 115.766 148.79 115.984 149.997C116.174 151.203 116.077 152.432 115.697 153.601C115.39 154.562 114.866 155.456 114.158 156.227C113.677 156.748 113.098 157.189 112.448 157.532C111.994 157.774 111.716 157.877 111.725 157.9Z" fill="#263238"/>
<g opacity="0.2">
<path opacity="0.2" d="M128.149 120.146L124.925 141.76L129.009 140.939L130.274 131.508L128.149 120.146Z" fill="black"/>
</g>
<g opacity="0.3">
<path opacity="0.3" d="M62.2167 146.727C64.1565 146.412 66.1436 146.412 68.0834 146.727C68.9134 146.894 69.6931 147.221 70.3686 147.685C71.0441 148.148 71.5994 148.738 71.996 149.414C72.7569 150.683 72.9931 152.153 72.6631 153.563C72.3852 154.78 72.0944 156.039 71.1023 156.902C69.6399 158.177 68.1989 158.587 66.3089 158.288L62.6742 157.229L62.2167 146.727Z" fill="black"/>
</g>
<path d="M65.3468 158.069C65.4238 158.108 65.5056 158.139 65.5905 158.161C65.8282 158.239 66.0728 158.298 66.3217 158.338C67.2412 158.508 68.1938 158.463 69.0883 158.208C69.7064 158.026 70.2768 157.734 70.7646 157.348C71.3163 156.9 71.7702 156.364 72.103 155.766C72.4697 155.109 72.7276 154.407 72.8684 153.682C73.0558 152.907 73.0761 152.107 72.9282 151.325C72.7385 150.554 72.4107 149.815 71.9576 149.137C71.5666 148.526 71.0388 147.993 70.4074 147.573C69.776 147.153 69.0547 146.854 68.2887 146.696C67.6601 146.576 67.0199 146.512 66.3773 146.504C65.4534 146.497 64.5301 146.551 63.615 146.666L62.8709 146.762C62.7831 146.766 62.6965 146.783 62.6144 146.811C62.701 146.821 62.7886 146.821 62.8752 146.811L63.6235 146.758C64.537 146.675 65.4553 146.645 66.373 146.666C67.0022 146.683 67.628 146.755 68.2417 146.881C68.9399 147.032 69.5991 147.303 70.183 147.679C71.4188 148.447 72.321 149.855 72.6931 151.375C72.8354 152.13 72.8165 152.903 72.6375 153.651C72.5048 154.356 72.2585 155.04 71.9063 155.682C71.5885 156.261 71.1535 156.781 70.6234 157.217C70.1589 157.593 69.6151 157.882 69.0242 158.065C68.1576 158.328 67.233 158.396 66.3303 158.265C65.6974 158.165 65.3553 158.05 65.3468 158.069Z" fill="#263238"/>
<g opacity="0.3">
<path opacity="0.3" d="M109.459 143.921C111.169 144.343 112.986 144.819 114.162 146.017C115.358 147.341 116.056 148.971 116.155 150.673C116.254 152.375 115.75 154.061 114.714 155.49C114.177 156.276 113.456 156.948 112.602 157.459C111.723 157.856 110.724 157.982 109.758 157.816C107.192 157.432 105.003 155.574 104.242 153.325C103.868 152.143 103.774 150.904 103.965 149.687C104.156 148.47 104.627 147.303 105.349 146.259C106.042 145.326 108.266 144.259 109.454 143.921" fill="black"/>
</g>
<path d="M140.802 149.276C140.727 149.126 140.665 148.97 140.618 148.811C140.511 148.512 140.357 148.078 140.148 147.548C139.642 146.163 138.895 144.858 137.933 143.683C136.943 142.521 135.609 141.632 134.084 141.115C133.445 140.928 132.786 140.799 132.117 140.731C132.299 140.711 132.483 140.711 132.665 140.731C133.165 140.761 133.659 140.848 134.136 140.989C135.71 141.479 137.088 142.377 138.095 143.568C139.082 144.757 139.83 146.091 140.306 147.51C140.499 148.051 140.631 148.493 140.734 148.8C140.779 148.955 140.802 149.115 140.802 149.276V149.276Z" fill="#455A64"/>
<path d="M125.96 109.564C126.005 109.663 126.038 109.766 126.058 109.871C126.114 110.094 126.195 110.393 126.293 110.769C126.494 111.537 126.768 112.689 127.097 114.074C127.756 116.868 128.607 120.745 129.445 125.04C130.283 129.335 130.933 133.239 131.365 136.072C131.583 137.484 131.75 138.632 131.857 139.426C131.904 139.81 131.942 140.114 131.972 140.34C132.002 140.566 132.002 140.659 131.998 140.662C131.962 140.559 131.938 140.452 131.925 140.344C131.887 140.121 131.835 139.818 131.767 139.438C131.634 138.628 131.446 137.488 131.211 136.091C130.736 133.266 130.056 129.366 129.223 125.075C128.389 120.784 127.563 116.903 126.943 114.101C126.636 112.715 126.388 111.587 126.208 110.785C126.127 110.401 126.063 110.105 126.016 109.883C125.987 109.778 125.969 109.671 125.96 109.564V109.564Z" fill="#455A64"/>
<path d="M133.264 94.0227C133.264 94.0534 132.789 94.2952 132.058 94.7673C131.111 95.3817 130.25 96.0956 129.492 96.8937C128.735 97.6955 128.091 98.5771 127.572 99.5192C127.174 100.245 126.986 100.717 126.952 100.705C126.961 100.586 126.993 100.469 127.046 100.36C127.153 100.052 127.281 99.7507 127.431 99.4578C127.916 98.4864 128.553 97.5817 129.321 96.7709C130.093 95.9589 130.986 95.2471 131.977 94.656C132.275 94.477 132.587 94.3155 132.909 94.1724C133.018 94.107 133.138 94.0566 133.264 94.0227V94.0227Z" fill="#455A64"/>
<path d="M81.7411 145.326C81.7357 145.293 81.7357 145.259 81.7411 145.226C81.7411 145.153 81.7411 145.057 81.7411 144.942C81.7411 144.677 81.7411 144.309 81.7411 143.844C81.7197 142.892 81.7155 141.515 81.5957 139.818C81.5316 138.97 81.4332 138.041 81.2665 137.054C81.0997 136.068 80.8389 135.024 80.5353 133.934C79.9366 131.754 79.0814 129.366 78.9018 126.748C78.8142 124.291 79.165 121.837 79.9409 119.479C80.5866 117.298 81.305 115.372 81.8224 113.721C82.2473 112.433 82.5927 111.125 82.8572 109.802C82.9598 109.334 82.9983 108.965 83.0453 108.72C83.0453 108.605 83.0795 108.512 83.0924 108.436C83.1052 108.359 83.0924 108.34 83.118 108.344C83.1218 108.375 83.1218 108.408 83.118 108.439C83.118 108.516 83.118 108.608 83.0924 108.724C83.0624 108.973 83.0368 109.345 82.947 109.814C82.6958 111.152 82.3517 112.475 81.9164 113.775C81.4204 115.418 80.7191 117.348 80.082 119.532C79.3311 121.871 78.9934 124.301 79.0814 126.733C79.261 129.32 80.0991 131.696 80.6935 133.884C80.991 134.919 81.228 135.967 81.4033 137.024C81.5658 138.018 81.6556 138.943 81.7069 139.803C81.8095 141.507 81.7924 142.873 81.7839 143.841C81.7839 144.305 81.7839 144.673 81.7625 144.938V145.222C81.7613 145.258 81.7541 145.293 81.7411 145.326V145.326Z" fill="#455A64"/>
<path d="M126.229 100.855L126.093 100.824L125.708 100.717C125.211 100.588 124.703 100.498 124.19 100.448C122.291 100.292 120.378 100.527 118.597 101.135C117.364 101.542 116.175 102.047 115.043 102.644C113.812 103.273 112.542 104.018 111.195 104.789C109.795 105.616 108.333 106.355 106.82 107C105.185 107.699 103.424 108.131 101.621 108.274C99.8026 108.368 97.9869 108.057 96.3354 107.369C94.8157 106.731 93.3606 105.976 91.9866 105.112C90.6611 104.313 89.421 103.542 88.1681 102.928C87.0311 102.341 85.8115 101.894 84.542 101.6C83.4915 101.372 82.4055 101.307 81.3307 101.408C80.5199 101.486 79.7286 101.682 78.9874 101.987C78.3599 102.262 77.7831 102.622 77.277 103.054C77.3035 103.021 77.3335 102.99 77.3668 102.962C77.4309 102.905 77.525 102.812 77.6533 102.705C78.0415 102.4 78.4728 102.142 78.9361 101.937C79.6818 101.613 80.4824 101.403 81.305 101.316C82.3951 101.203 83.4985 101.259 84.5677 101.481C85.8542 101.772 87.0911 102.217 88.2451 102.805C89.498 103.415 90.7594 104.183 92.0935 104.977C93.4618 105.831 94.9096 106.577 96.4209 107.207C98.0376 107.872 99.8114 108.17 101.586 108.075C103.366 107.935 105.104 107.511 106.718 106.824C108.223 106.184 109.678 105.452 111.071 104.632C112.422 103.864 113.696 103.127 114.941 102.498C116.085 101.902 117.287 101.401 118.532 101.001C120.336 100.398 122.272 100.183 124.185 100.371C124.702 100.431 125.212 100.534 125.708 100.678L126.088 100.805C126.138 100.815 126.186 100.832 126.229 100.855V100.855Z" fill="#FAFAFA"/>
<path d="M142.573 104.935C142.445 105.092 142.302 105.239 142.145 105.373C141.973 105.541 141.789 105.699 141.593 105.845C141.348 106.05 141.089 106.242 140.819 106.421C140.496 106.643 140.159 106.85 139.81 107.038C139.414 107.262 139.004 107.465 138.583 107.649C137.614 108.063 136.6 108.385 135.556 108.608C134.506 108.815 133.436 108.923 132.361 108.931C131.893 108.929 131.425 108.905 130.959 108.858C130.554 108.826 130.151 108.772 129.753 108.697C129.381 108.643 129.06 108.547 128.774 108.482C128.528 108.425 128.287 108.355 128.051 108.271C127.845 108.213 127.646 108.137 127.457 108.044C127.457 108.002 128.312 108.324 129.783 108.555C130.177 108.622 130.576 108.668 130.976 108.693C131.404 108.743 131.874 108.735 132.361 108.747C133.419 108.728 134.471 108.616 135.504 108.413C136.534 108.193 137.537 107.882 138.498 107.484C138.925 107.284 139.353 107.1 139.721 106.896C140.068 106.715 140.405 106.518 140.73 106.305C141.923 105.526 142.534 104.904 142.573 104.935Z" fill="#FAFAFA"/>
<path d="M81.536 112.262C81.2032 112.318 80.8628 112.328 80.5269 112.289C79.7115 112.241 78.9065 112.098 78.1323 111.863C77.3586 111.628 76.6215 111.306 75.9387 110.904C75.6444 110.753 75.3788 110.561 75.1519 110.336C76.1198 110.867 77.1422 111.315 78.205 111.671C79.2915 111.964 80.4071 112.162 81.536 112.262Z" fill="#FAFAFA"/>
<path d="M126.888 114.661C126.404 114.344 125.892 114.061 125.357 113.817C123.857 113.225 122.221 112.962 120.585 113.049C118.507 113.076 116.082 113.568 113.427 114.201C110.771 114.834 107.868 115.617 104.738 116.143C103.216 116.409 101.673 116.568 100.124 116.619C98.6798 116.66 97.2343 116.599 95.8009 116.435C93.3793 116.149 90.988 115.684 88.6513 115.045C86.6544 114.516 85.0637 114.017 83.9477 113.671L82.6862 113.268L82.3613 113.157C82.2886 113.13 82.2501 113.115 82.2544 113.111C82.2937 113.116 82.3323 113.125 82.3698 113.138L82.7033 113.23L83.9862 113.614C85.0937 113.936 86.6886 114.412 88.6898 114.926C91.0246 115.541 93.4094 115.99 95.8223 116.27C97.2408 116.424 98.6703 116.48 100.098 116.439C101.637 116.383 103.17 116.224 104.682 115.963C107.795 115.437 110.694 114.65 113.358 114.043C116.022 113.437 118.464 112.942 120.564 112.93C122.222 112.859 123.875 113.153 125.378 113.786L125.742 113.959L126.05 114.136C126.212 114.221 126.367 114.319 126.512 114.427L126.781 114.627L126.888 114.661Z" fill="#FAFAFA"/>
<path d="M51.0732 157.72C51.0732 157.72 55.5417 158.311 57.2521 158.933C59.108 159.605 61.3999 159.213 62.9564 158.307C63.8414 157.804 64.6692 157.224 65.428 156.576L71.1408 156.603C71.9844 155.756 72.5506 154.716 72.777 153.599C73.0034 152.481 72.8811 151.329 72.4236 150.27C72.127 149.534 71.6932 148.849 71.1408 148.243C70.478 147.571 69.4304 147.019 67.5746 146.708L60.7585 147.898C60.7585 147.898 52.1166 147.767 48.6316 147.621C47.7938 147.586 46.9654 147.792 46.2669 148.209C45.4502 148.696 44.5266 149.36 44.5993 149.771C44.6506 150.082 44.0861 152.074 45.7666 153.36C45.7666 153.36 44.2529 154.392 45.0354 155.363L45.4117 155.793C45.4117 155.793 44.3855 156.945 44.8858 157.451C45.3861 157.958 49.8332 160.422 51.4538 159.885C53.0744 159.347 51.7788 157.989 51.0732 157.732" fill="#B78876"/>
<path d="M46.9383 151.298C47.1292 151.347 47.3151 151.41 47.4942 151.487C47.8448 151.613 48.3494 151.794 48.9951 151.993C49.3158 152.089 49.6707 152.193 50.0512 152.289C50.4318 152.385 50.8509 152.473 51.2828 152.607C51.7525 152.732 52.1745 152.971 52.5014 153.298C52.6801 153.48 52.802 153.702 52.8545 153.94C52.9071 154.177 52.8886 154.424 52.8008 154.653C52.6854 154.883 52.4842 155.069 52.232 155.179C51.9946 155.276 51.7398 155.335 51.4795 155.352C51.0009 155.368 50.5219 155.335 50.0512 155.256C49.2634 155.128 48.4914 154.932 47.7464 154.669C47.1093 154.454 46.6047 154.25 46.2584 154.112C46.0742 154.047 45.8968 153.967 45.7281 153.874C45.9199 153.919 46.1073 153.978 46.2883 154.051C46.6432 154.173 47.1435 154.358 47.7892 154.557C48.5337 154.799 49.3007 154.982 50.0812 155.102C50.5365 155.177 50.9999 155.205 51.4623 155.187C51.6991 155.172 51.9309 155.118 52.1465 155.029C52.3617 154.939 52.5322 154.78 52.6254 154.584C52.7004 154.383 52.7153 154.169 52.6688 153.961C52.6223 153.754 52.5159 153.561 52.3603 153.402C52.0555 153.097 51.6636 152.873 51.2272 152.753C50.7996 152.619 50.3933 152.531 50.0085 152.423C49.6236 152.316 49.273 152.208 48.9523 152.105C48.3109 151.893 47.8063 151.694 47.4642 151.544C47.2816 151.476 47.1057 151.393 46.9383 151.298V151.298Z" fill="#AA6550"/>
<path d="M47.4088 148.393C47.5971 148.446 47.7813 148.51 47.9604 148.585C48.311 148.715 48.8156 148.9 49.4527 149.103C50.0899 149.306 50.8553 149.529 51.7148 149.732C52.1913 149.808 52.642 149.982 53.0318 150.239C53.2376 150.4 53.3713 150.622 53.4081 150.865C53.4414 151.109 53.3954 151.357 53.2755 151.579C53.1545 151.79 52.986 151.977 52.7807 152.127C52.5754 152.276 52.3376 152.387 52.0825 152.45C51.6197 152.576 51.1305 152.602 50.6543 152.527C49.8736 152.374 49.1095 152.159 48.3709 151.886L46.8529 151.383C46.6655 151.328 46.4838 151.259 46.3098 151.176C46.5035 151.21 46.6937 151.259 46.8785 151.322L48.3965 151.774C49.1332 152.027 49.891 152.228 50.6628 152.373C51.1124 152.441 51.5734 152.415 52.0098 152.296C52.24 152.238 52.4544 152.137 52.6397 152.001C52.8251 151.865 52.9774 151.697 53.0874 151.506C53.2035 151.322 53.2473 151.108 53.2116 150.899C53.1759 150.69 53.0628 150.498 52.8907 150.354C52.5247 150.112 52.1021 149.948 51.6549 149.874C50.7997 149.66 50.0214 149.425 49.3886 149.207C48.7557 148.988 48.2554 148.784 47.9133 148.639C47.737 148.571 47.5681 148.489 47.4088 148.393V148.393Z" fill="#AA6550"/>
<path d="M65.3468 149.683L61.3915 148.228C61.3915 148.228 50.4148 143.376 50.2224 143.622C50.03 143.867 49.4313 143.833 49.534 145.05C49.6366 146.266 56.0378 148.83 56.2345 149.272C56.4312 149.713 56.0378 151.813 58.3726 153.379C60.7073 154.945 62.4434 155.014 62.4434 155.014" fill="#B78876"/>
<path d="M62.4562 154.999H62.3579C62.2661 154.993 62.1747 154.983 62.0842 154.968C61.7334 154.915 61.3885 154.834 61.0537 154.726C60.5219 154.557 60.0082 154.345 59.5186 154.093C58.8646 153.767 58.2572 153.372 57.7098 152.914C57.0537 152.335 56.5979 151.598 56.397 150.792C56.2934 150.35 56.2248 149.903 56.1918 149.452C56.1837 149.399 56.1722 149.347 56.1576 149.295C56.1318 149.256 56.0967 149.224 56.055 149.199C55.9522 149.128 55.8451 149.063 55.7342 149.003C55.5119 148.88 55.2767 148.761 55.0372 148.639C54.088 148.163 53.0745 147.679 52.044 147.126C51.5352 146.85 51.022 146.558 50.526 146.228C50.2727 146.06 50.0353 145.874 49.8162 145.671C49.7004 145.565 49.5999 145.447 49.5169 145.318C49.4763 145.248 49.4475 145.173 49.4313 145.096C49.4251 145.022 49.4251 144.947 49.4313 144.873C49.401 144.576 49.4679 144.277 49.6238 144.013C49.7156 143.886 49.8384 143.78 49.9829 143.702C50.0402 143.671 50.092 143.632 50.1369 143.587C50.1369 143.587 50.1369 143.587 50.1754 143.553C50.1995 143.538 50.2277 143.53 50.2566 143.53H50.3336L50.4533 143.557C51.052 143.737 51.595 143.963 52.1637 144.178C53.2499 144.612 54.3018 145.05 55.2724 145.472C57.2437 146.312 59.0097 147.088 60.4892 147.748C60.857 147.909 61.2076 148.074 61.5454 148.209L62.5118 148.573L64.064 149.157L65.039 149.541L65.2912 149.644L65.3725 149.683L65.2827 149.66L65.0261 149.575L64.0341 149.226L62.469 148.665L61.4941 148.316C61.152 148.182 60.8057 148.021 60.4294 147.859L55.1997 145.618C54.212 145.203 53.1729 144.766 52.0868 144.336C51.548 144.125 50.9921 143.894 50.4234 143.725L50.3208 143.702H50.2737C50.2737 143.702 50.2737 143.679 50.2737 143.664C50.3977 143.741 50.3036 143.687 50.3293 143.706C50.2725 143.766 50.2062 143.817 50.1326 143.86C50.0109 143.925 49.9071 144.014 49.829 144.121C49.6962 144.358 49.6385 144.624 49.6622 144.888C49.6533 145.021 49.6828 145.153 49.7478 145.272C49.8223 145.387 49.9128 145.493 50.0171 145.587C50.229 145.782 50.4577 145.962 50.7013 146.124C51.1888 146.451 51.6976 146.742 52.2022 147.015C53.2156 147.568 54.2248 148.055 55.1955 148.55C55.4349 148.673 55.6701 148.792 55.8967 148.934C56.0079 148.999 56.1234 149.061 56.2303 149.137C56.2981 149.178 56.3515 149.235 56.3842 149.303C56.4058 149.362 56.4201 149.424 56.427 149.487C56.4577 149.934 56.522 150.379 56.6194 150.819C56.8112 151.601 57.2472 152.319 57.8766 152.888C58.4113 153.343 59.004 153.74 59.6426 154.07C60.1246 154.325 60.6295 154.543 61.152 154.722C61.4816 154.836 61.8204 154.927 62.1654 154.995C62.2809 155.018 62.375 155.029 62.4348 155.037L62.4562 154.999Z" fill="#AA6550"/>
<path d="M50.2181 155.233C50.3662 155.254 50.5102 155.294 50.6457 155.352C51.0171 155.495 51.364 155.685 51.6762 155.916C51.8952 156.076 52.0945 156.256 52.2706 156.453C52.3801 156.569 52.463 156.704 52.5144 156.849C52.5657 156.994 52.5846 157.146 52.5699 157.298C52.5297 157.466 52.438 157.621 52.305 157.745C52.1721 157.869 52.0032 157.958 51.8173 158C51.4323 158.086 51.0274 158.068 50.6542 157.947C49.3934 157.585 48.1735 157.117 47.011 156.549C46.661 156.378 46.3225 156.189 45.9976 155.981C45.8733 155.911 45.7573 155.83 45.6512 155.739C45.7863 155.79 45.9152 155.853 46.0361 155.928C46.2798 156.058 46.6347 156.238 47.0794 156.446C48.2471 156.974 49.4579 157.422 50.7013 157.785C51.0384 157.895 51.4037 157.915 51.7532 157.843C51.9089 157.811 52.0516 157.74 52.165 157.639C52.2783 157.538 52.3579 157.411 52.3946 157.271C52.4072 157.139 52.3907 157.006 52.3459 156.879C52.3011 156.753 52.2291 156.635 52.1338 156.534C51.971 156.341 51.7861 156.163 51.5821 156.004C51.1654 155.697 50.7071 155.437 50.2181 155.233Z" fill="#AA6550"/>
<path d="M113.102 145.433L106.055 145.564C106.055 145.564 95.493 142.136 93.3208 142.466C91.3624 142.758 84.2 147.03 82.7974 147.879C82.6396 147.969 82.5194 148.104 82.4553 148.262C82.317 148.597 82.3288 148.966 82.4884 149.293C82.648 149.619 82.9428 149.878 83.3105 150.013L83.4602 150.07L83.3961 150.262C83.311 150.511 83.2734 150.77 83.2849 151.03C83.3022 151.226 83.3887 151.413 83.5317 151.562C83.6748 151.711 83.8671 151.816 84.0808 151.861C84.2945 151.906 84.5186 151.889 84.7207 151.812C84.9227 151.735 85.0923 151.602 85.2048 151.433L84.9354 151.863C84.825 152.038 84.7731 152.238 84.7858 152.438L84.8114 152.822C84.8241 153.035 84.908 153.238 85.0523 153.407C85.1966 153.576 85.3944 153.701 85.6196 153.767V153.767C85.8344 153.829 86.0648 153.835 86.2832 153.783C86.5016 153.732 86.6987 153.624 86.8511 153.475C87.7576 152.58 89.7204 150.788 91.0459 150.585C92.4859 150.429 93.9361 150.364 95.3861 150.389C95.6811 150.39 95.9686 150.472 96.2112 150.623C96.4538 150.773 96.6401 150.986 96.7459 151.233V151.233C95.9591 151.283 90.4687 153.851 88.5273 154.772C88.2266 154.907 87.9668 155.105 87.7702 155.35C87.5736 155.595 87.446 155.878 87.3985 156.177C87.3258 156.722 87.6336 157.294 88.8352 157.041C91.4008 156.499 96.0618 154.584 96.0618 154.584C96.0618 154.584 98.4606 153.97 100.013 154.968C102.194 156.35 103.194 156.856 105.071 156.3C106.211 155.957 107.303 155.502 108.33 154.941L114.718 155.498C114.718 155.498 118.627 149.763 113.102 145.433Z" fill="#B78876"/>
<path d="M96.7887 147.165C96.7887 147.203 96.0361 146.988 94.8046 146.919C93.1929 146.821 91.5784 147.067 90.0924 147.635C88.6063 148.203 87.2907 149.078 86.2525 150.189C85.4571 151.037 85.115 151.667 85.0808 151.648C85.1373 151.492 85.2164 151.344 85.316 151.206C85.5589 150.821 85.8364 150.454 86.1456 150.109C87.1713 148.957 88.499 148.051 90.01 147.472C91.5211 146.893 93.1684 146.66 94.8046 146.792C95.2967 146.829 95.7845 146.904 96.2627 147.015C96.4429 147.05 96.6191 147.1 96.7887 147.165Z" fill="#AA6550"/>
<path d="M95.6684 144.862C94.9967 144.681 94.3033 144.572 93.603 144.539C91.9049 144.532 90.2389 144.955 88.7967 145.76C87.3678 146.584 86.0654 147.572 84.9226 148.7L83.8622 149.713C83.7396 149.843 83.6051 149.964 83.4602 150.074C83.558 149.927 83.6742 149.791 83.8066 149.667C84.0375 149.414 84.3838 149.053 84.82 148.615C85.944 147.451 87.2487 146.437 88.6941 145.606C90.1648 144.782 91.8742 144.367 93.6073 144.412C94.1295 144.433 94.6461 144.518 95.1424 144.666C95.2767 144.703 95.4082 144.748 95.5358 144.8C95.5837 144.813 95.6285 144.834 95.6684 144.862V144.862Z" fill="#AA6550"/>
<path d="M66.2789 54.0271C63.96 49.1883 59.9072 45.1833 54.7635 42.6477C49.6199 40.112 43.6802 39.1911 37.887 40.031C32.0939 40.8708 26.7792 43.4234 22.7863 47.2836C18.7935 51.1438 16.3512 56.0904 15.8472 61.3385C15.3432 66.5866 16.8063 71.8354 20.0042 76.252C23.2022 80.6686 27.9519 84 33.4994 85.7175C39.047 87.4349 45.0746 87.44 50.6258 85.732C56.177 84.024 60.9337 80.7007 64.1409 76.2895V76.2895L74.3179 76.1398L67.6815 68.9659C69.0401 63.9822 68.5476 58.7364 66.2789 54.0271Z" fill="#FAFAFA"/>
<path d="M31.6428 41.6139C31.496 41.6564 31.353 41.709 31.2152 41.7712L30.0008 42.2894C29.7314 42.4084 29.4278 42.5236 29.1071 42.6733L28.0809 43.2298L26.8878 43.8862L25.605 44.7536C23.4251 46.2576 21.5355 48.073 20.0119 50.1273C17.9697 52.8369 16.5642 55.8917 15.8813 59.1052C15.0947 63.0205 15.3883 67.0491 16.7365 70.839C17.1198 71.8688 17.5768 72.8753 18.1048 73.8521C18.387 74.3435 18.6222 74.8616 18.96 75.3376L19.9563 76.777C21.4073 78.7272 23.1709 80.4746 25.1902 81.9626C27.3235 83.5066 29.6941 84.7658 32.2286 85.7011C34.9013 86.6321 37.7183 87.1862 40.5798 87.3439C43.5469 87.5239 46.5262 87.2315 49.3799 86.4803C50.1078 86.3083 50.8221 86.0929 51.518 85.8355C52.2363 85.6157 52.9401 85.3594 53.6261 85.0678C55.0141 84.4702 56.343 83.7678 57.5985 82.9682C60.3017 81.2396 62.622 79.0736 64.4402 76.5812L64.2008 76.7002L74.1811 76.4737H74.7712L74.4034 76.0592L67.9893 68.8585L68.0449 69.0772C69.0328 65.4362 69.0533 61.6377 68.1048 57.9883C67.6737 56.2867 67.0147 54.6383 66.1421 53.079C65.7547 52.3156 65.3045 51.5792 64.7951 50.8758L64.0682 49.8318C63.8159 49.494 63.5166 49.1869 63.2515 48.8645C59.4161 44.3942 53.9361 41.2926 47.7892 40.1131C45.5186 39.6586 43.1891 39.4868 40.8663 39.6026L39.3953 39.687L38.0569 39.8789L36.8297 40.0593C36.4491 40.1361 36.0899 40.2359 35.7478 40.3165C35.0679 40.4931 34.465 40.6082 33.9519 40.781L32.6691 41.2262L31.8866 41.5218C31.7979 41.5481 31.7131 41.5842 31.6343 41.6292C31.7284 41.6168 31.8204 41.5936 31.9079 41.5601L32.6947 41.3222L33.9775 40.9153C34.4864 40.7618 35.0979 40.6543 35.7778 40.4931C40.739 39.4255 45.9387 39.6724 50.7467 41.2039C55.5548 42.7354 59.7648 45.4857 62.8666 49.1217C63.1275 49.4403 63.4182 49.7435 63.662 50.0736L64.3718 51.1023C64.8691 51.7941 65.3065 52.5191 65.6803 53.2709C66.5306 54.8029 67.171 56.4217 67.5874 58.0919C68.5012 61.6698 68.4675 65.3903 67.489 68.9544L67.4548 69.0734L67.5446 69.1732C69.6143 71.4992 71.7523 73.9033 73.9587 76.3855L74.1811 75.9556L64.1965 76.1705H64.0425L63.9528 76.2895C61.3394 79.8677 57.6855 82.7361 53.3866 84.5842C52.715 84.8752 52.0254 85.1315 51.3213 85.3518C50.6383 85.6046 49.9368 85.8149 49.2217 85.9813C46.4293 86.7111 43.5155 86.993 40.614 86.8142C37.8152 86.66 35.0594 86.1215 32.4424 85.2175C29.9545 84.3023 27.627 83.0689 25.5323 81.5557C23.555 80.1013 21.8261 78.3942 20.401 76.4891C20.0675 76.017 19.7425 75.5487 19.4176 75.0843C19.0926 74.6198 18.8617 74.1093 18.5623 73.6295C18.0388 72.6721 17.586 71.6848 17.2068 70.674C15.9635 67.285 15.5961 63.6865 16.1325 60.1511C16.6689 56.6157 18.095 53.2364 20.3027 50.2693C21.7874 48.225 23.6315 46.4103 25.7632 44.8957L27.0033 44.0167L28.1707 43.345L29.1755 42.7654C29.492 42.6042 29.7913 42.4813 30.0307 42.3585L31.2195 41.8019C31.3666 41.7509 31.5083 41.6879 31.6428 41.6139V41.6139Z" fill="#263238"/>
<path d="M49.6042 75.4693L51.1265 75.4667C51.9767 75.4652 52.6646 74.8454 52.6629 74.0822L52.6183 53.2094C52.6167 52.4462 51.9261 51.8287 51.076 51.8302L49.5537 51.8328C48.7035 51.8343 48.0156 52.4541 48.0173 53.2173L48.0619 74.0902C48.0635 74.8533 48.7541 75.4708 49.6042 75.4693Z" fill="#E0E0E0"/>
<path d="M42.0698 75.4832L43.5921 75.4806C44.4423 75.4791 45.1301 74.8593 45.1285 74.0961L45.0839 53.2232C45.0822 52.4601 44.3917 51.8426 43.5415 51.8441L42.0193 51.8467C41.1691 51.8482 40.4812 52.468 40.4828 53.2312L40.5275 74.1041C40.5291 74.8672 41.2196 75.4847 42.0698 75.4832Z" fill="#E0E0E0"/>
<path d="M33.5433 75.4954L35.0656 75.4928C35.9158 75.4913 36.6037 74.8714 36.602 74.1083L36.5574 53.2354C36.5557 52.4723 35.8652 51.8548 35.015 51.8563L33.4928 51.8589C32.6426 51.8604 31.9547 52.4802 31.9563 53.2433L32.001 74.1162C32.0026 74.8794 32.6931 75.4968 33.5433 75.4954Z" fill="#E0E0E0"/>
<path d="M50.2994 75.4681C50.1065 75.4457 49.9152 75.4137 49.7264 75.3721C49.1873 75.2364 48.7276 74.9186 48.4436 74.4855C48.2378 74.1796 48.1285 73.8294 48.1271 73.4722C48.1271 73.0691 48.1271 72.6354 48.1271 72.1671C48.1271 71.2267 48.1271 70.1635 48.1271 68.9851C48.1271 66.6245 48.1271 63.8187 48.1271 60.7097C48.1271 59.1513 48.1271 57.5161 48.1271 55.8196V54.5376C48.0935 54.1162 48.1237 53.6927 48.2169 53.2786C48.3692 52.8849 48.6573 52.545 49.0393 52.3081C49.4214 52.0712 49.8775 51.9498 50.3417 51.9613C50.8058 51.9729 51.2538 52.1168 51.6206 52.3723C51.9874 52.6278 52.2541 52.9816 52.3818 53.3822C52.4484 53.8016 52.4713 54.2257 52.4502 54.6489C52.4502 55.0788 52.4502 55.5087 52.4502 55.9309C52.4502 57.6275 52.4502 59.2626 52.4502 60.821C52.4502 63.9339 52.4844 66.7359 52.4973 69.1003C52.4973 70.2748 52.4973 71.3419 52.5272 72.2784C52.5272 72.7467 52.5272 73.1881 52.5272 73.5796C52.5092 73.9369 52.3804 74.2825 52.1552 74.5776C51.8409 74.9918 51.3647 75.2849 50.8211 75.399C50.4448 75.4719 50.2395 75.4527 50.2395 75.4681C50.4375 75.4914 50.6383 75.4849 50.8339 75.4489C51.4042 75.3526 51.9104 75.0608 52.245 74.6352C52.4938 74.3286 52.6419 73.9656 52.6726 73.5873C52.6726 73.1804 52.6726 72.7505 52.6726 72.2784C52.6726 71.3419 52.6726 70.2748 52.6726 69.1003C52.6726 66.7359 52.6726 63.9339 52.6726 60.821C52.6726 59.2626 52.6726 57.6275 52.6726 55.9309V54.0117C52.6819 53.7834 52.6575 53.5549 52.5999 53.3323C52.4704 52.8707 52.1729 52.461 51.7547 52.1683C51.3364 51.8756 50.8212 51.7165 50.2908 51.7164C49.7615 51.6955 49.239 51.8303 48.8028 52.1002C48.3719 52.3728 48.0532 52.7655 47.8962 53.2172C47.8226 53.4388 47.7865 53.6692 47.7893 53.9004V54.5491C47.7893 54.979 47.7893 55.4089 47.7893 55.8311C47.7893 57.5277 47.7893 59.1628 47.8107 60.7212C47.8107 63.8302 47.8449 66.6361 47.8578 69.0005C47.8578 70.175 47.8791 71.2382 47.8834 72.1786C47.8834 72.6469 47.8834 73.0806 47.8834 73.4837C47.8888 73.8621 48.0118 74.2316 48.2383 74.5507C48.5433 74.9952 49.0324 75.3127 49.5981 75.4335C49.8267 75.4885 50.0655 75.5002 50.2994 75.4681V75.4681Z" fill="#263238"/>
<path d="M42.765 75.4796C42.5709 75.4579 42.3782 75.4272 42.1877 75.3875C41.7249 75.2677 41.3185 75.0153 41.0306 74.6687C40.7426 74.3222 40.5888 73.9006 40.5927 73.4683C40.5927 73.0653 40.5927 72.6316 40.5927 72.1633C40.5927 71.2267 40.5927 70.1597 40.5927 68.9851C40.5927 66.6207 40.5927 63.8187 40.5927 60.7058V54.5491C40.5568 54.129 40.587 53.7065 40.6825 53.294C40.8321 52.8981 41.119 52.5556 41.501 52.3166C41.8831 52.0776 42.3404 51.9547 42.806 51.9659C43.2715 51.977 43.7208 52.1217 44.0882 52.3786C44.4555 52.6355 44.7216 52.9913 44.8474 53.3938C44.9146 53.8131 44.936 54.2373 44.9116 54.6604C44.9116 55.0941 44.9116 55.5202 44.9116 55.9463C44.9116 57.639 44.9116 59.2741 44.9116 60.8325C44.9116 63.9454 44.9458 66.7512 44.9586 69.1118C44.9586 70.2902 44.9586 71.3534 44.9842 72.2938C44.9842 72.7582 44.9842 73.1996 44.9842 73.595C44.9663 73.9522 44.8374 74.2979 44.6122 74.5929C44.2942 75.0055 43.8175 75.2981 43.2738 75.4144C42.9018 75.4834 42.6923 75.4643 42.6966 75.4796C42.8919 75.5085 43.0913 75.5085 43.2867 75.4796C43.8577 75.3799 44.3643 75.0873 44.702 74.662C44.9521 74.3575 45.1004 73.9954 45.1296 73.618C45.151 73.2073 45.1296 72.7774 45.1296 72.3091C45.1296 71.3687 45.1296 70.3017 45.1296 69.1271C45.1296 66.7666 45.1296 63.9607 45.1296 60.8478C45.1296 59.2895 45.1296 57.6543 45.1296 55.9578V54.6758C45.1296 54.4608 45.1296 54.2459 45.1296 54.0271C45.141 53.7987 45.1165 53.57 45.0569 53.3477C44.9283 52.8863 44.6316 52.4768 44.2141 52.184C43.7965 51.8912 43.282 51.7321 42.7521 51.7318C42.2236 51.7083 41.7014 51.8429 41.2672 52.1145C40.8331 52.3861 40.5117 52.7793 40.3533 53.2325C40.2814 53.4544 40.2469 53.6847 40.2506 53.9158V54.5644C40.2506 54.9982 40.2506 55.4242 40.2506 55.8503C40.2506 57.543 40.2506 59.1781 40.2506 60.7365C40.2506 63.8494 40.2849 66.6514 40.302 69.0158C40.302 70.1904 40.302 71.2574 40.3276 72.194C40.3276 72.6623 40.3276 73.0998 40.3276 73.499C40.3318 73.877 40.4532 74.2465 40.6783 74.5661C40.9856 75.0102 41.4758 75.3274 42.0423 75.4489C42.2774 75.5088 42.5247 75.5193 42.765 75.4796Z" fill="#263238"/>
<path d="M34.2384 75.495C34.0441 75.4728 33.8514 75.4408 33.6611 75.399C33.2019 75.2801 32.7981 75.0306 32.5104 74.6879C32.2228 74.3453 32.0669 73.928 32.0662 73.499C32.0662 73.096 32.0662 72.6623 32.0662 72.194C32.0662 71.2536 32.0662 70.1904 32.0662 69.0158C32.0662 66.6514 32.0662 63.8494 32.0662 60.7365V54.5721C32.0302 54.152 32.0605 53.7295 32.156 53.317C32.3055 52.9211 32.5924 52.5786 32.9745 52.3396C33.3566 52.1007 33.8138 51.9778 34.2794 51.9889C34.7449 52.0001 35.1942 52.1447 35.5616 52.4016C35.9289 52.6586 36.195 53.0143 36.3208 53.4168C36.388 53.8361 36.4095 54.2604 36.385 54.6834C36.385 55.1133 36.385 55.5432 36.385 55.9655C36.385 57.662 36.385 59.2971 36.385 60.8555C36.385 63.9684 36.4192 66.7742 36.432 69.1348C36.432 70.3094 36.432 71.3764 36.4577 72.3168C36.4577 72.7812 36.4577 73.2227 36.4577 73.6142C36.4397 73.9714 36.3108 74.3171 36.0857 74.6121C35.7687 75.0264 35.2918 75.3205 34.7472 75.4374C34.3752 75.5065 34.1657 75.4873 34.17 75.5026C34.3654 75.5315 34.5647 75.5315 34.7601 75.5026C35.2518 75.416 35.6979 75.1862 36.0295 74.849C36.3612 74.5118 36.5597 74.0859 36.5945 73.6372C36.5945 73.2303 36.5945 72.8004 36.5945 72.3322C36.5945 71.3918 36.5945 70.3247 36.5945 69.1502C36.5945 66.7857 36.5945 63.9838 36.5945 60.8709C36.5945 59.3125 36.5945 57.6774 36.5945 55.9808V54.0616C36.6016 53.8333 36.5771 53.6051 36.5218 53.3822C36.3916 52.9209 36.094 52.5116 35.6759 52.219C35.2577 51.9264 34.7429 51.7671 34.2127 51.7663C33.6842 51.7428 33.162 51.8774 32.7278 52.149C32.2937 52.4206 31.9723 52.8139 31.8139 53.2671C31.7441 53.4894 31.7096 53.7194 31.7112 53.9503V54.5721C31.7112 55.0059 31.7112 55.4319 31.7112 55.8541C31.7112 57.5507 31.7112 59.1858 31.7112 60.7442C31.7112 63.8571 31.7454 66.6591 31.7626 69.0235C31.7626 70.198 31.7626 71.2651 31.7882 72.2017C31.7882 72.6699 31.7882 73.1037 31.7882 73.5067C31.7924 73.8847 31.9138 74.2542 32.1388 74.5738C32.4462 75.0178 32.9364 75.3351 33.5029 75.4566C33.7413 75.5209 33.9933 75.534 34.2384 75.495Z" fill="#263238"/>
<path d="M46.0233 56.4913C46.0249 57.0654 45.8369 57.627 45.4829 58.1051C45.1289 58.5833 44.6249 58.9564 44.0346 59.1773C43.4443 59.3982 42.7942 59.457 42.1667 59.3462C41.5392 59.2354 40.9624 58.9601 40.5092 58.5549C40.0561 58.1498 39.747 57.6331 39.6211 57.0703C39.4952 56.5074 39.5581 55.9237 39.8019 55.393C40.0457 54.8622 40.4593 54.4083 40.9906 54.0886C41.5218 53.769 42.1467 53.598 42.7863 53.5972C43.6429 53.5962 44.465 53.9004 45.0719 54.443C45.6788 54.9857 46.021 55.7224 46.0233 56.4913V56.4913Z" fill="#FF725E"/>
<path d="M37.5096 63.6729C37.5104 64.2468 37.3217 64.808 36.9672 65.2856C36.6126 65.7633 36.1083 66.1358 35.5179 66.3561C34.9276 66.5765 34.2777 66.6347 33.6504 66.5235C33.0232 66.4122 32.4468 66.1366 31.9941 65.7313C31.5414 65.326 31.2327 64.8093 31.1071 64.2466C30.9816 63.6838 31.0447 63.1003 31.2886 62.5698C31.5325 62.0392 31.9462 61.5856 32.4773 61.2661C33.0085 60.9466 33.6332 60.7757 34.2726 60.7749C34.6971 60.7744 35.1176 60.849 35.51 60.9943C35.9025 61.1397 36.2592 61.353 36.5597 61.6221C36.8603 61.8912 37.0989 62.2108 37.2619 62.5627C37.4249 62.9145 37.509 63.2918 37.5096 63.6729V63.6729Z" fill="#FF725E"/>
<path d="M53.2143 69.0982C53.8704 67.6077 53.0562 65.9221 51.3957 65.3331C49.7352 64.7442 47.8573 65.4751 47.2012 66.9656C46.5452 68.456 47.3594 70.1417 49.0198 70.7307C50.6803 71.3196 52.5582 70.5887 53.2143 69.0982Z" fill="#FF725E"/>
<path d="M26.6184 159.866H91.1143L82.7931 119.233C82.6501 118.535 82.2389 117.903 81.6311 117.449C81.0233 116.994 80.2573 116.746 79.4663 116.746H21.5128C21.0146 116.746 20.5225 116.844 20.0717 117.035C19.6209 117.225 19.2225 117.503 18.9051 117.847C18.5877 118.192 18.359 118.596 18.2354 119.029C18.1119 119.462 18.0965 119.914 18.1903 120.354L26.6184 159.866Z" fill="#455A64"/>
<path d="M91.1143 159.866H115.578L115.479 159.8C113.297 158.334 110.662 157.509 107.936 157.44L90.443 156.979L91.1143 159.866Z" fill="#455A64"/>
<path d="M75.6222 116.799C75.6222 116.799 75.8018 116.773 76.1439 116.769C76.6423 116.775 77.1325 116.884 77.5764 117.087C78.2757 117.411 78.8662 117.896 79.2868 118.492C79.82 119.3 80.1783 120.19 80.343 121.118C80.5525 122.146 80.7364 123.286 80.9673 124.503C81.1982 125.72 81.4462 127.021 81.7327 128.387C82.2971 131.116 82.9599 134.11 83.6868 137.25C85.1407 143.526 86.4877 149.199 87.3728 153.321C87.8004 155.382 88.1553 157.052 88.3905 158.208C88.5017 158.776 88.5915 159.221 88.6599 159.539C88.6898 159.681 88.7155 159.793 88.7326 159.885C88.7405 159.924 88.7519 159.963 88.7668 160C88.7744 159.961 88.7744 159.92 88.7668 159.881C88.7668 159.789 88.7369 159.674 88.7155 159.532C88.6599 159.209 88.5872 158.764 88.4889 158.196C88.2879 157.044 87.9715 155.359 87.5481 153.294C86.6929 149.161 85.3844 143.48 83.9306 137.204C83.2079 134.068 82.5323 131.063 81.9593 128.349C81.6685 126.986 81.412 125.689 81.1725 124.472C80.9331 123.256 80.7449 122.123 80.5183 121.087C80.3402 120.145 79.9643 119.243 79.4108 118.427C78.9666 117.819 78.3476 117.329 77.6191 117.011C77.161 116.808 76.6542 116.71 76.1439 116.726C75.9671 116.729 75.7916 116.754 75.6222 116.799V116.799Z" fill="#263238"/>
<path d="M53.7101 139.371C54.9275 138.278 54.9275 136.506 53.7101 135.414C52.4927 134.321 50.519 134.321 49.3016 135.414C48.0843 136.506 48.0843 138.278 49.3016 139.371C50.519 140.463 52.4927 140.463 53.7101 139.371Z" fill="#F5F5F5"/>
<path d="M196.177 159.827C196.177 159.881 154.468 159.927 103.032 159.927C51.595 159.927 9.87769 159.881 9.87769 159.827C9.87769 159.774 51.5565 159.743 103.032 159.743C154.507 159.743 196.177 159.774 196.177 159.827Z" fill="#263238"/>
</svg>
