<svg width="200" height="160" viewBox="0 0 200 160" fill="none" xmlns="http://www.w3.org/2000/svg">
<path d="M19.3012 131.422C21.0973 130.691 23.1157 130.478 25.0615 130.813C26.1058 130.965 27.2014 131.236 27.9075 131.926C28.6136 132.617 28.7634 133.804 27.9375 134.39C27.4113 134.7 26.7767 134.839 26.1443 134.784C24.6207 134.784 22.9303 134.535 21.7149 135.329C21.0216 135.786 20.5594 136.539 19.7291 136.762C19.3163 136.841 18.8851 136.802 18.4996 136.652C18.1141 136.501 17.7949 136.247 17.5893 135.927C17.1933 135.266 17.1045 134.498 17.3411 133.782C17.4369 133.284 17.6635 132.813 18.0034 132.403C18.3433 131.994 18.7874 131.658 19.3012 131.422V131.422Z" fill="#EBEBEB"/>
<path d="M15.2867 124.697C16.3609 126.026 18.4408 125.584 19.408 124.775C20.3752 123.966 20.7818 122.793 21.1498 121.673C22.0058 119.116 22.8617 116.433 22.224 113.828C22.0692 113.042 21.6663 112.308 21.06 111.709C20.7586 111.407 20.3708 111.18 19.9358 111.049C19.5008 110.919 19.0339 110.891 18.5821 110.967C17.5335 111.208 16.8702 112.08 16.408 112.948C15.0166 115.452 14.2856 118.192 14.2682 120.971C14.2682 122.263 14.4394 123.621 15.2782 124.682" fill="#EBEBEB"/>
<path d="M12.3467 126.605C13.5107 125.41 13.729 123.662 13.2026 122.152C12.6163 120.662 11.5661 119.341 10.1683 118.337C8.58252 117.113 6.7382 116.168 4.73749 115.553C3.96267 115.28 3.12955 115.154 2.29382 115.182C1.87622 115.203 1.47079 115.312 1.11278 115.499C0.754772 115.687 0.455021 115.948 0.239595 116.258C-0.329596 117.205 0.218197 118.351 0.813066 119.29C1.85379 120.946 3.04291 122.528 4.36944 124.022C5.43935 125.221 6.6676 126.401 8.29814 126.939C9.92868 127.477 11.6448 127.417 12.5007 126.438" fill="#EBEBEB"/>
<path d="M15.214 144.714C15.2742 144.518 15.3072 144.316 15.3124 144.113C15.3638 143.675 15.4237 143.122 15.4964 142.469C15.5916 141.658 15.7345 140.852 15.9244 140.053C16.1732 139.083 16.5109 138.131 16.9344 137.207C17.3517 136.284 17.9164 135.415 18.612 134.628C19.1853 133.987 19.9163 133.464 20.7518 133.099C21.3136 132.858 21.9159 132.695 22.5364 132.617C22.7705 132.611 23.0031 132.583 23.2297 132.531C22.995 132.51 22.7583 132.51 22.5236 132.531C21.8694 132.568 21.2284 132.707 20.632 132.943C19.7588 133.3 18.9927 133.827 18.3937 134.483C17.668 135.281 17.0825 136.168 16.6562 137.114C16.2246 138.052 15.8881 139.021 15.6505 140.009C15.4721 140.816 15.3492 141.631 15.2824 142.451C15.2225 143.148 15.2011 143.716 15.1883 144.106C15.1746 144.309 15.1832 144.513 15.214 144.714Z" fill="#E0E0E0"/>
<path d="M15.3467 143.449C15.3595 143.357 15.3595 143.263 15.3467 143.171V142.369C15.3467 141.675 15.3467 140.669 15.3852 139.43C15.4579 136.951 15.7019 134.279 16.1812 130.524C16.6091 126.983 17.234 122.864 17.893 120.185C18.03 119.576 18.1712 119.027 18.2996 118.548C18.428 118.069 18.5307 117.65 18.6291 117.316C18.7276 116.982 18.7875 116.741 18.8474 116.537C18.8784 116.448 18.8971 116.355 18.903 116.262C18.854 116.345 18.8166 116.432 18.7918 116.522C18.719 116.726 18.6334 116.978 18.5221 117.29C18.4109 117.602 18.2825 118.032 18.1413 118.515C18 118.997 17.846 119.539 17.7133 120.148C16.9187 123.313 16.3216 126.512 15.9244 129.733C15.4494 133.504 15.2311 136.94 15.214 139.426C15.214 140.669 15.214 141.679 15.2653 142.373C15.2653 142.696 15.3039 142.963 15.321 143.171C15.3184 143.264 15.327 143.357 15.3467 143.449V143.449Z" fill="#E0E0E0"/>
<path d="M15.3638 136.825C15.3899 136.547 15.3899 136.268 15.3638 135.99C15.3095 135.231 15.2109 134.476 15.0685 133.726C14.8542 132.613 14.5684 131.512 14.2126 130.427C13.7957 129.093 13.2635 127.788 12.6206 126.523C11.5168 124.192 9.93322 122.054 7.9472 120.214C7.60411 119.899 7.23664 119.604 6.84734 119.331C6.68043 119.205 6.53064 119.083 6.38086 118.986L5.95289 118.73C5.69699 118.562 5.42657 118.412 5.14404 118.281C6.07512 118.918 6.95984 119.605 7.79314 120.337C9.71064 122.194 11.2504 124.319 12.3467 126.623C12.9805 127.879 13.5153 129.171 13.9472 130.49C14.3121 131.565 14.6135 132.655 14.8503 133.756C15.0514 134.695 15.1669 135.463 15.2354 135.982C15.2546 136.266 15.2975 136.547 15.3638 136.825V136.825Z" fill="#E0E0E0"/>
<path d="M7.98145 148.511L8.7475 157.606H22.2198L22.9858 148.511H7.98145Z" fill="#E0E0E0"/>
<path d="M24.595 144.926H6.68042V148.511H24.595V144.926Z" fill="#E0E0E0"/>
<path d="M6.68042 157.258V158.252H7.52351H24.2997V157.258H6.68042Z" fill="#EBEBEB"/>
<path d="M8.34513 160L7.52344 158.252H23.6577L22.6947 160H8.34513Z" fill="#E0E0E0"/>
<path d="M22.7376 151.483L22.6734 151.569C22.6178 151.628 22.5536 151.706 22.4723 151.799L21.6891 152.671L21.6506 152.708L21.6163 152.667L19.6905 150.355H19.8018L17.9016 152.686L17.8417 152.76L17.7775 152.689C17.0757 151.969 16.3139 151.183 15.5264 150.366H15.6548L15.5307 150.5L13.5193 152.689L13.4508 152.764L13.3866 152.686C12.7061 151.847 12.0642 151.064 11.4865 150.355H11.5977L9.26104 152.663L9.21825 152.704L9.18829 152.66C8.87587 152.211 8.63194 151.851 8.45219 151.591L8.26389 151.309C8.24223 151.277 8.22362 151.243 8.20825 151.209C8.20825 151.209 8.23821 151.235 8.28529 151.298L8.49499 151.569L9.26532 152.619H9.19257L11.4907 150.281L11.5506 150.222L11.602 150.285L13.5193 152.604H13.3909L15.398 150.411L15.5221 150.277L15.5863 150.207L15.6548 150.273L17.8973 152.6H17.7732C18.4665 151.762 19.1085 150.979 19.6905 150.281L19.7461 150.21L19.8018 150.281L21.6891 152.619H21.6206L22.438 151.788L22.6563 151.569C22.7076 151.506 22.7333 151.48 22.7376 151.483Z" fill="#F5F5F5"/>
<path d="M23.1742 148.448C23.1742 148.488 19.7976 148.522 15.6335 148.522C11.4694 148.522 8.09277 148.488 8.09277 148.448C8.09277 148.407 11.4694 148.373 15.6335 148.373C19.7976 148.373 23.1742 148.411 23.1742 148.448Z" fill="#F5F5F5"/>
<path d="M23.8546 158.349C23.8546 158.389 20.187 158.423 15.6591 158.423C11.1313 158.423 7.46362 158.389 7.46362 158.349C7.46362 158.308 11.1313 158.278 15.6591 158.278C20.187 158.278 23.8546 158.308 23.8546 158.349Z" fill="#F5F5F5"/>
<path d="M171.605 4.97302H3.50488V92.2112H171.605V4.97302Z" fill="#F5F5F5"/>
<path d="M178.29 127.711H140.44V159.466H178.29V127.711Z" fill="#F5F5F5"/>
<path d="M143.376 156.745L153.844 140.406L162.408 150.849L167.612 145.304L175.354 156.745H143.376Z" fill="#E0E0E0"/>
<path d="M166.058 137.229C166.058 137.697 165.898 138.154 165.599 138.543C165.299 138.931 164.873 139.234 164.375 139.413C163.877 139.592 163.329 139.639 162.8 139.548C162.271 139.457 161.786 139.231 161.404 138.901C161.023 138.57 160.764 138.149 160.658 137.69C160.553 137.232 160.607 136.757 160.813 136.325C161.02 135.893 161.369 135.523 161.818 135.264C162.266 135.004 162.793 134.865 163.332 134.865C164.055 134.865 164.749 135.114 165.26 135.558C165.771 136.001 166.058 136.602 166.058 137.229Z" fill="#E0E0E0"/>
<g opacity="0.3">
<path opacity="0.3" d="M175.354 156.835C175.354 156.835 175.354 156.786 175.354 156.705C175.354 156.623 175.354 156.489 175.354 156.334C175.354 155.996 175.354 155.521 175.354 154.905C175.354 153.647 175.332 151.825 175.315 149.513C175.294 144.874 175.268 138.268 175.234 130.338L175.388 130.475L143.41 130.498C143.368 130.527 143.749 130.201 143.59 130.345V133.934C143.59 135.121 143.59 136.302 143.59 137.467C143.59 139.801 143.59 142.087 143.59 144.31C143.59 148.763 143.59 152.964 143.59 156.831L143.436 156.694L166.546 156.764L173.068 156.797L174.78 156.816H175.23C175.281 156.813 175.332 156.813 175.384 156.816C175.338 156.82 175.292 156.82 175.247 156.816H174.819H173.107L166.619 156.853L143.398 156.924H143.239V156.786C143.239 152.919 143.239 148.715 143.239 144.265C143.239 142.039 143.239 139.757 143.239 137.422V130.349L143.423 130.186L175.401 130.208H175.559V130.342C175.525 138.309 175.499 144.941 175.478 149.602C175.478 151.899 175.448 153.71 175.439 154.964C175.439 155.565 175.439 156.037 175.418 156.367C175.418 156.515 175.418 156.63 175.418 156.738C175.402 156.773 175.38 156.805 175.354 156.835V156.835Z" fill="#E0E0E0"/>
</g>
<path d="M180.228 13.9462H10.2625V97.7294H180.228V13.9462Z" fill="#E0E0E0"/>
<path d="M200 159.614C200 159.67 155.329 159.711 100.238 159.711C45.1458 159.711 0.466431 159.67 0.466431 159.614C0.466431 159.558 45.1287 159.518 100.238 159.518C155.346 159.518 200 159.581 200 159.614Z" fill="#263238"/>
<path d="M177.053 128.72C177.663 128.965 178.21 129.314 178.661 129.746C179.111 130.178 179.457 130.685 179.676 131.236C180.107 132.342 180.24 133.519 180.066 134.676C179.805 136.903 178.354 139.185 176.822 140.985C174.626 139.367 174.087 136.506 173.92 135.047C173.655 132.732 174.797 128.405 177.053 128.739" fill="#FF725E"/>
<path d="M179.406 144.648C179.252 144.011 179.293 143.35 179.526 142.731C179.758 142.112 180.175 141.557 180.733 141.122C181.302 140.697 181.963 140.374 182.677 140.173C183.391 139.972 184.145 139.896 184.893 139.949C185.582 139.987 186.331 140.154 186.733 140.643C186.906 140.882 187.003 141.156 187.012 141.437C187.021 141.718 186.942 141.997 186.785 142.243C186.463 142.735 185.996 143.143 185.432 143.427C183.566 144.469 181.542 145.178 179.406 144.648" fill="#FF725E"/>
<path d="M175.764 145.947C175.439 144.602 174.749 143.344 173.751 142.277C172.753 141.21 171.476 140.365 170.025 139.812C169.285 139.538 168.314 139.378 167.757 139.864C167.201 140.35 167.355 141.189 167.68 141.831C168.382 143.156 169.52 144.271 170.95 145.037C172.381 145.802 174.041 146.183 175.722 146.132" fill="#FF725E"/>
<path d="M176.432 151.665C176.443 151.507 176.47 151.351 176.513 151.198C176.573 150.901 176.672 150.455 176.808 149.939C177.135 148.551 177.669 147.205 178.396 145.935C179.143 144.659 180.268 143.579 181.657 142.807C182.08 142.581 182.533 142.401 183.005 142.269C183.133 142.231 183.263 142.2 183.395 142.176C183.441 142.164 183.488 142.156 183.536 142.154C182.903 142.346 182.295 142.594 181.722 142.896C180.376 143.681 179.284 144.751 178.55 146.006C177.828 147.265 177.282 148.594 176.924 149.965L176.577 151.209C176.539 151.363 176.49 151.515 176.432 151.665Z" fill="#263238"/>
<path d="M176.518 132.082C176.538 132.148 176.548 132.215 176.548 132.283C176.548 132.427 176.573 132.62 176.59 132.858C176.629 133.359 176.672 134.082 176.714 134.977C176.804 136.765 176.89 139.241 176.916 141.976C176.941 144.711 176.916 147.171 176.839 148.975C176.809 149.873 176.779 150.596 176.753 151.097C176.753 151.335 176.727 151.528 176.719 151.673C176.716 151.74 176.707 151.807 176.693 151.873C176.688 151.806 176.688 151.739 176.693 151.673C176.693 151.524 176.693 151.335 176.693 151.094C176.693 150.578 176.714 149.858 176.727 148.975C176.753 147.182 176.779 144.711 176.753 141.976C176.727 139.241 176.663 136.78 176.603 134.98C176.573 134.097 176.552 133.377 176.535 132.861C176.535 132.62 176.535 132.431 176.535 132.283C176.522 132.216 176.516 132.149 176.518 132.082V132.082Z" fill="#263238"/>
<path d="M170.509 141.89C170.673 141.938 170.832 141.999 170.984 142.072C171.171 142.143 171.351 142.226 171.523 142.321C171.758 142.434 171.985 142.557 172.204 142.692L172.585 142.929C172.717 143.015 172.846 143.115 172.978 143.211C173.257 143.404 173.518 143.638 173.804 143.879C174.392 144.427 174.914 145.025 175.362 145.664C175.793 146.311 176.145 146.995 176.411 147.705C176.525 148.016 176.619 148.332 176.693 148.652C176.723 148.8 176.766 148.945 176.787 149.086C176.809 149.227 176.826 149.361 176.847 149.49C176.89 149.75 176.89 149.984 176.903 150.192C176.916 150.369 176.916 150.546 176.903 150.723C176.901 150.873 176.887 151.023 176.86 151.172C176.817 151.172 176.886 150.526 176.736 149.505C176.715 149.375 176.689 149.242 176.667 149.105C176.646 148.967 176.599 148.826 176.56 148.678C176.496 148.381 176.381 148.073 176.269 147.746C175.744 146.34 174.867 145.051 173.702 143.972C173.423 143.731 173.171 143.493 172.901 143.301C172.769 143.204 172.645 143.104 172.516 143.018L172.148 142.774C171.172 142.176 170.488 141.92 170.509 141.89Z" fill="#263238"/>
<path d="M180.874 159.614H173.013L171.408 149.624H182.372L180.874 159.614Z" fill="#263238"/>
<path d="M181.666 154.229C181.666 154.281 179.526 154.326 176.924 154.326C174.322 154.326 172.182 154.281 172.182 154.229C172.182 154.177 174.322 154.133 176.924 154.133C179.526 154.133 181.666 154.177 181.666 154.229Z" fill="#FAFAFA"/>
<path d="M181.666 154.823C181.666 154.875 179.526 154.92 176.924 154.92C174.322 154.92 172.182 154.875 172.182 154.823C172.182 154.771 174.322 154.727 176.924 154.727C179.526 154.727 181.666 154.756 181.666 154.823Z" fill="#FAFAFA"/>
<path d="M157.405 159.581L97.4559 159.603C97.3358 159.603 97.2168 159.583 97.1057 159.544C96.9946 159.504 96.8936 159.446 96.8085 159.373C96.7234 159.299 96.6559 159.212 96.6098 159.116C96.5638 159.02 96.54 158.917 96.54 158.812V127.414C96.54 127.31 96.5638 127.207 96.6098 127.11C96.6559 127.014 96.7234 126.927 96.8085 126.853C96.8936 126.78 96.9946 126.722 97.1057 126.682C97.2168 126.643 97.3358 126.623 97.4559 126.623L157.405 126.597C157.647 126.598 157.879 126.682 158.05 126.831C158.221 126.98 158.317 127.181 158.317 127.391V158.786C158.317 158.996 158.221 159.198 158.05 159.347C157.879 159.496 157.647 159.58 157.405 159.581Z" fill="#263238"/>
<path d="M128.064 139.794L133.135 142.157L128.269 144.937L123.399 147.72L123.198 142.573L122.992 137.426L128.064 139.794Z" fill="white"/>
<path d="M153.853 156.296C153.853 156.352 142.02 156.4 127.426 156.404C112.832 156.408 100.999 156.371 100.999 156.319C100.999 156.267 112.828 156.219 127.426 156.211C142.024 156.204 153.853 156.241 153.853 156.296Z" fill="white"/>
<path d="M101.945 156.319C101.945 156.433 101.906 156.545 101.833 156.64C101.759 156.736 101.655 156.81 101.533 156.854C101.411 156.897 101.277 156.909 101.147 156.887C101.018 156.864 100.899 156.809 100.805 156.728C100.712 156.647 100.648 156.544 100.623 156.432C100.597 156.319 100.61 156.203 100.661 156.097C100.711 155.991 100.797 155.901 100.907 155.837C101.016 155.774 101.145 155.74 101.277 155.74C101.455 155.74 101.624 155.801 101.75 155.909C101.875 156.018 101.945 156.165 101.945 156.319V156.319Z" fill="white"/>
<path d="M148.037 159.499L84.373 159.525C84.1301 159.525 83.8971 159.441 83.7254 159.292C83.5536 159.143 83.4572 158.941 83.4572 158.731V125.35C83.4572 125.246 83.4809 125.143 83.5269 125.047C83.573 124.951 83.6406 124.864 83.7257 124.79C83.8108 124.717 83.9117 124.659 84.0228 124.619C84.1339 124.58 84.2529 124.559 84.373 124.56L148.037 124.534C148.279 124.534 148.511 124.617 148.683 124.765C148.855 124.913 148.952 125.114 148.953 125.324V158.723C148.948 158.931 148.85 159.129 148.678 159.274C148.507 159.419 148.276 159.5 148.037 159.499V159.499Z" fill="#455A64"/>
<path d="M116.877 138.51L122.256 141.015L117.095 143.965L111.934 146.915L111.72 141.46L111.501 136.001L116.877 138.51Z" fill="white"/>
<path d="M144.219 156.007C144.219 156.063 131.676 156.111 116.205 156.115C100.734 156.118 88.1862 156.085 88.1862 156.029C88.1862 155.974 100.73 155.929 116.205 155.922C131.68 155.914 144.219 155.955 144.219 156.007Z" fill="white"/>
<path d="M89.1618 156.029C89.1618 156.15 89.1204 156.269 89.0428 156.369C88.9652 156.47 88.8549 156.549 88.7259 156.595C88.5969 156.641 88.4549 156.653 88.3179 156.63C88.1809 156.606 88.0551 156.548 87.9563 156.462C87.8576 156.377 87.7903 156.267 87.7631 156.149C87.7358 156.03 87.7498 155.907 87.8033 155.795C87.8567 155.683 87.9472 155.587 88.0633 155.52C88.1795 155.453 88.316 155.417 88.4556 155.417C88.6429 155.417 88.8225 155.481 88.955 155.596C89.0874 155.711 89.1618 155.867 89.1618 156.029V156.029Z" fill="white"/>
<path d="M123.613 139.545H87.8652C87.3594 139.545 86.9493 139.901 86.9493 140.339V158.812C86.9493 159.251 87.3594 159.607 87.8652 159.607H123.613C124.119 159.607 124.529 159.251 124.529 158.812V140.339C124.529 139.901 124.119 139.545 123.613 139.545Z" fill="#FF725E"/>
<path d="M106.131 147.557L109.216 148.993L106.255 150.685L103.293 152.381L103.169 149.249L103.045 146.117L106.131 147.557Z" fill="white"/>
<path d="M121.82 157.599C121.82 157.651 114.621 157.695 105.745 157.699C96.8695 157.703 89.6669 157.662 89.6669 157.61C89.6669 157.558 96.8652 157.51 105.745 157.506C114.626 157.503 121.82 157.543 121.82 157.599Z" fill="white"/>
<path d="M90.2276 157.61C90.2276 157.68 90.2036 157.748 90.1587 157.806C90.1139 157.864 90.0501 157.91 89.9756 157.936C89.901 157.963 89.8191 157.97 89.7401 157.956C89.6611 157.942 89.5887 157.908 89.532 157.858C89.4753 157.808 89.4369 157.745 89.4217 157.677C89.4065 157.608 89.4152 157.537 89.4466 157.473C89.478 157.408 89.5308 157.353 89.5982 157.315C89.6657 157.277 89.7447 157.257 89.8253 157.258C89.9324 157.259 90.0347 157.296 90.11 157.362C90.1853 157.428 90.2276 157.517 90.2276 157.61V157.61Z" fill="white"/>
<path d="M185.064 23.1532H16.7761V116.114H185.064V23.1532Z" fill="white"/>
<path d="M185.18 115.757C185.18 115.041 185.146 79.8461 185.09 22.7969L185.18 22.886L16.9093 22.912L17.0291 22.7969C17.0291 55.6986 17.0291 87.1345 17.0291 115.757L16.9178 115.65L185.202 115.757L16.9178 115.865H16.7809V115.757C16.7809 87.1345 16.7809 55.6986 16.7809 22.7969V22.6819H16.9178L185.189 22.7079H185.283V22.7969C185.219 79.8461 185.184 115.049 185.18 115.757Z" fill="#263238"/>
<path d="M185.279 28.3709C185.279 28.4265 147.558 28.4748 101.043 28.4748C54.5272 28.4748 16.7809 28.4265 16.7809 28.3709C16.7809 28.3152 54.493 28.2632 101.025 28.2632C147.558 28.2632 185.279 28.3115 185.279 28.3709Z" fill="#263238"/>
<path d="M22.3439 24.9271C22.3439 25.1135 22.2801 25.2958 22.1607 25.4508C22.0412 25.6058 21.8714 25.7266 21.6728 25.7979C21.4742 25.8693 21.2556 25.8879 21.0448 25.8516C20.8339 25.8152 20.6402 25.7254 20.4882 25.5936C20.3362 25.4618 20.2326 25.2938 20.1907 25.111C20.1487 24.9281 20.1703 24.7386 20.2525 24.5664C20.3348 24.3941 20.4741 24.2469 20.6529 24.1434C20.8317 24.0398 21.0418 23.9845 21.2568 23.9845C21.5451 23.9845 21.8216 24.0838 22.0255 24.2606C22.2293 24.4373 22.3439 24.6771 22.3439 24.9271Z" fill="#263238"/>
<path d="M25.6777 24.9271C25.6777 25.1135 25.614 25.2958 25.4945 25.4508C25.3751 25.6058 25.2053 25.7266 25.0067 25.7979C24.808 25.8693 24.5895 25.8879 24.3786 25.8516C24.1678 25.8152 23.9741 25.7254 23.822 25.5936C23.67 25.4618 23.5665 25.2938 23.5245 25.111C23.4826 24.9281 23.5041 24.7386 23.5864 24.5664C23.6687 24.3941 23.808 24.2469 23.9868 24.1434C24.1655 24.0398 24.3757 23.9845 24.5907 23.9845C24.7334 23.9845 24.8748 24.0089 25.0067 24.0562C25.1386 24.1036 25.2584 24.173 25.3593 24.2606C25.4603 24.3481 25.5403 24.452 25.595 24.5664C25.6496 24.6807 25.6777 24.8033 25.6777 24.9271Z" fill="#263238"/>
<path d="M28.9944 24.9271C28.9944 25.1135 28.9306 25.2958 28.8112 25.4508C28.6917 25.6058 28.522 25.7266 28.3233 25.7979C28.1247 25.8693 27.9061 25.8879 27.6953 25.8516C27.4844 25.8152 27.2907 25.7254 27.1387 25.5936C26.9867 25.4618 26.8831 25.2938 26.8412 25.111C26.7993 24.9281 26.8208 24.7386 26.9031 24.5664C26.9853 24.3941 27.1247 24.2469 27.3034 24.1434C27.4822 24.0398 27.6923 23.9845 27.9073 23.9845C28.1956 23.9845 28.4721 24.0838 28.676 24.2606C28.8798 24.4373 28.9944 24.6771 28.9944 24.9271V24.9271Z" fill="#263238"/>
<path d="M62.7693 78.4583H28.0658V107.575H62.7693V78.4583Z" fill="#FF725E"/>
<g opacity="0.3">
<path opacity="0.3" d="M30.7577 105.085L40.3569 90.0996L48.21 99.6777L52.9818 94.5899L60.0817 105.085H30.7577Z" fill="black"/>
</g>
<g opacity="0.3">
<path opacity="0.3" d="M51.5567 87.1865C51.5576 87.6153 51.4117 88.0346 51.1376 88.3915C50.8635 88.7484 50.4734 89.0268 50.0168 89.1914C49.5602 89.356 49.0575 89.3994 48.5724 89.3162C48.0873 89.233 47.6416 89.0269 47.2917 88.7239C46.9417 88.421 46.7032 88.0348 46.6064 87.6143C46.5097 87.1938 46.5589 86.7579 46.7479 86.3617C46.937 85.9654 47.2573 85.6268 47.6684 85.3885C48.0795 85.1502 48.5629 85.0229 49.0574 85.0229C49.7192 85.0239 50.3536 85.2521 50.8219 85.6575C51.2903 86.0629 51.5544 86.6126 51.5567 87.1865Z" fill="black"/>
</g>
<g opacity="0.3">
<path opacity="0.3" d="M60.0817 105.163C60.0753 105.123 60.0753 105.083 60.0817 105.044C60.0817 104.958 60.0817 104.847 60.0817 104.706C60.0817 104.394 60.0817 103.964 60.0817 103.396C60.0817 102.242 60.0817 100.572 60.0432 98.4494C60.0432 94.1966 60.0004 88.1402 59.9704 80.8704L60.1159 80.9929L30.7919 81.0151L30.9545 80.8741V87.4129C30.9545 89.5504 30.9545 91.6471 30.9545 93.6845C30.9545 97.7666 30.9545 101.619 30.9545 105.163L30.8133 105.04L52.0146 105.103L58.0061 105.137H59.5938H60.0218H60.1673C60.1248 105.142 60.0815 105.142 60.0389 105.137H59.6409H58.0831L52.1344 105.17L30.8433 105.233H30.6978V105.107C30.6978 101.563 30.6978 97.7072 30.6978 93.6288C30.6978 91.5915 30.6978 89.4948 30.6978 87.3572V80.8741L30.8647 80.7294L60.1887 80.7479H60.3299V80.8704C60.3 88.1736 60.2743 94.256 60.2572 98.5273C60.2572 100.639 60.2272 102.298 60.2187 103.444C60.2187 103.997 60.2187 104.428 60.2187 104.732C60.2187 104.869 60.2187 104.973 60.2187 105.059C60.1763 105.096 60.1305 105.131 60.0817 105.163V105.163Z" fill="black"/>
</g>
<path d="M91.0748 83.9987H67.5839V85.023H91.0748V83.9987Z" fill="#FF725E"/>
<path d="M99.2403 88.3925C99.2403 88.4519 92.1832 88.5002 83.4827 88.5002C74.7822 88.5002 67.7251 88.4519 67.7251 88.3925C67.7251 88.3332 74.7779 88.2886 83.4827 88.2886C92.1875 88.2886 99.2403 88.3295 99.2403 88.3925Z" fill="#263238"/>
<path d="M99.2403 91.25C99.2403 91.3094 92.1832 91.3576 83.4827 91.3576C74.7822 91.3576 67.708 91.2983 67.708 91.25C67.708 91.2018 74.7608 91.1461 83.4656 91.1461C92.1704 91.1461 99.2403 91.1944 99.2403 91.25Z" fill="#263238"/>
<path d="M99.2403 94.1075C99.2403 94.1669 92.1832 94.2114 83.4827 94.2114C74.7822 94.2114 67.7251 94.1669 67.7251 94.1075C67.7251 94.0481 74.7779 94.0036 83.4827 94.0036C92.1875 94.0036 99.2403 94.0481 99.2403 94.1075Z" fill="#263238"/>
<path d="M99.2403 96.9649C99.2403 97.0206 92.1832 97.0688 83.4827 97.0688C74.7822 97.0688 67.7251 97.0206 67.7251 96.9649C67.7251 96.9093 74.7779 96.861 83.4827 96.861C92.1875 96.861 99.2403 96.9056 99.2403 96.9649Z" fill="#263238"/>
<path d="M99.2403 99.8336C99.2403 99.8892 92.1832 99.9375 83.4827 99.9375C74.7822 99.9375 67.708 99.8781 67.708 99.8336C67.708 99.789 74.7608 99.726 83.4656 99.726C92.1704 99.726 99.2403 99.7631 99.2403 99.8336Z" fill="#263238"/>
<path d="M83.9107 102.431C83.9107 102.487 80.2858 102.535 75.8179 102.535C71.35 102.535 67.708 102.502 67.708 102.431C67.708 102.361 71.3329 102.324 75.8008 102.324C80.2687 102.324 83.9107 102.387 83.9107 102.431Z" fill="#263238"/>
<path d="M166.957 82.2731H143.466V83.2974H166.957V82.2731Z" fill="#FF725E"/>
<path d="M175.127 86.6706C175.127 86.73 168.07 86.7745 159.369 86.7745C150.669 86.7745 143.612 86.73 143.612 86.6706C143.612 86.6112 150.664 86.5667 159.369 86.5667C168.074 86.5667 175.127 86.6112 175.127 86.6706Z" fill="#263238"/>
<path d="M175.127 89.5282C175.127 89.5875 168.07 89.6321 159.369 89.6321C150.669 89.6321 143.612 89.5875 143.612 89.5282C143.612 89.4688 150.664 89.4243 159.369 89.4243C168.074 89.4243 175.127 89.4688 175.127 89.5282Z" fill="#263238"/>
<path d="M175.127 92.3856C175.127 92.4412 168.07 92.4895 159.369 92.4895C150.669 92.4895 143.612 92.4412 143.612 92.3856C143.612 92.3299 150.664 92.278 159.369 92.278C168.074 92.278 175.127 92.3262 175.127 92.3856Z" fill="#263238"/>
<path d="M175.127 95.2431C175.127 95.2987 168.07 95.347 159.369 95.347C150.669 95.347 143.612 95.2987 143.612 95.2431C143.612 95.1874 150.664 95.1354 159.369 95.1354C168.074 95.1354 175.127 95.1837 175.127 95.2431Z" fill="#263238"/>
<path d="M175.127 98.0968C175.127 98.1562 168.07 98.2044 159.369 98.2044C150.669 98.2044 143.612 98.1562 143.612 98.0968C143.612 98.0375 150.664 97.9929 159.369 97.9929C168.074 97.9929 175.127 98.0412 175.127 98.0968Z" fill="#263238"/>
<path d="M159.793 100.724C159.793 100.78 156.168 100.828 151.7 100.828C147.232 100.828 143.607 100.78 143.607 100.724C143.607 100.669 147.232 100.617 151.7 100.617C156.168 100.617 159.793 100.665 159.793 100.724Z" fill="#263238"/>
<path d="M138.613 108.558C138.989 108.457 139.385 108.421 139.777 108.454C139.533 108.666 139.709 108.514 139.653 108.558V108.369V108.18C139.653 108.058 139.662 107.951 139.679 107.857C139.7 107.675 139.73 107.564 139.764 107.564C139.798 107.564 139.828 107.675 139.85 107.857C139.85 107.951 139.858 108.058 139.876 108.18V108.551L139.756 108.658C139.371 108.693 138.982 108.659 138.613 108.558V108.558Z" fill="#263238"/>
<path d="M133.614 108.558C134.437 108.42 135.282 108.42 136.105 108.558C135.283 108.702 134.436 108.702 133.614 108.558V108.558Z" fill="#263238"/>
<path d="M128.65 108.558C129.473 108.42 130.318 108.42 131.141 108.558C130.319 108.702 129.472 108.702 128.65 108.558V108.558Z" fill="#263238"/>
<path d="M123.668 108.558C124.491 108.42 125.337 108.42 126.159 108.558C125.337 108.702 124.49 108.702 123.668 108.558Z" fill="#263238"/>
<path d="M118.687 108.558C119.51 108.42 120.355 108.42 121.178 108.558C120.356 108.702 119.509 108.702 118.687 108.558V108.558Z" fill="#263238"/>
<path d="M113.705 108.558C114.528 108.42 115.373 108.42 116.196 108.558C115.374 108.702 114.527 108.702 113.705 108.558V108.558Z" fill="#263238"/>
<path d="M108.724 108.558C109.547 108.42 110.392 108.42 111.215 108.558C110.393 108.702 109.546 108.702 108.724 108.558Z" fill="#263238"/>
<path d="M105.069 107.552C105.191 107.876 105.233 108.219 105.193 108.558L105.069 108.454H105.523L105.895 108.476C106.105 108.499 106.233 108.525 106.233 108.551C106.233 108.577 106.105 108.606 105.895 108.629L105.523 108.651H105.069C105.018 108.603 105.193 108.755 104.949 108.543C104.914 108.209 104.955 107.873 105.069 107.552Z" fill="#263238"/>
<path d="M105.069 103.381C105.235 104.069 105.235 104.779 105.069 105.467C104.91 104.779 104.91 104.07 105.069 103.381V103.381Z" fill="#263238"/>
<path d="M105.069 99.2138C105.235 99.9016 105.235 100.612 105.069 101.299C104.91 100.611 104.91 99.9021 105.069 99.2138V99.2138Z" fill="#263238"/>
<path d="M105.069 95.0464C105.235 95.7329 105.235 96.4417 105.069 97.1283C104.953 96.7905 104.912 96.4365 104.949 96.0855C104.912 95.7356 104.952 95.3828 105.069 95.0464Z" fill="#263238"/>
<path d="M105.069 90.8752C105.235 91.563 105.235 92.273 105.069 92.9608C104.91 92.2725 104.91 91.5635 105.069 90.8752V90.8752Z" fill="#263238"/>
<path d="M105.069 86.7078C105.235 87.3943 105.235 88.1031 105.069 88.7896C104.952 88.4532 104.912 88.1004 104.949 87.7506C104.912 87.3995 104.953 87.0455 105.069 86.7078V86.7078Z" fill="#263238"/>
<path d="M105.069 82.5366C105.235 83.2244 105.235 83.9344 105.069 84.6222C104.91 83.9339 104.91 83.2249 105.069 82.5366V82.5366Z" fill="#263238"/>
<path d="M106.225 79.4453C105.849 79.5486 105.453 79.5839 105.061 79.5492L105.185 79.4453V79.6383V79.8276C105.185 79.9463 105.185 80.0576 105.159 80.1467C105.138 80.3285 105.108 80.4436 105.073 80.4436C105.039 80.4436 105.009 80.3285 104.988 80.1467C104.988 80.0576 104.988 79.9463 104.962 79.8276C104.936 79.7088 104.962 79.6977 104.962 79.6383V79.4453L105.082 79.3414C105.467 79.3093 105.856 79.3446 106.225 79.4453V79.4453Z" fill="#263238"/>
<path d="M111.215 79.4453C110.392 79.5839 109.547 79.5839 108.724 79.4453C109.547 79.3068 110.392 79.3068 111.215 79.4453V79.4453Z" fill="#263238"/>
<path d="M116.196 79.4453C115.373 79.5839 114.528 79.5839 113.705 79.4453C114.528 79.3068 115.373 79.3068 116.196 79.4453V79.4453Z" fill="#263238"/>
<path d="M121.178 79.4453C120.355 79.5839 119.51 79.5839 118.687 79.4453C119.51 79.3068 120.355 79.3068 121.178 79.4453V79.4453Z" fill="#263238"/>
<path d="M126.159 79.4453C125.337 79.5839 124.491 79.5839 123.668 79.4453C124.491 79.3068 125.337 79.3068 126.159 79.4453V79.4453Z" fill="#263238"/>
<path d="M131.141 79.4453C130.318 79.5839 129.473 79.5839 128.65 79.4453C129.473 79.3068 130.318 79.3068 131.141 79.4453V79.4453Z" fill="#263238"/>
<path d="M136.122 79.4453C135.3 79.5839 134.454 79.5839 133.631 79.4453C134.454 79.3068 135.3 79.3068 136.122 79.4453V79.4453Z" fill="#263238"/>
<path d="M139.777 80.4548C139.655 80.1294 139.613 79.7857 139.653 79.4454L139.777 79.5493H139.542H139.323C139.182 79.5493 139.058 79.5493 138.951 79.527C138.741 79.5085 138.613 79.4825 138.613 79.4528C138.613 79.4231 138.741 79.3971 138.951 79.3786C139.06 79.3786 139.184 79.3712 139.323 79.3563H139.542H139.777L139.897 79.4602C139.932 79.7953 139.891 80.1331 139.777 80.4548V80.4548Z" fill="#263238"/>
<path d="M139.777 84.6185C139.611 83.9307 139.611 83.2207 139.777 82.5329C139.937 83.2212 139.937 83.9302 139.777 84.6185V84.6185Z" fill="#263238"/>
<path d="M139.777 88.7896C139.611 88.1031 139.611 87.3943 139.777 86.7078C139.894 87.0455 139.934 87.3995 139.897 87.7506C139.934 88.1004 139.894 88.4532 139.777 88.7896V88.7896Z" fill="#263238"/>
<path d="M139.777 92.9608C139.611 92.273 139.611 91.563 139.777 90.8752C139.937 91.5635 139.937 92.2725 139.777 92.9608Z" fill="#263238"/>
<path d="M139.777 97.1283C139.611 96.4417 139.611 95.7329 139.777 95.0464C139.894 95.3828 139.934 95.7356 139.897 96.0855C139.934 96.4365 139.894 96.7905 139.777 97.1283V97.1283Z" fill="#263238"/>
<path d="M139.777 101.318C139.611 100.63 139.611 99.9202 139.777 99.2324C139.937 99.9207 139.937 100.63 139.777 101.318Z" fill="#263238"/>
<path d="M139.777 105.467C139.611 104.779 139.611 104.069 139.777 103.381C139.937 104.07 139.937 104.779 139.777 105.467V105.467Z" fill="#263238"/>
<path d="M129.125 51.7242C129.125 51.7242 129.125 51.6463 129.125 51.5053C129.125 51.3643 129.125 51.1342 129.125 50.8893C129.125 50.3437 129.125 49.557 129.104 48.5513C129.104 46.5288 129.074 43.6268 129.057 40.0828L129.142 40.157L107.342 40.1793C107.316 40.1979 107.551 39.9975 107.449 40.0828V46.1021C107.449 48.0503 107.449 49.9281 107.449 51.7168L107.342 51.6277L123.014 51.6723L127.52 51.6983H128.723H129.035C129.072 51.6951 129.109 51.6951 129.146 51.6983H128.748H127.563L123.082 51.7242L107.342 51.7688H107.239V51.676C107.239 49.8873 107.239 48.0095 107.239 46.0612V43.0924C107.239 42.5915 107.239 42.0831 107.239 41.5746V40.0865C107.141 40.1719 107.376 39.9678 107.355 39.9901L129.155 40.0086H129.245V40.0865C129.223 43.6528 129.206 46.5659 129.198 48.6033C129.198 49.6015 129.198 50.3808 129.176 50.9227C129.176 51.1824 129.176 51.3828 129.176 51.5275C129.176 51.6723 129.125 51.7242 129.125 51.7242Z" fill="#FF725E"/>
<path d="M118.357 44.9368L120.146 45.7718L118.43 46.7515L116.71 47.7312L116.641 45.9165L116.569 44.1018L118.357 44.9368Z" fill="#FF725E"/>
<path d="M127.55 50.5589C127.55 50.6146 123.373 50.6554 118.225 50.6554C113.076 50.6554 108.895 50.6146 108.895 50.5589C108.895 50.5033 113.072 50.4773 118.208 50.4773C123.343 50.4773 127.55 50.507 127.55 50.5589Z" fill="#FF725E"/>
<path d="M108.985 50.763C109.115 50.763 109.221 50.6716 109.221 50.5589C109.221 50.4462 109.115 50.3548 108.985 50.3548C108.855 50.3548 108.75 50.4462 108.75 50.5589C108.75 50.6716 108.855 50.763 108.985 50.763Z" fill="#FF725E"/>
<path d="M157.516 41.4447H134.025V42.4689H157.516V41.4447Z" fill="#FF725E"/>
<path d="M165.682 45.8422C165.682 45.8979 158.629 45.9461 149.928 45.9461C141.228 45.9461 134.171 45.8979 134.171 45.8422C134.171 45.7866 141.223 45.7346 149.928 45.7346C158.633 45.7346 165.682 45.7829 165.682 45.8422Z" fill="#263238"/>
<path d="M165.682 48.696C165.682 48.7554 158.629 48.8036 149.928 48.8036C141.228 48.8036 134.171 48.7554 134.171 48.696C134.171 48.6366 141.223 48.5921 149.928 48.5921C158.633 48.5921 165.682 48.6403 165.682 48.696Z" fill="#263238"/>
<path d="M129.125 68.8208C129.125 68.8208 129.125 68.7466 129.125 68.6056C129.125 68.4645 129.125 68.253 129.125 67.9895C129.125 67.444 129.125 66.6573 129.104 65.6516C129.104 63.6291 129.074 60.7271 129.057 57.1831L129.142 57.2573L107.342 57.2796C107.316 57.2796 107.551 57.094 107.449 57.1831V63.206C107.449 65.1543 107.449 67.0321 107.449 68.8208L107.342 68.7317L123.014 68.7763L127.52 68.8022H128.723H129.035H129.146C129.146 68.8022 129.116 68.8022 129.048 68.8022H128.748H127.563L123.082 68.8282L107.342 68.869H107.239V68.7763C107.239 66.9876 107.239 65.1098 107.239 63.1615V60.1927C107.239 59.688 107.239 59.1833 107.239 58.6749V57.146C107.141 57.2313 107.376 57.0272 107.355 57.0495L129.155 57.0681H129.245V57.146C129.223 60.7123 129.206 63.6254 129.198 65.659C129.198 66.6573 129.198 67.4403 129.176 67.9821C129.176 68.2419 129.176 68.4386 129.176 68.5833C129.165 68.6633 129.148 68.7426 129.125 68.8208V68.8208Z" fill="#FF725E"/>
<path d="M118.357 62.0333L120.146 62.8683L118.43 63.8517L116.71 64.8314L116.641 63.0168L116.569 61.1984L118.357 62.0333Z" fill="#FF725E"/>
<path d="M127.55 67.6592C127.55 67.7112 123.373 67.7557 118.225 67.7557C113.076 67.7557 108.895 67.7112 108.895 67.6592C108.895 67.6073 113.072 67.5479 118.208 67.5479C123.343 67.5479 127.55 67.6073 127.55 67.6592Z" fill="#FF725E"/>
<path d="M108.985 67.8633C109.115 67.8633 109.221 67.7719 109.221 67.6592C109.221 67.5465 109.115 67.4551 108.985 67.4551C108.855 67.4551 108.75 67.5465 108.75 67.6592C108.75 67.7719 108.855 67.8633 108.985 67.8633Z" fill="#FF725E"/>
<path d="M157.516 58.545H134.025V59.5693H157.516V58.545Z" fill="#FF725E"/>
<path d="M165.682 62.9388C165.682 62.9982 158.629 63.0464 149.928 63.0464C141.228 63.0464 134.171 62.9982 134.171 62.9388C134.171 62.8794 141.223 62.8349 149.928 62.8349C158.633 62.8349 165.682 62.8831 165.682 62.9388Z" fill="#263238"/>
<path d="M165.682 65.7963C165.682 65.8557 158.629 65.9039 149.928 65.9039C141.228 65.9039 134.171 65.8557 134.171 65.7963C134.171 65.7369 141.223 65.6924 149.928 65.6924C158.633 65.6924 165.682 65.7406 165.682 65.7963Z" fill="#263238"/>
<path d="M95.8551 72.9214C96.2007 72.8274 96.5645 72.7946 96.925 72.8249L96.8137 72.9214V72.7433V72.5689C96.8137 72.4576 96.8137 72.3574 96.8351 72.272C96.8351 72.105 96.8822 72.0011 96.9164 72.0011C96.9507 72.0011 96.9721 72.105 96.9935 72.272C96.9935 72.3574 96.9935 72.4576 97.0192 72.5689V72.94L96.9079 73.0365C96.5516 73.0609 96.1933 73.0218 95.8551 72.9214Z" fill="#E0E0E0"/>
<path d="M91.584 72.9214C92.2895 72.7922 93.0183 72.7922 93.7238 72.9214C93.0183 73.0506 92.2895 73.0506 91.584 72.9214Z" fill="#E0E0E0"/>
<path d="M87.3173 72.9214C88.0227 72.7917 88.7517 72.7917 89.4571 72.9214C88.7517 73.0511 88.0227 73.0511 87.3173 72.9214V72.9214Z" fill="#E0E0E0"/>
<path d="M83.0461 72.9214C83.7516 72.7922 84.4805 72.7922 85.186 72.9214C84.4805 73.0506 83.7516 73.0506 83.0461 72.9214Z" fill="#E0E0E0"/>
<path d="M78.7794 72.9214C79.1235 72.8272 79.486 72.7943 79.845 72.8249C80.2055 72.7946 80.5694 72.8274 80.915 72.9214C80.5699 73.0175 80.2055 73.0504 79.845 73.0179C79.486 73.0511 79.1229 73.0182 78.7794 72.9214V72.9214Z" fill="#E0E0E0"/>
<path d="M74.5083 72.9214C75.2138 72.7922 75.9426 72.7922 76.6481 72.9214C75.9426 73.0506 75.2138 73.0506 74.5083 72.9214Z" fill="#E0E0E0"/>
<path d="M70.2416 72.9214C70.9471 72.7922 71.6759 72.7922 72.3814 72.9214C71.6759 73.0506 70.9471 73.0506 70.2416 72.9214Z" fill="#E0E0E0"/>
<path d="M65.9705 72.9214C66.316 72.8274 66.6799 72.7946 67.0404 72.8249C67.3994 72.7943 67.7619 72.8272 68.106 72.9214C67.7626 73.0182 67.3994 73.0511 67.0404 73.0179C66.6799 73.0504 66.3155 73.0175 65.9705 72.9214Z" fill="#E0E0E0"/>
<path d="M61.7166 72.9214C62.422 72.7922 63.1509 72.7922 63.8564 72.9214C63.1509 73.0506 62.422 73.0506 61.7166 72.9214Z" fill="#E0E0E0"/>
<path d="M57.4369 72.9214C58.1423 72.7917 58.8713 72.7917 59.5767 72.9214C58.8713 73.0511 58.1423 73.0511 57.4369 72.9214V72.9214Z" fill="#E0E0E0"/>
<path d="M53.1573 72.9214C53.8628 72.7922 54.5917 72.7922 55.2972 72.9214C54.5917 73.0506 53.8628 73.0506 53.1573 72.9214Z" fill="#E0E0E0"/>
<path d="M48.8989 72.9214C49.6044 72.7917 50.3333 72.7917 51.0387 72.9214C50.3333 73.0511 49.6044 73.0511 48.8989 72.9214V72.9214Z" fill="#E0E0E0"/>
<path d="M44.6279 72.9214C45.3334 72.7922 46.0623 72.7922 46.7677 72.9214C46.0623 73.0506 45.3334 73.0506 44.6279 72.9214Z" fill="#E0E0E0"/>
<path d="M40.3612 72.9214C40.7053 72.8272 41.0678 72.7943 41.4268 72.8249C41.7859 72.7943 42.1484 72.8272 42.4925 72.9214C42.149 73.0182 41.7859 73.0511 41.4268 73.0179C41.0678 73.0511 40.7046 73.0182 40.3612 72.9214V72.9214Z" fill="#E0E0E0"/>
<path d="M36.0901 72.9214C36.4357 72.8274 36.7995 72.7946 37.16 72.8249C37.5191 72.7948 37.8815 72.8276 38.2256 72.9214C37.882 73.0173 37.5191 73.0502 37.16 73.0179C36.7995 73.0504 36.4352 73.0175 36.0901 72.9214V72.9214Z" fill="#E0E0E0"/>
<path d="M31.8232 72.9214C32.1673 72.8272 32.5298 72.7943 32.8889 72.8249C33.2494 72.7946 33.6132 72.8274 33.9588 72.9214C33.6137 73.0175 33.2494 73.0504 32.8889 73.0179C32.5298 73.0511 32.1667 73.0182 31.8232 72.9214V72.9214Z" fill="#E0E0E0"/>
<path d="M28.6179 72.0011C28.7263 72.3007 28.7642 72.6163 28.7291 72.9288L28.6179 72.8324H29.0458C29.1742 72.8324 29.2898 72.8324 29.3882 72.8546C29.5808 72.8546 29.7006 72.8954 29.7006 72.9214C29.7006 72.9474 29.5808 72.9734 29.3882 72.9919L29.0458 73.0105H28.8447H28.6307L28.5194 72.914C28.4825 72.6071 28.516 72.2968 28.6179 72.0011V72.0011Z" fill="#E0E0E0"/>
<path d="M28.6179 68.3495C28.7662 68.95 28.7662 69.571 28.6179 70.1716C28.4695 69.571 28.4695 68.95 28.6179 68.3495V68.3495Z" fill="#E0E0E0"/>
<path d="M28.6179 64.709C28.7662 65.3095 28.7662 65.9305 28.6179 66.5311C28.4695 65.9305 28.4695 65.3095 28.6179 64.709Z" fill="#E0E0E0"/>
<path d="M28.6179 61.0648C28.7662 61.6653 28.7662 62.2863 28.6179 62.8869C28.4695 62.2863 28.4695 61.6653 28.6179 61.0648V61.0648Z" fill="#E0E0E0"/>
<path d="M28.6179 57.4206C28.7662 58.0211 28.7662 58.6421 28.6179 59.2427C28.4695 58.6421 28.4695 58.0211 28.6179 57.4206V57.4206Z" fill="#E0E0E0"/>
<path d="M28.6179 53.7764C28.7662 54.3769 28.7662 54.9979 28.6179 55.5985C28.4695 54.9979 28.4695 54.3769 28.6179 53.7764Z" fill="#E0E0E0"/>
<path d="M28.6179 50.1359C28.7663 50.7352 28.7663 51.355 28.6179 51.9543C28.4695 51.355 28.4695 50.7352 28.6179 50.1359V50.1359Z" fill="#E0E0E0"/>
<path d="M28.6179 46.4917C28.7662 47.0923 28.7662 47.7132 28.6179 48.3138C28.4695 47.7132 28.4695 47.0923 28.6179 46.4917Z" fill="#E0E0E0"/>
<path d="M28.6179 42.8475C28.7662 43.448 28.7662 44.069 28.6179 44.6696C28.4695 44.069 28.4695 43.448 28.6179 42.8475V42.8475Z" fill="#E0E0E0"/>
<path d="M28.6179 39.2032C28.7662 39.8038 28.7662 40.4248 28.6179 41.0253C28.4695 40.4248 28.4695 39.8038 28.6179 39.2032Z" fill="#E0E0E0"/>
<path d="M29.6878 36.4534C29.3433 36.552 28.9787 36.5861 28.6179 36.5536C28.8404 36.3569 28.6778 36.4979 28.7292 36.4571V36.639C28.7292 36.6946 28.7292 36.7503 28.7292 36.8134C28.7292 36.8765 28.7292 37.0249 28.7035 37.1065C28.7035 37.2735 28.6564 37.3774 28.6264 37.3774C28.5965 37.3774 28.5665 37.2735 28.5494 37.1065C28.5494 37.0249 28.5494 36.9247 28.5237 36.8134V36.4423C28.5751 36.3977 28.4125 36.5351 28.635 36.3421C28.991 36.3185 29.3488 36.3563 29.6878 36.4534V36.4534Z" fill="#E0E0E0"/>
<path d="M33.9588 36.4535C33.6143 36.552 33.2497 36.5862 32.8889 36.5537C32.5295 36.5863 32.1662 36.5522 31.8232 36.4535C32.1673 36.3592 32.5298 36.3264 32.8889 36.357C33.2494 36.3266 33.6132 36.3594 33.9588 36.4535V36.4535Z" fill="#E0E0E0"/>
<path d="M38.2256 36.4534C37.8825 36.5514 37.5194 36.5856 37.16 36.5536C36.7992 36.5861 36.4346 36.552 36.0901 36.4534C36.4357 36.3594 36.7995 36.3265 37.16 36.3569C37.5191 36.3267 37.8815 36.3596 38.2256 36.4534Z" fill="#E0E0E0"/>
<path d="M42.4925 36.4535C42.1495 36.5522 41.7862 36.5863 41.4268 36.5537C41.0674 36.5863 40.7042 36.5522 40.3612 36.4535C40.7053 36.3592 41.0678 36.3264 41.4268 36.357C41.7859 36.3264 42.1484 36.3592 42.4925 36.4535Z" fill="#E0E0E0"/>
<path d="M46.7635 36.4535C46.0586 36.5876 45.3285 36.5876 44.6237 36.4535C45.3292 36.3243 46.058 36.3243 46.7635 36.4535Z" fill="#E0E0E0"/>
<path d="M51.0174 36.4534C50.3126 36.5881 49.5824 36.5881 48.8776 36.4534C49.583 36.3237 50.312 36.3237 51.0174 36.4534Z" fill="#E0E0E0"/>
<path d="M55.2972 36.4535C54.5923 36.5876 53.8622 36.5876 53.1573 36.4535C53.8628 36.3243 54.5917 36.3243 55.2972 36.4535Z" fill="#E0E0E0"/>
<path d="M59.5767 36.4534C58.8719 36.5881 58.1417 36.5881 57.4369 36.4534C58.1423 36.3237 58.8713 36.3237 59.5767 36.4534Z" fill="#E0E0E0"/>
<path d="M63.8564 36.4535C63.1515 36.5876 62.4214 36.5876 61.7166 36.4535C62.422 36.3243 63.1509 36.3243 63.8564 36.4535Z" fill="#E0E0E0"/>
<path d="M68.106 36.4535C67.763 36.5522 67.3998 36.5863 67.0404 36.5537C66.6796 36.5862 66.3149 36.552 65.9705 36.4535C66.316 36.3594 66.6799 36.3266 67.0404 36.357C67.3994 36.3264 67.7619 36.3592 68.106 36.4535V36.4535Z" fill="#E0E0E0"/>
<path d="M72.3771 36.4535C71.6722 36.5876 70.9422 36.5876 70.2373 36.4535C70.9428 36.3243 71.6716 36.3243 72.3771 36.4535V36.4535Z" fill="#E0E0E0"/>
<path d="M76.6438 36.4535C75.939 36.5876 75.2089 36.5876 74.504 36.4535C75.2095 36.3243 75.9384 36.3243 76.6438 36.4535Z" fill="#E0E0E0"/>
<path d="M80.915 36.4535C80.5705 36.552 80.2058 36.5862 79.845 36.5537C79.4857 36.5863 79.1224 36.5522 78.7794 36.4535C79.1235 36.3592 79.486 36.3264 79.845 36.357C80.2055 36.3266 80.5694 36.3594 80.915 36.4535Z" fill="#E0E0E0"/>
<path d="M85.1817 36.4535C84.4768 36.5876 83.7468 36.5876 83.0419 36.4535C83.7474 36.3243 84.4762 36.3243 85.1817 36.4535Z" fill="#E0E0E0"/>
<path d="M89.4484 36.4534C88.7436 36.5881 88.0134 36.5881 87.3086 36.4534C88.014 36.3237 88.743 36.3237 89.4484 36.4534Z" fill="#E0E0E0"/>
<path d="M93.7197 36.4535C93.0148 36.5876 92.2847 36.5876 91.5798 36.4535C92.2853 36.3243 93.0142 36.3243 93.7197 36.4535Z" fill="#E0E0E0"/>
<path d="M96.925 37.3812C96.8137 37.0821 96.7758 36.766 96.8137 36.4535C97.0363 36.6464 96.8737 36.5091 96.925 36.5536H96.7067H96.5056H96.1675C95.9749 36.5351 95.8551 36.5128 95.8551 36.4831C95.8551 36.4534 95.9749 36.4349 96.1675 36.4163L96.5056 36.3941H96.9336C96.9806 36.4386 96.8223 36.2976 97.0448 36.4906C97.0719 36.7914 97.0312 37.0939 96.925 37.3812V37.3812Z" fill="#E0E0E0"/>
<path d="M96.925 41.0253C96.7766 40.4248 96.7766 39.8038 96.925 39.2032C97.0734 39.8038 97.0734 40.4248 96.925 41.0253Z" fill="#E0E0E0"/>
<path d="M96.925 44.6696C96.7766 44.069 96.7766 43.448 96.925 42.8475C97.0734 43.448 97.0734 44.069 96.925 44.6696Z" fill="#E0E0E0"/>
<path d="M96.925 48.3138C96.7766 47.7132 96.7766 47.0923 96.925 46.4917C97.0734 47.0923 97.0734 47.7132 96.925 48.3138Z" fill="#E0E0E0"/>
<path d="M96.925 51.9617C96.7766 51.3624 96.7766 50.7426 96.925 50.1433C97.0734 50.7426 97.0734 51.3624 96.925 51.9617V51.9617Z" fill="#E0E0E0"/>
<path d="M96.925 55.5985C96.7766 54.9979 96.7766 54.3769 96.925 53.7764C97.0734 54.3769 97.0734 54.9979 96.925 55.5985Z" fill="#E0E0E0"/>
<path d="M96.925 59.2427C96.7766 58.6421 96.7766 58.0211 96.925 57.4206C97.0734 58.0211 97.0734 58.6421 96.925 59.2427Z" fill="#E0E0E0"/>
<path d="M96.925 62.8869C96.7766 62.2863 96.7766 61.6653 96.925 61.0648C97.0734 61.6653 97.0734 62.2863 96.925 62.8869V62.8869Z" fill="#E0E0E0"/>
<path d="M96.9251 66.5311C96.8142 66.237 96.7763 65.9259 96.8139 65.6182C96.7761 65.3117 96.814 65.0018 96.9251 64.709C97.0343 65.0021 97.0722 65.3117 97.0364 65.6182C97.0715 65.9259 97.0336 66.2365 96.9251 66.5311V66.5311Z" fill="#E0E0E0"/>
<path d="M96.925 70.1716C96.7766 69.571 96.7766 68.95 96.925 68.3495C97.0734 68.95 97.0734 69.571 96.925 70.1716Z" fill="#E0E0E0"/>
<path d="M91.9949 72.6356L25.6135 75.7937C25.3727 75.8049 25.1364 75.7332 24.9561 75.5942C24.7758 75.4553 24.666 75.2602 24.6506 75.0515L22.4509 40.2201C22.4368 40.0109 22.5191 39.8056 22.6796 39.649C22.8401 39.4924 23.0657 39.3975 23.3068 39.3851L89.6839 36.227C89.9248 36.2158 90.161 36.2875 90.3413 36.4265C90.5216 36.5654 90.6314 36.7605 90.6468 36.9692L92.8508 71.7969C92.8584 71.9008 92.8422 72.0049 92.8032 72.1033C92.7642 72.2017 92.7032 72.2925 92.6237 72.3704C92.5442 72.4483 92.4477 72.5119 92.3398 72.5574C92.2319 72.6029 92.1147 72.6295 91.9949 72.6356Z" fill="#FF725E"/>
<path d="M58.1344 52.3105L63.8948 54.6559L58.7164 57.9809L53.5338 61.306L52.9518 55.6356L52.3698 49.9651L58.1344 52.3105Z" fill="white"/>
<path d="M87.7495 69.1919C87.7495 69.2439 74.6924 69.9081 58.5795 70.6763C42.4667 71.4445 29.401 72.0197 29.3967 71.9677C29.3924 71.9158 42.4539 71.2478 58.571 70.4833C74.6881 69.7189 87.7452 69.1362 87.7495 69.1919Z" fill="white"/>
<path d="M30.4152 71.9194C30.4226 72.0454 30.3868 72.1705 30.3123 72.2789C30.2377 72.3872 30.1278 72.474 29.9965 72.5282C29.8651 72.5824 29.7181 72.6017 29.5741 72.5835C29.4301 72.5654 29.2956 72.5106 29.1875 72.4262C29.0794 72.3418 29.0025 72.2314 28.9667 72.1092C28.9308 71.9869 28.9376 71.8581 28.986 71.7392C29.0345 71.6202 29.1226 71.5164 29.2391 71.4408C29.3556 71.3652 29.4953 71.3213 29.6406 71.3145C29.7373 71.31 29.8341 71.3221 29.9254 71.3501C30.0167 71.3781 30.1007 71.4214 30.1727 71.4776C30.2446 71.5338 30.3031 71.6017 30.3447 71.6775C30.3863 71.7534 30.4103 71.8356 30.4152 71.9194V71.9194Z" fill="white"/>
<g opacity="0.3">
<path opacity="0.3" d="M86.1446 36.446C85.0833 38.2125 84.0048 40.2275 84.7238 42.1164C85.0619 42.9811 85.7466 43.7085 86.2645 44.5026C87.8565 46.9407 87.8008 49.8984 87.7067 52.6965C87.6767 53.4907 87.5997 54.3813 86.9107 54.9008C86.3415 55.3239 85.5326 55.3721 84.7709 55.3944L75.7408 55.695V69.4813L92.4913 66.2676L91.7082 45.653L91.2802 42.1758L89.5897 36.2382L86.1446 36.446Z" fill="black"/>
</g>
<path d="M71.7865 147.921L72.36 159.551L79.6011 159.41L79.0576 147.757L71.7865 147.921Z" fill="#FF725E"/>
<path d="M75.9164 159.043C75.9763 159.043 75.8607 156.493 75.6639 153.354C75.467 150.214 75.2359 147.672 75.1931 147.676C75.1503 147.679 75.2445 150.225 75.4456 153.365C75.6468 156.504 75.8394 159.046 75.9164 159.043Z" fill="#263238"/>
<path d="M72.3171 158.749L79.5626 158.59L79.6011 159.41L72.3599 159.551L72.3171 158.749Z" fill="#E0E0E0"/>
<path d="M79.4257 155.688C79.4257 155.688 79.37 155.588 79.2288 155.439C78.7152 154.918 78.0712 154.506 77.3458 154.233C76.8071 154.029 76.2208 153.938 75.6339 153.966C75.1042 153.985 74.5847 154.099 74.1087 154.302C73.6327 154.504 73.2106 154.79 72.8693 155.142C72.6666 155.354 72.5008 155.59 72.3771 155.844C72.3223 155.934 72.2874 156.032 72.2744 156.133C72.4831 155.815 72.7206 155.513 72.9848 155.228C73.6741 154.58 74.631 154.194 75.6468 154.155C76.6622 154.141 77.6522 154.43 78.4499 154.975C79.0833 155.376 79.4 155.71 79.4257 155.688Z" fill="#263238"/>
<g opacity="0.3">
<path opacity="0.3" d="M79.2116 151.075L79.2715 152.355L72.0133 152.467L71.9619 151.502L79.2116 151.075Z" fill="black"/>
</g>
<path d="M54.27 148.225L54.6337 155.499C54.6337 155.499 46.2243 158.263 46.1387 159.614L62.4355 159.51L62.4056 148.151L54.27 148.225Z" fill="#FF725E"/>
<path d="M59.5767 154.883C59.7343 154.924 59.8688 155.014 59.9548 155.136C60.0408 155.258 60.0723 155.403 60.0432 155.543C60.0025 155.681 59.9021 155.801 59.7627 155.877C59.6233 155.953 59.4556 155.98 59.2942 155.951C59.126 155.909 58.9823 155.813 58.8912 155.683C58.8001 155.554 58.7683 155.399 58.8021 155.25C58.8612 155.109 58.9816 154.993 59.1375 154.928C59.2934 154.863 59.4725 154.853 59.6366 154.901" fill="#E0E0E0"/>
<path d="M62.4355 159.51V158.371L46.6651 158.89C46.6651 158.89 45.9375 159.169 46.0231 159.614L62.4355 159.51Z" fill="#E0E0E0"/>
<path d="M54.484 155.547C54.484 155.617 54.9119 155.647 55.2843 155.866C55.6566 156.085 55.892 156.378 55.969 156.352C56.046 156.326 55.9176 155.922 55.434 155.662C54.9504 155.402 54.4668 155.499 54.484 155.547Z" fill="#263238"/>
<path d="M52.7678 156.174C52.7678 156.244 53.0974 156.36 53.3713 156.653C53.6451 156.946 53.7307 157.254 53.7992 157.25C53.8677 157.246 53.9276 156.853 53.5767 156.508C53.2257 156.163 52.7678 156.111 52.7678 156.174Z" fill="#263238"/>
<path d="M51.805 157.97C51.8777 157.97 51.989 157.636 51.7793 157.254C51.5696 156.872 51.193 156.727 51.1587 156.786C51.1245 156.846 51.3599 157.046 51.5268 157.358C51.6937 157.67 51.7279 157.963 51.805 157.97Z" fill="#263238"/>
<path d="M54.6166 153.869C54.6509 153.932 55.0147 153.832 55.4726 153.869C55.9305 153.907 56.2814 154.014 56.3285 153.955C56.3756 153.895 56.0289 153.65 55.494 153.628C54.959 153.606 54.5739 153.814 54.6166 153.869Z" fill="#263238"/>
<path d="M54.3085 152.303C54.577 152.37 54.8616 152.37 55.1302 152.303C55.4257 152.257 55.7133 152.179 55.9861 152.07C56.1486 152.006 56.3059 151.933 56.4568 151.851C56.5476 151.805 56.6298 151.747 56.7008 151.68C56.7544 151.631 56.7871 151.567 56.7933 151.5C56.7995 151.432 56.779 151.365 56.735 151.309C56.6957 151.26 56.6432 151.22 56.5821 151.192C56.521 151.164 56.4531 151.149 56.3841 151.149C56.2798 151.151 56.1763 151.165 56.076 151.19C55.9009 151.228 55.7304 151.28 55.5667 151.346C55.2898 151.456 55.0343 151.602 54.8092 151.78C54.4326 152.088 54.3042 152.352 54.3341 152.363C54.3641 152.374 54.5524 152.166 54.9376 151.914C55.1606 151.761 55.4069 151.636 55.6694 151.543C55.8263 151.489 55.988 151.447 56.153 151.416C56.3242 151.376 56.474 151.372 56.5168 151.439C56.5596 151.506 56.5168 151.476 56.5168 151.52C56.4647 151.569 56.404 151.61 56.337 151.643C56.1995 151.723 56.0566 151.796 55.9091 151.862C55.6551 151.973 55.3901 152.063 55.1173 152.133C54.8432 152.172 54.5729 152.229 54.3085 152.303V152.303Z" fill="#263238"/>
<path d="M54.4154 152.404C54.5658 152.198 54.6391 151.957 54.6251 151.713C54.638 151.45 54.5974 151.186 54.5053 150.934C54.4523 150.783 54.3805 150.637 54.2913 150.5C54.249 150.403 54.1781 150.318 54.0857 150.253C53.9932 150.188 53.8826 150.145 53.7649 150.129C53.6919 150.131 53.6211 150.151 53.5606 150.186C53.5 150.222 53.4522 150.271 53.4225 150.329C53.3836 150.414 53.3563 150.502 53.3412 150.593C53.3155 150.751 53.3155 150.913 53.3412 151.071C53.3877 151.341 53.5113 151.596 53.7007 151.814C54.0217 152.185 54.3598 152.263 54.3641 152.237C54.3683 152.211 54.1116 152.07 53.8633 151.717C53.7128 151.515 53.6176 151.285 53.5852 151.045C53.5639 150.909 53.5639 150.77 53.5852 150.633C53.6108 150.481 53.675 150.359 53.7392 150.374C53.8034 150.389 53.9618 150.485 54.0302 150.608C54.1124 150.725 54.1812 150.849 54.2357 150.979C54.3309 151.207 54.3871 151.445 54.4026 151.687C54.4411 152.133 54.3726 152.392 54.4154 152.404Z" fill="#263238"/>
<g opacity="0.3">
<path opacity="0.3" d="M62.4397 152.515L62.4226 154.129H54.5652V153.242L62.4397 152.515Z" fill="black"/>
</g>
<path d="M86.8381 37.5779C86.654 37.5779 86.179 39.1884 85.9436 39.9974C85.859 40.2938 85.9079 40.6071 86.0806 40.8732L87.9679 43.7715C88.321 44.307 88.8321 44.7515 89.4486 45.0592L90.3944 45.5231L90.5186 47.245L95.8296 47.3192L94.2119 41.942L93.5357 38.6652C93.4456 38.5045 93.3123 38.365 93.1469 38.2584C92.9815 38.1518 92.789 38.0813 92.5856 38.0529L92.0849 37.9898L91.8966 37.5741C91.8423 37.4561 91.754 37.3522 91.6401 37.2723C91.5262 37.1924 91.3905 37.1391 91.2461 37.1177L90.9337 37.0843L90.5057 36.1528C90.436 36.0051 90.3176 35.8785 90.1654 35.7887C90.0132 35.699 89.8338 35.6501 89.6498 35.6481L87.082 35.6778C87.082 35.6778 86.5171 36.3384 87.8138 36.6501C88.1727 36.7383 88.5451 36.7784 88.918 36.7689L89.5171 38.7765C89.5171 38.7765 89.9451 40.8844 88.8024 40.8844C87.801 40.8844 87.7068 39.7488 87.7068 39.7488C87.7068 39.7488 88.1476 37.4517 86.8381 37.5779Z" fill="#FFBE9D"/>
<path d="M92.1019 39.5892C92.08 39.4477 92.0471 39.3076 92.0035 39.1699C91.8684 38.843 91.6146 38.563 91.2802 38.372C91.1024 38.0541 90.9688 37.719 90.8822 37.3738C90.834 37.2331 90.8152 37.086 90.8266 36.9396C90.8266 36.9396 90.8608 37.1029 90.9422 37.3589C91.048 37.6894 91.1839 38.012 91.3487 38.3238L91.6098 38.5093C91.6892 38.5747 91.7609 38.6468 91.8238 38.7246C91.932 38.8548 92.0131 39.0005 92.0634 39.155C92.0973 39.2576 92.1146 39.3638 92.1148 39.4705C92.1187 39.5104 92.1144 39.5506 92.1019 39.5892V39.5892Z" fill="#EB996E"/>
<path d="M92.9194 39.1995C92.9079 39.1269 92.8818 39.0566 92.8424 38.9917C92.7927 38.9141 92.7218 38.8482 92.6361 38.7997C92.5503 38.7512 92.4522 38.7216 92.3502 38.7134H92.3203V38.6911L92.2903 38.6206C92.1631 38.3499 92.0615 38.0706 91.9865 37.7856C92.1445 38.0431 92.2748 38.3127 92.3759 38.5909L92.4059 38.6651L92.3673 38.6392C92.4832 38.6486 92.5942 38.6845 92.6889 38.7431C92.7836 38.8018 92.8587 38.8812 92.9066 38.9732C92.9579 39.1068 92.9323 39.207 92.9194 39.1995Z" fill="#EB996E"/>
<path d="M88.8622 36.7763C88.8408 36.7763 88.7424 36.6761 88.768 36.5202C88.7937 36.3644 88.8793 36.2679 88.9007 36.279C88.9221 36.2901 88.875 36.394 88.8579 36.5276C88.8408 36.6612 88.8836 36.7651 88.8622 36.7763Z" fill="#EB996E"/>
<path d="M61.6567 57.6543L71.2858 57.5504L70.2116 50.4365C70.2116 50.4365 70.8707 50.314 70.9135 47.2227C70.9563 44.1315 71.1232 38.8693 71.1232 38.8693C69.0944 38.114 66.8699 37.8417 64.6793 38.0804C62.4886 38.3192 60.4111 39.0603 58.6609 40.2275L58.1345 40.5986L61.6567 57.6543Z" fill="#FFBE9D"/>
<path d="M59.2515 44.3875C59.1916 44.3653 56.7993 43.7567 56.8763 45.8719C56.9534 47.9872 59.3885 47.4825 59.3885 47.4231C59.3885 47.3638 59.2515 44.3875 59.2515 44.3875Z" fill="#FFBE9D"/>
<path d="M70.7037 43.9459C70.7637 43.9236 72.9377 43.4152 72.8436 45.5305C72.7494 47.6458 70.3314 47.1411 70.3314 47.078C70.3314 47.0149 70.7037 43.9459 70.7037 43.9459Z" fill="#FFBE9D"/>
<path d="M73.4469 37.8339C73.4713 37.6419 73.4393 37.4477 73.3541 37.2693C73.2688 37.0909 73.1329 36.9341 72.959 36.8134C72.7797 36.6989 72.559 36.6438 72.3369 36.6581C72.1147 36.6723 71.9058 36.7551 71.7479 36.8913C71.7813 36.762 71.783 36.6281 71.753 36.4982C71.7229 36.3683 71.6617 36.2453 71.5734 36.1372C71.485 36.0291 71.3715 35.9383 71.2401 35.8707C71.1087 35.8031 70.9624 35.7601 70.8107 35.7446C70.2286 35.7149 69.7322 36.0934 69.1716 36.227C68.6106 36.3315 68.0255 36.2728 67.5068 36.06C66.9761 35.8782 66.484 35.6221 65.949 35.4551C64.8194 35.0958 63.5718 35.1384 62.4782 35.5736C61.3847 36.0088 60.534 36.8013 60.1116 37.7782C59.7145 37.6948 59.2976 37.7175 58.9157 37.8433C58.5338 37.9692 58.2047 38.1923 57.9718 38.4833C57.5182 39.082 57.3367 39.8053 57.4625 40.5132C57.5472 40.9879 57.6907 41.4532 57.8905 41.9012C57.8905 41.942 57.8905 41.9791 57.8905 42.0199C57.9247 43.7195 58.9475 49.0968 59.7863 49.1079C61.2457 49.1265 60.0987 43.367 60.0987 43.367C61.8876 42.7658 61.22 40.439 61.6694 40.0865C62.1187 39.7339 63.0517 38.9138 66.8049 40.5763C68.2 41.1163 69.7557 41.2617 71.2515 40.992H71.3456H71.367C71.367 40.992 71.3884 40.992 71.4013 40.992C71.7411 40.9123 72.0646 40.7871 72.3599 40.6209C72.7107 40.4471 72.9882 40.1805 73.1516 39.8601C73.2299 39.6989 73.2522 39.5213 73.2157 39.3492C73.1792 39.1772 73.0855 39.0181 72.9462 38.8915C73.2282 38.5887 73.4022 38.2212 73.4469 37.8339V37.8339Z" fill="#263238"/>
<path d="M58.4597 44.1686C58.8235 45.9424 58.7507 46.8739 59.0888 48.0577C59.6238 49.9132 60.698 51.3679 62.6409 52.3031C64.5839 53.2383 67.2201 53.2197 68.8935 51.932C70.0532 51.0488 70.8749 50.0505 71.0333 48.7183C71.1916 47.386 71.3799 45.0333 71.3928 43.6936C71.3928 41.2777 71.5982 38.9695 71.5982 38.9695L63.6381 37.7189L59.1102 40.0531L58.4597 44.1686Z" fill="#263238"/>
<path d="M66.6682 53.3533C66.2228 53.4981 65.7402 53.534 65.273 53.4572C64.7968 53.4434 64.3345 53.3149 63.9377 53.0861C63.9634 53.0342 64.5497 53.1938 65.2987 53.2643C66.0476 53.3348 66.6596 53.294 66.6682 53.3533Z" fill="#263238"/>
<path d="M68.7352 37.4072C68.6143 37.4451 68.487 37.4652 68.3586 37.4665C68.0047 37.4692 67.6554 37.3979 67.34 37.2587C66.8826 37.0519 66.4522 36.803 66.0561 36.5165C65.5743 36.167 64.9937 35.9352 64.3742 35.8448C63.7525 35.7714 63.1199 35.8674 62.5639 36.1194C62.1121 36.3305 61.7316 36.64 61.4598 37.0175C61.2117 37.3671 61.05 37.7576 60.9847 38.1642C60.9858 38.0533 60.9987 37.9427 61.0233 37.8339C61.0934 37.5351 61.2223 37.2489 61.4041 36.9878C61.677 36.5973 62.0637 36.276 62.5254 36.0563C63.0956 35.7931 63.7473 35.6931 64.3871 35.7706C65.0202 35.8593 65.6127 36.0982 66.0989 36.4608C66.4983 36.7435 66.9282 36.9921 67.3828 37.203C67.6881 37.343 68.0262 37.4205 68.3714 37.4294C68.6025 37.4368 68.7352 37.396 68.7352 37.4072Z" fill="#455A64"/>
<path d="M61.0917 38.2755C60.9092 38.1982 60.7186 38.1361 60.5225 38.09C60.042 37.9965 59.5384 38.0656 59.1145 38.283C58.7009 38.5134 58.4064 38.8739 58.2928 39.2886C58.253 39.4622 58.2315 39.6386 58.2286 39.8156C58.2115 39.7701 58.2028 39.7225 58.203 39.6746C58.1896 39.5417 58.1997 39.4078 58.2329 39.2775C58.2792 39.0599 58.3774 38.8532 58.5212 38.6704C58.6651 38.4877 58.8513 38.333 59.0681 38.2163C59.2848 38.0996 59.5273 38.0235 59.78 37.9928C60.0327 37.9621 60.29 37.9775 60.5354 38.038C60.6853 38.0717 60.8293 38.1229 60.9633 38.1902C61.0114 38.2121 61.0549 38.2409 61.0917 38.2755Z" fill="#455A64"/>
<path d="M60.8607 45.82C60.3515 45.1339 59.9702 44.3825 59.7308 43.5934C60.24 44.2795 60.6213 45.0309 60.8607 45.82Z" fill="#455A64"/>
<path d="M62.9448 47.0335C62.4713 46.8067 62.08 46.4701 61.8149 46.0612C61.4897 45.6861 61.2898 45.2406 61.2372 44.7735C61.3014 44.7735 61.5325 45.3339 62.0032 45.9536C62.474 46.5733 63.0004 46.9927 62.9448 47.0335Z" fill="#455A64"/>
<path d="M64.999 47.4269C64.6371 47.3312 64.3098 47.1561 64.0489 46.9185C63.5782 46.5474 63.2915 46.2022 63.3385 46.1763C63.3856 46.1503 63.7408 46.436 64.1945 46.7774C64.6481 47.1189 65.0333 47.3786 64.999 47.4269Z" fill="#455A64"/>
<path d="M68.6324 44.5582C68.6873 44.9202 68.6126 45.2882 68.4184 45.6121C68.2903 45.9602 68.0442 46.2667 67.7123 46.4917C67.857 46.1653 68.0242 45.8468 68.213 45.5379C68.3324 45.2051 68.4724 44.878 68.6324 44.5582V44.5582Z" fill="#455A64"/>
<path d="M69.8478 42.8883C69.9427 43.3229 69.8938 43.772 69.7066 44.1834C69.5978 44.6132 69.3499 45.0072 68.9919 45.319C68.9405 45.2856 69.2829 44.7958 69.5225 44.1278C69.7622 43.4598 69.8007 42.8883 69.8478 42.8883Z" fill="#455A64"/>
<path d="M70.8108 38.6021C70.718 38.686 70.6113 38.7573 70.4941 38.8136C70.1736 38.9749 69.8152 39.0713 69.4456 39.0957C68.8974 39.1286 68.3477 39.0551 67.8365 38.8804C67.2208 38.6637 66.6255 38.4056 66.0561 38.1086C65.4886 37.8171 64.8801 37.5902 64.2459 37.4332C63.7262 37.3093 63.1777 37.3093 62.6581 37.4332C62.3097 37.5182 61.9908 37.6763 61.7294 37.8933C61.5497 38.0529 61.4812 38.1642 61.4727 38.1568C61.5323 38.0529 61.6102 37.9578 61.7038 37.8748C61.9605 37.6415 62.2839 37.4712 62.641 37.3812C63.1686 37.2434 63.7299 37.2344 64.263 37.3552C64.9075 37.5087 65.5251 37.7371 66.0989 38.0343C66.6654 38.329 67.2561 38.587 67.8664 38.8062C68.3655 38.9821 68.9035 39.0594 69.4413 39.0326C69.9375 39.0125 70.415 38.8624 70.8108 38.6021V38.6021Z" fill="#455A64"/>
<path d="M71.5169 39.6152C71.4782 39.6449 71.435 39.6698 71.3885 39.6894C71.2655 39.7505 71.1383 39.805 71.0076 39.8527C70.1413 40.17 69.1824 40.2452 68.2644 40.0679C68.1196 40.0434 67.9767 40.0112 67.8364 39.9715C67.7423 39.9418 67.6909 39.9232 67.6952 39.9158C67.6995 39.9084 67.9092 39.9603 68.2558 40.016C68.7091 40.0856 69.171 40.103 69.6296 40.0679C70.0861 40.0292 70.5349 39.9394 70.9648 39.8007C71.3158 39.6931 71.5126 39.6041 71.5169 39.6152Z" fill="#455A64"/>
<path d="M67.0833 103.552L69.4242 123.131L71.1061 152.619H80.0805L80.3244 89.8621L54.6295 91.4504L49.3057 124.378L53.9191 153.198H63.7665L61.4598 125.792L67.0833 103.552Z" fill="#263238"/>
<path d="M67.0831 103.545C66.5553 104.085 65.9708 104.582 65.337 105.029C64.7533 105.528 64.1187 105.98 63.4412 106.38C63.9711 105.841 64.5554 105.344 65.1873 104.895C65.7702 104.396 66.4048 103.944 67.0831 103.545V103.545Z" fill="#455A64"/>
<path d="M67.0575 103.174C67.0192 102.336 67.0349 101.497 67.1046 100.661C67.1049 99.8229 67.1606 98.9853 67.2715 98.1525C67.3861 98.9875 67.4047 99.8304 67.3271 100.669C67.3298 101.509 67.2395 102.348 67.0575 103.174V103.174Z" fill="#455A64"/>
<path d="M70.0233 95.8517C70.0717 95.8471 70.1204 95.8471 70.1688 95.8517L70.5968 95.8294L72.3086 95.7589L78.3943 95.5363H78.497V95.629C78.497 97.273 78.497 99.1359 78.497 101.106V101.277L78.4242 101.299L74.4698 102.676H74.4313H74.3928L70.8963 101.622H70.8407V101.574C70.5839 99.8633 70.3742 98.4382 70.2202 97.4177C70.1517 96.9427 70.1003 96.5605 70.0575 96.2747C70.0147 95.989 70.0105 95.8814 70.0147 95.8851C70.0277 95.9215 70.0377 95.9587 70.0447 95.9964C70.0447 96.0818 70.0789 96.182 70.1046 96.3044C70.156 96.5939 70.2287 96.9798 70.3143 97.4623C70.4898 98.4679 70.7423 99.867 71.0247 101.544L70.9648 101.478L74.4698 102.509H74.3971L78.3515 101.125L78.283 101.214V101.11C78.283 99.1396 78.283 97.2767 78.283 95.6327L78.3857 95.7181L72.3685 95.848L70.6567 95.8739H70.0233V95.8517Z" fill="#455A64"/>
<path d="M57.0688 95.9482C57.1128 95.9432 57.1574 95.9432 57.2015 95.9482H57.5995L59.1401 95.9036L64.7037 95.7923H64.8064V95.8814C64.7465 97.5068 64.678 99.3808 64.6052 101.374V101.426L64.5581 101.452L63.9162 101.823L60.6637 103.678L60.608 103.712L60.5481 103.678L56.8591 101.689L56.812 101.663V101.619C56.8805 99.9115 56.9404 98.4902 56.9789 97.4697C57.0046 96.9947 57.026 96.6124 57.0388 96.3304C57.0404 96.2001 57.0504 96.07 57.0688 95.9407C57.0752 95.9776 57.0752 96.0152 57.0688 96.0521V96.3601C57.0688 96.6495 57.0688 97.0355 57.0688 97.5216C57.0688 98.5273 57.026 99.9338 57.0003 101.604L56.9532 101.533L60.6337 103.444H60.5182L63.7707 101.589L64.4126 101.218L64.3613 101.296C64.4469 99.2992 64.5239 97.4251 64.5924 95.7997L64.6908 95.8888L59.2 95.9148H57.2229L57.0688 95.9482Z" fill="#455A64"/>
<path d="M77.5512 104.817C77.1458 104.84 76.7388 104.829 76.3358 104.784C75.5869 104.736 74.5555 104.647 73.4171 104.521C72.2787 104.394 71.2559 104.25 70.5198 104.131C70.1164 104.087 69.7193 104.007 69.3344 103.893C69.7392 103.898 70.1429 103.931 70.5412 103.994L73.4471 104.328L76.3529 104.647C76.7572 104.675 77.158 104.732 77.5512 104.817V104.817Z" fill="#455A64"/>
<path d="M77.3415 126.642C77.3415 126.642 77.3072 126.757 77.1318 126.89C76.8708 127.071 76.5454 127.167 76.2117 127.161C75.7202 127.147 75.2484 126.991 74.8721 126.716C74.4278 126.392 74.0195 126.033 73.6524 125.644C72.9666 124.953 72.3577 124.207 71.8336 123.417C71.5998 123.101 71.4088 122.762 71.2644 122.408C71.5186 122.709 71.753 123.022 71.9663 123.346C72.5262 124.104 73.1453 124.826 73.8193 125.51C74.1792 125.89 74.5742 126.244 75.0005 126.568C75.3384 126.828 75.7652 126.986 76.2159 127.017C76.5176 127.032 76.8173 126.965 77.0719 126.824C77.2559 126.723 77.3286 126.634 77.3415 126.642Z" fill="#455A64"/>
<path d="M59.6196 127.332C59.6196 127.332 59.6196 127.432 59.4998 127.581C59.3412 127.791 59.1288 127.966 58.8792 128.093C58.5053 128.281 58.0791 128.377 57.6467 128.371C57.1193 128.355 56.6072 128.214 56.1659 127.963C55.3892 127.495 54.7727 126.854 54.3813 126.107C54.1958 125.818 54.052 125.51 53.9534 125.191C54.1718 125.462 54.3664 125.748 54.5354 126.044C54.9547 126.739 55.5592 127.337 56.2986 127.788C56.7085 128.022 57.1825 128.158 57.6724 128.182C58.0699 128.194 58.4646 128.119 58.8193 127.963C59.1338 127.803 59.4064 127.588 59.6196 127.332Z" fill="#455A64"/>
<path d="M60.193 124.378C59.9776 124.542 59.7277 124.668 59.4569 124.749C58.817 124.975 58.136 125.101 57.4455 125.12C56.7524 125.147 56.0595 125.065 55.3998 124.879C55.1221 124.819 54.8613 124.711 54.6338 124.56C55.5387 124.81 56.4831 124.935 57.4327 124.931C58.3798 124.869 59.3107 124.683 60.193 124.378V124.378Z" fill="#455A64"/>
<path d="M89.3972 55.2719H76.3144C76.3144 55.2719 74.534 54.385 73.6781 54.5297C73.0475 54.7037 72.4886 55.0324 72.069 55.476L73.8022 67.9747L78.0391 65.2582L93.8138 63.8369C94.4898 63.8306 95.1573 63.7061 95.7765 63.4708C96.3957 63.2355 96.9537 62.8943 97.4172 62.4676V62.4676C97.9205 62.004 98.3004 61.4504 98.5304 60.8458C98.7603 60.2412 98.8347 59.6003 98.7482 58.9681L95.8295 45.5231L89.838 45.6975L89.5983 49.108L89.3972 55.2719Z" fill="#455A64"/>
<path d="M53.3798 58.4225C51.9744 59.1768 50.8714 60.2887 50.2215 61.6066C49.4597 63.1949 44.23 71.129 41.4996 75.2779C41.014 76.0127 40.8153 76.8639 40.9333 77.7046C41.0513 78.5453 41.4797 79.3303 42.1544 79.9426V79.9426C43.8234 81.453 46.6223 81.8686 49.0574 81.1821C50.1487 80.8741 54.5182 77.7977 54.5182 77.7977L53.3798 58.4225Z" fill="#455A64"/>
<path d="M55.6565 86.7709L52.6565 64.3899L53.3798 58.4226L61.0189 55.6022L70.9091 55.0381L80.3286 55.9399L78.1246 78.8962L80.534 91.8438L54.1544 92.8755L55.6565 86.7709Z" fill="#455A64"/>
<path d="M55.6438 86.6744C55.5839 86.6744 54.8649 81.6979 54.0389 75.5414C53.213 69.3848 52.5967 64.4084 52.6566 64.3861C52.7165 64.3639 53.4355 69.3663 54.2615 75.5191C55.0874 81.672 55.7251 86.667 55.6438 86.6744Z" fill="#263238"/>
<path d="M80.119 60.9608C80.1312 61.0284 80.1312 61.0973 80.119 61.1649C80.119 61.3171 80.0847 61.5063 80.0591 61.7401C79.9949 62.2634 79.9136 62.9796 79.8108 63.848C79.6011 65.6552 79.3187 68.1045 79.0063 70.8135C78.6939 73.5225 78.4628 76.0089 78.3087 77.7828C78.2359 78.6549 78.176 79.3711 78.1332 79.898C78.1332 80.1318 78.0947 80.3211 78.0819 80.4732C78.0797 80.541 78.0682 80.6083 78.0476 80.6736C78.0367 80.6072 78.0367 80.5397 78.0476 80.4732C78.0476 80.3174 78.0476 80.1281 78.0476 79.8943C78.0476 79.3933 78.099 78.6697 78.1503 77.7754C78.2659 75.9866 78.4842 73.5151 78.7837 70.795C79.0833 68.0748 79.4043 65.5996 79.6397 63.8331C79.768 62.9462 79.875 62.2263 79.9606 61.729C79.9992 61.4989 80.0334 61.3096 80.0591 61.1575C80.0685 61.0899 80.0887 61.0237 80.119 60.9608V60.9608Z" fill="#263238"/>
<path d="M75.5954 83.2454C75.4661 83.402 75.323 83.5496 75.1674 83.687C75.0011 83.8587 74.8224 84.021 74.6324 84.1731C74.4099 84.3513 74.1702 84.5665 73.8707 84.7669C73.5549 85.0014 73.2233 85.2195 72.8778 85.42C72.4876 85.6583 72.0833 85.8788 71.6667 86.0806C69.747 87.006 67.6175 87.557 65.427 87.6949C64.922 87.6949 64.4469 87.7431 63.9976 87.7209C63.5826 87.7168 63.1682 87.692 62.7565 87.6466C62.4159 87.6157 62.0774 87.5698 61.7422 87.5093C61.4861 87.473 61.2331 87.4222 60.9847 87.3572C60.7698 87.3158 60.5593 87.2587 60.3556 87.1865C60.3556 87.1419 61.2714 87.3869 62.7693 87.5093C63.1789 87.5448 63.5902 87.5621 64.0018 87.5613C64.4298 87.5613 64.9134 87.539 65.4098 87.5168C67.5645 87.3597 69.6584 86.8177 71.5597 85.9247C71.9876 85.7058 72.4156 85.5128 72.7665 85.2902C73.1175 85.0675 73.4641 84.8634 73.7637 84.663C74.9577 83.8466 75.5568 83.2157 75.5954 83.2454Z" fill="#263238"/>
<g opacity="0.3">
<path opacity="0.3" d="M61.648 87.424C60.3641 87.1049 60.2914 86.0547 60.7921 85.6056C61.2928 85.1566 62.076 85.0972 62.8078 85.1863C63.5087 85.3356 64.2261 85.4189 64.9476 85.4349C66.1203 85.3681 67.0875 84.6593 67.9177 83.9246C68.748 83.1898 69.5054 82.3659 70.5754 81.9429C71.6453 81.5198 73.1431 81.672 73.6995 82.5663C73.8604 82.8599 73.933 83.184 73.9105 83.5084C73.8881 83.8328 73.7713 84.1471 73.5711 84.4218C73.1674 84.9711 72.6244 85.4331 71.9834 85.7726C70.4902 86.6559 68.8007 87.2591 67.0232 87.5435C65.2457 87.8279 63.4192 87.7872 61.6609 87.424" fill="black"/>
</g>
<g opacity="0.2">
<path opacity="0.2" d="M53.7393 72.606C53.5082 72.888 51.2785 75.5302 51.2785 75.5302C51.2186 75.7974 49.0574 78.2133 49.0574 78.2133C49.0574 78.2133 50.9789 77.2893 52.4554 76.6287C53.0794 76.308 53.6707 75.9418 54.2229 75.534C54.2229 75.534 53.8891 73.7156 53.7436 73.0365C53.414 71.5149 53.1915 68.0823 53.1915 68.0823" fill="black"/>
</g>
<path d="M77.2473 55.7283C77.952 55.9498 78.5534 56.3657 78.9592 56.9121C79.4289 57.4198 79.6949 58.0465 79.7167 58.6971C79.3152 57.4883 78.4405 56.4385 77.243 55.7283H77.2473Z" fill="#263238"/>
<path d="M53.7393 72.606C53.558 72.9251 53.3416 73.2283 53.0931 73.5114C52.6651 74.0532 52.0745 74.7954 51.4026 75.6082C50.0545 77.2261 48.9033 78.5213 48.8348 78.4471L49.5239 77.5824L51.2357 75.4968C51.9076 74.6841 52.5196 73.953 52.9775 73.4335C53.2022 73.1384 53.4572 72.8614 53.7393 72.606V72.606Z" fill="#263238"/>
</svg>
