<svg width="66" height="14" viewBox="0 0 66 14" fill="none" xmlns="http://www.w3.org/2000/svg">
<path d="M4.968 13C4.848 13 4.746 12.964 4.662 12.892C4.59 12.808 4.554 12.706 4.554 12.586V2.506L1.566 4.81C1.482 4.882 1.392 4.918 1.296 4.918C1.188 4.918 1.086 4.858 0.99 4.738L0.522 4.144C0.462 4.06 0.432 3.976 0.432 3.892C0.432 3.748 0.492 3.634 0.612 3.55L4.536 0.526C4.668 0.441999 4.824 0.399999 5.004 0.399999H5.922C6.042 0.399999 6.138 0.441999 6.21 0.526C6.294 0.597999 6.336 0.693999 6.336 0.813999V12.586C6.336 12.706 6.294 12.808 6.21 12.892C6.138 12.964 6.042 13 5.922 13H4.968ZM12.8112 13.18C11.5272 13.18 10.5192 12.82 9.78722 12.1C9.06722 11.368 8.68322 10.348 8.63522 9.04L8.61722 8.32L8.63522 7.6C8.68322 6.292 9.06722 5.278 9.78722 4.558C10.5192 3.826 11.5272 3.46 12.8112 3.46C13.6752 3.46 14.4072 3.616 15.0072 3.928C15.6072 4.24 16.0512 4.624 16.3392 5.08C16.6392 5.536 16.8012 5.992 16.8252 6.448C16.8372 6.568 16.8012 6.664 16.7172 6.736C16.6332 6.808 16.5312 6.844 16.4112 6.844H15.5472C15.4272 6.844 15.3372 6.82 15.2772 6.772C15.2172 6.724 15.1572 6.628 15.0972 6.484C14.8932 5.908 14.6052 5.5 14.2332 5.26C13.8612 5.008 13.3932 4.882 12.8292 4.882C12.0852 4.882 11.4912 5.116 11.0472 5.584C10.6152 6.04 10.3812 6.742 10.3452 7.69L10.3272 8.338L10.3452 8.95C10.3812 9.91 10.6152 10.618 11.0472 11.074C11.4792 11.53 12.0732 11.758 12.8292 11.758C13.3932 11.758 13.8612 11.638 14.2332 11.398C14.6052 11.146 14.8932 10.732 15.0972 10.156C15.1572 10.012 15.2172 9.916 15.2772 9.868C15.3372 9.808 15.4272 9.778 15.5472 9.778H16.4112C16.5312 9.778 16.6332 9.82 16.7172 9.904C16.8012 9.976 16.8372 10.072 16.8252 10.192C16.8012 10.636 16.6392 11.092 16.3392 11.56C16.0512 12.016 15.6072 12.4 15.0072 12.712C14.4192 13.024 13.6872 13.18 12.8112 13.18ZM24.023 13C23.903 13 23.801 12.964 23.717 12.892C23.645 12.808 23.609 12.706 23.609 12.586V0.831999C23.609 0.699999 23.645 0.597999 23.717 0.526C23.801 0.441999 23.903 0.399999 24.023 0.399999H28.955C30.239 0.399999 31.205 0.705999 31.853 1.318C32.501 1.93 32.825 2.734 32.825 3.73C32.825 4.402 32.669 4.96 32.357 5.404C32.057 5.848 31.697 6.172 31.277 6.376C31.781 6.628 32.207 7.018 32.555 7.546C32.903 8.074 33.077 8.68 33.077 9.364C33.077 10.036 32.921 10.648 32.609 11.2C32.309 11.752 31.859 12.19 31.259 12.514C30.659 12.838 29.939 13 29.099 13H24.023ZM28.685 5.728C29.441 5.728 30.017 5.554 30.413 5.206C30.821 4.858 31.025 4.372 31.025 3.748C31.025 3.136 30.827 2.668 30.431 2.344C30.035 2.02 29.453 1.858 28.685 1.858H25.373V5.728H28.685ZM28.865 11.542C29.621 11.542 30.209 11.338 30.629 10.93C31.061 10.522 31.277 10 31.277 9.364C31.277 8.704 31.061 8.176 30.629 7.78C30.209 7.372 29.621 7.168 28.865 7.168H25.373V11.542H28.865ZM35.6684 1.894C35.5484 1.894 35.4464 1.858 35.3624 1.786C35.2904 1.702 35.2544 1.6 35.2544 1.48V0.508C35.2544 0.387999 35.2904 0.285999 35.3624 0.202C35.4464 0.117999 35.5484 0.075999 35.6684 0.075999H36.8024C36.9224 0.075999 37.0244 0.117999 37.1084 0.202C37.1924 0.285999 37.2344 0.387999 37.2344 0.508V1.48C37.2344 1.6 37.1924 1.702 37.1084 1.786C37.0244 1.858 36.9224 1.894 36.8024 1.894H35.6684ZM35.8124 13C35.6924 13 35.5904 12.964 35.5064 12.892C35.4344 12.808 35.3984 12.706 35.3984 12.586V4.054C35.3984 3.934 35.4344 3.838 35.5064 3.766C35.5904 3.682 35.6924 3.64 35.8124 3.64H36.6764C36.7964 3.64 36.8924 3.682 36.9644 3.766C37.0484 3.838 37.0904 3.934 37.0904 4.054V12.586C37.0904 12.706 37.0484 12.808 36.9644 12.892C36.8924 12.964 36.7964 13 36.6764 13H35.8124ZM43.4118 13C41.5158 13 40.5678 11.944 40.5678 9.832V5.08H39.1638C39.0438 5.08 38.9418 5.044 38.8578 4.972C38.7858 4.888 38.7498 4.786 38.7498 4.666V4.054C38.7498 3.934 38.7858 3.838 38.8578 3.766C38.9418 3.682 39.0438 3.64 39.1638 3.64H40.5678V0.633999C40.5678 0.513999 40.6038 0.418 40.6758 0.346C40.7598 0.261999 40.8618 0.219999 40.9818 0.219999H41.8278C41.9478 0.219999 42.0438 0.261999 42.1158 0.346C42.1998 0.418 42.2418 0.513999 42.2418 0.633999V3.64H44.4738C44.5938 3.64 44.6898 3.682 44.7618 3.766C44.8458 3.838 44.8878 3.934 44.8878 4.054V4.666C44.8878 4.786 44.8458 4.888 44.7618 4.972C44.6898 5.044 44.5938 5.08 44.4738 5.08H42.2418V9.706C42.2418 10.306 42.3438 10.762 42.5478 11.074C42.7518 11.374 43.0878 11.524 43.5558 11.524H44.6538C44.7738 11.524 44.8698 11.566 44.9418 11.65C45.0258 11.722 45.0678 11.818 45.0678 11.938V12.586C45.0678 12.706 45.0258 12.808 44.9418 12.892C44.8698 12.964 44.7738 13 44.6538 13H43.4118ZM47.203 13C47.083 13 46.981 12.964 46.897 12.892C46.825 12.808 46.789 12.706 46.789 12.586V4.072C46.789 3.952 46.825 3.85 46.897 3.766C46.981 3.682 47.083 3.64 47.203 3.64H48.031C48.151 3.64 48.253 3.682 48.337 3.766C48.421 3.85 48.463 3.952 48.463 4.072V4.864C48.955 4.048 49.795 3.64 50.983 3.64H51.685C51.805 3.64 51.901 3.682 51.973 3.766C52.057 3.838 52.099 3.934 52.099 4.054V4.792C52.099 4.912 52.057 5.008 51.973 5.08C51.901 5.152 51.805 5.188 51.685 5.188H50.605C49.957 5.188 49.447 5.38 49.075 5.764C48.703 6.136 48.517 6.646 48.517 7.294V12.586C48.517 12.706 48.475 12.808 48.391 12.892C48.307 12.964 48.205 13 48.085 13H47.203ZM53.8969 1.894C53.7769 1.894 53.6749 1.858 53.5909 1.786C53.5189 1.702 53.4829 1.6 53.4829 1.48V0.508C53.4829 0.387999 53.5189 0.285999 53.5909 0.202C53.6749 0.117999 53.7769 0.075999 53.8969 0.075999H55.0309C55.1509 0.075999 55.2529 0.117999 55.3369 0.202C55.4209 0.285999 55.4629 0.387999 55.4629 0.508V1.48C55.4629 1.6 55.4209 1.702 55.3369 1.786C55.2529 1.858 55.1509 1.894 55.0309 1.894H53.8969ZM54.0409 13C53.9209 13 53.8189 12.964 53.7349 12.892C53.6629 12.808 53.6269 12.706 53.6269 12.586V4.054C53.6269 3.934 53.6629 3.838 53.7349 3.766C53.8189 3.682 53.9209 3.64 54.0409 3.64H54.9049C55.0249 3.64 55.1209 3.682 55.1929 3.766C55.2769 3.838 55.3189 3.934 55.3189 4.054V12.586C55.3189 12.706 55.2769 12.808 55.1929 12.892C55.1209 12.964 55.0249 13 54.9049 13H54.0409ZM57.5543 13C57.4583 13 57.3683 12.964 57.2843 12.892C57.2123 12.82 57.1763 12.73 57.1763 12.622C57.1763 12.514 57.2183 12.406 57.3023 12.298L60.4343 8.212L57.5003 4.342C57.4163 4.246 57.3743 4.138 57.3743 4.018C57.3743 3.91 57.4103 3.82 57.4823 3.748C57.5543 3.676 57.6443 3.64 57.7523 3.64H58.6703C58.8503 3.64 59.0063 3.736 59.1383 3.928L61.5323 7.042L63.9263 3.946C63.9983 3.85 64.0643 3.778 64.1243 3.73C64.1963 3.67 64.2863 3.64 64.3943 3.64H65.2763C65.3843 3.64 65.4743 3.676 65.5463 3.748C65.6183 3.82 65.6543 3.91 65.6543 4.018C65.6543 4.138 65.6123 4.246 65.5283 4.342L62.5583 8.248L65.6903 12.298C65.7743 12.406 65.8163 12.514 65.8163 12.622C65.8163 12.73 65.7803 12.82 65.7083 12.892C65.6363 12.964 65.5463 13 65.4383 13H64.4843C64.3043 13 64.1483 12.91 64.0163 12.73L61.4963 9.436L58.9403 12.73C58.8683 12.814 58.7963 12.88 58.7243 12.928C58.6643 12.976 58.5803 13 58.4723 13H57.5543Z" fill="#FF725E"/>
</svg>
