<svg width="200" height="160" viewBox="0 0 200 160" fill="none" xmlns="http://www.w3.org/2000/svg">
<path d="M35.0985 4.41003H32.9482V61.1735H35.0985V4.41003Z" fill="#E0E0E0"/>
<path d="M32.5937 4.84937H1.78349C1.76688 4.84937 1.75342 4.86589 1.75342 4.88628V61.2141C1.75342 61.2345 1.76688 61.251 1.78349 61.251H32.5937C32.6103 61.251 32.6237 61.2345 32.6237 61.2141V4.88628C32.6237 4.86589 32.6103 4.84937 32.5937 4.84937Z" fill="#F5F5F5"/>
<path d="M32.9482 61.6903H1.42528C1.42107 61.6903 1.41689 61.6892 1.41303 61.6871C1.40917 61.6851 1.40571 61.682 1.40288 61.6782C1.40004 61.6744 1.39789 61.6698 1.39657 61.6649C1.39525 61.66 1.39479 61.6548 1.39521 61.6497V4.42848C1.39473 4.42349 1.39517 4.41843 1.39651 4.41368C1.39785 4.40893 1.40005 4.40461 1.40295 4.40106C1.40584 4.3975 1.40936 4.3948 1.41322 4.39316C1.41709 4.39151 1.42122 4.39097 1.42528 4.39156H32.9482C32.9524 4.39104 32.9566 4.39161 32.9606 4.39324C32.9646 4.39486 32.9683 4.39749 32.9714 4.40098C32.9746 4.40446 32.977 4.4087 32.9787 4.41344C32.9804 4.41818 32.9813 4.4233 32.9813 4.42848V61.6497C32.9813 61.6604 32.9778 61.6708 32.9716 61.6784C32.9654 61.686 32.957 61.6903 32.9482 61.6903ZM2.14103 60.8227H32.2355C32.2442 60.8227 32.2527 60.8184 32.2589 60.8108C32.2651 60.8032 32.2685 60.7929 32.2685 60.7821V5.32556C32.2686 5.32038 32.2677 5.31526 32.266 5.31052C32.2643 5.30578 32.2618 5.30154 32.2587 5.29806C32.2556 5.29457 32.2519 5.29194 32.2479 5.29032C32.2439 5.28869 32.2397 5.28812 32.2355 5.28864H2.14103C2.13696 5.28805 2.13284 5.28859 2.12897 5.29024C2.1251 5.29188 2.12159 5.29458 2.11869 5.29814C2.1158 5.30169 2.1136 5.30601 2.11226 5.31076C2.11092 5.31551 2.11047 5.32057 2.11096 5.32556V60.771C2.10885 60.7769 2.10802 60.7833 2.10855 60.7897C2.10909 60.7961 2.11096 60.8022 2.114 60.8074C2.11703 60.8126 2.12112 60.8168 2.12586 60.8195C2.1306 60.8221 2.13583 60.8233 2.14103 60.8227Z" fill="#EBEBEB"/>
<path d="M29.5381 8.3269H4.88994C4.87333 8.3269 4.85986 8.34343 4.85986 8.36382V57.6959C4.85986 57.7163 4.87333 57.7328 4.88994 57.7328H29.5381C29.5547 57.7328 29.5682 57.7163 29.5682 57.6959V8.36382C29.5682 8.34343 29.5547 8.3269 29.5381 8.3269Z" fill="white"/>
<path d="M24.1068 22.3332H10.27C10.26 22.3332 10.252 22.3431 10.252 22.3553V42.272C10.252 42.2842 10.26 42.2942 10.27 42.2942H24.1068C24.1167 42.2942 24.1248 42.2842 24.1248 42.272V22.3553C24.1248 22.3431 24.1167 22.3332 24.1068 22.3332Z" fill="#EBEBEB"/>
<path d="M23.0273 39.8502C23.0454 39.9167 22.3597 40.2859 21.0575 40.0976C20.2545 39.9634 19.4922 39.5825 18.8411 38.9901C17.9555 38.1786 17.3434 36.9963 17.1209 35.6676C16.9925 34.8353 17.0468 33.9761 17.2783 33.1781C17.5098 32.3801 17.9101 31.6721 18.4381 31.1268C18.7351 30.8141 19.0726 30.5645 19.4366 30.3884C19.8349 30.2071 20.2633 30.1475 20.6846 30.2149C21.1476 30.2704 21.5845 30.5043 21.9327 30.8831C22.1274 31.108 22.2741 31.3883 22.3596 31.6994C22.4451 32.0104 22.4668 32.3424 22.4229 32.6662C22.328 33.2513 22.0886 33.7862 21.7372 34.1983C21.429 34.5744 21.0774 34.8929 20.6936 35.1433C19.928 35.6649 19.0751 35.9642 18.2005 36.0183C17.2757 36.0802 16.3551 35.8245 15.5421 35.2799C14.7044 34.706 14.0241 33.8402 13.5873 32.7917C13.1375 31.7179 13.0128 30.4829 13.2354 29.3068C13.4572 28.1679 13.9873 27.1553 14.7391 26.4346C15.1124 26.0791 15.5382 25.8159 15.9932 25.6594C16.4546 25.5082 16.9382 25.4892 17.4066 25.604C17.9007 25.7209 18.3503 26.0319 18.6877 26.49C19.0102 26.9619 19.1879 27.5575 19.19 28.1734C19.1937 28.734 19.0787 29.2861 18.8561 29.7756C18.6507 30.2187 18.3829 30.6137 18.0652 30.9422C17.4904 31.5343 16.8201 31.9709 16.0984 32.2232C15.4284 32.4647 14.7246 32.5313 14.0324 32.4189C13.386 32.3109 12.7686 32.0217 12.228 31.5735C11.765 31.1981 11.3724 30.706 11.0764 30.1299C10.7803 29.5539 10.5875 28.9071 10.5108 28.2325C10.4174 27.2132 10.6444 26.1886 11.1453 25.3677C11.4444 24.857 11.8523 24.4573 12.3242 24.2122C12.649 24.0609 12.8325 24.0646 12.8415 24.1052C12.8505 24.1458 12.6941 24.2455 12.4325 24.4744C12.0631 24.7919 11.7551 25.2053 11.5303 25.6852C11.1692 26.419 11.0367 27.2884 11.1574 28.1328C11.2488 28.6769 11.432 29.1915 11.6951 29.6436C11.9582 30.0956 12.2954 30.4751 12.6851 30.7576C13.1567 31.0975 13.6832 31.3067 14.2276 31.3705C14.7721 31.4343 15.3213 31.3511 15.8368 31.1268C16.4187 30.895 16.9552 30.518 17.4126 30.0193C17.6371 29.8029 17.8196 29.5281 17.947 29.2146C18.0744 28.9012 18.1436 28.5569 18.1494 28.2067C18.148 27.8866 18.0506 27.5783 17.8759 27.3407C17.7012 27.1031 17.4614 26.9527 17.2021 26.9183C16.902 26.852 16.5937 26.8696 16.2999 26.9699C15.989 27.0868 15.6984 27.2733 15.4428 27.52C14.9024 28.057 14.5235 28.8002 14.3662 29.6316C14.2062 30.4876 14.3001 31.3855 14.6308 32.1641C14.9688 32.9666 15.4918 33.6291 16.1345 34.0691C16.7624 34.492 17.473 34.695 18.1885 34.656C18.8942 34.619 19.584 34.3868 20.2064 33.9768C20.501 33.793 20.7725 33.558 21.0124 33.279C21.2117 33.0614 21.354 32.7763 21.4214 32.4595C21.4415 32.3417 21.4369 32.2196 21.408 32.1046C21.379 31.9897 21.3267 31.8856 21.256 31.8024C21.0701 31.5971 20.8368 31.4681 20.5884 31.4332C20.3251 31.3852 20.0564 31.413 19.8035 31.5144C19.5387 31.6296 19.2909 31.7967 19.0697 32.0091C18.652 32.4173 18.3291 32.9532 18.1333 33.5629C17.9375 34.1725 17.8756 34.8347 17.9539 35.483C18.1038 36.6017 18.5715 37.6192 19.2742 38.3551C19.8264 38.9179 20.4767 39.317 21.1748 39.5217C22.3116 39.8945 23.0183 39.7284 23.0273 39.8502Z" fill="#E0E0E0"/>
<path d="M196.117 9.0394H171.56V40.4668H196.117V9.0394Z" fill="#E0E0E0"/>
<path d="M194.454 9.0394H169.896V40.4668H194.454V9.0394Z" fill="#FAFAFA"/>
<path d="M194.464 40.4779H169.891V9.03204H194.464V40.4779ZM169.906 40.4557H194.449V9.0505H169.906V40.4557Z" fill="#E0E0E0"/>
<path d="M191.155 13.2664H173.198V36.2435H191.155V13.2664Z" fill="white"/>
<path d="M173.198 36.3948C173.072 36.6265 172.924 36.8385 172.756 37.0261C172.456 37.3953 172.065 37.901 171.614 38.4474C171.162 38.9938 170.747 39.4811 170.441 39.8244C170.286 40.0272 170.111 40.2058 169.92 40.356C170.048 40.1269 170.196 39.9163 170.362 39.7284C170.663 39.3592 171.054 38.8498 171.505 38.3034C171.956 37.7571 172.374 37.2697 172.681 36.9227C172.835 36.7206 173.008 36.5432 173.198 36.3948Z" fill="#E0E0E0"/>
<path d="M191.155 36.3394C191.343 36.4963 191.515 36.6783 191.67 36.8821C191.97 37.2328 192.382 37.7275 192.827 38.285C193.272 38.8424 193.669 39.3482 193.949 39.7247C194.113 39.9152 194.258 40.1282 194.382 40.3597C194.194 40.205 194.022 40.0242 193.868 39.8207C193.567 39.4515 193.155 38.9716 192.71 38.4142C192.265 37.8567 191.865 37.3473 191.585 36.9744C191.421 36.785 191.277 36.5718 191.155 36.3394Z" fill="#E0E0E0"/>
<path d="M191.104 13.3254C191.234 13.0961 191.383 12.8844 191.549 12.6942C191.85 12.325 192.238 11.8192 192.689 11.2729C193.14 10.7265 193.558 10.2392 193.862 9.89586C194.017 9.69405 194.192 9.51561 194.382 9.36426C194.255 9.59534 194.107 9.80723 193.94 9.99554C193.639 10.3647 193.251 10.8705 192.797 11.4168C192.343 11.9632 191.925 12.4616 191.624 12.7975C191.47 13 191.295 13.1774 191.104 13.3254Z" fill="#E0E0E0"/>
<path d="M173.15 13.3808C172.96 13.2251 172.786 13.0403 172.633 12.8308C172.332 12.4616 171.92 11.9854 171.478 11.4316C171.036 10.8779 170.636 10.3647 170.353 9.99187C170.19 9.79943 170.045 9.58522 169.92 9.35321C170.109 9.50744 170.282 9.68971 170.435 9.89589C170.735 10.2651 171.147 10.7413 171.595 11.2987C172.044 11.8562 172.438 12.3656 172.72 12.7422C172.882 12.9358 173.026 13.1499 173.15 13.3808Z" fill="#E0E0E0"/>
<path d="M191.104 36.2435C191.104 36.2435 191.104 36.2029 191.104 36.129C191.104 36.0552 191.104 35.9481 191.104 35.8115C191.104 35.5236 191.104 35.1064 191.104 34.5711C191.104 33.4821 191.104 31.8983 191.086 29.8864C191.086 25.8624 191.065 20.1292 191.05 13.2738L191.119 13.3587H173.217L173.295 13.2627C173.295 21.6945 173.295 29.5837 173.295 36.2398L173.226 36.1549L186.19 36.1992L189.832 36.2176H190.797H191.023H191.107H190.788H189.838L186.211 36.2398L173.201 36.2804H173.132V36.1992C173.132 29.5541 173.132 21.6539 173.132 13.2221V13.1224H173.217H191.119H191.191V13.2073C191.191 20.0923 191.167 25.844 191.158 29.8827C191.158 31.8836 191.158 33.4599 191.14 34.5453C191.14 35.0769 191.14 35.4867 191.14 35.7709C191.14 35.9038 191.14 36.0035 191.14 36.081C191.135 36.1372 191.123 36.192 191.104 36.2435Z" fill="#E0E0E0"/>
<path d="M185.171 21.0743H179.18V28.4282H185.171V21.0743Z" fill="#EBEBEB"/>
<path d="M196.117 51.4569H171.56V82.8843H196.117V51.4569Z" fill="#E0E0E0"/>
<path d="M194.454 51.4569H169.896V82.8843H194.454V51.4569Z" fill="#FAFAFA"/>
<path d="M194.464 82.8917H169.891V51.4458H194.464V82.8917ZM169.906 82.8917H194.449V51.4643H169.906V82.8917Z" fill="#E0E0E0"/>
<path d="M191.155 55.6802H173.198V78.6573H191.155V55.6802Z" fill="white"/>
<path d="M173.198 78.8087C173.072 79.0412 172.924 79.2543 172.756 79.4436C172.456 79.8128 172.065 80.3149 171.614 80.8612C171.162 81.4076 170.747 81.8949 170.441 82.2419C170.286 82.4444 170.111 82.6218 169.92 82.7698C170.049 82.5416 170.197 82.3311 170.362 82.1422C170.663 81.7731 171.054 81.2673 171.505 80.7173C171.956 80.1672 172.374 79.6836 172.681 79.3366C172.837 79.1371 173.01 78.96 173.198 78.8087Z" fill="#E0E0E0"/>
<path d="M191.155 78.7533C191.343 78.9101 191.515 79.0921 191.67 79.2959C191.97 79.6651 192.382 80.145 192.827 80.6988C193.272 81.2525 193.669 81.762 193.949 82.1385C194.114 82.3287 194.26 82.5432 194.382 82.7772C194.195 82.6203 194.022 82.4383 193.868 82.2345C193.567 81.8838 193.155 81.3854 192.71 80.8317C192.265 80.2779 191.865 79.7648 191.585 79.3882C191.421 79.1998 191.276 78.9864 191.155 78.7533Z" fill="#E0E0E0"/>
<path d="M191.104 55.7393C191.234 55.5099 191.383 55.2983 191.549 55.108C191.85 54.7388 192.238 54.2331 192.689 53.6867C193.14 53.1403 193.558 52.6567 193.862 52.3097C194.017 52.1079 194.192 51.9295 194.382 51.7781C194.256 52.0101 194.108 52.2221 193.94 52.4094C193.639 52.7786 193.251 53.2843 192.797 53.8307C192.343 54.3771 191.925 54.8681 191.624 55.2114C191.47 55.4138 191.295 55.5912 191.104 55.7393Z" fill="#E0E0E0"/>
<path d="M173.15 55.7984C172.961 55.6412 172.788 55.4579 172.633 55.252C172.332 54.9013 171.92 54.4066 171.478 53.8528C171.036 53.2991 170.636 52.7896 170.353 52.4131C170.19 52.2206 170.045 52.0064 169.92 51.7744C170.109 51.9286 170.282 52.1109 170.435 52.3171C170.735 52.6678 171.147 53.1662 171.595 53.7199C172.044 54.2737 172.438 54.7868 172.72 55.1634C172.883 55.3544 173.027 55.5674 173.15 55.7984Z" fill="#E0E0E0"/>
<path d="M191.104 78.6573C191.104 78.6573 191.104 78.6167 191.104 78.5465C191.104 78.4764 191.104 78.362 191.104 78.2254C191.104 77.9374 191.104 77.5239 191.104 76.985C191.104 75.8959 191.104 74.3122 191.086 72.3002C191.086 68.2763 191.065 62.5431 191.05 55.6876L191.119 55.7725H173.216L173.295 55.6765C173.295 64.1083 173.295 72.0012 173.295 78.6536L173.225 78.5687L186.19 78.613L189.832 78.6351H190.797H191.047H190.812H189.862L186.235 78.6573L173.225 78.7016H173.156V78.6167C173.156 71.9716 173.156 64.0714 173.156 55.6396V55.5399H173.24H191.143H191.215V55.6248C191.215 62.5098 191.191 68.2615 191.182 72.3002C191.182 74.3048 191.182 75.8811 191.164 76.9628C191.164 77.4944 191.164 77.9042 191.164 78.1884C191.164 78.3213 191.164 78.4247 191.164 78.4986C191.151 78.5552 191.131 78.6088 191.104 78.6573Z" fill="#E0E0E0"/>
<path d="M185.171 63.4918H179.18V70.8457H185.171V63.4918Z" fill="#EBEBEB"/>
<path d="M137.904 30.7835C137.816 34.5088 136.83 38.1183 135.069 41.1548C133.309 44.1912 130.854 46.518 128.016 47.8405C125.177 49.1629 122.083 49.4215 119.124 48.5834C116.166 47.7453 113.477 45.8484 111.398 43.1328C109.318 40.4172 107.942 37.0051 107.444 33.3287C106.946 29.6524 107.347 25.8772 108.598 22.4812C109.849 19.0853 111.892 16.2215 114.47 14.2525C117.048 12.2835 120.044 11.2979 123.078 11.4205C127.136 11.5748 130.977 13.7015 133.758 17.3327C136.538 20.964 138.03 25.8023 137.904 30.7835Z" fill="#EBEBEB"/>
<path d="M134.677 30.8499C134.607 33.6856 133.853 36.432 132.511 38.7415C131.169 41.0511 129.299 42.8199 127.137 43.8242C124.976 44.8285 122.62 45.0232 120.369 44.3835C118.117 43.7438 116.071 42.2985 114.488 40.2306C112.906 38.1627 111.859 35.5651 111.48 32.7665C111.101 29.968 111.407 27.0942 112.358 24.509C113.31 21.9237 114.865 19.7432 116.827 18.2433C118.789 16.7435 121.069 15.9917 123.379 16.0831C124.911 16.1418 126.418 16.5704 127.815 17.3443C129.212 18.1182 130.471 19.2223 131.52 20.5936C132.569 21.9649 133.388 23.5764 133.93 25.3362C134.471 27.096 134.726 28.9696 134.677 30.8499Z" fill="#EBEBEB"/>
<path d="M134.26 30.6395C134.25 30.5625 134.245 30.4848 134.245 30.4069C134.245 30.2371 134.245 30.0119 134.224 29.7276C134.224 29.5763 134.224 29.4065 134.209 29.2256C134.194 29.0447 134.169 28.8564 134.148 28.6238C134.108 28.1262 134.039 27.6327 133.941 27.1472C133.699 25.8016 133.294 24.5084 132.738 23.3115C131.275 20.1394 128.882 17.7708 126.047 16.6878C123.212 15.6049 120.147 15.889 117.476 17.4823C117.226 17.6337 116.989 17.8109 116.742 17.977C116.494 18.1431 116.256 18.3306 116.029 18.5381C115.556 18.9356 115.106 19.3722 114.682 19.845C114.261 20.3439 113.869 20.8766 113.506 21.4398C112.757 22.5926 112.165 23.8866 111.753 25.2718C110.879 28.1389 110.796 31.2791 111.518 34.2094C111.856 35.6257 112.381 36.9649 113.07 38.1742C113.401 38.7665 113.765 39.3302 114.159 39.8613C114.558 40.3663 114.984 40.8387 115.434 41.2752C115.873 41.7044 116.336 42.0955 116.82 42.4455C119.4 44.2598 122.448 44.7926 125.338 43.9344C128.228 43.0762 130.74 40.8921 132.359 37.8309C132.976 36.6803 133.447 35.422 133.757 34.0986C133.882 33.6155 133.977 33.122 134.043 32.6219C134.076 32.4078 134.112 32.2122 134.136 32.0313C134.16 31.8504 134.163 31.6621 134.175 31.5329C134.2 31.2449 134.218 31.0197 134.233 30.8536C134.238 30.7767 134.247 30.7003 134.26 30.6247C134.266 30.702 134.266 30.78 134.26 30.8573C134.26 31.0234 134.242 31.2486 134.227 31.5366C134.227 31.6879 134.209 31.8577 134.2 32.0386C134.191 32.2195 134.148 32.4078 134.118 32.6404C134.059 33.1398 133.971 33.6333 133.854 34.1171C133.557 35.4694 133.091 36.7572 132.473 37.9343C131.58 39.6613 130.397 41.1348 129.003 42.2564C127.609 43.378 126.036 44.1221 124.39 44.439C122.309 44.8354 120.179 44.5423 118.222 43.5899C117.705 43.3375 117.202 43.0428 116.718 42.7076C116.224 42.3511 115.751 41.9539 115.301 41.5189C114.365 40.6329 113.552 39.5655 112.896 38.3588C112.19 37.1198 111.654 35.7483 111.308 34.298C110.572 31.3057 110.656 28.0997 111.548 25.1721C111.974 23.7569 112.583 22.4355 113.353 21.2589C113.724 20.6857 114.126 20.143 114.556 19.6346C114.99 19.1527 115.451 18.7063 115.933 18.2982C116.163 18.086 116.407 17.8959 116.661 17.7297C116.91 17.5598 117.157 17.3605 117.41 17.2239C117.914 16.9261 118.434 16.672 118.967 16.4634C120.97 15.6643 123.11 15.5369 125.166 16.0942C126.792 16.5418 128.322 17.4088 129.655 18.6379C130.987 19.8669 132.092 21.4298 132.894 23.2229C133.447 24.4374 133.843 25.7501 134.067 27.1139C134.162 27.6069 134.225 28.1079 134.257 28.6128C134.275 28.8306 134.299 29.0299 134.305 29.2182C134.311 29.4065 134.305 29.5689 134.305 29.7203C134.305 30.0082 134.305 30.2334 134.305 30.4032C134.298 30.4841 134.283 30.5635 134.26 30.6395Z" fill="#E0E0E0"/>
<path d="M123.686 38.776L123.65 41.2752L121.845 41.2346L121.881 38.8055C120.077 38.632 118.369 37.9047 117.385 36.9227L118.423 34.2241C119.452 35.1415 120.659 35.714 121.923 35.8854L121.974 32.1605C119.969 31.5144 117.728 30.6432 117.764 27.4536C117.8 25.0909 119.226 23.0937 122.101 22.754L122.137 20.2806L123.941 20.3175L123.905 22.7504C125.204 22.8656 126.461 23.3578 127.574 24.1864L126.627 26.9109C125.781 26.282 124.841 25.8665 123.863 25.6889L123.809 29.4803C125.818 30.1042 128.019 30.9791 127.974 34.1208C127.95 36.4576 126.543 38.4142 123.686 38.776ZM122.011 28.8822L122.056 25.7185C121.09 25.9658 120.699 26.6045 120.687 27.3391C120.675 28.0738 121.217 28.5537 122.011 28.8822ZM125.057 34.3238C125.057 33.5449 124.549 33.1092 123.773 32.7585L123.728 35.8337C124.639 35.6085 125.048 35.0363 125.057 34.3238Z" fill="#E0E0E0"/>
<path d="M137.134 47.6582C134.451 50.651 131.189 52.7505 127.657 53.7567C124.126 54.7629 120.444 54.6422 116.961 53.4061C111.172 51.3314 106.21 46.1113 103.909 39.2227C102.764 35.749 102.312 31.989 102.593 28.2574C102.874 24.5257 103.879 20.931 105.524 17.7739C108.862 11.3725 114.636 7.18248 120.789 6.45522C128.509 5.53968 136.145 9.87372 140.373 17.8995C141.002 19.0919 142.563 17.9844 141.931 16.7919C139.916 12.9838 137.173 9.83845 133.941 7.63008C130.709 5.42171 127.086 4.21738 123.388 4.12207C116.57 3.94856 109.807 7.59595 105.479 14.0896C103.348 17.2793 101.871 21.0502 101.173 25.0856C100.475 29.121 100.576 33.3032 101.467 37.2808C103.287 45.1921 108.207 51.5603 114.378 54.6318C122.498 58.6926 131.965 56.4407 138.409 49.2161C139.27 48.2525 137.988 46.6872 137.134 47.6471V47.6582Z" fill="#F5F5F5"/>
<path d="M135.462 17.1648L142.815 11.0883V20.2769L135.462 17.1648Z" fill="#F5F5F5"/>
<path d="M193.05 159.683C193.05 159.738 149.862 159.778 96.5986 159.778C43.3357 159.778 0.135254 159.738 0.135254 159.683C0.135254 159.627 43.3146 159.587 96.5986 159.587C149.883 159.587 193.05 159.631 193.05 159.683Z" fill="#263238"/>
<path d="M107.506 61.694C107.506 61.694 118.528 65.2602 122.014 79.5285L117.343 82.0795C117.343 82.0795 116.27 72.1525 105.35 67.8296C99.4406 65.489 91.6155 68.7894 89.4503 71.8166L84.1904 69.0294C87.706 64.2782 96.3822 57.9728 107.506 61.694Z" fill="#FF725E"/>
<path d="M125.012 75.9328L113.362 80.6767L122.303 86.1773L125.012 75.9328Z" fill="#FF725E"/>
<path d="M93.7569 159.682L52.5563 159.653C47.6002 159.653 43.5854 154.485 43.5854 148.072L43.6065 14.8206C43.6065 8.4266 47.6303 3.24347 52.5864 3.24716L93.7869 3.2767C98.743 3.2767 102.758 8.46721 102.758 14.8575L102.737 148.128C102.737 154.503 98.716 159.686 93.7569 159.682Z" fill="#263238"/>
<path d="M93.7446 7.99096H85.7572C84.6835 7.99096 83.8144 9.16123 83.8144 10.6047V12.4616C83.8144 13.905 82.9453 15.0753 81.8747 15.0753H66.3057C65.2351 15.0753 64.366 13.9014 64.366 12.4579V10.5825C64.366 9.13908 63.4968 7.96881 62.4262 7.96881H59.6174H52.6253C49.1518 7.96881 46.337 11.5977 46.337 16.0905L46.3159 146.152C46.3159 150.63 49.1278 154.274 52.5982 154.274L93.7176 154.307C97.188 154.307 100.006 150.678 100.006 146.186L100.027 16.1238C100.027 11.6236 97.2151 7.99465 93.7446 7.99096Z" fill="white"/>
<path d="M55.0222 143.982V147.799C55.0249 147.875 55.0105 147.951 54.9805 148.018C54.9505 148.085 54.906 148.141 54.852 148.179C54.798 148.217 54.7365 148.236 54.6742 148.234C54.6119 148.232 54.5513 148.209 54.4989 148.168L52.0539 146.26C52.0055 146.221 51.9657 146.169 51.9381 146.107C51.9105 146.045 51.896 145.976 51.896 145.905C51.896 145.835 51.9105 145.765 51.9381 145.703C51.9657 145.641 52.0055 145.589 52.0539 145.551L54.4899 143.627C54.5415 143.584 54.602 143.559 54.6645 143.554C54.7271 143.55 54.7894 143.568 54.8445 143.604C54.8996 143.641 54.9453 143.696 54.9767 143.762C55.008 143.829 55.0238 143.905 55.0222 143.982Z" fill="#E0E0E0"/>
<path d="M75.1083 145.853C75.1077 146.374 74.9814 146.882 74.7455 147.315C74.5095 147.747 74.1744 148.084 73.7825 148.283C73.3907 148.481 72.9596 148.533 72.5439 148.431C72.1282 148.329 71.7464 148.078 71.4468 147.71C71.1472 147.341 70.9433 146.872 70.8608 146.362C70.7783 145.851 70.8209 145.322 70.9833 144.842C71.1457 144.361 71.4205 143.95 71.7731 143.661C72.1256 143.372 72.5401 143.218 72.9641 143.218C73.533 143.219 74.0784 143.497 74.4804 143.991C74.8825 144.485 75.1083 145.155 75.1083 145.853Z" fill="#E0E0E0"/>
<path d="M93.8859 143.561H91.056C90.7454 143.561 90.4937 143.87 90.4937 144.251V147.736C90.4937 148.117 90.7454 148.427 91.056 148.427H93.8859C94.1965 148.427 94.4483 148.117 94.4483 147.736V144.251C94.4483 143.87 94.1965 143.561 93.8859 143.561Z" fill="#E0E0E0"/>
<path d="M61.2623 54.9603H64.5703L63.9268 54.3586C64.414 56.3275 64.9021 58.2964 65.3913 60.2653L67.71 69.6422C67.8874 70.3805 68.0679 71.0819 68.2453 71.8018C68.2867 71.9729 68.3714 72.1235 68.4871 72.2316C68.6028 72.3398 68.7435 72.4 68.8889 72.4036L78.35 72.3703H79.7063C80.5634 72.3703 80.5664 70.7312 79.7063 70.7349L70.2452 70.7645H68.8889L69.5324 71.3625L68.0709 65.4558L65.7492 56.0826L65.2139 53.9193C65.1725 53.7482 65.0878 53.5977 64.9721 53.4895C64.8564 53.3813 64.7157 53.3211 64.5703 53.3175H61.2623C60.4022 53.3175 60.4022 54.9566 61.2623 54.9566V54.9603Z" fill="#263238"/>
<path d="M81.8144 57.0462C81.1909 60.472 80.5674 63.8979 79.9439 67.3238C79.8567 67.8148 79.7664 68.3095 79.6762 68.8005L80.1604 68.3501L76.1095 68.3021L69.6137 68.2246L68.128 68.2061L68.6092 68.6565C67.7431 65.2651 66.875 61.8724 66.0049 58.4785L65.638 57.0462L65.1538 57.8214H82.2956C82.4217 57.8094 82.5395 57.7394 82.6254 57.6255C82.7113 57.5115 82.759 57.362 82.759 57.2067C82.759 57.0515 82.7113 56.9019 82.6254 56.788C82.5395 56.674 82.4217 56.6041 82.2956 56.5921H65.1538C65.077 56.5934 65.0015 56.6162 64.933 56.6587C64.8645 56.7013 64.8048 56.7624 64.7584 56.8375C64.712 56.9126 64.6802 56.9996 64.6653 57.0921C64.6505 57.1845 64.6529 57.2799 64.6726 57.371C65.5407 60.7625 66.4088 64.1551 67.277 67.549C67.4003 68.0252 67.5236 68.5052 67.6439 68.9814C67.6754 69.1099 67.7392 69.223 67.8261 69.3045C67.9131 69.3861 68.0187 69.4319 68.128 69.4355L72.1789 69.4835L78.6748 69.561L80.1604 69.5794C80.2692 69.577 80.3745 69.532 80.4611 69.451C80.5476 69.37 80.6109 69.2572 80.6416 69.1291L82.5091 58.8477L82.7798 57.371C82.9181 56.5995 81.9558 56.2709 81.8144 57.0462Z" fill="#263238"/>
<path d="M68.5641 57.5704C69.0904 61.3174 69.7671 65.035 70.2873 68.782C70.3956 69.561 71.3609 69.2287 71.2527 68.4572C70.7264 64.7064 70.0497 60.9926 69.5295 57.2418C69.4212 56.4666 68.4559 56.7951 68.5641 57.5704Z" fill="#263238"/>
<path d="M73.8482 57.4079C73.8983 61.2522 73.9515 65.0953 74.0076 68.9371C74.0076 69.7271 75.0181 69.7308 75.009 68.9371C74.9589 65.0953 74.9058 61.2522 74.8497 57.4079C74.8497 56.6179 73.8392 56.6142 73.8482 57.4079Z" fill="#263238"/>
<path d="M78.7291 69.0774L80.0012 58.8366L80.1817 57.3599C80.2121 57.203 80.1931 57.0378 80.1284 56.8974C80.0637 56.757 79.9581 56.6519 79.8328 56.6032C79.7066 56.5675 79.5741 56.5924 79.4623 56.6727C79.3505 56.7529 79.2679 56.8826 79.2314 57.0351C78.8063 60.4462 78.3833 63.8598 77.9623 67.2758C77.9021 67.7631 77.839 68.2504 77.7788 68.7525C77.7484 68.9094 77.7674 69.0747 77.8321 69.215C77.8968 69.3554 78.0024 69.4605 78.1277 69.5093C78.2557 69.5524 78.3924 69.5316 78.5079 69.4513C78.6234 69.3711 78.7084 69.238 78.7442 69.0811L78.7291 69.0774Z" fill="#263238"/>
<path d="M66.2456 61.4171H81.3816C81.5076 61.4051 81.6254 61.3351 81.7113 61.2212C81.7972 61.1072 81.8449 60.9577 81.8449 60.8024C81.8449 60.6472 81.7972 60.4976 81.7113 60.3837C81.6254 60.2697 81.5076 60.1998 81.3816 60.1878H66.2456C66.1195 60.1998 66.0018 60.2697 65.9159 60.3837C65.8299 60.4976 65.7822 60.6472 65.7822 60.8024C65.7822 60.9577 65.8299 61.1072 65.9159 61.2212C66.0018 61.3351 66.1195 61.4051 66.2456 61.4171Z" fill="#263238"/>
<path d="M67.6652 65.729H80.7712C80.9036 65.729 81.0306 65.6644 81.1242 65.5495C81.2178 65.4346 81.2704 65.2787 81.2704 65.1162C81.2704 64.9536 81.2178 64.7978 81.1242 64.6828C81.0306 64.5679 80.9036 64.5034 80.7712 64.5034H67.6652C67.5328 64.5034 67.4059 64.5679 67.3122 64.6828C67.2186 64.7978 67.166 64.9536 67.166 65.1162C67.166 65.2787 67.2186 65.4346 67.3122 65.5495C67.4059 65.6644 67.5328 65.729 67.6652 65.729Z" fill="#263238"/>
<path d="M79.7003 77.7934C80.6835 77.7934 81.4806 76.815 81.4806 75.608C81.4806 74.401 80.6835 73.4225 79.7003 73.4225C78.717 73.4225 77.9199 74.401 77.9199 75.608C77.9199 76.815 78.717 77.7934 79.7003 77.7934Z" fill="#263238"/>
<path d="M69.9088 77.7934C70.892 77.7934 71.6891 76.815 71.6891 75.608C71.6891 74.401 70.892 73.4225 69.9088 73.4225C68.9255 73.4225 68.1284 74.401 68.1284 75.608C68.1284 76.815 68.9255 77.7934 69.9088 77.7934Z" fill="#263238"/>
<path d="M66.4953 46.1741C66.4953 46.1741 59.1724 45.8714 54.8779 53.8713L57.38 56.5035C57.38 56.5035 59.5363 50.6337 66.9103 50.4454C70.904 50.3457 73.6467 53.1994 74.5279 55.5547L79.0539 55.4587C77.5954 51.7338 73.9054 46.403 66.4953 46.1741Z" fill="#FF725E"/>
<path d="M53.9097 51.265L60.3724 56.8283L54.5021 58.2903L53.9097 51.265Z" fill="#FF725E"/>
<path d="M96.7007 21.6908C96.7013 21.8677 96.6591 22.0408 96.5795 22.1882C96.4999 22.3356 96.3864 22.4507 96.2535 22.5188C96.1206 22.587 95.9741 22.6052 95.8328 22.5712C95.6914 22.5371 95.5614 22.4523 95.4593 22.3276C95.3573 22.2028 95.2876 22.0436 95.2593 21.8702C95.231 21.6968 95.2452 21.517 95.3002 21.3535C95.3552 21.19 95.4485 21.0503 95.5682 20.952C95.688 20.8536 95.8288 20.8011 95.9729 20.8011C96.1654 20.8011 96.35 20.8948 96.4864 21.0615C96.6228 21.2282 96.6999 21.4545 96.7007 21.6908Z" fill="#263238"/>
<path d="M95.9729 25.0244C96.3748 25.0244 96.7007 24.6244 96.7007 24.131C96.7007 23.6376 96.3748 23.2376 95.9729 23.2376C95.571 23.2376 95.2451 23.6376 95.2451 24.131C95.2451 24.6244 95.571 25.0244 95.9729 25.0244Z" fill="#263238"/>
<path d="M95.9729 27.4646C96.3748 27.4646 96.7007 27.0646 96.7007 26.5712C96.7007 26.0778 96.3748 25.6779 95.9729 25.6779C95.571 25.6779 95.2451 26.0778 95.2451 26.5712C95.2451 27.0646 95.571 27.4646 95.9729 27.4646Z" fill="#263238"/>
<path d="M52.6372 21.2663L49.6689 23.9981H50.4238V27.2616L52.0237 27.269V24.8251L53.2868 24.8177V27.2616H54.8325V23.9649L55.6024 23.9538L52.6372 21.2663Z" fill="#263238"/>
<path d="M100.216 30.7022C100.216 30.7539 88.1059 30.7982 73.1715 30.7982C58.237 30.7982 46.1265 30.7539 46.1265 30.7022C46.1265 30.6506 58.234 30.6063 73.1715 30.6063C88.1089 30.6063 100.216 30.6506 100.216 30.7022Z" fill="#E0E0E0"/>
<path d="M72.6002 92.1615H72.1191C70.4914 92.1615 69.1719 93.7813 69.1719 95.7794V124.885C69.1719 126.883 70.4914 128.502 72.1191 128.502H72.6002C74.2279 128.502 75.5474 126.883 75.5474 124.885V95.7794C75.5474 93.7813 74.2279 92.1615 72.6002 92.1615Z" fill="#E0E0E0"/>
<path d="M84.7738 111.196C84.7809 113.692 84.1847 116.134 83.0605 118.214C81.9364 120.294 80.3349 121.918 78.4587 122.88C76.5825 123.842 74.516 124.099 72.5207 123.619C70.5253 123.139 68.6909 121.943 67.2496 120.182C65.8083 118.422 64.8248 116.176 64.4236 113.729C64.0225 111.282 64.2217 108.744 64.9961 106.436C65.7705 104.128 67.0853 102.154 68.7739 100.764C70.4626 99.3734 72.4494 98.6293 74.4827 98.6256C75.8308 98.6213 77.1664 98.943 78.4133 99.5724C79.6601 100.202 80.7938 101.127 81.7494 102.294C82.7051 103.461 83.4641 104.848 83.983 106.376C84.5019 107.903 84.7706 109.541 84.7738 111.196Z" fill="#FF725E"/>
<path d="M82.6118 111.329C82.6147 113.227 82.1593 115.083 81.303 116.663C80.4467 118.243 79.228 119.477 77.8009 120.207C76.3738 120.937 74.8024 121.131 73.2853 120.765C71.7683 120.4 70.3736 119.49 69.2776 118.151C68.1817 116.813 67.4336 115.105 67.1279 113.245C66.8223 111.384 66.9728 109.454 67.5605 107.699C68.1482 105.943 69.1466 104.441 70.4296 103.382C71.7126 102.323 73.2226 101.755 74.7686 101.749C75.7962 101.745 76.8143 101.99 77.7648 102.469C78.7152 102.949 79.5794 103.653 80.3078 104.543C81.0362 105.433 81.6146 106.49 82.01 107.654C82.4053 108.819 82.6098 110.067 82.6118 111.329Z" fill="#FF725E"/>
<path d="M82.3289 111.2C82.3194 111.149 82.3143 111.097 82.3138 111.044C82.3138 110.93 82.2958 110.779 82.2868 110.587C82.2868 110.486 82.2807 110.375 82.2687 110.254C82.2687 110.129 82.2356 109.996 82.2146 109.852C82.1794 109.518 82.1241 109.187 82.0492 108.863C81.8624 107.968 81.5675 107.113 81.174 106.327C80.6027 105.171 79.8391 104.177 78.9332 103.409C78.0274 102.642 76.9996 102.117 75.9172 101.871C74.5545 101.566 73.1503 101.711 71.8483 102.291C71.5017 102.445 71.1641 102.628 70.8378 102.838C70.6754 102.949 70.519 103.074 70.3566 103.207C70.1934 103.324 70.0376 103.456 69.8905 103.602C69.5811 103.884 69.2867 104.189 69.0094 104.518C68.7376 104.866 68.4845 105.236 68.2515 105.625C67.7702 106.419 67.3965 107.303 67.1448 108.242C66.8896 109.211 66.7557 110.222 66.7478 111.24C66.7592 112.258 66.8951 113.269 67.1508 114.238C67.4046 115.177 67.7804 116.06 68.2635 116.852C68.4965 117.241 68.7507 117.611 69.0244 117.959C69.3018 118.287 69.5961 118.593 69.9055 118.875C70.2077 119.148 70.5253 119.395 70.8559 119.613C71.1825 119.821 71.5201 120.002 71.8663 120.156C73.1701 120.733 74.5754 120.874 75.9383 120.565C77.1249 120.296 78.2435 119.69 79.2042 118.793C79.9991 118.056 80.6717 117.139 81.1861 116.091C81.5772 115.302 81.8701 114.446 82.0552 113.551C82.1298 113.227 82.1841 112.896 82.2176 112.562C82.2356 112.418 82.2597 112.285 82.2687 112.163C82.2777 112.041 82.2687 111.93 82.2868 111.827C82.2988 111.635 82.3078 111.484 82.3138 111.373C82.3143 111.321 82.3194 111.269 82.3289 111.218C82.3329 111.27 82.3329 111.321 82.3289 111.373V111.831C82.3289 111.93 82.3289 112.045 82.3289 112.167C82.3289 112.289 82.3018 112.425 82.2837 112.573C82.2558 112.91 82.2055 113.243 82.1334 113.57C81.961 114.48 81.6739 115.352 81.2823 116.154C80.7125 117.334 79.9454 118.353 79.0315 119.142C78.1176 119.932 77.0777 120.475 75.9804 120.735C74.5935 121.057 73.1617 120.918 71.8333 120.333C71.4795 120.179 71.1349 119.995 70.8017 119.783C70.4638 119.566 70.1392 119.319 69.8304 119.044C69.5138 118.758 69.2125 118.447 68.9282 118.114C68.6501 117.766 68.3909 117.396 68.1523 117.007C67.6572 116.198 67.2723 115.297 67.0125 114.337C66.4652 112.352 66.4652 110.202 67.0125 108.217C67.2691 107.256 67.651 106.354 68.1432 105.544C68.3803 105.153 68.6396 104.783 68.9191 104.436C69.2027 104.101 69.5041 103.789 69.8213 103.502C69.9714 103.354 70.1302 103.22 70.2965 103.1C70.4619 102.982 70.6213 102.853 70.7897 102.731C71.1228 102.517 71.4674 102.332 71.8212 102.177C73.1488 101.588 74.5807 101.445 75.9683 101.764C77.1717 102.043 78.3048 102.665 79.2764 103.58C80.081 104.328 80.7584 105.262 81.2703 106.33C81.6646 107.131 81.9548 108.003 82.1304 108.914C82.2011 109.243 82.2513 109.577 82.2807 109.915C82.2988 110.059 82.3168 110.195 82.3258 110.317V110.657C82.3258 110.849 82.3258 111 82.3258 111.115C82.3281 111.143 82.3291 111.171 82.3289 111.2Z" fill="#263238"/>
<g opacity="0.3">
<path opacity="0.3" d="M82.2658 111.299C82.2206 111.299 82.1876 110.878 82.0613 110.144C81.8864 109.108 81.5821 108.112 81.1591 107.19C80.8697 106.564 80.5248 105.978 80.1305 105.444C79.6786 104.838 79.1652 104.306 78.6028 103.86C78.3012 103.621 77.9856 103.408 77.6585 103.225C76.9635 102.835 76.2243 102.576 75.4662 102.458C75.0672 102.397 74.6651 102.373 74.2632 102.387C73.8644 102.405 73.4672 102.461 73.0753 102.554C72.6942 102.641 72.3192 102.764 71.9536 102.923C71.6 103.077 71.2571 103.266 70.9281 103.488C70.6132 103.697 70.3116 103.935 70.0259 104.2C69.4874 104.691 69.0023 105.264 68.5824 105.906C68.2184 106.47 67.9058 107.082 67.6501 107.729C67.2787 108.681 67.0291 109.697 66.9103 110.742C66.8231 111.48 66.811 111.908 66.7659 111.912C66.7208 111.916 66.6637 111.491 66.6787 110.716C66.7165 109.613 66.9205 108.527 67.2802 107.515C67.9664 105.552 69.1594 103.92 70.6755 102.871C71.0284 102.628 71.3964 102.419 71.7762 102.247C72.1674 102.068 72.5696 101.927 72.9791 101.826C73.4026 101.725 73.832 101.664 74.2632 101.645C74.6943 101.63 75.1256 101.656 75.5534 101.723C75.9678 101.789 76.3771 101.897 76.7774 102.044C77.5375 102.323 78.2586 102.742 78.9156 103.288C79.5098 103.779 80.047 104.366 80.5125 105.034C80.915 105.618 81.2612 106.258 81.544 106.939C81.9494 107.923 82.2052 108.989 82.2988 110.085C82.347 110.871 82.3018 111.299 82.2658 111.299Z" fill="black"/>
</g>
<g opacity="0.3">
<path opacity="0.3" d="M75.3879 116.936L75.409 118.609L74.191 118.635L74.17 117.003C72.967 116.936 71.8032 116.497 71.1235 115.866L71.7701 114.02C72.4776 114.604 73.296 114.954 74.1459 115.035L74.1128 112.54C72.7565 112.17 71.2408 111.635 71.2138 109.498C71.1927 107.914 72.116 106.544 74.0346 106.231L74.0136 104.569L75.2316 104.547L75.2526 106.175C76.1236 106.219 76.9737 106.515 77.7337 107.039L77.1502 108.885C76.5717 108.489 75.9349 108.238 75.2767 108.147L75.3098 110.686C76.6661 111.056 78.1577 111.576 78.1848 113.68C78.2058 115.26 77.2976 116.623 75.3879 116.936ZM74.0858 110.35L74.0587 108.228C73.4151 108.42 73.1565 108.859 73.1715 109.354C73.1866 109.848 73.5475 110.162 74.0858 110.358V110.35ZM76.227 113.913C76.227 113.392 75.8631 113.116 75.3248 112.898L75.3519 114.961C75.9714 114.795 76.233 114.4 76.227 113.92V113.913Z" fill="black"/>
</g>
<path d="M68.9371 93.6197H57.0762V126.166H68.9371V93.6197Z" fill="white"/>
<path d="M134.768 108.35C135.247 110.951 135.088 113.669 134.308 116.158C133.529 118.648 132.166 120.798 130.391 122.336C128.616 123.874 126.509 124.731 124.337 124.799C122.165 124.866 120.025 124.141 118.189 122.715C116.353 121.289 114.902 119.227 114.022 116.788C113.141 114.35 112.869 111.646 113.241 109.018C113.613 106.39 114.612 103.957 116.111 102.026C117.61 100.095 119.542 98.7539 121.662 98.1716C123.067 97.7833 124.52 97.7385 125.939 98.0399C127.358 98.3412 128.715 98.9828 129.932 99.928C131.149 100.873 132.203 102.103 133.032 103.548C133.862 104.993 134.452 106.625 134.768 108.35Z" fill="#FF725E"/>
<path d="M132.536 109.103C132.902 111.085 132.781 113.156 132.187 115.053C131.594 116.95 130.555 118.589 129.203 119.761C127.851 120.934 126.245 121.587 124.59 121.639C122.935 121.691 121.305 121.139 119.905 120.053C118.506 118.967 117.401 117.395 116.729 115.537C116.058 113.679 115.85 111.619 116.133 109.616C116.416 107.614 117.177 105.76 118.319 104.288C119.461 102.817 120.933 101.794 122.549 101.35C123.619 101.054 124.727 101.02 125.808 101.249C126.889 101.478 127.923 101.967 128.851 102.687C129.778 103.407 130.581 104.344 131.213 105.445C131.846 106.546 132.295 107.789 132.536 109.103Z" fill="#FF725E"/>
<path d="M132.218 109.047C132.198 108.998 132.183 108.946 132.173 108.892L132.058 108.423L131.977 108.08C131.941 107.955 131.893 107.822 131.848 107.678C131.746 107.34 131.626 107.012 131.487 106.696C131.123 105.815 130.654 105.006 130.094 104.296C128.764 102.586 126.99 101.496 125.078 101.213C123.165 100.931 121.231 101.472 119.608 102.746C119.276 103.005 118.958 103.291 118.658 103.602C118.507 103.764 118.357 103.942 118.222 104.108C118.073 104.277 117.936 104.46 117.81 104.654C117.54 105.035 117.291 105.439 117.067 105.861C116.847 106.299 116.652 106.754 116.483 107.224C116.131 108.188 115.909 109.217 115.825 110.269C115.636 112.449 116.035 114.645 116.961 116.519C117.403 117.427 117.962 118.241 118.615 118.93C119.238 119.614 119.95 120.165 120.721 120.562C121.088 120.765 121.467 120.935 121.854 121.071C122.234 121.195 122.62 121.288 123.009 121.348C124.92 121.649 126.857 121.126 128.489 119.869C130.122 118.612 131.348 116.699 131.959 114.456C132.22 113.523 132.364 112.547 132.386 111.561C132.401 111.202 132.396 110.842 132.371 110.483C132.371 110.328 132.371 110.184 132.347 110.051C132.323 109.919 132.317 109.804 132.302 109.682C132.278 109.479 132.26 109.313 132.245 109.199C132.236 109.144 132.231 109.088 132.23 109.033C132.245 109.085 132.256 109.14 132.263 109.195C132.281 109.313 132.305 109.472 132.338 109.675C132.352 109.783 132.37 109.906 132.392 110.044C132.392 110.177 132.41 110.321 132.422 110.48C132.455 110.84 132.465 111.203 132.452 111.565C132.443 112.562 132.308 113.55 132.052 114.496C131.682 115.888 131.074 117.167 130.271 118.249C129.467 119.331 128.486 120.191 127.391 120.772C126.006 121.503 124.487 121.766 122.991 121.533C122.592 121.474 122.197 121.382 121.809 121.256C121.414 121.117 121.027 120.944 120.651 120.739C120.268 120.532 119.897 120.294 119.539 120.026C119.181 119.739 118.839 119.422 118.516 119.078C117.847 118.378 117.276 117.547 116.826 116.619C116.365 115.663 116.024 114.626 115.816 113.544C115.629 112.452 115.577 111.332 115.662 110.221C115.749 109.147 115.978 108.097 116.339 107.113C116.513 106.632 116.714 106.167 116.94 105.721C117.172 105.293 117.426 104.883 117.701 104.495C117.83 104.297 117.971 104.111 118.122 103.938C118.273 103.768 118.423 103.587 118.567 103.425C118.874 103.106 119.198 102.815 119.539 102.554C120.812 101.562 122.278 101.005 123.785 100.94C124.978 100.894 126.166 101.16 127.27 101.72C128.373 102.28 129.367 103.122 130.185 104.189C130.744 104.91 131.21 105.733 131.565 106.629C131.701 106.952 131.817 107.286 131.914 107.63C131.959 107.777 132.004 107.91 132.037 108.036C132.07 108.161 132.088 108.279 132.109 108.405L132.209 108.877C132.216 108.934 132.219 108.99 132.218 109.047Z" fill="#263238"/>
<g opacity="0.3">
<path opacity="0.3" d="M132.172 109.184C132.124 109.184 132.01 108.767 131.739 108.036C131.359 107.008 130.852 106.058 130.235 105.219C129.815 104.65 129.345 104.139 128.834 103.694C128.248 103.19 127.611 102.781 126.939 102.476C126.202 102.14 125.427 101.94 124.642 101.882C124.229 101.849 123.815 101.856 123.403 101.904C122.982 101.955 122.565 102.044 122.155 102.17C121.744 102.304 121.342 102.474 120.952 102.679C120.571 102.882 120.204 103.122 119.854 103.395C119.189 103.914 118.59 104.548 118.074 105.278C117.605 105.942 117.209 106.678 116.895 107.467C116.621 108.16 116.41 108.886 116.263 109.634C116.058 110.733 115.99 111.863 116.062 112.986C116.113 113.787 116.182 114.23 116.131 114.245C116.08 114.26 115.945 113.839 115.83 113.023C115.653 111.866 115.653 110.677 115.83 109.52C116.092 107.784 116.713 106.161 117.635 104.806C117.898 104.41 118.186 104.04 118.495 103.698C118.816 103.343 119.16 103.019 119.523 102.731C119.899 102.432 120.293 102.17 120.702 101.948C121.125 101.723 121.561 101.538 122.007 101.394C122.454 101.255 122.908 101.159 123.367 101.106C123.812 101.062 124.26 101.062 124.705 101.106C125.137 101.143 125.565 101.222 125.986 101.343C126.39 101.454 126.786 101.605 127.171 101.793C127.883 102.137 128.553 102.596 129.165 103.159C129.695 103.653 130.176 104.22 130.599 104.85C131.209 105.76 131.678 106.8 131.983 107.918C132.175 108.704 132.208 109.162 132.172 109.184Z" fill="black"/>
</g>
<g opacity="0.3">
<path opacity="0.3" d="M126.065 117.014L126.405 118.756L125.139 119.126L124.808 117.435C123.536 117.708 122.243 117.579 121.415 117.114L121.743 115.017C122.591 115.421 123.511 115.548 124.411 115.386L123.906 112.802C122.42 112.802 120.739 112.68 120.297 110.458C119.978 108.811 120.676 107.113 122.621 106.245L122.285 104.521L123.551 104.152L123.882 105.847C124.798 105.642 125.741 105.708 126.633 106.039L126.375 108.135C125.693 107.885 124.977 107.804 124.269 107.895L124.784 110.539C126.269 110.539 127.923 110.653 128.35 112.842C128.687 114.456 127.996 116.139 126.065 117.014ZM123.463 110.52L123.033 108.305C122.399 108.674 122.221 109.217 122.321 109.727C122.42 110.236 122.865 110.469 123.466 110.52H123.463ZM126.366 113.614C126.26 113.071 125.833 112.876 125.244 112.809L125.662 114.954C126.269 114.607 126.468 114.123 126.366 113.614Z" fill="black"/>
</g>
<path d="M111.061 102.45C110.377 104.226 109.415 105.82 108.23 107.139C107.044 108.459 105.659 109.479 104.152 110.141C102.646 110.804 101.048 111.095 99.4491 110.999C97.8507 110.903 96.2834 110.422 94.8366 109.583C94.188 109.207 93.5672 108.764 92.981 108.257C91.0948 106.608 89.6307 104.333 88.7606 101.699C87.8904 99.0644 87.6502 96.18 88.0681 93.384C88.4861 90.588 89.5448 87.9963 91.1203 85.9128C92.6957 83.8293 94.7224 82.3405 96.9627 81.621C99.203 80.9014 101.564 80.981 103.769 81.8503C105.974 82.7197 107.931 84.3428 109.411 86.5292C110.89 88.7156 111.832 91.3748 112.124 94.1947C112.417 97.0147 112.048 99.8785 111.061 102.45Z" fill="#FF725E"/>
<path d="M108.685 101.247C107.905 103.291 106.648 105.006 105.073 106.173C103.499 107.34 101.678 107.908 99.8405 107.804C98.0031 107.7 96.2322 106.929 94.7518 105.59C93.2713 104.25 92.1479 102.401 91.5238 100.277C90.8996 98.1533 90.8027 95.8499 91.2454 93.6585C91.6881 91.467 92.6504 89.486 94.0105 87.9662C95.3707 86.4464 97.0676 85.456 98.8864 85.1205C100.705 84.785 102.564 85.1193 104.228 86.0813C105.332 86.7174 106.324 87.6144 107.145 88.721C107.967 89.8276 108.603 91.122 109.017 92.5304C109.431 93.9388 109.614 95.4335 109.557 96.9291C109.501 98.4246 109.204 99.8918 108.685 101.247Z" fill="#FF725E"/>
<path d="M108.436 100.929C108.449 100.87 108.465 100.812 108.484 100.756C108.523 100.63 108.577 100.464 108.643 100.25L108.764 99.8808C108.8 99.7442 108.833 99.5855 108.872 99.4194C108.971 99.0392 109.048 98.6505 109.1 98.2565C109.272 97.1807 109.31 96.079 109.212 94.9893C108.995 92.3735 108.045 89.9314 106.523 88.0813C105.001 86.2313 103.002 85.0883 100.869 84.8483C100.434 84.7964 99.9955 84.7816 99.5581 84.804C99.3386 84.804 99.1191 84.8593 98.8965 84.8852C98.6726 84.9091 98.4504 84.9535 98.2319 85.0181C97.3217 85.2207 96.4455 85.6087 95.6396 86.1662C94.7942 86.7169 94.0274 87.4326 93.369 88.2852C91.993 90.0412 91.1245 92.3031 90.897 94.7235C90.7809 95.89 90.8195 97.0719 91.0113 98.2233C91.1746 99.3401 91.4887 100.416 91.9405 101.405C92.15 101.891 92.3882 102.358 92.6533 102.801C92.9175 103.228 93.2048 103.632 93.5134 104.012C94.6765 105.446 96.1297 106.474 97.7237 106.991C98.9881 107.396 100.308 107.469 101.597 107.204C102.886 106.939 104.115 106.343 105.203 105.455C105.95 104.854 106.62 104.117 107.188 103.27C107.401 102.967 107.596 102.647 107.771 102.31C107.852 102.166 107.931 102.037 107.991 101.915L108.15 101.564L108.367 101.092C108.389 101.036 108.415 100.983 108.445 100.933C108.429 100.992 108.409 101.048 108.385 101.103C108.334 101.221 108.267 101.383 108.183 101.586L108.033 101.956C107.973 102.081 107.897 102.214 107.819 102.362C107.648 102.705 107.456 103.032 107.245 103.34C106.683 104.206 106.015 104.961 105.266 105.577C104.168 106.491 102.923 107.108 101.616 107.387C100.308 107.666 98.9669 107.6 97.6816 107.194C96.4297 106.805 95.258 106.098 94.2419 105.119C93.2257 104.141 92.3875 102.912 91.7812 101.513C91.5599 101.008 91.366 100.487 91.2007 99.951C91.0452 99.3997 90.9206 98.836 90.8278 98.2639C90.6319 97.0895 90.5923 95.8839 90.7105 94.694C90.9443 92.2211 91.8316 89.9104 93.2367 88.1154C93.9093 87.2462 94.6924 86.5169 95.5554 85.9558C95.9729 85.6728 96.406 85.4261 96.8515 85.2174C97.2935 85.0345 97.7445 84.8866 98.2018 84.7744C98.4245 84.7101 98.6506 84.6657 98.8785 84.6415C99.107 84.6157 99.3326 84.5751 99.5551 84.564C101.684 84.457 103.781 85.2262 105.513 86.7495C106.586 87.7072 107.481 88.9342 108.139 90.3492C108.796 91.7641 109.201 93.3345 109.326 94.9561C109.417 96.0588 109.368 97.1721 109.182 98.2565C109.124 98.6524 109.041 99.0424 108.935 99.423C108.89 99.5892 108.857 99.7442 108.815 99.8845C108.773 100.025 108.724 100.143 108.685 100.254L108.508 100.752C108.491 100.815 108.466 100.875 108.436 100.929Z" fill="#263238"/>
<g opacity="0.3">
<path opacity="0.3" d="M108.322 100.999C108.27 100.974 108.409 100.501 108.577 99.6335C108.817 98.4165 108.903 97.1612 108.83 95.9123C108.777 95.0597 108.649 94.2167 108.448 93.3982C108.214 92.4653 107.884 91.5732 107.464 90.7439C107.239 90.297 106.987 89.8713 106.71 89.4703C106.423 89.0523 106.111 88.6612 105.777 88.3C105.432 87.9252 105.063 87.5845 104.674 87.2811C103.872 86.6559 102.995 86.1899 102.075 85.9004C100.777 85.4951 99.4221 85.451 98.1086 85.7712C97.3285 85.9637 96.5715 86.2776 95.8561 86.7052C95.2318 87.0848 94.6429 87.5465 94.0998 88.0822C93.3081 88.8722 92.6203 89.8073 92.0608 90.8547C91.6608 91.593 91.4744 92.0471 91.4233 92.0175C91.3721 91.988 91.4864 91.5044 91.8233 90.6811C92.3166 89.5204 92.9791 88.4806 93.778 87.6133C94.3278 87.0113 94.9334 86.4909 95.5824 86.0628C96.3344 85.5738 97.1365 85.2112 97.9672 84.9849C98.4157 84.8626 98.8712 84.7824 99.3296 84.7449C100.306 84.6627 101.288 84.7685 102.238 85.0587C103.232 85.3608 104.18 85.8596 105.044 86.5354C105.461 86.8643 105.857 87.2347 106.225 87.6429C106.925 88.4141 107.526 89.3116 108.006 90.3046C108.822 91.9821 109.273 93.8889 109.317 95.8421C109.349 97.1503 109.184 98.4544 108.83 99.6889C108.592 100.593 108.367 101.022 108.322 100.999Z" fill="black"/>
</g>
<g opacity="0.3">
<path opacity="0.3" d="M98.6136 102.775L97.943 104.584L96.6288 103.846L97.2783 102.085C96.0123 101.262 94.9447 100.062 94.4785 98.9653L95.9311 97.3963C96.4462 98.4698 97.18 99.3603 98.0603 99.9805L99.0587 97.2819C97.7595 96.0304 96.3521 94.5242 97.2002 92.2095C97.8347 90.4966 99.3925 89.5921 101.579 90.4596L102.243 88.6655L103.561 89.4038L102.908 91.1537C103.828 91.7403 104.619 92.5884 105.218 93.6271L103.825 95.2478C103.369 94.4616 102.789 93.7951 102.12 93.2875L101.104 96.0341C102.412 97.2671 103.795 98.7622 102.953 101.04C102.334 102.723 100.803 103.621 98.6136 102.775ZM99.9368 94.897L100.785 92.6008C100.015 92.4052 99.5669 92.7226 99.3684 93.2542C99.17 93.7859 99.4406 94.347 99.9368 94.897ZM100.764 100.065C100.971 99.5006 100.704 98.9801 100.226 98.4226L99.4015 100.638C100.126 100.83 100.571 100.571 100.764 100.054V100.065Z" fill="black"/>
</g>
<path d="M33.7692 76.8631C30.2477 79.1003 27.5471 82.9581 25.6043 87.1999C23.6616 91.4416 22.4135 96.1042 21.1715 100.73L20.0889 124.582C24.1849 116.025 27.4749 105.965 28.3651 96.0968L25.6374 95.7978C27.4659 95.4545 28.9996 93.8301 29.977 91.8994C30.9544 89.9686 31.4566 87.7721 31.9348 85.5571L28.6267 86.1699C31.2509 83.9935 33.0923 80.661 33.7692 76.8631Z" fill="#455A64"/>
<g opacity="0.3">
<path opacity="0.3" d="M33.7692 76.8631C30.2477 79.1003 27.5471 82.9581 25.6043 87.1999C23.6616 91.4416 22.4135 96.1042 21.1715 100.73L20.0889 124.582C24.1849 116.025 27.4749 105.965 28.3651 96.0968L25.6374 95.7978C27.4659 95.4545 28.9996 93.8301 29.977 91.8994C30.9544 89.9686 31.4566 87.7721 31.9348 85.5571L28.6267 86.1699C31.2509 83.9935 33.0923 80.661 33.7692 76.8631Z" fill="black"/>
</g>
<path d="M19.4813 130.175C19.4813 130.175 10.5826 117.106 10.6879 104.628H14.2967C14.2967 104.628 10.3872 101.479 10.6879 99.7147C10.9886 97.9501 11.0999 91.2718 11.0999 91.2718L14.3839 92.2796C14.3839 92.2796 11.9209 90.766 11.6141 88.3738C11.3074 85.9816 12.3299 74.8881 12.3299 74.8881C12.3299 74.8881 16.3357 80.0565 17.5657 85.3466C18.7957 90.6368 22.0316 96.8167 21.0843 112.946C20.1369 129.075 19.4813 130.175 19.4813 130.175Z" fill="#455A64"/>
<path d="M23.9897 131.408C23.9897 131.408 33.6132 123.526 35.7694 113.47L32.8794 112.506C32.8794 112.506 36.5784 111.03 36.6446 109.524C36.7107 108.017 37.8205 102.624 37.8205 102.624L34.9996 102.55C34.9996 102.55 37.2491 101.996 37.9227 100.154C38.5963 98.3119 39.7542 89.1159 39.7542 89.1159C39.7542 89.1159 35.6161 92.1947 33.6824 96.1301C31.7486 100.065 28.0406 104.141 25.9204 117.365C23.8002 130.588 23.9897 131.408 23.9897 131.408Z" fill="#455A64"/>
<path d="M14.7598 86.2954C14.7756 86.3377 14.7867 86.3824 14.7928 86.4283C14.8109 86.528 14.838 86.6609 14.871 86.8307L15.1507 88.3812C15.274 89.0568 15.4184 89.88 15.5717 90.8436C15.7251 91.8071 15.9146 92.8962 16.095 94.1107C16.4739 96.5362 16.8769 99.4304 17.298 102.653C17.719 105.876 18.1009 109.435 18.4558 113.175C18.8106 116.914 19.0753 120.488 19.2858 123.744C19.4963 127 19.6286 129.931 19.7098 132.397C19.758 133.627 19.782 134.745 19.8091 135.72C19.8362 136.694 19.8482 137.543 19.8542 138.234C19.8602 138.924 19.8542 139.448 19.8542 139.821V140.235C19.8588 140.281 19.8588 140.328 19.8542 140.375C19.8501 140.328 19.8501 140.281 19.8542 140.235C19.8542 140.135 19.8542 139.998 19.8542 139.825C19.8542 139.456 19.8271 138.917 19.8091 138.234C19.791 137.551 19.77 136.702 19.7339 135.723C19.6978 134.745 19.6707 133.63 19.6136 132.401C19.5204 129.939 19.361 127.007 19.1565 123.755C18.952 120.503 18.6633 116.936 18.3144 113.197C17.9656 109.457 17.5656 105.906 17.1717 102.683C16.7777 99.46 16.3777 96.562 16.0108 94.1366C15.8364 92.922 15.659 91.8256 15.5116 90.8657C15.3642 89.9059 15.2289 89.0753 15.1146 88.3997L14.862 86.8381C14.838 86.6683 14.8169 86.5354 14.8019 86.432C14.7856 86.3876 14.7715 86.3419 14.7598 86.2954Z" fill="#263238"/>
<path d="M18.2485 138.178C18.2485 138.178 10.1077 126.841 7.57548 119.986L9.48213 118.985C8.09876 119.266 6.6823 118.535 5.60868 117.427C4.53506 116.32 3.75015 114.862 2.97726 113.426L5.4914 112.905C3.18105 112.097 1.21385 110.226 0 107.681C2.96523 108.283 5.64778 110.266 7.86118 112.78C9.61829 114.852 11.2141 117.121 12.6278 119.558C13.3443 120.726 13.9687 121.976 14.4924 123.29C15.8457 126.76 18.2515 134.014 18.2485 138.178Z" fill="#455A64"/>
<path d="M35.8958 95.7166C35.8878 95.7565 35.8757 95.7949 35.8597 95.831L35.7334 96.1596C35.6161 96.4586 35.4477 96.8795 35.2372 97.4185C34.8011 98.5075 34.1816 100.088 33.4328 102.055C32.684 104.023 31.8179 106.371 30.8886 109.003C29.9593 111.635 28.988 114.541 28.0136 117.638C27.0392 120.735 26.1731 123.692 25.4092 126.402C24.6454 129.112 24.0018 131.57 23.4815 133.645C22.9612 135.72 22.5492 137.399 22.2786 138.566C22.1402 139.138 22.035 139.589 21.9568 139.906L21.8696 140.253C21.8621 140.293 21.8499 140.332 21.8335 140.368C21.8335 140.368 21.8335 140.327 21.8545 140.246L21.9267 139.895C21.9959 139.574 22.0951 139.123 22.2275 138.544C22.4831 137.374 22.874 135.683 23.3853 133.604C23.8965 131.526 24.5341 129.064 25.2829 126.347C26.0317 123.629 26.9069 120.661 27.8782 117.568C28.8496 114.474 29.839 111.565 30.7653 108.933C31.6915 106.301 32.5697 103.953 33.3426 101.996C34.1155 100.04 34.729 98.478 35.1831 97.3705C35.4056 96.8389 35.58 96.4217 35.7063 96.1301C35.7635 95.9935 35.8086 95.8901 35.8447 95.8089C35.8589 95.7759 35.8761 95.745 35.8958 95.7166Z" fill="#263238"/>
<path d="M18.9371 143.037C18.9176 142.969 18.9054 142.898 18.901 142.826L18.8198 142.225C18.7897 141.962 18.7507 141.645 18.6935 141.276C18.6364 140.907 18.5883 140.482 18.5071 140.021C18.3597 139.09 18.1522 137.994 17.8845 136.79C17.6169 135.587 17.2831 134.276 16.862 132.929C16.441 131.581 15.9899 130.323 15.5478 129.197C15.1058 128.071 14.6667 127.085 14.2757 126.269C14.0893 125.856 13.8998 125.497 13.7434 125.162C13.5871 124.826 13.4427 124.567 13.3254 124.346L13.0608 123.833C13.0275 123.773 12.9993 123.71 12.9766 123.644C12.9766 123.644 13.0187 123.696 13.0878 123.81L13.3886 124.305C13.5149 124.519 13.6652 124.789 13.8276 125.106C13.99 125.424 14.1915 125.796 14.372 126.199C14.775 127.007 15.22 127.997 15.6802 129.119C16.1403 130.241 16.5824 131.508 17.0064 132.859C17.4304 134.21 17.7552 135.535 18.0229 136.742C18.2905 137.95 18.483 139.061 18.6243 139.995C18.6995 140.46 18.7446 140.884 18.7897 141.257C18.8349 141.63 18.8679 141.951 18.892 142.217C18.9161 142.483 18.9281 142.664 18.9401 142.823C18.9464 142.894 18.9454 142.966 18.9371 143.037Z" fill="#263238"/>
<path d="M29.6792 140.368H11.8638V144.827H29.6792V140.368Z" fill="#FF725E"/>
<path d="M13.5601 144.831L15.4878 159.834H26.254L28.0494 144.831H13.5601Z" fill="#FF725E"/>
<path d="M28.585 144.831C28.585 144.883 25.2168 144.927 21.0667 144.927C16.9166 144.927 13.5483 144.883 13.5483 144.831C13.5483 144.779 16.9166 144.735 21.0667 144.735C25.2168 144.735 28.585 144.775 28.585 144.831Z" fill="#263238"/>
<path d="M160.706 115.024H113.888C112.581 115.024 111.521 116.325 111.521 117.929V157.095C111.521 158.699 112.581 160 113.888 160H160.706C162.013 160 163.073 158.699 163.073 157.095V117.929C163.073 116.325 162.013 115.024 160.706 115.024Z" fill="#455A64"/>
<path d="M162.312 133.383H148.969C146.755 133.383 144.96 135.586 144.96 138.304V139.112C144.96 141.83 146.755 144.033 148.969 144.033H162.312C164.526 144.033 166.321 141.83 166.321 139.112V138.304C166.321 135.586 164.526 133.383 162.312 133.383Z" fill="#455A64"/>
<path d="M162.315 144.218H148.972C147.868 144.216 146.811 143.677 146.03 142.719C145.25 141.762 144.811 140.463 144.81 139.109V138.304C144.811 136.95 145.25 135.652 146.031 134.695C146.811 133.737 147.869 133.199 148.972 133.198H162.315C163.418 133.2 164.475 133.739 165.254 134.696C166.034 135.653 166.473 136.95 166.474 138.304V139.109C166.473 140.463 166.034 141.76 165.255 142.718C164.475 143.676 163.418 144.215 162.315 144.218ZM148.972 133.567C147.948 133.568 146.967 134.068 146.243 134.956C145.519 135.844 145.112 137.048 145.11 138.304V139.109C145.111 140.366 145.518 141.571 146.242 142.459C146.966 143.348 147.948 143.848 148.972 143.849H162.315C163.339 143.847 164.32 143.347 165.043 142.458C165.766 141.569 166.173 140.365 166.174 139.109V138.304C166.172 137.048 165.765 135.845 165.042 134.957C164.319 134.069 163.338 133.569 162.315 133.567H148.972Z" fill="#263238"/>
<path d="M152.269 140.868C153.248 139.158 152.913 136.798 151.521 135.596C150.128 134.393 148.205 134.805 147.226 136.514C146.247 138.223 146.581 140.584 147.974 141.786C149.366 142.988 151.289 142.577 152.269 140.868Z" fill="#263238"/>
<path d="M145.994 33.6224C145.958 35.5702 146.259 37.5053 146.877 39.2998C147.495 41.0944 148.416 42.7076 149.579 44.033C150.11 42.133 150.644 40.233 151.182 38.333" fill="#263238"/>
<path d="M158.075 22.2852C156.697 21.3623 155.037 21.2294 153.5 21.6096C151.97 22.0452 150.508 22.786 149.173 23.8025C148.389 24.2999 147.687 24.9722 147.104 25.7849C146.105 27.328 145.119 29.8458 145.023 31.8282C144.945 33.4193 145.441 37.399 145.988 38.8424C146.49 40.1677 148.842 41.1756 150.003 41.5041L160.649 26.2981C160.458 25.4533 160.132 24.6636 159.69 23.9747C159.248 23.2859 158.699 22.7116 158.075 22.2852Z" fill="#263238"/>
<path d="M159.909 24.3378L157.356 23.7766C158.751 27.8375 159.13 37.1885 159.93 41.4967C160.872 39.817 163.058 34.7114 162.938 32.681C162.817 30.6506 162.944 23.9908 159.909 24.3378Z" fill="#263238"/>
<path d="M161.371 30.9902C161.205 27.8596 159.506 24.0203 156.965 24.3452L151.086 26.191C150.18 26.4734 149.373 27.1049 148.782 27.9927C148.19 28.8805 147.847 29.9778 147.802 31.1231C147.802 31.2412 147.802 31.0973 147.802 31.1859L149.116 49.8806L153.531 60.6345L157.44 51.564C157.44 50.0393 157.44 46.6171 157.44 46.6245C157.44 46.6319 160.7 45.9526 161.35 40.7178C161.669 38.141 161.551 34.4678 161.371 30.9902Z" fill="#FFBF9D"/>
<path d="M159.548 35.2726C159.551 35.4473 159.497 35.6163 159.399 35.7432C159.302 35.8702 159.167 35.9451 159.025 35.9518C158.955 35.9584 158.886 35.9479 158.82 35.9212C158.754 35.8944 158.692 35.8518 158.64 35.7958C158.587 35.7398 158.544 35.6716 158.513 35.5951C158.482 35.5186 158.464 35.4353 158.459 35.3501C158.459 35.1753 158.513 35.0068 158.611 34.8802C158.709 34.7535 158.843 34.6785 158.986 34.6708C159.055 34.6648 159.124 34.6756 159.19 34.7026C159.256 34.7296 159.317 34.7723 159.369 34.8282C159.421 34.8842 159.464 34.9522 159.495 35.0284C159.525 35.1047 159.544 35.1877 159.548 35.2726Z" fill="#263238"/>
<path d="M160.733 33.0354C160.664 33.124 160.252 32.7474 159.662 32.7511C159.073 32.7548 158.646 33.1203 158.583 33.028C158.52 32.9357 158.622 32.8324 158.808 32.6588C159.061 32.4407 159.362 32.3245 159.671 32.3266C159.977 32.3252 160.275 32.4428 160.522 32.6625C160.703 32.8397 160.766 32.9948 160.733 33.0354Z" fill="#263238"/>
<path d="M154.635 35.2726C154.637 35.4473 154.584 35.6163 154.486 35.7432C154.388 35.8702 154.254 35.9451 154.111 35.9518C154.042 35.9584 153.972 35.9479 153.906 35.9211C153.84 35.8944 153.779 35.8518 153.726 35.7958C153.674 35.7398 153.631 35.6716 153.6 35.5951C153.569 35.5186 153.55 35.4353 153.546 35.3501C153.545 35.1753 153.599 35.0068 153.697 34.8802C153.796 34.7535 153.93 34.6785 154.072 34.6708C154.142 34.6638 154.211 34.6739 154.277 34.7005C154.343 34.7271 154.404 34.7698 154.457 34.8259C154.509 34.882 154.552 34.9504 154.583 35.0271C154.613 35.1038 154.631 35.1873 154.635 35.2726Z" fill="#263238"/>
<path d="M155.157 33.0354C155.091 33.124 154.676 32.7475 154.09 32.7511C153.503 32.7548 153.073 33.1203 153.01 33.028C152.947 32.9357 153.046 32.8324 153.236 32.6589C153.488 32.44 153.79 32.3238 154.099 32.3266C154.404 32.3252 154.702 32.4428 154.95 32.6625C155.13 32.8397 155.191 32.9948 155.157 33.0354Z" fill="#263238"/>
<path d="M156.992 38.6948C157.301 38.5739 157.621 38.502 157.945 38.4806C158.096 38.4806 158.246 38.4253 158.246 38.2997C158.259 38.1095 158.225 37.9188 158.147 37.7534C158.006 37.3104 157.846 36.8415 157.702 36.3542C157.082 34.3607 156.634 32.7216 156.7 32.6921C156.766 32.6625 157.341 34.2426 157.942 36.2472C158.09 36.7382 158.243 37.207 158.369 37.6537C158.466 37.8805 158.494 38.1424 158.448 38.392C158.426 38.4569 158.392 38.5148 158.349 38.5615C158.307 38.6082 158.256 38.6424 158.201 38.6615C158.119 38.6887 158.034 38.7036 157.948 38.7058C157.63 38.7509 157.309 38.7472 156.992 38.6948Z" fill="#263238"/>
<path d="M151.774 44.775C151.774 44.775 153.158 48.3596 157.413 47.8612V46.6319C155.43 46.6677 153.477 46.0247 151.774 44.775Z" fill="#FF9A6C"/>
<path d="M154.974 30.4328C154.917 30.6284 154.33 30.5361 153.642 30.6395C152.953 30.7429 152.397 30.9754 152.307 30.8019C152.264 30.717 152.361 30.5324 152.586 30.3442C152.883 30.1055 153.222 29.9574 153.576 29.9122C153.928 29.8612 154.285 29.9118 154.619 30.0599C154.872 30.1817 154.998 30.3405 154.974 30.4328Z" fill="#263238"/>
<path d="M160.541 30.8315C160.439 30.9976 160.033 30.8315 159.549 30.8315C159.064 30.8315 158.646 30.9422 158.553 30.7724C158.514 30.6912 158.577 30.5251 158.758 30.37C158.999 30.1845 159.28 30.0907 159.564 30.1006C159.849 30.1104 160.125 30.2234 160.358 30.4254C160.529 30.5841 160.586 30.7502 160.541 30.8315Z" fill="#263238"/>
<path d="M160.216 26.2242C160.065 25.8405 159.831 25.5156 159.539 25.2856C159.247 25.0555 158.909 24.9293 158.562 24.9211C157.867 24.9222 157.187 25.1668 156.601 25.6262C154.069 27.4203 152.767 31.7618 150.265 33.6224C149.648 34.0801 148.848 33.6593 148.325 34.2647C147.802 34.8702 147.462 35.8411 147.75 36.6496C147.392 36.1016 147.1 35.4938 146.881 34.8443C146.775 34.5185 146.726 34.1685 146.739 33.8177C146.751 33.467 146.824 33.1235 146.954 32.8102C147.17 32.3487 147.555 31.998 147.657 31.4812C147.75 31.0271 147.603 30.5546 147.618 30.0857C147.662 29.6101 147.796 29.1536 148.009 28.753C148.989 26.6266 150.337 24.6922 152.075 23.5035C153.209 22.7004 154.499 22.2908 155.807 22.3184C157.12 22.3571 158.379 22.9713 159.356 24.0498C159.918 24.6922 160.505 25.353 160.216 26.2242Z" fill="#263238"/>
<path d="M148.385 34.9145C148.34 34.7631 146.124 33.7811 146.094 36.6754C146.063 39.4848 148.376 38.9347 148.382 38.8535C148.388 38.7723 148.385 34.9145 148.385 34.9145Z" fill="#FFBF9D"/>
<path d="M147.682 37.7792C147.682 37.7792 147.642 37.8124 147.573 37.8494C147.526 37.8741 147.475 37.8869 147.423 37.8869C147.371 37.8869 147.32 37.8741 147.273 37.8494C147.032 37.7386 146.83 37.2661 146.824 36.7419C146.821 36.5015 146.861 36.2632 146.942 36.0441C146.964 35.9574 147.003 35.8786 147.055 35.8143C147.108 35.7501 147.172 35.7022 147.242 35.675C147.288 35.6601 147.337 35.6657 147.38 35.6907C147.423 35.7157 147.457 35.7585 147.477 35.8115C147.507 35.8891 147.477 35.9445 147.504 35.9518C147.531 35.9592 147.552 35.9038 147.534 35.7894C147.524 35.7191 147.493 35.656 147.447 35.6122C147.385 35.5532 147.306 35.5267 147.227 35.5384C147.133 35.5592 147.045 35.6096 146.971 35.6846C146.897 35.7596 146.841 35.8568 146.806 35.9666C146.706 36.2087 146.656 36.4777 146.662 36.7492C146.662 37.3178 146.906 37.8567 147.233 37.9712C147.295 37.9939 147.36 37.9994 147.423 37.9872C147.487 37.9751 147.547 37.9456 147.6 37.901C147.679 37.8457 147.691 37.7829 147.682 37.7792Z" fill="#FF9A6C"/>
<path d="M147.474 33.4673C147.523 33.4412 147.569 33.409 147.612 33.3713C147.7 33.3049 147.835 33.2126 147.997 33.0723C148.448 32.6665 148.862 32.2037 149.233 31.6916C149.771 30.9235 150.273 30.1186 150.737 29.281C151.301 28.2542 151.933 27.2872 152.629 26.3904C152.994 25.9433 153.397 25.546 153.832 25.2053C154.245 24.895 154.687 24.6471 155.149 24.467C155.931 24.1561 156.755 24.0308 157.576 24.0978C158.129 24.1332 158.676 24.2573 159.203 24.467C159.389 24.5371 159.531 24.6184 159.627 24.6627C159.675 24.6888 159.726 24.7098 159.777 24.7254L159.636 24.6368C159.499 24.5561 159.358 24.4846 159.215 24.4227C158.69 24.1841 158.14 24.0375 157.582 23.9871C156.751 23.9069 155.916 24.0234 155.122 24.3304C154.651 24.5067 154.201 24.7547 153.78 25.0687C153.333 25.4133 152.917 25.8155 152.538 26.2685C151.839 27.1696 151.205 28.1443 150.644 29.1813C150.182 30.0191 149.685 30.8274 149.155 31.603C148.792 32.1157 148.389 32.5842 147.952 33.0022C147.796 33.1498 147.652 33.2458 147.579 33.3197C147.542 33.3659 147.506 33.4152 147.474 33.4673Z" fill="#455A64"/>
<path d="M148.051 34.2647C148.015 35.0326 147.985 35.8411 148.274 36.524C148.563 37.207 149.293 37.6722 149.838 37.2882C150.28 36.9781 150.412 36.2804 150.487 35.6602C150.707 33.8697 150.806 32.0571 151.035 30.2703L148.051 34.2647Z" fill="#263238"/>
<path d="M159.651 24.8842C159.651 24.8842 159.449 24.8399 159.082 24.8251C158.568 24.8133 158.056 24.9289 157.579 25.1647C157.245 25.3219 156.927 25.5224 156.628 25.7628C156.287 26.0448 155.959 26.3517 155.648 26.682C154.929 27.4319 154.286 28.2846 153.732 29.2219C153.431 29.724 153.185 30.2371 152.905 30.6986C152.641 31.1635 152.333 31.5885 151.988 31.9648C151.393 32.5823 150.743 33.116 150.051 33.5559C149.45 33.9251 148.975 34.202 148.638 34.3866L148.247 34.5896C148.201 34.6158 148.154 34.6368 148.105 34.6524C148.105 34.6524 148.148 34.6155 148.235 34.5601L148.617 34.3275C148.948 34.1282 149.432 33.8476 150.009 33.4563C150.688 33.0084 151.325 32.4712 151.91 31.8541C152.25 31.4841 152.553 31.0652 152.812 30.6063C153.086 30.1337 153.344 29.6169 153.639 29.1296C154.198 28.1805 154.852 27.321 155.585 26.5713C155.901 26.2397 156.234 25.9339 156.583 25.6557C156.889 25.4133 157.216 25.2128 157.558 25.0577C158.053 24.8286 158.581 24.728 159.109 24.7623C159.252 24.7719 159.394 24.7966 159.533 24.8362C159.574 24.8476 159.613 24.8637 159.651 24.8842Z" fill="#455A64"/>
<path d="M147.988 32.526C147.925 32.5908 147.856 32.6477 147.784 32.6958L147.203 33.1129L147.008 33.2495C146.931 33.3046 146.846 33.3398 146.758 33.3529C146.704 33.3597 146.65 33.3441 146.605 33.3086C146.581 33.2891 146.56 33.2636 146.544 33.2337C146.529 33.2038 146.519 33.1702 146.515 33.1351C146.517 33.0008 146.555 32.8712 146.623 32.7659L147.296 31.4406L147.387 31.5477C147.165 31.7498 146.915 31.9023 146.65 31.998C146.385 32.0948 146.108 32.1348 145.832 32.1162C145.761 32.1141 145.691 32.0991 145.624 32.0719C145.585 32.0587 145.548 32.0345 145.517 32.0013C145.487 31.968 145.463 31.9265 145.447 31.8799C145.434 31.8325 145.43 31.7818 145.436 31.7323C145.442 31.6827 145.458 31.6358 145.483 31.5956C145.522 31.5328 145.567 31.4747 145.615 31.4221C145.916 31.0627 146.178 30.6569 146.394 30.215C146.584 29.7977 146.75 29.3648 146.89 28.9192C146.879 29.0453 146.854 29.1693 146.818 29.2883C146.73 29.6267 146.614 29.9532 146.472 30.2629C146.263 30.7239 146.002 31.1464 145.697 31.5181C145.612 31.6178 145.528 31.7322 145.561 31.8208C145.594 31.9094 145.718 31.9537 145.838 31.9537C146.365 31.9869 146.885 31.7966 147.311 31.4148L147.585 31.1674L147.402 31.5366L146.716 32.8508C146.662 32.9281 146.629 33.0232 146.62 33.124C146.62 33.2052 146.677 33.2495 146.749 33.2421C146.896 33.2069 147.036 33.1366 147.161 33.0354L147.763 32.6662C147.832 32.607 147.908 32.5598 147.988 32.526Z" fill="#455A64"/>
<path d="M156.484 40.0607C156.371 39.9016 156.227 39.7798 156.066 39.7063C155.904 39.6328 155.731 39.6099 155.56 39.6398C155.437 39.6577 155.317 39.7058 155.209 39.7812C155.1 39.8567 155.005 39.958 154.929 40.0792C154.856 40.1953 154.815 40.3362 154.811 40.4824C154.807 40.6286 154.839 40.7728 154.905 40.895C155.001 41.0135 155.122 41.0954 155.255 41.1308C155.388 41.1662 155.527 41.1535 155.654 41.0944C155.916 40.9691 156.156 40.7823 156.36 40.5443C156.423 40.4884 156.476 40.4182 156.517 40.3376C156.537 40.2999 156.548 40.2556 156.548 40.2102C156.548 40.1649 156.537 40.1205 156.517 40.0828" fill="#FF9A6C"/>
<path d="M155.031 38.9458C155.124 38.9458 155.142 39.6841 155.681 40.1788C156.219 40.6735 156.884 40.5812 156.884 40.6846C156.884 40.7289 156.742 40.8323 156.466 40.8507C156.109 40.8743 155.757 40.7437 155.47 40.4815C155.196 40.2309 155.014 39.8584 154.962 39.4442C154.935 39.1267 154.989 38.9421 155.031 38.9458Z" fill="#263238"/>
<path d="M163.575 88.9128L166.038 95.7424L154.084 101.232L151.411 93.8892L163.575 88.9128Z" fill="#263238"/>
<path d="M187.73 130.47L190.999 139.135C190.999 139.135 199.164 137.806 199.895 139.338L186.548 147.876L181 134.634L187.73 130.47Z" fill="#455A64"/>
<path d="M186.645 140.984C186.535 141.115 186.468 141.29 186.457 141.478C186.446 141.665 186.491 141.851 186.584 141.999C186.687 142.138 186.828 142.224 186.98 142.24C187.132 142.255 187.283 142.2 187.402 142.084C187.519 141.946 187.589 141.76 187.6 141.561C187.611 141.363 187.562 141.166 187.463 141.01C187.344 140.878 187.188 140.806 187.028 140.811C186.868 140.816 186.716 140.896 186.602 141.036" fill="#E0E0E0"/>
<path d="M186.545 147.876L186.106 146.839L199.197 138.869C199.353 138.885 199.505 138.941 199.643 139.033C199.781 139.124 199.903 139.249 200 139.4L186.545 147.876Z" fill="#263238"/>
<path d="M191.146 139.112C191.177 139.194 190.861 139.437 190.644 139.899C190.428 140.36 190.395 140.814 190.319 140.822C190.244 140.829 190.148 140.294 190.422 139.74C190.695 139.186 191.128 139.028 191.146 139.112Z" fill="#263238"/>
<path d="M192.864 138.946C192.912 139.016 192.683 139.334 192.602 139.818C192.521 140.301 192.602 140.704 192.536 140.74C192.47 140.777 192.235 140.345 192.349 139.747C192.464 139.149 192.827 138.869 192.864 138.946Z" fill="#263238"/>
<path d="M194.536 140.534C194.485 140.585 194.235 140.238 194.208 139.688C194.181 139.138 194.431 138.765 194.488 138.817C194.545 138.869 194.452 139.223 194.467 139.677C194.482 140.131 194.599 140.482 194.536 140.534Z" fill="#263238"/>
<path d="M190.214 137.241C190.214 137.329 189.868 137.407 189.507 137.673C189.146 137.938 188.906 138.263 188.849 138.215C188.792 138.167 188.948 137.702 189.375 137.399C189.802 137.097 190.22 137.141 190.214 137.241Z" fill="#263238"/>
<path d="M189.697 135.24C189.697 135.273 189.471 135.487 189.017 135.661C188.75 135.76 188.475 135.818 188.196 135.834C188.032 135.849 187.867 135.849 187.703 135.834C187.601 135.831 187.499 135.809 187.402 135.768C187.335 135.738 187.277 135.681 187.239 135.606C187.201 135.531 187.184 135.442 187.192 135.354C187.201 135.277 187.226 135.203 187.263 135.138C187.3 135.074 187.349 135.022 187.405 134.985C187.49 134.931 187.582 134.892 187.676 134.871C187.839 134.825 188.005 134.797 188.172 134.786C188.454 134.77 188.736 134.809 189.008 134.9C189.468 135.063 189.703 135.299 189.685 135.328C189.667 135.358 189.408 135.214 188.966 135.118C188.709 135.064 188.447 135.05 188.187 135.077C188.036 135.094 187.886 135.126 187.739 135.173C187.574 135.214 187.438 135.292 187.438 135.391C187.438 135.432 187.438 135.443 187.493 135.476C187.56 135.504 187.631 135.521 187.703 135.524C187.857 135.545 188.011 135.555 188.166 135.554C188.429 135.549 188.69 135.516 188.948 135.454C189.193 135.361 189.443 135.289 189.697 135.24Z" fill="#263238"/>
<path d="M175.03 144.392L174.615 153.927C174.615 153.927 182.335 157.445 182.398 159.217L167.346 159.096L167.494 144.207L175.03 144.392Z" fill="#455A64"/>
<path d="M170.062 153.063C169.914 153.114 169.787 153.23 169.705 153.389C169.624 153.548 169.593 153.738 169.62 153.923C169.658 154.105 169.75 154.261 169.878 154.362C170.007 154.463 170.162 154.5 170.311 154.466C170.467 154.411 170.601 154.287 170.686 154.118C170.772 153.948 170.803 153.746 170.774 153.551C170.721 153.366 170.61 153.213 170.466 153.127C170.323 153.04 170.157 153.025 170.005 153.085" fill="#E0E0E0"/>
<path d="M167.346 159.096V157.91L181.953 158.387C182.085 158.491 182.198 158.627 182.285 158.787C182.373 158.947 182.432 159.128 182.461 159.317L167.346 159.096Z" fill="#263238"/>
<path d="M174.751 153.99C174.751 154.082 174.378 154.115 174.008 154.4C173.638 154.684 173.439 155.064 173.37 155.027C173.301 154.99 173.421 154.466 173.872 154.13C174.324 153.794 174.784 153.909 174.751 153.99Z" fill="#263238"/>
<path d="M176.335 154.832C176.35 154.924 176.034 155.072 175.77 155.452C175.505 155.832 175.433 156.234 175.358 156.231C175.283 156.227 175.246 155.71 175.571 155.245C175.896 154.78 176.335 154.747 176.335 154.832Z" fill="#263238"/>
<path d="M177.207 157.194C177.138 157.213 177.042 156.755 177.24 156.26C177.439 155.766 177.788 155.574 177.818 155.651C177.848 155.729 177.628 155.991 177.472 156.39C177.316 156.788 177.279 157.176 177.207 157.194Z" fill="#263238"/>
<path d="M174.648 151.79C174.615 151.871 174.278 151.738 173.857 151.764C173.436 151.79 173.108 151.945 173.072 151.867C173.036 151.79 173.352 151.469 173.848 151.446C174.344 151.424 174.687 151.72 174.648 151.79Z" fill="#263238"/>
<path d="M174.949 149.741C174.698 149.816 174.436 149.808 174.188 149.719C173.914 149.653 173.647 149.546 173.394 149.401C173.245 149.315 173.1 149.216 172.961 149.106C172.877 149.046 172.8 148.97 172.736 148.881C172.688 148.815 172.659 148.732 172.655 148.645C172.65 148.557 172.669 148.47 172.709 148.397C172.747 148.335 172.796 148.284 172.853 148.249C172.91 148.213 172.973 148.195 173.036 148.194C173.133 148.197 173.229 148.216 173.322 148.249C173.757 148.395 174.156 148.672 174.483 149.054C174.829 149.464 174.946 149.792 174.919 149.822C174.892 149.852 174.717 149.564 174.363 149.224C174.157 149.029 173.931 148.866 173.692 148.74C173.551 148.667 173.405 148.609 173.256 148.567C173.097 148.511 172.955 148.508 172.916 148.593C172.877 148.678 172.898 148.641 172.931 148.7C172.981 148.762 173.038 148.817 173.1 148.862C173.228 148.968 173.36 149.065 173.496 149.154C173.731 149.303 173.975 149.427 174.227 149.523C174.472 149.574 174.713 149.646 174.949 149.741Z" fill="#263238"/>
<path d="M140.605 98.6146C140.605 98.6146 170.766 93.9778 172.543 93.9778C176.714 93.9778 179.333 97.8799 179.956 100.892C180.416 103.107 189.7 135.317 189.7 135.317L182.852 139.674L172.781 117.704L167.647 106.744L141.182 111.761L140.605 98.6146Z" fill="#263238"/>
<path d="M168.892 105.732C168.892 105.732 173.027 105.732 175.259 109.793C176.57 112.182 176.11 116.438 176.137 119.661C176.173 124.043 175.31 150.741 175.31 150.741L166.856 150.915L165.085 123.09L165.187 117.948L148.319 116.257C148.319 116.257 146.782 109.981 150.562 105.02C151.025 104.385 168.892 105.732 168.892 105.732Z" fill="#263238"/>
<path d="M143.182 89.6622C143.182 89.6622 136.515 102.258 140.605 111.724C142.554 116.231 148.385 116.228 148.385 116.228L154.367 107.035V91.8329L143.182 89.6622Z" fill="#263238"/>
<path d="M148.385 116.228C148.422 116.199 148.46 116.174 148.5 116.154L148.836 115.962L150.136 115.223L154.947 112.599L162.072 108.734L166.282 106.456C166.652 106.267 167.007 106.042 167.398 105.88C167.789 105.714 168.192 105.591 168.601 105.511C169.436 105.358 170.284 105.349 171.121 105.485C171.961 105.607 172.78 105.891 173.548 106.327C173.925 106.545 174.275 106.827 174.588 107.165C174.893 107.505 175.152 107.902 175.355 108.342C175.753 109.192 175.995 110.138 176.062 111.115C176.095 111.595 176.062 112.056 176.062 112.517C176.062 112.979 176.062 113.433 176.062 113.883C176.026 117.483 175.996 120.72 175.972 123.445C175.948 126.169 175.914 128.359 175.896 129.891C175.896 130.629 175.875 131.231 175.869 131.644C175.869 131.836 175.869 131.987 175.869 132.098C175.873 132.15 175.873 132.202 175.869 132.253C175.867 132.202 175.867 132.15 175.869 132.098C175.869 131.987 175.869 131.836 175.869 131.644C175.869 131.231 175.869 130.644 175.869 129.891C175.869 128.359 175.869 126.158 175.89 123.445C175.911 120.732 175.923 117.479 175.945 113.883C175.945 113.433 175.945 112.979 175.945 112.517C175.945 112.056 175.963 111.587 175.929 111.129C175.864 110.183 175.629 109.267 175.241 108.446C175.046 108.024 174.799 107.642 174.507 107.316C174.205 106.991 173.867 106.721 173.503 106.515C172.752 106.089 171.951 105.81 171.13 105.688C170.309 105.556 169.477 105.565 168.658 105.714C168.259 105.795 167.866 105.918 167.485 106.083C167.109 106.242 166.745 106.452 166.378 106.655L162.168 108.922L155.031 112.746L150.22 115.308L148.906 115.995L148.563 116.169C148.507 116.2 148.447 116.22 148.385 116.228Z" fill="#455A64"/>
<path d="M171.947 93.9778C171.947 94.0295 165.617 94.9044 157.798 95.9307C149.979 96.957 143.636 97.747 143.63 97.6953C143.624 97.6437 149.961 96.7687 157.78 95.7424C165.599 94.7161 171.941 93.9261 171.947 93.9778Z" fill="#455A64"/>
<path d="M164.492 75.6264C164.983 73.7104 166.697 66.6593 166.312 62.9418C166.011 59.9884 163.837 56.1712 163.19 54.1408C162.89 53.1846 160.451 52.199 158.998 51.6711L157.555 49.5779L157.434 50.6005C157.009 51.1977 156.476 51.6652 155.878 51.9657C155.279 52.2662 154.632 52.3916 153.988 52.3319C151.844 52.0956 150.078 51.0213 148.914 49.4339C143.345 51.5197 143.363 51.9848 142.298 52.5054C140.921 53.1773 145.041 69.3801 145.041 69.3801C145.041 69.3801 146.518 79.5581 145.128 82.9877C144.346 84.9184 143.441 87.1223 142.776 88.9165C142.776 88.9165 140.924 93.2506 141.321 93.1398C142.154 92.9035 147.937 94.6165 153.371 94.9856C163.419 95.6354 165.341 93.808 165.341 93.808C164.814 90.6516 163.933 79.5876 163.936 77.439C163.93 77.0662 164.405 75.9587 164.492 75.6264Z" fill="#FF725E"/>
<path d="M157.732 50.0836C157.732 50.0836 164.279 52.1547 164.919 53.2252C166.661 56.1306 177.15 76.0104 172.002 81.9392C168.628 85.8229 163.882 77.6273 163.882 77.6273L157.732 50.0836Z" fill="#FF725E"/>
<path d="M171.373 73.4963C171.218 73.4796 171.064 73.4475 170.913 73.4003L169.659 73.0829C168.592 72.8171 167.097 72.4405 165.383 72.1378L165.473 72.075L164.959 73.6329L163.738 77.2914V77.1991L165.632 79.99L166.159 80.7874C166.224 80.879 166.283 80.9778 166.333 81.0827C166.333 81.0827 166.817 81.3559 166.123 80.8243L165.56 80.0601L163.617 77.3172L163.587 77.2729L163.605 77.2249L164.808 73.5554C164.986 73.0238 165.16 72.5033 165.326 72.0012L165.35 71.9274H165.419C167.142 72.2411 168.634 72.6398 169.695 72.9426C170.228 73.0939 170.649 73.2231 170.94 73.3117C171.088 73.3602 171.233 73.4219 171.373 73.4963Z" fill="#263238"/>
<path d="M165.076 72.5623C165.077 72.3432 165.093 72.1246 165.124 71.9089C165.172 71.4585 165.232 70.8605 165.308 70.1406C165.532 68.2066 165.586 66.2484 165.467 64.3003C165.304 62.3511 164.845 60.4567 164.114 58.7148C163.84 58.0429 163.59 57.5113 163.416 57.1458C163.318 56.9617 163.23 56.7692 163.154 56.5699C163.154 56.5699 163.19 56.6142 163.245 56.7028C163.299 56.7914 163.377 56.928 163.473 57.1052C163.666 57.4744 163.93 57.9802 164.222 58.652C164.992 60.3952 165.473 62.3089 165.635 64.2819C165.756 66.2442 165.685 68.2173 165.425 70.159C165.338 70.8974 165.25 71.5065 165.19 71.92C165.166 72.1375 165.128 72.3523 165.076 72.5623Z" fill="#263238"/>
<g opacity="0.3">
<path opacity="0.3" d="M143.63 87.4029L156.024 80.3887L155.185 77.38L157.091 76.4866L160.198 76.985C160.966 77.1094 161.747 77.015 162.481 76.709C163.215 76.4029 163.882 75.8936 164.429 75.2203L156.709 72.8244L147.904 75.128L145.666 67.1651L145.113 69.4982L145.573 74.5078L145.874 79.9199L143.63 87.4029Z" fill="black"/>
</g>
<path d="M142.449 52.4242C141.685 52.8347 141.005 53.4474 140.457 54.2184C139.909 54.9894 139.507 55.8995 139.279 56.8837C138.853 58.0489 138.531 59.2667 138.317 60.5163C137.273 66.1646 135.008 76.7598 134.924 79.5876C134.762 84.6748 138.058 86.1182 139.838 86.5612C141.619 87.0042 153.973 79.1557 153.973 79.1557L151.404 70.5873L143.853 74.4229C143.853 74.4229 145.576 67.8886 146.075 65.2159C146.575 62.5431 142.449 52.4242 142.449 52.4242Z" fill="#FF725E"/>
<path d="M165.428 71.1299C165.278 70.2908 165.254 69.4249 165.359 68.5753C165.446 68.0654 165.461 67.541 165.404 67.0248C165.326 66.519 164.941 65.9837 164.523 66.0243L163.891 69.7492L165.428 71.1299Z" fill="#FFBF9D"/>
<path d="M165.136 62.388L162.913 75.5526L157.642 75.1613L159.202 62.137C159.223 61.971 159.291 61.8196 159.395 61.7104C159.499 61.6012 159.631 61.5417 159.768 61.5426H164.58C164.664 61.5425 164.748 61.5657 164.825 61.6106C164.902 61.6554 164.969 61.7208 165.023 61.8019C165.076 61.883 165.114 61.9778 165.133 62.0792C165.153 62.1806 165.154 62.2862 165.136 62.388Z" fill="#263238"/>
<path d="M159.208 65.8102C159.245 65.6904 159.272 65.5669 159.29 65.4411C159.335 65.1642 159.395 64.8061 159.467 64.3742L159.717 62.7941C159.717 62.7203 159.738 62.6391 159.753 62.58C159.773 62.5164 159.805 62.4594 159.846 62.4139C159.888 62.3648 159.94 62.3315 159.996 62.3179C160.058 62.312 160.121 62.312 160.183 62.3179H161.016C162.156 62.3179 163.19 62.2957 163.936 62.281L164.838 62.2514C164.947 62.2561 165.056 62.2461 165.163 62.2219C165.055 62.2054 164.947 62.198 164.838 62.1997H163.936C163.19 62.1997 162.156 62.1997 161.016 62.1997H160.183C160.113 62.1911 160.042 62.1911 159.972 62.1997C159.9 62.2191 159.832 62.2611 159.777 62.3216C159.723 62.3824 159.682 62.4584 159.657 62.5431C159.639 62.6209 159.625 62.6997 159.614 62.7793C159.53 63.37 159.455 63.9053 159.389 64.3668L159.248 65.4374C159.227 65.5602 159.213 65.6849 159.208 65.8102Z" fill="#455A64"/>
<path d="M162.026 62.9381C162.049 62.867 162.092 62.8085 162.147 62.7732C162.203 62.7379 162.266 62.7283 162.327 62.7461C162.375 62.7619 162.418 62.7943 162.451 62.8395C162.484 62.8847 162.506 62.9408 162.513 63.0009C162.515 63.0664 162.503 63.1314 162.478 63.1892C162.452 63.2469 162.415 63.2953 162.369 63.3294C162.322 63.3617 162.268 63.3758 162.214 63.3698C162.161 63.3639 162.11 63.3382 162.068 63.2962C162.03 63.2503 162.006 63.1905 161.998 63.1258C161.99 63.0612 162 62.9952 162.026 62.9381Z" fill="#FAFAFA"/>
<path d="M162.171 66.9104C162.294 66.9473 165.082 68.7156 165.082 68.7156L166.537 70.5983C166.537 70.5983 167.064 71.7059 166.637 73.3893C166.21 75.0727 165.515 75.6892 163.912 76.1765L160.884 75.5895L159.35 74.0464C159.203 73.8971 159.096 73.6976 159.043 73.4733C158.989 73.2491 158.992 73.0103 159.049 72.7875L159.07 72.71L158.896 72.3408C158.843 72.2314 158.817 72.1051 158.822 71.9777C158.826 71.8504 158.862 71.7276 158.923 71.6246C159.006 71.4867 159.13 71.3945 159.268 71.3682C159.406 71.3419 159.547 71.3837 159.66 71.4844L161.386 73.0349L162.574 73.2268L162.751 72.7506L161.01 71.6431L158.797 69.5388C158.727 69.473 158.669 69.3905 158.626 69.2963C158.583 69.2021 158.556 69.0982 158.547 68.9909C158.537 68.8835 158.546 68.775 158.572 68.6718C158.598 68.5687 158.64 68.473 158.697 68.3907C158.797 68.247 158.934 68.1512 159.086 68.1201C159.237 68.089 159.392 68.1247 159.524 68.2209L161.581 69.6976L163.729 70.8605L163.389 69.812L160.866 67.5195C160.866 67.5195 160.649 66.4378 162.171 66.9104Z" fill="#FFBF9D"/>
<path d="M161.918 65.1051C161.918 65.1051 161.338 64.6953 160.372 65.1863C159.407 65.6773 158.174 66.4194 158.174 66.4194L156.324 67.0654L156.544 66.5043C156.544 66.5043 158.369 66.7332 158.282 65.1014L157.181 65.1605L156.237 64.5661L154.376 66.7811L153.675 69.9228L151.627 71.2296L153.236 76.6047L156.126 74.6371L159.735 74.5522L161.061 73.2342L161.208 71.5619L162.507 69.9375C162.507 69.9375 162.67 69.1254 162.071 69.0478C161.473 68.9703 160.032 70.7276 160.032 70.7276L158.586 70.7682C158.586 70.7682 158.339 70.4913 158.541 70.3325C158.742 70.1738 163.004 67.6044 163.193 67.0285C163.383 66.4526 163.578 66.076 163.154 65.921C162.775 65.8512 162.388 65.8968 162.026 66.0539C162.026 66.0539 162.24 65.2306 161.918 65.1051Z" fill="#FFBF9D"/>
<path d="M158.384 68.3169C159.032 67.9884 159.665 67.6187 160.282 67.2094C160.915 66.8472 161.533 66.4443 162.131 66.0022C161.484 66.3238 160.85 66.6874 160.234 67.0912C159.6 67.4584 158.982 67.8676 158.384 68.3169Z" fill="#FF9A6C"/>
<path d="M157.524 72.4922C157.593 72.532 157.666 72.5605 157.741 72.5771C157.882 72.6214 158.09 72.6878 158.342 72.7432C158.647 72.8117 158.957 72.8377 159.266 72.8207C159.648 72.7954 160.021 72.6695 160.36 72.4516C160.963 72.0381 161.486 71.4702 161.894 70.7866C162.053 70.5319 162.177 70.3215 162.258 70.1738C162.306 70.0999 162.346 70.0194 162.378 69.9338C162.184 70.1857 162.001 70.4507 161.831 70.7276C161.415 71.3798 160.899 71.9254 160.312 72.3334C159.986 72.544 159.627 72.6697 159.26 72.7026C158.958 72.7257 158.656 72.7096 158.357 72.6546C157.846 72.5549 157.527 72.47 157.524 72.4922Z" fill="#FF9A6C"/>
<path d="M151.627 71.2296L151.756 71.1373L152.147 70.8752L153.651 69.8932L153.633 69.9191L154.319 66.7701L156.171 64.555L156.201 64.5181L156.237 64.544L157.185 65.1346H157.154L158.255 65.0719H158.321V65.1494C158.339 65.4041 158.298 65.6598 158.204 65.8877C158.096 66.0933 157.943 66.2572 157.762 66.3603C157.372 66.5681 156.946 66.6495 156.523 66.5966L156.592 66.5486L156.376 67.1134L156.291 66.9916L158.141 66.3381L159.945 65.3303C160.523 64.9611 161.265 64.6363 161.972 65.0202C162.014 65.0392 162.053 65.0686 162.086 65.1067C162.118 65.1448 162.144 65.1908 162.162 65.2417C162.193 65.3328 162.208 65.4309 162.207 65.5297C162.208 65.7171 162.187 65.9037 162.144 66.0834L162.044 65.9653C162.259 65.881 162.479 65.8229 162.703 65.7918C162.946 65.7382 163.197 65.7932 163.41 65.9468C163.47 66.0037 163.511 66.0869 163.524 66.1794C163.536 66.2611 163.536 66.345 163.524 66.4267C163.491 66.5664 163.451 66.7033 163.404 66.8365L163.338 67.0322C163.324 67.0705 163.308 67.1075 163.289 67.1429C163.269 67.1753 163.247 67.2061 163.223 67.2352C163.135 67.335 163.042 67.4275 162.944 67.5121C162.179 68.1169 161.39 68.6738 160.58 69.1807L159.404 69.9191C159.211 70.0446 159.019 70.1627 158.827 70.2882C158.739 70.3473 158.61 70.4138 158.598 70.4618C158.586 70.5097 158.631 70.6279 158.694 70.7017L158.64 70.6759L160.087 70.6353L160.035 70.6611C160.46 70.1426 160.925 69.6776 161.425 69.273C161.55 69.1746 161.683 69.0917 161.822 69.0257C161.969 68.9525 162.133 68.9434 162.285 68.9998C162.363 69.029 162.435 69.0812 162.493 69.152C162.551 69.2228 162.594 69.31 162.619 69.4059C162.656 69.5876 162.656 69.778 162.619 69.9597V69.9818L161.25 71.6173L161.268 71.5693C161.217 72.1452 161.166 72.7026 161.118 73.2453V73.2748L161.1 73.2933L159.768 74.6038H159.753H159.747L156.123 74.674H156.144L153.994 76.11L153.428 76.4792L153.284 76.5715C153.251 76.5936 153.233 76.601 153.233 76.5973L153.278 76.5604L153.419 76.4571L153.973 76.0657L156.105 74.5891H156.123L159.732 74.4857H159.699L161.022 73.1641L160.998 73.2158C161.046 72.6768 161.094 72.1193 161.142 71.5434V71.5286L161.157 71.5102L162.453 69.8822L162.435 69.9228C162.489 69.6237 162.435 69.2472 162.183 69.1844C162.051 69.1615 161.917 69.1727 161.789 69.2172C161.661 69.2617 161.542 69.3386 161.44 69.4428C160.95 69.8407 160.495 70.2983 160.081 70.8088L160.06 70.8346H160.047L158.604 70.8826H158.571L158.55 70.8568C158.504 70.8041 158.466 70.7431 158.436 70.6759C158.417 70.6353 158.405 70.5901 158.402 70.5436C158.399 70.497 158.404 70.4502 158.418 70.4064C158.452 70.3292 158.506 70.2682 158.571 70.2329L158.715 70.1406L159.293 69.7714L160.466 69.0331C161.27 68.5284 162.053 67.9739 162.811 67.3718C162.898 67.2882 162.979 67.1969 163.055 67.0986C163.073 67.0784 163.089 67.0561 163.103 67.0322C163.116 67.0096 163.126 66.9847 163.133 66.9583L163.202 66.7627C163.28 66.519 163.401 66.2089 163.265 66.0982C163.082 65.9757 162.869 65.9352 162.664 65.9837C162.451 66.0111 162.242 66.0655 162.038 66.1462L161.9 66.2015L161.939 66.028C161.977 65.8673 161.996 65.7007 161.996 65.5333C161.996 65.3709 161.951 65.2306 161.867 65.2011C161.563 65.0484 161.229 65.0123 160.908 65.0977C160.584 65.1861 160.271 65.3276 159.978 65.5186L158.195 66.5153L156.342 67.1614L156.192 67.2131L156.261 67.0396L156.481 66.4784L156.499 66.4267H156.55C156.946 66.4769 157.347 66.4033 157.714 66.2126C157.881 66.1133 158.02 65.9553 158.114 65.7585C158.194 65.5595 158.229 65.3377 158.216 65.1162L158.285 65.19L157.185 65.2454H157.166L156.222 64.6436H156.291L154.427 66.8587V66.8328C154.147 68.0585 153.907 69.118 153.711 69.9708V69.9892L152.183 70.938L151.786 71.1779L151.627 71.2296Z" fill="#FF9A6C"/>
<path d="M143.856 85.0808C143.916 85.033 143.979 84.991 144.045 84.9553L144.602 84.6157L146.707 83.3827L153.957 79.1741L153.918 79.2886C153.449 77.7159 152.944 76.014 152.415 74.2531C152.048 73.0053 151.687 71.7908 151.341 70.6168L151.443 70.6722L144.054 74.482H144.039C143.434 74.5463 142.838 74.7102 142.268 74.9693C141.839 75.1629 141.448 75.4633 141.119 75.8516C140.911 76.0978 140.745 76.3928 140.632 76.7192C140.596 76.8299 140.575 76.9185 140.56 76.9776C140.556 77.0093 140.549 77.0404 140.539 77.0699C140.533 77.0382 140.533 77.0055 140.539 76.9739C140.553 76.8823 140.573 76.7922 140.599 76.7044C140.703 76.3664 140.862 76.0585 141.068 75.7999C141.399 75.395 141.794 75.0783 142.229 74.8696C142.808 74.5943 143.415 74.4191 144.033 74.3491H144.015L151.383 70.4913L151.458 70.4544L151.485 70.5467C151.834 71.7206 152.195 72.9352 152.562 74.1793C153.085 75.9402 153.588 77.6458 154.066 79.2184L154.09 79.2997L154.027 79.3366L146.755 83.4786L144.65 84.6674L144.081 84.9775C144.008 85.0175 143.933 85.052 143.856 85.0808Z" fill="#263238"/>
<path d="M146.376 61.5611C146.197 61.2101 146.034 60.8478 145.886 60.4757C145.585 59.8002 145.158 58.8883 144.626 57.9211C144.093 56.9539 143.561 56.1269 143.161 55.5363C142.934 55.2308 142.722 54.9104 142.523 54.5764C142.523 54.5764 142.605 54.6429 142.731 54.7942C142.857 54.9456 143.032 55.1634 143.245 55.4477C144.341 56.9398 145.263 58.6107 145.985 60.413C146.12 60.7563 146.225 61.0406 146.286 61.2436C146.329 61.3432 146.359 61.4502 146.376 61.5611Z" fill="#263238"/>
<path d="M146.674 63.37C146.662 63.5299 146.633 63.6874 146.59 63.8389C146.524 64.1342 146.424 64.5772 146.289 65.083C146.033 66.1351 145.67 67.5822 145.255 69.1733C144.84 70.7645 144.443 72.2005 144.145 73.2342C143.994 73.7474 143.871 74.1645 143.778 74.4525C143.74 74.6046 143.687 74.7507 143.622 74.8881C143.643 74.7308 143.676 74.5764 143.721 74.4266C143.805 74.0981 143.913 73.6883 144.04 73.1899C144.322 72.1082 144.692 70.6869 145.104 69.129C145.516 67.5712 145.898 66.1388 146.184 65.0682L146.524 63.8425C146.56 63.679 146.611 63.5206 146.674 63.37Z" fill="#263238"/>
</svg>
