<svg width="200" height="160" viewBox="0 0 200 160" fill="none" xmlns="http://www.w3.org/2000/svg">
<path d="M200 140.606H0V140.713H200V140.606Z" fill="#EBEBEB"/>
<path d="M34.2319 144.694H20.9839V144.801H34.2319V144.694Z" fill="#EBEBEB"/>
<path d="M90.624 143.53H68.4561V143.638H90.624V143.53Z" fill="#EBEBEB"/>
<path d="M44.0759 147.245H36.3999V147.352H44.0759V147.245Z" fill="#EBEBEB"/>
<path d="M171.46 144.642H154.184V144.75H171.46V144.642Z" fill="#EBEBEB"/>
<path d="M177.556 144.642H175.024V144.75H177.556V144.642Z" fill="#EBEBEB"/>
<path d="M129.62 146.15H110.884V146.257H129.62V146.15Z" fill="#EBEBEB"/>
<path d="M94.8001 121.452H17.5642C16.9591 121.45 16.3792 121.192 15.9517 120.732C15.5243 120.272 15.2842 119.649 15.2842 118.999V2.43075C15.2894 1.78485 15.5319 1.16727 15.9588 0.71214C16.3857 0.257014 16.9626 0.00110646 17.5642 0H94.8001C95.4059 0 95.9868 0.258359 96.4152 0.718239C96.8435 1.17812 97.0841 1.80185 97.0841 2.45222V118.999C97.0841 119.65 96.8435 120.273 96.4152 120.733C95.9868 121.193 95.4059 121.452 94.8001 121.452ZM17.5642 0.0858925C16.9856 0.0870302 16.4312 0.334578 16.0224 0.774201C15.6137 1.21382 15.3842 1.8096 15.3842 2.43075V118.999C15.3842 119.621 15.6137 120.216 16.0224 120.656C16.4312 121.096 16.9856 121.343 17.5642 121.344H94.8001C95.379 121.343 95.9339 121.096 96.3433 120.656C96.7526 120.217 96.9831 119.621 96.9841 118.999V2.43075C96.9831 1.8092 96.7526 1.21344 96.3433 0.773939C95.9339 0.334439 95.379 0.0870278 94.8001 0.0858925H17.5642Z" fill="#EBEBEB"/>
<path d="M181.324 121.452H104.084C103.478 121.45 102.898 121.192 102.47 120.732C102.042 120.272 101.801 119.649 101.8 118.999V2.43075C101.806 1.78446 102.049 1.16688 102.477 0.711872C102.904 0.256864 103.482 0.00109439 104.084 0H181.324C181.925 0.00223513 182.501 0.258643 182.927 0.713647C183.353 1.16865 183.594 1.78559 183.6 2.43075V118.999C183.6 119.648 183.36 120.271 182.934 120.73C182.507 121.19 181.928 121.449 181.324 121.452ZM104.084 0.0858925C103.505 0.0870278 102.95 0.334439 102.541 0.773939C102.131 1.21344 101.901 1.8092 101.9 2.43075V118.999C101.901 119.621 102.131 120.217 102.541 120.656C102.95 121.096 103.505 121.343 104.084 121.344H181.324C181.903 121.343 182.458 121.096 182.867 120.656C183.276 120.217 183.507 119.621 183.508 118.999V2.43075C183.507 1.8092 183.276 1.21344 182.867 0.773939C182.458 0.334439 181.903 0.0870278 181.324 0.0858925H104.084Z" fill="#EBEBEB"/>
<path d="M119.136 8.32725H41.9121V67.8462H119.136V8.32725Z" fill="#FAFAFA"/>
<path d="M114.74 67.8505L95.0999 8.32725H80.3599L99.9998 67.8505H114.74Z" fill="white"/>
<path d="M75.1039 67.8505L55.4639 8.32725H50.0879L69.7279 67.8505H75.1039Z" fill="white"/>
<path d="M38.2322 6.28301H122.82C122.865 6.28301 122.91 6.29259 122.951 6.31121C122.993 6.32982 123.03 6.35709 123.062 6.39145C123.094 6.4258 123.119 6.46655 123.135 6.51133C123.152 6.55612 123.161 6.60405 123.16 6.65235C123.16 6.74916 123.124 6.84202 123.061 6.91047C122.997 6.97893 122.91 7.01739 122.82 7.01739H38.2322C38.1416 7.0174 38.0547 6.97908 37.9903 6.91074C37.9259 6.8424 37.8892 6.74956 37.8882 6.65235C37.8882 6.55439 37.9244 6.46045 37.9889 6.39119C38.0534 6.32193 38.1409 6.28301 38.2322 6.28301Z" fill="#E0E0E0"/>
<path d="M80.9839 8.20271H80.0679V67.9794H80.9839V8.20271Z" fill="#F0F0F0"/>
<path d="M80.0639 8.20271H79.6079V67.9794H80.0639V8.20271Z" fill="#E0E0E0"/>
<path d="M41.3799 37.595V38.5785L119.672 38.5785V37.595L41.3799 37.595Z" fill="#F0F0F0"/>
<path d="M41.3799 67.4254V7.7303H119.668V67.4254V68.4088H41.3799V67.4254ZM118.756 67.4254V8.73953H42.2959V67.4254H118.756Z" fill="#F0F0F0"/>
<path d="M41.3759 7.75607H40.9199V68.4217H41.3759V7.75607Z" fill="#E0E0E0"/>
<path opacity="0.5" d="M52.7321 5.38115V75.2802H36.2041L39.2361 5.38115H52.7321Z" fill="#EBEBEB"/>
<path opacity="0.5" d="M107.86 5.38115V75.2802H124.388L121.356 5.38115H107.86Z" fill="#EBEBEB"/>
<path d="M31.0721 83.6547H24.7681V138.553H31.0721V83.6547Z" fill="#F0F0F0"/>
<path d="M95.4319 138.553H25.98V140.606H95.4319V138.553Z" fill="#F0F0F0"/>
<path d="M31.0761 138.553H96.644V83.6547H31.0761V138.553Z" fill="#F5F5F5"/>
<path d="M30.4201 81.8639H23.9761V83.6547H30.4201V81.8639Z" fill="#F0F0F0"/>
<path d="M30.4162 83.6547L97.4321 83.6547V81.8639L30.4162 81.8639V83.6547Z" fill="#FAFAFA"/>
<path d="M94.3758 114.55H33.3398V87.4125H94.3758V114.55ZM33.7638 114.095H93.9518V87.8677H33.7638V114.095Z" fill="#E0E0E0"/>
<path d="M94.3758 134.791H33.3398V117.264H94.3758V134.791ZM33.7638 134.335H93.9518V117.72H33.7638V134.335Z" fill="#E0E0E0"/>
<path d="M85.5919 87.6401H42.124C41.8147 87.6401 41.564 87.9093 41.564 88.2414V88.4947C41.564 88.8268 41.8147 89.096 42.124 89.096H85.5919C85.9012 89.096 86.1519 88.8268 86.1519 88.4947V88.2414C86.1519 87.9093 85.9012 87.6401 85.5919 87.6401Z" fill="#E0E0E0"/>
<path d="M85.5919 117.492H42.124C41.8147 117.492 41.564 117.761 41.564 118.093V118.347C41.564 118.679 41.8147 118.948 42.124 118.948H85.5919C85.9012 118.948 86.1519 118.679 86.1519 118.347V118.093C86.1519 117.761 85.9012 117.492 85.5919 117.492Z" fill="#E0E0E0"/>
<path d="M139.144 137.969H175.816V17.8398H139.144V137.969Z" fill="#F0F0F0"/>
<path d="M139.144 17.8441H137.98V137.973H139.144V17.8441Z" fill="#E0E0E0"/>
<path d="M145.096 133.386H169.868V22.4222H145.096V133.386Z" fill="#FAFAFA"/>
<path d="M99.9998 160C142.833 160 177.556 157.823 177.556 155.138C177.556 152.454 142.833 150.277 99.9998 150.277C57.1668 150.277 22.4438 152.454 22.4438 155.138C22.4438 157.823 57.1668 160 99.9998 160Z" fill="#F5F5F5"/>
<path d="M57.3443 151.398L60.4763 150.122L58.5563 141.997L55.4243 143.272L57.3443 151.398Z" fill="#FCBFB9"/>
<path d="M33.8125 151.467H37.1605L37.6645 143.135H34.3125L33.8125 151.467Z" fill="#FCBFB9"/>
<path d="M37.4961 151.05H33.4121C33.3465 151.049 33.2827 151.073 33.2321 151.118C33.1816 151.163 33.1475 151.225 33.1361 151.295L32.6241 154.49C32.6138 154.57 32.6196 154.651 32.641 154.728C32.6624 154.805 32.699 154.877 32.7483 154.937C32.7976 154.998 32.8584 155.046 32.9267 155.08C32.995 155.113 33.0691 155.13 33.1441 155.13C34.4561 155.104 35.4121 155.023 37.0681 155.023C38.0841 155.023 41.1601 155.138 42.5681 155.138C43.9761 155.138 44.0881 153.644 43.5041 153.507C40.8961 152.901 38.9121 152.068 38.0481 151.269C37.894 151.128 37.6984 151.051 37.4961 151.05Z" fill="#263238"/>
<path d="M60.3162 149.744L56.8962 151.136C56.8338 151.161 56.7813 151.209 56.7472 151.27C56.7131 151.332 56.6993 151.404 56.7082 151.475L57.1482 154.713C57.1559 154.793 57.1807 154.87 57.2207 154.938C57.2607 155.006 57.3148 155.063 57.3788 155.104C57.4427 155.146 57.5148 155.171 57.5893 155.178C57.6638 155.184 57.7387 155.172 57.8082 155.143C59.0322 154.619 60.0762 153.953 61.6362 153.352C63.4184 152.73 65.1324 151.902 66.7482 150.883C67.9082 150.092 67.4202 148.589 66.8722 148.825C64.3842 149.899 63.7722 150.251 61.1602 149.71C60.8813 149.637 60.5891 149.649 60.3162 149.744Z" fill="#263238"/>
<path d="M51.4802 41.8682C52.5322 43.8694 53.6442 45.9309 54.7642 47.9236C55.8842 49.9163 57.0322 51.909 58.2522 53.7642C58.5442 54.2323 58.8722 54.6833 59.1682 55.117C59.2338 55.2433 59.3222 55.3543 59.4282 55.4434C59.6155 55.5464 59.8285 55.5825 60.0362 55.5465C60.4185 55.5046 60.7939 55.4078 61.1522 55.2587C62.0598 54.8764 62.9262 54.3897 63.7362 53.8072C64.1682 53.5023 64.6082 53.1888 65.0362 52.8538C65.4642 52.5188 65.8962 52.158 66.2882 51.8359L68.1642 53.6311C67.822 54.1619 67.4549 54.6736 67.0642 55.1643C66.6865 55.6592 66.286 56.1337 65.8642 56.5858C65.4315 57.0539 64.9733 57.4941 64.4922 57.9042C63.9909 58.3444 63.4556 58.7381 62.8922 59.081C62.2563 59.4765 61.5725 59.7757 60.8602 59.9699C59.9747 60.2152 59.0457 60.2152 58.1602 59.9699C57.2032 59.6839 56.3452 59.1031 55.6922 58.2993C55.2922 57.8012 54.8922 57.333 54.5322 56.8392C53.0837 54.9097 51.7363 52.8953 50.4962 50.8052C49.2562 48.7352 48.0962 46.6609 47.0322 44.4535L51.4802 41.8682Z" fill="#B65B52"/>
<path d="M45.5365 42.0356C44.6365 45.3339 50.9925 54.3268 50.9925 54.3268L57.3925 49.8991C56.1854 47.0389 54.6955 44.3264 52.9485 41.808C50.3365 38.222 46.5285 38.4153 45.5365 42.0356Z" fill="#FF725E"/>
<path opacity="0.2" d="M45.5365 42.0356C44.6365 45.3339 50.9925 54.3268 50.9925 54.3268L57.3925 49.8991C56.1854 47.0389 54.6955 44.3264 52.9485 41.808C50.3365 38.222 46.5285 38.4153 45.5365 42.0356Z" fill="black"/>
<path opacity="0.2" d="M49.4443 45.9051C50.7643 46.5106 52.7043 49.9206 53.7163 52.4501L50.9923 54.3268C49.4738 52.1476 48.1074 49.8509 46.9043 47.4554C47.7643 46.429 48.7483 45.5873 49.4443 45.9051Z" fill="black"/>
<path d="M65.8921 52.9568L67.0681 49.4224L70.4001 51.1402C70.4001 51.1402 69.7081 54.2882 67.2681 54.2839L65.8921 52.9568Z" fill="#FCBFB9"/>
<path d="M70.0324 47.099L71.4444 48.7696L70.4004 51.1316L67.0684 49.4224L70.0324 47.099Z" fill="#FCBFB9"/>
<path opacity="0.2" d="M58.5563 142.001L59.5443 146.189L56.4123 147.464L55.4243 143.277L58.5563 142.001Z" fill="black"/>
<path opacity="0.2" d="M34.3122 143.139H37.6642L37.4042 147.43H34.0522L34.3122 143.139Z" fill="black"/>
<path d="M30.6084 40.5755C34.2084 54.2366 33.6244 68.7309 33.8484 71.677L51.7524 70.9556C54.7964 50.5905 49.3524 39.257 49.3524 39.257C49.3524 39.257 48.2044 39.0208 46.6404 38.849C46.1524 38.7932 45.6244 38.746 45.0724 38.7159C44.7684 38.6944 44.4604 38.6859 44.1484 38.6773C41.6062 38.7234 39.0687 38.9271 36.5484 39.2871C36.0724 39.3515 35.5884 39.4245 35.1164 39.5104C34.6444 39.5963 34.2564 39.6736 33.8524 39.7595C32.0004 40.1503 30.6084 40.5755 30.6084 40.5755Z" fill="#FF725E"/>
<path opacity="0.2" d="M30.6084 40.5755C34.2084 54.2366 33.6244 68.7309 33.8484 71.677L51.7524 70.9556C54.7964 50.5905 49.3524 39.257 49.3524 39.257C49.3524 39.257 48.2044 39.0208 46.6404 38.849C46.1524 38.7932 45.6244 38.746 45.0724 38.7159C44.7684 38.6944 44.4604 38.6859 44.1484 38.6773C41.6062 38.7234 39.0687 38.9271 36.5484 39.2871C36.0724 39.3515 35.5884 39.4245 35.1164 39.5104C34.6444 39.5963 34.2564 39.6736 33.8524 39.7595C32.0004 40.1503 30.6084 40.5755 30.6084 40.5755Z" fill="black"/>
<path opacity="0.2" d="M34.4202 46.4376C34.7402 47.7561 34.3722 53.79 33.0882 55.2759C32.9122 53.3434 32.6882 51.3292 32.3682 49.2635L34.4202 46.4376Z" fill="black"/>
<path d="M36.6482 30.0623C37.3082 32.639 38.1202 37.4146 36.5322 39.3C37.9602 40.6141 39.8082 42.1129 42.7162 41.9884C45.6242 41.8639 44.9722 39.7638 44.1282 38.6944C41.3522 38.2134 41.2722 36.0404 41.6082 33.9704L36.6482 30.0623Z" fill="#FCBFB9"/>
<path d="M42.7926 41.5289L43.3206 41.9111L41.3926 42.5166L41.8886 41.5546L42.7926 41.5289Z" fill="#FF725E"/>
<path d="M43.5203 41.327L43.3203 41.9111L45.2563 42.5166L45.1243 41.4043L43.5203 41.327Z" fill="#FF725E"/>
<path d="M35.3761 39.081L36.1361 38.673C36.2577 38.6076 36.3936 38.5794 36.5291 38.5915C36.6646 38.6036 36.7943 38.6556 36.9041 38.7417C38.6622 40.1109 40.6724 41.0611 42.8001 41.5289C41.2721 42.3105 41.6481 44.4149 41.6481 44.4149C41.6481 44.4149 36.7881 42.697 35.2481 39.5791C35.2045 39.4946 35.1935 39.3951 35.2175 39.302C35.2414 39.2089 35.2984 39.1295 35.3761 39.081Z" fill="white"/>
<path d="M44.9765 38.5441L43.8605 38.3638C43.8317 38.3588 43.8022 38.3631 43.7756 38.3761C43.7491 38.3891 43.7267 38.4102 43.7113 38.4368C43.6959 38.4635 43.6882 38.4944 43.6891 38.5257C43.69 38.557 43.6996 38.5873 43.7165 38.6128C44.1165 39.2098 44.7565 40.5196 43.5205 41.327C45.0485 42.1087 45.5205 44.0283 45.5205 44.0283C45.5205 44.0283 47.5205 41.7221 45.1925 38.6773C45.1369 38.6076 45.0606 38.5605 44.9765 38.5441Z" fill="white"/>
<path opacity="0.2" d="M38.6685 31.6341L41.6005 33.9274C41.5158 34.4118 41.4716 34.9033 41.4685 35.3962C40.4165 35.3189 38.9005 34.2066 38.7085 33.0427C38.6175 32.5795 38.6039 32.1025 38.6685 31.6341Z" fill="black"/>
<path d="M45.1484 24.7413C45.0124 25.991 43.8964 27.0646 43.1764 27.318L42.2764 21.9025C44.2964 20.3693 45.3364 22.9891 45.1484 24.7413Z" fill="#263238"/>
<path d="M35.6362 26.2401C36.2202 29.7531 36.3922 31.8445 38.2522 33.455C41.0522 35.8772 44.9442 33.7513 45.3522 30.1224C45.7202 26.8542 44.7042 21.6577 41.3282 20.6485C40.5846 20.4225 39.7995 20.4044 39.0474 20.5957C38.2954 20.7869 37.6013 21.1814 37.0311 21.7415C36.4609 22.3017 36.0335 23.0089 35.7894 23.7962C35.5452 24.5835 35.4925 25.4248 35.6362 26.2401Z" fill="#FCBFB9"/>
<path d="M36.2605 28.6107C37.7765 29.4696 38.4405 27.5327 38.4565 26.7425C38.4565 25.4885 37.9685 24.1099 37.3645 23.6075C40.2925 23.6075 46.0845 23.4529 44.6205 20.4595C43.1565 17.4662 40.2205 17.8055 38.0325 19.446C36.8685 20.3049 33.1005 19.5577 34.0325 21.8896C32.0685 23.0105 33.7725 27.1892 36.2605 28.6107Z" fill="#263238"/>
<path d="M34.3522 21.6964C33.8302 21.6936 33.3232 21.5081 32.9082 21.1681C32.9762 21.4821 33.1382 21.7634 33.3694 21.9689C33.6006 22.1745 33.8883 22.293 34.1882 22.3062L34.3522 21.6964Z" fill="#263238"/>
<path d="M34.4005 29.1303C34.7759 29.9387 35.4326 30.5558 36.2285 30.8482C37.2845 31.2132 37.5245 30.1739 37.2685 29.0831C37.0365 28.0953 36.5405 26.7597 35.4645 26.8671C34.3885 26.9744 33.9525 28.1426 34.4005 29.1303Z" fill="#FCBFB9"/>
<path d="M55.6525 108.976C54.2925 98.0975 51.7525 70.9556 51.7525 70.9556L40.0005 71.4323C40.0005 71.4323 45.5525 98.5527 47.5605 109.551C49.5685 120.55 55.1605 147.09 55.1605 147.09L60.4645 144.943C60.4645 144.943 57.0725 120.288 55.6525 108.976Z" fill="#263238"/>
<path opacity="0.2" d="M44.4003 78.7417C43.4325 78.9898 42.5341 79.4831 41.7803 80.1804C42.8923 85.6646 44.3443 92.8838 45.5923 99.2442C46.4243 93.7342 46.4483 83.3369 44.4003 78.7417Z" fill="black"/>
<path d="M45.4046 71.2132C45.4046 71.2132 42.9046 100.657 41.7606 111.119C40.5086 122.581 38.9606 146.601 38.9606 146.601H32.8006C32.8006 146.601 32.5486 125.355 33.3446 114.138C34.2526 101.361 33.8446 71.677 33.8446 71.677L45.4046 71.2132Z" fill="#263238"/>
<path d="M39.7603 146.743H32.5363L32.3843 144.423L40.4483 144.273L39.7603 146.743Z" fill="#FF725E"/>
<path d="M61.1564 144.797L54.8364 147.37L54.0645 145.175L61.0884 142.186L61.1564 144.797Z" fill="#FF725E"/>
<path d="M40.7446 26.6266C40.7726 26.9186 40.9406 27.1333 41.1166 27.1119C41.2926 27.0904 41.4086 26.837 41.3766 26.5493C41.3446 26.2615 41.1806 26.0468 41.0046 26.0683C40.8286 26.0898 40.7126 26.3217 40.7446 26.6266Z" fill="#263238"/>
<path d="M43.7763 26.2358C43.8083 26.5235 43.9763 26.7382 44.1483 26.7168C44.3203 26.6953 44.4443 26.4462 44.4123 26.1585C44.3803 25.8707 44.2123 25.6517 44.0363 25.6732C43.8603 25.6947 43.7443 25.948 43.7763 26.2358Z" fill="#263238"/>
<path d="M42.8281 26.4977C43.2418 27.3389 43.7613 28.1149 44.3721 28.8039C44.2057 28.97 44.0072 29.0946 43.7908 29.1689C43.5744 29.2431 43.3454 29.2651 43.1201 29.2334L42.8281 26.4977Z" fill="#796464"/>
<path d="M42.0724 30.131C41.7686 30.1302 41.4682 30.0628 41.1896 29.9328C40.9111 29.8028 40.6602 29.613 40.4524 29.3751C40.4446 29.3666 40.4386 29.3564 40.4347 29.3452C40.4308 29.3339 40.4292 29.322 40.4298 29.3101C40.4305 29.2981 40.4335 29.2865 40.4386 29.2758C40.4437 29.2652 40.4508 29.2558 40.4595 29.2483C40.4681 29.2408 40.4782 29.2354 40.4889 29.2323C40.4997 29.2291 40.5109 29.2285 40.5219 29.2303C40.5329 29.2321 40.5435 29.2364 40.5528 29.2429C40.5622 29.2493 40.5702 29.2578 40.5764 29.2678C40.8103 29.5267 41.0975 29.7231 41.4151 29.8409C41.7326 29.9588 42.0715 29.9949 42.4044 29.9463C42.4147 29.9445 42.4252 29.945 42.4353 29.9477C42.4454 29.9505 42.4549 29.9554 42.4632 29.9623C42.4714 29.9691 42.4783 29.9777 42.4833 29.9875C42.4883 29.9974 42.4914 30.0082 42.4924 30.0193C42.4947 30.0415 42.4889 30.0637 42.4762 30.0813C42.4635 30.099 42.4449 30.1106 42.4244 30.1138C42.3077 30.13 42.19 30.1357 42.0724 30.131Z" fill="#263238"/>
<path d="M39.6965 25.6732C39.6704 25.6815 39.6426 25.6815 39.6165 25.6732C39.5985 25.6621 39.5827 25.6472 39.5701 25.6295C39.5575 25.6118 39.5483 25.5915 39.5431 25.5699C39.5379 25.5483 39.5367 25.5258 39.5397 25.5037C39.5427 25.4816 39.5498 25.4604 39.5605 25.4413C39.6825 25.2059 39.8549 25.0052 40.0637 24.8558C40.2724 24.7064 40.5113 24.6127 40.7605 24.5823C40.7816 24.5812 40.8026 24.5845 40.8224 24.5921C40.8422 24.5997 40.8605 24.6114 40.8761 24.6265C40.8917 24.6417 40.9044 24.66 40.9134 24.6804C40.9224 24.7008 40.9275 24.723 40.9285 24.7455C40.9296 24.7679 40.9265 24.7902 40.9194 24.8113C40.9123 24.8323 40.9013 24.8516 40.8872 24.868C40.873 24.8844 40.8559 24.8976 40.8369 24.9069C40.8179 24.9161 40.7974 24.9211 40.7765 24.9216C40.5784 24.9486 40.389 25.0252 40.2237 25.1453C40.0583 25.2654 39.9215 25.4257 39.8245 25.6131C39.8097 25.6339 39.7902 25.6504 39.7678 25.6609C39.7454 25.6714 39.7209 25.6756 39.6965 25.6732Z" fill="#263238"/>
<path d="M44.9642 24.956C44.9377 24.9549 44.9118 24.9468 44.8888 24.9326C44.8658 24.9184 44.8464 24.8984 44.8322 24.8744C44.7306 24.6901 44.5893 24.5346 44.4201 24.4211C44.251 24.3075 44.059 24.2391 43.8602 24.2216C43.8178 24.2216 43.7771 24.2035 43.7471 24.1713C43.7171 24.1391 43.7002 24.0954 43.7002 24.0498C43.7002 24.0043 43.7171 23.9606 43.7471 23.9283C43.7771 23.8961 43.8178 23.878 43.8602 23.878C44.1115 23.8999 44.3545 23.9851 44.5693 24.1269C44.7841 24.2688 44.9646 24.4631 45.0962 24.694C45.1073 24.7126 45.1148 24.7334 45.1184 24.7551C45.122 24.7768 45.1216 24.7991 45.1171 24.8207C45.1127 24.8422 45.1043 24.8626 45.0924 24.8807C45.0806 24.8987 45.0656 24.9141 45.0482 24.9259C45.0236 24.9447 44.9944 24.9551 44.9642 24.956Z" fill="#263238"/>
<path d="M38.6325 151.677C38.3343 151.669 38.0379 151.626 37.7485 151.548C37.7333 151.544 37.7196 151.536 37.7089 151.523C37.6983 151.511 37.6912 151.496 37.6885 151.479C37.6845 151.463 37.6854 151.446 37.6912 151.431C37.697 151.415 37.7072 151.402 37.7205 151.394C37.8365 151.312 38.8845 150.599 39.2645 150.801C39.3064 150.824 39.3421 150.858 39.368 150.9C39.394 150.942 39.4093 150.991 39.4125 151.041C39.4266 151.124 39.4208 151.208 39.3956 151.287C39.3704 151.366 39.3266 151.437 39.2685 151.492C39.0831 151.632 38.8581 151.697 38.6325 151.677ZM37.9765 151.428C38.5485 151.548 38.9845 151.527 39.1765 151.364C39.2151 151.325 39.244 151.276 39.2608 151.222C39.2776 151.168 39.2816 151.11 39.2725 151.054C39.2725 150.986 39.2365 150.964 39.2165 150.956C39.0045 150.848 38.4005 151.17 37.9765 151.428Z" fill="#FF725E"/>
<path d="M37.7686 151.548C37.7541 151.552 37.739 151.552 37.7246 151.548C37.7125 151.54 37.7026 151.528 37.6956 151.515C37.6887 151.501 37.6849 151.486 37.6846 151.471C37.6846 151.428 37.7206 150.389 38.0846 150.049C38.1285 150.005 38.1812 149.972 38.2387 149.953C38.2962 149.933 38.357 149.928 38.4166 149.938C38.4773 149.939 38.5361 149.961 38.5839 150.001C38.6316 150.042 38.6656 150.098 38.6806 150.161C38.7686 150.56 38.1366 151.351 37.7966 151.553C37.787 151.554 37.7774 151.552 37.7686 151.548ZM38.3766 150.092C38.3116 150.093 38.2491 150.119 38.2006 150.165C37.9792 150.494 37.859 150.889 37.8566 151.295C38.1886 151.011 38.5846 150.436 38.5326 150.178C38.5326 150.157 38.5326 150.11 38.4126 150.092H38.3766Z" fill="#FF725E"/>
<path d="M60.8005 150.084C60.7855 150.084 60.7707 150.08 60.7578 150.072C60.745 150.063 60.7348 150.051 60.7285 150.036C60.7199 150.022 60.7153 150.006 60.7153 149.989C60.7153 149.972 60.7199 149.956 60.7285 149.942C60.8445 149.805 61.8605 148.606 62.3285 148.679C62.3719 148.685 62.4133 148.702 62.4484 148.73C62.4835 148.758 62.5112 148.795 62.5285 148.838C62.5601 148.905 62.5766 148.978 62.5766 149.053C62.5766 149.128 62.5601 149.201 62.5285 149.268C62.3005 149.732 61.3565 149.968 60.8125 150.062L60.8005 150.084ZM62.2765 148.847C62.0085 148.847 61.4245 149.409 61.0165 149.869C61.7525 149.71 62.2565 149.465 62.3845 149.203C62.4063 149.158 62.4176 149.108 62.4176 149.057C62.4176 149.007 62.4063 148.956 62.3845 148.911C62.3783 148.894 62.368 148.879 62.3546 148.868C62.3413 148.857 62.3254 148.849 62.3085 148.847H62.2765Z" fill="#FF725E"/>
<path d="M60.8002 150.084H60.7762C60.7628 150.08 60.7506 150.072 60.7408 150.062C60.731 150.051 60.7239 150.038 60.7202 150.024C60.7202 149.985 60.4762 149.044 60.7482 148.529C60.7866 148.455 60.8387 148.39 60.9013 148.338C60.9639 148.287 61.0357 148.249 61.1122 148.228C61.3242 148.164 61.4202 148.254 61.4682 148.336C61.6602 148.692 61.1682 149.727 60.8522 150.054C60.8465 150.063 60.8387 150.07 60.8297 150.076C60.8206 150.081 60.8105 150.084 60.8002 150.084ZM61.2362 148.366H61.1522C61.0958 148.38 61.0429 148.408 60.9973 148.446C60.9517 148.485 60.9145 148.534 60.8882 148.589C60.7558 148.976 60.739 149.398 60.8402 149.796C61.1362 149.367 61.4442 148.611 61.3282 148.396C61.3122 148.405 61.2922 148.37 61.2242 148.374L61.2362 148.366Z" fill="#FF725E"/>
<path d="M34.2883 45.6603C33.2843 47.8806 32.2603 50.1739 31.2683 52.4329C30.7763 53.571 30.2803 54.7047 29.8163 55.8428L29.1203 57.5607L28.8003 58.4067L28.7203 58.6214L28.6603 58.7803C28.6203 58.8791 28.5923 58.9865 28.5563 59.0852C28.3081 59.9314 28.2641 60.8313 28.4283 61.7007C28.6243 62.7102 28.9802 63.6762 29.4803 64.5566C30.0309 65.5419 30.6685 66.4681 31.3843 67.3223C31.7483 67.7518 32.1323 68.207 32.5323 68.6107C32.7323 68.8168 32.9323 69.0402 33.1443 69.2248C33.3563 69.4095 33.5683 69.6543 33.7443 69.8046L32.4003 72.1022C31.8223 71.7867 31.2626 71.4339 30.7243 71.0457C30.1923 70.6721 29.6723 70.277 29.1683 69.8475C28.1303 68.9645 27.1908 67.9558 26.3683 66.8413C25.4725 65.6448 24.7879 64.2824 24.3483 62.8216C23.8804 61.2105 23.8128 59.4961 24.1523 57.8484C24.2043 57.6466 24.2443 57.4189 24.3043 57.2386L24.4603 56.706L24.7403 55.7569C24.9403 55.1342 25.1403 54.5072 25.3483 53.8931C25.7683 52.6605 26.2083 51.4408 26.6843 50.2384C27.6003 47.842 28.6283 45.5229 29.7723 43.1737L34.2883 45.6603Z" fill="#B65B52"/>
<path d="M30.6083 40.5755C27.5523 41.6019 24.5483 52.7292 24.5483 52.7292L31.6003 56.0533C31.6003 56.0533 33.8883 50.6764 35.2003 46.4634C36.6523 41.8725 34.3083 39.33 30.6083 40.5755Z" fill="#FF725E"/>
<path opacity="0.2" d="M30.6083 40.5755C27.5523 41.6019 24.5483 52.7292 24.5483 52.7292L31.6003 56.0533C31.6003 56.0533 33.8883 50.6764 35.2003 46.4634C36.6523 41.8725 34.3083 39.33 30.6083 40.5755Z" fill="black"/>
<path d="M32.9844 69.1089L35.9084 70.9727L33.0644 74.0133C33.0644 74.0133 30.5964 71.9734 31.3324 70.3758L32.9844 69.1089Z" fill="#FCBFB9"/>
<path d="M37.8644 73.9489L34.9285 76.1563L33.0645 74.0133L35.9084 70.9727L37.8644 73.9489Z" fill="#FCBFB9"/>
<path d="M179.346 68.3016L179.207 70.3705L179.605 70.4015L179.745 68.3326L179.346 68.3016Z" fill="#FF725E"/>
<path d="M179.873 60.4678L179.468 66.4689L179.867 66.4999L180.272 60.4988L179.873 60.4678Z" fill="#FF725E"/>
<path d="M168.928 127.979H70.9557C70.256 127.988 69.5623 127.84 68.9193 127.543C68.2763 127.247 67.6981 126.81 67.2219 126.259C66.7458 125.709 66.3821 125.057 66.1544 124.347C65.9267 123.637 65.8399 122.883 65.8997 122.134L71.0997 44.4879C71.2286 42.9157 71.8942 41.4501 72.9685 40.3728C74.0427 39.2955 75.45 38.6825 76.9197 38.6515H174.892C175.591 38.6421 176.285 38.7901 176.928 39.0859C177.571 39.3817 178.149 39.8187 178.625 40.3688C179.101 40.919 179.465 41.5701 179.693 42.2802C179.921 42.9904 180.007 43.7438 179.948 44.4922L174.748 122.139C174.62 123.712 173.954 125.178 172.88 126.256C171.806 127.335 170.398 127.948 168.928 127.979Z" fill="#FF725E"/>
<path d="M146.14 155.138H114.336L108.668 112.948H140.472L146.14 155.138Z" fill="#FF725E"/>
<path d="M141.088 152.622H106.688L106.004 155.138H140.408L141.088 152.622Z" fill="#FF725E"/>
<path d="M142.148 133.257L111.152 131.441L108.668 112.948H139.42L142.148 133.257Z" fill="#263238"/>
<path d="M167.824 127.979H69.8479C69.1472 127.988 68.4527 127.838 67.8091 127.541C67.1656 127.243 66.5873 126.804 66.1116 126.252C65.636 125.699 65.2734 125.046 65.0475 124.334C64.8216 123.622 64.7372 122.867 64.7999 122.117L69.9999 44.4708C70.1324 42.9031 70.7984 41.4429 71.8707 40.3693C72.9429 39.2958 74.3461 38.6842 75.8119 38.6516H173.788C174.487 38.6428 175.18 38.7912 175.823 39.0873C176.465 39.3833 177.043 39.8204 177.519 40.3705C177.995 40.9206 178.358 41.5715 178.585 42.2813C178.813 42.9912 178.9 43.7443 178.84 44.4922L173.64 122.139C173.513 123.711 172.848 125.178 171.775 126.256C170.701 127.334 169.294 127.948 167.824 127.979Z" fill="#263238"/>
<path d="M178.587 45.2204L175.613 89.7614L175.996 89.7909L178.97 45.2498L178.587 45.2204Z" fill="white"/>
<path d="M175.368 93.6395L174.338 109.065L174.721 109.094L175.751 93.669L175.368 93.6395Z" fill="white"/>
<path d="M167.6 126.511H70.2478C69.7032 126.517 69.1634 126.401 68.6631 126.17C68.1628 125.939 67.713 125.598 67.3427 125.169C66.9724 124.741 66.6897 124.234 66.5129 123.681C66.336 123.128 66.2689 122.541 66.3158 121.958L71.4798 44.6296C71.5794 43.4032 72.0985 42.2599 72.9368 41.4201C73.7751 40.5803 74.8734 40.1035 76.0198 40.0816H173.388C173.932 40.0753 174.471 40.1912 174.971 40.4219C175.471 40.6526 175.921 40.9931 176.291 41.4213C176.661 41.8496 176.944 42.3562 177.121 42.9087C177.298 43.4612 177.366 44.0474 177.32 44.6296L172.156 121.967C172.055 123.195 171.533 124.34 170.691 125.179C169.85 126.019 168.748 126.493 167.6 126.511Z" fill="white"/>
<path opacity="0.2" d="M167.6 126.511H70.2478C69.7032 126.517 69.1634 126.401 68.6631 126.17C68.1628 125.939 67.713 125.598 67.3427 125.169C66.9724 124.741 66.6897 124.234 66.5129 123.681C66.336 123.128 66.2689 122.541 66.3158 121.958L71.4798 44.6296C71.5794 43.4032 72.0985 42.2599 72.9368 41.4201C73.7751 40.5803 74.8734 40.1035 76.0198 40.0816H173.388C173.932 40.0753 174.471 40.1912 174.971 40.4219C175.471 40.6526 175.921 40.9931 176.291 41.4213C176.661 41.8496 176.944 42.3562 177.121 42.9087C177.298 43.4612 177.366 44.0474 177.32 44.6296L172.156 121.967C172.055 123.195 171.533 124.34 170.691 125.179C169.85 126.019 168.748 126.493 167.6 126.511Z" fill="#FF725E"/>
<path opacity="0.5" d="M95.2237 123.084H72.4877C72.2246 123.087 71.9636 123.031 71.7217 122.92C71.4799 122.808 71.2624 122.644 71.0834 122.437C70.9044 122.229 70.7678 121.984 70.6824 121.717C70.5971 121.45 70.5648 121.166 70.5877 120.885L75.6037 45.729C75.6512 45.1356 75.9021 44.5822 76.3078 44.176C76.7134 43.7698 77.2451 43.5397 77.7997 43.5302H100.536C100.799 43.526 101.06 43.5813 101.302 43.6925C101.545 43.8037 101.762 43.9683 101.941 44.1756C102.121 44.3829 102.257 44.6283 102.342 44.8959C102.427 45.1635 102.459 45.4474 102.436 45.729L97.4197 120.885C97.3714 121.478 97.1202 122.031 96.7147 122.437C96.3092 122.843 95.7781 123.073 95.2237 123.084Z" fill="white"/>
<path opacity="0.4" d="M94.344 54.1121H82.576C82.3391 54.1148 82.1043 54.0643 81.8866 53.9639C81.669 53.8634 81.4733 53.7153 81.3121 53.5288C81.1509 53.3424 81.0277 53.1219 80.9506 52.8814C80.8734 52.6409 80.8439 52.3857 80.864 52.1323L80.992 50.1954C81.0354 49.6616 81.2613 49.164 81.6262 48.7984C81.9911 48.4328 82.469 48.2252 82.968 48.2156H94.74C94.9769 48.2129 95.2117 48.2634 95.4294 48.3638C95.6471 48.4642 95.8428 48.6124 96.004 48.7988C96.1652 48.9853 96.2883 49.2058 96.3655 49.4463C96.4426 49.6868 96.4721 49.942 96.452 50.1954L96.32 52.1323C96.281 52.6678 96.0564 53.1683 95.6906 53.5348C95.3248 53.9013 94.8443 54.1073 94.344 54.1121Z" fill="#FF725E"/>
<path d="M86.8597 84.5179H68.8957C68.4836 84.5236 68.0749 84.4368 67.6959 84.263C67.3168 84.0893 66.9758 83.8325 66.6945 83.5091C66.4132 83.1857 66.1979 82.8028 66.0624 82.3849C65.927 81.967 65.8743 81.5233 65.9077 81.0822L67.1997 61.7737C67.2794 60.8456 67.6753 59.9817 68.3116 59.3477C68.9479 58.7137 69.7798 58.3541 70.6477 58.338H88.6157C89.0275 58.3329 89.4357 58.4202 89.8143 58.5942C90.1928 58.7682 90.5334 59.0251 90.8143 59.3484C91.0951 59.6718 91.31 60.0545 91.4453 60.4721C91.5805 60.8897 91.6331 61.333 91.5997 61.7737L90.3117 81.0651C90.2365 81.9973 89.8419 82.8665 89.2042 83.5043C88.5665 84.1422 87.7311 84.5033 86.8597 84.5179Z" fill="#FF725E"/>
<path d="M89.4357 68.7138C89.1041 68.7209 88.7865 68.8595 88.5443 69.103C88.3021 69.3464 88.1523 69.6773 88.1237 70.0322L87.9357 72.8323C87.9223 73.0009 87.9419 73.1706 87.9933 73.3306C88.0447 73.4905 88.1268 73.6371 88.2342 73.7609C88.3416 73.8847 88.472 73.983 88.6169 74.0494C88.7619 74.1158 88.9182 74.1489 89.0757 74.1465H90.8997C90.982 74.1456 91.061 74.1116 91.121 74.0511C91.1811 73.9907 91.2177 73.9082 91.2237 73.8201L91.5437 69.0402C91.5471 68.9982 91.5422 68.956 91.5294 68.9162C91.5166 68.8764 91.4962 68.8399 91.4694 68.8091C91.4426 68.7784 91.4101 68.754 91.374 68.7375C91.3379 68.7211 91.299 68.713 91.2597 68.7138H89.4357Z" fill="white"/>
<path d="M82.504 63.2295H71.2C71.1367 63.2304 71.0741 63.217 71.016 63.1903C70.9579 63.1635 70.9057 63.124 70.8627 63.0742C70.8197 63.0244 70.7869 62.9655 70.7665 62.9013C70.746 62.837 70.7384 62.7689 70.744 62.7013C70.7549 62.5585 70.8151 62.4252 70.9128 62.3275C71.0104 62.2298 71.1385 62.1747 71.272 62.1731H82.596C82.6592 62.1722 82.7219 62.1856 82.7799 62.2123C82.838 62.2391 82.8903 62.2787 82.9332 62.3284C82.9762 62.3782 83.009 62.4371 83.0294 62.5014C83.0499 62.5656 83.0576 62.6337 83.052 62.7013C83.0398 62.8475 82.9765 62.9833 82.8748 63.0813C82.7731 63.1793 82.6406 63.2323 82.504 63.2295Z" fill="white"/>
<path d="M82.3278 65.9137H70.9998C70.9366 65.9145 70.8739 65.9012 70.8158 65.8744C70.7577 65.8476 70.7055 65.8081 70.6625 65.7583C70.6195 65.7085 70.5867 65.6496 70.5663 65.5854C70.5458 65.5212 70.5382 65.453 70.5438 65.3854C70.5557 65.2434 70.6163 65.1111 70.7138 65.0143C70.8114 64.9175 70.9389 64.8631 71.0718 64.8615H82.3998C82.4628 64.86 82.5254 64.8728 82.5835 64.8991C82.6416 64.9254 82.6939 64.9645 82.7369 65.014C82.7799 65.0634 82.8128 65.1221 82.8333 65.1861C82.8537 65.2501 82.8614 65.318 82.8558 65.3854C82.8448 65.5283 82.7846 65.6616 82.687 65.7593C82.5893 65.857 82.4612 65.912 82.3278 65.9137Z" fill="white"/>
<path d="M78.2317 68.6021H70.8197C70.7567 68.6023 70.6943 68.5885 70.6365 68.5615C70.5787 68.5345 70.5267 68.495 70.4839 68.4453C70.441 68.3957 70.4082 68.337 70.3875 68.2731C70.3669 68.2092 70.3588 68.1413 70.3637 68.0739C70.3747 67.931 70.4349 67.7977 70.5325 67.7C70.6302 67.6024 70.7583 67.5473 70.8917 67.5456H78.3037C78.3669 67.5448 78.4296 67.5581 78.4877 67.5849C78.5458 67.6117 78.598 67.6512 78.641 67.701C78.684 67.7508 78.7168 67.8097 78.7372 67.8739C78.7577 67.9381 78.7653 68.0063 78.7597 68.0739C78.7479 68.2163 78.6874 68.3491 78.59 68.4466C78.4925 68.5441 78.3649 68.5995 78.2317 68.6021Z" fill="white"/>
<path opacity="0.5" d="M82.5359 81.4H71.5999C71.3296 81.4035 71.0615 81.3462 70.8131 81.2317C70.5646 81.1172 70.3413 80.9481 70.1574 80.7353C69.9735 80.5225 69.8331 80.2707 69.7454 79.9961C69.6577 79.7215 69.6245 79.4303 69.6479 79.1411L70.0479 72.9611C70.0964 72.3525 70.3536 71.785 70.7697 71.3684C71.1858 70.9518 71.7311 70.7159 72.2999 70.7065H83.2559C83.5259 70.703 83.7936 70.7603 84.0418 70.8745C84.2899 70.9887 84.5131 71.1574 84.6969 71.3697C84.8807 71.5821 85.0212 71.8333 85.1092 72.1074C85.1972 72.3815 85.2308 72.6723 85.2079 72.9611L84.8079 79.1411C84.7583 79.7534 84.4981 80.3239 84.0781 80.7415C83.6581 81.159 83.1083 81.3938 82.5359 81.4Z" fill="white"/>
<path opacity="0.4" d="M92.7638 91.7415H79.1319C79.0145 91.7431 78.8982 91.7184 78.7903 91.6688C78.6825 91.6193 78.5855 91.546 78.5056 91.4538C78.4257 91.3616 78.3647 91.2524 78.3265 91.1333C78.2883 91.0142 78.2738 90.8878 78.2839 90.7623C78.3056 90.4979 78.4178 90.2515 78.5987 90.0707C78.7797 89.8899 79.0167 89.7874 79.2639 89.7831H92.8958C93.0128 89.7821 93.1287 89.8072 93.2361 89.8571C93.3435 89.9069 93.44 89.9802 93.5195 90.0724C93.5989 90.1646 93.6595 90.2736 93.6975 90.3924C93.7355 90.5112 93.7499 90.6372 93.7398 90.7623C93.7191 91.0263 93.6077 91.2727 93.4274 91.4536C93.2471 91.6345 93.0106 91.7371 92.7638 91.7415Z" fill="#FF725E"/>
<path opacity="0.8" d="M89.9997 95.5852H81.3677C81.2504 95.5868 81.1341 95.5621 81.0262 95.5125C80.9183 95.463 80.8213 95.3897 80.7414 95.2975C80.6616 95.2052 80.6005 95.096 80.5624 94.9769C80.5242 94.8578 80.5096 94.7315 80.5197 94.606C80.5405 94.3419 80.6518 94.0956 80.8321 93.9147C81.0125 93.7338 81.2489 93.6312 81.4957 93.6268H90.1477C90.2648 93.6251 90.381 93.6498 90.4887 93.6994C90.5964 93.749 90.6932 93.8223 90.7727 93.9146C90.8523 94.007 90.9129 94.1162 90.9506 94.2353C90.9884 94.3544 91.0024 94.4807 90.9917 94.606C90.9706 94.8729 90.857 95.1217 90.6733 95.303C90.4896 95.4843 90.2492 95.585 89.9997 95.5852Z" fill="white"/>
<path opacity="0.4" d="M92.056 102.345H78.424C78.3069 102.346 78.1908 102.321 78.0832 102.271C77.9757 102.221 77.8789 102.148 77.7992 102.056C77.7194 101.964 77.6584 101.855 77.6199 101.736C77.5815 101.617 77.5665 101.491 77.576 101.366C77.5977 101.101 77.7099 100.855 77.8909 100.674C78.0718 100.493 78.3088 100.391 78.556 100.387H92.188C92.305 100.385 92.4208 100.411 92.5282 100.46C92.6356 100.51 92.7321 100.584 92.8116 100.676C92.891 100.768 92.9517 100.877 92.9896 100.996C93.0276 101.115 93.042 101.241 93.032 101.366C93.0112 101.63 92.8998 101.876 92.7195 102.057C92.5392 102.238 92.3027 102.34 92.056 102.345Z" fill="#FF725E"/>
<path opacity="0.8" d="M89.3077 106.184H80.6597C80.5426 106.187 80.4263 106.162 80.3185 106.113C80.2106 106.064 80.1136 105.991 80.0336 105.899C79.9537 105.808 79.8926 105.699 79.8544 105.58C79.8161 105.461 79.8016 105.335 79.8117 105.209C79.8327 104.943 79.9457 104.695 80.1286 104.514C80.3115 104.333 80.5509 104.231 80.7997 104.23H89.4397C89.557 104.229 89.6733 104.253 89.7812 104.303C89.8891 104.352 89.9861 104.426 90.066 104.518C90.1459 104.61 90.2069 104.719 90.245 104.838C90.2832 104.957 90.2978 105.084 90.2877 105.209C90.2659 105.473 90.1536 105.719 89.9725 105.899C89.7914 106.08 89.5545 106.181 89.3077 106.184Z" fill="white"/>
<path opacity="0.4" d="M91.348 112.948H77.716C77.5988 112.949 77.4828 112.924 77.3752 112.874C77.2677 112.825 77.1709 112.751 77.0911 112.659C77.0114 112.567 76.9503 112.458 76.9119 112.339C76.8735 112.221 76.8585 112.094 76.868 111.969C76.8888 111.704 77.0007 111.457 77.1819 111.276C77.3631 111.095 77.6005 110.993 77.848 110.99H91.48C91.5971 110.988 91.7133 111.013 91.821 111.063C91.9287 111.112 92.0254 111.185 92.105 111.278C92.1846 111.37 92.2452 111.479 92.2829 111.598C92.3207 111.718 92.3346 111.844 92.324 111.969C92.3032 112.233 92.1918 112.479 92.0115 112.66C91.8312 112.841 91.5947 112.944 91.348 112.948Z" fill="#FF725E"/>
<path opacity="0.8" d="M88.5997 116.788H79.9517C79.8344 116.789 79.718 116.765 79.6102 116.715C79.5023 116.665 79.4053 116.592 79.3254 116.5C79.2455 116.408 79.1845 116.299 79.1463 116.179C79.1081 116.06 79.0936 115.934 79.1037 115.808C79.1253 115.545 79.2369 115.299 79.4171 115.118C79.5972 114.938 79.8332 114.835 80.0797 114.829H88.7317C88.8488 114.828 88.9649 114.853 89.0724 114.903C89.18 114.953 89.2768 115.026 89.3565 115.118C89.4363 115.21 89.4973 115.319 89.5357 115.438C89.5742 115.557 89.5891 115.683 89.5797 115.808C89.5588 116.073 89.4469 116.32 89.2657 116.501C89.0846 116.682 88.8471 116.784 88.5997 116.788Z" fill="white"/>
<path opacity="0.5" d="M168.672 101.039C169.264 100.069 170.62 100.477 170.544 101.598L169.232 121.25C169.164 122.259 168.452 123.084 167.632 123.084H101.708C100.908 123.084 100.3 122.259 100.368 121.25L101.168 109.573C101.195 109.201 101.297 108.841 101.469 108.517C101.64 108.193 101.876 107.914 102.16 107.7C102.443 107.485 102.767 107.34 103.109 107.276C103.451 107.211 103.801 107.229 104.136 107.327C107.852 108.568 111.036 107.838 113.996 106.262C120.324 102.89 125.62 95.6496 132.896 95.6496C133.176 95.6496 133.452 95.6496 133.72 95.6753C144.544 96.3753 147.84 110.814 156.224 110.814C158.704 110.814 160.964 109.663 162.936 108.027C165.328 106.021 167.3 103.285 168.672 101.039Z" fill="#FF725E"/>
<path opacity="0.5" d="M170.04 109.135L169.24 121.25C169.172 122.259 168.46 123.084 167.64 123.084H101.708C100.908 123.084 100.3 122.259 100.368 121.25L101.968 97.1741C102.076 95.525 104.088 94.8293 104.904 96.1649C107.008 99.6006 110.244 104.063 113.968 106.262C115.321 107.11 116.853 107.575 118.42 107.614C123.748 107.614 128.28 100.833 133.692 95.6753C137.008 92.5145 140.656 89.9635 145.02 89.9635C154.128 89.9635 155.472 105.854 162.908 108.027C164.34 108.456 166 108.357 167.984 107.541C168.219 107.432 168.475 107.391 168.73 107.421C168.984 107.45 169.226 107.55 169.433 107.711C169.641 107.872 169.806 108.087 169.912 108.337C170.018 108.586 170.062 108.861 170.04 109.135Z" fill="#FF725E"/>
<g opacity="0.8">
<path opacity="0.8" d="M170.364 104.436C170.328 104.435 170.294 104.42 170.268 104.393C170.255 104.38 170.246 104.364 170.24 104.346C170.236 104.328 170.236 104.309 170.24 104.29C170.24 104.271 170.243 104.252 170.25 104.234C170.257 104.217 170.267 104.201 170.28 104.187C170.306 104.16 170.34 104.145 170.376 104.145C170.412 104.145 170.447 104.16 170.472 104.187C170.485 104.2 170.496 104.216 170.503 104.234C170.51 104.252 170.513 104.271 170.512 104.29C170.514 104.309 170.514 104.328 170.512 104.346C170.504 104.364 170.493 104.38 170.48 104.393C170.465 104.41 170.447 104.422 170.427 104.429C170.407 104.437 170.385 104.439 170.364 104.436Z" fill="white"/>
<path opacity="0.8" d="M106.256 114.499C106.22 114.499 106.185 114.483 106.16 114.456C106.134 114.428 106.12 114.391 106.12 114.353C106.121 114.315 106.136 114.279 106.161 114.252C106.187 114.226 106.221 114.211 106.256 114.211C106.292 114.211 106.327 114.226 106.352 114.254C106.378 114.281 106.392 114.318 106.392 114.357C106.392 114.396 106.378 114.434 106.352 114.462C106.327 114.49 106.292 114.506 106.256 114.507V114.499ZM104.884 114.417C104.866 114.416 104.848 114.411 104.832 114.402C104.816 114.394 104.801 114.381 104.79 114.367C104.778 114.352 104.77 114.334 104.764 114.316C104.759 114.297 104.758 114.277 104.76 114.258C104.762 114.239 104.768 114.22 104.776 114.203C104.785 114.186 104.797 114.172 104.811 114.16C104.825 114.148 104.841 114.139 104.859 114.134C104.876 114.128 104.894 114.127 104.912 114.129C104.947 114.134 104.98 114.153 105.002 114.182C105.025 114.212 105.035 114.25 105.032 114.288C105.028 114.324 105.012 114.358 104.987 114.382C104.962 114.407 104.93 114.421 104.896 114.421L104.884 114.417ZM107.472 114.288C107.47 114.269 107.471 114.249 107.476 114.231C107.481 114.212 107.489 114.195 107.5 114.18C107.511 114.164 107.525 114.152 107.541 114.142C107.557 114.133 107.574 114.127 107.592 114.125C107.61 114.123 107.628 114.124 107.645 114.129C107.663 114.134 107.679 114.143 107.693 114.155C107.707 114.167 107.719 114.182 107.728 114.199C107.737 114.216 107.742 114.235 107.744 114.254C107.746 114.273 107.745 114.292 107.74 114.311C107.735 114.33 107.727 114.347 107.716 114.362C107.705 114.378 107.691 114.39 107.675 114.4C107.659 114.409 107.642 114.415 107.624 114.417C107.606 114.419 107.588 114.418 107.571 114.413C107.553 114.408 107.537 114.399 107.523 114.387C107.509 114.375 107.497 114.36 107.488 114.343C107.48 114.326 107.474 114.307 107.472 114.288ZM103.532 114.194C103.497 114.184 103.466 114.161 103.446 114.128C103.426 114.096 103.418 114.056 103.424 114.018C103.433 113.98 103.454 113.946 103.485 113.925C103.515 113.903 103.552 113.895 103.588 113.902C103.623 113.911 103.654 113.934 103.674 113.967C103.694 114 103.702 114.039 103.696 114.078C103.689 114.111 103.671 114.14 103.647 114.161C103.622 114.182 103.592 114.194 103.56 114.194H103.532ZM108.808 114.048C108.803 114.029 108.802 114.009 108.805 113.99C108.807 113.97 108.813 113.952 108.822 113.935C108.832 113.918 108.844 113.903 108.859 113.892C108.874 113.88 108.89 113.872 108.908 113.867C108.943 113.859 108.979 113.866 109.01 113.886C109.04 113.906 109.063 113.938 109.072 113.975C109.081 114.013 109.075 114.053 109.056 114.087C109.038 114.12 109.007 114.145 108.972 114.155H108.94C108.909 114.158 108.877 114.149 108.851 114.129C108.826 114.11 108.808 114.081 108.8 114.048H108.808ZM152.556 114.108C152.52 114.108 152.485 114.092 152.46 114.065C152.434 114.038 152.42 114.001 152.42 113.962C152.42 113.923 152.434 113.886 152.46 113.859C152.485 113.831 152.52 113.816 152.556 113.816C152.592 113.816 152.627 113.831 152.652 113.859C152.678 113.886 152.692 113.923 152.692 113.962C152.692 114.001 152.678 114.038 152.652 114.065C152.627 114.092 152.592 114.108 152.556 114.108ZM153.776 113.902C153.774 113.883 153.775 113.863 153.78 113.845C153.785 113.827 153.793 113.81 153.804 113.795C153.816 113.78 153.83 113.768 153.845 113.759C153.861 113.75 153.878 113.744 153.896 113.743C153.914 113.74 153.932 113.741 153.95 113.746C153.967 113.751 153.984 113.759 153.998 113.772C154.012 113.784 154.024 113.799 154.033 113.816C154.041 113.833 154.047 113.852 154.048 113.872C154.051 113.911 154.04 113.95 154.017 113.98C153.994 114.011 153.96 114.03 153.924 114.035C153.888 114.037 153.853 114.025 153.825 114C153.798 113.975 153.78 113.94 153.776 113.902ZM151.188 114.018C151.17 114.016 151.153 114.01 151.137 114C151.122 113.991 151.108 113.978 151.097 113.963C151.087 113.947 151.079 113.93 151.074 113.911C151.07 113.893 151.069 113.873 151.072 113.854C151.074 113.835 151.08 113.817 151.088 113.8C151.097 113.783 151.109 113.768 151.123 113.756C151.137 113.744 151.153 113.735 151.171 113.73C151.188 113.725 151.206 113.723 151.224 113.726C151.26 113.731 151.292 113.751 151.315 113.781C151.337 113.812 151.347 113.85 151.344 113.889C151.34 113.925 151.324 113.958 151.299 113.983C151.274 114.007 151.242 114.021 151.208 114.022L151.188 114.018ZM102.204 113.842C102.187 113.837 102.17 113.828 102.156 113.816C102.142 113.804 102.13 113.79 102.121 113.773C102.112 113.756 102.106 113.738 102.104 113.718C102.102 113.699 102.103 113.68 102.108 113.661C102.119 113.624 102.143 113.592 102.175 113.573C102.207 113.554 102.245 113.549 102.28 113.558C102.315 113.57 102.344 113.596 102.361 113.63C102.378 113.665 102.382 113.705 102.372 113.743C102.364 113.773 102.347 113.8 102.323 113.819C102.299 113.838 102.27 113.847 102.24 113.846H102.204V113.842ZM155.12 113.7C155.116 113.681 155.116 113.661 155.119 113.642C155.122 113.623 155.129 113.605 155.139 113.589C155.149 113.573 155.162 113.559 155.178 113.548C155.193 113.538 155.21 113.531 155.228 113.528C155.246 113.524 155.264 113.524 155.281 113.528C155.299 113.532 155.316 113.539 155.33 113.55C155.345 113.561 155.358 113.575 155.368 113.591C155.378 113.607 155.385 113.625 155.388 113.644C155.391 113.663 155.391 113.682 155.388 113.701C155.384 113.72 155.377 113.738 155.367 113.754C155.357 113.77 155.344 113.784 155.329 113.794C155.314 113.805 155.298 113.812 155.28 113.816H155.256C155.224 113.816 155.194 113.804 155.169 113.783C155.145 113.762 155.127 113.733 155.12 113.7ZM149.844 113.751C149.826 113.748 149.809 113.741 149.794 113.73C149.779 113.719 149.766 113.704 149.757 113.688C149.748 113.671 149.741 113.652 149.739 113.633C149.737 113.614 149.739 113.594 149.744 113.575C149.753 113.538 149.775 113.505 149.805 113.485C149.836 113.465 149.873 113.459 149.908 113.468C149.943 113.477 149.973 113.501 149.992 113.534C150.011 113.567 150.016 113.606 150.008 113.644C150.001 113.676 149.984 113.704 149.96 113.724C149.936 113.745 149.906 113.756 149.876 113.756H149.844V113.751ZM110.104 113.631C110.097 113.613 110.094 113.594 110.094 113.574C110.094 113.555 110.098 113.536 110.106 113.518C110.113 113.5 110.124 113.484 110.138 113.471C110.151 113.458 110.167 113.448 110.184 113.442C110.217 113.428 110.255 113.429 110.288 113.444C110.321 113.459 110.347 113.488 110.36 113.524C110.366 113.542 110.369 113.561 110.369 113.58C110.368 113.6 110.364 113.619 110.357 113.636C110.349 113.654 110.339 113.67 110.326 113.683C110.312 113.696 110.297 113.706 110.28 113.713C110.264 113.717 110.248 113.717 110.232 113.713C110.206 113.713 110.18 113.706 110.157 113.692C110.134 113.677 110.116 113.656 110.104 113.631ZM156.444 113.378C156.439 113.359 156.437 113.339 156.439 113.319C156.441 113.3 156.446 113.281 156.455 113.263C156.464 113.246 156.476 113.231 156.491 113.219C156.505 113.207 156.522 113.198 156.54 113.193C156.557 113.188 156.575 113.186 156.593 113.189C156.611 113.191 156.628 113.197 156.644 113.207C156.66 113.216 156.673 113.229 156.684 113.245C156.695 113.26 156.703 113.277 156.708 113.296C156.713 113.315 156.714 113.334 156.712 113.353C156.71 113.373 156.704 113.391 156.695 113.408C156.686 113.425 156.674 113.439 156.66 113.451C156.646 113.463 156.629 113.472 156.612 113.476H156.576C156.547 113.477 156.519 113.468 156.495 113.45C156.471 113.433 156.453 113.407 156.444 113.378ZM148.532 113.326C148.498 113.313 148.47 113.287 148.455 113.252C148.439 113.218 148.437 113.178 148.448 113.142C148.461 113.105 148.486 113.075 148.519 113.058C148.552 113.041 148.59 113.039 148.624 113.051C148.658 113.065 148.686 113.092 148.702 113.128C148.717 113.163 148.72 113.203 148.708 113.24C148.697 113.269 148.679 113.293 148.656 113.31C148.632 113.326 148.604 113.335 148.576 113.335C148.561 113.336 148.546 113.333 148.532 113.326ZM111.332 113.051C111.324 113.034 111.319 113.015 111.317 112.996C111.316 112.977 111.318 112.957 111.324 112.939C111.329 112.921 111.338 112.904 111.35 112.889C111.362 112.874 111.376 112.862 111.392 112.854C111.425 112.837 111.463 112.835 111.497 112.848C111.531 112.861 111.56 112.888 111.576 112.922C111.584 112.939 111.589 112.958 111.591 112.977C111.592 112.996 111.59 113.015 111.584 113.033C111.579 113.051 111.57 113.067 111.558 113.082C111.546 113.096 111.532 113.108 111.516 113.116C111.495 113.122 111.473 113.122 111.452 113.116C111.431 113.114 111.411 113.108 111.393 113.097C111.375 113.085 111.36 113.07 111.348 113.051H111.332ZM157.732 112.948C157.726 112.931 157.723 112.912 157.723 112.893C157.724 112.874 157.728 112.855 157.736 112.838C157.743 112.82 157.754 112.805 157.767 112.792C157.78 112.78 157.795 112.77 157.812 112.764C157.846 112.752 157.883 112.755 157.915 112.772C157.947 112.789 157.971 112.818 157.984 112.854C157.996 112.891 157.993 112.931 157.978 112.967C157.962 113.002 157.934 113.029 157.9 113.043H157.856C157.831 113.04 157.807 113.029 157.788 113.012C157.768 112.996 157.753 112.974 157.744 112.948H157.732ZM147.256 112.768C147.24 112.76 147.225 112.749 147.213 112.735C147.201 112.721 147.191 112.704 147.185 112.686C147.178 112.668 147.175 112.649 147.176 112.63C147.177 112.611 147.181 112.592 147.188 112.575C147.204 112.54 147.231 112.513 147.264 112.5C147.298 112.486 147.335 112.487 147.368 112.502C147.385 112.509 147.4 112.521 147.413 112.535C147.425 112.55 147.435 112.566 147.441 112.585C147.448 112.603 147.45 112.623 147.449 112.643C147.449 112.662 147.444 112.681 147.436 112.699C147.425 112.724 147.407 112.746 147.385 112.761C147.363 112.776 147.338 112.785 147.312 112.785C147.296 112.783 147.281 112.778 147.268 112.768H147.256ZM159 112.433C158.993 112.415 158.989 112.396 158.989 112.377C158.989 112.358 158.993 112.339 159 112.321C159.007 112.303 159.018 112.287 159.031 112.274C159.044 112.261 159.059 112.251 159.076 112.244C159.092 112.236 159.11 112.231 159.128 112.23C159.146 112.23 159.163 112.233 159.18 112.241C159.197 112.248 159.212 112.259 159.224 112.273C159.236 112.287 159.246 112.303 159.252 112.321C159.259 112.339 159.263 112.358 159.263 112.377C159.264 112.397 159.26 112.416 159.254 112.434C159.247 112.452 159.237 112.468 159.224 112.482C159.212 112.496 159.197 112.507 159.18 112.514C159.163 112.519 159.145 112.519 159.128 112.514C159.104 112.513 159.08 112.505 159.06 112.49C159.04 112.476 159.023 112.456 159.012 112.433H159ZM112.52 112.347C112.501 112.313 112.494 112.273 112.503 112.234C112.511 112.196 112.533 112.162 112.564 112.141C112.579 112.131 112.596 112.124 112.614 112.121C112.632 112.117 112.65 112.118 112.667 112.122C112.685 112.127 112.701 112.135 112.716 112.146C112.73 112.157 112.743 112.172 112.752 112.188C112.762 112.204 112.768 112.223 112.771 112.242C112.774 112.261 112.773 112.28 112.769 112.299C112.765 112.318 112.758 112.335 112.747 112.351C112.737 112.367 112.723 112.38 112.708 112.39C112.687 112.407 112.662 112.416 112.636 112.416C112.615 112.413 112.595 112.406 112.577 112.394C112.559 112.382 112.544 112.366 112.532 112.347H112.52ZM146.036 112.111C146.004 112.092 145.98 112.06 145.97 112.022C145.959 111.984 145.963 111.944 145.98 111.909C145.998 111.875 146.028 111.851 146.063 111.84C146.099 111.83 146.136 111.834 146.168 111.853C146.199 111.872 146.222 111.903 146.232 111.94C146.242 111.977 146.237 112.017 146.22 112.051C146.208 112.074 146.191 112.093 146.17 112.107C146.149 112.12 146.125 112.128 146.1 112.128C146.082 112.125 146.064 112.119 146.048 112.111H146.036ZM160.244 111.845C160.229 111.81 160.227 111.77 160.239 111.734C160.251 111.698 160.276 111.668 160.308 111.651C160.341 111.635 160.379 111.633 160.413 111.646C160.447 111.658 160.476 111.685 160.492 111.72C160.499 111.737 160.503 111.756 160.504 111.776C160.505 111.795 160.502 111.814 160.495 111.832C160.489 111.85 160.479 111.866 160.467 111.88C160.455 111.894 160.44 111.905 160.424 111.913H160.364C160.342 111.912 160.321 111.905 160.302 111.893C160.283 111.881 160.268 111.864 160.256 111.845H160.244ZM113.648 111.54C113.627 111.508 113.619 111.468 113.625 111.43C113.631 111.391 113.651 111.357 113.68 111.333C113.709 111.311 113.746 111.301 113.782 111.307C113.817 111.313 113.85 111.333 113.872 111.364C113.893 111.396 113.901 111.435 113.895 111.474C113.889 111.512 113.869 111.546 113.84 111.57C113.817 111.588 113.789 111.598 113.76 111.6C113.74 111.598 113.721 111.592 113.704 111.581C113.687 111.571 113.672 111.557 113.66 111.54H113.648ZM144.848 111.376C144.833 111.367 144.82 111.354 144.809 111.339C144.799 111.323 144.791 111.306 144.787 111.288C144.783 111.269 144.782 111.25 144.785 111.231C144.788 111.213 144.795 111.195 144.804 111.179C144.812 111.162 144.824 111.147 144.838 111.135C144.852 111.123 144.868 111.114 144.885 111.109C144.903 111.104 144.921 111.103 144.938 111.107C144.956 111.11 144.973 111.117 144.988 111.127C145.004 111.137 145.017 111.15 145.028 111.166C145.039 111.181 145.047 111.199 145.051 111.217C145.056 111.236 145.057 111.256 145.054 111.275C145.052 111.294 145.045 111.313 145.036 111.329C145.024 111.351 145.007 111.369 144.987 111.382C144.966 111.394 144.943 111.401 144.92 111.402C144.901 111.397 144.884 111.389 144.868 111.376H144.848ZM161.452 111.192C161.435 111.158 161.431 111.118 161.442 111.081C161.452 111.043 161.476 111.012 161.508 110.994C161.54 110.977 161.577 110.974 161.611 110.985C161.645 110.996 161.674 111.021 161.692 111.054C161.709 111.089 161.713 111.13 161.702 111.168C161.692 111.205 161.668 111.237 161.636 111.256C161.615 111.26 161.593 111.26 161.572 111.256C161.552 111.254 161.533 111.247 161.515 111.236C161.498 111.225 161.483 111.21 161.472 111.192H161.452ZM114.728 110.659C114.717 110.644 114.708 110.627 114.703 110.609C114.698 110.59 114.696 110.571 114.698 110.552C114.7 110.533 114.705 110.514 114.714 110.497C114.722 110.48 114.734 110.465 114.748 110.453C114.776 110.43 114.812 110.419 114.848 110.423C114.884 110.427 114.917 110.445 114.94 110.475C114.965 110.503 114.979 110.541 114.979 110.58C114.979 110.619 114.965 110.656 114.94 110.685C114.915 110.705 114.884 110.716 114.852 110.715C114.832 110.716 114.812 110.711 114.793 110.702C114.775 110.692 114.76 110.677 114.748 110.659H114.728ZM143.696 110.595C143.666 110.574 143.645 110.541 143.637 110.503C143.63 110.465 143.636 110.425 143.656 110.393C143.676 110.36 143.708 110.337 143.744 110.329C143.78 110.321 143.817 110.329 143.848 110.35C143.877 110.372 143.898 110.405 143.905 110.442C143.913 110.48 143.907 110.519 143.888 110.552C143.876 110.573 143.859 110.59 143.838 110.602C143.818 110.614 143.795 110.621 143.772 110.621C143.752 110.616 143.733 110.607 143.716 110.595H143.696ZM162.64 110.487C162.631 110.471 162.624 110.452 162.622 110.433C162.619 110.414 162.62 110.394 162.625 110.376C162.629 110.357 162.637 110.339 162.648 110.324C162.659 110.308 162.672 110.295 162.688 110.286C162.719 110.266 162.757 110.261 162.792 110.271C162.827 110.28 162.857 110.304 162.876 110.337C162.894 110.371 162.899 110.411 162.89 110.448C162.881 110.486 162.859 110.519 162.828 110.539C162.806 110.552 162.781 110.559 162.756 110.56C162.736 110.557 162.717 110.548 162.7 110.536C162.684 110.523 162.67 110.507 162.66 110.487H162.64ZM142.564 109.783C142.534 109.761 142.514 109.726 142.507 109.688C142.5 109.649 142.508 109.61 142.528 109.577C142.55 109.546 142.581 109.525 142.617 109.517C142.653 109.51 142.689 109.518 142.72 109.538C142.749 109.562 142.769 109.596 142.776 109.634C142.782 109.672 142.775 109.712 142.756 109.744C142.743 109.765 142.726 109.781 142.705 109.792C142.685 109.803 142.663 109.809 142.64 109.809C142.62 109.805 142.601 109.796 142.584 109.783H142.564ZM163.8 109.732C163.782 109.698 163.776 109.657 163.784 109.619C163.792 109.581 163.814 109.547 163.844 109.525C163.859 109.515 163.876 109.508 163.894 109.505C163.912 109.502 163.93 109.503 163.947 109.507C163.965 109.511 163.981 109.519 163.996 109.531C164.01 109.542 164.023 109.556 164.032 109.573C164.042 109.589 164.048 109.607 164.051 109.626C164.054 109.645 164.053 109.665 164.049 109.683C164.045 109.702 164.038 109.72 164.027 109.736C164.017 109.751 164.003 109.764 163.988 109.775C163.968 109.792 163.942 109.801 163.916 109.8C163.896 109.797 163.878 109.789 163.861 109.777C163.845 109.765 163.831 109.75 163.82 109.732H163.8ZM115.8 109.732C115.776 109.704 115.762 109.667 115.762 109.629C115.762 109.59 115.776 109.553 115.8 109.525C115.827 109.499 115.862 109.484 115.898 109.484C115.934 109.484 115.969 109.499 115.996 109.525C116.021 109.553 116.036 109.59 116.036 109.629C116.036 109.667 116.021 109.704 115.996 109.732C115.984 109.743 115.97 109.752 115.955 109.758C115.94 109.764 115.924 109.767 115.908 109.766C115.889 109.77 115.87 109.769 115.852 109.765C115.833 109.761 115.815 109.752 115.8 109.74V109.732ZM164.96 108.924C164.939 108.892 164.931 108.853 164.937 108.814C164.943 108.776 164.963 108.741 164.992 108.718C165.007 108.707 165.024 108.699 165.042 108.695C165.059 108.69 165.078 108.69 165.096 108.694C165.114 108.697 165.131 108.705 165.146 108.716C165.161 108.726 165.174 108.74 165.184 108.757C165.204 108.789 165.211 108.828 165.205 108.866C165.198 108.903 165.178 108.937 165.148 108.959C165.126 108.975 165.099 108.984 165.072 108.984C165.051 108.986 165.03 108.982 165.01 108.973C164.991 108.964 164.974 108.95 164.96 108.933V108.924ZM141.46 108.959C141.445 108.948 141.432 108.935 141.422 108.919C141.412 108.903 141.405 108.885 141.402 108.866C141.398 108.847 141.399 108.828 141.402 108.809C141.406 108.79 141.414 108.772 141.424 108.757C141.444 108.724 141.474 108.702 141.51 108.693C141.545 108.685 141.582 108.693 141.612 108.714C141.627 108.725 141.64 108.739 141.65 108.755C141.66 108.771 141.667 108.789 141.671 108.809C141.674 108.828 141.674 108.848 141.67 108.867C141.666 108.886 141.659 108.904 141.648 108.92C141.636 108.94 141.62 108.957 141.6 108.968C141.58 108.979 141.558 108.985 141.536 108.984C141.51 108.986 141.483 108.98 141.46 108.967V108.959ZM116.844 108.795C116.831 108.782 116.821 108.766 116.813 108.748C116.806 108.731 116.803 108.712 116.803 108.692C116.803 108.673 116.806 108.654 116.813 108.636C116.821 108.618 116.831 108.602 116.844 108.589C116.87 108.563 116.904 108.548 116.94 108.548C116.976 108.548 117.01 108.563 117.036 108.589C117.061 108.617 117.076 108.654 117.076 108.692C117.076 108.731 117.061 108.768 117.036 108.795C117.012 108.818 116.98 108.831 116.948 108.83C116.93 108.834 116.911 108.833 116.893 108.829C116.875 108.825 116.859 108.816 116.844 108.804V108.795ZM140.332 108.151C140.317 108.141 140.303 108.128 140.293 108.112C140.282 108.096 140.275 108.078 140.271 108.06C140.268 108.041 140.268 108.021 140.271 108.002C140.275 107.983 140.282 107.965 140.292 107.949C140.301 107.933 140.314 107.919 140.328 107.907C140.343 107.896 140.36 107.888 140.377 107.884C140.395 107.88 140.413 107.88 140.431 107.884C140.448 107.888 140.465 107.895 140.48 107.906C140.51 107.927 140.531 107.961 140.539 107.998C140.546 108.036 140.54 108.076 140.52 108.108C140.508 108.129 140.492 108.145 140.472 108.156C140.452 108.168 140.43 108.173 140.408 108.173C140.382 108.177 140.356 108.172 140.332 108.16V108.151ZM166.072 108.082C166.061 108.067 166.053 108.05 166.049 108.032C166.044 108.013 166.043 107.994 166.046 107.975C166.049 107.956 166.055 107.938 166.064 107.922C166.073 107.906 166.086 107.892 166.1 107.881C166.129 107.858 166.166 107.849 166.202 107.854C166.237 107.86 166.27 107.88 166.292 107.911C166.313 107.943 166.321 107.982 166.315 108.021C166.309 108.059 166.289 108.094 166.26 108.117C166.236 108.134 166.208 108.143 166.18 108.143C166.159 108.144 166.139 108.141 166.12 108.132C166.101 108.123 166.085 108.109 166.072 108.091V108.082ZM117.888 107.863C117.863 107.836 117.848 107.799 117.848 107.76C117.848 107.722 117.863 107.685 117.888 107.657C117.916 107.634 117.952 107.623 117.988 107.627C118.024 107.631 118.057 107.649 118.08 107.679C118.091 107.694 118.1 107.711 118.105 107.729C118.11 107.748 118.112 107.767 118.11 107.786C118.108 107.805 118.103 107.824 118.094 107.841C118.086 107.858 118.074 107.873 118.06 107.885C118.048 107.897 118.034 107.906 118.019 107.912C118.004 107.918 117.988 107.92 117.972 107.919C117.94 107.915 117.91 107.898 117.888 107.872V107.863ZM139.2 107.365C139.185 107.355 139.171 107.342 139.161 107.326C139.15 107.311 139.143 107.293 139.139 107.274C139.135 107.255 139.134 107.236 139.137 107.217C139.14 107.198 139.146 107.18 139.156 107.163C139.165 107.147 139.178 107.133 139.192 107.121C139.207 107.11 139.223 107.102 139.241 107.098C139.258 107.093 139.276 107.093 139.294 107.096C139.312 107.099 139.329 107.106 139.344 107.116C139.359 107.126 139.373 107.14 139.383 107.155C139.394 107.171 139.401 107.188 139.405 107.207C139.409 107.226 139.41 107.245 139.407 107.264C139.404 107.283 139.398 107.302 139.388 107.318C139.376 107.34 139.359 107.358 139.339 107.37C139.318 107.383 139.295 107.39 139.272 107.391C139.246 107.391 139.221 107.382 139.2 107.365ZM167.168 107.211C167.157 107.195 167.149 107.178 167.144 107.159C167.139 107.141 167.138 107.121 167.14 107.102C167.142 107.083 167.148 107.065 167.157 107.048C167.166 107.031 167.178 107.016 167.192 107.005C167.206 106.993 167.222 106.984 167.24 106.979C167.257 106.973 167.275 106.972 167.293 106.974C167.311 106.977 167.328 106.983 167.344 106.993C167.359 107.002 167.373 107.015 167.384 107.03C167.405 107.062 167.413 107.1 167.409 107.138C167.405 107.176 167.387 107.211 167.36 107.236C167.337 107.256 167.309 107.267 167.28 107.266C167.258 107.27 167.235 107.267 167.215 107.259C167.194 107.251 167.175 107.237 167.16 107.219L167.168 107.211ZM118.96 106.962C118.939 106.93 118.93 106.891 118.935 106.852C118.941 106.814 118.959 106.779 118.988 106.755C119.017 106.733 119.054 106.723 119.09 106.729C119.125 106.735 119.158 106.755 119.18 106.785C119.201 106.817 119.21 106.856 119.205 106.895C119.199 106.933 119.181 106.968 119.152 106.992C119.129 107.01 119.101 107.02 119.072 107.022C119.05 107.024 119.027 107.021 119.006 107.012C118.985 107.003 118.967 106.988 118.952 106.97L118.96 106.962ZM138.036 106.622C138.02 106.613 138.007 106.6 137.996 106.584C137.985 106.569 137.977 106.551 137.973 106.532C137.968 106.513 137.967 106.494 137.97 106.475C137.972 106.455 137.979 106.437 137.988 106.42C137.997 106.404 138.008 106.389 138.022 106.378C138.037 106.366 138.053 106.357 138.07 106.353C138.087 106.348 138.105 106.347 138.122 106.35C138.14 106.352 138.157 106.359 138.172 106.369C138.188 106.378 138.202 106.39 138.213 106.405C138.224 106.42 138.233 106.437 138.237 106.456C138.242 106.474 138.244 106.494 138.241 106.513C138.239 106.532 138.233 106.55 138.224 106.566C138.212 106.59 138.195 106.609 138.174 106.622C138.153 106.636 138.129 106.643 138.104 106.644C138.078 106.646 138.052 106.642 138.028 106.631L138.036 106.622ZM168.228 106.3C168.217 106.285 168.208 106.268 168.203 106.25C168.198 106.231 168.196 106.212 168.198 106.193C168.2 106.173 168.205 106.155 168.214 106.138C168.222 106.121 168.234 106.106 168.248 106.094C168.262 106.082 168.278 106.073 168.295 106.067C168.312 106.062 168.33 106.06 168.348 106.062C168.366 106.064 168.383 106.07 168.399 106.079C168.415 106.088 168.429 106.101 168.44 106.116C168.464 106.143 168.478 106.18 168.478 106.219C168.478 106.257 168.464 106.294 168.44 106.322C168.414 106.342 168.384 106.354 168.352 106.356C168.328 106.362 168.303 106.36 168.28 106.352C168.257 106.344 168.236 106.329 168.22 106.309L168.228 106.3ZM120.064 106.111C120.054 106.095 120.046 106.077 120.042 106.058C120.038 106.039 120.038 106.019 120.041 106C120.045 105.981 120.052 105.962 120.062 105.946C120.072 105.93 120.085 105.916 120.1 105.905C120.131 105.884 120.168 105.876 120.204 105.884C120.24 105.892 120.272 105.915 120.292 105.948C120.312 105.981 120.318 106.02 120.311 106.058C120.303 106.096 120.282 106.129 120.252 106.15C120.23 106.167 120.203 106.176 120.176 106.176C120.153 106.178 120.13 106.173 120.11 106.164C120.089 106.154 120.07 106.139 120.056 106.12L120.064 106.111ZM136.864 105.931C136.832 105.913 136.808 105.882 136.798 105.845C136.787 105.807 136.791 105.767 136.808 105.733C136.816 105.716 136.827 105.701 136.841 105.688C136.855 105.675 136.87 105.666 136.887 105.66C136.905 105.654 136.923 105.652 136.941 105.653C136.959 105.655 136.976 105.66 136.992 105.669C137.023 105.689 137.047 105.72 137.058 105.758C137.069 105.795 137.067 105.835 137.052 105.871C137.039 105.894 137.021 105.913 136.999 105.927C136.978 105.94 136.953 105.947 136.928 105.948C136.899 105.956 136.867 105.953 136.84 105.939L136.864 105.931ZM169.264 105.36C169.239 105.332 169.224 105.295 169.224 105.257C169.224 105.218 169.239 105.181 169.264 105.154C169.29 105.127 169.324 105.113 169.36 105.113C169.396 105.113 169.43 105.127 169.456 105.154C169.48 105.181 169.494 105.218 169.494 105.257C169.494 105.295 169.48 105.332 169.456 105.36C169.444 105.372 169.431 105.382 169.416 105.388C169.4 105.395 169.384 105.398 169.368 105.398C169.349 105.402 169.33 105.401 169.311 105.396C169.292 105.391 169.275 105.381 169.26 105.368L169.264 105.36ZM121.2 105.343C121.191 105.326 121.185 105.307 121.183 105.288C121.18 105.268 121.181 105.249 121.186 105.23C121.191 105.211 121.199 105.193 121.211 105.178C121.222 105.163 121.236 105.15 121.252 105.141C121.283 105.122 121.32 105.118 121.355 105.128C121.389 105.138 121.418 105.163 121.436 105.196C121.445 105.213 121.451 105.232 121.454 105.251C121.456 105.271 121.455 105.29 121.45 105.309C121.445 105.328 121.437 105.346 121.425 105.361C121.414 105.376 121.4 105.389 121.384 105.398C121.362 105.404 121.338 105.404 121.316 105.398C121.294 105.4 121.272 105.396 121.252 105.386C121.231 105.376 121.214 105.361 121.2 105.343ZM135.62 105.317C135.604 105.309 135.589 105.298 135.577 105.284C135.565 105.27 135.555 105.253 135.549 105.235C135.542 105.217 135.539 105.198 135.54 105.179C135.541 105.16 135.545 105.141 135.552 105.123C135.559 105.106 135.57 105.09 135.583 105.077C135.596 105.064 135.611 105.054 135.628 105.047C135.645 105.04 135.662 105.037 135.68 105.038C135.698 105.038 135.716 105.043 135.732 105.05C135.749 105.058 135.764 105.069 135.776 105.083C135.789 105.097 135.799 105.113 135.805 105.131C135.811 105.149 135.814 105.169 135.813 105.188C135.812 105.207 135.808 105.226 135.8 105.244C135.789 105.269 135.772 105.291 135.75 105.306C135.728 105.322 135.702 105.33 135.676 105.33C135.658 105.329 135.64 105.325 135.624 105.317H135.62ZM134.376 104.788C134.359 104.782 134.343 104.772 134.329 104.759C134.316 104.746 134.305 104.73 134.298 104.713C134.29 104.695 134.286 104.676 134.286 104.656C134.286 104.637 134.289 104.618 134.296 104.6C134.309 104.564 134.335 104.535 134.368 104.519C134.401 104.503 134.438 104.501 134.472 104.514C134.505 104.528 134.532 104.556 134.547 104.591C134.562 104.626 134.564 104.666 134.552 104.703C134.543 104.731 134.525 104.755 134.502 104.772C134.479 104.789 134.452 104.798 134.424 104.797C134.408 104.799 134.391 104.796 134.376 104.788ZM122.4 104.668C122.386 104.633 122.386 104.593 122.398 104.557C122.411 104.521 122.436 104.492 122.468 104.475C122.485 104.466 122.502 104.461 122.521 104.461C122.539 104.46 122.557 104.463 122.575 104.469C122.592 104.476 122.607 104.487 122.621 104.5C122.634 104.514 122.645 104.53 122.652 104.548C122.659 104.566 122.663 104.585 122.663 104.604C122.664 104.624 122.66 104.643 122.654 104.661C122.647 104.679 122.637 104.695 122.624 104.709C122.612 104.723 122.597 104.734 122.58 104.741C122.562 104.746 122.542 104.746 122.524 104.741C122.499 104.742 122.474 104.736 122.452 104.723C122.431 104.711 122.412 104.691 122.4 104.668ZM133.092 104.32C133.057 104.308 133.028 104.283 133.011 104.248C132.994 104.214 132.99 104.173 133 104.136C133.011 104.098 133.035 104.067 133.067 104.049C133.099 104.03 133.137 104.026 133.172 104.037C133.207 104.049 133.236 104.075 133.253 104.109C133.27 104.144 133.274 104.184 133.264 104.222C133.255 104.251 133.237 104.277 133.213 104.296C133.19 104.314 133.161 104.324 133.132 104.325H133.092V104.32ZM123.656 104.119C123.65 104.1 123.648 104.081 123.65 104.062C123.651 104.042 123.656 104.024 123.664 104.007C123.672 103.989 123.684 103.974 123.697 103.962C123.711 103.949 123.727 103.94 123.744 103.934C123.761 103.928 123.779 103.926 123.797 103.927C123.815 103.929 123.832 103.934 123.848 103.943C123.864 103.951 123.879 103.963 123.89 103.978C123.902 103.993 123.911 104.01 123.916 104.028C123.922 104.047 123.924 104.066 123.922 104.085C123.921 104.104 123.916 104.123 123.908 104.14C123.9 104.158 123.888 104.173 123.875 104.185C123.861 104.198 123.845 104.207 123.828 104.213H123.784C123.757 104.212 123.731 104.203 123.709 104.186C123.686 104.169 123.67 104.146 123.66 104.119H123.656ZM131.788 103.964C131.753 103.956 131.723 103.933 131.703 103.901C131.684 103.869 131.677 103.83 131.684 103.792C131.687 103.773 131.694 103.755 131.704 103.738C131.715 103.722 131.728 103.708 131.743 103.698C131.759 103.687 131.776 103.68 131.794 103.677C131.812 103.674 131.83 103.675 131.848 103.68C131.866 103.684 131.882 103.691 131.897 103.702C131.912 103.713 131.924 103.726 131.934 103.743C131.944 103.759 131.951 103.777 131.954 103.795C131.957 103.814 131.956 103.834 131.952 103.852C131.945 103.886 131.928 103.915 131.903 103.937C131.879 103.958 131.848 103.969 131.816 103.968H131.788V103.964ZM124.956 103.719C124.952 103.7 124.952 103.68 124.955 103.661C124.958 103.641 124.965 103.623 124.975 103.606C124.985 103.59 124.998 103.576 125.013 103.565C125.029 103.554 125.046 103.547 125.064 103.543C125.099 103.535 125.135 103.543 125.165 103.564C125.195 103.585 125.216 103.617 125.224 103.655C125.228 103.674 125.229 103.693 125.226 103.712C125.223 103.732 125.216 103.75 125.206 103.766C125.197 103.783 125.184 103.797 125.169 103.808C125.154 103.819 125.138 103.827 125.12 103.831H125.092C125.062 103.83 125.032 103.819 125.009 103.799C124.985 103.778 124.968 103.751 124.96 103.719H124.956ZM130.464 103.719C130.428 103.713 130.396 103.692 130.375 103.661C130.353 103.629 130.343 103.59 130.348 103.552C130.35 103.533 130.355 103.514 130.364 103.497C130.373 103.481 130.385 103.466 130.399 103.454C130.413 103.443 130.43 103.434 130.447 103.43C130.464 103.425 130.482 103.424 130.5 103.427C130.536 103.433 130.568 103.454 130.59 103.486C130.611 103.517 130.621 103.556 130.616 103.595C130.61 103.629 130.594 103.66 130.569 103.683C130.544 103.706 130.513 103.719 130.48 103.719H130.46H130.464ZM126.292 103.474C126.289 103.436 126.299 103.398 126.322 103.369C126.344 103.339 126.377 103.32 126.412 103.315C126.43 103.312 126.448 103.313 126.466 103.318C126.484 103.323 126.5 103.332 126.514 103.344C126.528 103.356 126.54 103.371 126.549 103.389C126.557 103.406 126.563 103.425 126.564 103.444C126.567 103.483 126.556 103.523 126.533 103.553C126.51 103.584 126.476 103.603 126.44 103.607C126.404 103.609 126.369 103.595 126.343 103.57C126.316 103.544 126.299 103.508 126.296 103.47L126.292 103.474ZM129.124 103.569C129.106 103.568 129.088 103.564 129.072 103.556C129.055 103.547 129.041 103.536 129.029 103.521C129.017 103.507 129.008 103.49 129.002 103.471C128.996 103.453 128.994 103.434 128.996 103.414C128.997 103.395 129.002 103.376 129.009 103.359C129.017 103.342 129.028 103.326 129.041 103.313C129.055 103.301 129.07 103.291 129.087 103.285C129.104 103.278 129.122 103.276 129.14 103.277C129.176 103.28 129.21 103.299 129.234 103.328C129.258 103.358 129.27 103.397 129.268 103.436C129.266 103.473 129.251 103.508 129.225 103.533C129.2 103.559 129.167 103.573 129.132 103.573L129.124 103.569ZM127.644 103.38C127.643 103.361 127.647 103.341 127.653 103.323C127.66 103.305 127.67 103.289 127.683 103.275C127.695 103.262 127.711 103.251 127.727 103.244C127.744 103.237 127.762 103.233 127.78 103.234C127.816 103.234 127.851 103.249 127.876 103.277C127.902 103.304 127.916 103.341 127.916 103.38C127.916 103.419 127.902 103.456 127.876 103.483C127.851 103.51 127.816 103.526 127.78 103.526C127.762 103.525 127.745 103.521 127.728 103.513C127.712 103.505 127.697 103.494 127.685 103.48C127.673 103.466 127.663 103.45 127.657 103.432C127.65 103.414 127.647 103.395 127.648 103.376L127.644 103.38Z" fill="white"/>
<path opacity="0.8" d="M100.9 113.378C100.883 113.382 100.865 113.382 100.848 113.378C100.831 113.37 100.816 113.359 100.804 113.343C100.79 113.331 100.78 113.315 100.776 113.296C100.772 113.278 100.772 113.259 100.776 113.24C100.777 113.202 100.791 113.165 100.816 113.137C100.828 113.123 100.843 113.113 100.86 113.107C100.876 113.099 100.894 113.094 100.912 113.094C100.93 113.094 100.948 113.099 100.964 113.107C100.981 113.112 100.997 113.122 101.008 113.137C101.021 113.151 101.031 113.167 101.038 113.184C101.045 113.202 101.048 113.221 101.048 113.24C101.052 113.259 101.052 113.278 101.048 113.296C101.042 113.315 101.031 113.331 101.016 113.343C101.004 113.359 100.989 113.37 100.972 113.378C100.949 113.386 100.923 113.386 100.9 113.378Z" fill="white"/>
</g>
<path d="M122.832 69.4052L121.9 68.3229C120.217 70.0323 117.993 70.993 115.676 71.0114C113.838 71.0425 112.048 70.3779 110.62 69.134C109.193 67.8902 108.218 66.1465 107.868 64.2087L106.468 64.6038L105.188 64.9646C105.552 66.9934 106.437 68.8723 107.744 70.3887C111.804 75.087 119 75.087 123.688 70.3887L122.832 69.4052Z" fill="white"/>
<path d="M124.828 53.2746L123.6 54.4986L122.756 55.3575C123.501 56.2256 124.07 57.25 124.428 58.3661C124.786 59.4822 124.925 60.6658 124.836 61.8424C124.654 64.3255 123.606 66.6433 121.9 68.3315L122.632 69.1905L123.688 70.4101C125.938 68.1798 127.32 65.12 127.56 61.8424C127.679 60.2892 127.498 58.7264 127.028 57.2519C126.558 55.7775 125.809 54.4234 124.828 53.2746Z" fill="#263238"/>
<path d="M124.828 53.2746C120.768 48.5806 113.572 48.5806 108.888 53.2746C107.405 54.7316 106.29 56.5672 105.645 58.6109C105 60.6547 104.847 62.8402 105.2 64.9646L106.8 64.5351L107.896 64.2259C107.756 63.4438 107.713 62.6452 107.768 61.851C107.962 59.3737 109.007 57.0625 110.7 55.3664C112.393 53.6703 114.612 52.7104 116.928 52.6734C118.025 52.6605 119.113 52.8928 120.123 53.3557C121.132 53.8185 122.041 54.5017 122.792 55.3618L123.872 54.2753L124.828 53.2746Z" fill="#FF725E"/>
<path d="M136.32 69.4052L137.396 68.323C136.653 67.4546 136.086 66.4305 135.73 65.3151C135.374 64.1998 135.237 63.0174 135.328 61.8424C135.492 59.7783 136.246 57.8188 137.485 56.2316C138.725 54.6444 140.391 53.5067 142.256 52.974L141.984 51.4967L141.74 50.1482C139.772 50.7115 137.963 51.7884 136.476 53.2832C131.788 57.9772 131.276 65.7032 135.332 70.4015L136.32 69.4052Z" fill="white"/>
<path d="M151.276 70.393L150.216 69.1647L149.488 68.3058C147.806 70.017 145.581 70.9794 143.264 70.9985C142.166 71.0115 141.077 70.7792 140.067 70.3164C139.057 69.8536 138.147 69.1703 137.396 68.3101L136.552 69.169L135.332 70.393C136.324 71.5243 137.524 72.423 138.855 73.0328C140.186 73.6425 141.621 73.95 143.068 73.936C146.122 73.908 149.054 72.6425 151.276 70.393Z" fill="#263238"/>
<path d="M151.276 70.393C155.96 65.6947 156.476 57.9687 152.42 53.2746C151.072 51.7608 149.366 50.6693 147.485 50.117C145.603 49.5647 143.617 49.5725 141.74 50.1396L142.044 51.8102L142.256 52.9654C142.984 52.7602 143.734 52.6563 144.488 52.6562C145.588 52.6388 146.679 52.8699 147.691 53.3344C148.703 53.7989 149.612 54.4865 150.36 55.3526C151.109 56.2188 151.679 57.2441 152.034 58.3621C152.39 59.4801 152.523 60.6658 152.424 61.8424C152.241 64.324 151.193 66.6401 149.488 68.3273L150.424 69.4138L151.276 70.393Z" fill="#FF725E"/>
<path opacity="0.3" d="M170.168 50.8095C170.278 50.8092 170.387 50.8333 170.487 50.8802C170.588 50.927 170.679 50.9957 170.754 51.082C170.829 51.1682 170.887 51.2701 170.924 51.3814C170.961 51.4926 170.975 51.6108 170.968 51.7286L170.472 59.1368C170.448 59.3986 170.337 59.6423 170.158 59.8218C169.979 60.0014 169.745 60.1045 169.5 60.1117H162.596C162.485 60.112 162.376 60.0878 162.275 60.0407C162.174 59.9936 162.083 59.9245 162.008 59.8378C161.933 59.751 161.875 59.6486 161.839 59.5368C161.802 59.4251 161.788 59.3064 161.796 59.1883L162.288 51.7801C162.311 51.5187 162.423 51.2756 162.602 51.0967C162.781 50.9178 163.015 50.8157 163.26 50.8095H170.16H170.168ZM170.16 50.4273H163.268C162.934 50.4344 162.614 50.5738 162.369 50.8187C162.125 51.0636 161.973 51.3968 161.944 51.7543L161.452 59.1626C161.438 59.3321 161.458 59.5028 161.51 59.6637C161.561 59.8246 161.643 59.9722 161.751 60.097C161.859 60.2219 161.989 60.3213 162.135 60.3889C162.28 60.4565 162.437 60.4908 162.596 60.4896H169.496C169.83 60.4835 170.151 60.3444 170.395 60.0993C170.64 59.8542 170.791 59.5204 170.82 59.1626L171.316 51.7543C171.329 51.5844 171.309 51.4134 171.258 51.2522C171.206 51.091 171.123 50.9432 171.015 50.8183C170.907 50.6933 170.776 50.594 170.63 50.5267C170.484 50.4594 170.327 50.4255 170.168 50.4273H170.16Z" fill="#FF725E"/>
<path opacity="0.3" d="M169.316 63.5602C169.426 63.5599 169.535 63.584 169.635 63.6309C169.736 63.6777 169.827 63.7464 169.902 63.8327C169.977 63.9189 170.035 64.0208 170.072 64.1321C170.108 64.2433 170.123 64.3615 170.116 64.4793L169.624 71.8875C169.6 72.149 169.488 72.3921 169.309 72.5715C169.13 72.7509 168.896 72.8543 168.652 72.8624H161.748C161.637 72.8627 161.528 72.8385 161.427 72.7914C161.326 72.7443 161.235 72.6752 161.16 72.5885C161.085 72.5017 161.027 72.3993 160.991 72.2875C160.954 72.1758 160.939 72.0571 160.948 71.939L161.444 64.5308C161.467 64.2694 161.579 64.0263 161.758 63.8474C161.937 63.6685 162.171 63.5664 162.416 63.5602H169.312H169.316ZM169.312 63.178H162.42C162.085 63.1841 161.765 63.3232 161.52 63.5683C161.276 63.8134 161.124 64.1472 161.096 64.505L160.6 71.9133C160.586 72.0832 160.606 72.2542 160.658 72.4154C160.71 72.5766 160.792 72.7244 160.9 72.8493C161.008 72.9743 161.14 73.0736 161.286 73.1409C161.432 73.2083 161.589 73.2421 161.748 73.2403H168.648C168.982 73.2332 169.302 73.0938 169.546 72.8489C169.791 72.604 169.942 72.2708 169.972 71.9133L170.464 64.505C170.477 64.3351 170.457 64.1641 170.406 64.0029C170.354 63.8417 170.271 63.6939 170.163 63.569C170.055 63.444 169.924 63.3447 169.778 63.2774C169.632 63.2101 169.475 63.1762 169.316 63.178H169.312Z" fill="#FF725E"/>
<path d="M159.2 104.544C159.292 104.541 159.385 104.56 159.47 104.598C159.556 104.637 159.632 104.694 159.696 104.767C159.758 104.841 159.806 104.928 159.836 105.022C159.865 105.117 159.876 105.217 159.868 105.317C159.85 105.54 159.756 105.748 159.604 105.901C159.452 106.054 159.252 106.141 159.044 106.146C158.951 106.149 158.858 106.13 158.772 106.092C158.687 106.053 158.609 105.995 158.546 105.922C158.483 105.849 158.435 105.762 158.406 105.667C158.376 105.572 158.366 105.472 158.376 105.373C158.393 105.149 158.486 104.941 158.639 104.787C158.791 104.634 158.991 104.547 159.2 104.544ZM159.2 104.166C158.903 104.171 158.618 104.294 158.401 104.511C158.184 104.729 158.049 105.025 158.024 105.343C158.011 105.494 158.028 105.646 158.073 105.79C158.119 105.934 158.192 106.066 158.288 106.177C158.385 106.289 158.502 106.377 158.632 106.437C158.762 106.496 158.902 106.526 159.044 106.524C159.341 106.518 159.626 106.394 159.844 106.176C160.061 105.958 160.195 105.661 160.22 105.343C160.232 105.192 160.215 105.039 160.169 104.896C160.123 104.753 160.05 104.622 159.953 104.511C159.857 104.4 159.741 104.312 159.611 104.252C159.481 104.193 159.341 104.163 159.2 104.166Z" fill="#FF725E"/>
<path d="M159.304 104.17L159.128 104.157L159.156 103.779L159.328 103.792L159.304 104.17Z" fill="#FF725E"/>
<path d="M159.38 103.019H159.204L159.256 102.246H159.432L159.38 103.019ZM159.484 101.464H159.308L159.36 100.691H159.536L159.484 101.464ZM159.588 99.9141H159.412L159.464 99.1368H159.64L159.588 99.9141ZM159.692 98.3638H159.516L159.568 97.5864H159.744L159.692 98.3638ZM159.796 96.8134H159.62L159.672 96.0361H159.848L159.796 96.8134ZM159.9 95.263H159.724L159.776 94.4857H159.952L159.9 95.263ZM160.004 93.7084H159.828L159.88 92.9354H160.056L160.004 93.7084ZM160.108 92.158H159.932L159.984 91.3807H160.16L160.108 92.158ZM160.212 90.6077H160.036L160.088 89.8304H160.264L160.212 90.6077ZM160.312 89.0573H160.136L160.188 88.28H160.364L160.312 89.0573ZM160.416 87.507H160.24L160.292 86.7297H160.468L160.416 87.507Z" fill="#FF725E"/>
<path d="M160.364 85.5634L160.339 85.9404L160.515 85.9538L160.54 85.5768L160.364 85.5634Z" fill="#FF725E"/>
<path d="M167.912 85.7763H104.576C104.403 85.778 104.231 85.7407 104.072 85.6667C103.912 85.5928 103.769 85.4838 103.652 85.3468C103.533 85.2098 103.443 85.0478 103.385 84.8711C103.328 84.6944 103.306 84.5068 103.32 84.3204L103.636 79.6393C103.666 79.2564 103.827 78.8991 104.089 78.6371C104.351 78.3751 104.694 78.2271 105.052 78.222H168.4C168.573 78.2208 168.744 78.2583 168.903 78.332C169.062 78.4056 169.205 78.514 169.322 78.6501C169.44 78.7862 169.53 78.947 169.587 79.1225C169.644 79.298 169.666 79.4842 169.652 79.6693L169.34 84.3504C169.311 84.7367 169.148 85.0973 168.884 85.3612C168.62 85.6251 168.273 85.7732 167.912 85.7763ZM105.052 78.6343C104.79 78.6387 104.539 78.7475 104.347 78.9395C104.156 79.1316 104.038 79.3933 104.016 79.6736L103.704 84.3547C103.694 84.4847 103.709 84.6155 103.748 84.739C103.787 84.8624 103.85 84.9758 103.932 85.0719C104.015 85.1659 104.115 85.2404 104.225 85.2906C104.336 85.3409 104.456 85.3659 104.576 85.364H167.912C168.174 85.3606 168.426 85.2521 168.618 85.0599C168.809 84.8676 168.927 84.6054 168.948 84.3247L169.264 79.6436C169.273 79.5153 169.258 79.3864 169.219 79.2648C169.18 79.1433 169.118 79.0317 169.037 78.937C168.956 78.8423 168.857 78.7665 168.748 78.7145C168.638 78.6624 168.52 78.6351 168.4 78.6343H105.052Z" fill="#FF725E"/>
<path opacity="0.8" fill-rule="evenodd" clip-rule="evenodd" d="M166.552 81.2454H106.512C106.435 81.2463 106.359 81.23 106.289 81.1976C106.219 81.1651 106.155 81.1172 106.103 81.0569C106.051 80.9966 106.012 80.9253 105.987 80.8476C105.962 80.7698 105.953 80.6874 105.96 80.6055C105.974 80.4342 106.047 80.2747 106.165 80.1574C106.282 80.0402 106.435 79.9734 106.596 79.9699H166.64C166.716 79.969 166.791 79.9852 166.861 80.0175C166.931 80.0497 166.993 80.0973 167.045 80.1572C167.097 80.2171 167.136 80.2879 167.16 80.3651C167.185 80.4424 167.194 80.5243 167.188 80.6055C167.175 80.778 167.102 80.9391 166.985 81.0575C166.867 81.1758 166.713 81.2428 166.552 81.2454Z" fill="white"/>
<path opacity="0.8" fill-rule="evenodd" clip-rule="evenodd" d="M156.548 83.9296H106.332C106.256 83.9305 106.181 83.9143 106.111 83.882C106.041 83.8498 105.978 83.8022 105.927 83.7423C105.875 83.6824 105.836 83.6116 105.811 83.5344C105.786 83.4571 105.777 83.3753 105.784 83.294C105.797 83.1215 105.869 82.9604 105.987 82.8421C106.104 82.7237 106.259 82.6567 106.42 82.6541H156.632C156.712 82.6503 156.791 82.6652 156.865 82.6978C156.939 82.7305 157.005 82.78 157.059 82.843C157.113 82.906 157.154 82.9809 157.178 83.0625C157.202 83.1441 157.21 83.2304 157.2 83.3154C157.18 83.4858 157.103 83.6426 156.983 83.7558C156.863 83.869 156.708 83.9309 156.548 83.9296Z" fill="white"/>
</svg>
