<svg width="201" height="169" viewBox="0 0 201 169" fill="none" xmlns="http://www.w3.org/2000/svg">
<path d="M184.519 114.855C184.277 113.234 183.979 111.629 183.641 110.043L168.443 117.41L184.519 114.855Z" fill="#FF725E"/>
<path d="M109.396 58.4732C109.396 58.4732 64.4602 76.3668 40.1697 85.0459C36.1213 91.5327 33.0474 98.5788 31.0462 105.959L69.6303 89.1002L39.0993 109.074L61.3147 105.191L60.7593 107.963L120.69 91.8772L34.1058 131.289L47.425 119.076L28.2945 126.397V126.548C28.2826 136.234 30.0664 145.838 33.5555 154.873L118.464 122.408L71.8317 146.835L155.099 116.854L132.884 121.853L163.975 106.307H146.794L178.754 94.9368C177.7 92.547 176.535 90.2228 175.26 87.9642L111.264 109.639L170.902 81.0976C163.978 71.3361 154.915 63.2862 144.404 57.5629C133.893 51.8397 122.213 48.5944 110.256 48.0752C98.2996 47.5559 86.3824 49.7763 75.4149 54.5667C64.4475 59.3572 54.7201 66.5909 46.9757 75.7154L109.396 58.4732Z" fill="#FF725E"/>
<path d="M164.005 147.951C162.592 147.951 175.32 141.216 184.777 136.313C185.574 129.868 185.574 123.35 184.777 116.905L105.16 150.162L126.244 134.066L53.2866 160.71H177.582C180.08 155.539 181.997 150.106 183.297 144.513C176.618 145.82 165.54 147.951 164.005 147.951Z" fill="#FF725E"/>
<g opacity="0.3">
<path opacity="0.3" d="M184.52 114.855C184.277 113.234 183.98 111.629 183.641 110.043L168.444 117.41L184.52 114.855Z" fill="white"/>
<path opacity="0.3" d="M109.396 58.4732C109.396 58.4732 64.4602 76.3668 40.1697 85.0459C36.1213 91.5327 33.0474 98.5788 31.0462 105.959L69.6303 89.1002L39.0993 109.074L61.3147 105.191L60.7593 107.963L120.69 91.8772L34.1058 131.289L47.425 119.076L28.2945 126.397V126.548C28.2826 136.234 30.0664 145.838 33.5555 154.873L118.464 122.408L71.8317 146.835L155.099 116.854L132.884 121.853L163.975 106.307H146.794L178.754 94.9368C177.7 92.547 176.535 90.2228 175.26 87.9642L111.264 109.639L170.902 81.0976C163.978 71.3361 154.915 63.2862 144.404 57.5629C133.893 51.8397 122.213 48.5944 110.256 48.0752C98.2996 47.5559 86.3824 49.7763 75.4149 54.5667C64.4475 59.3572 54.7201 66.5909 46.9757 75.7154L109.396 58.4732Z" fill="white"/>
<path opacity="0.3" d="M164.006 147.951C162.592 147.951 175.321 141.216 184.777 136.313C185.575 129.868 185.575 123.35 184.777 116.905L105.16 150.162L126.245 134.066L53.2871 160.71H177.582C180.081 155.539 181.998 150.106 183.298 144.513C176.618 145.82 165.541 147.951 164.006 147.951Z" fill="white"/>
</g>
<path d="M85.913 36.0003C93.3024 36.0003 99.2927 30.01 99.2927 22.6206C99.2927 15.2311 93.3024 9.24081 85.913 9.24081C78.5235 9.24081 72.5332 15.2311 72.5332 22.6206C72.5332 30.01 78.5235 36.0003 85.913 36.0003Z" fill="white"/>
<path d="M194.213 160.71H199.262" stroke="#2E353A" stroke-miterlimit="10"/>
<path d="M28.1025 160.71H190.174" stroke="#2E353A" stroke-miterlimit="10"/>
<path d="M30.7534 160.71L57.6593 138.62C57.8168 138.509 57.9952 138.431 58.1837 138.391C58.3723 138.351 58.567 138.35 58.756 138.388C58.945 138.426 59.1243 138.502 59.2829 138.611C59.4416 138.721 59.5764 138.861 59.6789 139.024C60.4817 140.226 58.8761 148.663 58.8761 148.663L63.294 149.067L64.0968 151.874L66.909 154.686L67.3079 160.71H30.7534Z" fill="#2E353A" stroke="#2E353A" stroke-miterlimit="10"/>
<path d="M8.65895 159.776L25.9314 147.325C25.9314 147.325 28.7437 146.926 28.3398 149.733C27.9359 152.54 23.922 155.762 23.922 155.762L24.3259 158.973L24.9519 160.71H4.64502L8.65895 159.776Z" fill="#2E353A" stroke="#2E353A" stroke-miterlimit="10"/>
<path d="M151.76 35.2528L114.301 32.9748C111.887 32.828 109.812 34.6653 109.665 37.0785L107.153 78.3986C107.006 80.8117 108.843 82.8869 111.256 83.0337L148.716 85.3117C151.129 85.4584 153.204 83.6211 153.351 81.208L155.864 39.8879C156.011 37.4747 154.173 35.3995 151.76 35.2528Z" fill="#FF725E" stroke="#2E353A" stroke-miterlimit="10"/>
<path d="M105.504 54.7673C105.504 54.7673 102.641 58.3016 94.2293 60.8261C85.8177 63.3505 83.7931 64.6986 83.7931 64.6986C83.7931 64.6986 78.9107 66.3799 77.2294 70.5857C75.5481 74.7915 76.5579 76.9827 86.3176 76.3112C96.0772 75.6397 116.273 67.728 116.273 67.728C116.273 67.728 119.979 60.9927 119.136 55.2722C118.293 49.5517 107.185 52.4094 105.504 54.7673Z" fill="white"/>
<g style="mix-blend-mode:multiply" opacity="0.49">
<path d="M82.9902 72.5548C82.9902 72.5548 83.1871 74.4784 83.3639 76.4273C84.2474 76.4273 85.2219 76.3869 86.3175 76.3112C96.0771 75.6346 116.273 67.728 116.273 67.728C117.709 64.9862 118.677 62.0237 119.136 58.963L118 55.7215C118 55.7215 112.274 62.1186 106.892 65.8195C101.51 69.5203 82.9902 72.5548 82.9902 72.5548Z" fill="#FF725E"/>
</g>
<path d="M105.504 54.7673C105.504 54.7673 102.641 58.3016 94.2293 60.8261C85.8177 63.3505 83.7931 64.6986 83.7931 64.6986C83.7931 64.6986 78.9107 66.3799 77.2294 70.5857C75.5481 74.7915 76.5579 76.9827 86.3176 76.3112C96.0772 75.6397 116.273 67.728 116.273 67.728C116.273 67.728 119.979 60.9927 119.136 55.2722C118.293 49.5517 107.185 52.4094 105.504 54.7673Z" stroke="#2E353A" stroke-miterlimit="10"/>
<path d="M84.1411 73.605C84.1411 73.605 104.241 70.4847 114.193 64.8248" stroke="#2E353A" stroke-width="0.5" stroke-miterlimit="10"/>
<path d="M101.055 73.0041C101.651 71.0552 102.287 67.627 100.959 64.1937C100.261 62.3347 98.9268 60.7835 97.1926 59.8163C96.2889 60.1646 95.3043 60.5029 94.2289 60.826L93.4463 61.0633C95.2134 62.1489 98.0358 64.4865 98.268 68.3995C98.4126 70.2176 98.3805 72.0455 98.1721 73.8574C99.1365 73.5797 100.101 73.297 101.055 73.0041Z" fill="#2E353A" stroke="#2E353A" stroke-miterlimit="10"/>
<path d="M119.176 46.5072C118.351 45.695 117.372 45.0548 116.298 44.6239C109.073 41.8773 105.19 50.1323 103.847 55.7771C103.847 55.7771 105.528 57.1251 109.734 56.4486C113.94 55.772 119.999 52.9143 120.675 50.5564C121.069 49.0872 120.292 47.6381 119.176 46.5072Z" fill="#2E353A" stroke="#2E353A" stroke-miterlimit="10"/>
<path d="M85.1407 66.5465C85.1407 66.5465 85.1407 70.4191 82.4446 71.4289C79.7484 72.4387 77.229 70.5857 77.229 70.5857C77.229 70.5857 76.7241 63.1839 77.3956 61.8358C78.0671 60.4878 83.9593 63.3505 85.1407 66.5465Z" fill="white" stroke="#2E353A" stroke-miterlimit="10"/>
<path d="M123.629 45.0682C123.629 45.0682 119.085 45.6943 117.974 47.0878C116.863 48.4813 110.749 81.6429 110.436 82.587C110.123 83.5312 111.375 86.5151 115.303 90.7563C119.231 94.9974 124.099 96.2546 128.809 96.5676C133.52 96.8807 144.673 94.548 147.344 92.0236C150.015 89.4991 149.702 82.9102 149.702 79.3002C149.702 75.6902 151.116 50.8695 150.171 48.6732C149.227 46.4769 143.103 44.5886 142.164 44.5886C141.225 44.5886 124.73 44.9117 123.629 45.0682Z" fill="white"/>
<g style="mix-blend-mode:multiply" opacity="0.49">
<path d="M149.702 79.3103C149.702 75.6952 151.116 50.8796 150.172 48.6782C149.227 46.4769 143.103 44.5987 142.164 44.5987C141.225 44.5987 124.725 44.9117 123.629 45.0682C122.801 45.1933 121.981 45.3618 121.17 45.5731C123.19 49.1074 127.613 54.2775 136.176 54.7168C139.519 54.9276 142.874 54.5691 146.097 53.6565L144.254 74.2361L129.976 72.893L140.548 78.6135L141.225 87.3634L148.849 89.4587C149.874 86.3536 149.702 82.0064 149.702 79.3103Z" fill="#FF725E"/>
</g>
<path d="M123.629 45.0682C123.629 45.0682 119.085 45.6943 117.974 47.0878C116.863 48.4813 110.749 81.6429 110.436 82.587C110.123 83.5312 111.375 86.5151 115.303 90.7563C119.231 94.9974 124.099 96.2546 128.809 96.5676C133.52 96.8807 144.673 94.548 147.344 92.0236C150.015 89.4991 149.702 82.9102 149.702 79.3002C149.702 75.6902 151.116 50.8695 150.171 48.6732C149.227 46.4769 143.103 44.5886 142.164 44.5886C141.225 44.5886 124.73 44.9117 123.629 45.0682Z" stroke="#2E353A" stroke-miterlimit="10"/>
<path d="M130.915 79.9263C123.73 79.9263 114.874 68.8185 114.5 68.3641L115.687 67.425C115.778 67.5361 124.462 78.4116 130.915 78.4116C132.788 78.4116 134.04 77.9622 134.636 77.0736C135.545 75.7205 134.732 73.6352 134.722 73.6151L136.125 73.0395C136.171 73.1556 137.261 75.882 135.893 77.9218C134.999 79.2497 133.313 79.9263 130.915 79.9263Z" fill="#2E353A" stroke="#2E353A" stroke-miterlimit="10"/>
<path d="M107.972 83.5565C108.412 83.1677 108.982 82.6678 109.487 82.2791C109.083 82.2286 106.912 81.9054 106.306 80.3857C105.7 78.866 106.65 76.6343 108.977 73.7312C116.081 64.8854 127.401 63.0223 127.517 63.0072L127.29 61.437C126.785 61.5127 115.298 63.396 107.816 72.7163C105.054 76.1547 104.08 78.9417 104.913 81.0017C105.203 81.6269 105.627 82.1802 106.156 82.6219C106.685 83.0636 107.306 83.3827 107.972 83.5565Z" fill="#2E353A" stroke="#2E353A" stroke-miterlimit="10"/>
<path d="M129.214 60.539L126.86 60.4124L126.666 64.0222L129.02 64.1489L129.214 60.539Z" fill="white" stroke="#2E353A" stroke-miterlimit="10"/>
<path d="M133.683 72.0351L133.541 74.3887L137.149 74.6069L137.291 72.2533L133.683 72.0351Z" fill="white" stroke="#2E353A" stroke-miterlimit="10"/>
<path d="M128.815 57.0141L127.87 70.4494C127.83 71.0516 128.028 71.6456 128.422 72.1029C128.816 72.5602 129.374 72.844 129.976 72.8931L143.209 73.9382C143.519 73.9623 143.831 73.923 144.125 73.8228C144.42 73.7225 144.691 73.5634 144.922 73.3551C145.153 73.1468 145.339 72.8937 145.469 72.6111C145.599 72.3286 145.67 72.0225 145.678 71.7116L146.032 57.6957C146.047 57.0933 145.823 56.5093 145.41 56.0706C144.997 55.632 144.427 55.3741 143.825 55.353L131.203 54.8885C130.606 54.8606 130.022 55.0675 129.576 55.4647C129.129 55.8619 128.856 56.4181 128.815 57.0141Z" fill="white" stroke="#2E353A" stroke-miterlimit="10"/>
<path d="M134.858 55.0197L134.464 63.603L138.705 63.916L139.251 55.1813L134.858 55.0197Z" fill="#FF725E" stroke="#2E353A" stroke-miterlimit="10"/>
<path d="M144.83 67.8441C144.83 68.3726 144.673 68.8891 144.379 69.3285C144.085 69.7678 143.668 70.1102 143.18 70.3122C142.691 70.5142 142.154 70.5668 141.636 70.4633C141.118 70.3598 140.642 70.1049 140.268 69.7309C139.895 69.3569 139.641 68.8805 139.539 68.3621C139.436 67.8436 139.49 67.3064 139.693 66.8185C139.895 66.3305 140.239 65.9137 140.678 65.6209C141.118 65.328 141.635 65.1722 142.164 65.1732C142.514 65.1732 142.861 65.2423 143.185 65.3766C143.509 65.5109 143.803 65.7077 144.051 65.9558C144.298 66.2039 144.494 66.4983 144.628 66.8224C144.762 67.1464 144.83 67.4936 144.83 67.8441Z" fill="#FF725E" stroke="#2E353A" stroke-miterlimit="10"/>
<path d="M76.4718 78.245C76.4718 78.245 80.2585 78.9165 82.8689 76.9827C85.4792 75.049 84.0453 71.5955 81.6874 69.6617C79.3295 67.728 74.5381 67.1372 72.5993 68.0612C70.6605 68.9852 71.6753 72.6053 72.266 74.5441C72.8568 76.4829 73.8615 77.9067 76.4718 78.245Z" fill="white" stroke="#2E353A" stroke-miterlimit="10"/>
<path d="M57.3464 15.9812C57.3464 15.9812 59.7245 23.4637 51.3129 27.8412C42.9014 32.2186 38.8571 31.8804 29.0975 38.2723C19.3378 44.6643 16.98 58.8065 16.98 58.8065C16.98 58.8065 19.3328 52.7477 30.4405 52.0762C41.5482 51.4047 52.6559 50.9604 57.0334 50.7281C63.4304 50.3898 66.793 46.689 66.793 46.689L57.3464 15.9812Z" fill="#FF725E" stroke="#2E353A" stroke-miterlimit="10"/>
<path d="M95.5416 140.292L57.3462 15.9812C57.2972 15.8227 57.28 15.6561 57.2956 15.491C57.3113 15.3259 57.3595 15.1655 57.4374 15.019C57.5153 14.8726 57.6214 14.7431 57.7496 14.6378C57.8778 14.5326 58.0255 14.4538 58.1843 14.4059C58.5037 14.3094 58.8482 14.3428 59.1431 14.4988C59.438 14.6548 59.6596 14.9207 59.7596 15.239L97.9702 139.56L95.5416 140.292Z" fill="#2E353A" stroke="#2E353A" stroke-miterlimit="10"/>
<path d="M72.2659 78.245C72.2659 78.245 71.8418 79.7597 73.6948 80.1787C75.5478 80.5978 78.7438 79.6738 78.5771 78.0783C78.4105 76.4829 77.1432 76.1395 75.8002 76.3112C74.4572 76.4829 72.2659 77.4876 72.2659 78.245Z" fill="white" stroke="#2E353A" stroke-miterlimit="10"/>
<path d="M73.8616 73.0294C73.8616 73.0294 69.1711 73.7665 68.9742 74.7763C68.7773 75.7861 69.1458 78.1389 70.398 78.4923C71.6501 78.8458 75.7953 78.4317 76.5426 77.0938C77.2898 75.7558 76.2598 73.201 75.2955 72.9233C75.0645 72.8291 74.8148 72.7897 74.5661 72.808C74.3173 72.8264 74.0762 72.9022 73.8616 73.0294Z" fill="white" stroke="#2E353A" stroke-miterlimit="10"/>
<path d="M72.5438 69.7981C72.5438 69.7981 67.8483 70.5352 67.6514 71.55C67.4545 72.5649 67.8231 74.9076 69.0803 75.261C70.3374 75.6145 74.4725 75.2055 75.2248 73.8675C75.9771 72.5295 74.937 69.9748 73.9777 69.6971C73.7471 69.6025 73.4977 69.5624 73.249 69.5799C73.0003 69.5974 72.759 69.6721 72.5438 69.7981Z" fill="white" stroke="#2E353A" stroke-miterlimit="10"/>
<path d="M71.559 64.9409C71.559 64.9409 66.4242 64.6481 66.0052 65.6781C65.5861 66.7081 65.4144 69.2679 66.6615 69.9293C67.9086 70.5907 72.382 71.1057 73.4827 69.8586C74.5833 68.6115 74.0734 65.6781 73.1191 65.1631C72.8945 65.0068 72.6364 64.9053 72.3655 64.8667C72.0945 64.8281 71.8183 64.8536 71.559 64.9409Z" fill="white" stroke="#2E353A" stroke-miterlimit="10"/>
<path d="M78.6782 67.0413C78.6782 67.0413 79.9405 64.4613 79.0367 62.5376C78.133 60.614 76.1538 61.023 75.3156 61.6339C74.7748 62.0452 74.3359 62.5756 74.0332 63.1839C74.0332 63.1839 76.1538 63.1385 77.0626 64.0372C77.9714 64.9359 78.6782 67.0413 78.6782 67.0413Z" fill="#2E353A" stroke="#2E353A" stroke-miterlimit="10"/>
<path d="M78.2794 63.7847C78.2174 63.5333 78.0921 63.302 77.9153 63.1129C77.7385 62.9237 77.5162 62.783 77.2696 62.7042C76.2598 62.3761 74.5936 62.0327 74.0231 63.2091C73.1799 64.8904 73.1799 69.2679 75.7044 70.106C78.2289 70.9441 78.9004 68.9296 78.7338 66.7434C78.661 65.7467 78.5091 64.7573 78.2794 63.7847Z" fill="white" stroke="#2E353A" stroke-miterlimit="10"/>
<path d="M149.657 84.3037C146.627 82.1529 140.998 80.0929 135.797 83.3797C130.597 86.6666 130.516 94.0078 130.667 96.5929C135.974 96.3556 144.981 94.2552 147.329 92.0488C149.005 90.4685 149.51 87.323 149.657 84.3037Z" fill="#2E353A" stroke="#2E353A" stroke-miterlimit="10"/>
<path d="M135.095 118.889C134.674 119.349 134.369 119.903 134.205 120.504C134.041 121.106 134.022 121.738 134.151 122.348C134.621 124.367 134.151 142.135 134.151 142.135C134.151 142.135 134.308 146.376 141.689 147.476C149.071 148.577 151.585 146.532 151.585 146.532C151.585 146.532 151.429 124.231 151.272 121.717C151.196 120.249 150.706 118.832 149.858 117.632L135.095 118.889Z" fill="white"/>
<g style="mix-blend-mode:multiply" opacity="0.49">
<path d="M149.858 117.657L135.095 118.914C134.674 119.374 134.369 119.928 134.205 120.529C134.041 121.131 134.022 121.763 134.151 122.373C134.323 123.105 134.368 125.867 134.358 129.103L148.541 147.613C150.722 147.254 151.57 146.557 151.57 146.557C151.57 146.557 151.413 124.256 151.257 121.742C151.186 120.275 150.701 118.859 149.858 117.657Z" fill="#FF725E"/>
</g>
<path d="M135.095 118.889C134.674 119.349 134.369 119.903 134.205 120.504C134.041 121.106 134.022 121.738 134.151 122.348C134.621 124.367 134.151 142.135 134.151 142.135C134.151 142.135 134.308 146.376 141.689 147.476C149.071 148.577 151.585 146.532 151.585 146.532C151.585 146.532 151.429 124.231 151.272 121.717C151.196 120.249 150.706 118.832 149.858 117.632L135.095 118.889Z" stroke="#2E353A" stroke-miterlimit="10"/>
<path d="M149.545 86.5353C149.545 86.5353 147.819 84.334 141.391 84.647C134.964 84.9601 132.126 92.6597 132.303 94.2401C132.48 95.8204 133.399 116.859 134.03 118.586C134.661 120.313 141.881 121.883 147.223 120.944C152.565 120.005 153.034 115.289 152.408 111.987C151.782 108.685 150.838 89.3729 150.838 88.7619C150.838 88.151 150.328 87.4744 149.545 86.5353Z" fill="white"/>
<g style="mix-blend-mode:multiply" opacity="0.49">
<path d="M152.373 111.977C151.742 108.68 150.803 89.3628 150.803 88.7519C150.803 88.1409 150.328 87.4947 149.545 86.5555C149.212 86.2048 148.815 85.9218 148.374 85.7225L147.617 86.0355C147.617 86.0355 147.955 89.4032 147.955 93.7806C147.955 98.1581 146.945 112.967 146.945 112.967L132.808 97.1432L132.662 101.228C133.035 108.039 133.581 117.465 133.995 118.596C134.621 120.323 141.846 121.893 147.187 120.954C152.529 120.015 153.004 115.279 152.373 111.977Z" fill="#FF725E"/>
</g>
<path d="M149.545 86.5353C149.545 86.5353 147.819 84.334 141.391 84.647C134.964 84.9601 132.126 92.6597 132.303 94.2401C132.48 95.8204 133.399 116.859 134.03 118.586C134.661 120.313 141.881 121.883 147.223 120.944C152.565 120.005 153.034 115.289 152.408 111.987C151.782 108.685 150.838 89.3729 150.838 88.7619C150.838 88.151 150.328 87.4744 149.545 86.5353Z" stroke="#2E353A" stroke-miterlimit="10"/>
<path d="M134.464 119.202C134.464 119.202 139.008 123.287 144.36 122.974C149.712 122.661 151.116 119.202 151.116 119.202C151.116 119.202 151.585 117.632 145.461 116.218C139.337 114.804 134.464 119.202 134.464 119.202Z" fill="#2E353A" stroke="#2E353A" stroke-miterlimit="10"/>
<path d="M132.187 50.8594C140.449 50.8594 147.147 43.6258 147.147 34.7027C147.147 25.7796 140.449 18.546 132.187 18.546C123.925 18.546 117.227 25.7796 117.227 34.7027C117.227 43.6258 123.925 50.8594 132.187 50.8594Z" fill="#2E353A" stroke="#2E353A" stroke-miterlimit="10"/>
<path d="M132.187 49.062C141.523 49.062 149.091 41.8284 149.091 32.9053C149.091 23.9822 141.523 16.7486 132.187 16.7486C122.851 16.7486 115.283 23.9822 115.283 32.9053C115.283 41.8284 122.851 49.062 132.187 49.062Z" fill="white"/>
<g style="mix-blend-mode:multiply" opacity="0.49">
<path d="M138.655 17.9806C139.231 25.3924 137.383 37.8533 120.736 44.7905C123.906 47.5615 127.978 49.0804 132.187 49.062C141.523 49.062 149.091 41.8319 149.091 32.9053C149.091 26.175 144.779 20.4041 138.655 17.9806Z" fill="#FF725E"/>
</g>
<path d="M132.187 49.062C141.523 49.062 149.091 41.8284 149.091 32.9053C149.091 23.9822 141.523 16.7486 132.187 16.7486C122.851 16.7486 115.283 23.9822 115.283 32.9053C115.283 41.8284 122.851 49.062 132.187 49.062Z" stroke="#2E353A" stroke-miterlimit="10"/>
<path d="M115.056 32.0066C116.088 32.0066 116.924 31.1702 116.924 30.1384C116.924 29.1067 116.088 28.2703 115.056 28.2703C114.024 28.2703 113.188 29.1067 113.188 30.1384C113.188 31.1702 114.024 32.0066 115.056 32.0066Z" fill="white" stroke="#2E353A" stroke-miterlimit="10"/>
<path d="M115.056 31.2593C115.675 31.2593 116.177 30.7575 116.177 30.1384C116.177 29.5194 115.675 29.0176 115.056 29.0176C114.437 29.0176 113.935 29.5194 113.935 30.1384C113.935 30.7575 114.437 31.2593 115.056 31.2593Z" fill="white" stroke="#2E353A" stroke-miterlimit="10"/>
<path d="M131.96 46.5173C139.603 46.5173 145.799 41.3272 145.799 34.9249C145.799 28.5226 139.603 23.3325 131.96 23.3325C124.317 23.3325 118.121 28.5226 118.121 34.9249C118.121 41.3272 124.317 46.5173 131.96 46.5173Z" fill="#2E353A" stroke="#2E353A" stroke-miterlimit="10"/>
<path d="M120.807 29.3559V34.7431L121.67 30.6484L124.038 35.6065V30.0021L133.313 43.3617L126.85 28.4925H129.88L127.724 26.5537L131.601 25.4783L126.648 25.0491C126.648 25.0491 122.745 26.1245 120.807 29.3559Z" fill="#FF725E"/>
<path d="M160.285 54.9794L160.694 55.2116C162.844 56.4234 172.811 62.1236 175.204 64.7138C177.86 67.622 171.67 71.9237 166.353 73.1859C161.037 74.4481 150.803 65.4761 149.283 63.704C147.763 61.9318 146.375 52.4498 149.914 50.6827C153.453 48.9156 160.285 54.9794 160.285 54.9794Z" fill="white"/>
<g style="mix-blend-mode:multiply" opacity="0.49">
<path d="M175.22 64.7137C172.852 62.1236 162.86 56.4234 160.709 55.2116L160.3 54.9794C160.3 54.9794 153.469 48.9206 149.929 50.6827C146.39 52.4448 147.784 61.9368 149.298 63.704C150.895 65.3472 152.628 66.8521 154.478 68.2026L164.112 59.7607L175.583 67.3342C175.803 66.9139 175.886 66.4355 175.821 65.9657C175.756 65.496 175.546 65.0583 175.22 64.7137Z" fill="#FF725E"/>
</g>
<path d="M160.285 54.9794L160.694 55.2116C162.844 56.4234 172.811 62.1236 175.204 64.7138C177.86 67.622 171.67 71.9237 166.353 73.1859C161.037 74.4481 150.803 65.4761 149.283 63.704C147.763 61.9318 146.375 52.4498 149.914 50.6827C153.453 48.9156 160.285 54.9794 160.285 54.9794Z" stroke="#2E353A" stroke-miterlimit="10"/>
<path d="M146.148 46.5072C146.974 45.696 147.952 45.056 149.026 44.6239C156.256 41.8773 160.133 50.1323 161.481 55.7771C161.481 55.7771 159.795 57.1251 155.589 56.4486C151.384 55.772 145.325 52.9143 144.648 50.5564C144.229 49.0872 145.007 47.6381 146.148 46.5072Z" fill="#2E353A" stroke="#2E353A" stroke-miterlimit="10"/>
<path d="M160.158 70.6564C160.158 70.6564 167.111 62.4417 172.043 62.3155C176.976 62.1893 179.258 65.981 178.754 69.0155C178.249 72.0499 174.457 75.463 174.457 75.463C174.457 75.463 177.113 66.3748 173.19 66.3748C169.267 66.3748 160.158 70.6564 160.158 70.6564Z" fill="#2E353A" stroke="#2E353A" stroke-miterlimit="10"/>
<path d="M157.629 72.5548C157.629 72.5548 165.975 65.7286 171.917 64.845C177.86 63.9614 179.996 71.1663 174.442 75.4478C168.888 79.7294 165.207 81.5066 161.289 81.0017C157.371 80.4968 154.216 76.604 157.629 72.5548Z" fill="white"/>
<g style="mix-blend-mode:multiply" opacity="0.49">
<path d="M175.285 65.3398C175.371 66.8091 174.932 70.5705 168.822 73.2263C161.082 76.5939 159.527 76.604 159.527 76.604C159.757 77.8543 159.543 79.1455 158.921 80.2544C159.658 80.6569 160.462 80.9188 161.294 81.0269C165.212 81.5318 168.868 79.7647 174.447 75.4731C178.754 72.1256 178.431 67.0363 175.285 65.3398Z" fill="#FF725E"/>
</g>
<path d="M157.629 72.5548C157.629 72.5548 165.975 65.7286 171.917 64.845C177.86 63.9614 179.996 71.1663 174.442 75.4478C168.888 79.7294 165.207 81.5066 161.289 81.0017C157.371 80.4968 154.216 76.604 157.629 72.5548Z" stroke="#2E353A" stroke-miterlimit="10"/>
<path d="M163.562 79.6536C163.562 79.6536 175.679 74.6046 177.805 67.3594" stroke="#2E353A" stroke-width="0.5" stroke-miterlimit="10"/>
<path d="M154.594 75.2105C154.594 75.2105 156.109 73.1909 158.26 72.9334C160.411 72.6759 162.688 75.7154 163.445 78.2449C164.202 80.7745 163.193 82.0367 162.052 82.4154C160.91 82.7941 154.594 75.2105 154.594 75.2105Z" fill="#2E353A" stroke="#2E353A" stroke-miterlimit="10"/>
<path d="M162.052 82.4154C162.052 82.4154 162.814 80.0171 159.527 76.604C156.24 73.1909 155.099 75.0893 152.191 76.7303C149.283 78.3712 148.273 81.2743 149.535 83.2939C150.797 85.3135 151.307 86.5808 155.089 87.2119C158.871 87.843 161.032 83.925 161.032 83.925C161.54 83.5587 161.901 83.0237 162.052 82.4154Z" fill="white"/>
<g style="mix-blend-mode:multiply" opacity="0.49">
<path d="M156.705 81.9762C154.435 82.7274 152.106 83.2831 149.742 83.6373C150.868 85.465 151.519 86.6262 155.099 87.222C158.891 87.8531 161.042 83.9352 161.042 83.9352C161.547 83.5659 161.905 83.0291 162.052 82.4205C162.052 82.4205 162.814 80.0222 159.527 76.6091C159.527 76.6041 160.411 80.6331 156.705 81.9762Z" fill="#FF725E"/>
</g>
<path d="M162.052 82.4154C162.052 82.4154 162.814 80.0171 159.527 76.604C156.24 73.1909 155.099 75.0893 152.191 76.7303C149.283 78.3712 148.273 81.2743 149.535 83.2939C150.797 85.3135 151.307 86.5808 155.089 87.2119C158.871 87.843 161.032 83.925 161.032 83.925C161.54 83.5587 161.901 83.0237 162.052 82.4154Z" stroke="#2E353A" stroke-miterlimit="10"/>
<path d="M161.042 83.9352C161.042 83.9352 158.134 85.7073 156.362 85.8336L161.042 83.9352Z" fill="white"/>
<path d="M161.042 83.9352C161.042 83.9352 158.134 85.7073 156.362 85.8336" stroke="#2E353A" stroke-miterlimit="10"/>
<path d="M76.8908 166.516C76.8908 166.516 72.1801 163.153 76.5576 158.776C80.935 154.398 83.9593 155.408 85.6457 151.369C87.3321 147.33 89.0083 139.928 101.464 135.551C113.92 131.173 126.371 134.879 132.429 139.252C138.488 143.624 149.596 146.658 155.655 145.987C161.713 145.315 169.12 151.369 170.13 156.756C171.14 162.144 173.159 162.815 174.169 163.825C175.179 164.835 176.189 167.526 176.189 167.526H84.6359C84.6359 167.526 79.2487 168.202 76.8908 166.516Z" fill="#2E353A" stroke="#2E353A" stroke-miterlimit="10"/>
<path d="M163.274 151.43C163.274 151.43 166.152 155.741 164.354 159.341C162.557 162.941 159.305 162.936 159.305 162.936" stroke="white" stroke-miterlimit="10"/>
<path d="M157.881 160.78C157.881 160.78 157.881 162.214 152.833 164.017" stroke="white" stroke-miterlimit="10"/>
<path d="M110.593 165.446C109.002 165.895 107.892 166.173 107.892 166.173" stroke="white" stroke-miterlimit="10"/>
<path d="M126.997 149.405C125.331 150.799 123.533 152.687 122.993 154.666C121.918 158.619 123.715 159.341 120.837 161.497C119.237 162.699 115.415 164.022 112.34 164.936" stroke="white" stroke-miterlimit="10"/>
<path d="M130.188 147.113C130.188 147.113 129.501 147.517 128.547 148.198" stroke="white" stroke-miterlimit="10"/>
<path d="M114.723 159.7C114.723 159.7 109.674 162.936 105.372 164.375C101.07 165.814 91.3462 163.295 91.3462 163.295" stroke="white" stroke-miterlimit="10"/>
<path d="M89.9627 160.826C88.2147 160.009 86.7083 158.753 85.5903 157.18" stroke="white" stroke-miterlimit="10"/>
<path d="M94.9409 162.214C93.9746 162.128 93.0201 161.94 92.0933 161.654" stroke="white" stroke-miterlimit="10"/>
<path d="M120.65 82.0317C116.576 78.6034 113.052 79.0023 111.027 79.7344C110.704 81.3904 110.487 82.4507 110.436 82.6072C110.118 83.5514 111.375 86.5353 115.303 90.7765C117.814 93.4763 121.113 95.314 124.73 96.0274C125.704 92.2356 125.901 86.4546 120.65 82.0317Z" fill="#2E353A" stroke="#2E353A" stroke-miterlimit="10"/>
<path d="M106.049 134.44C106.049 134.44 98.6521 138.358 98.4753 142.609C98.2986 146.86 102.716 146.85 107.563 145.593C112.41 144.336 118.712 139.151 119.812 138.681C120.913 138.211 124.679 136.01 123.897 132.87C123.114 129.729 118.848 126.745 118.848 126.745L106.049 134.44Z" fill="white" stroke="#2E353A" stroke-miterlimit="10"/>
<path d="M123.993 133.188C119.762 136.252 110.36 142.826 106.195 144.023C104.907 144.436 103.541 144.541 102.205 144.33C100.87 144.118 99.6024 143.596 98.5054 142.806C98.5054 146.845 102.817 146.845 107.594 145.593C112.461 144.336 118.742 139.151 119.842 138.681C120.943 138.211 124.457 136.157 123.993 133.188Z" fill="#FF725E" stroke="#2E353A" stroke-miterlimit="10"/>
<path d="M97.556 117.006C97.556 117.006 102.58 133.162 104.463 134.753C106.346 136.343 114.359 135.066 114.359 135.066C114.359 135.066 116.086 138.211 117.343 139.61C118.6 141.009 122.392 139.923 122.528 135.995C122.665 132.067 120.327 126.574 120.327 126.574L114.99 111.805C114.99 111.805 108.704 110.548 102.873 111.805C97.0411 113.063 97.556 117.006 97.556 117.006Z" fill="white"/>
<g style="mix-blend-mode:multiply" opacity="0.49">
<path d="M122.528 136.01C122.685 132.082 120.327 126.589 120.327 126.589L114.99 111.821C111.657 111.232 108.257 111.119 104.892 111.487C103.622 111.906 102.318 112.215 100.995 112.411C99.9752 112.803 99.0828 113.466 98.4146 114.33C99.7525 114.759 101.277 115.213 102.868 115.638C107.917 116.986 109.598 114.966 110.608 119.005C111.618 123.044 112.759 131.274 114.374 135.066C114.374 135.066 116.101 138.211 117.358 139.61C118.615 141.009 122.372 139.938 122.528 136.01Z" fill="#FF725E"/>
</g>
<path d="M97.556 117.006C97.556 117.006 102.58 133.162 104.463 134.753C106.346 136.343 114.359 135.066 114.359 135.066C114.359 135.066 116.086 138.211 117.343 139.61C118.6 141.009 122.392 139.923 122.528 135.995C122.665 132.067 120.327 126.574 120.327 126.574L114.99 111.805C114.99 111.805 108.704 110.548 102.873 111.805C97.0411 113.063 97.556 117.006 97.556 117.006Z" stroke="#2E353A" stroke-miterlimit="10"/>
<path d="M120.483 134.364C120.644 135.241 120.693 136.135 120.63 137.025" stroke="#2E353A" stroke-width="0.5" stroke-miterlimit="10"/>
<path d="M113.218 115.562C113.218 115.562 118.454 125.66 120.145 132.728" stroke="#2E353A" stroke-width="0.5" stroke-miterlimit="10"/>
<path d="M96.925 109.468C96.925 109.468 94.5722 112.452 95.9859 116.062C97.3996 119.672 103.054 120.606 107.922 118.889C112.789 117.172 115.46 112.921 114.834 110.725C114.208 108.529 96.925 109.468 96.925 109.468Z" fill="#2E353A" stroke="#2E353A" stroke-miterlimit="10"/>
<path d="M124.255 94.8611C124.255 94.8611 117.975 109.311 113.89 112.295C109.805 115.279 100.697 115.436 97.4 111.821C94.103 108.205 98.0261 99.7283 102.111 93.1394C106.195 86.5505 108.235 80.8906 112.789 81.2037C117.343 81.5167 124.887 87.1614 124.255 94.8611Z" fill="white"/>
<g style="mix-blend-mode:multiply" opacity="0.49">
<path d="M110.254 108.569C106.72 111.543 101.964 112.462 98.4043 112.689C102.272 115.385 110.168 115.012 113.889 112.295C117.974 109.311 124.255 94.8611 124.255 94.8611C124.388 93.2033 124.148 91.5367 123.553 89.9838C121.781 93.2252 115.641 104.025 110.254 108.569Z" fill="#FF725E"/>
</g>
<path d="M124.255 94.8611C124.255 94.8611 117.975 109.311 113.89 112.295C109.805 115.279 100.697 115.436 97.4 111.821C94.103 108.205 98.0261 99.7283 102.111 93.1394C106.195 86.5505 108.235 80.8906 112.789 81.2037C117.343 81.5167 124.887 87.1614 124.255 94.8611Z" stroke="#2E353A" stroke-miterlimit="10"/>
<path d="M110.149 112.911C109.579 113.274 108.971 113.574 108.336 113.805" stroke="#2E353A" stroke-width="0.5" stroke-miterlimit="10"/>
<path d="M122.241 96.1587C120.292 100.314 116.636 107.266 112.355 111.2" stroke="#2E353A" stroke-width="0.5" stroke-miterlimit="10"/>
<path d="M123.755 92.7304C123.755 92.7304 123.412 93.5887 122.791 94.9671" stroke="#2E353A" stroke-width="0.5" stroke-miterlimit="10"/>
</svg>
