<svg width="70" height="71" viewBox="0 0 70 71" fill="none" xmlns="http://www.w3.org/2000/svg">
<path d="M10.5 27.5327V45.4268C10.5 47.8065 8.29427 49.7071 5.48698 49.7071C2.69792 49.7071 0 47.791 0 45.4268V27.5327C0 25.1993 2.69792 23.2832 5.48698 23.2832C8.23958 23.2832 10.5 25.1993 10.5 27.5327ZM12.4688 51.7932C12.4688 54.3275 14.875 56.3672 17.8646 56.3672H21.4922L21.5469 65.8087C21.5469 71.5107 31.6094 71.4644 31.6094 65.8087V56.3672H38.3906V65.8087C38.3906 71.4798 48.5078 71.4953 48.5078 65.8087V56.3672H52.1901C55.1432 56.3672 57.5495 54.3275 57.5495 51.7932V24.0713H12.4688V51.7932ZM57.6771 22.5724H12.2682C12.2682 15.9587 16.9349 10.2103 23.862 7.21253L20.3802 1.75776C19.8698 1.00059 21.1641 0.521558 21.6016 1.17057L25.138 6.67169C31.5 4.27654 38.8099 4.40016 44.8802 6.67169L48.3984 1.18602C48.8542 0.521557 50.1302 1.01604 49.6198 1.77322L46.138 7.21253C53.0104 10.2103 57.6771 15.9587 57.6771 22.5724ZM26.5599 13.9962C26.5599 13.1154 25.7214 12.3737 24.6458 12.3737C23.6068 12.3737 22.7865 13.1154 22.7865 13.9962C22.7865 14.877 23.625 15.6187 24.6458 15.6187C25.7214 15.6187 26.5599 14.877 26.5599 13.9962ZM47.2318 13.9962C47.2318 13.1154 46.3932 12.3737 45.3724 12.3737C44.2969 12.3737 43.4583 13.1154 43.4583 13.9962C43.4583 14.877 44.2969 15.6187 45.3724 15.6187C46.3932 15.6187 47.2318 14.877 47.2318 13.9962ZM64.513 23.2832C61.7604 23.2832 59.5 25.153 59.5 27.5327V45.4268C59.5 47.8065 61.7604 49.7071 64.513 49.7071C67.3203 49.7071 70 47.791 70 45.4268V27.5327C70 25.153 67.3021 23.2832 64.513 23.2832Z" fill="#FF725E"/>
</svg>
