<svg width="70" height="70" viewBox="0 0 70 70" fill="none" xmlns="http://www.w3.org/2000/svg">
<path d="M57.1758 23.1339C56.4375 22.8559 55.6992 22.5933 54.9609 22.3462C55.084 21.7747 55.1934 21.2032 55.3027 20.6317C56.9844 11.4258 55.877 4.02711 52.1445 1.58663C48.5488 -0.745736 42.6836 1.6793 36.75 7.51793C36.1621 8.08944 35.5879 8.69184 35.041 9.29423C34.6719 8.89264 34.2891 8.49104 33.9062 8.10488C27.6855 1.86466 21.4512 -0.761182 17.7188 1.69475C14.1367 4.04256 13.0703 11.0088 14.5742 19.7204C14.7246 20.5853 14.8887 21.4349 15.0801 22.2999C14.2051 22.5779 13.3438 22.8868 12.5371 23.2112C5.23633 26.0687 0 30.579 0 35.2437C0 40.0629 5.57813 44.8975 13.166 47.8323C13.7812 48.064 14.3965 48.2957 15.0254 48.4965C14.8203 49.4232 14.6426 50.3345 14.4785 51.2768C13.043 59.8493 14.1641 66.6456 17.7461 68.978C21.4375 71.3876 27.6445 68.9162 33.6875 62.9386C34.166 62.4597 34.6445 61.9655 35.123 61.4403C35.7246 62.1045 36.3535 62.7378 36.9824 63.3556C42.834 69.0398 48.6172 71.3413 52.1855 69.0089C55.877 66.5993 57.0801 59.2933 55.5215 50.3963C55.3984 49.7167 55.2617 49.0216 55.1113 48.3111C55.5488 48.1721 55.9727 48.0176 56.3965 47.8632C64.2852 44.913 70 40.1401 70 35.2437C70 30.5635 64.6133 26.0224 57.1758 23.1339ZM38.6777 10.0202C43.7637 5.01566 48.5078 3.05401 50.668 4.4596C52.9785 5.95788 53.8672 12.0127 52.418 19.9675C52.3223 20.4927 52.2266 21.0024 52.1035 21.5121C49.0684 20.7398 45.9922 20.1837 42.9023 19.8748C41.125 17.0018 39.1836 14.2524 37.0781 11.6729C37.6113 11.1014 38.1309 10.5608 38.6777 10.0202ZM22.8594 43.2602C23.5566 44.604 24.2676 45.9478 25.0195 47.2608C22.8867 46.9982 20.7676 46.612 18.6758 46.1023C19.2773 43.8781 20.0293 41.5766 20.9043 39.2288C21.5332 40.588 22.1758 41.9319 22.8594 43.2602ZM18.7168 24.6786C20.6855 24.1843 22.7773 23.7827 24.9512 23.4738C24.2266 24.7558 23.5156 26.0687 22.8457 27.3971C22.1758 28.71 21.5195 30.0538 20.9043 31.4131C20.043 29.1116 19.3184 26.8565 18.7168 24.6786ZM22.4629 35.3209C23.3652 33.1894 24.3496 31.1041 25.3887 29.0498C26.4277 26.9955 27.5488 25.0029 28.7246 23.0413C30.7754 22.8714 32.8672 22.7787 35 22.7787C37.1328 22.7787 39.2383 22.8714 41.2754 23.0413C42.4375 24.9875 43.5449 26.98 44.5977 29.0189C45.6504 31.0578 46.6348 33.143 47.5645 35.2591C46.6484 37.3907 45.6641 39.4914 44.6113 41.5612C43.5723 43.6155 42.4648 45.608 41.3027 47.5851C39.2656 47.755 37.1465 47.8323 35 47.8323C32.8535 47.8323 30.7754 47.755 28.7656 47.616C27.5762 45.6544 26.4551 43.6464 25.4023 41.592C24.3496 39.5377 23.3789 37.4525 22.4629 35.3209ZM47.1543 43.2293C47.8516 41.8701 48.5078 40.4954 49.1504 39.1052C50.0254 41.3449 50.791 43.6155 51.4609 45.9478C49.3418 46.4885 47.1953 46.9055 45.0352 47.1835C45.7734 45.8861 46.4707 44.5577 47.1543 43.2293ZM49.123 31.4131C48.4805 30.0538 47.8242 28.6945 47.1406 27.3662C46.4707 26.0533 45.7734 24.7558 45.0488 23.4738C47.25 23.7827 49.3555 24.1997 51.3242 24.7094C50.6953 26.9955 49.957 29.2197 49.123 31.4131ZM35.0273 14.0362C36.4629 15.797 37.8164 17.6506 39.0742 19.5659C36.3672 19.4269 33.6465 19.4269 30.9395 19.5659C32.2793 17.5734 33.6602 15.7198 35.0273 14.0362ZM19.168 4.56773C21.4648 3.05401 26.5645 5.21646 31.9375 10.5917C32.2793 10.9315 32.6211 11.3022 32.9766 11.6729C30.8574 14.2524 28.9023 17.0018 27.1113 19.8748C24.0215 20.1837 20.959 20.7244 17.9238 21.4812C17.7461 20.6935 17.5957 19.8903 17.4453 19.0871C16.1602 11.6112 17.0078 5.97332 19.168 4.56773ZM15.8184 45.2837C15.2441 45.0983 14.6836 44.8975 14.123 44.6813C11.2109 43.6464 7.90234 42.0091 5.50977 39.8621C4.12891 38.7809 3.19922 37.1127 2.93945 35.2437C2.93945 32.4171 7.25977 28.8027 13.4941 26.3467C14.2734 26.0378 15.0664 25.7598 15.8594 25.4972C16.7891 28.849 17.9102 32.139 19.209 35.3209C17.8965 38.5492 16.7617 41.8855 15.8184 45.2837ZM31.7598 60.4209C29.5039 62.7532 26.8926 64.6067 24.0488 65.8733C22.5312 66.692 20.7812 66.7692 19.2227 66.0741C17.0488 64.6531 16.1465 59.2006 17.377 51.8637C17.5273 50.9987 17.6914 50.1337 17.8828 49.2842C20.9453 50.0256 24.0352 50.5353 27.166 50.7979C28.9707 53.6863 30.9531 56.4512 33.0723 59.0462C32.6348 59.525 32.1973 59.9884 31.7598 60.4209ZM35.1094 56.6674C33.7148 54.9684 32.3203 53.084 30.9668 51.0605C32.2793 51.1223 33.6328 51.1532 35 51.1532C36.4082 51.1532 37.7891 51.1223 39.1562 51.0451C37.8984 53.0067 36.5449 54.8757 35.1094 56.6674ZM52.9785 61.3013C52.8555 63.1857 52.0352 64.9466 50.7227 66.1359C48.5488 67.557 43.9141 65.7034 38.9102 60.8533C38.3359 60.2973 37.7617 59.6949 37.1738 59.077C39.2656 56.4666 41.1934 53.7018 42.9434 50.7979C46.0742 50.5044 49.1914 49.9638 52.2676 49.1761C52.4043 49.8094 52.5273 50.4427 52.6367 51.0605C53.3066 54.3969 53.416 57.8722 52.9785 61.3013ZM55.4668 44.6967C55.084 44.8357 54.7012 44.9747 54.3047 45.0983C53.3477 41.7311 52.1719 38.441 50.8184 35.2437C52.1309 32.0927 53.2383 28.849 54.168 25.5281C54.8789 25.7598 55.5625 26.0069 56.2188 26.2541C62.5898 28.7254 67.0605 32.4016 67.0605 35.2128C67.0605 38.2402 62.2891 42.1481 55.4668 44.6967ZM35 42.3798C38.459 42.3798 41.2617 39.2133 41.2617 35.3055C41.2617 31.3976 38.459 28.2312 35 28.2312C31.541 28.2312 28.7383 31.3976 28.7383 35.3055C28.7383 39.2133 31.541 42.3798 35 42.3798Z" fill="#FF725E"/>
</svg>
