<svg width="70" height="70" viewBox="0 0 70 70" fill="none" xmlns="http://www.w3.org/2000/svg">
<path d="M21.0043 55.0813H42.0024C47.7988 55.0813 52.5015 48.4392 52.5015 40.2523H56.0012C63.7224 40.2523 70 31.3857 70 20.4802C70 9.57467 63.7224 0.70813 56.0012 0.70813H13.13C11.6754 0.70813 10.5052 2.36095 10.5052 4.41539V40.2523C10.5052 48.4392 15.2079 55.0813 21.0043 55.0813ZM56.0012 10.5942C59.8618 10.5942 63.0006 15.0274 63.0006 20.4802C63.0006 25.933 59.8618 30.3662 56.0012 30.3662H52.5015V10.5942H56.0012ZM61.218 69.9104H5.28847C0.0826712 69.9104 -1.38283 60.0244 1.35131 60.0244H65.1442C67.8783 60.0244 66.4347 69.9104 61.218 69.9104Z" fill="#FF725E"/>
</svg>
