<svg width="70" height="70" viewBox="0 0 70 70" fill="none" xmlns="http://www.w3.org/2000/svg">
<path d="M68.4958 33.1467L62.1043 20.6347C62.241 20.3259 62.3435 19.9783 62.3435 19.5921C62.3435 18.4335 61.4891 17.468 60.4637 17.4293L53.3885 3.60438C53.4569 3.37269 53.5251 3.14101 53.5251 2.90933C53.5251 1.67364 52.6365 0.70813 51.5769 0.70813C50.9617 0.70813 50.449 1.01709 50.073 1.51909H36.4697C36.1278 1.01723 35.6151 0.708274 34.9999 0.708274C34.3848 0.708274 33.872 1.01723 33.5302 1.51923H19.9952C19.6191 1.01723 19.1066 0.708274 18.4913 0.708274C17.4318 0.708274 16.543 1.67364 16.543 2.90947C16.543 3.14116 16.6114 3.41148 16.6798 3.60452L9.53618 17.6227C8.85274 17.9701 8.3741 18.704 8.3741 19.5922C8.3741 19.6693 8.40829 19.7466 8.40829 19.8239L1.60653 33.1082C0.683699 33.3013 0 34.1895 0 35.2708C0 36.3134 0.649373 37.2016 1.53813 37.4333L8.57915 51.1812C8.51076 51.4128 8.47656 51.6059 8.47656 51.8762C8.47656 52.9189 9.12594 53.8071 10.0147 54.0001L16.6114 66.9369C16.543 67.1686 16.4747 67.4389 16.4747 67.7092C16.4747 68.9449 17.3634 69.9104 18.423 69.9104C19.0382 69.9104 19.5509 69.6014 19.8927 69.1381H33.5303C33.872 69.6013 34.419 69.9102 34.9999 69.9102C35.5809 69.9102 36.1278 69.6013 36.4697 69.1379H50.1415C50.4832 69.5627 50.9959 69.833 51.5428 69.833C52.6365 69.833 53.4911 68.829 53.4911 67.6318C53.4911 67.4001 53.457 67.207 53.3886 67.014L59.9853 54C60.8739 53.8069 61.5234 52.9187 61.5234 51.8761C61.5234 51.6444 61.4892 51.4127 61.4208 51.181L68.4277 37.4332C69.3163 37.2401 70 36.3519 70 35.2706C69.9997 34.228 69.3502 33.3397 68.4958 33.1467ZM17.8418 63.3839L12.2706 52.4553H17.8418V63.3839ZM17.8418 51.2968H12.2706C12.2364 51.1424 12.168 50.988 12.0997 50.8334L17.8418 43.9983V51.2968ZM17.8418 42.2989L11.416 49.9838C11.2452 49.9066 11.0742 49.7906 10.9033 49.7521L3.79416 35.8499C3.86243 35.6569 3.86243 35.4637 3.86243 35.2706C3.86243 35.0776 3.86243 34.9232 3.82823 34.7686L10.4591 21.7933C10.801 21.7546 11.1427 21.6387 11.4504 21.407L17.8419 28.8989V42.2989H17.8418ZM17.8418 27.5471L11.9971 20.712C12.168 20.403 12.2706 20.0169 12.2706 19.5922C12.2706 19.5536 12.2364 19.4763 12.2364 19.4376L17.8418 17.1592V27.5471ZM17.8418 15.9233L12.2706 18.2018L17.8418 7.31173V15.9233ZM59.5067 21.5616L59.6093 21.7546L55.0975 45.8517L46.9627 36.1589L59.4725 21.5229L59.5067 21.5616ZM35.4784 49.5976L36.9482 51.2968H34.0429L35.4784 49.5976ZM35.4442 47.9757L24.8145 35.6569L34.9657 23.4924L45.5614 36.1202L35.4442 47.9757ZM36.1278 48.8253L46.245 36.9698L54.8582 47.242L54.1064 51.2968H38.2811L36.1278 48.8253ZM50.62 4.80171C50.7567 4.87899 50.8933 4.95627 51.0643 4.9949L58.447 19.5149V19.5922C58.447 20.0169 58.5495 20.403 58.7205 20.712L46.2792 35.3093L35.6836 22.6815L50.62 4.80171ZM49.4579 4.49276L34.9657 21.8319L27.6855 13.143L48.9109 4.49276H49.4579ZM33.7011 4.49276C34.0428 4.87885 34.4871 5.11053 34.9999 5.11053C35.5128 5.11053 35.957 4.87885 36.2988 4.49276H45.8691L26.9336 12.2161L20.4395 4.49276H33.7011ZM18.8673 5.30372L19.004 4.9949C19.1193 4.96161 19.2333 4.92294 19.3458 4.87899L25.8741 12.6411L18.8673 15.4988V5.30372ZM18.8673 16.7344L26.626 13.5679L34.248 22.6815L24.0967 34.8073L18.8673 28.7444V16.7344ZM18.8673 30.0959L23.5156 35.5409L18.8673 41.0633V30.0959ZM18.8673 42.7625L24.2334 36.352L34.7949 48.7481L32.6074 51.2968H18.8673V42.7625ZM19.7559 66.1258C19.5509 65.8941 19.3116 65.7397 19.004 65.6238L18.8673 65.3921V52.4553H31.6162L19.9268 66.1258H19.7559ZM36.333 66.1258C35.9912 65.7783 35.5128 65.508 34.9999 65.508C34.4871 65.508 34.0088 65.7783 33.6669 66.1258H21.3622L33.0516 52.4553H37.9393L49.6286 66.1258H36.333ZM51.6454 64.4266L51.0985 65.5079C50.9276 65.5465 50.791 65.6236 50.6542 65.7009L39.2725 52.4552H53.8672L51.6454 64.4266ZM53.2859 61.2214L54.9266 52.4553H57.7293L53.2859 61.2214ZM57.7293 51.2968H55.1317L55.7126 48.2461L57.9001 50.8721C57.8319 50.9878 57.7635 51.1422 57.7293 51.2968ZM66.1716 35.8113L59.0964 49.7521C58.9256 49.8293 58.7546 49.9066 58.5837 50.0223L55.9519 46.8558L60.3611 23.2221L66.2057 34.6529C66.1716 34.8459 66.1032 35.0389 66.1032 35.2706C66.1032 35.4637 66.1375 35.6182 66.1716 35.8113Z" fill="#FF725E"/>
</svg>
