<svg width="70" height="64" viewBox="0 0 70 64" fill="none" xmlns="http://www.w3.org/2000/svg">
<path d="M68.4958 30.0943L62.1043 18.7596C62.241 18.4799 62.3435 18.165 62.3435 17.8151C62.3435 16.7656 61.4891 15.8909 60.4637 15.8559L53.3885 3.33184C53.4569 3.12196 53.5251 2.91208 53.5251 2.7022C53.5251 1.58279 52.6365 0.70813 51.5769 0.70813C50.9617 0.70813 50.449 0.988015 50.073 1.44278H36.4697C36.1278 0.988146 35.6151 0.708261 34.9999 0.708261C34.3848 0.708261 33.872 0.988146 33.5302 1.44291H19.9952C19.6191 0.988146 19.1066 0.708261 18.4913 0.708261C17.4318 0.708261 16.543 1.58279 16.543 2.70233C16.543 2.91221 16.6114 3.15709 16.6798 3.33197L9.53618 16.031C8.85274 16.3458 8.3741 17.0106 8.3741 17.8152C8.3741 17.8851 8.40829 17.9551 8.40829 18.0251L1.60653 30.0594C0.683699 30.2343 0 31.0389 0 32.0185C0 32.963 0.649373 33.7677 1.53813 33.9775L8.57916 46.4317C8.51076 46.6416 8.47656 46.8165 8.47656 47.0614C8.47656 48.0059 9.12594 48.8105 10.0147 48.9854L16.6114 60.7048C16.543 60.9147 16.4747 61.1596 16.4747 61.4045C16.4747 62.5239 17.3634 63.3985 18.423 63.3985C19.0382 63.3985 19.5509 63.1187 19.8927 62.6989H33.5303C33.872 63.1185 34.419 63.3984 34.9999 63.3984C35.5809 63.3984 36.1278 63.1185 36.4697 62.6988H50.1415C50.4832 63.0835 50.9959 63.3284 51.5428 63.3284C52.6365 63.3284 53.4911 62.4189 53.4911 61.3343C53.4911 61.1245 53.457 60.9496 53.3886 60.7747L59.9853 48.9853C60.8739 48.8104 61.5234 48.0058 61.5234 47.0612C61.5234 46.8514 61.4892 46.6415 61.4208 46.4316L68.4277 33.9774C69.3163 33.8025 70 32.9979 70 32.0183C69.9997 31.0738 69.3502 30.2692 68.4958 30.0943V30.0943ZM17.8418 57.4862L12.2706 47.586H17.8418V57.4862ZM17.8418 46.5365H12.2706C12.2364 46.3966 12.168 46.2567 12.0997 46.1167L17.8418 39.9247V46.5365ZM17.8418 38.3853L11.416 45.347C11.2452 45.277 11.0742 45.172 10.9033 45.1372L3.79416 32.5431C3.86243 32.3682 3.86243 32.1932 3.86243 32.0183C3.86243 31.8435 3.86243 31.7036 3.82823 31.5636L10.4591 19.8092C10.801 19.7742 11.1427 19.6692 11.4504 19.4593L17.8419 26.2461V38.3853H17.8418ZM17.8418 25.0216L11.9971 18.8296C12.168 18.5497 12.2706 18.2 12.2706 17.8152C12.2706 17.7802 12.2364 17.7102 12.2364 17.6752L17.8418 15.6111V25.0216ZM17.8418 14.4916L12.2706 16.5557L17.8418 6.69034V14.4916ZM59.5067 19.5993L59.6093 19.7742L55.0975 41.6038L46.9627 32.823L59.4725 19.5643L59.5067 19.5993ZM35.4784 44.9972L36.9482 46.5365H34.0429L35.4784 44.9972ZM35.4442 43.5279L24.8145 32.3682L34.9657 21.3485L45.5614 32.788L35.4442 43.5279V43.5279ZM36.1278 44.2975L46.245 33.5576L54.8582 42.8632L54.1064 46.5365H38.2811L36.1278 44.2975V44.2975ZM50.62 4.41651C50.7567 4.48652 50.8933 4.55652 51.0643 4.59152L58.447 17.7452V17.8152C58.447 18.2 58.5495 18.5497 58.7205 18.8296L46.2792 32.0533L35.6836 20.6138L50.62 4.41651ZM49.4579 4.13663L34.9657 19.8442L27.6855 11.9729L48.9109 4.13663H49.4579V4.13663ZM33.7011 4.13663C34.0428 4.48639 34.4871 4.69627 34.9999 4.69627C35.5128 4.69627 35.957 4.48639 36.2988 4.13663H45.8691L26.9336 11.1332L20.4395 4.13663H33.7011V4.13663ZM18.8673 4.87128L19.004 4.59152C19.1193 4.56136 19.2333 4.52633 19.3458 4.48652L25.8741 11.5183L18.8673 14.107V4.87128ZM18.8673 15.2264L26.626 12.3578L34.248 20.6138L24.0967 31.5986L18.8673 26.1063V15.2264ZM18.8673 27.3306L23.5156 32.2632L18.8673 37.2659V27.3306V27.3306ZM18.8673 38.8052L24.2334 32.998L34.7949 44.2276L32.6074 46.5365H18.8673V38.8052V38.8052ZM19.7559 59.97C19.5509 59.7602 19.3116 59.6203 19.004 59.5153L18.8673 59.3054V47.586H31.6162L19.9268 59.97H19.7559ZM36.333 59.97C35.9912 59.6553 35.5128 59.4104 34.9999 59.4104C34.4871 59.4104 34.0088 59.6553 33.6669 59.97H21.3622L33.0516 47.586H37.9393L49.6286 59.97H36.333ZM51.6454 58.4307L51.0985 59.4103C50.9276 59.4453 50.791 59.5152 50.6542 59.5852L39.2725 47.5859H53.8672L51.6454 58.4307V58.4307ZM53.2859 55.5271L54.9266 47.586H57.7293L53.2859 55.5271ZM57.7293 46.5365H55.1317L55.7126 43.7729L57.9001 46.1517C57.8319 46.2566 57.7635 46.3965 57.7293 46.5365V46.5365ZM66.1716 32.5081L59.0964 45.1372C58.9256 45.207 58.7546 45.277 58.5837 45.3819L55.9519 42.5133L60.3611 21.1036L66.2057 31.4587C66.1716 31.6336 66.1032 31.8085 66.1032 32.0183C66.1032 32.1932 66.1374 32.3332 66.1716 32.5081Z" fill="#FF725E"/>
</svg>
