<svg width="70" height="64" viewBox="0 0 70 64" fill="none" xmlns="http://www.w3.org/2000/svg">
<path d="M10.5 25.0235V41.2338C10.5 43.3896 8.29427 45.1114 5.48698 45.1114C2.69792 45.1114 0 43.3756 0 41.2338V25.0235C0 22.9097 2.69792 21.1739 5.48698 21.1739C8.23958 21.1739 10.5 22.9097 10.5 25.0235ZM12.4688 47.0012C12.4688 49.297 14.875 51.1448 17.8646 51.1448H21.4922L21.5469 59.698C21.5469 64.8634 31.6094 64.8214 31.6094 59.698V51.1448H38.3906V59.698C38.3906 64.8354 48.5078 64.8494 48.5078 59.698V51.1448H52.1901C55.1432 51.1448 57.5495 49.297 57.5495 47.0012V21.8878H12.4688V47.0012V47.0012ZM57.6771 20.5299H12.2682C12.2682 14.5385 16.9349 9.33108 23.862 6.61535L20.3802 1.67386C19.8698 0.987926 21.1641 0.553971 21.6016 1.14191L25.138 6.1254C31.5 3.95562 38.8099 4.06761 44.8802 6.1254L48.3984 1.15591C48.8542 0.55397 50.1302 1.00192 49.6198 1.68785L46.138 6.61535C53.0104 9.33108 57.6771 14.5385 57.6771 20.5299V20.5299ZM26.5599 12.7607C26.5599 11.9628 25.7214 11.2909 24.6458 11.2909C23.6068 11.2909 22.7865 11.9628 22.7865 12.7607C22.7865 13.5586 23.625 14.2306 24.6458 14.2306C25.7214 14.2306 26.5599 13.5586 26.5599 12.7607ZM47.2318 12.7607C47.2318 11.9628 46.3932 11.2909 45.3724 11.2909C44.2969 11.2909 43.4583 11.9628 43.4583 12.7607C43.4583 13.5586 44.2969 14.2306 45.3724 14.2306C46.3932 14.2306 47.2318 13.5586 47.2318 12.7607ZM64.513 21.1739C61.7604 21.1739 59.5 22.8677 59.5 25.0235V41.2338C59.5 43.3896 61.7604 45.1114 64.513 45.1114C67.3203 45.1114 70 43.3756 70 41.2338V25.0235C70 22.8677 67.3021 21.1739 64.513 21.1739Z" fill="#FF725E"/>
</svg>
