<svg width="70" height="70" viewBox="0 0 70 70" fill="none" xmlns="http://www.w3.org/2000/svg">
<path d="M58.5255 37.2777C58.4883 31.6076 61.5755 27.328 67.8241 24.1763C64.3278 20.0203 59.0462 17.7337 52.0723 17.2857C45.4702 16.8531 38.2545 20.4838 35.6137 20.4838C32.8241 20.4838 26.4267 17.4402 21.4054 17.4402C11.0282 17.5792 0 24.3153 0 38.0193C0 42.0671 0.892667 46.2488 2.678 50.5645C5.05845 56.2345 13.6504 70.1393 22.6142 69.9075C27.3007 69.8148 30.6111 67.142 36.7109 67.142C42.6249 67.142 45.6934 69.9075 50.9192 69.9075C59.9575 69.7994 67.7311 57.1615 70 51.476C57.8746 46.7329 58.5255 37.5712 58.5255 37.2777V37.2777ZM47.9995 11.9092C53.0765 6.90348 52.6116 2.3458 52.4628 0.70813C47.9809 0.924426 42.7922 3.24189 39.8353 6.10009C36.5808 9.15914 34.6653 12.9443 35.0744 17.2085C39.9283 17.5175 44.3544 15.4472 47.9995 11.9092V11.9092Z" fill="#FF725E"/>
</svg>
