<svg width="70" height="61" viewBox="0 0 70 61" fill="none" xmlns="http://www.w3.org/2000/svg">
<path d="M21.0043 47.3724H42.0024C47.7988 47.3724 52.5015 41.672 52.5015 34.6458H56.0012C63.7224 34.6458 70 27.0363 70 17.677C70 8.31759 63.7224 0.70813 56.0012 0.70813H13.13C11.6754 0.70813 10.5052 2.12662 10.5052 3.88979V34.6458C10.5052 41.672 15.2079 47.3724 21.0043 47.3724ZM56.0012 9.19255C59.8618 9.19255 63.0006 12.9973 63.0006 17.677C63.0006 22.3567 59.8618 26.1614 56.0012 26.1614H52.5015V9.19255H56.0012ZM61.218 60.0991H5.28847C0.0826712 60.0991 -1.38283 51.6146 1.35131 51.6146H65.1442C67.8783 51.6146 66.4347 60.0991 61.218 60.0991V60.0991Z" fill="#FF725E"/>
</svg>
