<svg width="74" height="64" viewBox="0 0 74 64" fill="none" xmlns="http://www.w3.org/2000/svg">
<path d="M60.0996 21.0237C59.3306 20.7718 58.5615 20.534 57.7925 20.3101C57.9207 19.7924 58.0346 19.2746 58.1485 18.7569C59.9002 10.4173 58.7467 3.7148 54.8587 1.50396C51.1132 -0.608929 45.0036 1.58792 38.8228 6.87714C38.2104 7.39487 37.6122 7.94058 37.0426 8.48629C36.658 8.12248 36.2593 7.75868 35.8605 7.40886C29.3806 1.75583 22.8865 -0.622922 18.9985 1.60191C15.2673 3.72879 14.1564 10.0395 15.723 17.9313C15.8796 18.7149 16.0505 19.4845 16.2499 20.2681C15.3385 20.52 14.4412 20.7998 13.601 21.0937C5.99601 23.6823 0.541504 27.7682 0.541504 31.9939C0.541504 36.3597 6.35205 40.7394 14.2561 43.398C14.897 43.6078 15.5378 43.8177 16.193 43.9996C15.9793 44.8392 15.7942 45.6648 15.6233 46.5183C14.1279 54.2842 15.2957 60.441 19.027 62.5539C22.8722 64.7367 29.3379 62.4979 35.6326 57.0828C36.1311 56.649 36.6296 56.2012 37.128 55.7255C37.7546 56.3272 38.4097 56.9009 39.0649 57.4606C45.1602 62.6099 51.1844 64.6948 54.9014 62.5819C58.7467 60.399 59.9999 53.7805 58.3764 45.7207C58.2482 45.1051 58.1058 44.4754 57.9491 43.8317C58.4049 43.7058 58.8464 43.5659 59.2878 43.4259C67.5052 40.7533 73.4582 36.4296 73.4582 31.9939C73.4582 27.7542 67.847 23.6403 60.0996 21.0237V21.0237ZM40.8308 9.14395C46.1287 4.61033 51.0705 2.83326 53.3206 4.10659C55.7275 5.46388 56.6532 10.949 55.1436 18.1552C55.0439 18.631 54.9442 19.0927 54.816 19.5545C51.6544 18.8548 48.45 18.3511 45.2314 18.0713C43.38 15.4686 41.3577 12.9779 39.1646 10.6412C39.72 10.1234 40.2611 9.63369 40.8308 9.14395V9.14395ZM24.3534 39.2561C25.0797 40.4735 25.8202 41.6909 26.6035 42.8802C24.3818 42.6424 22.1744 42.2925 19.9954 41.8308C20.6221 39.8158 21.4054 37.7309 22.3168 35.604C22.9719 36.8354 23.6413 38.0528 24.3534 39.2561V39.2561ZM20.0382 22.423C22.0889 21.9752 24.2679 21.6114 26.5323 21.3315C25.7775 22.4929 25.0369 23.6823 24.3391 24.8857C23.6413 26.0751 22.9577 27.2924 22.3168 28.5238C21.4196 26.4389 20.6648 24.3959 20.0382 22.423ZM23.9403 32.0639C24.8803 30.1329 25.9057 28.2439 26.988 26.3829C28.0704 24.5219 29.2382 22.7168 30.463 20.9398C32.5992 20.7858 34.7782 20.7019 36.9998 20.7019C39.2215 20.7019 41.4147 20.7858 43.5367 20.9398C44.7472 22.7028 45.9008 24.5079 46.9974 26.3549C48.094 28.2019 49.1194 30.0909 50.0878 32.0079C49.1336 33.9389 48.1082 35.8419 47.0116 37.7169C45.9293 39.578 44.7757 41.383 43.5652 43.1741C41.4432 43.328 39.2358 43.398 36.9998 43.398C34.7639 43.398 32.5992 43.328 30.5057 43.2021C29.2667 41.425 28.0989 39.606 27.0023 37.7449C25.9057 35.8839 24.8945 33.9949 23.9403 32.0639ZM49.6606 39.2281C50.3869 37.9968 51.0705 36.7514 51.7398 35.4921C52.6513 37.521 53.4488 39.578 54.1466 41.6909C51.9392 42.1806 49.7033 42.5584 47.4531 42.8103C48.2222 41.6349 48.9485 40.4315 49.6606 39.2281ZM51.7113 28.5238C51.042 27.2924 50.3584 26.0611 49.6463 24.8577C48.9485 23.6683 48.2222 22.4929 47.4674 21.3315C49.7603 21.6114 51.9534 21.9892 54.0042 22.451C53.3491 24.5219 52.5801 26.5368 51.7113 28.5238V28.5238ZM37.0283 12.782C38.5237 14.3772 39.9336 16.0563 41.2438 17.7914C38.424 17.6655 35.5899 17.6655 32.7701 17.7914C34.1658 15.9864 35.6042 14.3072 37.0283 12.782ZM20.5081 4.20454C22.9007 2.83326 28.2128 4.79223 33.8097 9.66168C34.1658 9.96952 34.5218 10.3053 34.8921 10.6412C32.6847 12.9779 30.6481 15.4686 28.7825 18.0713C25.5639 18.3511 22.3738 18.8409 19.2122 19.5265C19.027 18.8129 18.8704 18.0853 18.7137 17.3576C17.375 10.5852 18.258 5.47787 20.5081 4.20454V4.20454ZM17.019 41.0892C16.4208 40.9213 15.8369 40.7394 15.253 40.5435C12.2196 39.606 8.77311 38.1227 6.28084 36.1777C4.84245 35.1983 3.87402 33.6871 3.60343 31.9939C3.60343 29.4333 8.10376 26.159 14.5979 23.9342C15.4097 23.6543 16.2357 23.4025 17.0617 23.1646C18.0301 26.201 19.1979 29.1814 20.5509 32.0639C19.1837 34.9884 18.0016 38.0108 17.019 41.0892V41.0892ZM33.6246 54.802C31.2747 56.9149 28.5546 58.594 25.5924 59.7414C24.0116 60.483 22.1886 60.5529 20.5651 59.9233C18.3007 58.636 17.3608 53.6965 18.6425 47.05C18.7992 46.2665 18.9701 45.4829 19.1694 44.7133C22.3595 45.3849 25.5781 45.8467 28.8394 46.0845C30.7193 48.7012 32.7843 51.2059 34.9918 53.5566C34.536 53.9904 34.0803 54.4102 33.6246 54.802ZM37.1138 51.4018C35.6611 49.8626 34.2085 48.1555 32.7986 46.3224C34.1658 46.3784 35.5757 46.4064 36.9998 46.4064C38.4667 46.4064 39.9051 46.3784 41.3293 46.3084C40.019 48.0855 38.6091 49.7786 37.1138 51.4018V51.4018ZM55.7275 55.5995C55.5993 57.3066 54.7448 58.9018 53.3776 59.9792C51.1132 61.2666 46.2853 59.5875 41.0729 55.1938C40.4748 54.69 39.8766 54.1443 39.2642 53.5846C41.4432 51.2198 43.4513 48.7152 45.2742 46.0845C48.5355 45.8187 51.7825 45.3289 54.9869 44.6153C55.1293 45.189 55.2575 45.7627 55.3714 46.3224C56.0693 49.3448 56.1832 52.4932 55.7275 55.5995V55.5995ZM58.3194 40.5574C57.9207 40.6834 57.5219 40.8093 57.1089 40.9213C56.112 37.8709 54.8872 34.8904 53.4773 31.9939C54.8445 29.1394 55.998 26.201 56.9665 23.1926C57.707 23.4025 58.4191 23.6263 59.1027 23.8502C65.7393 26.089 70.3962 29.4193 70.3962 31.966C70.3962 34.7085 65.4259 38.2487 58.3194 40.5574ZM36.9998 38.4585C40.6029 38.4585 43.5225 35.5901 43.5225 32.0499C43.5225 28.5098 40.6029 25.6413 36.9998 25.6413C33.3967 25.6413 30.4772 28.5098 30.4772 32.0499C30.4772 35.5901 33.3967 38.4585 36.9998 38.4585Z" fill="#FF725E"/>
</svg>
