<svg width="201" height="161" viewBox="0 0 201 161" fill="none" xmlns="http://www.w3.org/2000/svg">
<path d="M189.947 135.908C188.171 135.706 184.793 133.945 184.788 133.945C184.784 133.945 186.915 132.525 187.061 132.44C188.789 131.556 192.771 130.665 194.543 131.826C194.831 132.026 195.062 132.273 195.223 132.55C195.383 132.827 195.469 133.127 195.474 133.433C195.48 133.738 195.405 134.04 195.254 134.321C195.104 134.601 194.881 134.853 194.601 135.06C193.451 135.969 191.462 136.082 189.947 135.908Z" fill="#FF725E"/>
<path d="M156.829 122.279C156.784 122.279 157.615 120.149 157.686 120.021C158.516 118.523 161.238 116.02 163.502 116.212C163.88 116.252 164.243 116.355 164.567 116.515C164.892 116.675 165.17 116.887 165.385 117.139C165.6 117.39 165.746 117.675 165.814 117.975C165.882 118.275 165.871 118.582 165.78 118.878C165.451 120.149 163.871 121.122 162.486 121.644C160.86 122.258 156.829 122.279 156.829 122.279Z" fill="#FF725E"/>
<path d="M153.512 157.802C152.726 158.583 152.011 159.318 151.372 159.993H149.755C150.568 159.159 151.531 158.218 152.588 157.195C153.21 156.599 153.889 155.974 154.595 155.335C153.956 154.706 153.364 154.048 152.819 153.365C151.376 153.752 148.428 153.649 148.046 153.635C147.935 154.391 147.837 155.133 147.757 155.829C147.571 157.408 147.46 158.811 147.384 159.993H146.052C146.159 158.786 146.314 157.352 146.545 155.733C146.656 154.959 146.789 154.139 146.94 153.294C146.567 153.205 143.544 152.449 142.434 151.664C141.426 150.954 140.391 149.818 140.502 148.682C140.517 148.414 140.602 148.152 140.752 147.913C140.902 147.673 141.113 147.462 141.372 147.292C141.631 147.121 141.931 146.997 142.254 146.926C142.577 146.854 142.915 146.838 143.246 146.879C145.231 147.166 146.741 149.811 146.98 151.238C146.98 151.323 147.02 152.25 147.025 152.836C147.087 152.481 147.145 152.158 147.211 151.803C147.344 151.093 147.504 150.407 147.655 149.673C147.753 149.317 147.851 148.962 147.948 148.583C148.046 148.203 148.188 147.841 148.308 147.464C148.605 146.602 148.961 145.735 149.343 144.869C148.574 144.777 145.857 144.408 144.72 143.822C143.584 143.236 142.354 142.246 142.247 141.109C142.209 140.842 142.242 140.571 142.344 140.315C142.445 140.058 142.614 139.822 142.837 139.621C143.061 139.42 143.335 139.259 143.642 139.148C143.949 139.038 144.282 138.98 144.618 138.979C146.634 139.022 148.614 141.464 149.138 142.838C149.169 142.924 149.391 143.946 149.502 144.511C149.738 143.992 149.969 143.474 150.226 142.956C150.972 141.461 151.785 139.963 152.588 138.468C152.832 138.01 153.072 137.549 153.312 137.091C153.041 137.059 149.8 136.679 148.526 136.026C147.398 135.443 146.159 134.449 146.052 133.313C146.014 133.046 146.047 132.775 146.149 132.519C146.251 132.262 146.419 132.026 146.643 131.825C146.866 131.623 147.141 131.462 147.447 131.352C147.754 131.241 148.087 131.184 148.423 131.183C150.439 131.226 152.42 133.668 152.939 135.042C152.979 135.145 153.299 136.618 153.356 136.998C153.889 135.987 154.404 134.975 154.862 133.963C155.49 132.598 156.008 131.202 156.411 129.784C156.282 129.784 152.899 129.383 151.594 128.719C150.466 128.137 149.227 127.143 149.121 126.007C149.082 125.74 149.114 125.468 149.215 125.212C149.317 124.955 149.485 124.718 149.709 124.517C149.933 124.316 150.207 124.155 150.515 124.045C150.822 123.934 151.155 123.877 151.492 123.877C153.507 123.919 155.488 126.362 156.007 127.732C156.043 127.825 156.287 128.947 156.389 129.483H156.504C156.861 128.046 157.055 126.587 157.086 125.123C157.117 124.317 157.086 123.547 157.042 122.798C156.402 122.776 153.49 122.659 152.224 122.155C150.959 121.651 149.653 120.799 149.391 119.67C149.32 119.408 149.317 119.137 149.385 118.875C149.452 118.612 149.588 118.364 149.783 118.146C149.978 117.929 150.228 117.746 150.517 117.61C150.806 117.474 151.127 117.389 151.46 117.359C153.467 117.224 155.785 119.468 156.478 120.795C156.518 120.87 156.797 121.637 156.993 122.215C156.966 121.86 156.944 121.527 156.908 121.204C156.78 119.986 156.571 118.882 156.376 117.902C156.26 117.345 156.14 116.837 156.02 116.379C155.408 116.095 152.948 114.938 152.135 114.046C151.323 113.155 150.639 111.891 151.052 110.802C151.139 110.543 151.292 110.301 151.503 110.093C151.714 109.885 151.977 109.715 152.276 109.593C152.574 109.472 152.901 109.402 153.236 109.388C153.571 109.374 153.905 109.417 154.218 109.513C156.078 110.134 156.842 112.978 156.691 114.412C156.691 114.536 156.194 116.457 156.162 116.443L156.127 116.425C156.251 116.872 156.38 117.355 156.504 117.884C156.726 118.86 156.948 119.968 157.13 121.186C157.321 122.496 157.415 123.814 157.415 125.134C157.429 126.611 157.28 128.086 156.971 129.543C156.971 129.561 156.971 129.578 156.971 129.593C157.246 129.177 158.067 128.027 158.143 127.945C159.204 126.784 162.117 125.038 164.03 125.545C164.345 125.636 164.633 125.779 164.874 125.965C165.115 126.151 165.305 126.375 165.43 126.623C165.556 126.871 165.615 127.138 165.603 127.405C165.592 127.673 165.509 127.936 165.362 128.176C164.781 129.216 163.191 129.816 161.881 130.058C160.403 130.331 157.179 129.806 156.922 129.763C156.551 131.237 156.059 132.69 155.448 134.112C155.097 134.943 154.711 135.77 154.311 136.597C154.564 136.242 154.79 135.926 154.83 135.887C155.892 134.726 158.8 132.98 160.718 133.487C161.033 133.578 161.32 133.721 161.562 133.907C161.803 134.092 161.993 134.317 162.118 134.565C162.244 134.813 162.303 135.08 162.291 135.347C162.279 135.615 162.197 135.877 162.05 136.118C161.468 137.158 159.883 137.758 158.573 138C157.264 138.241 154.484 137.84 153.756 137.726C153.596 138.042 153.445 138.358 153.285 138.674C152.522 140.186 151.753 141.692 151.065 143.186C150.821 143.712 150.621 144.251 150.382 144.766C150.608 144.45 150.799 144.184 150.826 144.148C151.887 142.984 154.795 141.241 156.713 141.745C157.028 141.836 157.316 141.98 157.557 142.166C157.798 142.352 157.988 142.576 158.113 142.825C158.239 143.073 158.298 143.34 158.286 143.608C158.274 143.876 158.192 144.138 158.045 144.379C157.463 145.419 155.878 146.019 154.568 146.257C153.259 146.495 150.746 146.14 149.88 146.005C149.676 146.552 149.467 147.095 149.298 147.631C149.196 147.986 149.063 148.341 148.983 148.718C148.903 149.094 148.805 149.449 148.716 149.811C148.583 150.521 148.437 151.231 148.326 151.92C148.241 152.396 148.175 152.85 148.108 153.308C148.344 152.782 148.836 151.76 148.89 151.678C149.673 150.577 150.797 149.654 152.153 148.998C152.233 148.872 152.328 148.753 152.437 148.643C152.634 148.426 152.885 148.245 153.175 148.111C153.465 147.977 153.787 147.894 154.12 147.866C154.453 147.838 154.79 147.867 155.108 147.95C155.426 148.033 155.719 148.169 155.967 148.348C157.428 149.463 156.855 152.335 156.074 153.631C156.029 153.709 155.412 154.494 155.008 154.984C155.301 154.724 155.576 154.469 155.896 154.206C156.491 153.681 157.099 153.169 157.756 152.619L158.755 151.842C159.08 151.575 159.466 151.327 159.821 151.068C160.669 150.475 161.562 149.91 162.485 149.357C161.912 148.941 159.901 147.436 159.377 146.445C158.853 145.455 158.489 144.088 159.186 143.094C159.341 142.857 159.556 142.648 159.818 142.482C160.08 142.315 160.383 142.194 160.707 142.128C161.031 142.061 161.369 142.049 161.699 142.093C162.029 142.137 162.344 142.236 162.623 142.384C164.275 143.311 164.261 146.218 163.728 147.596C163.697 147.681 163.178 148.632 162.88 149.151C163.431 148.824 163.981 148.494 164.554 148.174C166.21 147.255 167.92 146.364 169.625 145.473L171.179 144.645C170.97 144.496 168.515 142.75 167.924 141.642C167.383 140.659 167.036 139.281 167.733 138.287C167.887 138.049 168.102 137.84 168.364 137.674C168.626 137.507 168.929 137.386 169.253 137.319C169.578 137.252 169.916 137.24 170.246 137.285C170.576 137.329 170.891 137.429 171.17 137.577C172.822 138.5 172.808 141.411 172.276 142.785C172.236 142.888 171.485 144.262 171.272 144.603C172.413 143.992 173.541 143.378 174.62 142.735C176.088 141.875 177.483 140.938 178.798 139.931C178.7 139.863 176.134 138.049 175.521 136.913C174.98 135.93 174.633 134.552 175.326 133.562C175.48 133.324 175.695 133.115 175.957 132.948C176.219 132.781 176.522 132.661 176.846 132.594C177.17 132.527 177.508 132.515 177.839 132.559C178.169 132.604 178.484 132.704 178.762 132.852C180.419 133.778 180.401 136.686 179.872 138.06C179.837 138.152 179.264 139.196 178.984 139.689C179.017 139.705 179.048 139.723 179.078 139.743C180.367 138.703 181.537 137.571 182.572 136.363C183.154 135.703 183.664 135.049 184.139 134.403C183.62 134.101 181.267 132.717 180.565 131.744C179.864 130.771 179.357 129.476 179.912 128.428C180.032 128.178 180.216 127.95 180.452 127.76C180.689 127.57 180.973 127.422 181.286 127.326C181.599 127.23 181.934 127.188 182.269 127.202C182.604 127.216 182.931 127.287 183.229 127.409C185.005 128.183 185.383 131.077 185.045 132.49C185.045 132.568 184.73 133.335 184.508 133.888C184.717 133.594 184.952 133.292 185.134 133.008C185.867 131.943 186.466 130.924 186.968 130.019C187.252 129.504 187.501 129.035 187.723 128.599C187.403 128.094 186.155 126.039 186.093 124.938C186.031 123.838 186.328 122.482 187.425 121.743C187.675 121.565 187.97 121.431 188.289 121.35C188.609 121.269 188.946 121.242 189.279 121.272C189.612 121.303 189.934 121.389 190.222 121.525C190.511 121.661 190.761 121.844 190.955 122.063C192.078 123.401 190.755 126.11 189.623 127.239C189.53 127.338 187.802 128.726 187.785 128.702L187.762 128.67C187.558 129.099 187.318 129.557 187.074 130.054C186.586 130.967 186.022 131.996 185.298 133.083C184.555 134.261 183.725 135.402 182.812 136.501C181.8 137.739 180.652 138.901 179.38 139.973C179.366 139.986 179.351 139.998 179.335 140.009C179.85 139.782 181.329 139.189 181.449 139.153C183.136 138.653 186.777 138.479 188.016 139.746C188.216 139.961 188.357 140.208 188.429 140.469C188.502 140.731 188.505 141.002 188.438 141.265C188.371 141.527 188.236 141.776 188.04 141.994C187.845 142.212 187.595 142.394 187.305 142.53C186.106 143.14 184.37 142.938 183.109 142.561C181.688 142.135 179.362 140.279 179.175 140.13C177.85 141.196 176.436 142.19 174.944 143.105C174.056 143.644 173.168 144.17 172.28 144.677C172.724 144.493 173.146 144.322 173.208 144.322C174.895 143.822 178.536 143.648 179.775 144.915C179.975 145.13 180.116 145.377 180.189 145.639C180.261 145.9 180.264 146.171 180.197 146.434C180.13 146.697 179.995 146.945 179.8 147.163C179.604 147.381 179.354 147.563 179.064 147.699C177.866 148.309 176.129 148.11 174.869 147.734C173.608 147.358 171.565 145.796 171.037 145.38C170.69 145.572 170.344 145.771 169.993 145.963C168.315 146.886 166.632 147.802 165.016 148.742C164.448 149.073 163.906 149.417 163.355 149.758C163.764 149.591 164.106 149.456 164.159 149.442C165.846 148.941 169.487 148.767 170.726 150.035C170.926 150.25 171.067 150.496 171.141 150.757C171.214 151.019 171.217 151.29 171.151 151.552C171.084 151.815 170.949 152.063 170.754 152.282C170.559 152.5 170.309 152.682 170.02 152.818C168.817 153.429 167.081 153.23 165.82 152.85C164.559 152.47 162.712 151.075 162.086 150.574C161.539 150.929 160.989 151.284 160.483 151.671C160.141 151.93 159.79 152.161 159.466 152.438L158.489 153.233C157.894 153.759 157.277 154.298 156.713 154.817C156.318 155.172 155.945 155.527 155.572 155.882C156.136 155.548 157.25 154.913 157.348 154.866C158.924 154.156 162.476 153.556 163.95 154.657C164.189 154.845 164.376 155.072 164.498 155.322C164.62 155.572 164.675 155.839 164.659 156.107C164.643 156.375 164.556 156.637 164.405 156.877C164.254 157.116 164.042 157.328 163.782 157.497C162.663 158.218 160.927 158.218 159.595 158.012C158.147 157.77 155.599 156.283 155.27 156.098C154.653 156.681 154.058 157.252 153.512 157.802Z" fill="#FF725E"/>
<path d="M134.002 135.908C132.226 135.706 128.847 133.945 128.843 133.945C128.838 133.945 130.97 132.525 131.116 132.44C132.843 131.556 136.826 130.665 138.598 131.826C138.885 132.026 139.117 132.273 139.277 132.55C139.438 132.827 139.524 133.127 139.529 133.433C139.535 133.738 139.46 134.04 139.309 134.321C139.158 134.601 138.936 134.853 138.655 135.06C137.505 135.969 135.516 136.082 134.002 135.908Z" fill="#FF725E"/>
<path d="M100.884 122.279C100.839 122.279 101.669 120.149 101.74 120.021C102.571 118.523 105.293 116.02 107.557 116.212C107.935 116.252 108.297 116.355 108.622 116.515C108.946 116.675 109.225 116.887 109.44 117.139C109.655 117.39 109.801 117.675 109.869 117.975C109.937 118.275 109.925 118.582 109.835 118.878C109.506 120.149 107.926 121.122 106.54 121.644C104.915 122.258 100.884 122.279 100.884 122.279Z" fill="#FF725E"/>
<path d="M97.5677 157.802C96.7818 158.583 96.0669 159.318 95.4276 159.993H93.8114C94.6239 159.159 95.5874 158.218 96.6441 157.195C97.2658 156.599 97.9451 155.974 98.6511 155.335C98.0124 154.706 97.4194 154.048 96.875 153.365C95.432 153.752 92.4838 153.649 92.102 153.635C91.991 154.391 91.8933 155.133 91.8133 155.829C91.6269 157.408 91.5159 158.811 91.4404 159.993H90.1306C90.2371 158.786 90.3925 157.352 90.6234 155.733C90.7344 154.959 90.8676 154.139 91.0186 153.294C90.6456 153.205 87.6219 152.449 86.5119 151.664C85.504 150.954 84.4695 149.818 84.5805 148.682C84.5954 148.414 84.6805 148.152 84.8303 147.913C84.9801 147.673 85.1912 147.462 85.45 147.292C85.7088 147.121 86.0094 146.997 86.3323 146.926C86.6552 146.854 86.9932 146.838 87.3244 146.879C89.3091 147.166 90.8188 149.811 91.0585 151.238C91.0585 151.323 91.0985 152.25 91.1029 152.836C91.1651 152.481 91.2228 152.158 91.2894 151.803C91.4226 151.093 91.5825 150.407 91.7334 149.673C91.8311 149.317 91.9288 148.962 92.0265 148.583C92.1242 148.203 92.2662 147.841 92.3861 147.464C92.6836 146.602 93.0388 145.735 93.4207 144.869C92.6525 144.777 89.9352 144.408 88.7985 143.822C87.6619 143.236 86.432 142.246 86.3254 141.109C86.2873 140.842 86.3202 140.571 86.4219 140.315C86.5236 140.058 86.6918 139.822 86.9155 139.621C87.1393 139.42 87.4135 139.259 87.7204 139.148C88.0273 139.038 88.3599 138.98 88.6964 138.979C90.7122 139.022 92.6925 141.464 93.2164 142.838C93.2475 142.924 93.4695 143.946 93.5805 144.511C93.8158 143.992 94.0245 143.474 94.3042 142.956C95.0502 141.461 95.8627 139.963 96.6664 138.468C96.9106 138.01 97.1503 137.549 97.3901 137.091C97.1192 137.059 93.878 136.679 92.6037 136.026C91.4759 135.443 90.2371 134.449 90.1306 133.313C90.0925 133.046 90.1253 132.775 90.227 132.519C90.3287 132.262 90.4969 132.026 90.7207 131.825C90.9444 131.623 91.2187 131.462 91.5256 131.352C91.8324 131.241 92.165 131.184 92.5016 131.183C94.5174 131.226 96.4976 133.668 97.0171 135.042C97.0571 135.145 97.3768 136.618 97.4345 136.998C97.9673 135.987 98.4823 134.975 98.9397 133.963C99.5681 132.598 100.086 131.202 100.489 129.784C100.36 129.784 96.9772 129.383 95.6718 128.719C94.544 128.137 93.3052 127.143 93.1987 126.007C93.1598 125.74 93.1922 125.468 93.2936 125.212C93.395 124.955 93.5632 124.718 93.7871 124.517C94.011 124.316 94.2856 124.155 94.5928 124.045C94.9 123.934 95.2329 123.877 95.5697 123.877C97.5854 123.919 99.5657 126.362 100.085 127.732C100.121 127.825 100.365 128.947 100.467 129.483H100.582C100.939 128.046 101.133 126.587 101.164 125.123C101.195 124.317 101.164 123.547 101.12 122.798C100.48 122.776 97.5677 122.659 96.3023 122.155C95.0368 121.651 93.7315 120.799 93.4695 119.67C93.3978 119.408 93.3954 119.138 93.4626 118.876C93.5298 118.613 93.6651 118.365 93.8597 118.148C94.0542 117.93 94.3038 117.747 94.5922 117.611C94.8807 117.475 95.2015 117.389 95.5341 117.359C97.5455 117.224 99.8632 119.468 100.556 120.795C100.596 120.87 100.876 121.637 101.071 122.215C101.044 121.86 101.022 121.527 100.987 121.204C100.858 119.986 100.649 118.882 100.454 117.902C100.338 117.345 100.218 116.837 100.099 116.379C99.4858 116.095 97.026 114.938 96.2135 114.046C95.4009 113.155 94.7172 111.891 95.1301 110.802C95.2167 110.543 95.3704 110.301 95.5812 110.093C95.7921 109.885 96.0553 109.715 96.3539 109.593C96.6524 109.472 96.9796 109.402 97.3142 109.388C97.6487 109.374 97.9832 109.417 98.2959 109.513C100.156 110.134 100.92 112.978 100.769 114.412C100.769 114.536 100.272 116.457 100.241 116.443L100.205 116.425C100.329 116.872 100.458 117.355 100.582 117.884C100.804 118.86 101.049 119.968 101.209 121.186C101.399 122.496 101.494 123.814 101.493 125.134C101.5 126.612 101.344 128.087 101.027 129.543C101.027 129.561 101.027 129.578 101.027 129.593C101.302 129.177 102.123 128.027 102.199 127.945C103.26 126.784 106.173 125.038 108.086 125.545C108.401 125.636 108.689 125.779 108.93 125.965C109.171 126.151 109.361 126.375 109.486 126.623C109.612 126.871 109.671 127.138 109.659 127.405C109.647 127.673 109.565 127.936 109.418 128.176C108.837 129.216 107.247 129.816 105.937 130.058C104.459 130.331 101.235 129.806 100.978 129.763C100.607 131.237 100.115 132.69 99.5036 134.112C99.1528 134.943 98.7665 135.77 98.3669 136.597C98.62 136.242 98.8464 135.926 98.8864 135.887C99.9476 134.726 102.856 132.98 104.774 133.487C105.089 133.578 105.376 133.721 105.618 133.907C105.859 134.092 106.048 134.317 106.174 134.565C106.3 134.813 106.359 135.08 106.347 135.347C106.335 135.615 106.253 135.877 106.106 136.118C105.524 137.158 103.939 137.758 102.629 138C101.32 138.241 98.5401 137.84 97.8119 137.726C97.652 138.042 97.5011 138.358 97.3412 138.674C96.5775 140.186 95.8094 141.692 95.1212 143.186C94.877 143.712 94.6772 144.251 94.4374 144.766C94.6639 144.45 94.8548 144.184 94.8814 144.148C95.9426 142.984 98.8509 141.241 100.769 141.745C101.084 141.836 101.372 141.98 101.613 142.166C101.854 142.352 102.044 142.576 102.169 142.825C102.295 143.073 102.354 143.34 102.342 143.608C102.33 143.876 102.248 144.138 102.101 144.379C101.519 145.419 99.9342 146.019 98.6244 146.257C97.3146 146.495 94.8015 146.14 93.9357 146.005C93.7315 146.552 93.5228 147.095 93.3541 147.631C93.2519 147.986 93.1187 148.341 93.0388 148.718C92.9589 149.094 92.8612 149.449 92.7724 149.811C92.6392 150.521 92.4927 151.231 92.3817 151.92C92.2973 152.396 92.2307 152.85 92.1641 153.308C92.3994 152.782 92.8923 151.76 92.9456 151.678C93.7289 150.577 94.8525 149.654 96.209 148.998C96.2887 148.872 96.3839 148.753 96.4932 148.643C96.6896 148.423 96.9421 148.24 97.234 148.104C97.5259 147.968 97.8504 147.884 98.1862 147.856C98.522 147.828 98.8614 147.858 99.1819 147.943C99.5023 148.027 99.7966 148.166 100.045 148.348C101.506 149.463 100.933 152.335 100.152 153.631C100.107 153.709 99.4902 154.494 99.0862 154.984C99.3792 154.724 99.6545 154.469 99.9742 154.206C100.569 153.681 101.177 153.169 101.835 152.619L102.834 151.842C103.158 151.575 103.544 151.327 103.899 151.068C104.747 150.475 105.64 149.91 106.563 149.357C105.991 148.941 103.979 147.436 103.455 146.445C102.931 145.455 102.567 144.088 103.264 143.094C103.419 142.857 103.634 142.648 103.896 142.482C104.158 142.315 104.461 142.194 104.785 142.128C105.109 142.061 105.447 142.049 105.777 142.093C106.107 142.137 106.422 142.236 106.701 142.384C108.353 143.311 108.339 146.218 107.806 147.596C107.775 147.681 107.256 148.632 106.958 149.151C107.509 148.824 108.06 148.494 108.632 148.174C110.288 147.255 111.998 146.364 113.703 145.473L115.257 144.645C115.048 144.496 112.593 142.75 112.002 141.642C111.461 140.659 111.114 139.281 111.811 138.287C111.966 138.049 112.181 137.84 112.443 137.674C112.704 137.507 113.007 137.386 113.332 137.319C113.656 137.252 113.994 137.24 114.324 137.285C114.654 137.329 114.969 137.429 115.248 137.577C116.9 138.5 116.886 141.411 116.354 142.785C116.314 142.888 115.563 144.262 115.35 144.603C116.491 143.992 117.619 143.378 118.698 142.735C120.166 141.875 121.562 140.938 122.876 139.931C122.778 139.863 120.212 138.049 119.599 136.913C119.058 135.93 118.711 134.552 119.404 133.562C119.558 133.324 119.773 133.115 120.035 132.948C120.297 132.781 120.6 132.661 120.924 132.594C121.248 132.527 121.587 132.515 121.917 132.559C122.247 132.604 122.562 132.704 122.841 132.852C124.497 133.778 124.479 136.686 123.951 138.06C123.915 138.152 123.342 139.196 123.063 139.689C123.095 139.705 123.127 139.723 123.156 139.743C124.446 138.703 125.615 137.571 126.65 136.363C127.232 135.703 127.742 135.049 128.218 134.403C127.698 134.101 125.345 132.717 124.643 131.744C123.942 130.771 123.436 129.476 123.991 128.428C124.11 128.178 124.294 127.95 124.53 127.76C124.767 127.57 125.051 127.422 125.364 127.326C125.677 127.23 126.012 127.188 126.347 127.202C126.682 127.216 127.009 127.287 127.307 127.409C129.083 128.183 129.461 131.077 129.123 132.49C129.123 132.568 128.808 133.335 128.586 133.888C128.795 133.594 129.03 133.292 129.212 133.008C129.945 131.943 130.544 130.924 131.046 130.019C131.33 129.504 131.579 129.035 131.801 128.599C131.481 128.094 130.233 126.039 130.171 124.938C130.109 123.838 130.406 122.482 131.503 121.743C131.753 121.565 132.048 121.431 132.367 121.35C132.687 121.269 133.024 121.242 133.357 121.272C133.69 121.303 134.012 121.389 134.301 121.525C134.589 121.661 134.839 121.844 135.033 122.063C136.156 123.401 134.833 126.11 133.701 127.239C133.608 127.338 131.881 128.726 131.863 128.702L131.841 128.67C131.636 129.099 131.397 129.557 131.152 130.054C130.664 130.967 130.1 131.996 129.376 133.083C128.633 134.261 127.803 135.402 126.89 136.501C125.878 137.739 124.73 138.901 123.458 139.973C123.444 139.986 123.429 139.998 123.413 140.009C123.928 139.782 125.407 139.189 125.527 139.153C127.214 138.653 130.855 138.479 132.094 139.746C132.294 139.961 132.435 140.208 132.508 140.469C132.58 140.731 132.583 141.002 132.516 141.265C132.449 141.527 132.314 141.776 132.119 141.994C131.923 142.212 131.673 142.394 131.383 142.53C130.184 143.14 128.448 142.938 127.187 142.561C125.767 142.135 123.44 140.279 123.254 140.13C121.928 141.196 120.514 142.19 119.022 143.105C118.134 143.644 117.246 144.17 116.358 144.677C116.802 144.493 117.224 144.322 117.286 144.322C118.973 143.822 122.614 143.648 123.853 144.915C124.053 145.13 124.194 145.377 124.267 145.639C124.34 145.9 124.343 146.171 124.276 146.434C124.209 146.697 124.073 146.945 123.878 147.163C123.682 147.381 123.432 147.563 123.143 147.699C121.944 148.309 120.208 148.11 118.947 147.734C117.686 147.358 115.643 145.796 115.115 145.38C114.769 145.572 114.422 145.771 114.071 145.963C112.393 146.886 110.71 147.802 109.094 148.742C108.526 149.073 107.984 149.417 107.434 149.758C107.842 149.591 108.184 149.456 108.237 149.442C109.924 148.941 113.565 148.767 114.804 150.035C115.004 150.25 115.146 150.496 115.219 150.757C115.292 151.019 115.295 151.29 115.229 151.552C115.162 151.815 115.027 152.063 114.832 152.282C114.637 152.5 114.387 152.682 114.098 152.818C112.895 153.429 111.159 153.23 109.898 152.85C108.637 152.47 106.79 151.075 106.164 150.574C105.618 150.929 105.067 151.284 104.561 151.671C104.219 151.93 103.868 152.161 103.544 152.438L102.567 153.233C101.972 153.759 101.355 154.298 100.791 154.817C100.396 155.172 100.023 155.527 99.6501 155.882C100.214 155.548 101.328 154.913 101.426 154.866C103.002 154.156 106.554 153.556 108.028 154.657C108.267 154.845 108.454 155.072 108.576 155.322C108.698 155.572 108.753 155.839 108.737 156.107C108.721 156.375 108.635 156.637 108.483 156.877C108.332 157.116 108.12 157.328 107.86 157.497C106.719 158.218 104.983 158.218 103.651 158.012C102.203 157.77 99.6545 156.283 99.326 156.098C98.7088 156.681 98.1138 157.252 97.5677 157.802Z" fill="#FF725E"/>
<path d="M9.66707 138.596C11.2477 138.415 14.2492 136.849 14.2492 136.849C14.2492 136.849 12.3622 135.582 12.229 135.514C10.6972 134.73 7.15843 133.931 5.56888 134.968C5.31417 135.146 5.10931 135.366 4.96759 135.612C4.82587 135.858 4.75047 136.125 4.74628 136.396C4.74209 136.667 4.80921 136.935 4.94328 137.184C5.07735 137.433 5.27537 137.656 5.52448 137.84C6.55458 138.649 8.32173 138.752 9.66707 138.596Z" fill="#FF725E"/>
<path d="M39.0957 126.486C39.1313 126.486 38.3942 124.594 38.332 124.48C37.595 123.149 35.1929 120.93 33.1638 121.094C32.8279 121.129 32.5051 121.221 32.2165 121.363C31.928 121.505 31.6801 121.694 31.4891 121.918C31.298 122.142 31.1681 122.395 31.1078 122.662C31.0475 122.928 31.0582 123.202 31.1391 123.465C31.4322 124.59 32.8397 125.457 34.0696 125.922C35.5126 126.465 39.0913 126.486 39.0957 126.486Z" fill="#FF725E"/>
<path d="M42.0399 158.047C42.7369 158.757 43.3719 159.393 43.9402 159.993H45.3788C44.6551 159.251 43.8114 158.413 42.8613 157.508C42.3063 156.979 41.7024 156.421 41.0852 155.857C41.6581 155.297 42.1903 154.712 42.6792 154.103C43.958 154.458 46.5776 154.355 46.9195 154.341C47.0172 155.015 47.1015 155.672 47.1726 156.294C47.3369 157.696 47.439 158.942 47.5056 159.993H48.6689C48.5756 158.928 48.438 157.646 48.2249 156.208C48.1272 155.523 48.0073 154.788 47.8785 154.043C48.2071 153.961 50.8934 153.29 51.8746 152.594C52.7626 151.959 53.6906 150.954 53.5929 149.946C53.5794 149.708 53.5036 149.475 53.3705 149.263C53.2374 149.05 53.0499 148.862 52.8201 148.71C52.5904 148.559 52.3235 148.448 52.0367 148.384C51.75 148.321 51.4497 148.306 51.1553 148.341C49.3793 148.597 48.0473 150.947 47.8341 152.214C47.8341 152.289 47.7986 153.113 47.7986 153.634C47.7409 153.329 47.6921 153.031 47.6299 152.715C47.51 152.094 47.3679 151.476 47.2214 150.812C47.1326 150.493 47.0483 150.17 46.9595 149.843C46.8707 149.516 46.7463 149.183 46.6398 148.849C46.3778 148.082 46.0626 147.312 45.7207 146.545C46.4044 146.46 48.8287 146.133 49.8233 145.611C50.8179 145.089 51.9279 144.212 52.0433 143.204C52.0751 142.967 52.0442 142.728 51.9527 142.501C51.8613 142.274 51.7113 142.065 51.5124 141.888C51.3136 141.711 51.0704 141.569 50.7985 141.471C50.5267 141.374 50.2322 141.323 49.9343 141.322C48.1583 141.361 46.3822 143.524 45.9382 144.748C45.9116 144.826 45.7118 145.735 45.6141 146.239C45.4054 145.778 45.2012 145.316 44.9703 144.855C44.3087 143.527 43.585 142.196 42.8746 140.868C42.6526 140.46 42.4306 140.051 42.2263 139.647C42.4705 139.618 45.3344 139.292 46.4799 138.695C47.4834 138.177 48.5845 137.297 48.7 136.285C48.7324 136.048 48.7022 135.809 48.6112 135.582C48.5202 135.356 48.3706 135.147 48.172 134.97C47.9735 134.793 47.7304 134.651 47.4588 134.554C47.1871 134.457 46.8929 134.407 46.5954 134.407C44.8193 134.446 43.0433 136.604 42.5993 137.833C42.5638 137.925 42.2796 139.235 42.2308 139.572C41.7557 138.674 41.2984 137.776 40.8988 136.878C40.3422 135.665 39.8839 134.424 39.5268 133.164C39.6378 133.164 42.6348 132.809 43.8026 132.209C44.806 131.691 45.9072 130.81 46.0226 129.799C46.055 129.562 46.0248 129.323 45.9338 129.096C45.8429 128.87 45.6932 128.661 45.4947 128.484C45.2961 128.307 45.0531 128.165 44.7814 128.068C44.5097 127.971 44.2156 127.921 43.918 127.921C42.142 127.96 40.3659 130.118 39.9219 131.346C39.8909 131.428 39.6733 132.411 39.5845 132.901H39.4824C39.1201 131.63 38.9002 130.335 38.8252 129.032C38.7986 128.322 38.8252 127.612 38.8652 126.962C39.4335 126.962 42.031 126.841 43.1454 126.394C44.2599 125.947 45.4321 125.187 45.663 124.193C45.7271 123.961 45.7294 123.72 45.6699 123.487C45.6103 123.254 45.4902 123.034 45.3173 122.84C45.1444 122.647 44.9226 122.485 44.6662 122.364C44.4099 122.244 44.1247 122.168 43.8292 122.141C42.0532 122.02 39.9841 124.012 39.3891 125.194C39.358 125.258 39.105 125.939 38.9451 126.44C38.9718 126.138 38.9895 125.829 39.0206 125.542C39.1316 124.477 39.3181 123.479 39.4957 122.609C39.5978 122.116 39.7044 121.669 39.8109 121.253C40.3571 121.005 42.5416 119.975 43.2609 119.184C43.9802 118.392 44.5929 117.27 44.2244 116.301C44.1476 116.071 44.0113 115.857 43.8242 115.672C43.6371 115.487 43.4035 115.335 43.1385 115.227C42.8735 115.119 42.583 115.056 42.2858 115.044C41.9887 115.031 41.6916 115.069 41.4138 115.154C39.7577 115.708 39.0783 118.232 39.1938 119.507C39.1938 119.617 39.6378 121.324 39.6378 121.314L39.7133 121.296C39.6023 121.693 39.4868 122.123 39.3758 122.592C39.176 123.461 38.9629 124.445 38.8208 125.524C38.6508 126.69 38.5663 127.862 38.5677 129.035C38.5611 130.344 38.6993 131.651 38.9806 132.94V132.987C38.7364 132.632 38.0083 131.595 37.9417 131.52C36.9959 130.491 34.3896 128.939 32.7113 129.39C32.4317 129.472 32.1766 129.599 31.9626 129.764C31.7486 129.93 31.5804 130.129 31.4691 130.35C31.3577 130.57 31.3056 130.807 31.3161 131.045C31.3267 131.283 31.3996 131.516 31.5302 131.73C32.0452 132.656 33.4528 133.185 34.6383 133.402C35.9703 133.643 38.8164 133.178 39.0428 133.139C39.3778 134.45 39.8228 135.742 40.3748 137.005C40.6856 137.744 41.0275 138.479 41.3827 139.21C41.1563 138.898 40.9387 138.614 40.9387 138.578C39.993 137.545 37.4089 135.994 35.7083 136.448C35.4287 136.529 35.1736 136.657 34.9596 136.822C34.7456 136.987 34.5775 137.187 34.4661 137.408C34.3547 137.628 34.3026 137.865 34.3132 138.103C34.3237 138.341 34.3966 138.574 34.5273 138.788C35.0423 139.711 36.4498 140.243 37.6353 140.456C38.8208 140.669 41.2673 140.318 41.9155 140.215C42.0532 140.495 42.1908 140.779 42.3329 141.056C43.0122 142.402 43.696 143.737 44.3132 145.068C44.5352 145.533 44.7261 146.002 44.9259 146.47C44.7261 146.19 44.5529 145.955 44.5219 145.92C43.5761 144.887 40.9698 143.335 39.2915 143.79C39.0119 143.871 38.7568 143.999 38.5428 144.164C38.3288 144.329 38.1606 144.529 38.0493 144.749C37.9379 144.97 37.8858 145.207 37.8963 145.445C37.9068 145.682 37.9798 145.916 38.1104 146.129C38.6254 147.052 40.0374 147.585 41.2184 147.802C42.3995 148.018 44.6107 147.695 45.3832 147.578C45.5653 148.061 45.7518 148.544 45.8983 149.019C45.9915 149.342 46.1114 149.651 46.1824 149.985C46.2535 150.319 46.3378 150.635 46.4178 150.958C46.5377 151.579 46.6664 152.218 46.7641 152.829C46.8396 153.251 46.8973 153.656 46.9595 154.064C46.7463 153.595 46.3112 152.687 46.2624 152.616C45.5691 151.635 44.5703 150.814 43.363 150.233C43.2939 150.12 43.2106 150.013 43.1144 149.914C42.9391 149.722 42.7152 149.561 42.4573 149.442C42.1993 149.324 41.913 149.25 41.617 149.225C41.321 149.201 41.0218 149.226 40.739 149.3C40.4561 149.374 40.1959 149.495 39.9752 149.655C38.6787 150.645 39.1804 153.205 39.8775 154.348C39.9219 154.416 40.4681 155.111 40.8277 155.548L40.0507 154.838C39.5223 154.373 38.9806 153.918 38.3946 153.418L37.5065 152.729C37.2179 152.491 36.8761 152.271 36.5564 152.04C35.806 151.515 35.0112 151.014 34.1987 150.521C34.7093 150.166 36.4942 148.813 36.9782 147.936C37.4621 147.06 37.7685 145.838 37.1513 144.954C37.0143 144.743 36.8234 144.557 36.5909 144.409C36.3584 144.26 36.0895 144.152 35.8016 144.092C35.5137 144.032 35.2131 144.02 34.9194 144.059C34.6257 144.097 34.3454 144.185 34.0966 144.315C32.6269 145.139 32.6402 147.723 33.1109 148.93C33.1419 149.009 33.6037 149.854 33.8701 150.315C33.3773 150.024 32.8889 149.729 32.3783 149.445C30.9086 148.629 29.3901 147.841 27.876 147.045C27.432 146.804 26.9569 146.555 26.4952 146.31C26.6772 146.179 28.8484 144.628 29.3856 143.644C29.8652 142.767 30.176 141.546 29.5588 140.662C29.4218 140.451 29.2309 140.265 28.9984 140.116C28.7659 139.968 28.497 139.86 28.2091 139.8C27.9211 139.74 27.6206 139.728 27.3269 139.767C27.0332 139.805 26.7529 139.893 26.504 140.023C25.0388 140.847 25.0477 143.431 25.5228 144.638C25.5583 144.731 26.2243 145.948 26.4108 146.25C25.3985 145.71 24.3994 145.164 23.4359 144.592C22.1339 143.829 20.8954 142.999 19.7285 142.107C19.8128 142.047 22.0862 140.435 22.6367 139.423C23.1207 138.55 23.4271 137.328 22.8099 136.444C22.6734 136.233 22.4828 136.047 22.2503 135.898C22.0179 135.749 21.7488 135.641 21.4607 135.58C21.1726 135.52 20.8718 135.509 20.578 135.548C20.2841 135.587 20.0038 135.674 19.7551 135.805C18.2899 136.629 18.2988 139.214 18.7739 140.421C18.805 140.502 19.3111 141.429 19.5642 141.866C19.5371 141.882 19.509 141.898 19.4798 141.912C18.3339 140.988 17.2937 139.984 16.3718 138.912C15.8567 138.326 15.4039 137.744 14.9776 137.169C15.4216 136.902 17.5307 135.671 18.1567 134.808C18.7828 133.945 19.2268 132.791 18.7339 131.861C18.6282 131.639 18.4649 131.437 18.2547 131.268C18.0446 131.1 17.7923 130.969 17.5144 130.884C17.2365 130.798 16.9393 130.761 16.6421 130.774C16.345 130.787 16.0547 130.85 15.7901 130.959C14.2184 131.645 13.872 134.215 14.174 135.472C14.174 135.539 14.4537 136.221 14.6535 136.714C14.467 136.452 14.2672 136.185 14.094 135.93C13.4458 134.982 12.9219 134.08 12.469 133.278C12.2114 132.82 11.9939 132.401 11.7941 132.007C12.0782 131.559 13.1883 129.735 13.246 128.755C13.3037 127.775 13.0329 126.575 12.0605 125.915C11.8381 125.756 11.5766 125.637 11.2928 125.565C11.0091 125.493 10.7096 125.47 10.4138 125.497C10.118 125.524 9.83263 125.6 9.57623 125.721C9.31984 125.842 9.09821 126.005 8.92579 126.199C7.92677 127.388 9.10339 129.795 10.0935 130.814C10.1823 130.899 11.7142 132.135 11.7319 132.11V132.085C11.914 132.465 12.1182 132.873 12.3491 133.313C12.7931 134.126 13.2815 135.039 13.9076 136.004C14.5732 137.051 15.3145 138.066 16.1276 139.043C17.0251 140.141 18.0445 141.173 19.1735 142.125L19.2179 142.16C18.7739 141.958 17.4419 141.429 17.3397 141.397C15.839 140.95 12.6155 140.797 11.5055 141.922C11.3255 142.114 11.1983 142.333 11.1321 142.567C11.0658 142.8 11.0622 143.043 11.1213 143.277C11.1805 143.512 11.301 143.734 11.4751 143.929C11.6492 144.124 11.8729 144.287 12.1315 144.408C13.2016 144.951 14.7423 144.763 15.8612 144.436C17.1266 144.06 19.1912 142.409 19.3555 142.274C20.5338 143.223 21.7918 144.107 23.1207 144.919C23.8888 145.398 24.6792 145.86 25.4828 146.314C25.0788 146.151 24.7147 146.005 24.6614 145.991C23.1607 145.547 19.9327 145.391 18.8272 146.52C18.6465 146.711 18.5187 146.931 18.4521 147.164C18.3855 147.398 18.3816 147.64 18.4408 147.875C18.5 148.11 18.6208 148.332 18.7953 148.527C18.9699 148.722 19.1941 148.885 19.4532 149.005C20.5233 149.548 22.064 149.36 23.1829 149.033C24.3018 148.707 26.1178 147.315 26.5884 146.946L27.5164 147.464C29.0082 148.284 30.5001 149.097 31.9564 149.932C32.4626 150.226 32.9466 150.532 33.435 150.833C33.0753 150.688 32.769 150.567 32.7201 150.553C31.2194 150.109 27.9959 149.953 26.8859 151.082C26.7054 151.273 26.5779 151.493 26.5116 151.727C26.4453 151.961 26.4419 152.203 26.5015 152.438C26.5611 152.673 26.6823 152.895 26.8573 153.09C27.0323 153.284 27.2569 153.447 27.5164 153.567C28.582 154.11 30.1271 153.922 31.246 153.595C32.3649 153.269 34.0033 152.012 34.5628 151.572C35.0512 151.895 35.5351 152.218 35.988 152.548C36.2944 152.779 36.6052 152.985 36.8761 153.23L37.7641 153.94C38.2924 154.405 38.843 154.884 39.3447 155.36C39.6999 155.679 40.0285 155.992 40.3571 156.304C39.8598 156.006 38.8652 155.442 38.7764 155.402C37.3778 154.781 34.2209 154.238 32.9111 155.218C32.6995 155.385 32.5344 155.586 32.4264 155.808C32.3184 156.03 32.27 156.267 32.2842 156.505C32.2985 156.743 32.3751 156.975 32.5091 157.188C32.6431 157.4 32.8315 157.588 33.062 157.738C34.0166 158.402 35.5751 158.413 36.7428 158.218C38.0305 158.001 40.2949 156.684 40.588 156.517C41.0453 157.05 41.5559 157.557 42.0399 158.047Z" fill="#FF725E"/>
<path d="M143.372 12.3195H61.2659C59.3851 12.3195 57.8604 13.5386 57.8604 15.0425V143.889C57.8604 145.393 59.3851 146.612 61.2659 146.612H143.372C145.253 146.612 146.777 145.393 146.777 143.889V15.0425C146.777 13.5386 145.253 12.3195 143.372 12.3195Z" fill="#263238" stroke="#263238" stroke-linecap="round" stroke-linejoin="round"/>
<path d="M142.83 27.0634H61.8164V131.865H142.83V27.0634Z" fill="white" stroke="#263238" stroke-linecap="round" stroke-linejoin="round"/>
<path d="M111.128 19.7288H93.5143C93.1963 19.7288 92.8914 19.6278 92.6666 19.448C92.4417 19.2682 92.3154 19.0244 92.3154 18.7702C92.3149 18.644 92.3454 18.519 92.4054 18.4023C92.4654 18.2856 92.5536 18.1795 92.665 18.0901C92.7764 18.0007 92.9087 17.9298 93.0545 17.8814C93.2002 17.833 93.3565 17.8081 93.5143 17.8081H111.128C111.286 17.8081 111.442 17.833 111.588 17.8814C111.734 17.9298 111.866 18.0007 111.977 18.0901C112.089 18.1795 112.177 18.2856 112.237 18.4023C112.297 18.519 112.327 18.644 112.327 18.7702C112.327 19.0244 112.201 19.2682 111.976 19.448C111.751 19.6278 111.446 19.7288 111.128 19.7288Z" fill="white"/>
<path d="M107.123 137.783C107.123 137.023 106.841 136.281 106.313 135.649C105.785 135.017 105.035 134.525 104.157 134.234C103.279 133.943 102.313 133.867 101.382 134.015C100.45 134.164 99.5936 134.53 98.9218 135.067C98.2499 135.604 97.7923 136.288 97.607 137.034C97.4216 137.779 97.5167 138.551 97.8803 139.253C98.244 139.955 98.8597 140.555 99.6498 140.977C100.44 141.399 101.369 141.624 102.319 141.624C102.95 141.625 103.575 141.526 104.158 141.333C104.741 141.14 105.271 140.857 105.717 140.5C106.163 140.143 106.517 139.72 106.758 139.253C107 138.787 107.124 138.288 107.123 137.783Z" fill="white" stroke="#263238" stroke-width="0.704333" stroke-linecap="round" stroke-linejoin="round"/>
<path d="M104.756 135.834H99.8857V139.728H104.756V135.834Z" fill="#263238"/>
<path d="M148.841 92.1241L148.317 95.3192C148.317 95.3192 146.151 107.187 147.651 113.322C149.152 119.457 151.985 125.723 152.154 127.189C152.322 128.655 151.319 134.389 152.487 139.057C153.654 143.726 155.821 152.924 155.821 152.924L153.987 156.393C153.987 156.393 150.151 158.392 149.654 159.059C149.581 159.134 149.531 159.221 149.508 159.314C149.485 159.407 149.49 159.503 149.523 159.594C149.555 159.685 149.614 159.769 149.695 159.838C149.776 159.907 149.876 159.96 149.987 159.993H161.975C162.343 159.274 162.514 158.5 162.477 157.724V148.391C162.477 147.457 163.143 131.591 163.809 128.79C164.475 125.989 165.141 104.788 165.141 104.788H165.811C165.811 104.788 168.982 125.854 169.807 128.123C170.633 130.391 174.145 140.123 175.136 142.125C176.126 144.127 177.307 151.057 177.973 152.793C178.61 154.364 179.112 155.967 179.473 157.593C179.644 158.414 179.924 159.219 180.308 159.993H189.344C189.344 159.993 189.512 158.793 188.842 157.994C188.172 157.195 183.843 153.734 183.172 151.192C182.502 148.65 184.176 136.917 184.016 132.791C183.856 128.666 182.346 128.123 182.346 124.523C182.346 120.923 184.016 109.989 184.016 104.788C184.016 99.5865 183.128 94.7938 181.498 92.0566L179.18 90.2531H150.484L148.841 92.1241Z" fill="#D9D9D9" stroke="#263238" stroke-linecap="round" stroke-linejoin="round"/>
<path d="M184.526 153.574V153.592C184.526 153.592 182.191 152.392 181.356 153.326C180.521 154.259 180.521 154.792 180.521 154.792H178.745C179.074 155.712 179.334 156.648 179.522 157.593C179.693 158.414 179.973 159.219 180.357 159.993H189.344C189.344 159.993 189.512 158.793 188.842 157.994C188.371 157.426 186.076 155.53 184.526 153.574Z" fill="#FF725E" stroke="#263238" stroke-linecap="round" stroke-linejoin="round"/>
<path d="M180.339 159.993H189.343C189.376 159.684 189.365 159.373 189.312 159.066H179.935C180.139 159.599 180.339 159.993 180.339 159.993Z" fill="white" stroke="#263238" stroke-linecap="round" stroke-linejoin="round"/>
<path d="M162.495 157.724V155.459H159.324C159.324 155.459 159.493 154.394 157.992 153.592C156.492 152.79 154.986 154.657 154.986 154.657H154.907L153.987 156.389C153.987 156.389 150.151 158.388 149.654 159.056C149.581 159.13 149.531 159.217 149.508 159.31C149.485 159.403 149.49 159.499 149.523 159.59C149.555 159.681 149.614 159.765 149.695 159.834C149.776 159.904 149.876 159.957 149.987 159.989H161.975C162.348 159.273 162.525 158.5 162.495 157.724Z" fill="#FF725E" stroke="#263238" stroke-linecap="round" stroke-linejoin="round"/>
<path d="M149.645 159.066C149.574 159.141 149.526 159.228 149.504 159.321C149.483 159.413 149.49 159.509 149.523 159.599C149.556 159.689 149.615 159.772 149.696 159.84C149.777 159.908 149.876 159.961 149.987 159.993H161.975C162.138 159.697 162.254 159.385 162.321 159.066H149.645Z" fill="white" stroke="#263238" stroke-linecap="round" stroke-linejoin="round"/>
<path d="M183.128 146.275C183.407 141.734 184.118 135.561 184.016 132.784C183.851 128.648 182.346 128.116 182.346 124.516C182.346 120.916 184.016 109.989 184.016 104.788C184.016 99.5865 183.128 94.7938 181.498 92.0566L179.18 90.2531H150.484L148.841 92.1241L148.317 95.3192C148.317 95.3192 146.151 107.187 147.651 113.322C149.152 119.457 151.985 125.723 152.154 127.189C152.322 128.655 151.319 134.389 152.487 139.057C153.002 141.106 153.703 144.028 154.334 146.662C157.021 147.149 159.777 147.349 162.53 147.255C162.672 143.396 163.249 131.212 163.827 128.794C164.493 125.993 165.159 104.791 165.159 104.791H165.811C165.811 104.791 168.982 125.858 169.807 128.126C170.633 130.395 174.145 140.126 175.136 142.128C175.58 142.98 176.024 144.727 176.468 146.587C178.688 146.901 180.969 146.794 183.128 146.275Z" fill="white" stroke="#263238" stroke-linecap="round" stroke-linejoin="round"/>
<path d="M167.831 103.588L176.836 97.8541" stroke="#263238" stroke-linecap="round" stroke-linejoin="round"/>
<path d="M154.653 98.3866L159.324 101.454" stroke="#263238" stroke-linecap="round" stroke-linejoin="round"/>
<path d="M174.247 33.7697C174.247 33.7697 170.415 31.9591 170.504 32.9354C170.593 33.9117 172.245 34.604 172.245 34.604C172.245 34.604 166.757 33.9792 165.886 34.249C165.016 34.5188 166.499 34.8774 166.499 34.8774C166.499 34.8774 159.706 39.0524 157.357 41.9068C155.008 44.7611 152.917 48.9397 155.355 52.1419C157.792 55.3442 161.362 57.8506 167.369 59.2423C173.377 60.634 179.295 59.1713 183.3 57.8506C187.305 56.53 191.292 52.7668 190.613 48.0344C189.934 43.302 184.677 38.3637 180.756 35.0265C176.836 31.6893 174.402 32.1864 174.402 32.6585C174.392 33.0319 174.34 33.4037 174.247 33.7697Z" fill="#263238" stroke="#263238" stroke-linecap="round" stroke-linejoin="round"/>
<path d="M164.852 53.5443L163.964 58.9015C163.964 58.9015 157.606 60.5701 155.257 61.3369C152.908 62.1037 151.86 63.0765 151.425 63.9108C150.99 64.7451 144.765 76.3364 144.499 77.437C144.232 78.5375 144.672 79.0381 146.585 79.734C148.499 80.4298 153.823 77.8559 153.823 77.8559L154.52 79.805C154.52 79.805 151.034 84.5373 150.426 86.0675C149.818 87.5976 148.859 92.1241 148.859 92.1241C148.859 92.1241 155.474 94.769 165.922 94.5631C176.369 94.3572 181.507 92.0566 181.507 92.0566C181.507 92.0566 180.374 87.5302 179.158 84.8853C177.941 82.2404 176.893 81.1966 176.893 80.1529C176.893 79.1091 180.725 73.6773 180.725 73.6773L188.815 76.727C188.815 76.727 186.906 71.4514 186.382 67.9012C185.858 64.351 184.957 63.7723 183.212 62.5191C181.467 61.2659 173.812 59.4589 173.55 59.324C173.288 59.189 173.896 53.3383 173.896 53.3383C173.896 53.3383 167.29 54.73 164.852 53.5443Z" fill="#D9D9D9" stroke="#263238" stroke-linecap="round" stroke-linejoin="round"/>
<path d="M169.905 57.2116C171.122 56.8566 172.569 55.9371 173.706 55.1134C173.799 54.1158 173.879 53.3383 173.879 53.3383C173.879 53.3383 167.29 54.7371 164.852 53.5514L164.253 57.1015C165.603 58.0672 167.805 57.8435 169.905 57.2116Z" fill="#263238" stroke="#263238" stroke-linecap="round" stroke-linejoin="round"/>
<path d="M179.131 84.8853C177.91 82.2404 176.867 81.1966 176.867 80.1529C176.867 79.1091 180.699 73.6774 180.699 73.6774L188.789 76.727C188.789 76.727 186.879 71.4514 186.355 67.9012C186.076 65.9806 185.676 64.9333 185.099 64.1735C172.693 65.4338 158.902 63.1724 153.401 62.1038C152.528 62.5352 151.834 63.1641 151.408 63.9108C150.964 64.7486 144.747 76.3364 144.481 77.437C144.215 78.5376 144.654 79.0381 146.568 79.734C148.482 80.4298 153.823 77.8559 153.823 77.8559L154.52 79.805C154.52 79.805 151.035 84.5374 150.426 86.0675C149.818 87.5976 148.859 92.1241 148.859 92.1241C148.859 92.1241 155.475 94.769 165.922 94.5631C176.37 94.3572 181.507 92.0567 181.507 92.0567C181.507 92.0567 180.357 87.5302 179.131 84.8853Z" fill="#FF725E" stroke="#263238" stroke-linecap="round" stroke-linejoin="round"/>
<path d="M154.924 75.9388C154.924 75.9388 153.192 73.0383 153.663 71.5259C154.134 70.0135 154.453 69.6337 154.453 69.6337" stroke="#263238" stroke-linecap="round" stroke-linejoin="round"/>
<path d="M186.364 67.9012C186.085 65.9806 185.685 64.9333 185.108 64.1735C172.702 65.4338 158.911 63.1724 153.41 62.1038C152.537 62.5352 151.843 63.1641 151.417 63.9108C151.266 64.2055 150.391 65.835 149.316 67.8657C154.2 68.9308 172.907 72.6336 186.999 70.8976C186.733 69.8645 186.502 68.8243 186.364 67.9012Z" fill="#FF725E" stroke="#263238" stroke-linecap="round" stroke-linejoin="round"/>
<path d="M166.553 40.6003L177.653 46.3196L177.347 48.6308C177.347 48.6308 179.327 47.051 179.633 48.7551C179.94 50.4591 179.189 51.3112 177.804 51.7976C176.419 52.2839 175.673 52.1526 175.673 52.1526C175.673 52.1526 172.325 55.0708 169.901 55.8022C167.476 56.5335 164.883 56.7252 163.685 55.1418C162.486 53.5584 160.781 50.6899 161.238 48.9858C161.695 47.2817 165.811 40.6003 165.811 40.6003H166.553Z" fill="#D9D9D9" stroke="#263238" stroke-linecap="round" stroke-linejoin="round"/>
<path d="M167.645 46.0072C167.643 46.4373 167.458 46.8541 167.121 47.1894C166.602 47.6083 165.381 48.1657 165.381 48.5811C165.381 48.9965 166.513 49.8343 167.556 49.7668" stroke="#263238" stroke-linecap="round" stroke-linejoin="round"/>
<path d="M165.727 50.6721C166.243 50.954 166.858 51.0988 167.484 51.0861C168.109 51.0733 168.714 50.9037 169.212 50.6011" stroke="#263238" stroke-linecap="round" stroke-linejoin="round"/>
<path d="M169.909 47.051C169.909 47.051 171.823 46.4936 172.866 47.6758" stroke="#263238" stroke-linecap="round" stroke-linejoin="round"/>
<path d="M163.986 46.3551C163.986 46.3551 165.554 45.7977 166.34 46.4936" stroke="#263238" stroke-linecap="round" stroke-linejoin="round"/>
<path d="M164.945 43.9872C165.232 43.7064 165.619 43.5025 166.055 43.4029C166.491 43.3032 166.954 43.3126 167.383 43.4298" stroke="#263238" stroke-linecap="round" stroke-linejoin="round"/>
<path d="M170.779 44.1256C170.779 44.1256 173.217 44.1966 173.736 46.0072" stroke="#263238" stroke-linecap="round" stroke-linejoin="round"/>
<path d="M148.495 75.1436C148.495 75.1436 145.795 75.9779 144.943 77.3021C144.09 78.6263 144.246 81.6866 147.638 82.4534C151.03 83.2203 176.108 79.1802 176.108 79.1802C176.722 79.9302 177.391 80.6509 178.11 81.3387C178.723 81.825 180.29 82.8013 180.375 83.2167C180.459 83.6321 180.636 86.2805 181.334 86.4119C182.031 86.5432 181.778 85.1587 181.778 85.1587C181.778 85.1587 182.91 83.838 182.91 83.2096C182.91 82.5812 183.083 80.5647 182.91 80.0783C182.737 79.592 178.643 76.7376 177.773 76.5282C176.902 76.3187 154.613 75.8181 152.526 75.5519C150.44 75.2856 149.187 75.069 148.495 75.1436Z" fill="#D9D9D9" stroke="#263238" stroke-linecap="round" stroke-linejoin="round"/>
<path d="M170.68 55.9856L173.346 57.4024C173.818 57.6531 174.454 57.5506 174.768 57.1734L180.143 50.7071C180.457 50.3299 180.328 49.8209 179.857 49.5702L177.19 48.1533C176.719 47.9026 176.082 48.0052 175.769 48.3824L170.393 54.8486C170.08 55.2258 170.208 55.7348 170.68 55.9856Z" fill="#FF725E" stroke="#263238" stroke-miterlimit="10"/>
<path d="M178.687 56.0968C178.687 56.0968 179.238 54.9679 179.784 54.1549C180.33 53.3419 180.334 52.962 179.944 52.962C179.526 53.0222 179.14 53.1791 178.833 53.4133C178.526 53.6474 178.312 53.9485 178.217 54.2791C178.027 54.958 177.974 55.6568 178.061 56.3489L178.687 56.0968Z" fill="#D9D9D9" stroke="#263238" stroke-miterlimit="10"/>
<path d="M173.977 60.4245C173.977 60.4245 178.448 56.8494 178.603 56.537C178.759 56.2246 178.603 52.1526 178.537 51.0023C178.538 50.9167 178.5 50.8336 178.431 50.7684C178.362 50.7031 178.265 50.6601 178.159 50.6473C178.096 50.6364 178.031 50.6366 177.968 50.6479C177.905 50.6593 177.846 50.6814 177.795 50.7128C177.744 50.7442 177.702 50.7842 177.672 50.8299C177.642 50.8756 177.625 50.9259 177.622 50.9774L177.271 54.2756L176.246 50.1219C176.228 50.0379 176.174 49.9615 176.093 49.9068C176.011 49.8521 175.908 49.8225 175.802 49.8236C175.74 49.8234 175.678 49.8336 175.622 49.8534C175.565 49.8732 175.514 49.9022 175.473 49.9387C175.431 49.9751 175.399 50.0181 175.379 50.0649C175.359 50.1117 175.352 50.1614 175.357 50.2106L175.646 54.8258L174.358 50.8745C174.343 50.8254 174.314 50.7793 174.276 50.7389C174.238 50.6985 174.19 50.6646 174.135 50.6392C174.08 50.6137 174.019 50.5973 173.956 50.5907C173.893 50.5842 173.829 50.5877 173.768 50.6011C173.658 50.6251 173.562 50.6798 173.497 50.7553C173.433 50.8308 173.405 50.9222 173.417 51.013L173.999 55.2732L172.902 56.0258V54.5205L171.57 52.7454C171.522 52.6815 171.445 52.6343 171.356 52.6133C171.266 52.5923 171.17 52.5989 171.086 52.6318C171 52.6656 170.934 52.7249 170.901 52.7972C170.869 52.8695 170.873 52.949 170.913 53.0188L171.801 54.5773C171.801 54.5773 170.074 60.2221 169.994 60.4103C169.914 60.5984 170.309 61.6031 170.544 61.9795C170.78 62.3558 181.289 80.1635 181.915 80.8522C182.542 81.541 186.777 82.6096 188.66 80.9765C190.543 79.3434 189.916 77.7174 188.895 75.8358C187.874 73.9542 173.977 60.4245 173.977 60.4245Z" fill="#D9D9D9" stroke="#263238" stroke-miterlimit="10"/>
<path d="M100.986 62.3629C111.285 62.3629 119.635 55.6871 119.635 47.4521C119.635 39.2171 111.285 32.5413 100.986 32.5413C90.687 32.5413 82.3379 39.2171 82.3379 47.4521C82.3379 55.6871 90.687 62.3629 100.986 62.3629Z" fill="#FF725E"/>
<path d="M112.37 40.7032H90.2676L101.164 49.1029L112.37 40.7032Z" fill="#263238"/>
<path d="M105.591 47.2426L113.285 52.6815V41.4771L105.591 47.2426Z" fill="#263238"/>
<path d="M96.8212 47.232L89.0244 41.2251V52.4259L96.8212 47.232Z" fill="#263238"/>
<path d="M104.614 47.9739L101.15 50.5691L97.7849 47.9775L89.6729 53.3809H112.264L104.614 47.9739Z" fill="#263238"/>
<path d="M100.986 95.0245C111.285 95.0245 119.635 88.3488 119.635 80.1138C119.635 71.8788 111.285 65.203 100.986 65.203C90.687 65.203 82.3379 71.8788 82.3379 80.1138C82.3379 88.3488 90.687 95.0245 100.986 95.0245Z" fill="#FF725E"/>
<path d="M98.4951 75.4097C98.5479 75.492 98.6217 75.5645 98.7117 75.6225C98.8018 75.6806 98.906 75.7228 99.0178 75.7466C99.1295 75.7703 99.2463 75.7751 99.3605 75.7605C99.4747 75.7459 99.5837 75.7122 99.6806 75.6618C100.289 75.3955 100.897 75.1293 101.457 74.8204C101.657 74.6682 101.822 74.4891 101.945 74.2914C101.834 74.082 101.776 73.9364 101.688 73.8086C101.448 73.4536 101.19 73.0986 100.937 72.7435L98.3664 69.1934C98.3155 69.0899 98.2349 68.9974 98.1311 68.9234C98.0274 68.8494 97.9033 68.7959 97.769 68.7673C97.6346 68.7386 97.4938 68.7356 97.3577 68.7584C97.2216 68.7812 97.0941 68.8293 96.9855 68.8987C96.435 69.1472 95.8888 69.3957 95.3516 69.6584C95.2476 69.6982 95.1554 69.7552 95.0811 69.8256C95.0068 69.8961 94.9521 69.9783 94.9206 70.067C94.8891 70.1556 94.8815 70.2486 94.8984 70.3398C94.9153 70.4309 94.9563 70.5182 95.0186 70.5957C96.173 72.2075 97.3318 73.8121 98.4951 75.4097Z" fill="#263238"/>
<path d="M111.296 87.0934C110.172 85.5313 109.044 83.9716 107.913 82.4143C107.865 82.3197 107.79 82.2352 107.695 82.1671C107.6 82.0991 107.487 82.0493 107.364 82.0215C107.241 81.9938 107.112 81.9889 106.986 82.0071C106.86 82.0253 106.742 82.0662 106.639 82.1267C106.073 82.3799 105.514 82.6391 104.96 82.9042C104.856 82.9434 104.763 82.9996 104.687 83.0691C104.611 83.1387 104.554 83.2201 104.519 83.3081C104.484 83.3962 104.473 83.4891 104.485 83.5809C104.498 83.6727 104.534 83.7614 104.592 83.8414L108.268 88.8578C108.401 88.9496 108.567 89.005 108.742 89.0159C108.917 89.0268 109.092 88.9925 109.241 88.9182C109.836 88.659 110.435 88.3999 111.017 88.0981C111.223 87.9485 111.399 87.775 111.541 87.5833C111.475 87.4152 111.393 87.2515 111.296 87.0934Z" fill="#263238"/>
<path d="M103.685 84.1645C103.323 84.2682 102.937 84.3079 102.554 84.2809C102.171 84.254 101.799 84.161 101.465 84.0083C101.088 83.8539 100.733 83.6657 100.409 83.4474C98.7667 82.2914 97.6192 80.7531 97.1273 79.0487C96.8032 77.9836 96.7144 76.9186 97.7356 76.0665L93.9527 70.8833C93.6552 71.0359 93.3666 71.1815 93.0957 71.3341C92.5481 71.606 92.1042 71.9926 91.8122 72.452C91.5202 72.9114 91.3913 73.4261 91.4396 73.94C91.5074 74.9946 91.6991 76.0418 92.0123 77.0677C93.2659 80.6216 95.4975 83.9063 98.5437 86.6816C99.6747 87.7861 101.025 88.7348 102.54 89.4898C103.286 89.8619 104.156 90.0439 105.035 90.0116C105.913 89.9792 106.759 89.7341 107.459 89.3087L103.685 84.1645Z" fill="#263238"/>
<path d="M100.986 127.686C111.285 127.686 119.635 121.01 119.635 112.775C119.635 104.54 111.285 97.8647 100.986 97.8647C90.687 97.8647 82.3379 104.54 82.3379 112.775C82.3379 121.01 90.687 127.686 100.986 127.686Z" fill="#FF725E"/>
<path d="M98.2373 115.569H94.0947V117.249C94.0942 117.772 94.3419 118.275 94.7877 118.658C95.2335 119.041 95.8443 119.274 96.4968 119.311L98.2373 115.569Z" fill="#263238"/>
<path d="M109.786 109.818H108.01V112.74C108.01 113.493 107.636 114.216 106.97 114.748C106.304 115.281 105.4 115.58 104.458 115.58H104.396L98.0557 119.318H104.938L103.237 122.975L109.422 119.318H109.795C110.482 119.318 111.141 119.1 111.627 118.712C112.113 118.324 112.387 117.798 112.388 117.249V111.888C112.388 111.615 112.32 111.346 112.189 111.094C112.058 110.842 111.866 110.614 111.624 110.422C111.382 110.229 111.096 110.077 110.78 109.974C110.465 109.87 110.127 109.817 109.786 109.818Z" fill="#263238"/>
<path d="M104.454 105.32H91.3513C90.6647 105.32 90.0063 105.538 89.5209 105.926C89.0354 106.314 88.7627 106.841 88.7627 107.39V112.751C88.7627 113.3 89.0353 113.827 89.5206 114.215C90.0059 114.604 90.6643 114.823 91.3513 114.824H99.6054L97.9048 118.456L104.094 114.813H104.467C105.155 114.812 105.813 114.594 106.299 114.205C106.785 113.816 107.059 113.29 107.06 112.74V107.379C107.056 106.83 106.778 106.305 106.29 105.918C105.801 105.532 105.141 105.317 104.454 105.32Z" fill="#263238"/>
<path d="M94.3127 110.667C94.8252 110.667 95.2407 110.334 95.2407 109.925C95.2407 109.515 94.8252 109.183 94.3127 109.183C93.8002 109.183 93.3848 109.515 93.3848 109.925C93.3848 110.334 93.8002 110.667 94.3127 110.667Z" fill="#FF725E"/>
<path d="M99.019 109.935C99.019 110.082 98.9646 110.225 98.8626 110.348C98.7607 110.47 98.6158 110.565 98.4462 110.621C98.2766 110.677 98.09 110.692 97.91 110.663C97.73 110.634 97.5647 110.564 97.4349 110.46C97.3051 110.356 97.2167 110.224 97.1809 110.08C97.1451 109.936 97.1635 109.787 97.2337 109.651C97.304 109.516 97.4229 109.4 97.5755 109.318C97.7281 109.237 97.9075 109.193 98.0911 109.193C98.3368 109.194 98.5722 109.273 98.7459 109.412C98.9197 109.551 99.0179 109.739 99.019 109.935Z" fill="#FF725E"/>
<path d="M102.793 109.935C102.793 110.082 102.739 110.226 102.637 110.348C102.535 110.47 102.389 110.565 102.22 110.621C102.05 110.677 101.863 110.692 101.683 110.663C101.503 110.634 101.337 110.563 101.208 110.459C101.078 110.355 100.99 110.222 100.955 110.078C100.919 109.934 100.939 109.784 101.009 109.649C101.08 109.513 101.2 109.398 101.353 109.317C101.506 109.236 101.686 109.193 101.87 109.193C102.115 109.194 102.35 109.273 102.523 109.412C102.696 109.551 102.793 109.739 102.793 109.935Z" fill="#FF725E"/>
<path d="M56.2173 69.3248L56.5548 68.9698L62.056 62.9771C62.056 62.9771 62.8019 59.402 63.1749 58.5074C63.5479 57.6127 64.2938 55.7276 64.5425 55.0318C64.7911 54.3359 65.0397 53.5407 65.537 53.8389C66.0343 54.1371 66.0343 55.33 65.7857 55.9264C65.5666 56.4711 65.5238 57.0513 65.6614 57.6127C65.7857 57.911 72.3703 53.4413 72.9875 53.8389C73.6046 54.2365 72.7433 56.1252 71.5001 57.4139C70.2568 58.7026 65.1641 63.3747 65.1641 63.3747C65.1641 63.3747 59.3254 75.8891 57.5849 77.8772C55.8444 79.8653 55.4758 78.9706 53.7353 77.8772C51.9948 76.7837 49.7393 74.3021 49.7393 74.3021L56.2173 69.3248Z" fill="white" stroke="#263238" stroke-linecap="round" stroke-linejoin="round"/>
<path d="M65.2881 60.9819C65.2881 60.9819 65.9097 59.2068 66.5313 58.795C67.1529 58.3832 69.5106 57.2081 69.5106 57.2081L71.1268 53.2319C71.1268 53.2319 71.6241 52.9336 71.4997 53.8283C71.3754 54.7229 71.1268 56.711 70.7538 57.6021C70.3808 58.4932 68.7647 60.0873 68.7647 60.0873" fill="white"/>
<path d="M65.2881 60.9819C65.2881 60.9819 65.9097 59.2068 66.5313 58.795C67.1529 58.3832 69.5106 57.2081 69.5106 57.2081L71.1268 53.2319C71.1268 53.2319 71.6241 52.9336 71.4997 53.8283C71.3754 54.7229 71.1268 56.711 70.7538 57.6021C70.3808 58.4932 68.7647 60.0873 68.7647 60.0873" stroke="#263238" stroke-linecap="round" stroke-linejoin="round"/>
<path d="M47.2744 54.1265L56.8383 69.126L49.5122 75.0867L47.3987 69.4242L47.2744 54.1265Z" fill="#FF725E" stroke="#263238" stroke-linecap="round" stroke-linejoin="round"/>
<path d="M48.6338 72.7365L49.5129 75.0867L56.839 69.126L55.5203 67.0598L48.6338 72.7365Z" fill="#263238" stroke="#263238" stroke-miterlimit="10"/>
<path d="M24.342 152.893L23.454 155.708C23.454 155.708 18.2458 158.015 17.8462 158.335C17.4466 158.655 17.602 160 17.602 160H32.5118C32.5875 158.968 32.4799 157.933 32.1921 156.926C31.9666 155.677 31.8288 154.42 31.7792 153.159L24.342 152.893Z" fill="#263238" stroke="#263238" stroke-linecap="round" stroke-linejoin="round"/>
<path d="M17.6065 159.993H32.5118C32.5291 159.736 32.5291 159.479 32.5118 159.223H17.5799C17.5665 159.638 17.6065 159.993 17.6065 159.993Z" fill="white" stroke="#263238" stroke-linecap="round" stroke-linejoin="round"/>
<path d="M18.1703 158.218C19.1916 157.521 20.4441 157.075 21.7757 156.936C24.1778 156.613 26.3445 157.32 26.824 157.703C27.3036 158.086 27.6233 159.176 27.6233 159.176L17.5798 159.24C17.5051 159.146 17.4611 159.038 17.452 158.926C17.4428 158.814 17.4688 158.702 17.5275 158.601C17.5862 158.499 17.6758 158.411 17.7881 158.344C17.9003 158.277 18.0318 158.234 18.1703 158.218Z" fill="white" stroke="#263238" stroke-linecap="round" stroke-linejoin="round"/>
<path d="M30.9881 155.154C30.9881 155.846 30.6862 156.404 30.3088 156.404C29.9314 156.404 29.625 155.846 29.625 155.154C29.625 154.462 29.9314 153.904 30.3088 153.904C30.6862 153.904 30.9881 154.465 30.9881 155.154Z" fill="white" stroke="#263238" stroke-linecap="round" stroke-linejoin="round"/>
<path d="M61.5491 152.893L62.4371 155.708C62.4371 155.708 67.6453 158.015 68.0449 158.335C68.4445 158.655 68.2847 160 68.2847 160H53.3793C53.3009 158.968 53.4085 157.933 53.699 156.926C53.9214 155.677 54.0577 154.419 54.1075 153.159L61.5491 152.893Z" fill="#263238" stroke="#263238" stroke-linecap="round" stroke-linejoin="round"/>
<path d="M68.2806 159.993H53.3797C53.3546 159.737 53.3457 159.48 53.3531 159.223H68.3117C68.3187 159.48 68.3083 159.737 68.2806 159.993Z" fill="white" stroke="#263238" stroke-linecap="round" stroke-linejoin="round"/>
<path d="M67.721 158.218C66.699 157.522 65.4469 157.077 64.1157 156.936C61.7136 156.613 59.5469 157.32 59.0673 157.703C58.5878 158.086 58.2637 159.176 58.2637 159.176L68.3116 159.24C68.3863 159.146 68.4303 159.038 68.4394 158.926C68.4485 158.814 68.4226 158.702 68.3639 158.601C68.3052 158.499 68.2156 158.411 68.1033 158.344C67.991 158.277 67.8596 158.234 67.721 158.218Z" fill="white" stroke="#263238" stroke-linecap="round" stroke-linejoin="round"/>
<path d="M54.8984 155.154C54.8984 155.846 55.2048 156.404 55.5822 156.404C55.9596 156.404 56.2615 155.846 56.2615 155.154C56.2615 154.462 55.9596 153.904 55.5822 153.904C55.2048 153.904 54.8984 154.465 54.8984 155.154Z" fill="white" stroke="#263238" stroke-linecap="round" stroke-linejoin="round"/>
<path d="M24.1725 93.1288L23.6797 99.3416L24.3413 152.885L31.7784 153.152L39.2199 103.705L40.2145 103.439L54.1075 153.152L61.5491 152.885L58.2368 119.571L53.2373 90.9774L24.1725 93.1288Z" fill="white" stroke="#263238" stroke-linecap="round" stroke-linejoin="round"/>
<path d="M39.873 94.8151V99.3487L41.4182 97.2896L41.6802 94.1974" stroke="#808080" stroke-linecap="round" stroke-linejoin="round"/>
<path d="M29.261 53.4307C29.261 53.4307 12.4909 59.292 12.2422 59.8778C11.9936 60.4636 7.52241 75.2749 8.24614 76.663C8.69074 77.4415 9.48675 78.057 10.4748 78.3862C11.4628 78.7153 12.5698 78.7339 13.5742 78.4381C15.9319 77.7281 18.1697 70.4928 18.1697 70.4928C18.1697 70.4928 23.3868 83.206 23.3868 84.4983C23.3868 85.7906 23.8841 93.7288 23.8841 93.7288C23.8841 93.7288 33.448 94.8187 41.4002 93.3312C49.3523 91.8436 53.2019 90.9454 53.2019 90.9454L49.4767 72.7685C49.4767 72.7685 47.4875 54.7904 47.2566 54.0945C47.0257 53.3987 32.8441 53.1999 31.7164 53.2993C30.5886 53.3987 29.261 53.4307 29.261 53.4307Z" fill="#FF725E" stroke="#263238" stroke-linecap="round" stroke-linejoin="round"/>
<path d="M16.5408 74.7886C15.971 73.323 14.9531 71.9942 13.5793 70.9224C12.194 69.939 10.3514 70.4964 9.09037 71.107C8.42436 73.8655 7.99367 76.1838 8.26896 76.6915C8.71355 77.4699 9.50957 78.0854 10.4976 78.4146C11.4856 78.7437 12.5926 78.7623 13.597 78.4665C14.676 78.147 15.7372 76.4926 16.5408 74.7886Z" fill="#263238" stroke="#263238" stroke-miterlimit="10"/>
<path d="M21.451 78.6937L49.7387 73.94L49.5123 72.8182C49.5123 72.8182 49.4679 72.4632 49.4013 71.8206L20.6562 76.6488C20.9227 77.3092 21.1891 77.9837 21.451 78.6937Z" fill="#263238"/>
<path d="M53.2373 90.9774L50.4445 77.366L22.6719 81.9812C23.0084 82.8155 23.2593 83.6704 23.4222 84.5373C23.4222 85.8261 23.9195 93.7678 23.9195 93.7678C23.9195 93.7678 33.4835 94.8577 41.4356 93.3702C49.3878 91.8827 53.2373 90.9774 53.2373 90.9774Z" fill="#263238" stroke="#263238" stroke-miterlimit="10"/>
<path d="M31.7479 53.3312C30.629 53.4307 29.2614 53.4307 29.2614 53.4307C29.2614 53.4307 26.1179 54.5312 22.5303 55.827L37.0493 67.8124C37.0493 67.8124 40.1574 55.859 39.8821 54.8294C39.7513 54.3472 39.5792 53.8727 39.367 53.4094C35.8017 53.3064 32.2807 53.2851 31.7479 53.3312Z" fill="#263238" stroke="#263238" stroke-miterlimit="10"/>
<path d="M36.468 49.955C36.468 49.955 37.214 55.1205 37.5869 56.1146C37.9599 57.1086 35.4734 64.0599 35.4734 64.0599C35.4734 64.0599 28.2672 58.1985 27.397 56.5122C26.5267 54.8259 24.542 48.961 24.542 48.961C24.542 48.961 30.878 51.5455 36.468 49.955Z" fill="white" stroke="#263238" stroke-linecap="round" stroke-linejoin="round"/>
<path d="M24.542 48.961C24.542 48.961 24.986 50.2994 25.5632 51.8792C25.8651 52.0141 26.2292 52.1668 26.6732 52.3443C28.9874 53.3241 31.6232 53.7097 34.2213 53.4484C34.7638 53.3772 35.2779 53.2053 35.7221 52.9463C36.1663 52.6873 36.5282 52.3486 36.7788 51.9573C36.6012 50.8461 36.4725 49.955 36.4725 49.955C30.878 51.5455 24.542 48.961 24.542 48.961Z" fill="#263238" stroke="#263238" stroke-linecap="round" stroke-linejoin="round"/>
<path d="M33.2749 36.9187C33.2749 36.9187 35.1575 39.9329 36.4185 41.2393C37.6794 42.5458 39.6864 45.464 38.8072 47.1717C37.9281 48.8793 37.3509 51.7869 34.5314 52.0993C31.9329 52.3576 29.2978 51.971 26.9833 50.9917C24.7189 50.0864 24.4702 49.7846 24.4702 49.7846C24.4702 49.7846 22.5832 49.7846 21.451 49.0746C20.3188 48.3645 18.0588 46.1599 18.6848 44.2499C19.3109 42.3399 20.8249 42.1375 20.8249 42.1375C20.8249 42.1375 17.6814 41.1328 19.6927 38.6193C21.7041 36.1058 25.9754 35.204 27.9912 35.204C30.007 35.204 33.2749 36.9187 33.2749 36.9187Z" fill="white" stroke="#263238" stroke-linecap="round" stroke-linejoin="round"/>
<path d="M32.6445 40.2346C32.9334 40.5997 33.3201 40.909 33.7767 41.1399C34.6648 41.644 35.9124 41.3423 35.5528 42.2476C35.1931 43.1529 34.2962 43.4511 33.5414 43.3517" stroke="#263238" stroke-linecap="round" stroke-linejoin="round"/>
<path d="M35.6634 44.4593C35.6634 44.4593 33.2747 45.5634 31.6407 45.464C30.7888 45.4488 29.9601 45.2394 29.252 44.8605" stroke="#263238" stroke-linecap="round" stroke-linejoin="round"/>
<path d="M30.3887 45.464C30.3887 45.464 31.2767 47.9776 32.5243 47.1717C33.3145 46.6187 33.8467 45.8677 34.034 45.0416C32.8743 45.4004 31.6281 45.5448 30.3887 45.464Z" fill="#263238" stroke="#263238" stroke-linecap="round" stroke-linejoin="round"/>
<path d="M30.2602 41.1079C30.5355 41.463 30.5444 41.8499 30.2602 41.9848C29.976 42.1198 29.5498 41.9493 29.2701 41.6014C28.9903 41.2535 28.9859 40.8594 29.2701 40.721C29.5542 40.5825 29.9805 40.7565 30.2602 41.1079Z" fill="#263238"/>
<path d="M34.2739 39.5885C34.5491 39.9435 34.558 40.334 34.2739 40.4689C33.9897 40.6038 33.5635 40.4334 33.2837 40.082C33.004 39.7305 32.9996 39.34 33.2837 39.2051C33.5679 39.0702 33.9941 39.2406 34.2739 39.5885Z" fill="#263238"/>
<path d="M27.623 40.8062C27.623 40.8062 27.9871 39.4643 29.3014 39.2867" stroke="#263238" stroke-linecap="round" stroke-linejoin="round"/>
<path d="M31.9297 38.7045C31.9297 38.7045 32.6623 37.5968 33.83 38.0619" stroke="#263238" stroke-linecap="round" stroke-linejoin="round"/>
<path d="M21.2023 40.0358C21.2023 40.0358 29.3765 40.0358 30.007 38.9282C30.6375 37.8205 28.746 37.0182 28.746 37.0182C28.746 37.0182 35.788 37.2205 36.5428 35.5093C37.2976 33.7981 34.0297 33.0988 33.0218 33.0988H31.5122C31.5122 33.0988 31.1348 30.5852 27.4895 31.1888C23.8442 31.7923 16.8022 35.6123 15.9453 37.824C15.0884 40.0358 13.0548 40.7387 14.5644 43.3517C16.0741 45.9646 20.2211 48.077 20.2211 48.077C20.2211 48.077 19.5906 46.167 20.8516 46.0676C22.1126 45.9682 24.2438 46.6675 24.6212 46.6675C24.9986 46.6675 26.1308 45.8652 25.5092 45.3611C24.8876 44.857 24.2527 44.5587 24.1283 44.257C24.004 43.9552 24.7544 42.9505 24.2527 42.0452C23.7509 41.1399 21.2023 40.0358 21.2023 40.0358Z" fill="#263238" stroke="#263238" stroke-linecap="round" stroke-linejoin="round"/>
<path d="M21.3179 43.6899L18.404 45.2385C17.9322 45.4892 17.804 45.9982 18.1175 46.3754L23.8588 53.2822C24.1724 53.6594 24.809 53.762 25.2808 53.5112L28.1946 51.9627C28.6664 51.712 28.7946 51.203 28.4811 50.8258L22.7398 43.919C22.4262 43.5418 21.7896 43.4392 21.3179 43.6899Z" fill="#FF725E" stroke="#263238" stroke-miterlimit="10"/>
<path d="M19.6975 52.1064C19.6975 52.1064 19.1158 50.9171 18.5386 50.0544C17.9614 49.1917 17.9569 48.7976 18.3699 48.7976C18.8074 48.8633 19.2114 49.0296 19.5324 49.2761C19.8534 49.5227 20.0774 49.8389 20.177 50.1858C20.3749 50.9033 20.4303 51.6413 20.3413 52.3727L19.6975 52.1064Z" fill="white" stroke="#263238" stroke-miterlimit="10"/>
<path d="M24.6658 56.6826C24.6658 56.6826 19.946 52.9088 19.7817 52.5786C19.6175 52.2485 19.8039 47.9634 19.8528 46.7315C19.8616 46.6455 19.9055 46.5642 19.9777 46.5C20.0498 46.4359 20.1464 46.3925 20.2524 46.3765C20.3193 46.3674 20.3878 46.3696 20.4536 46.3829C20.5194 46.3962 20.581 46.4204 20.6345 46.4538C20.6879 46.4872 20.7321 46.5291 20.7642 46.5769C20.7962 46.6247 20.8155 46.6774 20.8207 46.7315L21.1937 50.2107L22.2726 45.8226C22.2944 45.734 22.3542 45.6542 22.4418 45.5972C22.5294 45.5401 22.6392 45.5093 22.7522 45.5102C22.8178 45.5106 22.8827 45.5216 22.943 45.5426C23.0032 45.5635 23.0575 45.594 23.1027 45.6321C23.1479 45.6702 23.183 45.7152 23.2059 45.7644C23.2288 45.8136 23.2391 45.866 23.2361 45.9185L22.9298 50.8071L24.2929 46.6356C24.3093 46.5838 24.3386 46.5351 24.379 46.4924C24.4193 46.4497 24.47 46.4139 24.5279 46.3871C24.5858 46.3603 24.6499 46.3431 24.7162 46.3364C24.7826 46.3296 24.85 46.3336 24.9145 46.3481C25.0215 46.3722 25.1156 46.4239 25.1822 46.4952C25.2488 46.5664 25.2843 46.6532 25.283 46.7421L24.6658 51.2331L25.8247 52.0283V50.4379L27.2144 48.5705C27.2639 48.5018 27.3445 48.451 27.4396 48.4285C27.5346 48.4061 27.6368 48.4137 27.725 48.4498C27.8148 48.4864 27.8836 48.5491 27.9174 48.625C27.9513 48.7009 27.9476 48.7843 27.9071 48.858L26.9835 50.5053C26.9835 50.5053 28.8084 56.4625 28.8883 56.6613C28.9683 56.8601 28.5598 57.9216 28.3111 58.3193C28.0625 58.7169 16.9623 77.5222 16.3229 78.25C15.6836 78.9778 11.1902 80.1032 9.21881 78.3813C7.24742 76.6595 7.88679 74.9377 8.97017 72.9531C10.0535 70.9686 24.6658 56.6826 24.6658 56.6826Z" fill="white" stroke="#263238" stroke-miterlimit="10"/>
<path d="M26.3223 96.963L32.6094 99.8706" stroke="#808080" stroke-linecap="round" stroke-linejoin="round"/>
<path d="M51.7861 94.9784L47.9854 98.944" stroke="#808080" stroke-linecap="round" stroke-linejoin="round"/>
<path d="M1.52832 159.993H200" stroke="#263238" stroke-linecap="round" stroke-linejoin="round"/>
</svg>
