<svg width="202" height="160" viewBox="0 0 202 160" fill="none" xmlns="http://www.w3.org/2000/svg">
<path d="M139.745 120.619C139.745 120.619 148.961 96.433 137.389 118.772C137.389 118.772 133.307 99.3283 134.373 120.545C134.373 120.545 122.441 104.264 132.502 124.076C132.502 124.076 117.019 109.666 133.006 128.442C133.006 128.442 164.234 127.073 139.97 126.143C139.97 126.143 168.217 115.7 141.292 123.209C141.292 123.217 165.367 102.412 139.745 120.619Z" fill="#FF725E"/>
<path d="M137.78 121.157C137.78 121.157 131.571 128.795 129.323 136.712" stroke="#263238" stroke-width="0.75" stroke-linecap="round" stroke-linejoin="round"/>
<path d="M120.782 121.396C120.782 121.396 99.0489 106.457 118.134 122.632C118.134 122.632 96.9764 119.56 118.974 125.547C118.974 125.547 98.5184 129.592 121.986 128.136C121.986 128.136 102.299 135.543 126.608 129.148C126.608 129.148 135.245 104.432 126.496 122.997C126.496 122.997 124.913 97.6806 123.929 121.035C123.929 121.027 110.405 95.6288 120.782 121.396Z" fill="#FF725E"/>
<path opacity="0.3" d="M120.782 121.396C120.782 121.396 99.0489 106.457 118.134 122.632C118.134 122.632 96.9764 119.56 118.974 125.547C118.974 125.547 98.5184 129.592 121.986 128.136C121.986 128.136 102.299 135.543 126.608 129.148C126.608 129.148 135.245 104.432 126.496 122.997C126.496 122.997 124.913 97.6806 123.929 121.035C123.929 121.027 110.405 95.6288 120.782 121.396Z" fill="white"/>
<path d="M131.015 137.438C127.108 126.061 120.225 123.283 120.225 123.283" stroke="#263238" stroke-width="0.75" stroke-linecap="round" stroke-linejoin="round"/>
<path d="M129.575 122.718C129.575 122.718 132.363 125.002 133.104 128.105C135.778 127.307 138.606 126.975 141.426 127.128" stroke="#263238" stroke-width="0.5" stroke-linecap="round" stroke-linejoin="round"/>
<path d="M132.521 120.259C132.521 120.259 134.436 122.287 133.105 128.105L140.433 123.621" stroke="#263238" stroke-width="0.5" stroke-linecap="round" stroke-linejoin="round"/>
<path d="M127.422 123.005C126.626 124.735 126.238 126.586 126.28 128.45C126.28 128.45 123.133 128.756 121.002 129.627" stroke="#263238" stroke-width="0.5" stroke-linecap="round" stroke-linejoin="round"/>
<path d="M124.027 122.283C124.358 124.437 125.119 126.525 126.275 128.45C126.275 128.45 124.27 126.881 118.965 126.622" stroke="#263238" stroke-width="0.5" stroke-linecap="round" stroke-linejoin="round"/>
<path d="M123.587 135.845H136.553L134.561 146.438H133.932V146.862C133.932 146.934 133.916 147.006 133.885 147.073C133.854 147.14 133.807 147.201 133.749 147.253C133.69 147.304 133.621 147.345 133.544 147.373C133.468 147.4 133.385 147.415 133.302 147.415H132.7C132.617 147.415 132.535 147.4 132.458 147.373C132.381 147.345 132.312 147.304 132.253 147.253C132.195 147.201 132.148 147.14 132.117 147.073C132.086 147.006 132.07 146.934 132.07 146.862V146.438H128.069V146.862C128.069 146.934 128.053 147.006 128.021 147.073C127.989 147.14 127.942 147.201 127.884 147.253C127.825 147.304 127.755 147.345 127.678 147.373C127.601 147.4 127.519 147.415 127.435 147.415H126.833C126.666 147.414 126.505 147.355 126.388 147.251C126.27 147.148 126.203 147.008 126.203 146.862V146.438H125.574L123.587 135.845Z" fill="#263238" stroke="#263238" stroke-width="0.75" stroke-linecap="round" stroke-linejoin="round"/>
<path d="M180.76 147.391H29.0268C19.8689 148.615 12.5228 150.2 14.8291 152.005C20.2241 156.23 59.0768 151.295 57.9348 156.187C56.7929 161.079 85.9301 159.867 101.782 159.867C117.635 159.867 134.939 158.568 129.369 154.814C123.798 151.059 160.776 153.802 176.669 153.802C188.268 153.802 196.217 150.977 180.76 147.391Z" fill="#FF725E"/>
<path d="M1 147.391H201" stroke="#263238" stroke-width="0.75" stroke-linecap="round" stroke-linejoin="round"/>
<path d="M144.879 9.41286H67.7848C65.7339 9.41286 64.0713 10.8637 64.0713 12.6534V101.141C64.0713 102.93 65.7339 104.381 67.7848 104.381H144.879C146.93 104.381 148.592 102.93 148.592 101.141V12.6534C148.592 10.8637 146.93 9.41286 144.879 9.41286Z" fill="#263238" stroke="#263238" stroke-linecap="round" stroke-linejoin="round"/>
<path d="M143.53 8.02017H66.4362C64.3853 8.02017 62.7227 9.47102 62.7227 11.2607V99.7481C62.7227 101.538 64.3853 102.989 66.4362 102.989H143.53C145.581 102.989 147.244 101.538 147.244 99.7481V11.2607C147.244 9.47102 145.581 8.02017 143.53 8.02017Z" fill="#FF725E"/>
<path opacity="0.8" d="M143.53 8.02017H66.4362C64.3853 8.02017 62.7227 9.47102 62.7227 11.2607V99.7481C62.7227 101.538 64.3853 102.989 66.4362 102.989H143.53C145.581 102.989 147.244 101.538 147.244 99.7481V11.2607C147.244 9.47102 145.581 8.02017 143.53 8.02017Z" fill="white"/>
<path d="M143.53 8.02017H66.4362C64.3853 8.02017 62.7227 9.47102 62.7227 11.2607V99.7481C62.7227 101.538 64.3853 102.989 66.4362 102.989H143.53C145.581 102.989 147.244 101.538 147.244 99.7481V11.2607C147.244 9.47102 145.581 8.02017 143.53 8.02017Z" stroke="#263238" stroke-linecap="round" stroke-linejoin="round"/>
<path d="M143.647 21.5904H66.3193V47.9071H143.647V21.5904Z" fill="white" stroke="#263238" stroke-linecap="round" stroke-linejoin="round"/>
<path d="M143.647 47.9071L66.3193 21.5904" stroke="#263238" stroke-width="0.75" stroke-linecap="round" stroke-linejoin="round"/>
<path d="M66.3193 47.9071L143.647 21.5904" stroke="#263238" stroke-width="0.75" stroke-linecap="round" stroke-linejoin="round"/>
<path d="M104.983 53.2387H66.3193V79.5554H104.983V53.2387Z" fill="#FF725E"/>
<path opacity="0.5" d="M104.983 53.2387H66.3193V79.5554H104.983V53.2387Z" fill="white"/>
<path d="M104.983 53.2387H66.3193V79.5554H104.983V53.2387Z" stroke="#263238" stroke-linecap="round" stroke-linejoin="round"/>
<path d="M121.73 12.5593H88.2359C87.8634 12.5593 87.5615 12.8227 87.5615 13.1477C87.5615 13.4727 87.8634 13.7362 88.2359 13.7362H121.73C122.102 13.7362 122.404 13.4727 122.404 13.1477C122.404 12.8227 122.102 12.5593 121.73 12.5593Z" fill="#263238" stroke="#263238" stroke-width="0.75" stroke-linecap="round" stroke-linejoin="round"/>
<path d="M142.973 54.4157H109.479C109.3 54.4157 109.129 54.3537 109.002 54.2433C108.876 54.133 108.805 53.9833 108.805 53.8272C108.805 53.6711 108.876 53.5214 109.002 53.4111C109.129 53.3007 109.3 53.2387 109.479 53.2387H142.973C143.152 53.2387 143.323 53.3007 143.45 53.4111C143.576 53.5214 143.647 53.6711 143.647 53.8272C143.647 53.9833 143.576 54.133 143.45 54.2433C143.323 54.3537 143.152 54.4157 142.973 54.4157Z" fill="#263238" stroke="#263238" stroke-width="0.75" stroke-linecap="round" stroke-linejoin="round"/>
<path d="M135.779 60.9203H109.479C109.3 60.9203 109.129 60.8583 109.002 60.7479C108.876 60.6376 108.805 60.4879 108.805 60.3318C108.805 60.1757 108.876 60.0261 109.002 59.9157C109.129 59.8053 109.3 59.7433 109.479 59.7433H135.779C135.958 59.7433 136.13 59.8053 136.256 59.9157C136.383 60.0261 136.454 60.1757 136.454 60.3318C136.454 60.4879 136.383 60.6376 136.256 60.7479C136.13 60.8583 135.958 60.9203 135.779 60.9203Z" fill="#263238" stroke="#263238" stroke-width="0.75" stroke-linecap="round" stroke-linejoin="round"/>
<path d="M132.295 64.3453H109.479C109.107 64.3453 108.805 64.6087 108.805 64.9337C108.805 65.2587 109.107 65.5222 109.479 65.5222H132.295C132.668 65.5222 132.97 65.2587 132.97 64.9337C132.97 64.6087 132.668 64.3453 132.295 64.3453Z" fill="#263238" stroke="#263238" stroke-width="0.75" stroke-linecap="round" stroke-linejoin="round"/>
<path d="M138.927 70.1202H109.479C109.3 70.1202 109.129 70.0582 109.002 69.9478C108.876 69.8375 108.805 69.6878 108.805 69.5317C108.805 69.3756 108.876 69.2259 109.002 69.1156C109.129 69.0052 109.3 68.9432 109.479 68.9432H138.927C139.105 68.9432 139.277 69.0052 139.403 69.1156C139.53 69.2259 139.601 69.3756 139.601 69.5317C139.601 69.6878 139.53 69.8375 139.403 69.9478C139.277 70.0582 139.105 70.1202 138.927 70.1202Z" fill="#263238" stroke="#263238" stroke-width="0.75" stroke-linecap="round" stroke-linejoin="round"/>
<path d="M136.117 74.7181H109.479C109.3 74.7181 109.129 74.6561 109.002 74.5458C108.876 74.4354 108.805 74.2857 108.805 74.1297C108.805 73.9736 108.876 73.8239 109.002 73.7136C109.129 73.6032 109.3 73.5412 109.479 73.5412H136.117C136.296 73.5412 136.467 73.6032 136.594 73.7136C136.72 73.8239 136.791 73.9736 136.791 74.1297C136.791 74.2857 136.72 74.4354 136.594 74.5458C136.467 74.6561 136.296 74.7181 136.117 74.7181Z" fill="#263238" stroke="#263238" stroke-width="0.75" stroke-linecap="round" stroke-linejoin="round"/>
<path d="M132.295 79.3201H109.479C109.3 79.3201 109.129 79.258 109.002 79.1477C108.876 79.0373 108.805 78.8876 108.805 78.7316C108.805 78.5755 108.876 78.4258 109.002 78.3155C109.129 78.2051 109.3 78.1431 109.479 78.1431H132.295C132.474 78.1431 132.646 78.2051 132.772 78.3155C132.899 78.4258 132.97 78.5755 132.97 78.7316C132.97 78.8876 132.899 79.0373 132.772 79.1477C132.646 79.258 132.474 79.3201 132.295 79.3201Z" fill="#263238" stroke="#263238" stroke-width="0.75" stroke-linecap="round" stroke-linejoin="round"/>
<path d="M126.787 17.7222H83.1783C82.9994 17.7222 82.8279 17.6602 82.7014 17.5498C82.575 17.4394 82.5039 17.2897 82.5039 17.1337C82.5039 16.9776 82.575 16.8279 82.7014 16.7176C82.8279 16.6072 82.9994 16.5452 83.1783 16.5452H126.787C126.966 16.5452 127.138 16.6072 127.264 16.7176C127.391 16.8279 127.462 16.9776 127.462 17.1337C127.462 17.2897 127.391 17.4394 127.264 17.5498C127.138 17.6602 126.966 17.7222 126.787 17.7222Z" fill="#263238" stroke="#263238" stroke-width="0.75" stroke-linecap="round" stroke-linejoin="round"/>
<path d="M104.983 98.932C108.956 98.932 112.177 96.1217 112.177 92.6549C112.177 89.1882 108.956 86.3778 104.983 86.3778C101.011 86.3778 97.79 89.1882 97.79 92.6549C97.79 96.1217 101.011 98.932 104.983 98.932Z" fill="#FF725E" stroke="#263238" stroke-width="0.75" stroke-linecap="round" stroke-linejoin="round"/>
<path d="M83.4032 98.932C87.376 98.932 90.5965 96.1217 90.5965 92.6549C90.5965 89.1882 87.376 86.3778 83.4032 86.3778C79.4305 86.3778 76.21 89.1882 76.21 92.6549C76.21 96.1217 79.4305 98.932 83.4032 98.932Z" fill="#FF725E" stroke="#263238" stroke-linecap="round" stroke-linejoin="round"/>
<path d="M126.563 98.932C130.536 98.932 133.757 96.1217 133.757 92.6549C133.757 89.1882 130.536 86.3778 126.563 86.3778C122.591 86.3778 119.37 89.1882 119.37 92.6549C119.37 96.1217 122.591 98.932 126.563 98.932Z" fill="#FF725E" stroke="#263238" stroke-linecap="round" stroke-linejoin="round"/>
<path d="M123.919 64.5807H111.853V50.0845H120.642L123.919 52.9406V64.5807Z" fill="white" stroke="#263238" stroke-linecap="round" stroke-linejoin="round"/>
<path d="M120.642 50.0845V50.4769V53.3368H123.919V52.9406L120.642 50.0845Z" fill="#263238" stroke="#263238" stroke-width="0.75" stroke-linecap="round" stroke-linejoin="round"/>
<path d="M120.642 52.9445H123.919L120.642 50.0845V52.9445Z" fill="white" stroke="#263238" stroke-linecap="round" stroke-linejoin="round"/>
<path d="M117.401 53.737H119.352L120.844 61.7324H119.401L119.14 60.1436V60.1671H117.504L117.243 61.7364H115.895L117.401 53.737ZM118.983 59.0725L118.345 55.1219H118.318L117.688 59.0725H118.983Z" fill="#FF725E" stroke="#FF725E" stroke-width="0.5" stroke-linecap="round" stroke-linejoin="round"/>
<path d="M116.501 53.3447H118.452L119.945 61.3401H118.502L118.241 59.7512V59.7748H116.605L116.344 61.344H114.995L116.501 53.3447ZM118.084 58.6802L117.445 54.7296H117.418L116.789 58.6802H118.084Z" fill="white" stroke="#263238" stroke-width="0.75" stroke-linecap="round" stroke-linejoin="round"/>
<path d="M159.863 90.6581L167.956 117.336C167.956 117.336 168.068 120.278 169.642 122.534L171.849 145.006C171.849 145.006 173.535 147.262 179.604 145.006C179.604 145.006 179.87 128.921 177.622 118.905L175.711 99.8462C176.142 96.852 176.028 93.8174 175.374 90.8542L159.863 90.6581Z" fill="#263238"/>
<path opacity="0.5" d="M173.122 93.2278C172.02 93.5652 170.811 93.7692 169.736 94.0124C169.67 94.0292 169.602 94.0423 169.534 94.0516C168.608 96.0132 167.682 97.9748 166.643 99.9129C165.42 102.188 163.856 105.052 163.802 107.759C164.214 107.801 164.599 107.959 164.899 108.209C165.199 108.459 165.398 108.787 165.465 109.144C165.577 109.778 165.727 110.407 165.915 111.027C166.185 111.753 166.513 112.432 166.72 113.185C166.773 113.381 166.827 113.577 166.877 113.77C166.76 109.517 166.463 105.378 169.732 101.655C172.11 98.9713 172.888 95.6091 173.122 93.2278Z" fill="black"/>
<path d="M159.863 90.6581L167.956 117.336C167.956 117.336 168.068 120.278 169.642 122.534L171.849 145.006C171.849 145.006 173.535 147.262 179.604 145.006C179.604 145.006 179.87 128.921 177.622 118.905L175.711 99.8462C176.142 96.852 176.028 93.8174 175.374 90.8542L159.863 90.6581Z" stroke="#263238" stroke-width="0.75" stroke-linecap="round" stroke-linejoin="round"/>
<path d="M172.317 144.994C172.317 144.994 168.419 146.563 167.02 146.563C166.063 146.563 164.274 145.72 163.424 147.678C163.424 147.678 162.408 149.408 168.567 150.031C172.483 150.369 176.425 150.394 180.346 150.106C180.466 150.098 180.582 150.068 180.688 150.018C180.794 149.968 180.886 149.899 180.959 149.816C181.032 149.732 181.084 149.636 181.111 149.534C181.139 149.432 181.142 149.326 181.119 149.223L181.043 148.874C181.043 148.874 180.89 146.301 179.056 145.01L172.317 144.994Z" fill="#FF725E" stroke="#263238" stroke-linecap="round" stroke-linejoin="round"/>
<path d="M167.448 149.039C163.442 148.356 163.546 147.395 163.546 147.395C163.496 147.481 163.451 147.568 163.406 147.666C163.406 147.666 162.39 149.396 168.549 150.02C172.465 150.357 176.408 150.382 180.328 150.094C180.448 150.086 180.565 150.056 180.67 150.006C180.776 149.956 180.868 149.887 180.941 149.804C181.014 149.72 181.066 149.625 181.094 149.523C181.122 149.421 181.124 149.315 181.102 149.212L181.07 149.082L177.415 149.368C177.415 149.368 171.449 149.718 167.448 149.039Z" fill="white" stroke="#263238" stroke-width="0.75" stroke-linecap="round" stroke-linejoin="round"/>
<path d="M172.231 118.077C172.791 118.601 173.485 119.002 174.256 119.246C175.028 119.491 175.854 119.573 176.669 119.486" stroke="#7F7F7F" stroke-width="0.75" stroke-linecap="round" stroke-linejoin="round"/>
<path d="M152.112 89.5674C152.112 89.5674 150.089 94.1772 153.798 113.891C153.798 113.891 153.124 115.755 154.473 119.482L156.271 132.134V144.688C156.271 144.688 157.507 147.336 164.813 144.688C164.813 144.688 165.038 122.424 164.251 117.716L165.973 103.35C166.057 102.681 166.3 102.035 166.688 101.453C167.075 100.872 167.597 100.367 168.221 99.9717C169.826 98.9399 171.885 96.7782 172.222 92.396L152.112 89.5674Z" fill="#263238" stroke="#263238" stroke-width="0.75" stroke-linecap="round" stroke-linejoin="round"/>
<path d="M156.775 144.445C156.775 144.445 152.472 146.171 150.93 146.159C149.874 146.159 147.896 145.229 146.942 147.387C146.942 147.387 145.819 149.298 152.616 149.984C156.94 150.357 161.293 150.386 165.622 150.071C165.755 150.061 165.883 150.028 165.999 149.972C166.115 149.916 166.216 149.84 166.296 149.748C166.376 149.655 166.432 149.549 166.462 149.437C166.492 149.324 166.493 149.207 166.468 149.094L166.387 148.702C166.387 148.702 166.216 145.857 164.193 144.437L156.775 144.445Z" fill="#FF725E" stroke="#263238" stroke-linecap="round" stroke-linejoin="round"/>
<path d="M151.398 148.905C146.978 148.156 147.095 147.097 147.095 147.097C147.037 147.193 146.986 147.293 146.942 147.395C146.942 147.395 145.819 149.306 152.616 149.992C156.94 150.365 161.293 150.393 165.622 150.079C165.755 150.069 165.883 150.035 165.999 149.98C166.115 149.924 166.216 149.848 166.296 149.755C166.376 149.663 166.432 149.557 166.462 149.445C166.492 149.332 166.493 149.215 166.468 149.102L166.436 148.96L162.39 149.274C162.39 149.274 155.822 149.659 151.398 148.905Z" fill="white" stroke="#263238" stroke-width="0.75" stroke-linecap="round" stroke-linejoin="round"/>
<path d="M157.732 116.735C157.732 116.735 159.495 118.579 163.015 118.328" stroke="#7F7F7F" stroke-width="0.75" stroke-linecap="round" stroke-linejoin="round"/>
<path d="M160.973 39.9392C160.973 39.9392 157.336 41.3633 157.058 39.9392C157.939 39.6415 158.704 39.1313 159.265 38.468C160.164 37.3891 164.66 37.6834 164.66 37.6834C164.66 37.6834 172.586 37.036 171.575 40.5747C171.575 40.5747 174.722 43.168 172.024 46.946C169.327 50.724 167.771 51.9873 167.771 51.9873L165.074 51.595L161.324 41.6418L160.973 39.9392Z" fill="#263238" stroke="#263238" stroke-width="0.75" stroke-linecap="round" stroke-linejoin="round"/>
<path d="M161.526 54.5726V53.0857C161.526 53.0857 158.609 53.4781 158.209 52.8229C157.808 52.1677 158.46 49.445 158.46 49.445C158.46 49.445 157.058 49.4882 157.058 48.9193C157.058 48.3505 158.712 45.9416 158.712 45.9416C158.712 45.9416 158.514 44.0114 158.712 43.3994C158.91 42.7874 160.96 39.3232 160.96 39.3232C160.96 39.3232 163.972 40.767 163.873 41.5555C163.774 42.3441 162.92 43.0895 163.621 43.7486C164.323 44.4077 165.28 46.1809 164.97 47.0244L165.42 47.299C165.42 47.299 165.672 45.7298 166.679 45.4591C167.686 45.1884 168.477 46.946 167.78 48.1739C167.083 49.4019 166.274 49.1822 166.274 49.1822C166.274 49.1822 166.679 51.2889 167.731 51.9872L168.05 54.1803L161.526 54.5726Z" fill="white"/>
<path d="M158.209 52.8229C158.209 52.8229 159.697 53.1485 162.956 51.9873C166.216 50.826 166.297 49.1822 166.297 49.1822L166.441 49.4058C166.441 49.4058 166.162 51.9873 161.527 53.0858C157.786 53.9685 157.786 53.329 157.786 53.329L158.209 52.8229Z" fill="#263238" stroke="#263238" stroke-width="0.5" stroke-linecap="round" stroke-linejoin="round"/>
<path d="M161.526 54.5726V53.0857C161.526 53.0857 158.609 53.4781 158.209 52.8229C157.808 52.1677 158.46 49.445 158.46 49.445C158.46 49.445 157.058 49.4882 157.058 48.9193C157.058 48.3505 158.712 45.9416 158.712 45.9416C158.712 45.9416 158.514 44.0114 158.712 43.3994C158.91 42.7874 160.96 39.3232 160.96 39.3232C160.96 39.3232 163.972 40.767 163.873 41.5555C163.774 42.3441 162.92 43.0895 163.621 43.7486C164.323 44.4077 165.28 46.1809 164.97 47.0244L165.42 47.299C165.42 47.299 165.672 45.7298 166.679 45.4591C167.686 45.1884 168.477 46.946 167.78 48.1739C167.083 49.4019 166.274 49.1822 166.274 49.1822C166.274 49.1822 166.679 51.2889 167.731 51.9872L168.05 54.1803L161.526 54.5726Z" stroke="#263238" stroke-linecap="round" stroke-linejoin="round"/>
<path d="M161.378 49.445C161.378 49.445 160.87 50.8613 159.252 50.1002" stroke="#263238" stroke-width="0.75" stroke-linecap="round" stroke-linejoin="round"/>
<path d="M159.594 43.9683C159.893 43.9358 160.196 43.9968 160.448 44.1404C160.701 44.284 160.887 44.501 160.974 44.7529" stroke="#263238" stroke-width="0.75" stroke-linecap="round" stroke-linejoin="round"/>
<path d="M159.266 45.4591C159.266 45.7494 159.414 45.9848 159.594 45.9848C159.774 45.9848 159.918 45.7494 159.918 45.4591C159.918 45.1688 159.774 44.9334 159.594 44.9334C159.414 44.9334 159.266 45.1688 159.266 45.4591Z" fill="#2E353A"/>
<path d="M178.242 63.1252C178.242 63.1252 186.73 78.3746 184.932 80.7363C183.134 83.0981 175.379 90.8424 175.379 90.8424L172.231 87.7039L178.526 78.3824L175.266 72.5997C175.266 72.5997 173.805 68.0645 178.242 63.1252Z" fill="#FF725E"/>
<path opacity="0.2" d="M178.624 73.4824C179.109 71.1285 178.732 66.813 178.624 65.8557C178.15 68.7643 177.482 71.6462 176.623 74.4867C176.586 74.6217 176.533 74.7531 176.466 74.879C177.275 75.9854 178.233 77.0328 178.093 78.4334C177.954 79.834 176.39 81.6583 175.477 82.8352C175.373 82.9692 175.252 83.0929 175.117 83.204C175.189 83.3202 175.248 83.4425 175.293 83.5689C175.67 84.687 175.612 85.8365 175.621 86.986C176.718 81.1561 180.71 79.3358 181.056 78.0176C181.474 76.4169 178.075 76.1305 178.624 73.4824Z" fill="black"/>
<path d="M178.242 63.1252C178.242 63.1252 186.73 78.3746 184.932 80.7363C183.134 83.0981 175.379 90.8424 175.379 90.8424L172.231 87.7039L178.526 78.3824L175.266 72.5997C175.266 72.5997 173.805 68.0645 178.242 63.1252Z" stroke="#263238" stroke-linecap="round" stroke-linejoin="round"/>
<path d="M179.617 78.1667C180.571 77.9387 181.577 77.9387 182.53 78.1667" stroke="#263238" stroke-width="0.75" stroke-linecap="round" stroke-linejoin="round"/>
<path d="M159.53 56.8089L161.553 53.9214C161.553 53.9214 167.173 51.9166 169.983 53.9214L171.557 57.7897L159.53 56.8089Z" fill="#FF725E" stroke="#263238" stroke-linecap="round" stroke-linejoin="round"/>
<path d="M151.438 90.4854L153.115 78.453L152.437 60.4064C152.402 59.6165 152.672 58.8392 153.203 58.199C153.734 57.5588 154.497 57.0928 155.368 56.8755C161.077 55.4318 173.302 53.6585 178.242 63.1291C178.659 63.9197 178.792 64.8017 178.625 65.6595L175.266 82.5096L176.165 91.7016C176.165 91.7016 165.223 98.7241 151.438 90.4854Z" fill="#FF725E"/>
<path opacity="0.2" d="M165.541 89.5674C165.263 86.0365 172.568 84.6634 172.231 83.2079C171.894 81.7524 166.724 82.5057 166.724 81.0698C166.724 79.6339 153.043 76.5346 156.172 69.8534C157.049 68.0896 157.521 66.193 157.561 64.2707C156.093 65.9185 154.436 67.4315 152.616 68.7863C152.73 69.0733 152.768 69.3791 152.728 69.6808C152.728 69.724 152.769 69.7671 152.782 69.8103C153.048 70.8137 153.072 71.8543 152.854 72.8664C152.872 73.0698 152.859 73.2743 152.814 73.4745C152.986 74.6293 153.053 75.7943 153.012 76.9583C153.012 77.0525 153.039 77.1466 153.061 77.2408C153.122 77.5391 153.11 77.8453 153.025 78.1392C153.199 78.5327 153.211 78.9664 153.061 79.3671C152.98 79.5908 152.895 79.8144 152.809 80.038C152.841 80.1472 152.859 80.259 152.863 80.3715C152.944 82.1487 152.508 83.9023 152.162 85.6324C151.838 87.2449 151.775 88.8965 151.434 90.505C151.67 90.6019 151.885 90.7348 152.068 90.8974C153.245 91.9331 155.39 92.6079 156.936 93.1257C158.74 93.7095 160.606 94.1353 162.507 94.3968C166.373 94.9902 170.356 94.4086 173.791 92.7491C172.402 92.7844 165.793 92.7334 165.541 89.5674Z" fill="black"/>
<path d="M151.438 90.4854L153.115 78.453L152.437 60.4064C152.402 59.6165 152.672 58.8392 153.203 58.199C153.734 57.5588 154.497 57.0928 155.368 56.8755C161.077 55.4318 173.302 53.6585 178.242 63.1291C178.659 63.9197 178.792 64.8017 178.625 65.6595L175.266 82.5096L176.165 91.7016C176.165 91.7016 165.223 98.7241 151.438 90.4854Z" stroke="#263238" stroke-linecap="round" stroke-linejoin="round"/>
<path d="M174.03 82.898C174.03 82.898 157.171 86.0365 156.271 82.898C155.372 79.7595 160.992 81.721 165.542 81.2307" stroke="#263238" stroke-width="0.75" stroke-linecap="round" stroke-linejoin="round"/>
<path d="M132.29 64.3296L126.895 62.623C126.895 62.623 125.479 59.3981 124.463 58.7312C123.447 58.0643 122.215 56.7696 121.882 57.2639C121.644 57.6131 122.264 58.5429 123.128 59.1902C124.063 59.8925 123.658 60.783 123.465 61.1518C123.272 61.5206 121.77 62.1248 120.556 62.4975C119.342 62.8702 116.51 61.9482 115.786 62.5877C115.062 63.2272 116.923 63.4429 116.923 63.4429C116.923 63.4429 115.539 63.5293 115.413 64.2276C115.341 64.6474 116.721 64.3845 117.409 64.3217C118.097 64.259 119.509 64.1805 119.509 64.1805C119.509 64.1805 117.117 64.9063 117.292 65.4869C117.467 66.0676 119.14 65.1848 120.529 64.9769C120.529 64.9769 118.663 65.7851 118.911 66.3265C119.158 66.8679 120.053 66.0872 121.653 65.5418L125.007 64.871L130.46 67.4681L132.29 64.3296Z" fill="white" stroke="#263238" stroke-linecap="round" stroke-linejoin="round"/>
<path d="M117.437 63.4351C118.197 63.5862 118.977 63.6469 119.756 63.6156" stroke="#263238" stroke-width="0.75" stroke-linecap="round" stroke-linejoin="round"/>
<path d="M154.791 57.2679C154.615 57.2073 154.421 57.1944 154.236 57.2308C154.051 57.2671 153.883 57.3511 153.753 57.4719L144.109 66.4324L128.298 62.623L126.549 66.4677C126.549 66.4677 138.544 72.325 144.64 72.0033C149.266 71.7562 154.922 67.4132 157.381 65.3339C157.788 64.9871 158.091 64.5588 158.265 64.0864C158.439 63.614 158.478 63.1116 158.379 62.623" fill="#FF725E"/>
<path d="M154.791 57.2679C154.615 57.2073 154.421 57.1944 154.236 57.2308C154.051 57.2671 153.883 57.3511 153.753 57.4719L144.109 66.4324L128.298 62.623L126.549 66.4677C126.549 66.4677 138.544 72.325 144.64 72.0033C149.266 71.7562 154.922 67.4132 157.381 65.3339C157.788 64.9871 158.091 64.5588 158.265 64.0864C158.439 63.614 158.478 63.1116 158.379 62.623" stroke="#263238" stroke-linecap="round" stroke-linejoin="round"/>
<path d="M129.894 66.0597C129.91 66.1508 129.894 66.2437 129.849 66.327C129.804 66.4102 129.732 66.4801 129.642 66.5276C129.552 66.5752 129.447 66.5985 129.342 66.5945C129.236 66.5905 129.135 66.5594 129.05 66.5052C128.964 66.4509 128.9 66.3759 128.863 66.2896C128.827 66.2032 128.82 66.1094 128.845 66.0199C128.869 65.9304 128.923 65.8492 129 65.7864C129.078 65.7237 129.174 65.6823 129.278 65.6674C129.348 65.6568 129.42 65.6586 129.49 65.6728C129.559 65.6869 129.624 65.713 129.682 65.7496C129.739 65.7862 129.788 65.8326 129.824 65.8858C129.861 65.9391 129.884 65.9982 129.894 66.0597Z" fill="white" stroke="#263238" stroke-width="0.75" stroke-linecap="round" stroke-linejoin="round"/>
<path d="M143.952 69.0884C144.465 67.9311 143.763 66.9777 144.483 66.8679C145.202 66.758 145.256 68.7432 146.447 68.7157" stroke="#263238" stroke-width="0.75" stroke-linecap="round" stroke-linejoin="round"/>
<path d="M88.4111 147.725L77.0638 146.61V124.209L82.8858 121.157V120.039H67.2809V121.149L73.1254 124.193V146.61L61.778 147.725C61.2686 147.775 60.7981 147.987 60.4564 148.321C60.1148 148.654 59.9259 149.086 59.9258 149.533V150.451H90.2949V149.533C90.294 149.082 90.1007 148.646 89.7526 148.312C89.4044 147.978 88.9263 147.768 88.4111 147.725Z" fill="white" stroke="#263238" stroke-width="0.75" stroke-linecap="round" stroke-linejoin="round"/>
<path d="M63.8912 106.912H60.7891V119.207H63.8912V106.912Z" fill="white" stroke="#263238" stroke-width="0.75" stroke-linecap="round" stroke-linejoin="round"/>
<path d="M91.5726 116.661H58.6049C57.5298 116.661 56.6582 117.421 56.6582 118.36V120.054C56.6582 120.993 57.5298 121.753 58.6049 121.753H91.5726C92.6477 121.753 93.5192 120.993 93.5192 120.054V118.36C93.5192 117.421 92.6477 116.661 91.5726 116.661Z" fill="#263238" stroke="#263238" stroke-linecap="round" stroke-linejoin="round"/>
<path d="M68.8414 94.3459H55.844C53.7782 94.3459 52.1035 95.8073 52.1035 97.61V104.77C52.1035 106.572 53.7782 108.034 55.844 108.034H68.8414C70.9072 108.034 72.5819 106.572 72.5819 104.77V97.61C72.5819 95.8073 70.9072 94.3459 68.8414 94.3459Z" fill="#263238"/>
<path opacity="0.5" d="M72.2584 94.3459H59.261C57.1952 94.3459 55.5205 95.8073 55.5205 97.61V104.77C55.5205 106.572 57.1952 108.034 59.261 108.034H72.2584C74.3242 108.034 75.9989 106.572 75.9989 104.77V97.61C75.9989 95.8073 74.3242 94.3459 72.2584 94.3459Z" fill="black"/>
<path d="M68.8414 94.3459H55.844C53.7782 94.3459 52.1035 95.8073 52.1035 97.61V104.77C52.1035 106.572 53.7782 108.034 55.844 108.034H68.8414C70.9072 108.034 72.5819 106.572 72.5819 104.77V97.61C72.5819 95.8073 70.9072 94.3459 68.8414 94.3459Z" stroke="#263238" stroke-linecap="round" stroke-linejoin="round"/>
<path d="M86.9688 115.892C87.9387 115.216 89.0153 114.665 90.1653 114.256" stroke="#263238" stroke-width="0.75" stroke-linecap="round" stroke-linejoin="round"/>
<path d="M88.897 113.326C88.897 113.326 85.6375 115.657 86.2984 116.006" stroke="#263238" stroke-width="0.75" stroke-linecap="round" stroke-linejoin="round"/>
<path d="M99.2012 135.112L100.213 141.33C100.213 141.33 98.32 142.679 98.2256 146.352L101.561 147.387L102.461 146.352L105.437 149.059C105.437 149.059 110.71 151.13 111.43 149.745C112.149 148.36 109.24 147.336 106.781 144.292C106.143 143.507 104.007 141.263 104.007 141.263L104.218 134.774L99.2012 135.112Z" fill="#263238" stroke="#263238" stroke-width="0.75" stroke-linecap="round" stroke-linejoin="round"/>
<path d="M73.7372 108.72C73.7372 108.72 101.652 107.088 102.924 110.529C104.196 113.97 104.794 124.982 104.857 129.36C104.92 133.739 104.524 139.266 104.524 139.266C102.848 139.71 101.058 139.71 99.3812 139.266C99.3812 139.266 98.1539 132.915 97.2682 129.827C96.3825 126.74 95.4429 122.62 95.9779 116.096C95.9779 116.096 69.2279 119.627 69.0795 115.531C68.9312 111.435 73.7372 108.72 73.7372 108.72Z" fill="white"/>
<path opacity="0.5" d="M73.7372 108.72C73.7372 108.72 101.652 107.088 102.924 110.529C104.196 113.97 104.794 124.982 104.857 129.36C104.92 133.739 104.524 139.266 104.524 139.266C102.848 139.71 101.058 139.71 99.3812 139.266C99.3812 139.266 98.1539 132.915 97.2682 129.827C96.3825 126.74 95.4429 122.62 95.9779 116.096C95.9779 116.096 69.2279 119.627 69.0795 115.531C68.9312 111.435 73.7372 108.72 73.7372 108.72Z" fill="black"/>
<path opacity="0.2" d="M93.4014 109.874L93.8869 110.062L94.0802 110.129L94.1971 110.176C94.4048 110.252 94.6022 110.348 94.7861 110.462C96.7867 111.314 97.7308 112.867 97.034 114.848C97.0305 114.959 97.0185 115.069 96.998 115.178C96.6865 116.571 96.2351 117.938 95.6493 119.262C95.8288 119.532 95.9029 119.846 95.8606 120.156C95.7886 120.655 95.7302 121.149 95.6852 121.647C95.894 122.076 95.9595 122.548 95.8741 123.009C95.8231 123.307 95.7991 123.609 95.8021 123.911C95.9685 125.002 96.1303 126.092 96.3641 127.171L96.6338 128.073C96.6338 127.862 96.6338 127.634 96.6069 127.379C96.0854 118.43 97.6679 122.067 98.3647 115.892C98.9177 111.247 95.2536 110.137 93.4014 109.874Z" fill="black"/>
<path d="M73.7372 108.72C73.7372 108.72 101.652 107.088 102.924 110.529C104.196 113.97 104.794 124.982 104.857 129.36C104.92 133.739 104.524 139.266 104.524 139.266C102.848 139.71 101.058 139.71 99.3812 139.266C99.3812 139.266 98.1539 132.915 97.2682 129.827C96.3825 126.74 95.4429 122.62 95.9779 116.096C95.9779 116.096 69.2279 119.627 69.0795 115.531C68.9312 111.435 73.7372 108.72 73.7372 108.72Z" stroke="#263238" stroke-linecap="round" stroke-linejoin="round"/>
<path d="M98.9769 113.879C98.9769 113.879 98.6891 115.009 96.8818 116.104" stroke="#263238" stroke-width="0.75" stroke-linecap="round" stroke-linejoin="round"/>
<path d="M105.172 137.866L104.979 139.513C104.979 139.513 101.787 141.008 98.977 139.627L98.3926 138.007C98.3926 138.007 100.294 139.145 105.172 137.866Z" fill="#FF725E"/>
<path opacity="0.3" d="M105.172 137.866L104.979 139.513C104.979 139.513 101.787 141.008 98.977 139.627L98.3926 138.007C98.3926 138.007 100.294 139.145 105.172 137.866Z" fill="#FF725E" stroke="#263238" stroke-width="0.75" stroke-miterlimit="10"/>
<path d="M105.172 137.866L104.979 139.513C104.979 139.513 101.787 141.008 98.977 139.627L98.3926 138.007C98.3926 138.007 100.294 139.145 105.172 137.866Z" stroke="#263238" stroke-width="0.75" stroke-linecap="round" stroke-linejoin="round"/>
<path d="M103.832 141.82C105.108 142.934 106.236 144.17 107.195 145.504" stroke="#7F7F7F" stroke-linecap="round" stroke-linejoin="round"/>
<path d="M78.9122 130.769L75.7967 136.43C75.7967 136.43 73.3644 136.634 70.9502 139.643L73.0677 142.118L74.4749 141.695L75.2302 145.39C75.2302 145.39 78.2963 149.667 79.7754 148.862C81.2546 148.058 79.4922 145.798 79.3843 142.075C79.3528 141.106 79.0022 138.211 79.0022 138.211L83.3091 132.919L78.9122 130.769Z" fill="#263238" stroke="#263238" stroke-width="0.75" stroke-linecap="round" stroke-linejoin="round"/>
<path d="M64.1345 109.638C64.1345 109.638 60.1737 116.543 65.236 117.155C70.2982 117.767 85.7728 116.983 85.7728 116.983C83.8339 119.696 82.1153 122.525 80.6296 125.449C78.6245 129.584 76.6238 133.841 76.6238 133.841C76.6238 133.841 77.4915 135.881 81.0297 136.289C81.0297 136.289 83.9025 132.365 90.1787 126.265C96.4548 120.164 98.1947 114.025 96.8594 111.926C95.5242 109.827 88.5782 108.693 77.3566 108.242L64.1345 109.638Z" fill="white"/>
<path opacity="0.5" d="M64.1345 109.638C64.1345 109.638 60.1737 116.543 65.236 117.155C70.2982 117.767 85.7728 116.983 85.7728 116.983C83.8339 119.696 82.1153 122.525 80.6296 125.449C78.6245 129.584 76.6238 133.841 76.6238 133.841C76.6238 133.841 77.4915 135.881 81.0297 136.289C81.0297 136.289 83.9025 132.365 90.1787 126.265C96.4548 120.164 98.1947 114.025 96.8594 111.926C95.5242 109.827 88.5782 108.693 77.3566 108.242L64.1345 109.638Z" fill="black"/>
<path d="M64.1345 109.638C64.1345 109.638 60.1737 116.543 65.236 117.155C70.2982 117.767 85.7728 116.983 85.7728 116.983C83.8339 119.696 82.1153 122.525 80.6296 125.449C78.6245 129.584 76.6238 133.841 76.6238 133.841C76.6238 133.841 77.4915 135.881 81.0297 136.289C81.0297 136.289 83.9025 132.365 90.1787 126.265C96.4548 120.164 98.1947 114.025 96.8594 111.926C95.5242 109.827 88.5782 108.693 77.3566 108.242L64.1345 109.638Z" stroke="#263238" stroke-linecap="round" stroke-linejoin="round"/>
<path d="M82.2166 135.704L81.0162 136.987C81.0162 136.987 77.4195 136.697 75.9404 134.19L76.4754 132.558C76.4754 132.558 77.3431 134.421 82.2166 135.704Z" fill="#FF725E"/>
<path opacity="0.3" d="M82.2166 135.704L81.0162 136.987C81.0162 136.987 77.4195 136.697 75.9404 134.19L76.4754 132.558C76.4754 132.558 77.3431 134.421 82.2166 135.704Z" fill="#FF725E" stroke="#263238" stroke-width="0.75" stroke-miterlimit="10"/>
<path d="M82.2166 135.704L81.0162 136.987C81.0162 136.987 77.4195 136.697 75.9404 134.19L76.4754 132.558C76.4754 132.558 77.3431 134.421 82.2166 135.704Z" stroke="#263238" stroke-width="0.75" stroke-linecap="round" stroke-linejoin="round"/>
<path d="M78.3857 138.745C78.5656 139.6 78.9028 141.342 79.0781 143.221" stroke="#7F7F7F" stroke-linecap="round" stroke-linejoin="round"/>
<path d="M76.943 68.3391C76.943 68.3391 80.3823 66.8483 76.7587 64.8593C73.1351 62.8702 66.8005 68.3391 66.8005 68.3391L66.1846 70.8931C66.1846 70.8931 66.4498 72.9292 67.2905 74.1101C67.9649 75.0635 69.1653 75.0674 69.7318 76.0129C70.5994 77.4487 70.3117 78.4688 71.2064 77.8411C73.4183 76.2718 74.1331 70.0692 74.1331 70.0692L76.943 68.3391Z" fill="#263238" stroke="#263238" stroke-linecap="round" stroke-linejoin="round"/>
<path d="M75.6167 80.5912L76.2146 77.5311L71.6918 74.1297L70.415 79.2534L75.6167 80.5912Z" fill="white"/>
<path d="M71.251 74.4867C71.251 74.4867 71.6196 76.2521 72.7211 77.3624C73.8226 78.4727 76.6954 79.7909 76.6954 79.7909L76.9427 77.688L72.4469 74.6986L71.6916 74.1376L71.251 74.4867Z" fill="#263238" stroke="#263238" stroke-width="0.5" stroke-linecap="round" stroke-linejoin="round"/>
<path d="M75.6167 80.5912L76.2146 77.5311L71.6918 74.1297L70.415 79.2534L75.6167 80.5912Z" stroke="#263238" stroke-linecap="round" stroke-linejoin="round"/>
<path d="M77.0555 67.2602C77.0555 67.2602 79.1101 70.3988 79.0651 71.305C79.0651 71.305 81.7626 77.484 79.0651 78.5001C76.9701 79.2848 74.34 77.7547 73.3105 77.0564C73.0285 76.8622 72.7919 76.6224 72.6136 76.3502L71.737 75.0046C71.737 75.0046 70.658 75.2753 69.6734 74.0512C68.6888 72.8272 69.7004 71.666 70.7839 72.3878C70.7839 72.3878 71.6021 70.9088 71.3458 70.0928C71.0896 69.2767 72.3169 69.265 72.3709 68.3979C72.3844 68.3979 75.3021 68.3077 77.0555 67.2602Z" fill="white"/>
<path d="M77.0555 67.2602C77.0555 67.2602 79.1101 70.3988 79.0651 71.305C79.0651 71.305 81.7626 77.484 79.0651 78.5001C76.9701 79.2848 74.34 77.7547 73.3105 77.0564C73.0285 76.8622 72.7919 76.6224 72.6136 76.3502L71.737 75.0046C71.737 75.0046 70.658 75.2753 69.6734 74.0512C68.6888 72.8272 69.7004 71.666 70.7839 72.3878C70.7839 72.3878 71.6021 70.9088 71.3458 70.0928C71.0896 69.2767 72.3169 69.265 72.3709 68.3979C72.3844 68.3979 75.3021 68.3077 77.0555 67.2602Z" stroke="#263238" stroke-linecap="round" stroke-linejoin="round"/>
<path d="M76.6777 75.7304C76.6777 75.7304 77.3431 76.515 78.6963 75.4675" stroke="#263238" stroke-width="0.75" stroke-linecap="round" stroke-linejoin="round"/>
<path d="M77.7972 72.0701C78.0445 72.9175 77.7568 73.71 77.1543 73.8433C76.5519 73.9767 75.864 73.4039 75.6168 72.5605C75.3695 71.717 75.7651 71.3835 76.3676 71.254C76.97 71.1246 77.55 71.2266 77.7972 72.0701Z" stroke="#263238" stroke-width="0.75" stroke-linecap="round" stroke-linejoin="round"/>
<path d="M80.5485 71.3913C80.7958 72.2387 80.5979 73.0116 80.0989 73.1215C79.5999 73.2313 79.0064 72.635 78.7502 71.7915C78.4939 70.948 78.8176 70.6381 79.3077 70.5282C79.7977 70.4184 80.3192 70.5282 80.5485 71.3913Z" fill="white" stroke="#263238" stroke-width="0.75" stroke-linecap="round" stroke-linejoin="round"/>
<path d="M75.2969 71.2305C75.3753 71.0893 75.4852 70.9633 75.6202 70.8598C75.7552 70.7562 75.9126 70.6773 76.0831 70.6276C76.2535 70.5779 76.4337 70.5584 76.6129 70.5703C76.7921 70.5822 76.9668 70.6253 77.1267 70.6969" stroke="#263238" stroke-width="0.75" stroke-linecap="round" stroke-linejoin="round"/>
<path d="M78.2734 70.3556C78.3053 70.2258 78.3744 70.1051 78.4743 70.0049C78.5741 69.9048 78.7015 69.8283 78.8444 69.7828" stroke="#263238" stroke-width="0.75" stroke-linecap="round" stroke-linejoin="round"/>
<path d="M75.6164 72.5605L74.4699 72.9645L70.7969 72.3878" stroke="#263238" stroke-width="0.75" stroke-linecap="round" stroke-linejoin="round"/>
<path d="M78.7326 71.6306L77.8154 71.9563" stroke="#263238" stroke-width="0.75" stroke-linecap="round" stroke-linejoin="round"/>
<path d="M77.2893 72.2741C77.3208 72.5408 77.1994 72.7723 77.0061 72.7919C76.8128 72.8115 76.6329 72.6075 76.597 72.3407C76.561 72.074 76.6869 71.8425 76.8757 71.8229C77.0645 71.8033 77.2533 72.0034 77.2893 72.2741Z" fill="#263238"/>
<path d="M79.5322 71.564C79.5682 71.8268 79.4873 72.0465 79.3479 72.0622C79.2085 72.0779 79.0737 71.8739 79.0422 71.615C79.0107 71.356 79.0872 71.1324 79.222 71.1206C79.3569 71.1089 79.4963 71.305 79.5322 71.564Z" fill="#263238"/>
<path d="M78.4941 71.7209L80.3824 73.1685C80.4272 73.2032 80.4622 73.2465 80.4846 73.295C80.507 73.3435 80.5161 73.3959 80.5113 73.448C80.5065 73.5002 80.4879 73.5506 80.457 73.5954C80.426 73.6401 80.3835 73.678 80.3329 73.706L79.3618 74.2356" fill="white"/>
<path d="M78.4941 71.7209L80.3824 73.1685C80.4272 73.2032 80.4622 73.2465 80.4846 73.295C80.507 73.3435 80.5161 73.3959 80.5113 73.448C80.5065 73.5002 80.4879 73.5506 80.457 73.5954C80.426 73.6401 80.3835 73.678 80.3329 73.706L79.3618 74.2356" stroke="#263238" stroke-width="0.75" stroke-linecap="round" stroke-linejoin="round"/>
<path d="M67.7985 68.445C67.7985 68.445 67.4658 63.2272 62.8261 65.3065C58.1865 67.3858 62.6193 73.5059 61.2301 74.8555C59.8409 76.2051 62.4979 75.6009 62.8261 74.624C63.1543 73.6472 62.8846 76.2522 63.5275 76.3463C64.1704 76.4405 64.2738 74.1101 64.8762 74.1101C65.4786 74.1101 64.7188 75.5617 65.1999 75.7225C65.6809 75.8834 66.8004 72.8743 67.1196 71.2109C67.2884 70.2789 67.515 69.3556 67.7985 68.445Z" fill="#263238" stroke="#263238" stroke-linecap="round" stroke-linejoin="round"/>
<path d="M67.7986 67.7349C67.7986 67.7349 66.1756 69.3042 66.8096 73.2274C66.832 73.2196 63.685 69.2454 67.7986 67.7349Z" fill="#FF725E" stroke="#263238" stroke-linecap="round" stroke-linejoin="round"/>
<path d="M71.6426 68.3391C71.6426 68.3391 73.4409 68.7746 73.6882 70.0692C73.9354 71.3639 74.7717 67.0955 71.6426 68.3391Z" fill="#263238" stroke="#263238" stroke-width="0.75" stroke-linecap="round" stroke-linejoin="round"/>
<path d="M77.6221 68.0606C77.6221 68.0606 79.5777 67.5466 80.1622 68.6647C80.1487 68.6647 79.87 65.9695 77.6221 68.0606Z" fill="#263238" stroke="#263238" stroke-width="0.75" stroke-linecap="round" stroke-linejoin="round"/>
<path d="M93.0606 66.9385C93.4562 66.8444 93.8653 67.2916 93.8653 67.2916C94.2879 66.6639 94.9623 67.7075 94.9623 67.7075C95.5287 67.1033 95.8165 68.4254 95.8165 68.4254C95.8165 68.4254 96.4144 68.3038 96.3425 68.9668C96.2481 69.8378 95.0882 71.8307 95.0882 71.8307L94.3329 75.2047L91.505 74.9144L92.4042 71.6777L91.559 70.2575C91.2485 69.6869 91.0945 69.0609 91.1094 68.4293C91.2443 67.6251 92.6649 67.0288 93.0606 66.9385Z" fill="white" stroke="#263238" stroke-linecap="round" stroke-linejoin="round"/>
<path d="M93.0645 67.7467C93.0645 67.7467 93.9097 69.2885 93.8063 67.7467C93.8063 67.7467 94.4222 69.6573 94.8133 68.1037C94.8133 68.1037 94.575 69.8887 95.4068 68.8883C95.4068 68.8883 95.0561 69.4219 95.2134 69.673C95.3708 69.9241 95.8159 69.5121 95.8159 69.5121" fill="white"/>
<path d="M93.0645 67.7467C93.0645 67.7467 93.9097 69.2885 93.8063 67.7467C93.8063 67.7467 94.4222 69.6573 94.8133 68.1037C94.8133 68.1037 94.575 69.8887 95.4068 68.8883C95.4068 68.8883 95.0561 69.4219 95.2134 69.673C95.3708 69.9241 95.8159 69.5121 95.8159 69.5121" stroke="#263238" stroke-width="0.75" stroke-linecap="round" stroke-linejoin="round"/>
<path d="M79.2624 81.6858L88.317 81.8505L91.7158 73.6119L94.7055 74.5299C94.7055 74.5299 93.1724 84.9616 91.6393 85.5815C90.1063 86.2013 80.7685 87.0841 80.7685 87.0841C80.7685 87.0841 77.8642 84.2868 79.2624 81.6858Z" fill="#FF725E"/>
<path opacity="0.2" d="M82.4769 84.0514C82.0758 83.4122 81.529 82.8514 80.8703 82.4034C80.2116 81.9554 79.4548 81.6298 78.6465 81.4465C80.0357 82.2311 80.8629 83.8004 81.4069 85.0832C81.6262 85.6031 81.7932 86.1387 81.9059 86.6839C83.8689 86.6798 85.8266 86.5063 87.7505 86.166C86.3388 86.0993 83.6098 85.7541 82.4769 84.0514Z" fill="black"/>
<path d="M79.2624 81.6858L88.317 81.8505L91.7158 73.6119L94.7055 74.5299C94.7055 74.5299 93.1724 84.9616 91.6393 85.5815C90.1063 86.2013 80.7685 87.0841 80.7685 87.0841C80.7685 87.0841 77.8642 84.2868 79.2624 81.6858Z" stroke="#263238" stroke-linecap="round" stroke-linejoin="round"/>
<path d="M91.1807 74.2474L94.7054 75.2949L94.9436 73.8943L91.6078 72.9684L91.1807 74.2474Z" fill="#FF725E" stroke="#263238" stroke-linecap="round" stroke-linejoin="round"/>
<path d="M96.1263 70.5008C95.8031 70.5658 95.4683 70.5746 95.1411 70.5265C94.814 70.4785 94.5009 70.3746 94.2199 70.2208C93.9388 70.067 93.6953 69.8663 93.5032 69.6303C93.3112 69.3942 93.1744 69.1274 93.1007 68.8452L89.6074 55.526L94.5528 54.5413L98.028 67.8605C98.1019 68.1428 98.1113 68.4351 98.0557 68.7206C98.0001 69.0061 97.8805 69.2792 97.7039 69.5244C97.5273 69.7696 97.2971 69.982 97.0264 70.1495C96.7557 70.3171 96.4499 70.4364 96.1263 70.5008Z" fill="white" stroke="#263238" stroke-width="0.75" stroke-linecap="round" stroke-linejoin="round"/>
<path d="M93.7999 55.3663L90.627 55.9999L91.1445 57.9732L94.3174 57.3396L93.7999 55.3663Z" fill="#FF725E"/>
<path opacity="0.7" d="M93.7999 55.3663L90.627 55.9999L91.1445 57.9733L94.3174 57.3397L93.7999 55.3663Z" fill="white"/>
<path d="M94.4444 57.808L91.2715 58.4417L91.789 60.415L94.9619 59.7814L94.4444 57.808Z" fill="#FF725E"/>
<path opacity="0.3" d="M94.4444 57.8081L91.2715 58.4417L91.789 60.4151L94.9619 59.7815L94.4444 57.8081Z" fill="white"/>
<path d="M95.085 60.2546L91.9121 60.8883L92.4296 62.8616L95.6026 62.228L95.085 60.2546Z" fill="#FF725E"/>
<path d="M95.7237 62.6926L92.5508 63.3262L93.0683 65.2996L96.2412 64.666L95.7237 62.6926Z" fill="#FF725E"/>
<path opacity="0.2" d="M95.7237 62.6926L92.5508 63.3262L93.0683 65.2996L96.2412 64.666L95.7237 62.6926Z" fill="black"/>
<path d="M96.3643 65.1392L93.1914 65.7728L93.7089 67.7461L96.8818 67.1125L96.3643 65.1392Z" fill="#FF725E"/>
<path opacity="0.3" d="M96.3643 65.1392L93.1914 65.7728L93.7089 67.7462L96.8818 67.1125L96.3643 65.1392Z" fill="black"/>
<path d="M91.8555 68.1469C91.8685 68.0585 91.9102 67.9752 91.9757 67.9068C92.0412 67.8385 92.1277 67.7879 92.2251 67.7611C92.3225 67.7342 92.4267 67.7323 92.5253 67.7555C92.6239 67.7787 92.7128 67.826 92.7816 67.8919C93.5099 68.3587 94.5799 68.5117 94.4585 68.8021C94.3371 69.0924 94.0584 69.2689 93.0154 68.9001C93.0154 68.9001 92.8311 68.9982 93.0918 69.2924C93.4423 69.6125 93.6822 70.0122 93.7842 70.4459" fill="white"/>
<path d="M91.8555 68.1469C91.8685 68.0585 91.9102 67.9752 91.9757 67.9068C92.0412 67.8385 92.1277 67.7879 92.2251 67.7611C92.3225 67.7342 92.4267 67.7323 92.5253 67.7555C92.6239 67.7787 92.7128 67.826 92.7816 67.8919C93.5099 68.3587 94.5799 68.5117 94.4585 68.8021C94.3371 69.0924 94.0584 69.2689 93.0154 68.9001C93.0154 68.9001 92.8311 68.9982 93.0918 69.2924C93.4423 69.6125 93.6822 70.0122 93.7842 70.4459" stroke="#263238" stroke-width="0.75" stroke-linecap="round" stroke-linejoin="round"/>
<path d="M62.4081 81.8584L65.2359 103.922L63.4376 110.556C63.4376 110.556 65.3303 110.929 70.5769 109.489C75.8235 108.05 81.4388 108.481 81.4388 108.481C81.4388 108.481 83.7631 93.7927 82.8325 89.2026C82.3038 86.4964 81.0871 83.9279 79.2718 81.6858C79.2718 81.6858 69.1967 77.8411 63.042 80.7795C62.8254 80.884 62.6495 81.0425 62.5366 81.2346C62.4237 81.4268 62.3789 81.644 62.4081 81.8584Z" fill="#FF725E"/>
<path opacity="0.12" d="M67.798 94.6127C68.0093 91.8664 66.6066 87.3508 66.6066 87.3508L65.5591 87.4725C65.3499 90.1302 65.377 92.7981 65.64 95.4522C65.7479 96.5154 66.3908 97.6217 66.3503 98.6771C66.3144 99.6147 65.6984 100.246 65.1769 101.031C65.087 101.164 65.0061 101.298 64.9162 101.423C65.1731 101.772 65.2739 102.191 65.1994 102.6C65.141 103.098 65.0466 103.589 64.9432 104.075C64.9756 104.321 64.9574 104.569 64.8892 104.809C64.5745 105.962 64.2958 107.104 64.053 108.269C63.8158 109.044 63.6312 109.83 63.5 110.623C65.4793 110.572 67.4471 110.34 69.3715 109.933C70.1617 109.766 70.929 109.525 71.6599 109.215C64.3812 110.152 66.8763 106.045 67.0966 104.338C67.3169 102.632 74.3439 100.548 74.6945 98.6849C75.0452 96.8214 67.5822 97.3471 67.798 94.6127Z" fill="black"/>
<path d="M62.4081 81.8584L65.2359 103.922L63.4376 110.556C63.4376 110.556 65.3303 110.929 70.5769 109.489C75.8235 108.05 81.4388 108.481 81.4388 108.481C81.4388 108.481 83.7631 93.7927 82.8325 89.2026C82.3038 86.4964 81.0871 83.9279 79.2718 81.6858C79.2718 81.6858 69.1967 77.8411 63.042 80.7795C62.8254 80.884 62.6495 81.0425 62.5366 81.2346C62.4237 81.4268 62.3789 81.644 62.4081 81.8584V81.8584Z" stroke="#263238" stroke-linecap="round" stroke-linejoin="round"/>
<path d="M68.7832 79.7909L70.1095 77.5311C71.6359 77.981 73.1893 78.3582 74.7626 78.661C77.3117 79.1475 76.6958 79.7909 76.6958 79.7909L76.0439 81.5053C76.0439 81.5053 75.0414 82.3763 68.7832 79.7909Z" fill="#FF725E" stroke="#263238" stroke-linecap="round" stroke-linejoin="round"/>
<path d="M63.8555 96.892C63.8555 96.892 65.2986 95.8994 65.6538 96.3231C66.009 96.7468 65.2492 96.6056 64.6782 98.0493" stroke="#263238" stroke-linecap="round" stroke-linejoin="round"/>
<path d="M76.7945 107.351C76.6943 106.891 76.8069 106.416 77.1077 106.028C77.4085 105.641 77.873 105.373 78.3995 105.284L90.7 103.22L91.4643 106.684L79.1638 108.748C78.6374 108.836 78.0922 108.739 77.648 108.477C77.2038 108.215 76.8968 107.81 76.7945 107.351Z" fill="white" stroke="#263238" stroke-width="0.75" stroke-linecap="round" stroke-linejoin="round"/>
<path d="M90.728 106.149L90.2354 103.914L88.412 104.221L88.9047 106.455L90.728 106.149Z" fill="#FF725E"/>
<path opacity="0.7" d="M90.728 106.149L90.2354 103.914L88.412 104.221L88.9047 106.455L90.728 106.149Z" fill="white"/>
<path d="M88.4702 106.53L87.9775 104.296L86.1542 104.602L86.6468 106.836L88.4702 106.53Z" fill="#FF725E"/>
<path opacity="0.3" d="M88.4702 106.53L87.9775 104.296L86.1542 104.602L86.6468 106.836L88.4702 106.53Z" fill="white"/>
<path d="M86.2125 106.904L85.7207 104.674L83.8974 104.98L84.3892 107.21L86.2125 106.904Z" fill="#FF725E"/>
<path d="M83.9556 107.282L83.4639 105.052L81.6406 105.358L82.1323 107.589L83.9556 107.282Z" fill="#FF725E"/>
<path opacity="0.2" d="M83.9547 107.282L83.4629 105.052L81.6396 105.358L82.1314 107.588L83.9547 107.282Z" fill="black"/>
<path d="M81.6978 107.66L81.2061 105.429L79.3827 105.735L79.8745 107.966L81.6978 107.66Z" fill="#FF725E"/>
<path opacity="0.3" d="M81.6978 107.66L81.2061 105.429L79.3827 105.735L79.8745 107.966L81.6978 107.66Z" fill="black"/>
<path d="M77.2845 107.814C77.1102 107.639 76.9772 107.436 76.8931 107.216C76.809 106.996 76.7753 106.763 76.7941 106.532C76.8129 106.301 76.8838 106.075 77.0026 105.867C77.1215 105.66 77.286 105.475 77.4868 105.323L86.9549 98.167L89.603 100.835L80.1348 107.991C79.9345 108.143 79.7018 108.259 79.45 108.332C79.1983 108.405 78.9324 108.435 78.6677 108.418C78.4029 108.402 78.1445 108.34 77.9071 108.236C77.6698 108.133 77.4582 107.989 77.2845 107.814Z" fill="white" stroke="#263238" stroke-width="0.75" stroke-linecap="round" stroke-linejoin="round"/>
<path d="M88.6561 100.692L86.9521 98.9743L85.5485 100.035L87.2525 101.752L88.6561 100.692Z" fill="#FF725E"/>
<path opacity="0.7" d="M88.6552 100.692L86.9512 98.9743L85.5475 100.035L87.2515 101.752L88.6552 100.692Z" fill="white"/>
<path d="M86.9237 102.005L85.2168 100.285L83.8131 101.346L85.5201 103.066L86.9237 102.005Z" fill="#FF725E"/>
<path opacity="0.3" d="M86.9237 102.005L85.2168 100.285L83.8131 101.346L85.5201 103.066L86.9237 102.005Z" fill="white"/>
<path d="M85.1815 103.318L83.4775 101.601L82.0739 102.662L83.7779 104.379L85.1815 103.318Z" fill="#FF725E"/>
<path d="M83.4462 104.635L81.7422 102.917L80.3385 103.978L82.0425 105.695L83.4462 104.635Z" fill="#FF725E"/>
<path opacity="0.2" d="M83.4462 104.635L81.7422 102.917L80.3385 103.978L82.0425 105.695L83.4462 104.635Z" fill="black"/>
<path d="M81.7108 105.944L80.0039 104.224L78.6003 105.285L80.3072 107.005L81.7108 105.944Z" fill="#FF725E"/>
<path opacity="0.3" d="M81.7099 105.944L80.0029 104.224L78.5993 105.285L80.3062 107.005L81.7099 105.944Z" fill="black"/>
<path d="M77.6671 107.877C77.1614 107.723 76.7463 107.4 76.5128 106.98C76.2794 106.559 76.2466 106.075 76.4217 105.633L80.5219 95.3227L84.3388 96.4761L80.2387 106.806C80.0596 107.245 79.6884 107.604 79.2064 107.805C78.7244 108.006 78.1709 108.032 77.6671 107.877Z" fill="white" stroke="#263238" stroke-width="0.75" stroke-linecap="round" stroke-linejoin="round"/>
<path d="M83.4424 96.7511L80.9785 96.0062L80.3706 97.5372L82.8345 98.2821L83.4424 96.7511Z" fill="#FF725E"/>
<path opacity="0.7" d="M83.4414 96.7511L80.9775 96.0062L80.3697 97.5372L82.8335 98.2821L83.4414 96.7511Z" fill="white"/>
<path d="M82.6832 98.6423L80.2236 97.8986L79.6158 99.4296L82.0754 100.173L82.6832 98.6423Z" fill="#FF725E"/>
<path opacity="0.3" d="M82.6823 98.6423L80.2227 97.8986L79.6148 99.4296L82.0744 100.173L82.6823 98.6423Z" fill="white"/>
<path d="M81.9323 100.536L79.4727 99.7924L78.8648 101.323L81.3244 102.067L81.9323 100.536Z" fill="#FF725E"/>
<path d="M81.1865 102.435L78.7227 101.69L78.1148 103.221L80.5786 103.966L81.1865 102.435Z" fill="#FF725E"/>
<path opacity="0.2" d="M81.1855 102.435L78.7217 101.69L78.1138 103.221L80.5777 103.966L81.1855 102.435Z" fill="black"/>
<path d="M80.4274 104.326L77.9678 103.583L77.3599 105.113L79.8195 105.857L80.4274 104.326Z" fill="#FF725E"/>
<path opacity="0.3" d="M80.4274 104.326L77.9678 103.582L77.3599 105.113L79.8195 105.857L80.4274 104.326Z" fill="black"/>
<path d="M72.9411 101.415L76.349 103.585C76.349 103.585 80.2153 103.585 80.9167 104.507C81.618 105.429 81.8158 106.469 81.1864 106.841C80.557 107.214 81.5146 105.845 79.7658 105.15C79.7658 105.15 80.6649 108.709 79.1049 107.948C79.1049 107.948 78.9026 108.552 78.3136 107.999C78.4157 107.556 78.3395 107.096 78.0978 106.696C78.028 106.548 77.9156 106.418 77.7714 106.319C77.6273 106.22 77.4563 106.156 77.2751 106.131C77.2751 106.131 78.3721 107.438 77.6482 107.795C77.0638 108.081 76.7491 106.202 75.9668 105.99C75.544 105.965 75.1361 105.843 74.7848 105.637C74.4334 105.43 74.1509 105.146 73.9662 104.813L71.3271 103.561L72.9411 101.415Z" fill="white" stroke="#263238" stroke-linecap="round" stroke-linejoin="round"/>
<path d="M79.2399 107.394C79.3268 106.732 79.1139 106.066 78.6465 105.539" stroke="#263238" stroke-width="0.75" stroke-linecap="round" stroke-linejoin="round"/>
<path d="M80.0855 104.538C80.0855 104.538 80.0135 104.809 79.3122 104.75C78.7952 104.707 78.0354 105.617 77.2441 105.48" stroke="#263238" stroke-width="0.75" stroke-linecap="round" stroke-linejoin="round"/>
<path d="M63.1448 81.2503C63.1041 81.2019 63.0493 81.164 62.986 81.1405C62.9228 81.117 62.8535 81.1089 62.7853 81.1169C62.7172 81.125 62.6529 81.1489 62.599 81.1862C62.5452 81.2234 62.5038 81.2727 62.4794 81.3288C61.7376 82.9922 59.7504 88.5513 60.8204 98.4064C60.8204 98.4064 61.6791 100.419 71.7677 104.264L73.6874 101.674L66.2289 96.3898C66.2289 96.3898 67.2045 89.3281 66.4672 86.6917" fill="#FF725E"/>
<path d="M63.1448 81.2503C63.1041 81.2019 63.0493 81.164 62.986 81.1405C62.9228 81.117 62.8535 81.1089 62.7853 81.1169C62.7172 81.125 62.6529 81.1489 62.599 81.1862C62.5452 81.2234 62.5038 81.2727 62.4794 81.3288C61.7376 82.9922 59.7504 88.5513 60.8204 98.4064C60.8204 98.4064 61.6791 100.419 71.7677 104.264L73.6874 101.674L66.2289 96.3898C66.2289 96.3898 67.2045 89.3281 66.4672 86.6917" stroke="#263238" stroke-linecap="round" stroke-linejoin="round"/>
<path d="M73.2431 101.078L70.9277 104.35L72.744 104.919L74.6952 102.059L73.2431 101.078Z" fill="#FF725E" stroke="#263238" stroke-linecap="round" stroke-linejoin="round"/>
<path d="M32.6364 49.4921C32.6768 50.5435 32.8027 53.6978 32.8027 53.6978L39.969 57.4483L40.4186 50.3003L40.6659 40.4923L41.8438 39.0643C41.8438 39.0643 43.6061 36.7104 40.6659 35.7963C37.7256 34.8822 38.5439 36.5809 35.6216 36.8673C32.6993 37.1537 25.8477 41.1828 28.9498 44.6862C32.0519 48.1896 32.5645 47.7345 32.6364 49.4921Z" fill="#999999"/>
<path d="M35.3839 47.6208C35.8037 47.9372 36.3075 48.1571 36.8495 48.2603C36.8495 48.2603 37.96 51.0065 38.5174 51.3753C39.0749 51.744 41.0621 52.0383 41.0621 52.0383L41.6465 48.4172L37.5194 46.0633L35.2715 45.4748L35.3839 47.6208Z" fill="#263238" stroke="#263238" stroke-linecap="round" stroke-linejoin="round"/>
<path d="M32.6364 49.4921C32.6769 50.5435 32.8027 53.6978 32.8027 53.6978L39.969 57.4483L40.4186 50.3003L40.6659 40.4923L41.8438 39.0643C41.8438 39.0643 43.6061 36.7104 40.6659 35.7963C37.7256 34.8822 38.5439 36.5809 35.6216 36.8673C32.6993 37.1537 25.8477 41.1828 28.9498 44.6862C32.0519 48.1896 32.5645 47.7345 32.6364 49.4921Z" stroke="#263238" stroke-linecap="round" stroke-linejoin="round"/>
<path d="M40.6618 40.5002L41.8397 39.0721C41.8397 39.0721 43.602 36.7182 40.6618 35.8041C37.7215 34.89 38.5397 36.5888 35.6175 36.8752C32.6952 37.1615 25.8481 41.1828 28.9502 44.6862C30.9643 46.9773 31.8905 47.5776 32.3086 48.2171C32.6389 48.0317 33.0326 47.9519 33.4228 47.9913C33.8129 48.0306 34.1754 48.1866 34.4486 48.4328C35.6175 49.4489 36.8089 43.7721 36.8089 43.7721L40.6393 41.3986L40.6618 40.5002Z" fill="#263238" stroke="#263238" stroke-linecap="round" stroke-linejoin="round"/>
<path d="M35.4414 44.2782C35.4414 44.2782 32.5551 44.3449 34.0927 46.2398C35.6303 48.1347 37.2397 47.7738 37.2397 47.7738L38.9976 50.6965C38.9976 50.6965 45.1164 51.4498 46.5595 51.0888C48.0027 50.7279 45.5075 46.3261 45.5075 46.3261L46.4651 45.3688C46.5185 45.3164 46.559 45.2551 46.5841 45.1885C46.6093 45.1219 46.6186 45.0516 46.6114 44.9817C46.6042 44.9119 46.5808 44.8441 46.5425 44.7825C46.5042 44.7209 46.4519 44.6668 46.3887 44.6234L44.1048 43.0228C44.2981 42.0381 41.803 39.0761 41.803 39.0761C41.803 39.0761 38.0984 39.0408 37.7568 40.1314C37.5471 40.7768 37.3775 41.4316 37.2487 42.093L35.1447 42.8423L35.4414 44.2782Z" fill="#999999"/>
<path opacity="0.3" d="M36.8488 41.3162L37.2984 42.1008C37.2984 42.1008 39.1506 43.2072 39.2495 43.8035C39.3754 44.5881 38.4178 45.1295 40.3735 46.7969C42.3292 48.4642 44.2039 46.5262 45.5661 46.3222C46.9284 46.1182 48.0613 49.1469 48.0613 49.1469L47.9085 51.8931L40.3735 52.0971L38.7415 51.2144L36.606 48.0758C36.606 48.0758 38.9214 47.8954 37.7659 46.1143C36.1654 43.6544 34.2952 44.0036 34.2952 44.0036L33.0049 43.0032L36.3228 40.92L36.8488 41.3162Z" fill="black"/>
<path d="M35.4414 44.2782C35.4414 44.2782 32.5551 44.3449 34.0927 46.2398C35.6303 48.1347 37.2397 47.7738 37.2397 47.7738L38.9976 50.6965C38.9976 50.6965 45.1164 51.4498 46.5595 51.0888C48.0027 50.7279 45.5075 46.3261 45.5075 46.3261L46.4651 45.3688C46.5185 45.3164 46.559 45.2551 46.5841 45.1885C46.6093 45.1219 46.6186 45.0516 46.6114 44.9817C46.6042 44.9119 46.5808 44.8441 46.5425 44.7825C46.5042 44.7209 46.4519 44.6668 46.3887 44.6234L44.1048 43.0228C44.2981 42.0381 41.803 39.0761 41.803 39.0761C41.803 39.0761 38.0984 39.0408 37.7568 40.1314C37.5471 40.7768 37.3775 41.4316 37.2487 42.093L35.1447 42.8423L35.4414 44.2782Z" stroke="#263238" stroke-linecap="round" stroke-linejoin="round"/>
<path d="M43.5796 43.2817C43.6965 43.5838 43.6785 43.8663 43.5346 43.9094C43.3908 43.9526 43.1795 43.7408 43.0626 43.4347C42.9457 43.1287 42.9682 42.8541 43.1075 42.811C43.2469 42.7678 43.4537 42.9797 43.5796 43.2817Z" fill="#263238"/>
<path d="M43.004 41.8615C43.004 41.8615 41.952 41.6575 41.6553 42.9169" stroke="#263238" stroke-linecap="round" stroke-linejoin="round"/>
<path d="M45.0942 46.9381C45.0942 46.9381 44.73 47.8248 43.3408 47.3775" stroke="#263238" stroke-linecap="round" stroke-linejoin="round"/>
<path d="M70.4691 46.7694C70.9186 46.9381 70.9546 47.6482 70.9546 47.6482C71.9167 47.3069 71.6829 48.7742 71.6829 48.7742C72.7574 48.5506 71.9077 50.0453 71.9077 50.0453C71.9077 50.0453 72.6046 50.3199 71.9617 50.9241C71.1164 51.7087 68.2571 52.9249 68.2571 52.9249L64.6065 55.7653L62.0664 53.6232L65.726 51.0065C65.726 51.0065 65.9013 50.1551 66.1306 49.0449C66.1306 49.0449 66.4678 47.6796 67.277 46.9617C68.0863 46.2437 69.979 46.6007 70.4691 46.7694Z" fill="#999999" stroke="#263238" stroke-linecap="round" stroke-linejoin="round"/>
<path d="M69.7806 47.5698C69.7806 47.5698 69.2816 49.6491 70.5135 48.0484C70.5135 48.0484 69.4794 50.3395 71.2013 49.0645C71.2013 49.0645 69.4255 50.6691 71.1159 50.214C71.1159 50.214 70.3156 50.5122 70.2527 50.8574C70.1898 51.2026 70.9855 51.0928 70.9855 51.0928" fill="#999999"/>
<path d="M69.7806 47.5698C69.7806 47.5698 69.2816 49.6491 70.5135 48.0484C70.5135 48.0484 69.4794 50.3395 71.2013 49.0645C71.2013 49.0645 69.4255 50.6691 71.1159 50.214C71.1159 50.214 70.3156 50.5122 70.2527 50.8574C70.1898 51.2026 70.9855 51.0928 70.9855 51.0928" stroke="#263238" stroke-linecap="round" stroke-linejoin="round"/>
<path d="M32.457 64.3296C32.457 64.3296 38.9624 65.6517 52.8994 63.8588C52.8994 63.8588 63.6039 58.9784 66.3374 54.4863L63.7972 51.9402L50.647 58.3821C50.647 58.3821 36.9528 56.5382 34.4172 56.8128L32.457 64.3296Z" fill="#263238" stroke="#263238" stroke-linecap="round" stroke-linejoin="round"/>
<path d="M88.8846 33.8214L66.916 37.2052L69.7973 51.4497L91.7658 48.066L88.8846 33.8214Z" fill="#999999" stroke="#263238" stroke-width="0.75" stroke-linecap="round" stroke-linejoin="round"/>
<path d="M70.8237 37.5519L68.5215 37.9065L68.8231 39.3978L71.1254 39.0432L70.8237 37.5519Z" fill="#263238" stroke="#263238" stroke-linecap="round" stroke-linejoin="round"/>
<path d="M72.7393 47.7973L76.5427 40.0569L83.1515 46.1927L72.7393 47.7973Z" fill="#FF725E"/>
<path opacity="0.5" d="M72.7393 47.7973L76.5427 40.0569L83.1515 46.1927L72.7393 47.7973Z" fill="white"/>
<path d="M72.7393 47.7973L76.5427 40.0569L83.1515 46.1927L72.7393 47.7973Z" stroke="#263238" stroke-width="0.75" stroke-linecap="round" stroke-linejoin="round"/>
<path d="M79.6172 46.738L82.5215 40.8297L87.5703 45.514L79.6172 46.738Z" fill="#FF725E" stroke="#263238" stroke-width="0.75" stroke-linecap="round" stroke-linejoin="round"/>
<path d="M81.7167 39.2605C81.7634 39.4898 81.7311 39.7261 81.6239 39.9394C81.5166 40.1527 81.3393 40.3334 81.1143 40.4587C80.8892 40.584 80.6267 40.6482 80.3598 40.6432C80.0929 40.6382 79.8338 40.5642 79.6151 40.4306C79.3965 40.297 79.2282 40.1098 79.1315 39.8926C79.0349 39.6755 79.0143 39.4382 79.0722 39.2109C79.1302 38.9835 79.2642 38.7762 79.4573 38.6154C79.6503 38.4545 79.8937 38.3472 80.1566 38.3071C80.5083 38.2535 80.87 38.3237 81.1624 38.5024C81.4549 38.6811 81.6542 38.9537 81.7167 39.2605Z" fill="#FF725E"/>
<path opacity="0.7" d="M81.7167 39.2605C81.7634 39.4898 81.7311 39.7261 81.6239 39.9394C81.5166 40.1527 81.3393 40.3334 81.1143 40.4587C80.8892 40.584 80.6267 40.6482 80.3598 40.6432C80.0929 40.6382 79.8338 40.5642 79.6151 40.4306C79.3965 40.297 79.2282 40.1098 79.1315 39.8926C79.0349 39.6755 79.0143 39.4382 79.0722 39.2109C79.1302 38.9835 79.2642 38.7762 79.4573 38.6154C79.6503 38.4545 79.8937 38.3472 80.1566 38.3071C80.5083 38.2535 80.87 38.3237 81.1624 38.5024C81.4549 38.6811 81.6542 38.9537 81.7167 39.2605Z" fill="white"/>
<path d="M81.7167 39.2605C81.7634 39.4898 81.7311 39.7261 81.6239 39.9394C81.5166 40.1527 81.3393 40.3334 81.1143 40.4587C80.8892 40.584 80.6267 40.6482 80.3598 40.6432C80.0929 40.6382 79.8338 40.5642 79.6151 40.4306C79.3965 40.297 79.2282 40.1098 79.1315 39.8926C79.0349 39.6755 79.0143 39.4382 79.0722 39.2109C79.1302 38.9835 79.2642 38.7762 79.4573 38.6154C79.6503 38.4545 79.8937 38.3472 80.1566 38.3071C80.5083 38.2535 80.87 38.3237 81.1624 38.5024C81.4549 38.6811 81.6542 38.9537 81.7167 39.2605V39.2605Z" stroke="#263238" stroke-width="0.75" stroke-linecap="round" stroke-linejoin="round"/>
<path d="M68.2338 46.7773C68.3235 46.6992 68.4368 46.6451 68.5605 46.6213C68.6842 46.5974 68.8131 46.6049 68.9321 46.6428C69.051 46.6807 69.1552 46.7475 69.2322 46.8352C69.3092 46.923 69.3559 47.0281 69.3668 47.1382C69.686 48.0719 71.0662 48.5388 70.6885 48.7389C70.3109 48.9389 69.4432 49.3313 68.7284 48.2838C68.7284 48.2838 68.4631 48.2602 68.4811 48.7114C68.5036 49.2607 68.4811 49.9472 68.1709 50.3003" fill="#999999"/>
<path d="M68.2338 46.7773C68.3235 46.6992 68.4368 46.6451 68.5605 46.6213C68.6842 46.5974 68.8131 46.6049 68.9321 46.6428C69.051 46.6807 69.1552 46.7475 69.2322 46.8352C69.3092 46.923 69.3559 47.0281 69.3668 47.1382C69.686 48.0719 71.0662 48.5388 70.6885 48.7389C70.3109 48.9389 69.4432 49.3313 68.7284 48.2838C68.7284 48.2838 68.4631 48.2602 68.4811 48.7114C68.5036 49.2607 68.4811 49.9472 68.1709 50.3003" stroke="#263238" stroke-linecap="round" stroke-linejoin="round"/>
<path d="M18.5556 142.334C17.3812 143.65 16.5551 145.176 16.1369 146.803C16.0948 146.964 16.0903 147.13 16.1235 147.293C16.1566 147.455 16.2269 147.61 16.3301 147.749C16.4332 147.887 16.5672 148.006 16.724 148.098C16.8808 148.19 17.0572 148.254 17.2429 148.286L26.3693 149.91C28.3745 150.271 31.4451 150.196 32.9961 150.13C33.175 150.124 33.3505 150.085 33.5108 150.015C33.6711 149.946 33.8126 149.847 33.9258 149.726C34.039 149.605 34.1213 149.464 34.1672 149.313C34.2131 149.162 34.2215 149.005 34.192 148.851C34.1072 148.549 33.9444 148.268 33.7161 148.029C33.4878 147.79 33.2 147.6 32.8747 147.474C30.7168 146.43 25.5871 145.728 23.474 142.899L18.5556 142.334Z" fill="#263238" stroke="#263238" stroke-linecap="round" stroke-linejoin="round"/>
<path d="M45.7686 93.3376C45.7686 93.3376 40.9671 104.978 34.8213 116.116C34.8213 116.116 33.6299 121.012 30.946 124.354L24.2023 143.142C24.2023 143.142 21.244 144.206 17.7373 142.358C17.7373 142.358 19.4097 130.337 23.6852 121.616L26.2074 114.707L29.3544 100.796C29.3544 100.796 26.6884 96.7704 27.3988 90.8621L39.2362 90.7208L45.7686 93.3376Z" fill="#FF725E"/>
<path opacity="0.2" d="M30.5685 91.5172C29.7727 91.9095 29.0174 92.3529 28.2082 92.7216C27.7872 92.8978 27.3801 93.0983 26.9898 93.3219C27.0168 93.3219 26.9628 93.3572 26.9089 93.4004C26.917 93.4642 26.917 93.5287 26.9089 93.5926C26.8864 93.7114 26.8471 93.8274 26.792 93.9378C27.0014 94.116 27.1623 94.3329 27.2627 94.5727C27.3631 94.8124 27.4004 95.0687 27.372 95.3227C27.372 95.5032 27.3719 95.6836 27.336 95.8641L27.3944 95.9426C27.6564 96.4515 27.8335 96.9905 27.9204 97.5432C28.111 98.3664 28.4238 99.1643 28.8511 99.9168C28.942 100.091 29.0099 100.274 29.0534 100.462L29.3546 100.796C29.3546 100.796 32.2679 117.806 34.4393 117.426C36.6108 117.045 38.036 107.983 38.036 107.983L30.5685 91.5172Z" fill="black"/>
<path d="M45.7686 93.3376C45.7686 93.3376 40.9671 104.978 34.8213 116.116C34.8213 116.116 33.6299 121.012 30.946 124.354L24.2023 143.142C24.2023 143.142 21.244 144.206 17.7373 142.358C17.7373 142.358 19.4097 130.337 23.6852 121.616L26.2074 114.707L29.3544 100.796C29.3544 100.796 26.6884 96.7704 27.3988 90.8621L39.2362 90.7208L45.7686 93.3376Z" stroke="#263238" stroke-linecap="round" stroke-linejoin="round"/>
<path d="M38.9575 144.202C38.9575 144.202 37.5189 145.877 37.4424 148.866C37.4407 149.04 37.4783 149.212 37.5533 149.372C37.6282 149.533 37.7389 149.679 37.879 149.802C38.0191 149.925 38.1858 150.022 38.3694 150.089C38.553 150.155 38.7498 150.189 38.9485 150.188H48.8393C51.0108 150.188 54.1803 149.541 55.7763 149.184C55.9622 149.144 56.1361 149.069 56.2864 148.965C56.4367 148.862 56.56 148.731 56.648 148.583C56.7361 148.434 56.7869 148.271 56.797 148.104C56.8072 147.937 56.7765 147.771 56.7069 147.615C56.5422 147.32 56.3035 147.061 56.0086 146.857C55.7137 146.653 55.37 146.51 55.003 146.438C52.5034 145.759 47.005 145.983 44.1187 143.437L38.9575 144.202Z" fill="#263238" stroke="#263238" stroke-linecap="round" stroke-linejoin="round"/>
<path d="M44.9145 89.7518C44.9145 89.7518 46.8972 102.271 44.9145 114.523C44.9145 114.523 45.0359 119.623 43.6332 123.507L44.7527 143.621C44.7527 143.621 42.3474 145.253 38.3687 144.437C38.3687 144.437 34.273 131.777 35.2216 122.691L34.772 115.441L31.5845 100.423C31.5845 100.423 27.9294 98.0689 26.5537 92.2548L37.7932 88.9868L44.9145 89.7518Z" fill="#FF725E" stroke="#263238" stroke-linecap="round" stroke-linejoin="round"/>
<path d="M31.7011 53.3643C31.7011 53.3643 26.7872 56.6323 26.0814 64.8004C25.3756 72.9684 23.8605 90.0186 26.9041 94.5106C26.9041 94.5106 29.8264 89.9244 45.6246 91.7644C45.6246 91.7644 47.2611 84.9223 44.8019 71.5482C42.3427 58.1741 39.5373 54.7962 31.7011 53.3643Z" fill="#263238" stroke="#263238" stroke-linecap="round" stroke-linejoin="round"/>
<path d="M31.7012 53.7723L32.1508 51.2222C34.5101 51.3289 36.7668 52.0981 38.5842 53.4153C40.6748 54.9532 41.3357 56.4283 39.8116 58.1624L31.7012 54.0783V53.7723Z" fill="#263238" stroke="#263238" stroke-linecap="round" stroke-linejoin="round"/>
<path d="M39.7036 57.2051C37.9907 55.271 35.8012 54.2392 32.834 53.584" stroke="#7F7F7F" stroke-width="0.75" stroke-linecap="round" stroke-linejoin="round"/>
<path d="M43.4985 65.3418C42.6667 62.2738 41.7316 59.9984 40.5537 58.28" stroke="#7F7F7F" stroke-width="0.75" stroke-linecap="round" stroke-linejoin="round"/>
<path d="M56.9448 82.7754L34.6367 82.8026L34.6599 97.2673L56.968 97.2401L56.9448 82.7754Z" fill="#999999" stroke="#263238" stroke-width="0.75" stroke-linecap="round" stroke-linejoin="round"/>
<path d="M38.4189 83.7317L36.0811 83.7346L36.0835 85.2489L38.4213 85.2461L38.4189 83.7317Z" fill="#263238" stroke="#263238" stroke-linecap="round" stroke-linejoin="round"/>
<path d="M38.2744 94.1183L43.5525 87.0644L48.8485 94.1026L38.2744 94.1183Z" fill="#FF725E"/>
<path opacity="0.5" d="M38.2744 94.1183L43.5525 87.0644L48.8485 94.1026L38.2744 94.1183Z" fill="white"/>
<path d="M38.2744 94.1183L43.5525 87.0644L48.8485 94.1026L38.2744 94.1183Z" stroke="#263238" stroke-width="0.75" stroke-linecap="round" stroke-linejoin="round"/>
<path d="M45.2607 94.1105L49.289 88.7239L53.3352 94.0987L45.2607 94.1105Z" fill="#FF725E" stroke="#263238" stroke-width="0.75" stroke-linecap="round" stroke-linejoin="round"/>
<path d="M48.8078 87.0566C48.8078 87.2893 48.7287 87.5169 48.5805 87.7104C48.4323 87.904 48.2217 88.0548 47.9752 88.1439C47.7288 88.233 47.4576 88.2563 47.196 88.2109C46.9343 88.1655 46.694 88.0534 46.5054 87.8888C46.3168 87.7242 46.1883 87.5145 46.1363 87.2862C46.0842 87.0579 46.1109 86.8212 46.213 86.6062C46.3151 86.3911 46.488 86.2073 46.7098 86.078C46.9316 85.9486 47.1923 85.8796 47.4591 85.8796C47.8168 85.8796 48.1599 86.0036 48.4128 86.2243C48.6657 86.4451 48.8078 86.7444 48.8078 87.0566Z" fill="#FF725E"/>
<path opacity="0.7" d="M48.8078 87.0566C48.8078 87.2893 48.7287 87.5169 48.5805 87.7104C48.4323 87.904 48.2217 88.0548 47.9752 88.1439C47.7288 88.233 47.4576 88.2563 47.196 88.2109C46.9343 88.1655 46.694 88.0534 46.5054 87.8888C46.3168 87.7242 46.1883 87.5145 46.1363 87.2862C46.0842 87.0579 46.1109 86.8212 46.213 86.6062C46.3151 86.3911 46.488 86.2073 46.7098 86.078C46.9316 85.9486 47.1923 85.8796 47.4591 85.8796C47.8168 85.8796 48.1599 86.0036 48.4128 86.2243C48.6657 86.4451 48.8078 86.7444 48.8078 87.0566Z" fill="white"/>
<path d="M48.8078 87.0566C48.8078 87.2893 48.7287 87.5169 48.5805 87.7104C48.4323 87.904 48.2217 88.0548 47.9752 88.1439C47.7288 88.233 47.4576 88.2563 47.196 88.2109C46.9343 88.1655 46.694 88.0534 46.5054 87.8888C46.3168 87.7242 46.1883 87.5145 46.1363 87.2862C46.0842 87.0579 46.1109 86.8212 46.213 86.6062C46.3151 86.3911 46.488 86.2073 46.7098 86.078C46.9316 85.9486 47.1923 85.8796 47.4591 85.8796C47.8168 85.8796 48.1599 86.0036 48.4128 86.2243C48.6657 86.4451 48.8078 86.7444 48.8078 87.0566Z" stroke="#263238" stroke-width="0.75" stroke-linecap="round" stroke-linejoin="round"/>
<path d="M55.7726 81.5888L33.6543 84.123L35.8122 98.4647L57.9305 95.9305L55.7726 81.5888Z" fill="white" stroke="#263238" stroke-width="0.75" stroke-linecap="round" stroke-linejoin="round"/>
<path d="M37.5484 84.6214L35.2305 84.8869L35.4564 86.3884L37.7743 86.1228L37.5484 84.6214Z" fill="#263238" stroke="#263238" stroke-linecap="round" stroke-linejoin="round"/>
<path d="M38.9395 94.9304L43.134 87.343L49.4281 93.726L38.9395 94.9304Z" fill="#FF725E"/>
<path opacity="0.5" d="M38.9395 94.9304L43.134 87.343L49.4281 93.726L38.9395 94.9304Z" fill="white"/>
<path d="M38.9395 94.9304L43.134 87.343L49.4281 93.726L38.9395 94.9304Z" stroke="#263238" stroke-width="0.75" stroke-linecap="round" stroke-linejoin="round"/>
<path d="M45.8672 94.134L49.0682 88.3434L53.8742 93.216L45.8672 94.134Z" fill="#FF725E" stroke="#263238" stroke-width="0.75" stroke-linecap="round" stroke-linejoin="round"/>
<path d="M48.345 86.7427C48.38 86.9735 48.3358 87.2081 48.2181 87.4169C48.1003 87.6257 47.9142 87.7994 47.6834 87.9159C47.4525 88.0325 47.1872 88.0867 46.9211 88.0717C46.6549 88.0567 46.3998 87.9732 46.188 87.8317C45.9763 87.6903 45.8173 87.4972 45.7313 87.2769C45.6452 87.0565 45.636 86.8189 45.7047 86.5941C45.7734 86.3692 45.917 86.1671 46.1172 86.0134C46.3175 85.8597 46.5655 85.7613 46.8299 85.7305C47.0056 85.7101 47.1841 85.7201 47.3553 85.76C47.5265 85.7998 47.6871 85.8687 47.8278 85.9627C47.9685 86.0567 48.0866 86.1739 48.1753 86.3078C48.2641 86.4416 48.3217 86.5894 48.345 86.7427Z" fill="#FF725E"/>
<path opacity="0.7" d="M48.345 86.7427C48.38 86.9735 48.3358 87.2081 48.2181 87.4169C48.1003 87.6257 47.9142 87.7994 47.6834 87.9159C47.4525 88.0325 47.1872 88.0867 46.9211 88.0717C46.6549 88.0567 46.3998 87.9732 46.188 87.8317C45.9763 87.6903 45.8173 87.4972 45.7313 87.2769C45.6452 87.0565 45.636 86.8189 45.7047 86.5941C45.7734 86.3692 45.917 86.1671 46.1172 86.0134C46.3175 85.8597 46.5655 85.7613 46.8299 85.7305C47.0056 85.7101 47.1841 85.7201 47.3553 85.76C47.5265 85.7998 47.6871 85.8687 47.8278 85.9627C47.9685 86.0567 48.0866 86.1739 48.1753 86.3078C48.2641 86.4416 48.3217 86.5894 48.345 86.7427Z" fill="white"/>
<path d="M48.345 86.7427C48.38 86.9735 48.3358 87.2081 48.2181 87.4169C48.1003 87.6257 47.9142 87.7994 47.6834 87.9159C47.4525 88.0325 47.1872 88.0867 46.9211 88.0717C46.6549 88.0567 46.3998 87.9732 46.188 87.8317C45.9763 87.6903 45.8173 87.4972 45.7313 87.2769C45.6452 87.0565 45.636 86.8189 45.7047 86.5941C45.7734 86.3692 45.917 86.1671 46.1172 86.0134C46.3175 85.8597 46.5655 85.7613 46.8299 85.7305C47.0056 85.7101 47.1841 85.7201 47.3553 85.76C47.5265 85.7998 47.6871 85.8687 47.8278 85.9627C47.9685 86.0567 48.0866 86.1739 48.1753 86.3078C48.2641 86.4416 48.3217 86.5894 48.345 86.7427V86.7427Z" stroke="#263238" stroke-width="0.75" stroke-linecap="round" stroke-linejoin="round"/>
<path d="M42.7838 89.7518L45.1441 92.6864L47.8416 93.2317C48.9475 93.4553 49.532 93.6672 49.9546 94.593C50.2558 95.256 50.0535 95.4601 49.505 95.6327C49.505 95.6327 51.1145 98.3279 49.4376 98.065C49.4376 98.065 49.5769 99.3008 47.9045 98.8497C47.9045 98.8497 47.3695 99.6853 46.2096 99.0066C46.2096 99.0066 45.3104 99.6069 44.0606 97.5786L42.2623 94.6911L39.6143 92.0861L42.7838 89.7518Z" fill="#999999" stroke="#263238" stroke-linecap="round" stroke-linejoin="round"/>
<path d="M49.298 97.1941C49.298 97.1941 49.5228 98.0101 48.6012 97.9787C47.6795 97.9473 47.8459 98.7633 45.6924 98.4769" fill="#999999"/>
<path d="M49.298 97.1941C49.298 97.1941 49.5228 98.0101 48.6012 97.9787C47.6795 97.9473 47.8459 98.7633 45.6924 98.4769" stroke="#263238" stroke-linecap="round" stroke-linejoin="round"/>
<path d="M30.0602 60.4064C30.0602 60.4064 27.7224 66.5305 29.0082 80.0223C29.0082 80.0223 34.7673 90.6384 40.6613 93.6004L44.3343 90.9444L37.1995 78.2843C37.1995 78.2843 40.8501 65.3182 40.6613 62.8702" fill="#263238"/>
<path d="M30.0602 60.4064C30.0602 60.4064 27.7224 66.5305 29.0082 80.0223C29.0082 80.0223 34.7673 90.6384 40.6613 93.6004L44.3343 90.9444L37.1995 78.2843C37.1995 78.2843 40.8501 65.3182 40.6613 62.8702" stroke="#263238" stroke-linecap="round" stroke-linejoin="round"/>
<path d="M39.8252 68.1351C40.3602 65.7812 40.7244 63.7019 40.6839 62.8623" stroke="#7F7F7F" stroke-width="0.75" stroke-linecap="round" stroke-linejoin="round"/>
<path d="M37.6087 78.9552L37.2266 78.2765C37.2266 78.2765 38.5753 73.4785 39.5914 69.1669" stroke="#7F7F7F" stroke-width="0.75" stroke-linecap="round" stroke-linejoin="round"/>
<path d="M39.5868 82.4782L38.0762 79.7948" stroke="#7F7F7F" stroke-width="0.75" stroke-linecap="round" stroke-linejoin="round"/>
<path d="M28.9053 78.5668C28.9412 79.0415 28.9817 79.5202 29.0312 80.0145C30.4327 82.5185 32.0295 84.9356 33.8102 87.2488" stroke="#7F7F7F" stroke-width="0.75" stroke-linecap="round" stroke-linejoin="round"/>
<path d="M30.0831 60.4064C30.0831 60.4064 28.0465 65.7459 28.8198 77.4173" stroke="#7F7F7F" stroke-width="0.75" stroke-linecap="round" stroke-linejoin="round"/>
<path d="M179.605 38.2797C179.188 34.8266 178.282 31.432 176.907 28.1735" stroke="#263238" stroke-linecap="round" stroke-linejoin="round"/>
<path d="M165.771 12.983C165.793 12.9993 165.813 13.0177 165.83 13.0379" stroke="#263238" stroke-linecap="round" stroke-linejoin="round"/>
<path d="M164.503 11.9472C164.301 11.7864 164.099 11.6334 163.897 11.4843C158.888 7.72981 154.977 6.89417 153.336 6.70586" stroke="#263238" stroke-linecap="round" stroke-linejoin="round"/>
<path d="M152.883 5.90221L151.873 6.33263L152.366 7.21393L153.376 6.78352L152.883 5.90221Z" stroke="#263238" stroke-linecap="round" stroke-linejoin="round"/>
<path d="M179.909 38.152L178.899 38.5824L179.393 39.4638L180.403 39.0333L179.909 38.152Z" stroke="#263238" stroke-linecap="round" stroke-linejoin="round"/>
<path d="M171.135 17.5691L171.733 18.0948C171.714 18.161 171.673 18.2209 171.616 18.2675C171.565 18.3157 171.5 18.3509 171.427 18.3695L170.82 17.8359L165.511 13.2183L165.816 12.9437L171.135 17.5691Z" fill="#263238" stroke="#263238" stroke-linecap="round" stroke-linejoin="round"/>
<path d="M171.849 17.6751C171.933 17.7472 171.992 17.8383 172.02 17.9381C172.048 18.0378 172.043 18.1424 172.007 18.24C171.981 18.3291 171.928 18.4104 171.854 18.4754C171.781 18.5358 171.693 18.5814 171.598 18.6088C171.484 18.6416 171.362 18.6466 171.246 18.623C171.129 18.5995 171.022 18.5484 170.937 18.4754C170.852 18.4006 170.792 18.3068 170.765 18.2044C170.737 18.102 170.742 17.9948 170.779 17.8948C170.811 17.8104 170.865 17.7337 170.937 17.6712C171.009 17.6052 171.101 17.5577 171.202 17.5339C171.314 17.503 171.434 17.4999 171.549 17.5248C171.663 17.5497 171.767 17.6017 171.849 17.6751Z" fill="#263238" stroke="#263238" stroke-linecap="round" stroke-linejoin="round"/>
<path d="M164.431 11.9472L159.221 7.4395" stroke="#263238" stroke-linecap="round" stroke-linejoin="round"/>
<path d="M159.32 6.94128C159.362 7.01993 159.376 7.10758 159.36 7.19321C159.345 7.27885 159.301 7.35863 159.234 7.42254C159.167 7.48645 159.08 7.53162 158.983 7.55237C158.887 7.57313 158.786 7.56854 158.692 7.53919C158.599 7.50984 158.518 7.45703 158.458 7.38741C158.399 7.31778 158.365 7.23446 158.36 7.14791C158.355 7.06136 158.379 6.97545 158.43 6.90099C158.481 6.82653 158.556 6.76684 158.646 6.72943C158.706 6.70431 158.771 6.68986 158.838 6.68693C158.904 6.684 158.971 6.69264 159.033 6.71235C159.096 6.73206 159.154 6.76244 159.203 6.80174C159.252 6.84104 159.292 6.88847 159.32 6.94128V6.94128Z" stroke="#263238" stroke-linecap="round" stroke-linejoin="round"/>
<path d="M165.839 11.9472L165.83 12.928L165.771 12.983L165.704 13.0457L165.465 13.2576L164.337 13.2497L164.341 11.9472H165.839Z" stroke="#263238" stroke-linecap="round" stroke-linejoin="round"/>
<path d="M165.83 12.928V13.1595V13.2576H165.466L165.704 13.0457L165.772 12.9829L165.83 12.928Z" stroke="#5C5C5C" stroke-miterlimit="10"/>
<path d="M176.008 15.4075L177.896 19.7465L173.509 23.5834L168.536 21.9514L165.021 13.646L165.704 13.0457L165.771 12.983L166.477 12.367L176.008 15.4075Z" stroke="#263238" stroke-linecap="round" stroke-linejoin="round"/>
<path d="M183.75 22.5006L177.051 28.3579L173.509 23.5873L177.897 19.7465L183.75 22.5006Z" stroke="#263238" stroke-linecap="round" stroke-linejoin="round"/>
<path d="M175.693 23.148L178.395 20.7823L180.913 21.9553" stroke="#263238" stroke-linecap="round" stroke-linejoin="round"/>
<path d="M174.853 23.8855L175.122 23.6462" stroke="#263238" stroke-linecap="round" stroke-linejoin="round"/>
<path d="M45.2024 16.8592C44.8763 16.1072 44.3818 15.4195 43.7479 14.8361C43.1139 14.2528 42.3531 13.7854 41.5099 13.4614C40.6667 13.1375 39.7579 12.9633 38.8368 12.9491C37.9156 12.9349 37.0004 13.081 36.1446 13.3788C35.2888 13.6766 34.5096 14.1202 33.8524 14.6837C33.1953 15.2472 32.6733 15.9193 32.317 16.6607C31.9607 17.4022 31.7773 18.1981 31.7773 19.0021C31.7774 19.8061 31.961 20.602 32.3174 21.3434C33.347 23.5953 36.0984 24.4034 38.2114 25.7334C38.8678 26.1493 39.767 28.2285 39.767 28.2285L45.2518 26.3297C45.2518 26.3297 44.2628 24.2818 44.4156 23.5835C44.8742 21.3551 46.2319 19.115 45.2024 16.8592Z" stroke="#263238" stroke-linecap="round" stroke-linejoin="round"/>
<path d="M39.9149 28.5459L45.3813 26.6438L45.4379 26.7677C45.5129 26.9318 45.5499 27.1072 45.5468 27.2839C45.5437 27.4606 45.5005 27.6349 45.4197 27.7969C45.3389 27.9589 45.2222 28.1054 45.0762 28.2278C44.9302 28.3502 44.7579 28.4462 44.5692 28.5102L41.9508 29.4213C41.5732 29.5527 41.1511 29.5479 40.7776 29.4077C40.404 29.2676 40.1096 29.0038 39.959 28.6742L39.9023 28.5503L39.9149 28.5459Z" stroke="#263238" stroke-linecap="round" stroke-linejoin="round"/>
<path opacity="0.5" d="M39.9149 28.5459L45.3813 26.6438L45.4379 26.7677C45.5129 26.9318 45.5499 27.1072 45.5468 27.2839C45.5437 27.4606 45.5005 27.6349 45.4197 27.7969C45.3389 27.9589 45.2222 28.1054 45.0762 28.2278C44.9302 28.3502 44.7579 28.4462 44.5692 28.5102L41.9508 29.4213C41.5732 29.5527 41.1511 29.5479 40.7776 29.4077C40.404 29.2676 40.1096 29.0038 39.959 28.6742L39.9023 28.5503L39.9149 28.5459Z" stroke="#263238" stroke-linecap="round" stroke-linejoin="round"/>
<path d="M42.1387 29.7317L44.6946 28.8428L44.7412 28.9448C44.8639 29.2135 44.8593 29.5137 44.7283 29.7795C44.5974 30.0452 44.3508 30.2547 44.0429 30.3617L43.8132 30.4416C43.5053 30.5487 43.1612 30.5447 42.8567 30.4304C42.5522 30.3161 42.3122 30.101 42.1895 29.8323L42.1428 29.7302L42.1387 29.7317Z" stroke="#263238" stroke-linecap="round" stroke-linejoin="round"/>
<path opacity="0.2" d="M42.1387 29.7317L44.6946 28.8428L44.7412 28.9448C44.8639 29.2135 44.8593 29.5137 44.7283 29.7795C44.5974 30.0452 44.3508 30.2547 44.0429 30.3617L43.8132 30.4416C43.5053 30.5487 43.1612 30.5447 42.8567 30.4304C42.5522 30.3161 42.3122 30.101 42.1895 29.8323L42.1428 29.7302L42.1387 29.7317Z" stroke="#263238" stroke-linecap="round" stroke-linejoin="round"/>
<path d="M34.9658 6.25873L36.5528 11.4373" stroke="#263238" stroke-linecap="round" stroke-linejoin="round"/>
<path d="M34.3232 4.16768L34.6469 5.22301" stroke="#263238" stroke-linecap="round" stroke-linejoin="round"/>
<path d="M28.0826 21.3591L22.0088 22.7792" stroke="#263238" stroke-linecap="round" stroke-linejoin="round"/>
<path d="M30.3391 20.8333L29.3096 21.0726" stroke="#263238" stroke-linecap="round" stroke-linejoin="round"/>
<path d="M53.6774 15.3723L47.3203 16.8592" stroke="#263238" stroke-linecap="round" stroke-linejoin="round"/>
<path d="M55.6458 14.9133L54.7422 15.1251" stroke="#263238" stroke-linecap="round" stroke-linejoin="round"/>
<path d="M34.4355 25.4901L30.124 32.0065" stroke="#263238" stroke-linecap="round" stroke-linejoin="round"/>
<path d="M47.5361 5.68594L43.2246 12.2023" stroke="#263238" stroke-linecap="round" stroke-linejoin="round"/>
<path d="M31.212 15.0113L23.749 11.249" stroke="#263238" stroke-linecap="round" stroke-linejoin="round"/>
<path d="M47.5763 23.254L46.4434 22.6812" stroke="#263238" stroke-linecap="round" stroke-linejoin="round"/>
<path d="M53.9109 26.4435L48.6104 23.7757" stroke="#263238" stroke-linecap="round" stroke-linejoin="round"/>
</svg>
