<svg width="200" height="161" viewBox="0 0 200 161" fill="none" xmlns="http://www.w3.org/2000/svg">
<g opacity="0.3">
<path opacity="0.3" d="M157.193 30.9696C158.111 30.9696 158.856 30.3245 158.856 29.5286C158.856 28.7328 158.111 28.0876 157.193 28.0876C156.274 28.0876 155.529 28.7328 155.529 29.5286C155.529 30.3245 156.274 30.9696 157.193 30.9696Z" stroke="black" stroke-linecap="round" stroke-linejoin="round"/>
<path opacity="0.3" d="M11.2462 55.4667C12.1648 55.4667 12.9095 54.8216 12.9095 54.0257C12.9095 53.2299 12.1648 52.5847 11.2462 52.5847C10.3277 52.5847 9.58301 53.2299 9.58301 54.0257C9.58301 54.8216 10.3277 55.4667 11.2462 55.4667Z" stroke="black" stroke-linecap="round" stroke-linejoin="round"/>
<path opacity="0.3" d="M136.402 130.033C137.32 130.033 138.065 129.388 138.065 128.592C138.065 127.796 137.32 127.151 136.402 127.151C135.483 127.151 134.738 127.796 134.738 128.592C134.738 129.388 135.483 130.033 136.402 130.033Z" stroke="black" stroke-linecap="round" stroke-linejoin="round"/>
<path opacity="0.3" d="M14.1593 118.147C15.0779 118.147 15.8225 117.502 15.8225 116.706C15.8225 115.91 15.0779 115.265 14.1593 115.265C13.2407 115.265 12.4961 115.91 12.4961 116.706C12.4961 117.502 13.2407 118.147 14.1593 118.147Z" stroke="black" stroke-linecap="round" stroke-linejoin="round"/>
<path opacity="0.3" d="M126.94 54.6557L123.409 57.715" stroke="black" stroke-linecap="round" stroke-linejoin="round"/>
<path opacity="0.3" d="M126.94 57.715L123.409 54.6557" stroke="black" stroke-linecap="round" stroke-linejoin="round"/>
<path opacity="0.3" d="M114.262 142.557L117.793 145.613" stroke="black" stroke-linecap="round" stroke-linejoin="round"/>
<path opacity="0.3" d="M117.793 142.557L114.262 145.613" stroke="black" stroke-linecap="round" stroke-linejoin="round"/>
<path opacity="0.3" d="M3.24805 73.7509L6.77478 76.8065" stroke="black" stroke-linecap="round" stroke-linejoin="round"/>
<path opacity="0.3" d="M6.77478 73.7509L3.24805 76.8065" stroke="black" stroke-linecap="round" stroke-linejoin="round"/>
<path opacity="0.3" d="M133.389 2.42106L136.92 5.48037" stroke="black" stroke-linecap="round" stroke-linejoin="round"/>
<path opacity="0.3" d="M136.92 2.42106L133.389 5.48037" stroke="black" stroke-linecap="round" stroke-linejoin="round"/>
<path opacity="0.3" d="M47.7373 4.94474L51.264 8.00028" stroke="black" stroke-linecap="round" stroke-linejoin="round"/>
<path opacity="0.3" d="M51.264 4.94474L47.7373 8.00028" stroke="black" stroke-linecap="round" stroke-linejoin="round"/>
</g>
<path opacity="0.3" d="M14.3466 146.435C13.5867 145.685 13.1682 144.721 13.1695 143.723C13.1708 142.725 13.5917 141.761 14.3537 141.013C15.1156 140.264 16.1662 139.782 17.3089 139.656C18.4516 139.53 19.6082 139.769 20.5621 140.329C21.516 140.888 22.202 141.729 22.4916 142.695C22.7812 143.661 22.6546 144.686 22.1356 145.577C21.6165 146.468 20.7405 147.164 19.6715 147.536C18.6025 147.908 17.4138 147.929 16.3277 147.597M23.1374 139.064L24.2737 136.322L21.6614 135.077L19.615 137.393C19.0274 137.272 18.4247 137.217 17.8211 137.227L16.3843 134.586L13.5107 135.318L13.9461 138.208C13.433 138.484 12.9607 138.813 12.5397 139.188L9.37438 138.204L7.93756 140.467L10.6109 142.24C10.4725 142.748 10.4067 143.269 10.415 143.791L7.36719 145.035L8.21186 147.525L11.547 147.148C11.8669 147.591 12.247 147.998 12.6791 148.363L11.5427 151.105L14.1768 152.35L16.2058 150.053C16.7935 150.172 17.3959 150.229 17.9996 150.222L19.4365 152.863L22.3101 152.131L21.8747 149.242C22.3856 148.964 22.8563 148.635 23.2767 148.261L26.442 149.245L27.8789 146.982L25.2055 145.209C25.3437 144.7 25.4095 144.178 25.4014 143.655L28.4492 142.414L27.6046 139.92L24.2694 140.297C24.1954 140.188 24.1127 140.082 24.0256 139.977L23.1374 139.064Z" stroke="black" stroke-linecap="round" stroke-linejoin="round"/>
<path opacity="0.3" d="M18.0695 130.067C17.3665 130.252 16.6115 130.219 15.9334 129.974C15.2552 129.73 14.6961 129.289 14.3515 128.727C14.0069 128.165 13.8982 127.517 14.044 126.894C14.1898 126.27 14.5811 125.709 15.151 125.308C15.7208 124.907 16.4339 124.689 17.1683 124.693C17.9028 124.696 18.613 124.921 19.1776 125.328C19.7423 125.734 20.1263 126.299 20.2641 126.924C20.4018 127.549 20.2848 128.196 19.933 128.754C19.8437 128.896 19.7403 129.031 19.6238 129.158M12.8882 132.395L14.6298 133.224L16.0013 131.674C16.3946 131.757 16.7985 131.795 17.203 131.787L18.1609 133.553L20.0854 133.062L19.7893 131.127C20.1321 130.942 20.4479 130.722 20.7297 130.471L22.8458 131.131L23.808 129.603L22.0185 128.419C22.1114 128.078 22.1553 127.728 22.1491 127.377L24.1868 126.548L23.6208 124.88L21.3872 125.137C21.1734 124.84 20.9191 124.566 20.6296 124.322L21.4307 122.492L19.6891 121.662L18.322 123.209C17.9281 123.13 17.5245 123.093 17.1203 123.1L16.1624 121.334L14.1944 121.832L14.4905 123.767C14.1469 123.952 13.831 124.172 13.55 124.424L11.4165 123.756L10.4587 125.265L12.2438 126.449C12.1529 126.791 12.109 127.14 12.1132 127.491L10.1104 128.339L10.6764 130.007L12.9056 129.75C13.1209 130.047 13.3767 130.321 13.6676 130.565L12.8882 132.395Z" stroke="black" stroke-linecap="round" stroke-linejoin="round"/>
<path opacity="0.3" d="M122.443 40.5323C121.685 39.7824 121.268 38.8186 121.27 37.8215C121.272 36.8243 121.694 35.862 122.456 35.1148C123.218 34.3675 124.268 33.8864 125.41 33.7616C126.552 33.6367 127.707 33.8767 128.66 34.4365C129.612 34.9963 130.296 35.8377 130.585 36.8031C130.873 37.7685 130.745 38.7918 130.225 39.6815C129.706 40.5712 128.83 41.2663 127.761 41.6367C126.692 42.0072 125.505 42.0276 124.42 41.6942M131.234 33.1613L132.375 30.4188L129.741 29.174L127.694 31.4902C127.107 31.37 126.504 31.313 125.9 31.3204L124.468 28.6798L121.594 29.4117L122.03 32.3012C121.519 32.5784 121.048 32.9077 120.628 33.282L117.462 32.2974L116.025 34.5608L118.699 36.33C118.561 36.8392 118.495 37.3611 118.503 37.8842L115.455 39.129L116.304 41.6187L119.635 41.2415C119.956 41.6842 120.338 42.092 120.771 42.4562L119.635 45.1986L122.247 46.4434L124.294 44.1273C124.881 44.247 125.484 44.304 126.088 44.297L127.52 46.9376L130.398 46.2058L129.963 43.3162C130.475 43.041 130.946 42.7115 131.365 42.3354L134.534 43.32L135.967 41.0566L133.298 39.2837C133.432 38.774 133.497 38.2523 133.489 37.7295L136.537 36.4884L135.692 33.995L132.357 34.3722C132.279 34.2628 132.196 34.1572 132.113 34.0515L131.234 33.1613Z" stroke="black" stroke-linecap="round" stroke-linejoin="round"/>
<path opacity="0.3" d="M126.17 24.172C125.467 24.3582 124.71 24.3268 124.03 24.0831C123.35 23.8395 122.789 23.3988 122.443 22.8364C122.096 22.2739 121.986 21.6247 122.131 20.9998C122.277 20.3748 122.668 19.8129 123.238 19.4102C123.808 19.0075 124.522 18.7889 125.258 18.792C125.994 18.795 126.706 19.0193 127.272 19.4267C127.838 19.8341 128.223 20.3992 128.361 21.0253C128.499 21.6514 128.382 22.2997 128.029 22.8592C127.942 23.0024 127.839 23.1376 127.72 23.2629M120.985 26.4957L122.748 27.3294L124.115 25.779C124.508 25.8613 124.912 25.8993 125.317 25.8921L126.279 27.6576L128.204 27.1672L127.907 25.232C128.25 25.0477 128.564 24.8272 128.844 24.5756L130.964 25.2358L131.926 23.708L130.137 22.5235C130.231 22.185 130.279 21.8381 130.28 21.4899L132.314 20.66L131.748 18.9927L129.518 19.2492C129.304 18.9514 129.048 18.6777 128.757 18.4344L129.505 16.586L127.764 15.7561L126.362 17.3065C125.969 17.2272 125.567 17.1905 125.164 17.1971L124.202 15.4316L122.278 15.922L122.574 17.8534C122.232 18.0403 121.918 18.2619 121.638 18.5136L119.517 17.8534L118.555 19.3623L120.345 20.5468C120.254 20.8882 120.21 21.2377 120.214 21.588L118.181 22.4179L118.747 24.0852L120.976 23.8287C121.191 24.1249 121.445 24.3983 121.734 24.6435L120.985 26.4957Z" stroke="black" stroke-linecap="round" stroke-linejoin="round"/>
<path d="M4.96387 156.941H195.756" stroke="#263238" stroke-linecap="round" stroke-linejoin="round"/>
<path d="M22.1709 25.5903L22.1709 147.125C22.1709 151.396 26.1671 154.858 31.0966 154.858H94.7999C99.7294 154.858 103.726 151.396 103.726 147.125L103.726 25.5903C103.726 21.3194 99.7294 17.8571 94.7999 17.8571H31.0966C26.1671 17.8571 22.1709 21.3194 22.1709 25.5903Z" fill="white"/>
<path d="M103.721 25.2394C103.723 23.5413 103.046 21.895 101.805 20.5807C97.7296 22.2933 91.8952 25.926 84.3411 33.5422C68.105 49.9063 63.1328 89.5264 43.9099 106.743C35.6852 114.118 28.1266 118.648 22.166 121.421V147.45C22.166 149.409 23.0642 151.287 24.663 152.672C26.2617 154.058 28.4301 154.836 30.6911 154.836H90.4802C90.872 154.416 91.2567 153.981 91.634 153.531C96.1186 148.17 100.237 143.655 103.721 140.052V25.2394Z" fill="#D6D6D6"/>
<path d="M22.166 25.2395V56.8398C28.8059 54.2709 36.8346 49.3971 42.5862 40.1437C48.425 30.7696 55.9095 23.1345 61.9223 17.8571H30.6911C28.4309 17.8571 26.2631 18.6348 24.6645 20.0191C23.0659 21.4035 22.1672 23.2812 22.166 25.2395Z" fill="#D6D6D6"/>
<path d="M28.4709 20.8221C28.4709 21.6596 27.3824 21.9538 27.3781 22.5989V22.6441H28.4317V22.9233H27.0254V22.6856C27.0254 21.7878 28.1139 21.6143 28.1139 20.8335C28.1139 20.5468 28.0007 20.3959 27.7351 20.3959C27.4695 20.3959 27.3607 20.5581 27.3607 20.8033V21.0522H27.0254V20.8259C27.0254 20.3996 27.2518 20.1167 27.7438 20.1167C28.2358 20.1167 28.4709 20.3959 28.4709 20.8221Z" fill="#263238"/>
<path d="M30.2253 20.8146V20.8863C30.2401 21.0052 30.2105 21.1251 30.1407 21.2283C30.0709 21.3316 29.9647 21.4127 29.8378 21.4596C29.9664 21.5058 30.074 21.5873 30.144 21.6916C30.214 21.7958 30.2425 21.9171 30.2253 22.0368V22.2443C30.2253 22.6705 29.9945 22.9497 29.5025 22.9497C29.0105 22.9497 28.7797 22.6705 28.7797 22.2443V22.0557H29.115V22.2669C29.115 22.5159 29.2369 22.6668 29.4938 22.6668C29.7507 22.6668 29.8682 22.5197 29.8682 22.2367V22.0217C29.8682 21.7501 29.7333 21.6181 29.4633 21.6105H29.2674V21.3314H29.4764C29.5318 21.3324 29.5868 21.323 29.6375 21.3038C29.6883 21.2846 29.7337 21.2561 29.7705 21.2202C29.8074 21.1843 29.8348 21.142 29.8509 21.0961C29.867 21.0501 29.8715 21.0017 29.8639 20.9542V20.8297C29.8639 20.543 29.7507 20.3959 29.4894 20.3959C29.2282 20.3959 29.1106 20.5505 29.1106 20.7995V20.9428H28.7754V20.8146C28.7754 20.3921 29.0062 20.1167 29.4982 20.1167C29.9902 20.1167 30.2253 20.3921 30.2253 20.8146Z" fill="#263238"/>
<path d="M30.9182 21.0258V21.4031H30.5742V21.0258H30.9182ZM30.9182 22.5347V22.912H30.5742V22.5347H30.9182Z" fill="#263238"/>
<path d="M31.6406 21.2786C31.6877 21.2053 31.7575 21.1449 31.8421 21.1042C31.9268 21.0635 32.0229 21.0442 32.1195 21.0485C32.5288 21.0485 32.7117 21.3087 32.7117 21.7048V22.2443C32.7117 22.6705 32.4809 22.9497 31.9889 22.9497C31.4969 22.9497 31.2705 22.6743 31.2705 22.2443V22.0594H31.6058V22.2669C31.6058 22.5159 31.7233 22.6668 31.9802 22.6668C32.2371 22.6668 32.3547 22.5159 32.3547 22.2669V21.7312C32.3547 21.4785 32.2371 21.3276 31.9802 21.3276C31.9336 21.3256 31.887 21.3317 31.8432 21.3458C31.7995 21.3599 31.7595 21.3815 31.7257 21.4094C31.6918 21.4372 31.6649 21.4708 31.6466 21.508C31.6282 21.5451 31.6188 21.5852 31.6188 21.6256V21.6897H31.2836L31.3707 20.1469H32.6377V20.4223H31.6928L31.6406 21.2786Z" fill="#263238"/>
<path d="M34.4922 20.8108V20.8636H34.157V20.792C34.157 20.543 34.0394 20.3959 33.7782 20.3959C33.5169 20.3959 33.3863 20.5468 33.3863 20.8448V21.4672C33.4238 21.3756 33.4946 21.2971 33.588 21.2433C33.6815 21.1896 33.7925 21.1636 33.9045 21.1692C34.3399 21.1692 34.5009 21.4295 34.5009 21.8293V22.2443C34.5009 22.6705 34.2571 22.9497 33.7695 22.9497C33.2818 22.9497 33.0293 22.6705 33.0293 22.2443V20.8335C33.0293 20.3921 33.2601 20.1167 33.7695 20.1167C34.2789 20.1167 34.4922 20.3883 34.4922 20.8108ZM33.3907 21.8671V22.2858C33.3907 22.5347 33.5126 22.6856 33.7738 22.6856C34.0351 22.6856 34.1526 22.5347 34.1526 22.2858V21.8671C34.1526 21.6181 34.0307 21.4672 33.7738 21.4672C33.5169 21.4672 33.3907 21.603 33.3907 21.8671Z" fill="#263238"/>
<path d="M84.5677 20.9353H83.6621V22.8969H84.5677V20.9353Z" fill="#263238"/>
<path d="M85.7738 20.543H84.8682V22.8969H85.7738V20.543Z" fill="#263238"/>
<path d="M86.9838 20.2638H86.0781V22.8969H86.9838V20.2638Z" fill="#263238"/>
<path d="M88.1908 19.7772H87.2852V22.8969H88.1908V19.7772Z" fill="#263238"/>
<path d="M99.3977 22.844H93.9639V19.9809H99.3977V22.844ZM94.2643 22.58H99.0972V20.2261H94.2643V22.58Z" fill="#263238"/>
<path d="M97.5861 20.5128H94.7168V22.2971H97.5861V20.5128Z" fill="#263238"/>
<path d="M99.8935 21.0635H99.21V21.7426H99.8935V21.0635Z" fill="#263238"/>
<path d="M91.9648 22.2179C91.9278 22.218 91.8915 22.2088 91.8603 22.1915C90.7544 21.6219 90.0273 22.15 89.9968 22.1915C89.9557 22.2171 89.905 22.2285 89.8547 22.2236C89.8043 22.2187 89.7579 22.1979 89.7243 22.165C89.6907 22.1321 89.6724 22.0897 89.6729 22.0458C89.6733 22.0019 89.6926 21.9597 89.7269 21.9274C89.7661 21.8972 90.7022 21.2031 92.0693 21.9274C92.0925 21.9391 92.1127 21.9546 92.1288 21.9732C92.1449 21.9917 92.1565 22.0129 92.163 22.0354C92.1695 22.0579 92.1708 22.0813 92.1666 22.1042C92.1625 22.1271 92.1531 22.1491 92.139 22.1688C92.1168 22.1887 92.0893 22.2035 92.0589 22.2121C92.0286 22.2206 91.9963 22.2226 91.9648 22.2179Z" fill="#263238"/>
<path d="M92.4006 21.6256C92.3635 21.6258 92.3272 21.6166 92.2961 21.5992C90.6982 20.7769 89.6227 21.5728 89.614 21.5804C89.5947 21.5986 89.5711 21.6131 89.5448 21.623C89.5185 21.6329 89.4901 21.6378 89.4615 21.6376C89.4329 21.6374 89.4046 21.6319 89.3786 21.6216C89.3525 21.6114 89.3292 21.5964 89.3102 21.5779C89.2913 21.5593 89.277 21.5375 89.2683 21.5138C89.2597 21.4902 89.2569 21.4652 89.2601 21.4406C89.2633 21.4159 89.2724 21.3921 89.2869 21.3707C89.3013 21.3493 89.3208 21.3308 89.3441 21.3163C89.3441 21.3163 90.6503 20.3468 92.5051 21.2974C92.5282 21.3091 92.5485 21.3246 92.5646 21.3432C92.5807 21.3617 92.5923 21.3829 92.5988 21.4054C92.6053 21.4279 92.6065 21.4513 92.6024 21.4742C92.5982 21.4972 92.5889 21.5191 92.5747 21.5389C92.5575 21.5656 92.5321 21.5878 92.5015 21.6031C92.4708 21.6183 92.436 21.6261 92.4006 21.6256Z" fill="#263238"/>
<path d="M92.7534 20.9429C92.7164 20.9422 92.6804 20.9331 92.6489 20.9164C90.6243 19.8715 89.2745 20.8561 89.2179 20.9164C89.1804 20.9489 89.1295 20.9672 89.0764 20.9672C89.0233 20.9672 88.9725 20.9489 88.9349 20.9164C88.8971 20.8833 88.876 20.8386 88.876 20.792C88.876 20.7454 88.8971 20.7007 88.9349 20.6675C88.9349 20.6675 90.5502 19.4679 92.8535 20.6675C92.877 20.6788 92.8977 20.6941 92.9142 20.7125C92.9307 20.7309 92.9428 20.752 92.9497 20.7746C92.9566 20.7971 92.9582 20.8206 92.9544 20.8437C92.9506 20.8668 92.9414 20.889 92.9275 20.9089C92.9029 20.9249 92.8747 20.9362 92.8446 20.9421C92.8146 20.9479 92.7835 20.9482 92.7534 20.9429Z" fill="#263238"/>
<path d="M91.3597 22.5121C91.3597 22.5994 91.3298 22.6847 91.2738 22.7573C91.2178 22.8299 91.1383 22.8864 91.0452 22.9199C90.9521 22.9533 90.8497 22.962 90.7509 22.945C90.652 22.9279 90.5613 22.8859 90.49 22.8242C90.4188 22.7625 90.3703 22.6838 90.3506 22.5982C90.331 22.5126 90.341 22.4238 90.3796 22.3432C90.4182 22.2625 90.4834 22.1936 90.5672 22.1451C90.651 22.0966 90.7495 22.0707 90.8502 22.0707C90.9853 22.0707 91.1149 22.1172 91.2105 22.2C91.306 22.2828 91.3597 22.395 91.3597 22.5121Z" fill="#263238"/>
<path d="M105.898 22.7272V26.937H107.404V38.8951H105.898V41.6112H107.404V53.573H105.898V56.2891H107.404V68.266H105.898V149.985C105.898 152.051 104.951 154.032 103.265 155.493C101.578 156.954 99.2916 157.774 96.907 157.774H28.9629C27.7824 157.774 26.6135 157.573 25.5229 157.181C24.4323 156.79 23.4414 156.216 22.6069 155.493C21.7723 154.769 21.1105 153.91 20.6591 152.965C20.2077 152.02 19.9757 151.007 19.9763 149.985V48.4616H18.8965V36.5035H19.9763V22.7272C19.9763 20.6622 20.9231 18.6818 22.6084 17.2217C24.2937 15.7615 26.5795 14.9412 28.9629 14.9412H96.9244C99.3052 14.9452 101.587 15.7672 103.269 17.2268C104.951 18.6864 105.897 20.6645 105.898 22.7272ZM82.3864 17.8572L79.774 21.2749C79.3819 21.7802 78.8524 22.1942 78.232 22.4803C77.6117 22.7665 76.9196 22.916 76.2168 22.9158H49.6836C48.9815 22.9157 48.2901 22.766 47.6705 22.4799C47.0509 22.1937 46.5221 21.7799 46.1307 21.2749L43.4748 17.8572H31.1573C28.7743 17.8572 26.4887 18.6769 24.8028 20.1361C23.1169 21.5953 22.1686 23.5747 22.1663 25.6394V147.069C22.1675 149.134 23.1153 151.114 24.8013 152.574C26.4873 154.034 28.7735 154.855 31.1573 154.855H94.7257C95.9062 154.856 97.0753 154.655 98.1664 154.265C99.2574 153.874 100.249 153.301 101.084 152.578C101.92 151.856 102.582 150.997 103.035 150.053C103.487 149.108 103.72 148.095 103.721 147.072V25.6394C103.721 23.5744 102.774 21.594 101.089 20.1339C99.4036 18.6737 97.1178 17.8534 94.7344 17.8534L82.3864 17.8572Z" fill="#263238"/>
<path d="M96.667 56.1947H97.2896C97.8959 56.1947 98.4773 56.4034 98.9059 56.7748C99.3346 57.1462 99.5755 57.6499 99.5755 58.1751V96.0185C99.5755 98.9723 100.929 101.805 103.34 103.894C105.75 105.983 109.019 107.157 112.428 107.158C115.839 107.158 119.11 105.985 121.522 103.896C123.933 101.807 125.289 98.9733 125.29 96.0185V82.1215" stroke="#263238" stroke-linecap="round" stroke-linejoin="round"/>
<path d="M94.7607 56.1872H96.6678" stroke="#263238" stroke-width="3" stroke-linecap="round" stroke-linejoin="round"/>
<path d="M49.3223 79.3979C49.676 79.3979 50.0154 79.5194 50.2659 79.7358C50.5165 79.9522 50.6578 80.2458 50.6589 80.5523V96.0563C50.6584 100.222 51.605 104.348 53.4447 108.197C55.2844 112.046 57.9812 115.543 61.381 118.489C64.7809 121.435 68.8172 123.772 73.2596 125.366C77.7019 126.96 82.4633 127.781 87.2717 127.781V127.781C96.5016 127.781 105.353 124.604 111.88 118.95C118.407 113.295 122.073 105.626 122.073 97.6293V82.2234" stroke="#263238" stroke-linecap="round" stroke-linejoin="round"/>
<path d="M47.2188 79.3979H49.3217" stroke="#263238" stroke-width="3" stroke-linecap="round" stroke-linejoin="round"/>
<path d="M97.7822 103.725C98.3958 103.725 98.9843 103.936 99.4186 104.312C99.8528 104.687 100.097 105.197 100.099 105.728V123.835C100.099 127.137 101.612 130.303 104.307 132.638C107.001 134.972 110.656 136.284 114.467 136.284V136.284C118.277 136.284 121.932 134.972 124.627 132.638C127.321 130.303 128.835 127.137 128.835 123.835V82.6459" stroke="#263238" stroke-linecap="round" stroke-linejoin="round"/>
<path d="M95.0693 103.729H97.7819" stroke="#263238" stroke-width="3" stroke-linecap="round" stroke-linejoin="round"/>
<path d="M92.6968 47.9863H78.3678C77.1318 47.9863 76.1299 48.8544 76.1299 49.9252V62.3398C76.1299 63.4106 77.1318 64.2787 78.3678 64.2787H92.6968C93.9328 64.2787 94.9348 63.4106 94.9348 62.3398V49.9252C94.9348 48.8544 93.9328 47.9863 92.6968 47.9863Z" fill="#FF725E" stroke="#263238" stroke-linecap="round" stroke-linejoin="round"/>
<path d="M91.5948 55.7722V54.5387L90.158 54.3274C90.0367 53.8224 89.8079 53.3414 89.4831 52.9091L90.3539 51.8717L89.3438 50.9965L88.1508 51.751C87.6551 51.4694 87.1027 51.271 86.5224 51.1663L86.2786 49.8988H84.8548L84.611 51.1663C84.0369 51.2691 83.4903 51.4649 83 51.7434L81.7765 50.989L80.7708 51.8642L81.6416 52.9166C81.3196 53.3388 81.0921 53.8098 80.971 54.3048L79.4863 54.5198V55.7534L80.9623 55.9684C81.0777 56.4512 81.2946 56.9116 81.6024 57.3264L80.7316 58.3902L81.7373 59.2616L82.9521 58.5071C83.4395 58.7909 83.9847 58.9919 84.5587 59.0994L84.8026 60.3706H86.2263L86.4701 59.1107C87.0522 59.0133 87.6068 58.8185 88.1029 58.5373L89.3046 59.2918L90.3147 58.4204L89.4657 57.3905C89.7975 56.9601 90.031 56.4787 90.1536 55.9722L91.5948 55.7722ZM85.5514 58.1638C84.8625 58.1638 84.1891 57.9868 83.6163 57.6552C83.0435 57.3236 82.597 56.8523 82.3334 56.3009C82.0698 55.7495 82.0008 55.1427 82.1352 54.5573C82.2696 53.9719 82.6013 53.4342 83.0885 53.0121C83.5756 52.5901 84.1962 52.3026 84.8719 52.1862C85.5476 52.0698 86.2479 52.1295 86.8844 52.3579C87.5209 52.5863 88.0649 52.9731 88.4476 53.4694C88.8304 53.9657 89.0346 54.5492 89.0346 55.146C89.0346 55.9464 88.6677 56.714 88.0144 57.2799C87.3612 57.8459 86.4752 58.1638 85.5514 58.1638Z" fill="white" stroke="#263238" stroke-linecap="round" stroke-linejoin="round"/>
<path d="M91.1724 61.6607H79.4297V62.4944H91.1724V61.6607Z" fill="white" stroke="#263238" stroke-linecap="round" stroke-linejoin="round"/>
<path d="M85.3032 61.6607H79.4297V62.4944H85.3032V61.6607Z" fill="#263238" stroke="#263238" stroke-linecap="round" stroke-linejoin="round"/>
<path d="M68.6584 47.9976H54.5994C53.3105 47.9976 52.2656 48.9028 52.2656 50.0195V62.2002C52.2656 63.3169 53.3105 64.2221 54.5994 64.2221H68.6584C69.9473 64.2221 70.9922 63.3169 70.9922 62.2002V50.0195C70.9922 48.9028 69.9473 47.9976 68.6584 47.9976Z" fill="white" stroke="#263238" stroke-linecap="round" stroke-linejoin="round"/>
<path d="M63.105 61.5522C66.5746 60.8472 68.7275 57.8388 67.9137 54.8329C67.0999 51.8269 63.6276 49.9616 60.1581 50.6667C56.6886 51.3717 54.5357 54.3801 55.3494 57.386C56.1632 60.392 59.6355 62.2573 63.105 61.5522Z" fill="#263238" stroke="#263238" stroke-linecap="round" stroke-linejoin="round"/>
<path d="M59.5938 58.3977L61.6271 56.1117V52.015" stroke="white" stroke-linecap="round" stroke-linejoin="round"/>
<path d="M44.7551 47.9976H30.696C29.4072 47.9976 28.3623 48.9028 28.3623 50.0195V62.2002C28.3623 63.3169 29.4072 64.2221 30.696 64.2221H44.7551C46.044 64.2221 47.0888 63.3169 47.0888 62.2002V50.0195C47.0888 48.9028 46.044 47.9976 44.7551 47.9976Z" fill="white" stroke="#263238" stroke-linecap="round" stroke-linejoin="round"/>
<path d="M35.6904 58.3977L37.7281 56.1117V52.015" stroke="white" stroke-linecap="round" stroke-linejoin="round"/>
<path d="M42.9701 55.7458L34.4668 51.4907V59.9972L42.9701 55.7458Z" fill="#263238" stroke="#263238" stroke-linecap="round" stroke-linejoin="round"/>
<path d="M92.6968 71.8345H78.3678C77.1318 71.8345 76.1299 72.7026 76.1299 73.7735V86.188C76.1299 87.2589 77.1318 88.127 78.3678 88.127H92.6968C93.9328 88.127 94.9348 87.2589 94.9348 86.188V73.7735C94.9348 72.7026 93.9328 71.8345 92.6968 71.8345Z" fill="white" stroke="#263238" stroke-linecap="round" stroke-linejoin="round"/>
<path d="M85.2605 75.1466C81.9166 75.1466 79.2041 77.0327 79.2041 79.3414C79.2041 80.8503 80.3405 82.1517 82.0429 82.8948L81.0197 85.1129L84.2591 83.4758C84.591 83.5151 84.9255 83.5353 85.2605 83.5361C88.6 83.5361 91.3126 81.65 91.3126 79.3414C91.3126 77.0327 88.6 75.1466 85.2605 75.1466Z" fill="#263238" stroke="#263238" stroke-linecap="round" stroke-linejoin="round"/>
<path d="M92.6968 95.6828H78.3678C77.1318 95.6828 76.1299 96.5509 76.1299 97.6218V110.036C76.1299 111.107 77.1318 111.975 78.3678 111.975H92.6968C93.9328 111.975 94.9348 111.107 94.9348 110.036V97.6218C94.9348 96.5509 93.9328 95.6828 92.6968 95.6828Z" fill="#FF725E" stroke="#263238" stroke-linecap="round" stroke-linejoin="round"/>
<path d="M91.5948 103.469V102.235L90.158 102.028C90.0372 101.521 89.8084 101.039 89.4831 100.606L90.3539 99.5683L89.3438 98.6969L88.1508 99.4513C87.6563 99.1669 87.1036 98.9672 86.5224 98.8628L86.2786 97.5954H84.8548L84.611 98.8628C84.0366 98.967 83.4901 99.1641 83 99.4438L81.7765 98.6893L80.7708 99.5607L81.6416 100.617C81.3189 101.037 81.0913 101.507 80.971 102.001L79.4863 102.216V103.45L80.9623 103.665C81.0773 104.16 81.3005 104.631 81.6198 105.053L80.749 106.117L81.7548 106.992L82.9695 106.238C83.4581 106.519 84.003 106.718 84.5761 106.826L84.82 108.101H86.2437L86.4876 106.841C87.0685 106.74 87.6224 106.546 88.1203 106.268L89.322 107.022L90.3321 106.147L89.4831 105.117C89.8141 104.688 90.0476 104.208 90.171 103.703L91.5948 103.469ZM85.5514 105.86C84.8625 105.86 84.1891 105.683 83.6163 105.352C83.0435 105.02 82.597 104.549 82.3334 103.997C82.0698 103.446 82.0008 102.839 82.1352 102.254C82.2696 101.668 82.6013 101.131 83.0885 100.709C83.5756 100.287 84.1962 99.9992 84.8719 99.8828C85.5476 99.7663 86.2479 99.8261 86.8844 100.054C87.5209 100.283 88.0649 100.67 88.4476 101.166C88.8304 101.662 89.0346 102.246 89.0346 102.843C89.0346 103.643 88.6677 104.411 88.0144 104.977C87.3612 105.542 86.4752 105.86 85.5514 105.86Z" fill="white" stroke="#263238" stroke-linecap="round" stroke-linejoin="round"/>
<path d="M91.1724 109.357H79.4297V110.191H91.1724V109.357Z" fill="white" stroke="#263238" stroke-linecap="round" stroke-linejoin="round"/>
<path d="M81.3716 109.357H79.4297V110.191H81.3716V109.357Z" fill="#263238" stroke="#263238" stroke-linecap="round" stroke-linejoin="round"/>
<path d="M44.7551 71.8496H30.696C29.4072 71.8496 28.3623 72.7549 28.3623 73.8716V86.0522C28.3623 87.1689 29.4072 88.0742 30.696 88.0742H44.7551C46.044 88.0742 47.0888 87.1689 47.0888 86.0522V73.8716C47.0888 72.7549 46.044 71.8496 44.7551 71.8496Z" fill="#FF725E" stroke="#263238" stroke-linecap="round" stroke-linejoin="round"/>
<path d="M43.9278 79.6205V78.387L42.4866 78.1795C42.3697 77.6722 42.1405 77.1892 41.8118 76.7574L42.6826 75.72L41.6768 74.8486L40.4838 75.603C39.9881 75.3214 39.4357 75.1231 38.8554 75.0183L38.6116 73.7509H37.1878L36.944 75.0183C36.3689 75.1222 35.8211 75.3179 35.3287 75.5955L34.1095 74.841L33.1038 75.7162L33.9746 76.7724C33.6551 77.194 33.4292 77.6635 33.3084 78.1569L31.8193 78.3719V79.5828L33.2953 79.7978C33.413 80.2919 33.636 80.7627 33.9528 81.186L33.082 82.2498L34.0573 83.1249L35.2677 82.3705C35.7567 82.651 36.3014 82.8505 36.8743 82.959L37.1225 84.234H38.5463L38.7901 82.974C39.3716 82.8729 39.9257 82.6771 40.4228 82.3969L41.6245 83.1513L42.6303 82.28L41.7813 81.2501C42.1148 80.8206 42.3485 80.3388 42.4692 79.8318L43.9278 79.6205ZM37.8801 82.0121C37.1912 82.0121 36.5177 81.8351 35.9449 81.5035C35.3721 81.1719 34.9257 80.7006 34.662 80.1492C34.3984 79.5977 34.3294 78.991 34.4638 78.4056C34.5982 77.8202 34.93 77.2824 35.4171 76.8604C35.9042 76.4383 36.5249 76.1509 37.2006 76.0345C37.8762 75.918 38.5766 75.9778 39.2131 76.2062C39.8495 76.4346 40.3935 76.8214 40.7763 77.3177C41.159 77.814 41.3633 78.3974 41.3633 78.9943C41.3633 79.7947 40.9963 80.5623 40.3431 81.1282C39.6899 81.6942 38.8039 82.0121 37.8801 82.0121Z" fill="white" stroke="#263238" stroke-linecap="round" stroke-linejoin="round"/>
<path d="M43.5054 85.509H31.7627V86.3427H43.5054V85.509Z" fill="white" stroke="#263238" stroke-linecap="round" stroke-linejoin="round"/>
<path d="M42.3777 85.509H31.7627V86.3427H42.3777V85.509Z" fill="#263238" stroke="#263238" stroke-linecap="round" stroke-linejoin="round"/>
<path d="M44.7551 95.6979H30.696C29.4072 95.6979 28.3623 96.6032 28.3623 97.7198V109.9C28.3623 111.017 29.4072 111.922 30.696 111.922H44.7551C46.044 111.922 47.0888 111.017 47.0888 109.9V97.7198C47.0888 96.6032 46.044 95.6979 44.7551 95.6979Z" fill="white" stroke="#263238" stroke-linecap="round" stroke-linejoin="round"/>
<path d="M35.6904 106.098L37.7281 103.808V99.7116" stroke="white" stroke-linecap="round" stroke-linejoin="round"/>
<path d="M44.0363 100.3H31.4141V107.317H44.0363V100.3Z" fill="#263238" stroke="#263238" stroke-linecap="round" stroke-linejoin="round"/>
<path d="M31.4141 100.3L37.6229 104.857L43.9492 100.364" stroke="white" stroke-linecap="round" stroke-linejoin="round"/>
<path d="M31.4141 107.317L35.9379 103.763" stroke="white" stroke-linecap="round" stroke-linejoin="round"/>
<path d="M44.0365 107.317L39.3037 103.763" stroke="white" stroke-linecap="round" stroke-linejoin="round"/>
<path d="M176.872 102.145L181.857 143.561" stroke="#263238" stroke-width="2" stroke-miterlimit="10"/>
<path d="M181.056 135.635L178.792 133.564" stroke="#263238" stroke-width="2" stroke-miterlimit="10"/>
<path d="M179.481 134.183C179.476 133.866 179.394 133.554 179.238 133.268C179.083 132.982 178.858 132.728 178.579 132.523C178 132.074 174.944 130.961 174.661 131.893C174.339 132.904 177.465 134.896 179.481 134.183Z" fill="#FF725E" stroke="#263238" stroke-miterlimit="10"/>
<path d="M179.481 134.183L176.572 132.613" stroke="#263238" stroke-width="0.5" stroke-miterlimit="10"/>
<path d="M181.623 140.343L179.363 138.276" stroke="#263238" stroke-width="2" stroke-miterlimit="10"/>
<path d="M180.047 138.894C180.043 138.578 179.96 138.265 179.806 137.978C179.651 137.691 179.427 137.437 179.15 137.231C178.566 136.782 175.514 135.669 175.231 136.601C174.909 137.615 178.035 139.607 180.047 138.894Z" fill="#FF725E" stroke="#263238" stroke-miterlimit="10"/>
<path d="M180.046 138.894L177.138 137.325" stroke="#263238" stroke-width="0.5" stroke-miterlimit="10"/>
<path d="M179.672 124.141L177.408 122.07" stroke="#263238" stroke-width="2" stroke-miterlimit="10"/>
<path d="M178.095 122.692C178.091 122.375 178.008 122.063 177.853 121.776C177.698 121.489 177.473 121.234 177.194 121.029C176.615 120.58 173.559 119.467 173.276 120.399C172.949 121.414 176.08 123.402 178.095 122.692Z" fill="#FF725E" stroke="#263238" stroke-miterlimit="10"/>
<path d="M178.096 122.692L175.188 121.119" stroke="#263238" stroke-width="0.5" stroke-miterlimit="10"/>
<path d="M180.238 128.849L177.979 126.781" stroke="#263238" stroke-width="2" stroke-miterlimit="10"/>
<path d="M178.662 127.4C178.658 127.084 178.576 126.772 178.421 126.486C178.267 126.2 178.043 125.945 177.765 125.74C177.181 125.288 174.129 124.175 173.846 125.107C173.524 126.121 176.65 128.113 178.662 127.4Z" fill="#FF725E" stroke="#263238" stroke-miterlimit="10"/>
<path d="M178.661 127.4L175.753 125.831" stroke="#263238" stroke-width="0.5" stroke-miterlimit="10"/>
<path d="M178.749 116.491L176.489 114.42" stroke="#263238" stroke-width="2" stroke-miterlimit="10"/>
<path d="M177.173 115.042C177.168 114.726 177.086 114.415 176.931 114.128C176.777 113.842 176.553 113.588 176.276 113.382C175.692 112.933 172.64 111.817 172.357 112.752C172.035 113.76 175.161 115.751 177.173 115.042Z" fill="#FF725E" stroke="#263238" stroke-miterlimit="10"/>
<path d="M177.173 115.038L174.265 113.469" stroke="#263238" stroke-width="0.5" stroke-miterlimit="10"/>
<path d="M177.821 108.803L175.562 106.736" stroke="#263238" stroke-width="2" stroke-miterlimit="10"/>
<path d="M176.25 107.354C176.246 107.038 176.163 106.726 176.008 106.439C175.852 106.153 175.628 105.899 175.349 105.694C174.77 105.242 171.713 104.129 171.43 105.061C171.108 106.075 174.256 108.067 176.25 107.354Z" fill="#FF725E" stroke="#263238" stroke-miterlimit="10"/>
<path d="M176.249 107.354L173.341 105.785" stroke="#263238" stroke-width="0.5" stroke-miterlimit="10"/>
<path d="M180.674 132.847L182.394 130.418" stroke="#263238" stroke-width="2" stroke-miterlimit="10"/>
<path d="M181.871 131.146C181.803 130.838 181.811 130.521 181.894 130.217C181.977 129.912 182.134 129.625 182.354 129.377C182.816 128.834 185.542 127.2 186.047 128.06C186.595 128.977 184.009 131.485 181.871 131.146Z" fill="#FF725E" stroke="#263238" stroke-miterlimit="10"/>
<path d="M181.871 131.146L184.488 128.977" stroke="#263238" stroke-width="0.5" stroke-miterlimit="10"/>
<path d="M179.18 120.452L180.9 118.022" stroke="#263238" stroke-width="2" stroke-miterlimit="10"/>
<path d="M180.377 118.754C180.305 118.443 180.311 118.123 180.394 117.815C180.478 117.506 180.637 117.217 180.86 116.966C181.322 116.423 184.047 114.786 184.552 115.646C185.101 116.581 182.528 119.09 180.377 118.754Z" fill="#FF725E" stroke="#263238" stroke-miterlimit="10"/>
<path d="M180.377 118.754L182.994 116.585" stroke="#263238" stroke-width="0.5" stroke-miterlimit="10"/>
<path d="M178.526 115.004L180.246 112.575" stroke="#263238" stroke-width="2" stroke-miterlimit="10"/>
<path d="M179.72 113.307C179.649 112.996 179.657 112.676 179.741 112.367C179.825 112.059 179.984 111.77 180.207 111.519C180.665 110.976 183.39 109.339 183.895 110.199C184.448 111.134 181.862 113.643 179.72 113.307Z" fill="#FF725E" stroke="#263238" stroke-miterlimit="10"/>
<path d="M179.72 113.307L182.341 111.138" stroke="#263238" stroke-width="0.5" stroke-miterlimit="10"/>
<path d="M177.564 107.019L179.284 104.589" stroke="#263238" stroke-width="2" stroke-miterlimit="10"/>
<path d="M178.758 105.321C178.688 105.01 178.695 104.69 178.779 104.381C178.863 104.073 179.022 103.784 179.246 103.533C179.703 102.99 182.428 101.353 182.933 102.213C183.486 103.148 180.9 105.657 178.758 105.321Z" fill="#FF725E" stroke="#263238" stroke-miterlimit="10"/>
<path d="M178.758 105.321L181.379 103.152" stroke="#263238" stroke-width="0.5" stroke-miterlimit="10"/>
<path d="M176.829 101.915C176.757 101.604 176.763 101.284 176.847 100.975C176.93 100.667 177.089 100.377 177.312 100.127C177.774 99.5834 180.499 97.9462 181.004 98.8063C181.553 99.7418 178.967 102.25 176.829 101.915Z" fill="#FF725E" stroke="#263238" stroke-miterlimit="10"/>
<path d="M176.829 101.915L179.446 99.7456" stroke="#263238" stroke-width="0.5" stroke-miterlimit="10"/>
<path d="M176.981 102.009C176.616 102.037 176.249 101.997 175.904 101.892C175.558 101.787 175.243 101.62 174.978 101.402C174.403 100.949 172.801 98.4291 173.85 98.0858C174.982 97.7086 177.59 100.198 176.981 102.009Z" fill="#FF725E" stroke="#263238" stroke-miterlimit="10"/>
<path d="M176.981 102.009L174.765 99.523" stroke="#263238" stroke-width="0.5" stroke-miterlimit="10"/>
<path d="M190.03 107.848L185.066 149.264" stroke="#263238" stroke-width="2" stroke-miterlimit="10"/>
<path d="M186.164 141.365L184.444 138.936" stroke="#263238" stroke-width="2" stroke-miterlimit="10"/>
<path d="M184.967 139.668C185.039 139.357 185.033 139.036 184.949 138.728C184.866 138.42 184.707 138.13 184.484 137.879C184.022 137.336 181.296 135.703 180.791 136.563C180.243 137.498 182.829 140.003 184.967 139.668Z" fill="#FF725E" stroke="#263238" stroke-miterlimit="10"/>
<path d="M184.966 139.668L182.493 137.612" stroke="#263238" stroke-width="0.5" stroke-miterlimit="10"/>
<path d="M187.539 129.871L185.819 127.442" stroke="#263238" stroke-width="2" stroke-miterlimit="10"/>
<path d="M186.346 128.173C186.417 127.862 186.409 127.542 186.325 127.234C186.241 126.925 186.082 126.636 185.859 126.385C185.397 125.842 182.671 124.209 182.166 125.069C181.618 126.004 184.204 128.509 186.346 128.173Z" fill="#FF725E" stroke="#263238" stroke-miterlimit="10"/>
<path d="M186.347 128.173L183.874 126.118" stroke="#263238" stroke-width="0.5" stroke-miterlimit="10"/>
<path d="M186.978 134.583L185.254 132.153" stroke="#263238" stroke-width="2" stroke-miterlimit="10"/>
<path d="M185.78 132.881C185.851 132.571 185.844 132.251 185.759 131.943C185.675 131.636 185.516 131.347 185.293 131.097C184.831 130.554 182.11 128.917 181.605 129.78C181.052 130.716 183.638 133.221 185.78 132.881Z" fill="#FF725E" stroke="#263238" stroke-miterlimit="10"/>
<path d="M185.781 132.881L183.308 130.829" stroke="#263238" stroke-width="0.5" stroke-miterlimit="10"/>
<path d="M188.459 122.221L186.734 119.791" stroke="#263238" stroke-width="2" stroke-miterlimit="10"/>
<path d="M187.26 120.519C187.332 120.209 187.325 119.889 187.241 119.581C187.157 119.273 186.997 118.985 186.773 118.735C186.311 118.192 183.59 116.555 183.085 117.415C182.528 118.354 185.14 120.859 187.26 120.519Z" fill="#FF725E" stroke="#263238" stroke-miterlimit="10"/>
<path d="M187.261 120.52L184.788 118.464" stroke="#263238" stroke-width="0.5" stroke-miterlimit="10"/>
<path d="M189.377 114.537L187.657 112.107" stroke="#263238" stroke-width="2" stroke-miterlimit="10"/>
<path d="M188.188 112.835C188.259 112.525 188.253 112.204 188.17 111.896C188.086 111.588 187.928 111.298 187.705 111.047C187.243 110.504 184.517 108.871 184.012 109.731C183.455 110.666 186.041 113.175 188.188 112.835Z" fill="#FF725E" stroke="#263238" stroke-miterlimit="10"/>
<path d="M188.18 112.835L185.707 110.78" stroke="#263238" stroke-width="0.5" stroke-miterlimit="10"/>
<path d="M186.455 138.57L188.715 136.499" stroke="#263238" stroke-width="2" stroke-miterlimit="10"/>
<path d="M188.027 137.121C188.032 136.804 188.114 136.492 188.27 136.205C188.425 135.918 188.65 135.663 188.929 135.458C189.508 135.009 192.56 133.892 192.847 134.828C193.169 135.839 190.043 137.834 188.027 137.121Z" fill="#FF725E" stroke="#263238" stroke-miterlimit="10"/>
<path d="M188.027 137.121L191.106 135.465" stroke="#263238" stroke-width="0.5" stroke-miterlimit="10"/>
<path d="M187.94 126.174L190.2 124.103" stroke="#263238" stroke-width="2" stroke-miterlimit="10"/>
<path d="M189.495 124.726C189.499 124.409 189.582 124.096 189.738 123.809C189.893 123.522 190.118 123.267 190.396 123.062C190.975 122.613 194.028 121.497 194.315 122.432C194.655 123.443 191.528 125.439 189.495 124.726Z" fill="#FF725E" stroke="#263238" stroke-miterlimit="10"/>
<path d="M189.512 124.726L192.59 123.07" stroke="#263238" stroke-width="0.5" stroke-miterlimit="10"/>
<path d="M188.594 120.727L190.853 118.656" stroke="#263238" stroke-width="2" stroke-miterlimit="10"/>
<path d="M190.165 119.278C190.169 118.962 190.251 118.65 190.406 118.363C190.561 118.076 190.784 117.821 191.062 117.615C191.645 117.166 194.698 116.049 194.981 116.985C195.307 117.996 192.181 119.991 190.165 119.278Z" fill="#FF725E" stroke="#263238" stroke-miterlimit="10"/>
<path d="M190.165 119.278L193.243 117.622" stroke="#263238" stroke-width="0.5" stroke-miterlimit="10"/>
<path d="M189.547 112.741L191.807 110.67" stroke="#263238" stroke-width="2" stroke-miterlimit="10"/>
<path d="M191.123 111.293C191.127 110.976 191.209 110.664 191.364 110.377C191.519 110.09 191.742 109.835 192.02 109.629C192.599 109.18 195.656 108.063 195.939 108.999C196.261 110.01 193.135 112.024 191.123 111.293Z" fill="#FF725E" stroke="#263238" stroke-miterlimit="10"/>
<path d="M191.123 111.293L194.201 109.637" stroke="#263238" stroke-width="0.5" stroke-miterlimit="10"/>
<path d="M190.043 107.615C190.047 107.298 190.13 106.986 190.284 106.699C190.439 106.412 190.662 106.157 190.94 105.951C191.519 105.502 194.575 104.389 194.858 105.321C195.181 106.336 192.055 108.328 190.043 107.615Z" fill="#FF725E" stroke="#263238" stroke-miterlimit="10"/>
<path d="M190.043 107.615L193.121 105.959" stroke="#263238" stroke-width="0.5" stroke-miterlimit="10"/>
<path d="M190.169 107.735C189.806 107.698 189.456 107.594 189.143 107.43C188.83 107.266 188.561 107.046 188.354 106.785C187.897 106.238 186.939 103.488 188.04 103.337C189.238 103.171 191.197 106.072 190.169 107.735Z" fill="#FF725E" stroke="#263238" stroke-miterlimit="10"/>
<path d="M190.169 107.735L188.589 104.91" stroke="#263238" stroke-width="0.5" stroke-miterlimit="10"/>
<path d="M184.344 90.9826V143.357" stroke="#263238" stroke-width="2" stroke-miterlimit="10"/>
<path d="M184.392 135.484L182.389 133.221" stroke="#263238" stroke-width="2" stroke-miterlimit="10"/>
<path d="M182.999 133.904C183.032 133.588 182.987 133.27 182.867 132.971C182.747 132.671 182.554 132.398 182.302 132.168C181.78 131.67 178.875 130.282 178.475 131.187C178.039 132.164 180.913 134.428 182.999 133.904Z" fill="#FF725E" stroke="#263238" stroke-miterlimit="10"/>
<path d="M182.999 133.9L180.295 132.078" stroke="#263238" stroke-width="0.5" stroke-miterlimit="10"/>
<path d="M184.392 125.638L182.389 123.379" stroke="#263238" stroke-width="2" stroke-miterlimit="10"/>
<path d="M182.999 124.058C183.032 123.742 182.987 123.424 182.867 123.125C182.747 122.826 182.554 122.552 182.302 122.323C181.78 121.825 178.875 120.437 178.475 121.342C178.039 122.323 180.913 124.586 182.999 124.058Z" fill="#FF725E" stroke="#263238" stroke-miterlimit="10"/>
<path d="M182.999 124.058L180.295 122.232" stroke="#263238" stroke-width="0.5" stroke-miterlimit="10"/>
<path d="M184.392 114.084L182.389 111.821" stroke="#263238" stroke-width="2" stroke-miterlimit="10"/>
<path d="M182.999 112.5C183.032 112.185 182.988 111.867 182.867 111.568C182.747 111.27 182.554 110.997 182.302 110.768C181.78 110.266 178.875 108.882 178.475 109.787C178.039 110.768 180.913 113.028 182.999 112.5Z" fill="#FF725E" stroke="#263238" stroke-miterlimit="10"/>
<path d="M182.999 112.5L180.295 110.678" stroke="#263238" stroke-width="0.5" stroke-miterlimit="10"/>
<path d="M184.392 106.392L182.389 104.129" stroke="#263238" stroke-width="2" stroke-miterlimit="10"/>
<path d="M182.999 104.808C183.032 104.492 182.987 104.174 182.867 103.875C182.747 103.576 182.554 103.302 182.302 103.073C181.78 102.575 178.875 101.187 178.475 102.096C178.039 103.073 180.913 105.336 182.999 104.808Z" fill="#FF725E" stroke="#263238" stroke-miterlimit="10"/>
<path d="M182.999 104.808L180.295 102.986" stroke="#263238" stroke-width="0.5" stroke-miterlimit="10"/>
<path d="M184.392 98.6667L182.389 96.4034" stroke="#263238" stroke-width="2" stroke-miterlimit="10"/>
<path d="M182.999 97.0824C183.032 96.7668 182.987 96.4487 182.867 96.1495C182.747 95.8502 182.554 95.5766 182.302 95.3471C181.78 94.8492 178.875 93.461 178.475 94.3664C178.039 95.3471 180.913 97.6105 182.999 97.0824Z" fill="#FF725E" stroke="#263238" stroke-miterlimit="10"/>
<path d="M182.999 97.0824L180.295 95.2566" stroke="#263238" stroke-width="0.5" stroke-miterlimit="10"/>
<path d="M184.349 138.487L186.351 136.227" stroke="#263238" stroke-width="2" stroke-miterlimit="10"/>
<path d="M185.741 136.921C185.708 136.606 185.753 136.288 185.873 135.988C185.993 135.689 186.186 135.416 186.438 135.186C186.96 134.688 189.864 133.3 190.265 134.205C190.7 135.171 187.827 137.434 185.741 136.921Z" fill="#FF725E" stroke="#263238" stroke-miterlimit="10"/>
<path d="M185.741 136.906L188.606 134.982" stroke="#263238" stroke-width="0.5" stroke-miterlimit="10"/>
<path d="M184.349 122.836L186.351 120.572" stroke="#263238" stroke-width="2" stroke-miterlimit="10"/>
<path d="M185.741 121.251C185.708 120.936 185.753 120.618 185.873 120.318C185.993 120.019 186.186 119.746 186.438 119.516C186.96 119.018 189.864 117.63 190.265 118.535C190.7 119.516 187.827 121.779 185.741 121.251Z" fill="#FF725E" stroke="#263238" stroke-miterlimit="10"/>
<path d="M185.741 121.251L188.606 119.327" stroke="#263238" stroke-width="0.5" stroke-miterlimit="10"/>
<path d="M184.349 115.106L186.351 112.847" stroke="#263238" stroke-width="2" stroke-miterlimit="10"/>
<path d="M185.741 113.533C185.708 113.218 185.753 112.9 185.873 112.6C185.993 112.301 186.186 112.027 186.438 111.798C186.96 111.3 189.864 109.912 190.265 110.817C190.7 111.79 187.827 114.054 185.741 113.533Z" fill="#FF725E" stroke="#263238" stroke-miterlimit="10"/>
<path d="M185.741 113.526L188.606 111.602" stroke="#263238" stroke-width="0.5" stroke-miterlimit="10"/>
<path d="M184.349 104.895L186.351 102.635" stroke="#263238" stroke-width="2" stroke-miterlimit="10"/>
<path d="M185.741 103.31C185.708 102.995 185.753 102.678 185.873 102.379C185.993 102.081 186.186 101.808 186.438 101.579C186.96 101.081 189.864 99.6928 190.265 100.598C190.7 101.579 187.827 103.839 185.741 103.31Z" fill="#FF725E" stroke="#263238" stroke-miterlimit="10"/>
<path d="M185.741 103.31L188.606 101.39" stroke="#263238" stroke-width="0.5" stroke-miterlimit="10"/>
<path d="M184.349 96.8674L186.351 94.604" stroke="#263238" stroke-width="2" stroke-miterlimit="10"/>
<path d="M185.741 95.283C185.708 94.9657 185.753 94.6458 185.875 94.3451C185.997 94.0444 186.192 93.7699 186.447 93.5402C186.969 93.0423 189.873 91.6541 190.274 92.5632C190.7 93.5402 187.827 95.8036 185.741 95.283Z" fill="#FF725E" stroke="#263238" stroke-miterlimit="10"/>
<path d="M185.741 95.283L188.606 93.3629" stroke="#263238" stroke-width="0.5" stroke-miterlimit="10"/>
<path d="M184.226 91.722C184.192 91.407 184.237 91.0894 184.357 90.7907C184.477 90.492 184.67 90.2191 184.922 89.9905C185.445 89.4888 188.353 88.1044 188.754 89.0097C189.185 89.9905 186.316 92.2501 184.226 91.722Z" fill="#FF725E" stroke="#263238" stroke-miterlimit="10"/>
<path d="M184.227 91.722L187.091 89.8019" stroke="#263238" stroke-width="0.5" stroke-miterlimit="10"/>
<path d="M184.366 91.8276C184.001 91.8238 183.641 91.7522 183.31 91.6175C182.98 91.4827 182.686 91.2881 182.45 91.0467C181.932 90.545 180.652 87.8969 181.727 87.6517C182.899 87.3726 185.193 90.0848 184.366 91.8276Z" fill="#FF725E" stroke="#263238" stroke-miterlimit="10"/>
<path d="M184.366 91.8276L182.463 89.1606" stroke="#263238" stroke-width="0.5" stroke-miterlimit="10"/>
<path d="M186.829 156.941H180.429L179.628 142.934H187.631L186.829 156.941Z" fill="#263238" stroke="#263238" stroke-miterlimit="10"/>
<path d="M171.36 55.1687C168.726 53.2486 169.236 50.1893 169.236 50.1893C169.236 50.1893 158.473 58.6543 157.915 61.4156C157.358 64.1769 165.4 74.1432 166.623 75.705C166.778 75.8951 166.981 76.0524 167.215 76.1652C166.828 76.9898 166.638 77.8741 166.658 78.7643C166.689 81.8273 170.681 80.7409 172.292 79.813C172.756 79.531 173.116 79.1398 173.33 78.6858C173.545 78.2319 173.605 77.7341 173.503 77.2516C173.503 77.2516 171.487 77.9495 171.487 77.1384C171.487 76.3274 173.385 75.0561 173.385 75.0561L173.337 75.0259C173.729 74.7702 174.086 74.478 174.404 74.1546C176.481 71.993 173.015 69.5901 172.323 68.2698C171.63 66.9495 172.876 65.7499 175.37 63.9468C177.865 62.1437 173.995 57.0926 171.36 55.1687Z" fill="#263238" stroke="#263238" stroke-linecap="round" stroke-linejoin="round"/>
<path d="M131.878 73.7622C131.935 74.8142 131.9 75.8684 131.774 76.9158C131.733 77.5391 131.846 78.1628 132.106 78.7451C132.365 79.3274 132.766 79.8548 133.28 80.292C133.855 80.6692 136.711 81.4614 136.711 81.4614L137.181 79.2999L136.746 78.4021L137.316 75.1127C137.069 74.5043 136.757 73.9171 136.385 73.3586C135.862 72.6381 134.46 71.8723 134.356 71.7365C134.251 71.6007 132.536 71.9176 132.379 71.9176C132.061 71.9868 131.75 72.0763 131.447 72.1854L131.878 73.7622Z" fill="white" stroke="#263238" stroke-linecap="round" stroke-linejoin="round"/>
<path d="M130.994 71.563C130.994 71.563 130.102 71.6271 129.993 71.9402C129.884 72.2533 130.259 74.0187 130.481 74.181C130.703 74.3432 131.308 74.181 131.312 73.4642C131.317 72.7475 131.23 71.8459 130.994 71.563Z" fill="white" stroke="#263238" stroke-linecap="round" stroke-linejoin="round"/>
<path d="M132.022 71.3517C132.022 71.3517 131.047 71.3517 130.898 71.6762C130.75 72.0006 130.972 73.9395 131.199 74.1395C131.425 74.3394 132.096 74.2036 132.17 73.4265C132.244 72.6494 132.231 71.6611 132.022 71.3517Z" fill="white" stroke="#263238" stroke-linecap="round" stroke-linejoin="round"/>
<path d="M133.045 71.0236C133.045 71.0236 131.948 71.0236 131.778 71.4008C131.609 71.778 131.865 73.9622 132.118 74.1809C132.371 74.3997 133.128 74.2526 133.215 73.3775C133.302 72.5023 133.298 71.3895 133.045 71.0236Z" fill="white" stroke="#263238" stroke-linecap="round" stroke-linejoin="round"/>
<path d="M134.042 71.0311C134.042 71.0311 132.945 71.0311 132.775 71.4084C132.605 71.7856 132.858 73.966 133.11 74.1847C133.363 74.4035 134.125 74.2602 134.207 73.3812C134.29 72.5023 134.295 71.397 134.042 71.0311Z" fill="white" stroke="#263238" stroke-linecap="round" stroke-linejoin="round"/>
<path d="M136.811 77.6967C136.811 77.6967 137.247 75.8106 137.321 74.7694C137.395 73.7283 136.054 72.5061 135.714 72.1288C135.374 71.7516 135.379 70.4502 134.787 70.4502C134.195 70.4502 134.029 71.0349 134.029 71.0349C134.029 71.0349 133.689 71.9855 134.282 72.4948C134.719 72.9028 135.114 73.3433 135.462 73.8113C135.462 73.8113 133.689 76.7386 133.689 77.542C133.689 78.3455 135.379 79.2962 135.379 79.2962" fill="white"/>
<path d="M136.811 77.6967C136.811 77.6967 137.247 75.8106 137.321 74.7694C137.395 73.7283 136.054 72.5061 135.714 72.1288C135.374 71.7516 135.379 70.4502 134.787 70.4502C134.195 70.4502 134.029 71.0349 134.029 71.0349C134.029 71.0349 133.689 71.9855 134.282 72.4948C134.719 72.9028 135.114 73.3433 135.462 73.8113C135.462 73.8113 133.689 76.7386 133.689 77.542C133.689 78.3455 135.379 79.2962 135.379 79.2962" stroke="#263238" stroke-linecap="round" stroke-linejoin="round"/>
<path d="M137.077 79.1226L136.606 82.6346L147.731 85.7844L147.626 80.5184L137.077 79.1226Z" fill="#FF725E" stroke="#263238" stroke-linecap="round" stroke-linejoin="round"/>
<path d="M155.425 62.5511C155.425 62.5511 149.229 64.158 148.811 65.8367C148.393 67.5154 147.108 72.6268 147.108 72.6268C147.108 72.6268 145.58 76.1086 145.72 77.908C145.859 79.7073 147.108 83.3136 146.412 85.7128C145.715 88.1119 143.364 95.3207 142.811 97.7237C142.258 100.127 141.979 101.564 141.979 101.564L144.196 101.941L147.243 102.299C147.243 102.299 148.493 95.0944 149.464 88.8513C150.435 82.6082 147.94 78.289 150.296 74.1998C152.651 70.1107 158.333 66.0366 157.919 64.3542C157.506 62.6718 155.425 62.5511 155.425 62.5511Z" fill="#FF725E" stroke="#263238" stroke-linecap="round" stroke-linejoin="round"/>
<path d="M144.213 97.2521C144.213 97.2521 143.381 106.019 145.044 112.503C145.972 116.214 147.176 119.868 148.65 123.443C148.65 123.443 150.587 134.005 151.976 137.732C153.239 141.018 153.757 144.484 153.5 147.94C153.221 150.818 150.866 154.542 149.755 155.262C148.645 155.983 146.429 157.665 149.202 158.28C151.976 158.895 155.555 157.499 157.24 157.439C160.566 157.318 160.984 155.398 160.984 153.599C160.984 151.799 159.042 145.677 159.6 142.55C160.157 139.422 160.292 129.101 159.735 126.329C159.177 123.556 158.903 121.048 158.903 121.048L158.49 98.5913L144.766 96.9126L144.213 97.2521Z" fill="#263238" stroke="#263238" stroke-linecap="round" stroke-linejoin="round"/>
<path d="M159.496 144.406C156.296 145.605 154.502 145.386 153.514 144.892C153.585 145.904 153.575 146.918 153.483 147.929C153.204 150.807 150.849 154.53 149.739 155.251C148.628 155.971 146.412 157.654 149.186 158.269C151.959 158.883 155.538 157.488 157.223 157.427C160.55 157.307 160.968 155.387 160.968 153.587C160.968 152.086 159.648 147.661 159.496 144.406Z" fill="white" stroke="#263238" stroke-linecap="round" stroke-linejoin="round"/>
<path d="M160.954 153.289C160.952 153.27 160.952 153.251 160.954 153.233C160.954 153.131 160.932 153.021 160.915 152.908C160.917 152.883 160.917 152.858 160.915 152.833C160.898 152.722 160.88 152.605 160.863 152.482C160.863 152.482 160.863 152.456 160.863 152.44C160.841 152.312 160.819 152.173 160.793 152.033L160.767 151.901C160.741 151.773 160.715 151.637 160.689 151.497C160.689 151.422 160.658 151.347 160.645 151.271V151.222C160.453 151.392 160.249 151.569 160.031 151.769C157.815 153.81 154.763 156.092 151.576 156.092C150.056 156.092 149.673 155.715 149.686 155.311C148.554 156.066 146.521 157.669 149.22 158.254C151.994 158.853 155.573 157.473 157.258 157.412C160.584 157.292 161.002 155.372 161.002 153.572C160.979 153.487 160.963 153.392 160.954 153.289Z" fill="#FF725E" stroke="#263238" stroke-linecap="round" stroke-linejoin="round"/>
<path d="M158.194 155.734C155.56 157.533 152.791 157.774 150.435 157.774C148.611 157.774 148.119 157.129 147.988 156.835C147.67 157.409 147.832 157.967 149.186 158.254C151.959 158.853 155.538 157.473 157.223 157.412C160.358 157.299 160.907 155.59 160.963 153.885C160.297 154.315 159.37 154.926 158.194 155.734Z" fill="white" stroke="#263238" stroke-linecap="round" stroke-linejoin="round"/>
<path d="M153.065 110.583C153.065 110.583 154.454 125.831 155.56 129.916C156.666 134.002 159.043 148.166 159.043 150.09C159.043 152.014 157.519 154.772 156.687 155.971C155.856 157.171 153.64 157.412 153.64 158.495C153.64 159.578 158.072 159.574 158.904 159.695C159.735 159.815 165.435 158.495 165.557 157.895C165.678 157.295 165.696 154.772 165.696 154.772C165.773 154.093 165.773 153.41 165.696 152.731C165.557 151.89 163.893 149.37 163.893 149.37C163.893 149.37 165.422 137.6 165.835 135.68C166.249 133.76 166.114 129.796 165.975 127.992C165.835 126.189 164.573 122.587 164.573 122.587L167.342 103.495L167.067 97.3691C167.067 97.3691 163.184 97.7463 158.886 97.7463H151.541L151.82 102.307" fill="#263238"/>
<path d="M153.065 110.583C153.065 110.583 154.454 125.831 155.56 129.916C156.666 134.002 159.043 148.166 159.043 150.09C159.043 152.014 157.519 154.772 156.687 155.971C155.856 157.171 153.64 157.412 153.64 158.495C153.64 159.578 158.072 159.574 158.904 159.695C159.735 159.815 165.435 158.495 165.557 157.895C165.678 157.295 165.696 154.772 165.696 154.772C165.773 154.093 165.773 153.41 165.696 152.731C165.557 151.89 163.893 149.37 163.893 149.37C163.893 149.37 165.422 137.6 165.835 135.68C166.249 133.76 166.114 129.796 165.975 127.992C165.835 126.189 164.573 122.587 164.573 122.587L167.342 103.495L167.067 97.3691C167.067 97.3691 163.184 97.7463 158.886 97.7463H151.541L151.82 102.307" stroke="#263238" stroke-linecap="round" stroke-linejoin="round"/>
<path d="M165.548 157.895C165.687 157.292 165.687 154.772 165.687 154.772C165.764 154.093 165.764 153.41 165.687 152.731C165.548 151.89 163.885 149.37 163.885 149.37C163.885 149.37 164.115 147.616 164.416 145.352C163.442 145.679 162.397 145.815 161.356 145.749C160.315 145.684 159.303 145.42 158.394 144.975C158.777 147.469 159.034 149.438 159.034 150.071C159.034 151.992 157.51 154.753 156.679 155.952C155.847 157.152 153.631 157.393 153.631 158.476C153.631 159.559 158.063 159.555 158.895 159.676C159.726 159.796 165.404 158.495 165.548 157.895Z" fill="white" stroke="#263238" stroke-linecap="round" stroke-linejoin="round"/>
<path d="M165.547 157.895C165.687 157.292 165.687 154.772 165.687 154.772C165.764 154.093 165.764 153.41 165.687 152.731C165.608 152.244 165.021 151.199 164.537 150.403C164.502 150.46 164.472 150.509 164.441 150.569C163.61 152.01 160.048 155.76 158.385 156.605C156.722 157.45 156.265 156.458 156.265 156.458H156.221C155.228 157.265 153.726 157.59 153.631 158.499C153.448 160.211 158.855 160.098 159.661 159.876C160.466 159.653 165.404 158.495 165.547 157.895Z" fill="#FF725E" stroke="#263238" stroke-linecap="round" stroke-linejoin="round"/>
<path d="M165.547 157.895C165.644 157.108 165.689 156.317 165.682 155.526C162.947 157.387 159.633 158.498 156.165 158.717C154.567 158.804 153.914 158.189 153.8 158.065C153.707 158.195 153.649 158.342 153.631 158.495C153.448 160.208 158.855 160.094 159.661 159.872C160.466 159.649 165.404 158.495 165.547 157.895Z" fill="white" stroke="#263238" stroke-linecap="round" stroke-linejoin="round"/>
<path d="M154.594 63.1508C154.594 63.1508 149.186 72.276 147.941 74.7996C146.695 77.3233 147.244 81.4011 147.244 82.8421C147.244 84.2831 144.196 97.2521 144.196 97.2521C144.196 97.2521 146.97 99.7758 154.315 99.5344C161.66 99.293 166.097 97.735 166.097 97.735C166.097 97.735 164.434 85.8448 164.434 83.3249C164.434 80.8051 168.034 69.9937 167.621 67.1042C167.207 64.2146 162.213 64.4636 160.968 64.2222C159.723 63.9807 154.594 63.1508 154.594 63.1508Z" fill="white" stroke="#263238" stroke-linecap="round" stroke-linejoin="round"/>
<path d="M148.389 46.1153C148.389 46.1153 146.825 50.7212 147.391 51.2908C147.853 51.8874 148.225 52.5327 148.497 53.2109C148.497 53.2109 146.839 55.9949 147.278 56.3796C147.709 56.6762 148.197 56.9036 148.719 57.0511C148.719 57.0511 149.717 61.2006 150.605 61.3741C151.493 61.5476 156.7 60.3179 156.7 60.3179C156.7 60.3179 159.805 57.9149 158.586 53.5957C157.366 49.2764 152.49 46.202 151.619 45.8173C150.748 45.4325 148.389 46.1153 148.389 46.1153Z" fill="white" stroke="#263238" stroke-linecap="round" stroke-linejoin="round"/>
<path d="M151.18 53.0261V54.0823C151.18 54.0823 152.556 54.1578 153.222 53.773" stroke="#263238" stroke-linecap="round" stroke-linejoin="round"/>
<path d="M150.696 52.5395C151.068 52.3691 151.484 52.2835 151.904 52.2907C152.325 52.298 152.736 52.3979 153.1 52.5809" stroke="#263238" stroke-linecap="round" stroke-linejoin="round"/>
<path d="M149.469 52.5395C149.469 52.5395 149.961 51.6492 151.872 51.6492C153.784 51.6492 154.868 52.1585 155.011 52.4565C155.056 52.5375 155.075 52.6273 155.067 52.7167C155.058 52.8061 155.023 52.892 154.964 52.9657C154.964 52.9657 154.964 54.7085 154.424 55.1763C153.884 55.644 151.924 56.1118 150.94 55.727C149.956 55.3422 149.421 53.6862 149.421 53.3052C149.421 52.9242 149.469 52.5395 149.469 52.5395Z" stroke="#263238" stroke-linecap="round" stroke-linejoin="round"/>
<path d="M155.011 52.4565H155.799" stroke="#263238" stroke-linecap="round" stroke-linejoin="round"/>
<path d="M149.469 52.5394C149.469 52.5394 148.637 51.9434 148.293 52.6677" stroke="#263238" stroke-linecap="round" stroke-linejoin="round"/>
<path d="M147.949 52.5395C147.452 52.4285 146.942 52.3715 146.429 52.3697C145.593 52.3697 145.349 52.6677 145.397 52.796C145.56 53.1937 145.66 53.6086 145.693 54.0295C145.693 54.4935 145.741 55.2178 146.233 55.429C146.574 55.5668 146.939 55.6536 147.313 55.6855" stroke="#263238" stroke-linecap="round" stroke-linejoin="round"/>
<path d="M159.164 63.8713C159.164 63.8713 155.424 72.0345 154.453 76.599C153.483 81.1634 153.896 104.819 153.896 104.819C156.403 105.846 159.171 106.3 161.938 106.14C166.649 105.898 171.517 103.258 171.517 103.258C171.517 103.258 170.406 96.294 168.608 91.3674C166.81 86.4408 166.113 84.1661 166.113 84.1661C166.113 84.1661 169.714 68.1944 169.44 66.5119C169.166 64.8295 159.164 63.8713 159.164 63.8713Z" fill="#FF725E" stroke="#263238" stroke-linecap="round" stroke-linejoin="round"/>
<path d="M152.05 41.5999C152.05 41.5999 146.621 42.9466 146.621 43.7123C146.621 44.4781 146.399 45.5381 150.056 47.7449C153.713 49.9517 156.374 51.9698 156.587 54.6595C156.8 57.3491 153.705 64.4674 153.039 66.7571C152.372 69.0469 152.708 72.4155 154.811 72.9022C156.914 73.3888 156.252 73.0945 156.03 72.0383C155.808 70.9821 157.027 66.5647 160.684 65.1275C164.342 63.6903 168.308 61.3779 169.109 57.0586C169.945 52.5545 169.61 46.0361 164.233 42.4637C158.855 38.8914 152.05 41.5999 152.05 41.5999Z" fill="#263238" stroke="#263238" stroke-linecap="round" stroke-linejoin="round"/>
<path d="M162.064 72.755L160.675 83.804L159.844 84.0454V84.6452L159.012 85.0036L158.598 85.4864L139.332 83.9247C139.332 83.9247 134.895 83.4456 134.064 83.4456C133.232 83.4456 130.045 83.0684 130.045 83.0684C130.045 83.0684 130.48 84.1511 131.155 84.268C131.83 84.3849 135.453 85.4713 135.453 85.4713C135.453 85.4713 137.808 86.5502 139.332 86.5502C140.856 86.5502 143.211 86.6709 143.211 86.6709C143.211 86.6709 153.33 89.0739 156.517 89.5529C159.704 90.032 162.339 91.1147 163.449 90.7525C164.13 90.5285 164.745 90.1751 165.249 89.7181C165.752 89.2612 166.131 88.7123 166.357 88.1119C166.793 86.7916 168.578 78.6247 168.578 78.6247C168.578 78.6247 170.794 70.3257 170.794 68.3C170.794 66.2743 167.607 65.1765 164.698 66.4968" fill="#FF725E"/>
<path d="M162.064 72.755L160.675 83.804L159.844 84.0454V84.6452L159.012 85.0036L158.598 85.4864L139.332 83.9247C139.332 83.9247 134.895 83.4456 134.064 83.4456C133.232 83.4456 130.045 83.0684 130.045 83.0684C130.045 83.0684 130.48 84.1511 131.155 84.268C131.83 84.3849 135.453 85.4713 135.453 85.4713C135.453 85.4713 137.808 86.5502 139.332 86.5502C140.856 86.5502 143.211 86.6709 143.211 86.6709C143.211 86.6709 153.33 89.0739 156.517 89.5529C159.704 90.032 162.338 91.1147 163.449 90.7525C164.13 90.5285 164.745 90.1751 165.249 89.7181C165.752 89.2612 166.131 88.7123 166.357 88.1119C166.793 86.7916 168.578 78.6247 168.578 78.6247C168.578 78.6247 170.794 70.3257 170.794 68.3C170.794 66.2743 167.607 65.1765 164.698 66.4968" stroke="#263238" stroke-linecap="round" stroke-linejoin="round"/>
<path d="M159.056 90.066L157.58 85.3997L139.346 83.9247C139.346 83.9247 134.909 83.4456 134.077 83.4456C133.246 83.4456 130.059 83.0684 130.059 83.0684C130.059 83.0684 130.494 84.1511 131.169 84.268C131.844 84.385 135.466 85.4714 135.466 85.4714C135.466 85.4714 137.822 86.5502 139.346 86.5502C140.87 86.5502 143.225 86.6709 143.225 86.6709C143.225 86.6709 153.344 89.0739 156.531 89.5529C157.423 89.7038 158.272 89.8849 159.056 90.066Z" fill="white" stroke="#263238" stroke-linecap="round" stroke-linejoin="round"/>
<path d="M161.089 88.6552L161.52 89.2059" stroke="#263238" stroke-linecap="round" stroke-linejoin="round"/>
<path d="M158.612 85.4865L160.563 87.9799" stroke="#263238" stroke-linecap="round" stroke-linejoin="round"/>
<path d="M159.857 84.6452L162.631 86.3277" stroke="#263238" stroke-linecap="round" stroke-linejoin="round"/>
<path d="M130.903 83.2608C130.963 83.4354 131.08 83.5913 131.24 83.7098C131.4 83.8282 131.596 83.9041 131.805 83.9285C132.51 83.9813 134.561 84.981 134.752 84.981" stroke="#263238" stroke-linecap="round" stroke-linejoin="round"/>
<path d="M133.215 83.4268C133.566 83.702 133.98 83.9102 134.43 84.0379C135.259 84.2778 136.073 84.5561 136.868 84.8716" stroke="#263238" stroke-linecap="round" stroke-linejoin="round"/>
<path d="M142.96 84.4264C142.96 84.4264 140.095 83.589 139.86 83.6456C139.184 83.7114 138.501 83.6936 137.831 83.5928C136.868 83.4834 136.289 84.4264 137.06 84.7056C137.592 84.8779 138.164 84.9348 138.728 84.8716C138.984 84.8716 139.751 85.0941 139.947 85.0941" fill="white"/>
<path d="M142.96 84.4264C142.96 84.4264 140.095 83.589 139.86 83.6456C139.184 83.7114 138.501 83.6936 137.831 83.5928C136.868 83.4834 136.289 84.4264 137.06 84.7056C137.592 84.8779 138.164 84.9348 138.728 84.8716C138.984 84.8716 139.751 85.0941 139.947 85.0941" stroke="#263238" stroke-linecap="round" stroke-linejoin="round"/>
<path d="M120.454 81.8538L147.462 84.4868L147.375 83.6795L120.284 81.1936L120.454 81.8538Z" fill="white" stroke="#263238" stroke-linecap="round" stroke-linejoin="round"/>
<path d="M120.283 81.1936L114.963 69.0544L130.158 70.1522L135.139 82.6572L120.283 81.1936Z" fill="white" stroke="#263238" stroke-linecap="round" stroke-linejoin="round"/>
<path d="M135.139 82.6572V83.2834L147.461 84.4868L147.374 83.6795L135.126 82.5554L135.139 82.6572Z" fill="#263238" stroke="#263238" stroke-linecap="round" stroke-linejoin="round"/>
</svg>
