<svg width="200" height="160" viewBox="0 0 200 160" fill="none" xmlns="http://www.w3.org/2000/svg">
<path d="M31.4267 42.417H172.874C173.904 42.417 174.892 42.7389 175.621 43.3121C176.349 43.8852 176.758 44.6625 176.758 45.4729V122.872H27.543V45.4777C27.5422 45.076 27.642 44.6781 27.8369 44.3068C28.0317 43.9355 28.3176 43.598 28.6784 43.3137C29.0391 43.0295 29.4675 42.8039 29.9391 42.6501C30.4107 42.4962 30.9162 42.417 31.4267 42.417Z" fill="#263238"/>
<path d="M177.067 123.11H27.2412V45.4777C27.2412 44.6036 27.6821 43.7653 28.467 43.1468C29.2518 42.5283 30.3166 42.1802 31.4274 42.179H172.875C173.986 42.1802 175.052 42.5282 175.838 43.1465C176.623 43.7649 177.066 44.6032 177.067 45.4777V123.11ZM27.8462 122.634H176.462V45.4777C176.461 44.7295 176.082 44.0122 175.41 43.4831C174.737 42.954 173.826 42.6562 172.875 42.655H31.4274C30.4771 42.6562 29.5662 42.9542 28.8947 43.4834C28.2233 44.0126 27.8462 44.7299 27.8462 45.4777V122.634Z" fill="#263238"/>
<path d="M194.707 159.762H9.59484C7.55014 159.762 5.82605 157.453 6.73346 156.011L27.5435 124.2H176.765L197.684 155.902C198.597 157.339 196.782 159.762 194.707 159.762Z" fill="#263238"/>
<path d="M194.707 160H9.59468C9.02124 159.972 8.46649 159.828 7.98278 159.584C7.49907 159.34 7.10237 159.003 6.83009 158.605C6.48688 158.216 6.27233 157.765 6.20579 157.294C6.13926 156.823 6.22284 156.346 6.44898 155.906L27.3437 123.962H176.946L177.031 124.085L197.95 155.792C198.174 156.242 198.253 156.728 198.179 157.208C198.105 157.687 197.881 158.145 197.526 158.539C197.247 158.947 196.843 159.294 196.351 159.549C195.859 159.804 195.294 159.959 194.707 160ZM27.743 124.438L6.99948 156.13C6.82036 156.496 6.75921 156.892 6.82149 157.282C6.88376 157.671 7.06752 158.042 7.35639 158.363C7.57653 158.689 7.89643 158.966 8.28722 159.171C8.678 159.375 9.12735 159.5 9.59468 159.534H194.707C195.191 159.493 195.655 159.358 196.057 159.143C196.459 158.927 196.787 158.636 197.012 158.296C197.31 157.97 197.502 157.592 197.572 157.195C197.642 156.797 197.586 156.393 197.411 156.016L176.577 124.438H27.743Z" fill="#263238"/>
<path d="M194.707 158.434H9.59511C9.12663 158.434 8.66582 158.34 8.25631 158.161C7.84681 157.982 7.50217 157.724 7.25501 157.411C7.00786 157.098 6.86638 156.74 6.84397 156.372C6.82156 156.004 6.91896 155.637 7.12694 155.307L27.5437 122.872H176.765L197.176 155.307C197.384 155.637 197.481 156.004 197.459 156.372C197.436 156.74 197.295 157.098 197.048 157.411C196.8 157.724 196.456 157.982 196.046 158.161C195.637 158.34 195.176 158.434 194.707 158.434Z" fill="white"/>
<path d="M194.707 158.672H9.59431C9.07238 158.676 8.55798 158.574 8.10019 158.377C7.6424 158.179 7.25648 157.893 6.97925 157.545C6.70202 157.197 6.54272 156.799 6.51654 156.389C6.49036 155.979 6.59819 155.57 6.82973 155.202L27.2465 122.767C27.2703 122.726 27.3087 122.692 27.3571 122.668C27.4056 122.644 27.4618 122.632 27.5188 122.634H176.764C176.82 122.633 176.875 122.645 176.923 122.668C176.97 122.692 177.008 122.726 177.03 122.767L197.447 155.202C197.678 155.569 197.786 155.975 197.76 156.384C197.735 156.793 197.578 157.189 197.304 157.537C197.029 157.884 196.647 158.171 196.192 158.37C195.738 158.568 195.227 158.672 194.707 158.672ZM27.7426 123.11L7.39837 155.411C7.21301 155.705 7.12609 156.032 7.14585 156.36C7.16562 156.687 7.29141 157.006 7.51132 157.285C7.73123 157.563 8.03797 157.794 8.40248 157.953C8.767 158.113 9.17723 158.196 9.59431 158.196H194.707C195.124 158.196 195.534 158.113 195.898 157.953C196.263 157.794 196.57 157.563 196.79 157.285C197.01 157.006 197.135 156.687 197.155 156.36C197.175 156.032 197.088 155.705 196.903 155.411L176.577 123.11H27.7426Z" fill="#263238"/>
<path d="M167.727 48.786H36.5811V116.498H167.727V48.786Z" fill="white"/>
<path d="M168.023 116.736H36.2783V48.5527H168.023V116.736ZM36.8833 116.26H167.418V49.0287H36.8833V116.26Z" fill="#263238"/>
<path d="M164.799 79.6454H39.9873V114.061H164.799V79.6454Z" fill="#FF725E"/>
<path opacity="0.46" d="M55.9396 100.342V99.4854C55.9396 99.3591 55.8759 99.238 55.7624 99.1488C55.649 99.0595 55.4951 99.0093 55.3347 99.0093H54.4999C54.3729 98.5729 54.1541 98.1562 53.8526 97.7765L54.4575 97.3005C54.563 97.2122 54.6217 97.0956 54.6217 96.9744C54.6217 96.8532 54.563 96.7366 54.4575 96.6484L53.6771 96.0343C53.5646 95.9499 53.4152 95.9028 53.2597 95.9028C53.1043 95.9028 52.9548 95.9499 52.8423 96.0343L52.2374 96.5103C51.7532 96.2722 51.2215 96.1 50.6645 96.001V95.3298C50.6645 95.2036 50.6008 95.0825 50.4874 94.9932C50.3739 94.904 50.22 94.8538 50.0596 94.8538H48.9586C48.7982 94.8538 48.6443 94.904 48.5308 94.9932C48.4174 95.0825 48.3537 95.2036 48.3537 95.3298V96.001C47.799 96.1009 47.2694 96.273 46.7869 96.5103L46.1819 96.0343C46.0697 95.9513 45.9215 95.9051 45.7675 95.9051C45.6135 95.9051 45.4653 95.9513 45.3531 96.0343L44.603 96.6293C44.4975 96.7176 44.4388 96.8342 44.4388 96.9554C44.4388 97.0765 44.4975 97.1932 44.603 97.2814L45.208 97.7574C44.9064 98.1371 44.6876 98.5538 44.5607 98.9903H43.7319C43.5715 98.9903 43.4176 99.0405 43.3041 99.1297C43.1907 99.219 43.127 99.3401 43.127 99.4663V100.333C43.127 100.459 43.1907 100.58 43.3041 100.669C43.4176 100.759 43.5715 100.809 43.7319 100.809H44.5849C44.7107 101.247 44.9296 101.665 45.2321 102.046L44.6272 102.522C44.5217 102.611 44.463 102.727 44.463 102.848C44.463 102.97 44.5217 103.086 44.6272 103.174L45.4076 103.788C45.5198 103.871 45.668 103.918 45.822 103.918C45.976 103.918 46.1242 103.871 46.2364 103.788L46.8413 103.312C47.3238 103.55 47.8534 103.722 48.4081 103.822V104.493C48.4081 104.619 48.4718 104.74 48.5853 104.83C48.6987 104.919 48.8526 104.969 49.013 104.969H50.114C50.2745 104.969 50.4283 104.919 50.5418 104.83C50.6552 104.74 50.719 104.619 50.719 104.493V103.822C51.2759 103.723 51.8076 103.551 52.2918 103.312L52.8968 103.788C53.0093 103.873 53.1587 103.92 53.3142 103.92C53.4696 103.92 53.6191 103.873 53.7316 103.788L54.512 103.174C54.6175 103.086 54.6762 102.97 54.6762 102.848C54.6762 102.727 54.6175 102.611 54.512 102.522L53.907 102.046C54.2096 101.665 54.4284 101.247 54.5543 100.809H55.4073C55.5528 100.795 55.6869 100.74 55.7848 100.654C55.8828 100.568 55.9378 100.457 55.9396 100.342ZM49.7813 101.865C49.2646 101.907 48.7443 101.821 48.2919 101.62C47.8395 101.419 47.4771 101.113 47.2544 100.744C47.0317 100.375 46.9597 99.9607 47.0481 99.558C47.1366 99.1553 47.3812 98.784 47.7485 98.4951C48.1157 98.2061 48.5876 98.0136 49.0994 97.944C49.6111 97.8744 50.1377 97.9311 50.6069 98.1063C51.0762 98.2816 51.465 98.5667 51.72 98.9227C51.9751 99.2787 52.084 99.688 52.0317 100.095C51.9733 100.549 51.7175 100.973 51.3074 101.295C50.8974 101.618 50.3583 101.819 49.7813 101.865Z" fill="white"/>
<path opacity="0.46" d="M66.3263 106.411V105.545C66.3263 105.419 66.2626 105.298 66.1491 105.208C66.0357 105.119 65.8818 105.069 65.7214 105.069H64.9047C64.7767 104.63 64.5558 104.212 64.2513 103.831L64.8563 103.355C64.9635 103.267 65.0234 103.149 65.0234 103.027C65.0234 102.905 64.9635 102.787 64.8563 102.698L64.0759 102.084C63.9634 102 63.8139 101.953 63.6585 101.953C63.5031 101.953 63.3536 102 63.2411 102.084L62.6361 102.56C62.1514 102.323 61.6199 102.151 61.0633 102.051V101.389C61.0633 101.263 60.9996 101.142 60.8861 101.053C60.7727 100.964 60.6188 100.913 60.4583 100.913H59.3513C59.1909 100.913 59.037 100.964 58.9236 101.053C58.8101 101.142 58.7464 101.263 58.7464 101.389V102.061C58.1898 102.16 57.6582 102.333 57.1735 102.57L56.5686 102.094C56.4561 102.01 56.3066 101.962 56.1512 101.962C55.9957 101.962 55.8463 102.01 55.7338 102.094L54.9534 102.708C54.8461 102.796 54.7863 102.914 54.7863 103.036C54.7863 103.159 54.8461 103.276 54.9534 103.365L55.5583 103.841C55.2513 104.221 55.0302 104.639 54.905 105.078H54.0581C53.8976 105.078 53.7438 105.129 53.6303 105.218C53.5169 105.307 53.4531 105.428 53.4531 105.554V106.421C53.4531 106.547 53.5169 106.668 53.6303 106.757C53.7438 106.847 53.8976 106.897 54.0581 106.897H54.905C55.0303 107.334 55.2514 107.752 55.5583 108.13L54.9534 108.606C54.8461 108.694 54.7863 108.812 54.7863 108.934C54.7863 109.056 54.8461 109.174 54.9534 109.263L55.7338 109.872C55.8463 109.956 55.9957 110.003 56.1512 110.003C56.3066 110.003 56.4561 109.956 56.5686 109.872L57.1735 109.396C57.6582 109.633 58.1898 109.805 58.7464 109.905V110.576C58.7464 110.703 58.8101 110.824 58.9236 110.913C59.037 111.002 59.1909 111.052 59.3513 111.052H60.4583C60.6188 111.052 60.7727 111.002 60.8861 110.913C60.9996 110.824 61.0633 110.703 61.0633 110.576V109.905C61.6199 109.805 62.1514 109.633 62.6361 109.396L63.2411 109.872C63.3536 109.956 63.5031 110.003 63.6585 110.003C63.8139 110.003 63.9634 109.956 64.0759 109.872L64.8563 109.263C64.9635 109.174 65.0234 109.056 65.0234 108.934C65.0234 108.812 64.9635 108.694 64.8563 108.606L64.2513 108.13C64.5558 107.751 64.7767 107.334 64.9047 106.897H65.7516C65.9088 106.891 66.0569 106.836 66.1642 106.746C66.2715 106.655 66.3296 106.535 66.3263 106.411ZM60.168 107.954C59.6497 107.996 59.1276 107.91 58.6733 107.71C58.2191 107.509 57.855 107.202 57.6312 106.832C57.4073 106.462 57.3346 106.046 57.4231 105.642C57.5116 105.238 57.7569 104.865 58.1253 104.575C58.4937 104.286 58.9672 104.093 59.4807 104.023C59.9942 103.953 60.5224 104.011 60.9929 104.187C61.4634 104.363 61.853 104.649 62.1083 105.007C62.3635 105.364 62.4718 105.775 62.4184 106.183C62.3589 106.636 62.1027 107.06 61.6928 107.383C61.283 107.705 60.7445 107.907 60.168 107.954Z" fill="white"/>
<path d="M67.5061 82.9584H44.8812C44.8122 82.9584 44.7461 82.9368 44.6973 82.8985C44.6485 82.8601 44.6211 82.808 44.6211 82.7537C44.6211 82.699 44.6483 82.6464 44.6969 82.6073C44.7455 82.5681 44.8117 82.5455 44.8812 82.5443H67.5061C67.5767 82.5443 67.6444 82.5663 67.6943 82.6056C67.7442 82.6449 67.7722 82.6982 67.7722 82.7537C67.7707 82.8084 67.7419 82.8605 67.6922 82.8988C67.6424 82.937 67.5756 82.9584 67.5061 82.9584Z" fill="#263238"/>
<path d="M67.5061 85.5289H44.8812C44.8117 85.5276 44.7455 85.505 44.6969 85.4659C44.6483 85.4267 44.6211 85.3742 44.6211 85.3194C44.6211 85.2651 44.6485 85.2131 44.6973 85.1747C44.7461 85.1363 44.8122 85.1147 44.8812 85.1147H67.5061C67.5756 85.1147 67.6424 85.1361 67.6922 85.1744C67.7419 85.2126 67.7707 85.2647 67.7722 85.3194C67.7722 85.375 67.7442 85.4282 67.6943 85.4675C67.6444 85.5068 67.5767 85.5289 67.5061 85.5289Z" fill="#263238"/>
<path d="M67.5061 88.0946H44.8812C44.8122 88.0946 44.7461 88.073 44.6973 88.0346C44.6485 87.9962 44.6211 87.9442 44.6211 87.8899C44.6211 87.8351 44.6483 87.7826 44.6969 87.7434C44.7455 87.7043 44.8117 87.6817 44.8812 87.6804H67.5061C67.5767 87.6804 67.6444 87.7025 67.6943 87.7418C67.7442 87.7811 67.7722 87.8343 67.7722 87.8899C67.7707 87.9446 67.7419 87.9966 67.6922 88.0349C67.6424 88.0732 67.5756 88.0946 67.5061 88.0946Z" fill="#263238"/>
<path d="M67.5061 90.665H44.8812C44.8117 90.6637 44.7455 90.6411 44.6969 90.602C44.6483 90.5628 44.6211 90.5103 44.6211 90.4555C44.6211 90.4012 44.6485 90.3492 44.6973 90.3108C44.7461 90.2724 44.8122 90.2509 44.8812 90.2509H67.5061C67.5756 90.2508 67.6424 90.2722 67.6922 90.3105C67.7419 90.3488 67.7707 90.4008 67.7722 90.4555C67.7722 90.5111 67.7442 90.5644 67.6943 90.6036C67.6444 90.6429 67.5767 90.665 67.5061 90.665Z" fill="#263238"/>
<path d="M162.403 51.9799H42.3829C41.0598 51.9799 39.9873 52.8239 39.9873 53.8649V54.0791C39.9873 55.1202 41.0598 55.9641 42.3829 55.9641H162.403C163.726 55.9641 164.799 55.1202 164.799 54.0791V53.8649C164.799 52.8239 163.726 51.9799 162.403 51.9799Z" fill="#FF725E"/>
<path d="M162.403 65.1177H42.3829C41.0598 65.1177 39.9873 65.9617 39.9873 67.0027V67.2169C39.9873 68.258 41.0598 69.1019 42.3829 69.1019H162.403C163.726 69.1019 164.799 68.258 164.799 67.2169V67.0027C164.799 65.9617 163.726 65.1177 162.403 65.1177Z" fill="#FF725E"/>
<path d="M95.9259 134.129L96.186 129.793H88.3036L87.7773 134.129H95.9259Z" fill="#263238"/>
<path d="M96.216 134.367H87.4443L88.0493 129.555H96.5185L96.216 134.367ZM88.1098 133.891H95.6353L95.8712 130.031H88.5756L88.1098 133.891Z" fill="white"/>
<path d="M112.223 134.129L111.957 129.793H104.068L104.074 134.129H112.223Z" fill="#263238"/>
<path d="M112.544 134.367H103.772V129.555H112.242L112.544 134.367ZM104.377 133.891H111.903L111.667 130.031H104.371L104.377 133.891Z" fill="white"/>
<path d="M154.66 138.761H163.093L161.114 134.129H152.966L154.66 138.761Z" fill="#263238"/>
<path d="M163.51 138.994H154.436L152.561 133.886H161.332L163.51 138.994ZM154.89 138.518H162.669L160.897 134.362H153.365L154.89 138.518Z" fill="white"/>
<path d="M87.7775 134.129L88.3038 129.793H80.4153L79.6289 134.129H87.7775Z" fill="#263238"/>
<path d="M88.0558 134.367H79.2842L80.1553 129.555H88.6245L88.0558 134.367ZM79.9799 133.891H87.5053L87.9712 130.031H80.7118L79.9799 133.891Z" fill="white"/>
<path d="M71.4806 134.129L72.5332 129.793H64.6448L63.332 134.129H71.4806Z" fill="#263238"/>
<path d="M71.734 134.367H62.9502L64.4081 129.555H72.8773L71.734 134.367ZM63.7185 133.891H71.2319L72.1635 130.031H64.9042L63.7185 133.891Z" fill="white"/>
<path d="M144.818 134.129L143.493 129.793H135.61L136.669 134.129H144.818Z" fill="#263238"/>
<path d="M145.199 134.367H136.415L135.241 129.555H143.71L145.199 134.367ZM136.917 133.891H144.43L143.257 130.031H135.997L136.917 133.891Z" fill="white"/>
<path d="M152.966 134.129L151.375 129.793H143.492L144.817 134.129H152.966Z" fill="#263238"/>
<path d="M153.365 134.367H144.575L143.111 129.555H151.581L153.365 134.367ZM145.053 133.891H152.561L151.151 130.031H143.892L145.053 133.891Z" fill="white"/>
<path d="M63.3322 134.129L64.6449 129.793H56.7625L55.1836 134.129H63.3322Z" fill="#263238"/>
<path d="M63.574 134.367H54.7842L56.5325 129.555H65.0319L63.574 134.367ZM55.5888 133.891H63.09L64.2576 130.031H56.9983L55.5888 133.891Z" fill="white"/>
<path d="M120.372 134.129L119.839 129.793H111.957L112.223 134.129H120.372Z" fill="#263238"/>
<path d="M120.705 134.367H111.933L111.637 129.555H120.106L120.705 134.367ZM112.514 133.891H120.039L119.568 130.031H112.272L112.514 133.891Z" fill="white"/>
<path d="M161.115 134.129L159.263 129.793H151.375L152.966 134.129H161.115Z" fill="#263238"/>
<path d="M161.532 134.367H152.736L150.976 129.555H159.481L161.532 134.367ZM153.19 133.891H160.691L159.046 130.031H151.786L153.19 133.891Z" fill="white"/>
<path d="M136.669 134.129L135.61 129.793H127.722L128.52 134.129H136.669Z" fill="#263238"/>
<path d="M137.032 134.367H128.26L127.377 129.555H135.846L137.032 134.367ZM128.78 133.891H136.288L135.344 130.031H128.085L128.78 133.891Z" fill="white"/>
<path d="M128.521 134.129L127.722 129.793H119.84L120.372 134.129H128.521Z" fill="#263238"/>
<path d="M128.871 134.367H120.099L119.494 129.555H127.963L128.871 134.367ZM120.644 133.891H128.169L127.461 130.031H120.172L120.644 133.891Z" fill="white"/>
<path d="M104.074 134.129L104.068 129.793H96.1859L95.9258 134.129H104.074Z" fill="#263238"/>
<path d="M104.377 134.367H95.6113L95.8957 129.555H104.365L104.377 134.367ZM96.2465 133.891H103.772V130.031H96.4764L96.2465 133.891Z" fill="white"/>
<path d="M47.0406 134.129H38.892L36.6416 138.761H45.0685L47.0406 134.129Z" fill="#263238"/>
<path d="M45.286 138.994H36.2119L38.6922 133.886H47.4699L45.286 138.994ZM37.077 138.518H44.8505L46.6169 134.362H39.0975L37.077 138.518Z" fill="white"/>
<path d="M48.8792 129.793H40.9908L38.8916 134.129H47.0402L48.8792 129.793Z" fill="#263238"/>
<path d="M47.2521 134.367H38.4502L40.7853 129.555H49.2968L47.2521 134.367ZM39.3274 133.891H46.8165L48.4559 130.031H41.1966L39.3274 133.891Z" fill="white"/>
<path d="M55.1835 134.129L56.7624 129.793H48.88L47.041 134.129H55.1835Z" fill="#263238"/>
<path d="M55.413 134.367H46.6172L48.6619 129.555H57.1311L55.413 134.367ZM47.4581 133.891H54.9593L56.3628 130.031H49.1035L47.4581 133.891Z" fill="white"/>
<path d="M34.2278 143.725L31.6387 149.061H40.6947L42.9632 143.725H34.2278Z" fill="#263238"/>
<path d="M40.9126 149.299H31.1973L34.0526 143.487H43.4111L40.9126 149.299ZM32.0744 148.823H40.4771L42.5218 143.963H34.4398L32.0744 148.823Z" fill="white"/>
<path d="M45.0681 138.761H36.6413L34.2275 143.725H42.9629L45.0681 138.761Z" fill="#263238"/>
<path d="M43.1809 143.963H33.7861L36.4297 138.518H45.5039L43.1809 143.963ZM34.6694 143.487H42.7453L44.6509 138.999H36.8471L34.6694 143.487Z" fill="white"/>
<path d="M42.9629 143.725L40.6943 149.061H49.7503L51.6922 143.725H42.9629Z" fill="#263238"/>
<path d="M49.9808 149.299H40.3018L42.7699 143.487H52.1163L49.9808 149.299ZM41.1124 148.823H49.5211L51.2936 143.963H43.1813L41.1124 148.823Z" fill="white"/>
<path d="M79.629 134.129L80.4155 129.793H72.5331L71.4805 134.129H79.629Z" fill="#263238"/>
<path d="M79.8949 134.367H71.1172L72.2787 129.555H80.7479L79.8949 134.367ZM71.8492 133.891H79.3686L80.0643 130.031H72.7687L71.8492 133.891Z" fill="white"/>
<path d="M78.7882 138.761L79.629 134.129H71.4805L70.3613 138.761H78.7882Z" fill="#263238"/>
<path d="M79.0546 138.994H69.9805L71.2206 133.886H79.9681L79.0546 138.994ZM70.7245 138.518H78.5283L79.2845 134.362H71.7348L70.7245 138.518Z" fill="white"/>
<path d="M70.3616 138.761L71.4807 134.129H63.3322L61.9287 138.761H70.3616Z" fill="#263238"/>
<path d="M70.6093 138.994H61.5352L63.0899 133.891H71.8434L70.6093 138.994ZM62.3155 138.518H70.1072L71.1174 134.362H63.5738L62.3155 138.518Z" fill="white"/>
<path d="M87.221 138.761L87.7775 134.129H79.629L78.7881 138.761H87.221Z" fill="#263238"/>
<path d="M87.4931 138.994H78.4189L79.3445 133.886H88.0859L87.4931 138.994ZM79.1388 138.518H86.9426L87.4447 134.362H79.895L79.1388 138.518Z" fill="white"/>
<path d="M55.183 134.129H47.0405L45.0684 138.761H53.5012L55.183 134.129Z" fill="#263238"/>
<path d="M53.7255 138.994H44.6514L46.8171 133.886H55.5887L53.7255 138.994ZM45.4922 138.518H53.2718L54.7842 134.362H47.2526L45.4922 138.518Z" fill="white"/>
<path d="M156.481 143.725H165.21L163.093 138.761H154.66L156.481 143.725Z" fill="#263238"/>
<path d="M165.634 143.963H156.251L154.261 138.518H163.335L165.634 143.963ZM156.705 143.487H164.793L162.905 138.994H155.041L156.705 143.487Z" fill="white"/>
<path d="M61.9278 138.761L63.3313 134.129H55.1827L53.501 138.761H61.9278Z" fill="#263238"/>
<path d="M62.1698 138.994H53.0957L54.9589 133.886H63.6943L62.1698 138.994ZM53.9003 138.518H61.6919L62.9502 134.362H55.4126L53.9003 138.518Z" fill="white"/>
<path d="M45.0681 138.761L42.9629 143.725H51.6922L53.501 138.761H45.0681Z" fill="#263238"/>
<path d="M51.9223 143.963H42.5215L44.8505 138.518H53.9247L51.9223 143.963ZM43.3805 143.487H51.4625L53.0959 138.999H45.2861L43.3805 143.487Z" fill="white"/>
<path d="M137.8 138.761L136.669 134.129H128.521L129.373 138.761H137.8Z" fill="#263238"/>
<path d="M138.169 138.994H129.095L128.157 133.886H136.893L138.169 138.994ZM129.633 138.518H137.437L136.415 134.362H128.871L129.633 138.518Z" fill="white"/>
<path d="M129.374 138.761L128.521 134.129H120.372L120.941 138.761H129.374Z" fill="#263238"/>
<path d="M129.718 138.994H120.644L120.039 133.886H128.78L129.718 138.994ZM121.213 138.518H129.028L128.266 134.362H120.704L121.213 138.518Z" fill="white"/>
<path d="M154.66 138.761L152.966 134.129H144.817L146.233 138.761H154.66Z" fill="#263238"/>
<path d="M155.041 138.994H145.967L144.406 133.886H153.166L155.041 138.994ZM146.445 138.518H154.237L152.712 134.362H145.199L146.445 138.518Z" fill="white"/>
<path d="M104.08 138.761L104.074 134.129H95.9257L95.6475 138.761H104.08Z" fill="#263238"/>
<path d="M104.383 138.994H95.3086L95.6111 133.886H104.352L104.383 138.994ZM95.968 138.518H103.778V134.362H96.216L95.968 138.518Z" fill="white"/>
<path d="M120.941 138.761L120.372 134.129H112.224L112.508 138.761H120.941Z" fill="#263238"/>
<path d="M121.273 138.994H112.199L111.878 133.886H120.619L121.273 138.994ZM112.803 138.518H120.613L120.105 134.362H112.543L112.803 138.518Z" fill="white"/>
<path d="M112.507 138.761L112.223 134.129H104.074L104.08 138.761H112.507Z" fill="#263238"/>
<path d="M112.828 138.994H103.754V133.891H112.513L112.828 138.994ZM104.359 138.518H112.169L111.909 134.362H104.377L104.359 138.518Z" fill="white"/>
<path d="M95.6476 138.761L95.9258 134.129H87.7772L87.2207 138.761H95.6476Z" fill="#263238"/>
<path d="M95.9384 138.994H86.8643L87.4692 133.886H96.2106L95.9384 138.994ZM87.5539 138.518H95.3637L95.6117 134.362H88.056L87.5539 138.518Z" fill="white"/>
<path d="M120.94 138.761L121.551 143.725H130.281L129.373 138.761H120.94Z" fill="#263238"/>
<path d="M130.631 143.963H121.273L120.607 138.518H129.633L130.631 143.963ZM121.823 143.487H129.936L129.107 138.994H121.273L121.823 143.487Z" fill="white"/>
<path d="M129.373 138.761L130.28 143.725H139.016L137.8 138.761H129.373Z" fill="#263238"/>
<path d="M139.379 143.963H130.02L129.028 138.518H138.054L139.379 143.963ZM130.547 143.487H138.647L137.552 138.994H129.718L130.547 143.487Z" fill="white"/>
<path d="M53.5012 138.761L51.6924 143.725H60.4217L61.928 138.761H53.5012Z" fill="#263238"/>
<path d="M60.6696 143.963H51.293L53.2711 138.518H62.315L60.6696 143.963ZM52.0975 143.487H60.1856L61.5467 138.999H53.7248L52.0975 143.487Z" fill="white"/>
<path d="M137.8 138.761L139.016 143.725H147.745L146.233 138.761H137.8Z" fill="#263238"/>
<path d="M148.133 143.963H138.768L137.438 138.518H146.469L148.133 143.963ZM139.264 143.487H147.365L145.967 138.994H138.169L139.264 143.487Z" fill="white"/>
<path d="M104.081 138.761L104.087 143.725H112.816L112.508 138.761H104.081Z" fill="#263238"/>
<path d="M113.137 143.963H103.784V138.518H112.804L113.137 143.963ZM104.389 143.487H112.501L112.223 138.999H104.359L104.389 143.487Z" fill="white"/>
<path d="M146.233 138.761L147.746 143.725H156.481L154.66 138.761H146.233Z" fill="#263238"/>
<path d="M156.856 143.963H147.509L145.846 138.518H154.89L156.856 143.963ZM147.963 143.487H156.051L154.436 138.994H146.614L147.963 143.487Z" fill="white"/>
<path d="M112.508 138.761L112.816 143.725H121.552L120.941 138.761H112.508Z" fill="#263238"/>
<path d="M121.885 143.963H112.532L112.193 138.518H121.213L121.885 143.963ZM113.107 143.487H121.219L120.669 138.999H112.804L113.107 143.487Z" fill="white"/>
<path d="M70.3611 138.761L69.1572 143.725H77.8926L78.7879 138.761H70.3611Z" fill="#263238"/>
<path d="M78.1524 143.963H68.7939L70.1067 138.518H79.1385L78.1524 143.963ZM69.5199 143.487H77.608L78.4246 138.999H70.6088L69.5199 143.487Z" fill="white"/>
<path d="M61.9282 138.761L60.4219 143.725H69.1572L70.3611 138.761H61.9282Z" fill="#263238"/>
<path d="M69.4057 143.963H60.0654L61.6927 138.518H70.7245L69.4057 143.963ZM60.8095 143.487H68.9097L69.9925 138.999H62.1706L60.8095 143.487Z" fill="white"/>
<path d="M95.6478 138.761L95.3574 143.725H104.087L104.081 138.761H95.6478Z" fill="#263238"/>
<path d="M104.39 143.963H95.0371L95.3638 138.523H104.383L104.39 143.963ZM95.6723 143.487H103.785V138.994H95.9203L95.6723 143.487Z" fill="white"/>
<path d="M87.221 138.761L86.6221 143.725H95.3574L95.6478 138.761H87.221Z" fill="#263238"/>
<path d="M95.6415 143.963H86.2891L86.9424 138.518H95.9681L95.6415 143.963ZM86.9545 143.487H95.0668L95.3329 138.999H87.4687L86.9545 143.487Z" fill="white"/>
<path d="M78.7879 138.761L77.8926 143.725H86.6219L87.2208 138.761H78.7879Z" fill="#263238"/>
<path d="M86.8944 143.963H77.542L78.5281 138.518H87.5538L86.8944 143.963ZM78.2377 143.487H86.3439L86.8884 138.999H79.0241L78.2377 143.487Z" fill="white"/>
<path d="M146.233 138.761L144.818 134.129H136.669L137.8 138.761H146.233Z" fill="#263238"/>
<path d="M146.614 138.994H137.54L136.288 133.891H145.042L146.614 138.994ZM138.048 138.518H145.846L144.576 134.362H137.032L138.048 138.518Z" fill="white"/>
<path d="M48.8797 129.793L50.761 125.356H43.1448L40.9912 129.793H48.8797Z" fill="#263238"/>
<path d="M49.0974 130.031H40.5557L42.9391 125.118H51.1845L49.0974 130.031ZM41.4328 129.555H48.6921L50.3739 125.594H43.3565L41.4328 129.555Z" fill="white"/>
<path d="M40.9908 129.793H33.7134L31.3662 134.129H38.8917L40.9908 129.793Z" fill="#263238"/>
<path d="M39.098 134.367H30.9131L33.5143 129.555H41.433L39.098 134.367ZM31.8386 133.891H38.6926L40.568 130.031H33.9136L31.8386 133.891Z" fill="white"/>
<path d="M43.1449 125.356H36.1155L33.7139 129.793H40.9913L43.1449 125.356Z" fill="#263238"/>
<path d="M41.2027 130.031H33.2598L35.9155 125.118H43.5861L41.2027 130.031ZM34.1732 129.555H40.7853L42.709 125.594H36.3208L34.1732 129.555Z" fill="white"/>
<path d="M38.8924 134.129H31.367L28.8564 138.761H36.6421L38.8924 134.129Z" fill="#263238"/>
<path d="M36.8471 138.994H28.3779L31.1425 133.886H39.3032L36.8471 138.994ZM29.3156 138.518H36.4297L38.4502 134.362H31.566L29.3156 138.518Z" fill="white"/>
<path d="M36.6415 138.761H28.8559L26.1699 143.725H34.2277L36.6415 138.761Z" fill="#263238"/>
<path d="M34.4393 143.963H25.71L28.656 138.518H37.0768L34.4393 143.963ZM26.6234 143.487H34.0521L36.2299 138.999H29.0553L26.6234 143.487Z" fill="white"/>
<path d="M34.2278 143.725H26.1699L23.2783 149.061H31.6386L34.2278 143.725Z" fill="#263238"/>
<path d="M31.8441 149.299H22.8184L25.9701 143.487H34.6571L31.8441 149.299ZM23.7379 148.823H31.4267L33.786 143.963H26.3694L23.7379 148.823Z" fill="white"/>
<path d="M169.264 134.129L171.52 138.761H178.979L176.469 134.129H169.264Z" fill="#263238"/>
<path d="M179.438 138.994H171.314L168.821 133.886H176.686L179.438 138.994ZM171.731 138.518H178.519L176.268 134.362H169.698L171.731 138.518Z" fill="white"/>
<path d="M173.945 143.725H181.67L178.978 138.761H171.52L173.945 143.725Z" fill="#263238"/>
<path d="M182.124 143.963H173.734L171.084 138.518H179.178L182.124 143.963ZM174.151 143.487H181.211L178.791 138.999H171.979L174.151 143.487Z" fill="white"/>
<path d="M176.547 149.061H184.556L181.67 143.725H173.945L176.547 149.061Z" fill="#263238"/>
<path d="M185.016 149.299H176.341L173.504 143.487H181.87L185.016 149.299ZM176.752 148.823H184.078L181.447 143.963H174.399L176.752 148.823Z" fill="white"/>
<path d="M111.957 129.793L111.679 125.356H104.062L104.069 129.793H111.957Z" fill="#263238"/>
<path d="M112.271 130.031H103.766V125.118H111.969L112.271 130.031ZM104.371 129.555H111.63L111.382 125.594H104.365L104.371 129.555Z" fill="white"/>
<path d="M169.263 134.129H176.468L174.12 129.793H167.146L169.263 134.129Z" fill="#263238"/>
<path d="M176.928 134.367H169.064L166.717 129.555H174.333L176.928 134.367ZM169.469 133.891H176.009L173.922 130.031H167.588L169.469 133.891Z" fill="white"/>
<path d="M165.21 143.725H173.945L171.52 138.761H163.093L165.21 143.725Z" fill="#263238"/>
<path d="M174.399 143.963H164.992L162.669 138.518H171.743L174.399 143.963ZM165.44 143.487H173.516L171.314 138.994H163.51L165.44 143.487Z" fill="white"/>
<path d="M56.7623 129.793L58.3775 125.356H50.7613L48.8799 129.793H56.7623Z" fill="#263238"/>
<path d="M56.9918 130.031H48.4561L50.5431 125.118H58.7764L56.9918 130.031ZM49.2969 129.555H56.5562L58.002 125.594H50.9908L49.2969 129.555Z" fill="white"/>
<path d="M159.264 129.793L161.115 134.129H169.263L167.146 129.793H159.264Z" fill="#263238"/>
<path d="M169.699 134.367H160.897L158.84 129.555H167.351L169.699 134.367ZM161.332 133.891H168.821L166.94 130.031H159.681L161.332 133.891Z" fill="white"/>
<path d="M174.121 129.793L171.72 125.356H164.98L167.146 129.793H174.121Z" fill="#263238"/>
<path d="M174.581 130.031H166.94L164.521 125.118H171.919L174.581 130.031ZM167.352 129.555H173.661L171.52 125.594H165.422L167.352 129.555Z" fill="white"/>
<path d="M167.146 129.793L164.98 125.356H157.37L159.264 129.793H167.146Z" fill="#263238"/>
<path d="M167.587 130.031H159.045L156.946 125.118H165.192L167.587 130.031ZM159.481 129.555H166.704L164.774 125.594H157.787L159.481 129.555Z" fill="white"/>
<path d="M139.016 143.725L140.322 149.061H149.378L147.745 143.725H139.016Z" fill="#263238"/>
<path d="M149.76 149.299H140.081L138.659 143.487H147.999L149.76 149.299ZM140.571 148.823H148.992L147.509 143.963H139.379L140.571 148.823Z" fill="white"/>
<path d="M167.491 149.061H176.547L173.945 143.725H165.21L167.491 149.061Z" fill="#263238"/>
<path d="M176.989 149.299H167.273L164.793 143.487H174.151L176.989 149.299ZM167.709 148.823H176.105L173.734 143.963H165.634L167.709 148.823Z" fill="white"/>
<path d="M159.264 129.793L157.37 125.356H149.754L151.375 129.793H159.264Z" fill="#263238"/>
<path d="M159.68 130.031H151.151L149.336 125.118H157.575L159.68 130.031ZM151.604 129.555H158.864L157.176 125.594H150.153L151.604 129.555Z" fill="white"/>
<path d="M156.48 143.725L158.434 149.061H167.49L165.21 143.725H156.48Z" fill="#263238"/>
<path d="M167.908 149.299H158.229L156.1 143.487H165.452L167.908 149.299ZM158.659 148.823H167.067L164.992 143.963H156.856L158.659 148.823Z" fill="white"/>
<path d="M147.745 143.725L149.378 149.061H158.434L156.48 143.725H147.745Z" fill="#263238"/>
<path d="M158.834 149.299H149.155L147.383 143.487H156.723L158.834 149.299ZM149.615 148.823H158.03L156.251 143.963H148.133L149.615 148.823Z" fill="white"/>
<path d="M163.092 138.761H171.519L169.263 134.129H161.114L163.092 138.761Z" fill="#263238"/>
<path d="M171.98 138.994H162.906L160.722 133.886H169.499L171.98 138.994ZM163.329 138.518H171.102L169.07 134.362H161.532L163.329 138.518Z" fill="white"/>
<path d="M88.3035 129.793L88.8358 125.356H81.2196L80.415 129.793H88.3035Z" fill="#263238"/>
<path d="M88.576 130.031H80.0645L80.9598 125.118H89.1688L88.576 130.031ZM80.7662 129.555H88.0255L88.5034 125.594H81.4861L80.7662 129.555Z" fill="white"/>
<path d="M151.375 129.793L149.754 125.356H142.138L143.493 129.793H151.375Z" fill="#263238"/>
<path d="M151.781 130.031H143.257L141.732 125.118H149.954L151.781 130.031ZM143.729 129.555H150.988L149.536 125.594H142.525L143.729 129.555Z" fill="white"/>
<path d="M80.4156 129.793L81.2202 125.356H73.604L72.5332 129.793H80.4156Z" fill="#263238"/>
<path d="M80.6817 130.031H72.1641L73.3739 125.118H81.5891L80.6817 130.031ZM72.896 129.555H80.1554L80.8752 125.594H73.8579L72.896 129.555Z" fill="white"/>
<path d="M104.069 129.793L104.063 125.356H96.4527L96.1865 129.793H104.069Z" fill="#263238"/>
<path d="M104.371 130.031H95.8711L96.1615 125.118H104.364L104.371 130.031ZM96.5063 129.555H103.766V125.594H96.7362L96.5063 129.555Z" fill="white"/>
<path d="M72.533 129.793L73.6037 125.356H65.9936L64.6445 129.793H72.533Z" fill="#263238"/>
<path d="M72.7692 130.031H64.2637L65.7518 125.118H73.979L72.7692 130.031ZM65.0198 129.555H72.2792L73.241 125.594H66.2297L65.0198 129.555Z" fill="white"/>
<path d="M64.6441 129.793L65.9931 125.356H58.3769L56.7617 129.793H64.6441Z" fill="#263238"/>
<path d="M64.9041 130.031H56.3623L58.1771 125.118H66.4043L64.9041 130.031ZM57.179 129.555H64.4383L65.6482 125.594H58.6066L57.179 129.555Z" fill="white"/>
<path d="M96.1861 129.793L96.4523 125.356H88.8361L88.3037 129.793H96.1861Z" fill="#263238"/>
<path d="M96.4762 130.031H87.9707L88.5756 125.118H96.7847L96.4762 130.031ZM88.6119 129.555H95.8712L96.1072 125.594H89.1019L88.6119 129.555Z" fill="white"/>
<path d="M143.493 129.793L142.138 125.356H134.521L135.61 129.793H143.493Z" fill="#263238"/>
<path d="M143.874 130.031H135.356L134.146 125.118H142.368L143.874 130.031ZM135.858 129.555H143.118L141.908 125.594H134.891L135.858 129.555Z" fill="white"/>
<path d="M135.61 129.793L134.521 125.356H126.911L127.722 129.793H135.61Z" fill="#263238"/>
<path d="M135.973 130.031H127.462L126.561 125.118H134.776L135.973 130.031ZM127.988 129.555H135.248L134.28 125.594H127.262L127.988 129.555Z" fill="white"/>
<path d="M119.839 129.793L119.295 125.356H111.679L111.957 129.793H119.839Z" fill="#263238"/>
<path d="M120.172 130.031H111.667L111.364 125.118H119.567L120.172 130.031ZM112.241 129.555H119.501L119.011 125.594H111.993L112.241 129.555Z" fill="white"/>
<path d="M139.016 143.725H130.281H121.552H112.816H104.087H95.3576H86.6222H77.8929H69.1575H60.4222H51.6928L49.751 149.061H58.807H67.863H76.925H85.981H95.037H104.093H113.149H122.205H131.261H140.323L139.016 143.725Z" fill="#263238"/>
<path d="M140.686 149.299H49.3398L51.4511 143.487H139.265L140.686 149.299ZM50.1505 148.823H139.954L138.744 143.963H51.9229L50.1505 148.823Z" fill="white"/>
<path d="M127.722 129.793L126.911 125.356H119.295L119.839 129.793H127.722Z" fill="#263238"/>
<path d="M128.072 130.031H119.567L118.962 125.118H127.171L128.072 130.031ZM120.111 129.555H127.371L126.639 125.594H119.621L120.111 129.555Z" fill="white"/>
<path d="M113.978 87.6708C122.888 87.6708 130.111 80.4356 130.111 71.5104C130.111 62.5853 122.888 55.35 113.978 55.35C105.067 55.35 97.8438 62.5853 97.8438 71.5104C97.8438 80.4356 105.067 87.6708 113.978 87.6708Z" fill="#263238"/>
<path d="M113.977 87.9041C104.903 87.9041 97.5352 80.5498 97.5352 71.5104C97.5352 62.4711 104.909 55.112 113.977 55.112C123.046 55.112 130.414 62.4663 130.414 71.5104C130.414 80.5546 123.04 87.9041 113.977 87.9041ZM113.977 55.588C105.242 55.588 98.1401 62.7281 98.1401 71.5104C98.1401 80.2928 105.242 87.4281 113.977 87.4281C122.713 87.4281 129.809 80.288 129.809 71.5104C129.809 62.7329 122.707 55.588 113.977 55.588Z" fill="#263238"/>
<path d="M77.6083 112.666C76.1262 112.666 74.4445 111.633 73.5491 110.995C72.2909 110.095 70.9902 108.834 70.9902 108.272C70.9902 107.468 83.0891 78.76 84.4865 75.4994C84.5022 75.4613 84.5298 75.4269 84.5668 75.3995C84.6038 75.372 84.649 75.3524 84.6982 75.3423C84.7465 75.3327 84.7971 75.3324 84.8455 75.3416C84.894 75.3507 84.9389 75.3689 84.9765 75.3947L89.5559 78.6839C89.5916 78.7094 89.6191 78.7413 89.6359 78.7769C89.6528 78.8126 89.6585 78.8508 89.6527 78.8885L85.1398 110.076C85.1344 110.113 85.1184 110.147 85.0933 110.178C85.0681 110.208 85.0344 110.234 84.9947 110.253C84.8071 110.343 80.391 112.456 77.8442 112.656L77.6083 112.666ZM84.916 76.0135C81.1049 85.0576 71.698 107.43 71.6073 108.301C71.6073 108.572 72.5268 109.634 73.9665 110.657C75.4063 111.681 76.84 112.271 77.7958 112.199C79.9797 112.028 83.8453 110.272 84.5651 109.924L89.0478 78.9837L84.916 76.0135Z" fill="#263238"/>
<path d="M111.515 71.3581L84.752 75.5708L89.0349 117.059H141.229L148.186 73.8857L116.33 71.1487L111.515 71.3581Z" fill="#FF725E"/>
<path d="M141.23 117.297H89.0356C88.9601 117.298 88.8873 117.275 88.8322 117.234C88.7771 117.194 88.7438 117.138 88.7392 117.079L84.4502 75.5898C84.4443 75.5318 84.4657 75.474 84.5103 75.4275C84.5549 75.381 84.6196 75.349 84.6922 75.3375L111.485 71.1249L116.325 70.9107L148.223 73.6525C148.303 73.6593 148.377 73.69 148.429 73.7382C148.454 73.7637 148.472 73.7928 148.482 73.8238C148.493 73.8549 148.495 73.8872 148.489 73.919L141.533 117.098C141.521 117.154 141.484 117.205 141.428 117.242C141.373 117.278 141.303 117.298 141.23 117.297ZM89.32 116.821H140.964L147.848 74.0999L116.325 71.401L111.576 71.6104L85.0975 75.7802L89.32 116.821Z" fill="#263238"/>
<path opacity="0.3" d="M89.0356 117.059H141.23L142.543 108.934L142.446 108.539L129.851 110.7L135.344 92.507L105.121 102.955L97.7952 108.72H102.375L88.8965 115.698L89.0356 117.059Z" fill="black"/>
<path d="M108.672 69.0209C108.672 69.0209 104.328 70.8916 103.228 72.5719C102.127 74.2522 97.5713 86.7331 97.5713 86.7331L105.067 87.9993L97.8435 90.7363L108.775 115.374L126.173 114.532L137.497 88.6276L130.535 86.3142L136.693 84.2055C136.693 84.2055 130.807 75.3613 127.619 71.5723C124.431 67.7833 108.672 69.0209 108.672 69.0209Z" fill="#FF725E"/>
<path d="M108.799 115.612C108.737 115.612 108.676 115.597 108.625 115.569C108.574 115.541 108.536 115.501 108.515 115.455L97.5713 90.8125C97.5479 90.7573 97.551 90.6973 97.58 90.6438C97.6089 90.5903 97.6618 90.547 97.7286 90.5221L104.159 88.085L97.5048 86.9664C97.4639 86.9595 97.4252 86.9462 97.3909 86.9274C97.3567 86.9086 97.3275 86.8846 97.3051 86.8569C97.2839 86.8284 97.2703 86.7969 97.2651 86.7641C97.2599 86.7314 97.2632 86.6982 97.2749 86.6665C97.4624 86.1571 101.885 74.1523 102.955 72.4672C104.026 70.7821 108.315 68.8924 108.497 68.8115C108.532 68.7963 108.571 68.7882 108.611 68.7877C109.259 68.7353 124.521 67.5739 127.794 71.439C130.982 75.1947 136.868 84.0104 136.911 84.096C136.928 84.1258 136.938 84.1583 136.938 84.1912C136.938 84.2241 136.928 84.2567 136.911 84.2864C136.898 84.3176 136.877 84.3461 136.849 84.37C136.821 84.3939 136.786 84.4125 136.747 84.4245L131.236 86.3285L137.546 88.4277C137.617 88.4519 137.673 88.4962 137.705 88.5517C137.736 88.6072 137.74 88.67 137.715 88.7276L126.433 114.632C126.413 114.676 126.377 114.714 126.33 114.742C126.283 114.77 126.226 114.786 126.167 114.789L108.769 115.631L108.799 115.612ZM98.2367 90.8601L109.011 115.136L125.949 114.318L137.074 88.7704L130.377 86.5427C130.322 86.5248 130.275 86.4945 130.241 86.4556C130.208 86.4166 130.19 86.3707 130.19 86.3237C130.19 86.2774 130.208 86.2322 130.24 86.1934C130.272 86.1546 130.318 86.1239 130.371 86.1048L136.233 84.1008C135.289 82.6728 130.184 75.1138 127.298 71.7246C124.322 68.2117 109.809 69.2018 108.739 69.278C108.242 69.4969 104.456 71.182 103.5 72.7052C102.544 74.2284 98.6058 84.8243 97.9524 86.5808L105.133 87.7898C105.195 87.8004 105.25 87.8258 105.293 87.8625C105.335 87.8992 105.362 87.9453 105.369 87.9945C105.375 88.0437 105.362 88.093 105.332 88.1363C105.301 88.1796 105.255 88.2147 105.2 88.2373L98.2367 90.8601Z" fill="#263238"/>
<path d="M107.994 117.483L107.771 74.0999L122.223 73.0432L126.463 117.059L107.994 117.483Z" fill="white"/>
<path d="M107.994 117.721C107.915 117.721 107.84 117.697 107.782 117.654C107.726 117.609 107.693 117.547 107.692 117.483L107.468 74.0999C107.466 74.0404 107.493 73.9826 107.544 73.9384C107.594 73.8941 107.665 73.8668 107.74 73.8619L122.192 72.829C122.232 72.8244 122.273 72.8268 122.311 72.8358C122.35 72.8448 122.386 72.8604 122.416 72.8813C122.479 72.9235 122.518 72.9833 122.525 73.048L126.759 117.064C126.762 117.096 126.756 117.128 126.743 117.158C126.729 117.189 126.708 117.217 126.681 117.24C126.653 117.264 126.62 117.284 126.582 117.297C126.545 117.31 126.504 117.317 126.463 117.317L108 117.74L107.994 117.721ZM108.073 74.3141L108.297 117.236L126.136 116.831L121.944 73.305L108.073 74.3141Z" fill="#263238"/>
<path d="M105.629 62.7233C105.629 62.7233 107.498 70.9392 107.77 73.0432C108.043 75.1471 114.951 90.108 117.02 87.6661C119.276 85.0052 121.956 76.6275 122.464 74.7282C122.973 72.829 123.003 64.6226 123.003 64.6226C123.003 64.6226 116.064 68.4116 105.629 62.7233Z" fill="white"/>
<path d="M116.475 88.1754C116.398 88.1742 116.321 88.1662 116.246 88.1516C113.402 87.5947 107.728 75.0995 107.468 73.067C107.208 71.0344 105.351 62.8519 105.326 62.7662C105.315 62.7197 105.322 62.6716 105.346 62.6281C105.37 62.5847 105.41 62.5478 105.461 62.5222C105.511 62.4967 105.57 62.4836 105.631 62.4847C105.691 62.4857 105.749 62.5009 105.798 62.5282C115.949 68.0594 122.785 64.4608 122.852 64.4322C122.899 64.41 122.954 64.3983 123.009 64.3983C123.064 64.3983 123.119 64.41 123.166 64.4322C123.215 64.4533 123.256 64.4843 123.285 64.5219C123.313 64.5596 123.329 64.6025 123.329 64.6464C123.329 64.9796 123.329 72.9051 122.785 74.8044C122.18 76.8703 119.561 85.1242 117.274 87.8232C117.189 87.9301 117.072 88.0184 116.932 88.08C116.793 88.1416 116.636 88.1744 116.475 88.1754ZM106.04 63.2375C106.464 65.1415 107.855 71.2248 108.055 73.0194C108.315 75.071 114.05 87.2329 116.379 87.6899C116.488 87.6899 116.615 87.6899 116.76 87.5376C118.968 84.9243 121.642 76.5894 122.204 74.6854C122.658 73.0813 122.725 66.7266 122.731 65.0415C120.988 65.7412 114.697 67.7072 106.04 63.2375Z" fill="#263238"/>
<path d="M122.918 70.0824C123.027 67.3882 123.027 64.6226 123.027 64.6226C123.027 64.6226 116.064 68.4307 105.629 62.7186C105.629 62.7186 106.397 66.103 107.02 69.0828C108.448 70.5108 111.164 72.7814 114.516 73.205C117.958 73.643 120.74 72.2054 122.918 70.0824Z" fill="#FF725E"/>
<path opacity="0.5" d="M122.918 70.0824C123.027 67.3882 123.027 64.6226 123.027 64.6226C123.027 64.6226 116.064 68.4307 105.629 62.7186C105.629 62.7186 106.397 66.103 107.02 69.0828C108.448 70.5108 111.164 72.7814 114.516 73.205C117.958 73.643 120.74 72.2054 122.918 70.0824Z" fill="white"/>
<path d="M128.646 54.5123C128.646 54.5123 131.587 51.561 131.587 54.9312C131.587 58.3013 128.646 58.7392 128.646 58.7392V54.5123Z" fill="white"/>
<path d="M128.647 58.9629C128.576 58.9637 128.507 58.9433 128.454 58.9058C128.419 58.8846 128.39 58.8572 128.372 58.8257C128.353 58.7943 128.343 58.7597 128.345 58.7249V54.5123C128.344 54.4591 128.365 54.4072 128.405 54.3647C128.665 54.1077 129.996 52.8415 131.013 53.1176C131.618 53.2794 131.89 53.8744 131.89 54.9311C131.89 58.4584 128.732 58.9534 128.702 58.9582L128.647 58.9629ZM128.95 54.5932V58.4012C129.682 58.1728 131.285 57.3873 131.285 54.9311C131.285 53.8173 130.958 53.6079 130.819 53.5698C130.371 53.4508 129.47 54.0934 128.95 54.5932Z" fill="#263238"/>
<path d="M99.4707 47.5626C99.4707 47.5626 102.949 59.9721 102.949 61.6714C102.949 65.2462 111.515 69.2542 115.26 70.0967C119.004 70.9392 128.109 64.4084 128.647 62.7234C129.185 61.0383 129.446 46.2964 128.375 43.3499C127.304 40.4034 121.164 38.5042 117.135 38.5042C113.106 38.5042 101.346 40.1892 99.4707 47.5626Z" fill="white"/>
<path d="M115.998 70.4109C115.722 70.4131 115.447 70.3842 115.181 70.3252C111.552 69.5065 102.647 65.4604 102.647 61.6714C102.647 60.0196 99.2107 47.7387 99.1745 47.6149C99.1684 47.5818 99.1684 47.5481 99.1745 47.515C101.092 39.9655 113.088 38.2662 117.135 38.2662C121.182 38.2662 127.54 40.1702 128.665 43.2833C129.791 46.3964 129.464 61.1287 128.938 62.7995C128.544 64.0419 124.134 67.4739 120.166 69.278C118.484 70.0253 117.087 70.4109 115.998 70.4109ZM99.7794 47.5626C100.052 48.5384 103.252 60.0101 103.252 61.6762C103.252 65.0844 111.654 69.04 115.351 69.873C116.349 70.0967 117.91 69.7445 119.87 68.8543C123.802 67.0693 128.03 63.6944 128.339 62.6662C128.841 61.0811 129.143 46.3583 128.073 43.4166C127.038 40.5605 120.898 38.7422 117.123 38.7422C113.221 38.7422 101.661 40.3654 99.7794 47.5578V47.5626Z" fill="#263238"/>
<path d="M117.135 38.5042C113.124 38.5042 101.346 40.1892 99.4707 47.5483C99.4707 47.5483 101.552 54.974 102.495 59.1248C102.495 57.2207 102.919 53.5745 105.52 51.9847C109.113 49.7855 115.108 49.4666 118.502 48.2099C121.896 46.9533 122.694 43.6546 122.694 43.6546C122.694 43.6546 122.894 49.4666 124.509 50.8851C126.124 52.3036 127.709 53.2651 127.909 55.7546C128.109 58.2442 128.708 60.7813 127.111 62.8281C125.513 64.8749 118.92 68.7972 115.925 69.5826C115.465 69.7064 115.018 69.8111 114.594 69.9111C114.83 69.9777 115.06 70.0396 115.272 70.0872C119.022 70.9297 128.121 64.3989 128.659 62.7139C129.198 61.0288 129.458 46.2869 128.387 43.3404C127.316 40.3939 121.164 38.5042 117.135 38.5042Z" fill="#FF725E"/>
<path d="M111.576 68.8496C110.118 67.6929 106.131 64.4894 104.317 62.8377C103.792 62.3671 103.322 61.8605 102.913 61.324C102.913 61.462 102.913 61.5858 102.913 61.6714C102.949 64.3133 107.62 67.1884 111.576 68.8496Z" fill="#FF725E"/>
<g opacity="0.5">
<path opacity="0.5" d="M117.135 38.5042C113.124 38.5042 101.346 40.1892 99.4707 47.5483C99.4707 47.5483 101.552 54.974 102.495 59.1248C102.495 57.2207 102.919 53.5745 105.52 51.9847C109.113 49.7855 115.108 49.4666 118.502 48.2099C121.896 46.9533 122.694 43.6546 122.694 43.6546C122.694 43.6546 122.894 49.4666 124.509 50.8851C126.124 52.3036 127.709 53.2651 127.909 55.7546C128.109 58.2442 128.708 60.7813 127.111 62.8281C125.513 64.8749 118.92 68.7972 115.925 69.5826C115.465 69.7064 115.018 69.8111 114.594 69.9111C114.83 69.9777 115.06 70.0396 115.272 70.0872C119.022 70.9297 128.121 64.3989 128.659 62.7139C129.198 61.0288 129.458 46.2869 128.387 43.3404C127.316 40.3939 121.164 38.5042 117.135 38.5042Z" fill="white"/>
<path opacity="0.5" d="M111.576 68.8496C110.118 67.6929 106.131 64.4894 104.317 62.8377C103.792 62.3671 103.322 61.8605 102.913 61.324C102.913 61.462 102.913 61.5858 102.913 61.6714C102.949 64.3133 107.62 67.1884 111.576 68.8496Z" fill="white"/>
</g>
<path d="M113.33 55.1834C113.33 55.7737 112.997 56.2497 112.579 56.2497C112.162 56.2497 111.823 55.7737 111.823 55.1834C111.823 54.5932 112.162 54.1172 112.579 54.1172C112.997 54.1172 113.33 54.5932 113.33 55.1834Z" fill="#263238"/>
<path d="M122.144 55.1834C122.144 55.7737 121.805 56.2497 121.388 56.2497C120.971 56.2497 120.632 55.7737 120.632 55.1834C120.632 54.5932 120.971 54.1172 121.388 54.1172C121.805 54.1172 122.144 54.5932 122.144 55.1834Z" fill="#263238"/>
<path d="M118.049 59.6912C117.988 59.6919 117.928 59.6776 117.878 59.6503C117.828 59.623 117.791 59.584 117.77 59.5389C117.74 59.4808 117.741 59.4157 117.771 59.3577C117.802 59.2998 117.86 59.2537 117.934 59.2295C119.144 58.8582 120.85 58.1251 120.958 57.6682C121.007 57.492 120.916 57.4302 120.148 57.2969C119.59 57.237 119.064 57.0557 118.629 56.7733C117.728 56.064 118.466 54.0743 118.557 53.8506C118.58 53.7875 118.634 53.7342 118.707 53.7025C118.744 53.6868 118.784 53.6769 118.825 53.6733C118.866 53.6697 118.907 53.6726 118.947 53.6816C118.987 53.6907 119.024 53.7058 119.056 53.7261C119.088 53.7465 119.115 53.7716 119.135 53.8001C119.155 53.8286 119.168 53.86 119.172 53.8923C119.177 53.9247 119.173 53.9574 119.162 53.9886C118.871 54.7312 118.593 56.0545 119.083 56.4401C119.437 56.6499 119.854 56.7843 120.293 56.8304C120.898 56.9399 121.739 57.0874 121.563 57.7824C121.346 58.6583 118.696 59.5294 118.17 59.6864C118.13 59.695 118.089 59.6966 118.049 59.6912Z" fill="#263238"/>
<path d="M115.368 62.8614C114.747 62.8899 114.127 62.7924 113.568 62.5782C113.009 62.364 112.529 62.0403 112.174 61.6381C112.152 61.6123 112.136 61.5832 112.128 61.5526C112.12 61.5219 112.12 61.4904 112.128 61.4597C112.136 61.4291 112.152 61.4 112.174 61.3742C112.196 61.3484 112.225 61.3265 112.259 61.3096C112.325 61.2752 112.407 61.2628 112.485 61.2753C112.563 61.2878 112.632 61.3241 112.676 61.3763C114.128 63.0946 117.516 62.0855 117.516 62.076C117.59 62.0526 117.674 62.0536 117.747 62.0785C117.821 62.1035 117.879 62.1506 117.909 62.2093C117.939 62.268 117.937 62.3335 117.906 62.3916C117.874 62.4496 117.814 62.4953 117.74 62.5187C116.978 62.7349 116.177 62.8507 115.368 62.8614Z" fill="#263238"/>
<path d="M109.815 53.5269C109.779 53.5314 109.742 53.5314 109.706 53.5269C109.668 53.5158 109.634 53.499 109.605 53.4774C109.576 53.4558 109.552 53.4298 109.536 53.4011C109.52 53.3723 109.511 53.3412 109.51 53.3097C109.509 53.2782 109.516 53.2469 109.53 53.2175C109.844 52.6348 110.422 52.1647 111.152 51.899C111.599 51.7625 112.077 51.699 112.556 51.7121C113.035 51.7251 113.506 51.8146 113.941 51.9751C114.015 51.9985 114.075 52.0442 114.107 52.1022C114.138 52.1603 114.14 52.2258 114.11 52.2845C114.08 52.3432 114.022 52.3903 113.948 52.4153C113.875 52.4402 113.791 52.4412 113.717 52.4178C113.357 52.281 112.966 52.203 112.566 52.1882C112.167 52.1735 111.768 52.2225 111.394 52.3321C110.813 52.5505 110.352 52.9254 110.093 53.3889C110.07 53.4313 110.031 53.4672 109.981 53.4919C109.932 53.5165 109.873 53.5287 109.815 53.5269Z" fill="#263238"/>
<path d="M122.742 52.7463C122.696 52.7458 122.65 52.7375 122.609 52.7219C122.567 52.7063 122.53 52.6838 122.5 52.6558C121.895 52.0608 121.345 51.7705 120.8 51.7895C120.537 51.8246 120.287 51.903 120.065 52.0195C119.843 52.1359 119.654 52.2879 119.512 52.4654C119.468 52.5182 119.401 52.5556 119.323 52.5698C119.245 52.584 119.163 52.5739 119.094 52.5416C119.06 52.5255 119.03 52.5041 119.006 52.4787C118.983 52.4533 118.966 52.4244 118.957 52.3937C118.948 52.363 118.947 52.3311 118.954 52.3001C118.961 52.2691 118.976 52.2395 118.998 52.2132C119.19 51.9703 119.448 51.7637 119.753 51.6082C120.059 51.4527 120.404 51.3521 120.764 51.3135C121.538 51.2802 122.27 51.6372 122.978 52.3655C123.027 52.4154 123.049 52.4785 123.038 52.5409C123.028 52.6034 122.987 52.6601 122.924 52.6987C122.872 52.7299 122.808 52.7466 122.742 52.7463Z" fill="#263238"/>
<path d="M129.717 40.1892C127.068 37.8092 124.273 37.952 122.603 38.4661C120.341 35.4672 112.864 33.0872 103.245 35.9766C92.0054 39.3467 93.3423 48.4051 93.8807 50.0902C94.4191 51.7752 98.1637 56.1973 100.571 56.4068C100.571 56.4068 102.713 54.9311 102.713 53.4603C102.713 51.9894 107.8 49.0382 112.882 47.772C116.082 46.9771 119.597 45.5157 121.629 43.6498C121.592 44.875 121.992 46.0839 122.785 47.1389C124.394 49.0429 126.802 50.0902 126.802 50.7232C126.802 51.3563 128.139 53.6697 129.221 53.6697C130.304 53.6697 130.292 50.2996 130.558 48.824C130.825 47.3484 133.462 43.5594 129.717 40.1892Z" fill="#263238"/>
<path d="M100.541 56.6448H100.505C97.8733 56.4115 94.0985 51.8419 93.5541 50.1473C93.5238 50.0426 90.5656 39.5181 103.112 35.7576C112.374 32.9777 120.051 34.9151 122.73 38.1757C124.098 37.814 127.086 37.4617 129.941 40.0322C133.069 42.8454 131.883 45.9346 131.151 47.7863C131.003 48.137 130.884 48.4947 130.794 48.8573C130.728 49.2143 130.679 49.6951 130.625 50.1996C130.395 52.4416 130.165 53.9077 129.155 53.9077C127.824 53.9077 126.445 51.3944 126.445 50.7232C126.445 50.5233 125.84 50.0759 125.235 49.6475C124.199 48.9459 123.276 48.1465 122.488 47.2674C121.761 46.3534 121.344 45.3077 121.279 44.2305C119.355 45.768 116.288 47.1532 112.894 47.9957C107.764 49.2714 102.937 52.1513 102.937 53.4555C102.937 55.0168 100.783 56.5162 100.692 56.5829C100.651 56.6145 100.598 56.636 100.541 56.6448ZM111.636 34.9151C108.789 34.9422 105.972 35.3778 103.324 36.2003C91.2674 39.818 94.1106 49.9283 94.1409 50.033C94.6732 51.7086 98.2303 55.8118 100.444 56.1545C100.856 55.8498 102.38 54.6313 102.38 53.4603C102.38 51.8085 107.619 48.824 112.761 47.5435C116.36 46.6534 119.579 45.1349 121.369 43.4927C121.411 43.456 121.465 43.43 121.526 43.4181C121.586 43.4062 121.65 43.409 121.708 43.4261C121.765 43.4435 121.815 43.4742 121.849 43.5142C121.884 43.5541 121.902 43.6014 121.902 43.6498C121.864 44.8295 122.247 45.9938 123.009 47.0104C123.771 47.8553 124.663 48.6227 125.664 49.2952C126.511 49.9093 127.074 50.3139 127.074 50.7232C127.074 51.3373 128.381 53.4317 129.179 53.4317C129.711 53.4317 129.947 51.1421 130.05 50.1616C130.099 49.6475 130.153 49.162 130.22 48.7907C130.312 48.4037 130.438 48.0221 130.595 47.6483C131.309 45.7823 132.41 42.9596 129.488 40.3463C126.802 37.933 124.092 38.2709 122.712 38.6898C122.645 38.7097 122.571 38.7101 122.503 38.6909C122.436 38.6717 122.379 38.6342 122.343 38.5851C120.922 36.7096 117.056 34.9151 111.636 34.9151Z" fill="#263238"/>
<path d="M98.2914 51.1469H98.237C98.1585 51.1353 98.089 51.0998 98.0437 51.0481C97.9984 50.9964 97.9809 50.9326 97.995 50.8708C98.1705 50.133 98.8298 49.5047 100.016 48.9382C100.084 48.9073 100.166 48.899 100.243 48.9149C100.319 48.9309 100.385 48.9699 100.425 49.0236C100.466 49.0773 100.478 49.1413 100.459 49.2019C100.44 49.2625 100.392 49.3148 100.324 49.3476C99.3017 49.8236 98.733 50.3615 98.5879 50.9613C98.5738 51.0146 98.5364 51.0623 98.4823 51.0962C98.4281 51.1301 98.3606 51.148 98.2914 51.1469Z" fill="white"/>
<path d="M102.12 48.6479C102.059 48.6475 101.999 48.6329 101.949 48.6058C101.898 48.5786 101.859 48.5403 101.836 48.4955C101.809 48.4368 101.812 48.3719 101.844 48.3149C101.877 48.2579 101.937 48.2133 102.012 48.1909C104.111 47.6051 106.257 47.128 108.436 46.7629C110.057 46.4678 111.594 46.1822 112.87 45.8632C117.661 44.6637 120.347 41.3792 120.378 41.3507C120.398 41.3236 120.425 41.3 120.458 41.2814C120.49 41.2628 120.527 41.2495 120.566 41.2424C120.605 41.2353 120.645 41.2345 120.684 41.24C120.724 41.2455 120.762 41.2573 120.795 41.2745C120.862 41.3087 120.91 41.3624 120.927 41.424C120.944 41.4856 120.929 41.5499 120.886 41.603C118.977 43.7998 116.219 45.454 113.021 46.3202C111.727 46.6439 110.178 46.9295 108.545 47.2294C106.394 47.5815 104.274 48.0426 102.199 48.6098C102.175 48.6252 102.149 48.638 102.12 48.6479Z" fill="white"/>
<path d="M97.3896 44.4019C97.3288 44.4022 97.2694 44.3872 97.2202 44.359C97.1539 44.3241 97.1078 44.2701 97.092 44.2085C97.0761 44.147 97.0918 44.0831 97.1356 44.0306C97.7405 43.2928 99.3738 43.3451 101.812 43.4213C103.789 43.5084 105.771 43.4989 107.746 43.3927C113.245 43.0453 118.157 40.4415 118.206 40.4129C118.272 40.3785 118.354 40.3662 118.432 40.3787C118.51 40.3911 118.579 40.4274 118.623 40.4796C118.646 40.5051 118.662 40.5339 118.67 40.5643C118.679 40.5948 118.679 40.6263 118.672 40.6569C118.665 40.6875 118.649 40.7166 118.628 40.7426C118.606 40.7686 118.577 40.7908 118.544 40.808C118.339 40.9175 113.451 43.5117 107.795 43.8688C105.795 43.9773 103.789 43.9868 101.788 43.8973C99.634 43.8307 98.0793 43.7783 97.6377 44.2972C97.6106 44.3294 97.5737 44.3559 97.5305 44.3742C97.4872 44.3924 97.4388 44.402 97.3896 44.4019Z" fill="white"/>
<path d="M129.887 46.8866C129.847 46.8854 129.808 46.878 129.772 46.8649C129.736 46.8518 129.703 46.8332 129.676 46.8102C129.649 46.7872 129.628 46.7603 129.615 46.7309C129.601 46.7016 129.595 46.6703 129.596 46.6391C129.624 46.0507 129.569 45.4617 129.433 44.8826C129.424 44.8519 129.423 44.8202 129.431 44.7893C129.438 44.7583 129.453 44.7289 129.475 44.7026C129.497 44.6764 129.526 44.6539 129.559 44.6366C129.592 44.6193 129.63 44.6074 129.669 44.6018C129.708 44.5956 129.749 44.5956 129.788 44.6018C129.828 44.6081 129.865 44.6204 129.898 44.6381C129.931 44.6559 129.96 44.6786 129.982 44.7051C130.004 44.7315 130.019 44.7611 130.026 44.7922C130.169 45.4075 130.228 46.033 130.201 46.6581C130.2 46.6894 130.19 46.7201 130.174 46.7485C130.157 46.7769 130.133 46.8025 130.104 46.8237C130.075 46.8449 130.041 46.8614 130.003 46.8722C129.966 46.883 129.927 46.8879 129.887 46.8866Z" fill="white"/>
<path d="M129.391 44.121C129.328 44.1214 129.266 44.1059 129.215 44.0768C129.164 44.0477 129.126 44.0065 129.107 43.9592C128.716 43.1123 128.089 42.3448 127.273 41.7131C126.456 41.0814 125.471 40.6014 124.388 40.3082C124.311 40.2905 124.245 40.2497 124.206 40.1946C124.166 40.1394 124.156 40.0743 124.176 40.0131C124.187 39.9831 124.206 39.9551 124.231 39.9307C124.256 39.9064 124.286 39.8861 124.321 39.8711C124.356 39.856 124.394 39.8466 124.434 39.8432C124.473 39.8398 124.513 39.8425 124.551 39.8513C125.732 40.1585 126.807 40.6743 127.696 41.3591C128.584 42.0439 129.261 42.8796 129.675 43.8021C129.689 43.8318 129.694 43.8633 129.692 43.8947C129.69 43.9261 129.68 43.9569 129.662 43.9852C129.645 44.0136 129.62 44.0389 129.59 44.0598C129.56 44.0806 129.526 44.0966 129.488 44.1068C129.457 44.1161 129.424 44.121 129.391 44.121Z" fill="white"/>
<path d="M109.936 65.7269C109.149 65.7511 108.366 65.6237 107.656 65.3557C105.351 64.4037 101.255 60.1196 101.086 59.9197C101.038 59.8692 101.017 59.8057 101.028 59.7432C101.04 59.6807 101.082 59.6243 101.146 59.5865C101.211 59.5486 101.291 59.5323 101.371 59.5413C101.45 59.5502 101.522 59.5836 101.57 59.6341C101.612 59.6769 105.75 64.0276 107.94 64.9368C110.13 65.8459 114.237 64.5798 114.28 64.5655C114.317 64.5542 114.357 64.5489 114.397 64.5497C114.437 64.5506 114.476 64.5576 114.513 64.5704C114.549 64.5832 114.582 64.6016 114.61 64.6244C114.637 64.6473 114.659 64.6742 114.673 64.7035C114.687 64.7329 114.694 64.7642 114.693 64.7957C114.692 64.8271 114.683 64.8581 114.667 64.8868C114.65 64.9156 114.627 64.9415 114.598 64.9631C114.569 64.9848 114.535 65.0017 114.497 65.0129C113.034 65.4383 111.495 65.6793 109.936 65.7269Z" fill="#263238"/>
<path d="M115.889 64.8273C115.889 65.2605 115.211 65.6175 114.382 65.6175C113.554 65.6175 112.876 65.2605 112.876 64.8273C112.876 64.3941 113.547 64.0371 114.382 64.0371C115.217 64.0371 115.889 64.3894 115.889 64.8273Z" fill="#263238"/>
<path d="M98.9689 53.7507C98.9689 53.7507 94.0023 43.6308 98.9689 37.595C98.9689 37.595 91.2922 43.8069 98.0676 55.1739L98.9689 53.7507Z" fill="white"/>
<path d="M102.411 57.0303C102.865 59.4104 102.042 61.4667 100.566 61.6428C99.0899 61.819 97.5413 60.0339 97.0815 57.6587C96.6217 55.2834 97.4566 53.2223 98.9266 53.0462C100.397 52.87 101.982 54.6551 102.411 57.0303Z" fill="white"/>
<path d="M100.384 61.8808C98.8051 61.8808 97.2625 60.1053 96.8027 57.6872C96.5668 56.6077 96.6391 55.5004 97.0144 54.4456C97.3955 53.4936 98.067 52.8986 98.9018 52.8034C100.559 52.6082 102.247 54.4408 102.731 56.9827C102.964 58.0624 102.892 59.1691 102.519 60.2243C102.132 61.1763 101.467 61.7713 100.632 61.8665C100.55 61.876 100.467 61.8808 100.384 61.8808ZM99.1741 53.2651C99.1198 53.2604 99.065 53.2604 99.0107 53.2651C98.4058 53.3317 97.9218 53.8125 97.6133 54.5789C97.2673 55.5647 97.2033 56.5986 97.4258 57.6063C97.8432 59.8054 99.2769 61.5429 100.565 61.3858C101.17 61.3191 101.66 60.8384 101.969 60.072C102.312 59.0858 102.376 58.0524 102.156 57.0446C101.727 54.9502 100.39 53.2746 99.1499 53.2746L99.1741 53.2651Z" fill="#263238"/>
<path d="M99.7427 61.5718C101.051 61.417 101.744 59.3674 101.29 56.9939C100.837 54.6204 99.4087 52.8217 98.1004 52.9765C96.7921 53.1313 96.0991 55.1809 96.5526 57.5544C97.0061 59.9279 98.4343 61.7266 99.7427 61.5718Z" fill="white"/>
<path d="M99.5737 61.8237C98.8841 61.8237 98.1763 61.4096 97.5653 60.6432C96.8719 59.7071 96.4235 58.6713 96.2466 57.5968C95.7566 55.0501 96.5551 52.9224 98.0614 52.7463C99.5677 52.5702 101.086 54.4218 101.6 56.9637C101.83 58.0321 101.789 59.1256 101.479 60.1815C101.153 61.1335 100.554 61.7238 99.7915 61.8142L99.5737 61.8237ZM98.2429 53.208H98.14C97.16 53.3222 96.3857 55.112 96.8455 57.4921C97.0067 58.4973 97.4178 59.4678 98.0553 60.3481C98.5877 61.0097 99.1684 61.3572 99.6705 61.3001C100.173 61.243 100.608 60.7717 100.88 60.0149C101.17 59.0229 101.207 57.9955 100.989 56.9922C100.548 54.7407 99.2168 53.208 98.2429 53.208Z" fill="#263238"/>
<path d="M148.186 73.8857L155.161 117.274L141.229 117.059L148.186 73.8857Z" fill="#FF725E"/>
<path d="M155.161 117.512L141.248 117.297C141.205 117.297 141.163 117.29 141.125 117.276C141.086 117.262 141.052 117.242 141.024 117.217C140.997 117.191 140.977 117.161 140.965 117.129C140.954 117.097 140.951 117.064 140.957 117.031L147.908 73.8572C147.917 73.7991 147.953 73.7457 148.008 73.707C148.064 73.6684 148.136 73.6473 148.21 73.6477C148.284 73.6484 148.354 73.6701 148.409 73.7086C148.463 73.7471 148.498 73.7999 148.507 73.8572L155.482 117.24C155.489 117.274 155.486 117.309 155.473 117.342C155.461 117.375 155.439 117.405 155.409 117.431C155.379 117.458 155.34 117.48 155.297 117.494C155.254 117.508 155.208 117.514 155.161 117.512ZM141.574 116.826L154.816 117.031L148.162 75.7802L141.574 116.826Z" fill="#263238"/>
<path opacity="0.3" d="M151.985 97.548L144.732 100.975L144.853 94.5634L141.229 117.059L155.161 117.274L154.018 110.186L147.938 110.343L153.334 105.93L153.292 105.64L145.875 107.639L152.584 101.247L151.985 97.548Z" fill="black"/>
<path d="M98.3451 61.0907C98.3451 61.0907 100.402 60.5242 100.85 61.1478C101.297 61.7714 101.817 64.4798 101.805 64.8654C101.793 65.251 101.624 65.6032 100.692 65.3414C99.7606 65.0796 98.2725 62.6948 98.2725 62.6948L98.3451 61.0907Z" fill="white"/>
<path d="M101.243 65.6889C101.019 65.6841 100.798 65.6486 100.59 65.5842C99.5977 65.2938 98.2668 63.2327 98.0127 62.8186C98.0036 62.7824 98.0036 62.7452 98.0127 62.7091L98.0732 61.1097C98.0745 61.0616 98.0942 61.0149 98.1298 60.9759C98.1655 60.9368 98.2153 60.9071 98.2728 60.8907C98.66 60.786 100.596 60.2957 101.14 61.0574C101.618 61.719 102.157 64.4989 102.138 64.8987C102.147 65.0273 102.118 65.1556 102.053 65.2737C101.987 65.3918 101.888 65.4965 101.763 65.5794C101.609 65.6579 101.427 65.6962 101.243 65.6889ZM98.5874 62.6615C99.15 63.5516 100.215 64.9654 100.795 65.1367C101.213 65.2557 101.358 65.2034 101.4 65.1843C101.443 65.1653 101.509 65.0463 101.515 64.8844C101.515 64.556 101.013 61.8761 100.596 61.2906C100.396 61.005 99.3859 61.1145 98.6539 61.2906L98.5874 62.6615Z" fill="#263238"/>
<path d="M89.344 69.6778C89.344 69.6778 91.2496 60.0387 91.2919 58.9915C91.3342 57.9442 93.1067 57.0874 93.9536 56.8304C94.8006 56.5734 99.6401 56.6971 100.154 56.7114C100.669 56.7257 102.737 56.64 102.719 57.1874C102.701 57.7348 102.52 57.9681 100.789 58.187C99.0594 58.406 94.9216 58.5773 94.9216 58.5773L93.8387 59.8626L98.9747 60.6337C98.9747 60.6337 100.185 61.0526 99.9668 61.7047C99.749 62.3568 99.1501 65.2176 99.138 65.608C99.1259 65.9983 98.5936 66.2506 97.3655 66.8789C96.6324 67.252 95.8081 67.5001 94.9458 67.6072C94.9458 67.6072 95.0425 69.5731 94.3408 69.8158L92.5925 70.4299L92.3505 81.6779L84.4561 80.9734L89.344 69.6778Z" fill="white"/>
<path d="M92.3442 81.8731H92.3079L84.4437 81.1686C84.3984 81.1645 84.3548 81.1526 84.3161 81.1336C84.2774 81.1147 84.2445 81.0892 84.2198 81.0591C84.2005 81.0272 84.1904 80.9922 84.1904 80.9568C84.1904 80.9214 84.2005 80.8864 84.2198 80.8544L89.1078 69.6017C89.2045 69.1257 91.0073 59.9625 91.0436 58.9677C91.0859 57.7681 93.0278 56.8304 93.905 56.5877C94.7821 56.3449 98.5993 56.4163 100.214 56.4544H100.487C101.491 56.4544 102.501 56.4782 102.906 56.8019C102.964 56.8475 103.009 56.9018 103.039 56.9615C103.07 57.0212 103.084 57.0851 103.082 57.1493C103.082 57.9014 102.586 58.1632 100.898 58.3822C99.3373 58.5821 95.9255 58.7344 95.1511 58.7678L94.4071 59.6531L99.0954 60.3576H99.1619C99.2163 60.3576 100.577 60.8669 100.323 61.7C100.112 62.3997 99.5128 65.2129 99.5007 65.5604C99.5007 66.0364 98.9381 66.3363 97.7524 66.9408L97.5951 67.0217C96.8945 67.3737 96.1172 67.6206 95.3024 67.75C95.3024 68.3974 95.2419 69.7207 94.5159 69.9777L92.9491 70.5299L92.7072 81.6256C92.706 81.6589 92.6962 81.6916 92.6786 81.7219C92.6609 81.7521 92.6356 81.7793 92.6043 81.8017C92.5712 81.829 92.5304 81.8496 92.4852 81.862C92.44 81.8745 92.3916 81.8783 92.3442 81.8731ZM84.8671 80.7497L92.0478 81.3971L92.2837 70.4109C92.2858 70.366 92.304 70.3226 92.3361 70.2856C92.3682 70.2485 92.4129 70.2193 92.4652 70.2014L94.2074 69.5874C94.5099 69.4779 94.6732 68.4545 94.6309 67.6024C94.6273 67.5423 94.6527 67.4834 94.7021 67.4375C94.7515 67.3916 94.8212 67.3621 94.8971 67.3549C95.7185 67.2549 96.5038 67.0197 97.2019 66.6647L97.3652 66.5838C98.3997 66.0507 98.8231 65.8269 98.8352 65.5889C98.8352 65.151 99.4946 62.2569 99.6761 61.6333C99.7971 61.2335 99.0712 60.9098 98.8836 60.8479L93.784 60.0815C93.7347 60.0739 93.6886 60.0568 93.6496 60.032C93.6106 60.0071 93.5799 59.9751 93.5601 59.9387C93.5378 59.9041 93.5262 59.8657 93.5262 59.8269C93.5262 59.788 93.5378 59.7497 93.5601 59.715L94.6369 58.4298C94.6648 58.3993 94.701 58.374 94.7429 58.3559C94.7847 58.3378 94.8312 58.3272 94.8789 58.3251C94.9152 58.3251 99.0167 58.1585 100.711 57.9395C102.404 57.7205 102.374 57.5159 102.386 57.1636C102.332 57.0922 102.005 56.9589 100.438 56.9589H100.112C97.6919 56.9018 94.6248 56.8971 94.0259 57.0637C93.2093 57.2921 91.6062 58.1204 91.5638 59.0105C91.5215 60.0577 89.6946 69.3303 89.6159 69.7254C89.6159 69.7254 89.6159 69.754 89.6159 69.7635L84.8671 80.7497Z" fill="#263238"/>
<path d="M99.5548 62.4663H99.5004L93.2695 61.5857C93.1893 61.5743 93.1181 61.5384 93.0716 61.4857C93.025 61.433 93.007 61.368 93.0215 61.3048C93.0359 61.2417 93.0816 61.1857 93.1486 61.1491C93.2155 61.1125 93.2982 61.0983 93.3784 61.1097L99.6093 61.9951C99.6895 62.0007 99.7636 62.0313 99.8152 62.0799C99.8668 62.1286 99.8918 62.1914 99.8845 62.2545C99.8773 62.3176 99.8385 62.3759 99.7767 62.4165C99.7149 62.4571 99.6351 62.4767 99.5548 62.4711V62.4663Z" fill="#263238"/>
<path d="M98.8474 64.6655H98.7809L93.651 63.6849C93.5707 63.6704 93.5011 63.6314 93.4575 63.5765C93.4138 63.5216 93.3996 63.4553 93.4181 63.3921C93.4365 63.329 93.4861 63.2743 93.5558 63.2399C93.6256 63.2055 93.7099 63.1944 93.7901 63.2089L98.9261 64.1895C98.9648 64.1961 99.0014 64.2089 99.0337 64.2271C99.0659 64.2452 99.0931 64.2684 99.1135 64.2952C99.1339 64.322 99.1471 64.3517 99.1523 64.3826C99.1575 64.4136 99.1547 64.445 99.1438 64.4751C99.131 64.5292 99.0942 64.5781 99.0399 64.6129C98.9856 64.6478 98.9174 64.6664 98.8474 64.6655Z" fill="#263238"/>
<path d="M94.9338 67.8214C94.883 67.8222 94.8327 67.8126 94.7882 67.7934C94.7436 67.7741 94.7062 67.7461 94.6797 67.7119C94.4619 67.4453 93.9719 66.7932 94.1353 66.4362C94.1609 66.3794 94.2034 66.3282 94.2591 66.2868C94.3149 66.2454 94.3823 66.2151 94.4559 66.1982C94.9338 66.084 96.0469 65.8602 96.0469 65.8602L96.1981 66.3363C96.1981 66.3363 95.206 66.5362 94.7039 66.6504C94.8043 66.9432 94.968 67.2201 95.1879 67.4691C95.2311 67.5222 95.2458 67.5866 95.2288 67.6481C95.2118 67.7097 95.1644 67.7634 95.0971 67.7976C95.046 67.8161 94.9899 67.8242 94.9338 67.8214Z" fill="#263238"/>
<path d="M85.1633 75.1471L93.693 77.6795C93.693 77.6795 87.7525 107.021 86.3248 109.324C84.8971 111.628 81.5578 114.303 77.2507 114.627C72.9435 114.951 69.828 111.295 69.701 107.454C69.5739 103.612 85.1633 75.1471 85.1633 75.1471Z" fill="#FF725E"/>
<path d="M76.7006 114.884C75.2126 114.872 73.7832 114.426 72.6898 113.632C70.7298 112.261 69.4594 109.9 69.3808 107.444C69.2477 103.612 84.2502 76.1991 84.8854 75.0329C84.9173 74.977 84.9754 74.933 85.0475 74.9099C85.1196 74.8869 85.2002 74.8866 85.2726 74.9091L93.8023 77.4367C93.8677 77.4549 93.9229 77.4907 93.9583 77.5376C93.9936 77.5846 94.0069 77.6398 93.9959 77.6937C93.7539 78.8933 88.0311 107.101 86.5914 109.405C85.0548 111.88 81.5704 114.522 77.2571 114.846C77.0756 114.879 76.8881 114.884 76.7006 114.884ZM85.327 75.4517C83.9115 78.0507 69.8647 103.893 69.9857 107.449C70.0583 109.758 71.25 111.99 73.0951 113.275C73.6411 113.678 74.2894 113.986 74.9973 114.178C75.7053 114.37 76.4569 114.442 77.2027 114.389C81.28 114.084 84.583 111.571 86.053 109.22C87.3899 107.073 92.8404 80.3736 93.3607 77.8318L85.327 75.4517Z" fill="#263238"/>
<path opacity="0.3" d="M78.1042 99.7138C76.0234 100.549 73.8509 101.234 71.6132 101.761C70.8449 103.517 70.2581 105.007 69.9436 106.073L73.9785 105.673C76.8534 105.413 79.6896 104.935 82.4477 104.245C82.4477 104.245 75.7933 107.487 69.8589 108.03H69.7197C70.1129 111.638 73.1134 114.951 77.2271 114.641C81.5524 114.318 84.8856 111.638 86.3012 109.339C87.0029 108.206 88.7936 100.561 90.4329 93.0735C86.6326 95.623 82.5 97.8488 78.1042 99.7138Z" fill="black"/>
<path d="M169.396 24.7524V23.4482C169.396 23.2639 169.302 23.0871 169.137 22.9568C168.971 22.8264 168.747 22.7532 168.512 22.7532H167.236C167.042 22.096 166.711 21.4687 166.256 20.8968L167.157 20.1828C167.322 20.0517 167.415 19.8747 167.415 19.6901C167.415 19.5056 167.322 19.3285 167.157 19.1974L165.99 18.2788C165.823 18.1488 165.598 18.0759 165.364 18.0759C165.129 18.0759 164.904 18.1488 164.737 18.2788L163.83 18.988C163.103 18.6301 162.306 18.3695 161.471 18.2169V17.2125C161.471 17.0282 161.378 16.8514 161.212 16.7211C161.046 16.5908 160.822 16.5175 160.588 16.5175H158.93C158.696 16.5175 158.471 16.5908 158.305 16.7211C158.14 16.8514 158.047 17.0282 158.047 17.2125V18.2169C157.212 18.3695 156.414 18.6301 155.688 18.988L154.78 18.2788C154.614 18.1488 154.389 18.0759 154.154 18.0759C153.919 18.0759 153.694 18.1488 153.528 18.2788L152.36 19.1974C152.195 19.3285 152.103 19.5056 152.103 19.6901C152.103 19.8747 152.195 20.0517 152.36 20.1828L153.262 20.8968C152.806 21.468 152.477 22.0956 152.288 22.7532H151.005C150.771 22.7532 150.546 22.8264 150.381 22.9568C150.215 23.0871 150.122 23.2639 150.122 23.4482V24.7524C150.122 24.9368 150.215 25.1135 150.381 25.2439C150.546 25.3742 150.771 25.4474 151.005 25.4474H152.288C152.477 26.105 152.806 26.7327 153.262 27.3038L152.36 28.0178C152.195 28.1489 152.103 28.326 152.103 28.5105C152.103 28.6951 152.195 28.8721 152.36 29.0032L153.528 29.9219C153.694 30.0518 153.919 30.1247 154.154 30.1247C154.389 30.1247 154.614 30.0518 154.78 29.9219L155.688 29.2126C156.418 29.5757 157.222 29.8381 158.065 29.9885V30.9976C158.065 31.182 158.158 31.3587 158.324 31.4891C158.489 31.6194 158.714 31.6926 158.948 31.6926H160.606C160.84 31.6926 161.065 31.6194 161.23 31.4891C161.396 31.3587 161.489 31.182 161.489 30.9976V29.9885C162.325 29.8396 163.122 29.5804 163.848 29.2221L164.756 29.9314C164.922 30.0613 165.147 30.1342 165.382 30.1342C165.616 30.1342 165.841 30.0613 166.008 29.9314L167.139 29.0365C167.304 28.9054 167.397 28.7284 167.397 28.5438C167.397 28.3593 167.304 28.1822 167.139 28.0512L166.238 27.3372C166.693 26.7652 167.024 26.1379 167.218 25.4807H168.494C168.615 25.4828 168.736 25.4652 168.848 25.4291C168.96 25.393 169.062 25.3391 169.146 25.2708C169.231 25.2025 169.296 25.1212 169.339 25.032C169.382 24.9429 169.401 24.8477 169.396 24.7524ZM160.146 27.0658C159.367 27.1313 158.582 27.005 157.898 26.7045C157.214 26.404 156.665 25.944 156.327 25.3879C155.989 24.8318 155.879 24.207 156.011 23.5995C156.144 22.992 156.512 22.4317 157.066 21.9958C157.62 21.56 158.332 21.27 159.104 21.1659C159.876 21.0618 160.67 21.1486 161.377 21.4144C162.084 21.6802 162.668 22.1119 163.05 22.6501C163.432 23.1883 163.593 23.8064 163.509 24.4192C163.42 25.0986 163.038 25.7335 162.426 26.2177C161.814 26.702 161.009 27.0064 160.146 27.0801V27.0658Z" fill="#263238"/>
<path d="M14.5307 81.6161V80.6355C14.5307 80.4954 14.46 80.361 14.334 80.2619C14.2081 80.1628 14.0373 80.1072 13.8592 80.1072H12.8792C12.7336 79.6117 12.4842 79.1388 12.1412 78.7077L12.8248 78.1746C12.887 78.1259 12.9363 78.0681 12.97 78.0043C13.0037 77.9406 13.021 77.8723 13.021 77.8033C13.021 77.7343 13.0037 77.666 12.97 77.6022C12.9363 77.5385 12.887 77.4807 12.8248 77.432L11.9416 76.737C11.8797 76.6881 11.8062 76.6493 11.7252 76.6228C11.6442 76.5963 11.5574 76.5826 11.4697 76.5826C11.382 76.5826 11.2952 76.5963 11.2142 76.6228C11.1332 76.6493 11.0597 76.6881 10.9979 76.737L10.3143 77.2702C9.76723 77.0002 9.1658 76.8054 8.53574 76.6942V75.9326C8.53574 75.7937 8.46563 75.6605 8.34084 75.5623C8.21604 75.4642 8.04679 75.409 7.8703 75.409H6.64227C6.46522 75.409 6.29533 75.464 6.16958 75.562C6.04382 75.6601 5.97238 75.7933 5.97078 75.9326V76.6942C5.34071 76.8054 4.73929 77.0002 4.19225 77.2702L3.50867 76.737C3.44683 76.6881 3.37331 76.6493 3.29233 76.6228C3.21135 76.5963 3.12451 76.5826 3.03681 76.5826C2.94911 76.5826 2.86227 76.5963 2.78129 76.6228C2.70032 76.6493 2.62679 76.6881 2.56495 76.737L1.68779 77.432C1.62487 77.4803 1.57486 77.5381 1.54072 77.6018C1.50658 77.6656 1.48899 77.7341 1.48899 77.8033C1.48899 77.8725 1.50658 77.941 1.54072 78.0047C1.57486 78.0685 1.62487 78.1262 1.68779 78.1746L2.36533 78.7077C2.02236 79.1388 1.77295 79.6117 1.6273 80.1072H0.665436C0.488397 80.1084 0.319155 80.1646 0.194532 80.2636C0.0699095 80.3625 -7.18431e-06 80.4962 5.53699e-10 80.6355V81.6161C5.53699e-10 81.755 0.0701078 81.8882 0.194901 81.9864C0.319695 82.0845 0.488951 82.1397 0.665436 82.1397H1.6273C1.77075 82.6357 2.02031 83.109 2.36533 83.5392L1.68779 84.0771C1.62487 84.1254 1.57486 84.1831 1.54072 84.2469C1.50658 84.3106 1.48899 84.3791 1.48899 84.4483C1.48899 84.5175 1.50658 84.586 1.54072 84.6498C1.57486 84.7135 1.62487 84.7713 1.68779 84.8196L2.5952 85.5146C2.65704 85.5635 2.73056 85.6024 2.81154 85.6289C2.89252 85.6554 2.97936 85.669 3.06706 85.669C3.15476 85.669 3.24159 85.6554 3.32257 85.6289C3.40355 85.6024 3.47707 85.5635 3.53891 85.5146L4.2225 84.9767C4.76924 85.2482 5.37065 85.4446 6.00103 85.5574V86.3143C6.00103 86.4544 6.07177 86.5888 6.1977 86.6879C6.32363 86.787 6.49442 86.8427 6.67251 86.8427H7.9187C8.09574 86.8414 8.26498 86.7852 8.3896 86.6862C8.51422 86.5873 8.58414 86.4536 8.58413 86.3143V85.5574C9.21451 85.4446 9.81592 85.2482 10.3627 84.9767L11.0462 85.5146C11.1081 85.5635 11.1816 85.6024 11.2626 85.6289C11.3436 85.6554 11.4304 85.669 11.5181 85.669C11.6058 85.669 11.6926 85.6554 11.7736 85.6289C11.8546 85.6024 11.9281 85.5635 11.99 85.5146L12.8732 84.8196C12.9354 84.771 12.9847 84.7131 13.0184 84.6494C13.0521 84.5857 13.0694 84.5173 13.0694 84.4483C13.0694 84.3793 13.0521 84.311 13.0184 84.2473C12.9847 84.1836 12.9354 84.1257 12.8732 84.0771L12.1896 83.5392C12.5346 83.109 12.7842 82.6357 12.9276 82.1397H13.8895C14.0612 82.1336 14.2235 82.0759 14.3428 81.9785C14.4621 81.8811 14.5293 81.7514 14.5307 81.6161ZM7.55573 83.3583C6.96906 83.406 6.37803 83.3095 5.86383 83.0822C5.34962 82.8549 4.93749 82.5079 4.68405 82.0889C4.43062 81.6698 4.34831 81.1993 4.44845 80.742C4.54859 80.2846 4.82626 79.8629 5.2433 79.5347C5.66035 79.2066 6.1963 78.9881 6.77752 78.9093C7.35875 78.8305 7.95672 78.8953 8.48928 79.0947C9.02184 79.2941 9.46285 79.6184 9.75172 80.023C10.0406 80.4276 10.1631 80.8927 10.1025 81.3543C10.0351 81.8677 9.74515 82.3472 9.28135 82.7121C8.81754 83.0771 8.20818 83.3052 7.55573 83.3583Z" fill="#263238"/>
<path d="M200 68.545V67.5644C200 67.4243 199.93 67.2899 199.804 67.1908C199.678 67.0917 199.507 67.0361 199.329 67.0361H198.367C198.224 66.54 197.974 66.0668 197.629 65.6366L198.313 65.1035C198.375 65.0548 198.424 64.997 198.458 64.9333C198.492 64.8695 198.509 64.8012 198.509 64.7322C198.509 64.6632 198.492 64.5949 198.458 64.5311C198.424 64.4674 198.375 64.4096 198.313 64.3609L197.429 63.6659C197.368 63.617 197.294 63.5782 197.213 63.5517C197.132 63.5252 197.045 63.5115 196.958 63.5115C196.87 63.5115 196.783 63.5252 196.702 63.5517C196.621 63.5782 196.548 63.617 196.486 63.6659L195.802 64.1991C195.254 63.9295 194.653 63.7333 194.024 63.6183V62.8329C194.024 62.7642 194.006 62.6961 193.973 62.6326C193.94 62.569 193.891 62.5113 193.829 62.4627C193.767 62.4141 193.694 62.3755 193.613 62.3492C193.532 62.3229 193.446 62.3093 193.358 62.3093H192.106C191.929 62.3093 191.76 62.3645 191.635 62.4627C191.511 62.5609 191.441 62.6941 191.441 62.8329V63.5898C190.811 63.7047 190.21 63.901 189.662 64.1705L188.978 63.6374C188.917 63.5884 188.843 63.5496 188.762 63.5231C188.681 63.4966 188.594 63.483 188.507 63.483C188.419 63.483 188.332 63.4966 188.251 63.5231C188.17 63.5496 188.097 63.5884 188.035 63.6374L187.158 64.3323C187.095 64.3807 187.045 64.4384 187.01 64.5022C186.976 64.566 186.959 64.6344 186.959 64.7036C186.959 64.7728 186.976 64.8413 187.01 64.9051C187.045 64.9688 187.095 65.0266 187.158 65.0749L187.835 65.608C187.49 66.0383 187.24 66.5115 187.097 67.0075H186.135C185.958 67.0088 185.789 67.065 185.664 67.1639C185.54 67.2629 185.47 67.3966 185.47 67.5359V68.545C185.47 68.6839 185.54 68.8171 185.665 68.9152C185.789 69.0134 185.959 69.0686 186.135 69.0686H187.103C187.247 69.5646 187.496 70.0379 187.841 70.4681L187.164 71.006C187.101 71.0543 187.051 71.112 187.017 71.1758C186.982 71.2396 186.965 71.308 186.965 71.3772C186.965 71.4464 186.982 71.5149 187.017 71.5787C187.051 71.6424 187.101 71.7002 187.164 71.7485L188.041 72.4435C188.103 72.4924 188.176 72.5313 188.257 72.5578C188.338 72.5843 188.425 72.5979 188.513 72.5979C188.6 72.5979 188.687 72.5843 188.768 72.5578C188.849 72.5313 188.923 72.4924 188.984 72.4435L189.668 71.9056C190.215 72.1771 190.816 72.3735 191.447 72.4863V73.2432C191.447 73.3825 191.516 73.5162 191.641 73.6151C191.766 73.7141 191.935 73.7703 192.112 73.7715H193.364C193.541 73.7703 193.711 73.7141 193.835 73.6151C193.96 73.5162 194.03 73.3825 194.03 73.2432V72.4863C194.66 72.3735 195.261 72.1771 195.808 71.9056L196.492 72.4435C196.554 72.4924 196.627 72.5313 196.708 72.5578C196.789 72.5843 196.876 72.5979 196.964 72.5979C197.051 72.5979 197.138 72.5843 197.219 72.5578C197.3 72.5313 197.374 72.4924 197.435 72.4435L198.319 71.7485C198.381 71.6999 198.43 71.642 198.464 71.5783C198.498 71.5146 198.515 71.4462 198.515 71.3772C198.515 71.3082 198.498 71.2399 198.464 71.1762C198.43 71.1125 198.381 71.0546 198.319 71.006L197.629 70.449C197.974 70.0188 198.224 69.5456 198.367 69.0496H199.329C199.502 69.0497 199.668 68.9973 199.793 68.9033C199.918 68.8093 199.993 68.681 200 68.545ZM193.025 70.2872C192.439 70.3349 191.848 70.2384 191.334 70.0111C190.819 69.7838 190.407 69.4368 190.154 69.0178C189.9 68.5987 189.818 68.1282 189.918 67.6709C190.018 67.2135 190.296 66.7918 190.713 66.4636C191.13 66.1355 191.666 65.917 192.247 65.8382C192.828 65.7594 193.426 65.8242 193.959 66.0236C194.492 66.223 194.933 66.5473 195.221 66.9519C195.51 67.3565 195.633 67.8216 195.572 68.2832C195.502 68.7949 195.211 69.2721 194.748 69.6352C194.284 69.9982 193.676 70.225 193.025 70.2777V70.2872Z" fill="#263238"/>
<path d="M98.0492 4.66498V4.16041C98.0492 4.125 98.0402 4.08995 98.0228 4.05729C98.0054 4.02464 97.9799 3.99504 97.9478 3.97022C97.9157 3.9454 97.8777 3.92587 97.8359 3.91276C97.7941 3.89964 97.7494 3.89322 97.7044 3.89385H97.2144C97.1383 3.63942 97.0096 3.39658 96.8333 3.17508L97.1841 2.90376C97.2477 2.853 97.2833 2.7846 97.2833 2.71335C97.2833 2.6421 97.2477 2.57371 97.1841 2.52295L96.7304 2.16595C96.6669 2.11624 96.581 2.08834 96.4915 2.08834C96.4019 2.08834 96.316 2.11624 96.2525 2.16595L95.9016 2.44203C95.6201 2.30328 95.3115 2.20196 94.9882 2.14215V1.75658C94.9882 1.68544 94.9527 1.61714 94.8893 1.56639C94.826 1.51564 94.7398 1.48651 94.6494 1.48526H94.0082C93.9178 1.48651 93.8316 1.51564 93.7682 1.56639C93.7049 1.61714 93.6694 1.68544 93.6694 1.75658V2.14215C93.3458 2.20138 93.0371 2.30273 92.7559 2.44203L92.4051 2.16595C92.3406 2.11595 92.2536 2.08792 92.1631 2.08792C92.0725 2.08792 91.9856 2.11595 91.9211 2.16595L91.4735 2.52295C91.4099 2.57371 91.3743 2.6421 91.3743 2.71335C91.3743 2.7846 91.4099 2.853 91.4735 2.90376L91.8183 3.17508C91.6441 3.39689 91.5174 3.63971 91.4432 3.89385H90.9472C90.8573 3.89385 90.7712 3.92193 90.7076 3.97192C90.6441 4.02191 90.6084 4.08972 90.6084 4.16041V4.66498C90.6084 4.73612 90.6439 4.80442 90.7072 4.85517C90.7706 4.90592 90.8568 4.93506 90.9472 4.9363H91.4432C91.5164 5.1892 91.6432 5.43058 91.8183 5.65031L91.4735 5.92639C91.4099 5.97715 91.3743 6.04555 91.3743 6.1168C91.3743 6.18805 91.4099 6.25644 91.4735 6.3072L91.9211 6.66421C91.9856 6.71421 92.0725 6.74223 92.1631 6.74223C92.2536 6.74223 92.3406 6.71421 92.4051 6.66421L92.7559 6.38812C93.036 6.52793 93.3453 6.62783 93.6694 6.68325V7.07357C93.6694 7.14427 93.7051 7.21207 93.7686 7.26206C93.8322 7.31205 93.9183 7.34013 94.0082 7.34013H94.6494C94.7393 7.34013 94.8254 7.31205 94.889 7.26206C94.9525 7.21207 94.9882 7.14427 94.9882 7.07357V6.66421C95.312 6.60786 95.621 6.50802 95.9016 6.36908L96.2525 6.64516C96.316 6.69487 96.4019 6.72277 96.4915 6.72277C96.581 6.72277 96.6669 6.69487 96.7304 6.64516L97.1841 6.28816C97.2477 6.2374 97.2833 6.16901 97.2833 6.09776C97.2833 6.02651 97.2477 5.95812 97.1841 5.90736L96.8333 5.63127C97.0103 5.41177 97.1391 5.1704 97.2144 4.91726H97.7044C97.7918 4.91743 97.876 4.89148 97.94 4.84464C98.004 4.79781 98.043 4.73359 98.0492 4.66498ZM94.48 5.55987C94.1788 5.58927 93.8735 5.54429 93.6062 5.43115C93.339 5.31802 93.123 5.14232 92.9882 4.92837C92.8534 4.71442 92.8064 4.47279 92.8538 4.23691C92.9012 4.00104 93.0405 3.78258 93.2526 3.61175C93.4647 3.44093 93.7389 3.32618 94.0375 3.2834C94.3361 3.24062 94.6442 3.27191 94.9192 3.37294C95.1942 3.47397 95.4225 3.63976 95.5724 3.84735C95.7224 4.05494 95.7868 4.29409 95.7565 4.5317C95.7223 4.79124 95.5776 5.03406 95.3458 5.22072C95.1141 5.40738 94.809 5.5269 94.48 5.55987Z" fill="#263238"/>
<path d="M20.2288 37.9949H16.1152V41.2318H20.2288V37.9949ZM16.9501 38.6518H19.3698V40.5796H16.9501V38.6518Z" fill="#263238"/>
<path d="M186.394 101.251H182.263V104.488H186.376L186.394 101.251ZM183.11 101.908H185.56V103.836H183.11V101.908Z" fill="#263238"/>
<path d="M124.678 8.53014H120.559V11.767H124.672L124.678 8.53014ZM121.393 9.18227H123.843V11.0863H121.393V9.18227Z" fill="#263238"/>
<path d="M17.8099 89.6844H13.6963V92.926H17.8099V89.6844ZM14.5251 90.3413H16.9448V92.2453H14.5251V90.3413Z" fill="#263238"/>
<path opacity="0.9" d="M137.921 30.9405C137.431 30.9396 136.952 31.0529 136.544 31.2663C136.137 31.4796 135.819 31.7834 135.631 32.139C135.442 32.4947 135.392 32.8863 135.487 33.2643C135.582 33.6422 135.817 33.9896 136.163 34.2623C136.509 34.5351 136.95 34.721 137.43 34.7965C137.91 34.872 138.408 34.8337 138.86 34.6865C139.313 34.5393 139.699 34.2897 139.971 33.9695C140.244 33.6492 140.389 33.2726 140.389 32.8874C140.389 32.3719 140.129 31.8774 139.666 31.5124C139.204 31.1474 138.576 30.9418 137.921 30.9405ZM137.921 34.0536C137.628 34.0536 137.341 33.9852 137.097 33.857C136.854 33.7289 136.664 33.5468 136.551 33.3337C136.439 33.1206 136.41 32.8861 136.467 32.6599C136.524 32.4336 136.665 32.2258 136.873 32.0627C137.08 31.8996 137.344 31.7886 137.632 31.7436C137.919 31.6986 138.217 31.7217 138.488 31.8099C138.759 31.8982 138.99 32.0477 139.153 32.2395C139.316 32.4312 139.403 32.6567 139.403 32.8874C139.396 33.1934 139.238 33.4851 138.96 33.6997C138.683 33.9143 138.31 34.0346 137.921 34.0345V34.0536Z" fill="#263238"/>
<path d="M93.9412 40.0703L88.3999 34.0345C89.4161 34.032 90.3898 33.7132 91.1084 33.1478C91.8269 32.5824 92.232 31.8162 92.2352 31.0166V14.5849C92.2304 13.7857 91.8248 13.0202 91.1066 12.4551C90.3884 11.8899 89.4156 11.5708 88.3999 11.567H40.2465C39.2303 11.5695 38.2566 11.8883 37.538 12.4537C36.8194 13.0191 36.4143 13.7853 36.4111 14.5849V31.0166C36.4127 31.8166 36.8173 32.5835 37.5362 33.1492C38.2552 33.7149 39.2298 34.0332 40.2465 34.0345H81.8847L93.9412 40.0703Z" fill="#263238"/>
<path d="M52.4121 22.1296C52.4121 21.7643 52.2745 21.4072 52.0166 21.1035C51.7586 20.7998 51.3921 20.5631 50.9632 20.4233C50.5343 20.2835 50.0623 20.2469 49.607 20.3182C49.1517 20.3894 48.7335 20.5653 48.4052 20.8236C48.077 21.0819 47.8534 21.411 47.7629 21.7693C47.6723 22.1275 47.7188 22.4989 47.8964 22.8364C48.0741 23.1738 48.3749 23.4623 48.7609 23.6652C49.1469 23.8682 49.6007 23.9765 50.065 23.9765C50.3732 23.9765 50.6784 23.9287 50.9632 23.8359C51.248 23.7431 51.5067 23.607 51.7247 23.4355C51.9426 23.264 52.1155 23.0604 52.2335 22.8364C52.3514 22.6123 52.4121 22.3721 52.4121 22.1296Z" fill="#FF725E"/>
<path d="M66.2588 22.1296C66.2588 21.7641 66.121 21.4068 65.8628 21.103C65.6046 20.7992 65.2377 20.5625 64.8085 20.4228C64.3792 20.2832 63.907 20.2469 63.4515 20.3185C62.996 20.3902 62.5778 20.5665 62.2498 20.8253C61.9218 21.0841 61.6987 21.4136 61.6088 21.7722C61.5189 22.1308 61.5663 22.5023 61.7449 22.8397C61.9234 23.177 62.2252 23.4652 62.612 23.6675C62.9988 23.8699 63.4532 23.9774 63.9177 23.9765C64.2256 23.9765 64.5306 23.9287 64.815 23.8358C65.0994 23.7429 65.3578 23.6068 65.5752 23.4352C65.7927 23.2637 65.965 23.06 66.0823 22.836C66.1996 22.6119 66.2596 22.3719 66.2588 22.1296Z" fill="#FF725E"/>
<path d="M80.1123 22.1296C80.1123 21.7643 79.9747 21.4072 79.7167 21.1035C79.4588 20.7998 79.0923 20.5631 78.6634 20.4233C78.2345 20.2835 77.7625 20.2469 77.3072 20.3182C76.8519 20.3894 76.4337 20.5653 76.1054 20.8236C75.7772 21.0819 75.5536 21.411 75.4631 21.7693C75.3725 22.1275 75.419 22.4989 75.5966 22.8364C75.7743 23.1738 76.0751 23.4623 76.4611 23.6652C76.8471 23.8682 77.3009 23.9765 77.7651 23.9765C78.0734 23.9765 78.3786 23.9287 78.6634 23.8359C78.9481 23.7431 79.2069 23.607 79.4248 23.4355C79.6428 23.264 79.8157 23.0604 79.9336 22.8364C80.0516 22.6123 80.1123 22.3721 80.1123 22.1296Z" fill="#FF725E"/>
</svg>
