<svg width="432" height="423" viewBox="0 0 432 423" fill="none" xmlns="http://www.w3.org/2000/svg">
<path d="M180.672 8.51129C179.986 10.3635 179.648 12.3399 179.678 14.3293C179.678 17.7693 171.88 14.3293 168.959 18.7938C166.037 23.2584 169.287 26.0123 165.406 27.3846C161.526 28.7568 161.188 25.3262 156.321 25.6645C151.455 26.0029 152.094 30.8246 150.478 32.1969C148.862 33.5691 148.853 32.883 145.283 33.2308C141.713 33.5785 141.056 36.323 141.056 36.323H226.443C226.443 36.323 228.929 28.4279 225.635 23.9257" stroke="#B2B2B2" stroke-linecap="round" stroke-linejoin="round"/>
<path d="M221.407 20.9932C217.855 19.8935 217.251 23.2396 213.415 21.5101C209.578 19.7807 208.974 16.5756 207.9 13.145C207.784 12.7596 207.66 12.3649 207.527 11.9701C203.681 0.691252 188.922 -2.43863 182.581 5.1558" stroke="#B2B2B2" stroke-linecap="round" stroke-linejoin="round"/>
<path d="M210.884 32.5258C210.884 32.5258 212.66 26.736 208.309 22.4783C203.957 18.2205 199.428 20.5985 198.176 22.4783C196.924 24.3581 196.897 27.9297 194.801 28.2681C192.705 28.6064 193.194 24.5084 188.691 25.5423C184.189 26.5762 185.956 31.3321 183.869 32.3566C181.782 33.3811 181.782 29.6309 178.887 30.8246C175.992 32.0183 176.152 34.227 176.152 34.227" stroke="#B2B2B2" stroke-linecap="round" stroke-linejoin="round"/>
<path d="M187.785 20.965C186.603 20.0714 185.215 19.5294 183.767 19.3955C182.32 19.2616 180.864 19.5407 179.553 20.2037C174.9 22.4782 177.049 27.2153 174.9 28.3526C172.751 29.4899 171.676 28.1646 168.994 29.4899C166.312 30.8152 166.49 32.7044 166.49 32.7044" stroke="#B2B2B2" stroke-linecap="round" stroke-linejoin="round"/>
<path d="M373.391 120.877H407.217C407.217 120.877 410.467 110.538 404.624 106.778C398.78 103.019 398.78 108.15 394.233 106.092C390.477 104.391 389.793 101.158 388.728 97.7269C388.603 97.3415 388.479 96.9468 388.346 96.552C387.988 95.4842 387.517 94.4626 386.942 93.5067" stroke="#B2B2B2" stroke-linecap="round" stroke-linejoin="round"/>
<path d="M382.972 89.0422C374.5 82.4629 360.468 84.9348 360.468 98.883C360.468 102.323 352.68 98.883 349.758 103.348C346.837 107.812 350.078 110.566 346.206 111.938C342.334 113.311 341.988 109.88 337.112 110.218C332.237 110.557 332.894 115.378 331.269 116.751C329.644 118.123 329.644 117.437 326.074 117.784C322.504 118.132 321.855 120.877 321.855 120.877H367.431" stroke="#B2B2B2" stroke-linecap="round" stroke-linejoin="round"/>
<path d="M391.676 117.117C391.676 117.117 393.452 111.327 389.11 107.07C384.767 102.812 380.229 105.19 378.977 107.07C377.725 108.949 377.689 112.521 375.602 112.859C373.515 113.198 373.995 109.1 369.492 110.134C364.99 111.168 366.757 115.923 364.67 116.948C362.583 117.972 362.574 114.222 359.679 115.416C356.784 116.61 356.953 118.818 356.953 118.818" stroke="#B2B2B2" stroke-linecap="round" stroke-linejoin="round"/>
<path d="M368.587 105.556C367.404 104.663 366.016 104.121 364.569 103.987C363.121 103.853 361.666 104.132 360.354 104.795C355.692 107.07 357.841 111.807 355.692 112.944C353.543 114.081 352.477 112.756 349.786 114.081C347.096 115.406 347.282 117.296 347.282 117.296" stroke="#B2B2B2" stroke-linecap="round" stroke-linejoin="round"/>
<path d="M345.55 135.182C341.11 129.637 331.057 130.313 331.057 139.271C331.057 141.244 326.616 139.271 324.911 141.837C323.206 144.403 325.098 145.972 322.86 146.762C320.622 147.551 320.435 145.577 317.638 145.775C314.841 145.972 315.223 148.735 314.29 149.534C313.358 150.333 313.358 149.929 311.306 150.127C310.779 150.118 310.262 150.285 309.828 150.603C309.395 150.922 309.067 151.377 308.891 151.903H357.885C357.885 151.903 359.75 145.982 356.393 143.82C353.036 141.658 353.036 144.6 350.434 143.425C348.276 142.485 347.877 140.605 347.273 138.622" stroke="#B2B2B2" stroke-linecap="round" stroke-linejoin="round"/>
<path d="M348.96 149.732C349.233 148.72 349.24 147.649 348.98 146.634C348.72 145.619 348.204 144.698 347.486 143.97C344.999 141.526 342.415 142.899 341.678 143.97C340.941 145.042 340.941 147.1 339.742 147.288C338.543 147.476 338.854 145.145 336.234 145.728C333.614 146.31 334.662 149.046 333.463 149.638C332.265 150.23 332.265 148.068 330.604 148.754C328.943 149.44 329.032 150.709 329.032 150.709" stroke="#B2B2B2" stroke-linecap="round" stroke-linejoin="round"/>
<path d="M335.71 143.096C335.031 142.584 334.234 142.274 333.404 142.198C332.573 142.122 331.738 142.283 330.986 142.664C328.321 143.97 329.547 146.686 328.321 147.363C327.096 148.04 326.474 147.26 324.938 148.021C323.402 148.782 323.499 149.901 323.499 149.901" stroke="#B2B2B2" stroke-linecap="round" stroke-linejoin="round"/>
<path d="M42.2594 100.189C41.4748 99.7285 40.5781 99.5256 39.684 99.6067C36.8866 99.8041 37.2596 102.567 36.3272 103.366C35.3947 104.165 35.4391 103.761 33.3521 103.958C32.8236 103.951 32.306 104.118 31.8714 104.436C31.4368 104.755 31.107 105.209 30.9277 105.735H79.9221C79.9221 105.735 81.1299 101.9 79.8511 99.2684" stroke="#B2B2B2" stroke-linecap="round" stroke-linejoin="round"/>
<path d="M78.4296 97.633C75.0816 95.4712 75.0816 98.4225 72.4707 97.2382C70.3127 96.2983 69.913 94.4185 69.3092 92.4447L69.096 91.768C66.2631 83.4404 53.1109 82.8671 53.1109 93.1026C53.1109 95.0764 48.6706 93.1026 46.9655 95.6686C45.2604 98.2345 47.152 99.8041 44.9141 100.594" stroke="#B2B2B2" stroke-linecap="round" stroke-linejoin="round"/>
<path d="M71.0063 103.564C71.2772 102.552 71.2831 101.482 71.0234 100.467C70.7637 99.4519 70.2483 98.5308 69.5321 97.8021C67.0367 95.3583 64.4524 96.7306 63.7153 97.8021C62.9782 98.8736 62.9782 100.923 61.7794 101.12C60.5805 101.317 60.8913 98.977 58.2715 99.5597C55.6517 100.142 56.6997 102.878 55.5008 103.442C54.3019 104.005 54.3019 101.872 52.6412 102.558C50.9805 103.244 51.0782 104.513 51.0782 104.513" stroke="#B2B2B2" stroke-linecap="round" stroke-linejoin="round"/>
<path d="M57.7562 96.9279C57.0751 96.4162 56.2773 96.1063 55.4451 96.0303C54.6129 95.9543 53.7767 96.1149 53.0229 96.4956C50.3587 97.802 51.5842 100.518 50.3587 101.195C49.1331 101.872 48.5026 101.092 46.9663 101.853C45.4299 102.614 45.5276 103.733 45.5276 103.733" stroke="#B2B2B2" stroke-linecap="round" stroke-linejoin="round"/>
<path d="M279.611 149.346V378.833C279.611 384.936 277.321 390.788 273.244 395.103C269.167 399.418 263.637 401.842 257.872 401.842H154.75C151.893 401.846 149.063 401.253 146.422 400.099C143.782 398.944 141.382 397.25 139.36 395.113C137.339 392.976 135.735 390.438 134.641 387.645C133.547 384.851 132.983 381.857 132.983 378.833V149.346C132.983 148.989 132.983 148.641 132.983 148.294C133.237 142.38 135.636 136.797 139.68 132.707C143.724 128.618 149.103 126.336 154.697 126.338H197.812L197.856 126.507C199.135 131.366 202.066 134.524 205.325 134.524H207.199C210.44 134.524 213.415 131.366 214.659 126.507L214.703 126.338H257.818C263.412 126.336 268.79 128.618 272.835 132.707C276.879 136.797 279.278 142.38 279.531 148.294C279.602 148.641 279.611 148.989 279.611 149.346Z" fill="#FF725E" stroke="#263238" stroke-linecap="round" stroke-linejoin="round"/>
<path d="M279.585 148.294H133.055C133.308 142.38 135.707 136.797 139.751 132.707C143.796 128.618 149.174 126.336 154.768 126.338H197.883L197.928 126.507C199.206 131.366 202.137 134.524 205.396 134.524H207.27C210.511 134.524 213.487 131.366 214.73 126.507L214.774 126.338H257.89C263.48 126.341 268.854 128.625 272.895 132.714C276.935 136.803 279.331 142.383 279.585 148.294V148.294Z" fill="white" stroke="#263238" stroke-linecap="round" stroke-linejoin="round"/>
<path d="M288.936 210.591V181.454H286.44V144.092C286.442 141.07 285.88 138.077 284.788 135.284C283.696 132.492 282.095 129.954 280.076 127.817C278.057 125.679 275.66 123.983 273.022 122.826C270.384 121.67 267.556 121.074 264.701 121.074H147.921C145.064 121.073 142.235 121.667 139.596 122.824C136.957 123.98 134.559 125.676 132.539 127.813C130.52 129.951 128.918 132.489 127.825 135.282C126.732 138.075 126.171 141.069 126.172 144.092V395.235C126.171 398.258 126.732 401.252 127.825 404.045C128.918 406.838 130.52 409.376 132.539 411.514C134.559 413.651 136.957 415.347 139.596 416.503C142.235 417.66 145.064 418.254 147.921 418.253H264.701C267.556 418.253 270.384 417.657 273.022 416.501C275.66 415.344 278.057 413.648 280.076 411.51C282.095 409.373 283.696 406.835 284.788 404.043C285.88 401.25 286.442 398.257 286.44 395.235V235.451H288.936V218.204H286.44V210.591H288.936ZM279.611 378.833C279.611 384.936 277.321 390.788 273.244 395.103C269.167 399.418 263.637 401.842 257.871 401.842H154.75C151.893 401.846 149.063 401.253 146.422 400.099C143.781 398.944 141.382 397.25 139.36 395.113C137.339 392.976 135.735 390.438 134.641 387.645C133.547 384.852 132.983 381.857 132.983 378.833V149.346C132.983 143.244 135.274 137.392 139.351 133.077C143.428 128.762 148.957 126.338 154.723 126.338H197.838L197.883 126.507C199.153 131.366 202.092 134.524 205.343 134.524H207.216C210.476 134.524 213.433 131.366 214.685 126.507L214.729 126.338H257.845C263.611 126.338 269.14 128.762 273.217 133.077C277.294 137.392 279.585 143.244 279.585 149.346L279.611 378.833Z" fill="#707070" stroke="#263238" stroke-linecap="round" stroke-linejoin="round"/>
<path d="M260.865 124.251H151.722C145.615 124.251 139.757 126.819 135.439 131.389C131.12 135.96 128.694 142.159 128.694 148.623V390.704C128.694 397.168 131.12 403.367 135.439 407.938C139.757 412.508 145.615 415.076 151.722 415.076H260.865C263.894 415.085 266.895 414.461 269.696 413.24C272.497 412.019 275.043 410.225 277.188 407.961C279.333 405.697 281.034 403.007 282.195 400.046C283.357 397.085 283.954 393.91 283.954 390.704V148.623C283.954 145.417 283.357 142.242 282.195 139.281C281.034 136.32 279.333 133.63 277.188 131.366C275.043 129.102 272.497 127.308 269.696 126.087C266.895 124.866 263.894 124.242 260.865 124.251V124.251ZM279.612 378.833C279.612 384.936 277.321 390.788 273.244 395.103C269.167 399.418 263.638 401.842 257.872 401.842H154.75C151.893 401.846 149.063 401.253 146.422 400.099C143.782 398.944 141.382 397.25 139.361 395.113C137.339 392.976 135.735 390.438 134.641 387.645C133.547 384.852 132.984 381.857 132.984 378.833V149.346C132.984 143.244 135.274 137.392 139.351 133.077C143.428 128.762 148.958 126.338 154.723 126.338H197.839L197.883 126.507C199.153 131.366 202.093 134.524 205.343 134.524H207.217C210.476 134.524 213.433 131.366 214.685 126.507L214.73 126.338H257.845C263.611 126.338 269.141 128.762 273.218 133.077C277.295 137.392 279.585 143.244 279.585 149.346L279.612 378.833Z" fill="#263238" stroke="#263238" stroke-linecap="round" stroke-linejoin="round"/>
<path d="M207.901 127.437C207.901 127.01 207.781 126.592 207.556 126.236C207.332 125.881 207.013 125.604 206.64 125.44C206.266 125.276 205.856 125.234 205.46 125.317C205.063 125.4 204.699 125.606 204.414 125.909C204.128 126.211 203.933 126.596 203.855 127.015C203.776 127.435 203.816 127.869 203.971 128.264C204.126 128.66 204.387 128.997 204.723 129.235C205.059 129.472 205.454 129.599 205.858 129.599C206.4 129.599 206.919 129.371 207.302 128.966C207.685 128.56 207.901 128.011 207.901 127.437V127.437Z" fill="#707070"/>
<path d="M146.039 135.718C146.039 137.908 143.721 138.688 143.712 140.361V140.474H145.959V141.207H142.957V140.587C142.957 138.246 145.275 137.767 145.275 135.746C145.275 135.003 145.035 134.609 144.476 134.609C143.916 134.609 143.667 135.032 143.667 135.68V136.338H142.957V135.746C142.957 134.637 143.437 133.866 144.493 133.866C145.55 133.866 146.039 134.609 146.039 135.718Z" fill="#263238"/>
<path d="M149.786 135.708V135.896C149.817 136.207 149.752 136.52 149.602 136.79C149.452 137.059 149.223 137.269 148.951 137.391C149.226 137.508 149.457 137.718 149.608 137.988C149.759 138.259 149.821 138.574 149.786 138.885V139.449C149.786 140.558 149.298 141.282 148.241 141.282C147.184 141.282 146.704 140.558 146.704 139.449V138.951H147.415V139.496C147.415 140.154 147.672 140.549 148.223 140.549C148.774 140.549 149.022 140.164 149.022 139.43V138.866C149.022 138.152 148.738 137.814 148.134 137.795H147.726V137.062H148.17C148.288 137.064 148.406 137.04 148.514 136.989C148.623 136.939 148.72 136.865 148.798 136.771C148.877 136.677 148.935 136.566 148.969 136.446C149.003 136.326 149.012 136.199 148.996 136.075V135.737C148.996 134.994 148.747 134.609 148.196 134.609C147.646 134.609 147.388 135.013 147.388 135.671V136.037H146.678V135.708C146.678 134.599 147.166 133.885 148.214 133.885C149.262 133.885 149.786 134.599 149.786 135.708Z" fill="#263238"/>
<path d="M151.269 136.254V137.278H150.532V136.272L151.269 136.254ZM151.269 140.201V141.207H150.532V140.201H151.269Z" fill="#263238"/>
<path d="M152.815 136.911C152.913 136.721 153.06 136.563 153.239 136.457C153.418 136.35 153.622 136.299 153.827 136.31C154.715 136.31 155.106 136.996 155.106 138.03V139.449C155.106 140.558 154.6 141.282 153.552 141.282C152.504 141.282 152.016 140.558 152.016 139.449V138.96H152.735V139.496C152.735 140.154 152.993 140.549 153.534 140.549C154.076 140.549 154.342 140.154 154.342 139.496V138.086C154.342 137.438 154.085 137.043 153.534 137.043C153.435 137.039 153.336 137.057 153.243 137.094C153.15 137.131 153.065 137.188 152.993 137.261C152.921 137.334 152.863 137.421 152.823 137.517C152.784 137.614 152.763 137.718 152.762 137.823V137.983H152.051L152.238 133.96H154.902V134.684H152.886L152.815 136.911Z" fill="#263238"/>
<path d="M158.907 135.699V135.831H158.197V135.643C158.197 134.994 157.939 134.609 157.38 134.609C156.82 134.609 156.554 135.003 156.554 135.784V137.41C156.632 137.171 156.782 136.965 156.981 136.825C157.18 136.684 157.416 136.615 157.655 136.63C158.543 136.63 158.934 137.306 158.934 138.35V139.449C158.934 140.558 158.41 141.282 157.362 141.282C156.314 141.282 155.79 140.558 155.79 139.449V135.746C155.79 134.599 156.278 133.866 157.362 133.866C158.445 133.866 158.907 134.59 158.907 135.699ZM156.554 138.415V139.496C156.554 140.154 156.802 140.549 157.362 140.549C157.921 140.549 158.179 140.154 158.179 139.496V138.415C158.179 137.757 157.913 137.363 157.362 137.363C156.811 137.363 156.554 137.757 156.554 138.415V138.415Z" fill="#263238"/>
<path d="M233.699 136.019H231.763V141.141H233.699V136.019Z" fill="#263238"/>
<path d="M236.275 134.994H234.339V141.141H236.275V134.994Z" fill="#263238"/>
<path d="M238.859 134.261H236.923V141.132H238.859V134.261Z" fill="#263238"/>
<path d="M241.434 133.001H239.498V141.141H241.434V133.001Z" fill="#263238"/>
<path d="M265.376 141.038H253.76V133.518H265.367L265.376 141.038ZM254.408 140.361H264.727V134.214H254.408V140.361Z" fill="#263238"/>
<path d="M261.505 134.909H255.377V139.562H261.505V134.909Z" fill="#263238"/>
<path d="M266.424 136.357H264.968V138.124H266.424V136.357Z" fill="#263238"/>
<path d="M249.506 139.365C249.431 139.362 249.358 139.339 249.293 139.299C246.931 137.814 245.368 139.186 245.297 139.252C245.209 139.323 245.098 139.357 244.988 139.345C244.877 139.333 244.775 139.277 244.703 139.188C244.63 139.099 244.592 138.984 244.597 138.867C244.602 138.749 244.649 138.638 244.729 138.556C244.817 138.481 246.807 136.676 249.728 138.509C249.778 138.539 249.822 138.58 249.856 138.628C249.891 138.676 249.916 138.731 249.93 138.79C249.945 138.849 249.947 138.91 249.939 138.97C249.93 139.03 249.91 139.088 249.879 139.139C249.841 139.208 249.786 139.264 249.721 139.304C249.656 139.343 249.582 139.364 249.506 139.365V139.365Z" fill="#263238"/>
<path d="M250.386 137.823C250.308 137.82 250.232 137.798 250.164 137.757C246.745 135.605 244.453 137.682 244.427 137.701C244.345 137.786 244.235 137.834 244.12 137.834C244.006 137.834 243.895 137.786 243.814 137.701C243.741 137.608 243.705 137.488 243.713 137.367C243.721 137.246 243.773 137.134 243.858 137.052C243.858 137.052 246.656 134.515 250.608 137.005C250.706 137.068 250.778 137.169 250.806 137.287C250.834 137.405 250.817 137.53 250.759 137.635C250.715 137.696 250.659 137.745 250.594 137.778C250.529 137.811 250.457 137.826 250.386 137.823Z" fill="#263238"/>
<path d="M251.176 136.037C251.098 136.033 251.022 136.011 250.954 135.972C246.629 133.246 243.752 135.812 243.636 135.925C243.548 136.002 243.435 136.04 243.321 136.031C243.207 136.023 243.1 135.967 243.024 135.878C242.943 135.791 242.897 135.675 242.897 135.553C242.897 135.432 242.943 135.315 243.024 135.229C243.024 135.229 246.478 132.109 251.363 135.229C251.444 135.281 251.507 135.359 251.542 135.453C251.578 135.546 251.583 135.649 251.558 135.746C251.533 135.843 251.478 135.928 251.403 135.989C251.328 136.051 251.235 136.084 251.14 136.084L251.176 136.037Z" fill="#263238"/>
<path d="M248.21 140.098C248.212 140.327 248.149 140.551 248.03 140.743C247.911 140.934 247.741 141.084 247.542 141.172C247.342 141.261 247.123 141.286 246.91 141.242C246.698 141.199 246.502 141.089 246.348 140.928C246.195 140.767 246.09 140.561 246.047 140.336C246.004 140.112 246.025 139.879 246.108 139.667C246.19 139.455 246.33 139.274 246.51 139.147C246.69 139.019 246.901 138.951 247.118 138.951C247.406 138.951 247.682 139.072 247.887 139.286C248.092 139.501 248.208 139.793 248.21 140.098Z" fill="#263238"/>
<path opacity="0.3" d="M89.4679 195.458C87.0153 194.863 84.8602 193.322 83.4234 191.136C81.9866 188.95 81.3713 186.276 81.6975 183.635C82.0237 180.994 83.2681 178.577 85.1877 176.856C87.1073 175.134 89.5643 174.231 92.0789 174.324C94.5936 174.417 96.9853 175.498 98.7872 177.357C100.589 179.215 101.672 181.718 101.824 184.376C101.976 187.035 101.186 189.657 99.6092 191.732C98.0323 193.808 95.7812 195.186 93.2954 195.599M95.2403 206.671L96.0218 201.342C97.2611 200.976 98.4539 200.452 99.574 199.782L105.373 204.265L109.902 199.481L105.666 193.343C106.298 192.158 106.79 190.896 107.131 189.584L114.236 188.418V181.642L107.131 180.476C106.792 179.163 106.3 177.9 105.666 176.716L109.893 170.551L105.364 165.757L99.5652 170.24C98.445 169.57 97.2522 169.047 96.0129 168.68L94.9117 161.161H88.5088L87.3987 168.68C86.1605 169.05 84.9681 169.574 83.8465 170.24L83.0472 169.62L95.2403 206.671ZM81.3332 168.295L78.0474 165.757L73.5272 170.551L77.7632 176.688C77.1301 177.874 76.6351 179.136 76.2891 180.448L69.1846 181.613V188.39L76.2891 189.555C76.6373 190.866 77.1322 192.128 77.7632 193.315L73.5272 199.453L78.0474 204.237L83.8465 199.753C84.9681 200.42 86.1605 200.944 87.3987 201.314L88.5088 208.833H94.9117L81.3332 168.295Z" stroke="black" stroke-linecap="round" stroke-linejoin="round"/>
<path opacity="0.3" d="M59.9134 200.242C61.3536 200.886 62.539 202.038 63.2687 203.501C63.9984 204.965 64.2274 206.65 63.9169 208.272C63.6064 209.894 62.7755 211.352 61.5652 212.4C60.3548 213.447 58.8394 214.02 57.2759 214.02C55.7124 214.02 54.197 213.447 52.9866 212.4C51.7762 211.352 50.9454 209.894 50.6349 208.272C50.3244 206.65 50.5534 204.965 51.2831 203.501C52.0127 202.038 53.1981 200.886 54.6383 200.242M72.3463 209.124V204.585L67.5952 203.804C67.3608 202.924 67.03 202.075 66.6094 201.276L69.4424 197.178L66.3785 193.964L62.4977 196.971C61.7625 196.524 60.9781 196.173 60.1621 195.928L59.4161 190.9H55.1268L54.3897 195.928C53.555 196.168 52.7523 196.518 52.0008 196.971L48.1199 193.964L45.065 197.178L47.8979 201.276C47.4767 202.074 47.1487 202.923 46.9211 203.804L42.1699 204.585V209.124L46.9211 209.904C47.1501 210.783 47.4781 211.628 47.8979 212.423L45.065 216.531L48.0933 219.736L51.9741 216.738C52.7293 217.183 53.5311 217.533 54.363 217.781L55.1001 222.809H59.3806L60.1266 217.781C60.9552 217.531 61.7538 217.181 62.5066 216.738L66.3785 219.736L69.4068 216.531L66.6094 212.47C67.0284 211.674 67.3592 210.828 67.5952 209.951L72.3463 209.124Z" stroke="black" stroke-linecap="round" stroke-linejoin="round"/>
<path opacity="0.3" d="M299.494 348.362C297.868 346.405 296.972 343.888 296.973 341.282C296.974 338.676 297.873 336.159 299.5 334.204C301.128 332.248 303.373 330.988 305.815 330.658C308.258 330.328 310.73 330.951 312.77 332.412C314.809 333.872 316.276 336.068 316.895 338.591C317.515 341.113 317.245 343.787 316.135 346.114C315.026 348.44 313.154 350.259 310.869 351.23C308.584 352.201 306.043 352.257 303.721 351.388M318.214 329.103L320.639 321.941L315.035 318.68L310.666 324.723C309.411 324.414 308.126 324.265 306.838 324.281L303.775 317.411L297.629 319.29L298.579 326.81C297.483 327.53 296.474 328.392 295.578 329.376L288.82 326.8L285.729 332.778L291.439 337.402C291.147 338.73 291.007 340.09 291.022 341.453L284.53 344.696L286.306 351.2L293.411 350.204C294.095 351.36 294.909 352.423 295.835 353.371L293.402 360.533L299.05 363.795L303.419 357.751C304.677 358.061 305.965 358.209 307.256 358.193L310.311 365.064L316.456 363.184L315.515 355.665C316.609 354.944 317.614 354.082 318.508 353.099L325.275 355.674L328.356 349.696L322.646 345.072C322.942 343.745 323.083 342.384 323.063 341.021L329.564 337.778L327.788 331.274L320.683 332.271C320.523 331.989 320.346 331.716 320.168 331.443L318.214 329.103Z" stroke="black" stroke-linecap="round" stroke-linejoin="round"/>
<path opacity="0.3" d="M307.39 305.652C305.887 306.136 304.273 306.052 302.823 305.416C301.372 304.78 300.176 303.63 299.437 302.163C298.699 300.696 298.465 299.004 298.775 297.375C299.085 295.746 299.92 294.281 301.138 293.232C302.355 292.182 303.879 291.612 305.449 291.62C307.019 291.628 308.538 292.212 309.746 293.274C310.954 294.335 311.776 295.808 312.072 297.44C312.368 299.072 312.119 300.762 311.368 302.222C311.177 302.591 310.958 302.944 310.711 303.274M296.324 311.715L300.081 313.886L303.011 309.844C303.85 310.048 304.709 310.146 305.569 310.136L307.621 314.741L311.732 313.454L311.102 308.416C311.832 307.931 312.503 307.353 313.1 306.696L317.629 308.416L319.68 304.44L315.862 301.348C316.058 300.458 316.151 299.545 316.137 298.631L320.489 296.46L319.281 292.108L314.512 292.776C314.054 292.005 313.512 291.296 312.896 290.661L314.521 285.867L310.755 283.696L307.834 287.738C306.993 287.53 306.131 287.432 305.267 287.446L303.216 282.841L299.113 284.119L299.743 289.166C299.011 289.649 298.338 290.223 297.736 290.877L293.207 289.157L291.156 293.142L294.974 296.235C294.782 297.125 294.69 298.037 294.699 298.951L290.348 301.122L291.564 305.464L296.324 304.797C296.78 305.574 297.326 306.288 297.949 306.921L296.324 311.715Z" stroke="black" stroke-linecap="round" stroke-linejoin="round"/>
<path d="M15.7598 418.309H412.724" stroke="#263238" stroke-linecap="round" stroke-linejoin="round"/>
<path d="M171.189 164.723H150.284C147.656 164.723 145.524 166.979 145.524 169.761V191.886C145.524 194.669 147.656 196.924 150.284 196.924H171.189C173.818 196.924 175.949 194.669 175.949 191.886V169.761C175.949 166.979 173.818 164.723 171.189 164.723Z" fill="white" stroke="#263238" stroke-linecap="round" stroke-linejoin="round"/>
<path d="M160.426 171.472V186.153C160.426 186.153 150.498 178.042 151.767 187.206C152.371 191.492 161.536 189.612 161.536 189.612V177.008C162.954 176.808 164.349 176.458 165.701 175.964C168.25 175.025 171.234 171.453 171.234 171.453L160.426 171.472Z" fill="#263238" stroke="#263238" stroke-linecap="round" stroke-linejoin="round"/>
<path d="M216 267.793H195.095C192.466 267.793 190.335 270.049 190.335 272.831V294.956C190.335 297.739 192.466 299.994 195.095 299.994H216C218.629 299.994 220.76 297.739 220.76 294.956V272.831C220.76 270.049 218.629 267.793 216 267.793Z" fill="white" stroke="#263238" stroke-linecap="round" stroke-linejoin="round"/>
<path d="M215.973 276.28H194.704V290.727H215.973V276.28Z" fill="#263238" stroke="#263238" stroke-linecap="round" stroke-linejoin="round"/>
<path d="M194.704 276.28L205.165 285.661L215.822 276.403" stroke="white" stroke-linecap="round" stroke-linejoin="round"/>
<path d="M194.704 290.717L202.324 283.405" stroke="white" stroke-linecap="round" stroke-linejoin="round"/>
<path d="M215.973 290.717L207.998 283.405" stroke="white" stroke-linecap="round" stroke-linejoin="round"/>
<path d="M260.153 164.723H239.248C236.619 164.723 234.488 166.979 234.488 169.761V191.886C234.488 194.669 236.619 196.924 239.248 196.924H260.153C262.782 196.924 264.913 194.669 264.913 191.886V169.761C264.913 166.979 262.782 164.723 260.153 164.723Z" fill="white" stroke="#263238" stroke-linecap="round" stroke-linejoin="round"/>
<path d="M256.338 188.416C260.288 184.542 260.523 178.012 256.863 173.832C253.202 169.651 247.033 169.403 243.083 173.277C239.133 177.151 238.898 183.68 242.558 187.861C246.219 192.042 252.388 192.29 256.338 188.416Z" fill="white" stroke="#263238" stroke-linecap="round" stroke-linejoin="round"/>
<path d="M257.391 183.892C258.992 179.399 256.848 174.384 252.603 172.689C248.358 170.995 243.619 173.264 242.018 177.757C240.418 182.25 242.561 187.265 246.806 188.959C251.051 190.654 255.79 188.385 257.391 183.892Z" fill="#263238" stroke="#263238" stroke-linecap="round" stroke-linejoin="round"/>
<path d="M249.808 176.237C249.808 176.882 249.627 177.513 249.288 178.049C248.95 178.585 248.468 179.003 247.905 179.25C247.342 179.497 246.723 179.562 246.125 179.436C245.527 179.31 244.978 178.999 244.547 178.543C244.116 178.087 243.823 177.506 243.704 176.873C243.585 176.241 243.646 175.585 243.879 174.989C244.112 174.393 244.507 173.884 245.014 173.525C245.521 173.167 246.117 172.976 246.726 172.976C247.543 172.976 248.327 173.319 248.905 173.931C249.483 174.542 249.808 175.372 249.808 176.237Z" fill="white" stroke="#263238" stroke-linecap="round" stroke-linejoin="round"/>
<path d="M171.188 217.846H150.283C147.655 217.846 145.523 220.102 145.523 222.884V245.01C145.523 247.792 147.655 250.048 150.283 250.048H171.188C173.817 250.048 175.949 247.792 175.949 245.01V222.884C175.949 220.102 173.817 217.846 171.188 217.846Z" fill="white" stroke="#263238" stroke-linecap="round" stroke-linejoin="round"/>
<path d="M171.748 234.013L153.756 223.025V245.01L171.748 234.013Z" fill="#263238" stroke="#263238" stroke-linecap="round" stroke-linejoin="round"/>
<path d="M260.153 320.926H239.248C236.619 320.926 234.488 323.181 234.488 325.964V348.089C234.488 350.871 236.619 353.127 239.248 353.127H260.153C262.782 353.127 264.913 350.871 264.913 348.089V325.964C264.913 323.181 262.782 320.926 260.153 320.926Z" fill="white" stroke="#263238" stroke-linecap="round" stroke-linejoin="round"/>
<path d="M249.853 326.885C243.699 326.885 238.699 331.114 238.699 336.284C238.699 339.649 240.795 342.6 243.939 344.273L242.047 349.264L248.015 345.589C248.624 345.676 249.238 345.72 249.853 345.72C256.016 345.72 261.016 341.5 261.016 336.321C261.016 331.143 256.016 326.885 249.853 326.885Z" fill="#263238" stroke="#263238" stroke-linecap="round" stroke-linejoin="round"/>
<path d="M260.153 217.846H239.248C236.619 217.846 234.488 220.102 234.488 222.884V245.01C234.488 247.792 236.619 250.048 239.248 250.048H260.153C262.782 250.048 264.913 247.792 264.913 245.01V222.884C264.913 220.102 262.782 217.846 260.153 217.846Z" fill="white" stroke="#263238" stroke-linecap="round" stroke-linejoin="round"/>
<path d="M249.702 245.047C255.494 245.047 260.19 240.078 260.19 233.947C260.19 227.817 255.494 222.847 249.702 222.847C243.91 222.847 239.214 227.817 239.214 233.947C239.214 240.078 243.91 245.047 249.702 245.047Z" fill="#263238" stroke="#263238" stroke-linecap="round" stroke-linejoin="round"/>
<path d="M246.398 238.496L249.711 233.947V225.817" stroke="white" stroke-linecap="round" stroke-linejoin="round"/>
<path d="M171.188 266.637H150.283C147.655 266.637 145.523 268.892 145.523 271.675V293.8C145.523 296.582 147.655 298.838 150.283 298.838H171.188C173.817 298.838 175.949 296.582 175.949 293.8V271.675C175.949 268.892 173.817 266.637 171.188 266.637Z" fill="white" stroke="#263238" stroke-linecap="round" stroke-linejoin="round"/>
<path d="M157.582 281.685C157.642 281.626 157.717 281.587 157.798 281.574C157.878 281.56 157.961 281.573 158.035 281.61L162.475 283.969L166.854 277.484C166.911 277.398 166.996 277.338 167.093 277.316C167.19 277.293 167.291 277.309 167.377 277.361L170.841 279.457V273.611H150.566V288.781L157.582 281.685ZM154.563 274.636C155.033 274.636 155.494 274.783 155.885 275.06C156.276 275.337 156.581 275.73 156.762 276.191C156.942 276.651 156.989 277.157 156.897 277.646C156.805 278.135 156.578 278.583 156.246 278.936C155.913 279.288 155.489 279.528 155.027 279.625C154.565 279.722 154.087 279.672 153.652 279.482C153.217 279.291 152.845 278.968 152.584 278.554C152.322 278.14 152.183 277.653 152.183 277.155C152.183 276.486 152.433 275.846 152.88 275.373C153.326 274.901 153.931 274.636 154.563 274.636V274.636Z" fill="#263238"/>
<path d="M170.833 280.425L167.281 278.292L162.912 284.758C162.856 284.841 162.775 284.899 162.682 284.923C162.589 284.948 162.491 284.936 162.406 284.89L157.903 282.512L150.541 289.956V292.494H170.824V280.435L170.833 280.425Z" fill="#263238"/>
<path d="M239.498 164.723L249.951 154.375V72.4153" stroke="#263238" stroke-linecap="round" stroke-linejoin="round"/>
<path d="M249.95 154.375L261.309 164.723" stroke="#263238" stroke-linecap="round" stroke-linejoin="round"/>
<path d="M252.463 60.7324V66.1744L254.524 69.981C254.524 71.1942 254.07 72.3581 253.261 73.2177C252.452 74.0773 251.354 74.5628 250.208 74.5677V74.5677C249.059 74.5653 247.958 74.0812 247.146 73.2216C246.334 72.3619 245.876 71.1967 245.874 69.981V66.1744" stroke="#263238" stroke-width="3" stroke-linecap="round" stroke-linejoin="round"/>
<path d="M256.93 50.2807H248.263V60.4692H256.93V50.2807Z" fill="white" stroke="#263238" stroke-linecap="round" stroke-linejoin="round"/>
<path d="M260.136 36.6144H245.057V57.0761H260.136V36.6144Z" fill="white" stroke="#263238" stroke-linecap="round" stroke-linejoin="round"/>
<path d="M264.631 46.8875H240.725V53.1661H264.631V46.8875Z" fill="white" stroke="#263238" stroke-linecap="round" stroke-linejoin="round"/>
<path d="M252.597 46.8875H249.178L244.338 52.6961L244.844 53.1661H247.366L252.597 46.8875Z" fill="#263238"/>
<path d="M242.598 46.8875L240.725 49.1339V53.1661H240.787L246.026 46.8875H242.598Z" fill="#263238"/>
<path d="M259.178 46.8875H255.759L250.919 52.6961L251.425 53.1661H253.947L259.178 46.8875Z" fill="#263238"/>
<path d="M264.629 48.2316V46.8875H262.329L257.489 52.6961L258.004 53.1661H260.518L264.629 48.2316Z" fill="#263238"/>
<path d="M252.259 36.2573V23.9445" stroke="#263238" stroke-width="2" stroke-linecap="round" stroke-linejoin="round"/>
<path d="M431 23.6343H246.221V16.2561L277.836 2.07294H431" stroke="#263238" stroke-width="2" stroke-linecap="round" stroke-linejoin="round"/>
<path d="M277.835 23.6343V2.07294L298.74 23.6343V2.07294L277.835 23.6343Z" stroke="#263238" stroke-width="2" stroke-linecap="round" stroke-linejoin="round"/>
<path d="M298.714 23.6343V2.07294L319.61 23.6343V2.07294L298.714 23.6343Z" stroke="#263238" stroke-width="2" stroke-linecap="round" stroke-linejoin="round"/>
<path d="M319.584 23.6343V2.07294L340.489 23.6343V2.07294L319.584 23.6343Z" stroke="#263238" stroke-width="2" stroke-linecap="round" stroke-linejoin="round"/>
<path d="M340.462 23.6343V2.07294L361.358 23.6343V2.07294L340.462 23.6343Z" stroke="#263238" stroke-width="2" stroke-linecap="round" stroke-linejoin="round"/>
<path d="M361.33 23.6343V2.07294L382.235 23.6343V2.07294L361.33 23.6343Z" stroke="#263238" stroke-width="2" stroke-linecap="round" stroke-linejoin="round"/>
<path d="M382.209 23.6343V2.07294L403.105 23.6343V2.07294L382.209 23.6343Z" stroke="#263238" stroke-width="2" stroke-linecap="round" stroke-linejoin="round"/>
<path d="M403.079 23.6343V2.07294L423.984 23.6343V2.07294L403.079 23.6343Z" stroke="#263238" stroke-width="2" stroke-linecap="round" stroke-linejoin="round"/>
<path d="M171.188 266.421L160.735 256.073V109.363" stroke="#263238" stroke-linecap="round" stroke-linejoin="round"/>
<path d="M160.735 256.073L149.377 266.421" stroke="#263238" stroke-linecap="round" stroke-linejoin="round"/>
<path d="M158.214 98.3379V103.78L156.162 107.54C156.162 108.756 156.619 109.923 157.431 110.783C158.244 111.643 159.346 112.126 160.496 112.126C161.644 112.124 162.744 111.639 163.555 110.78C164.365 109.92 164.821 108.754 164.821 107.54V103.78" stroke="#263238" stroke-width="3" stroke-linecap="round" stroke-linejoin="round"/>
<path d="M153.747 98.0748H162.414V87.8862H153.747V98.0748Z" fill="white" stroke="#263238" stroke-linecap="round" stroke-linejoin="round"/>
<path d="M150.55 94.6816H165.629V74.22H150.55V94.6816Z" fill="white" stroke="#263238" stroke-linecap="round" stroke-linejoin="round"/>
<path d="M146.047 90.7717H169.953V84.4931H146.047V90.7717Z" fill="white" stroke="#263238" stroke-linecap="round" stroke-linejoin="round"/>
<path d="M158.081 84.4931H161.509L166.349 90.3017L165.843 90.7717H163.321L158.081 84.4931Z" fill="#263238"/>
<path d="M168.088 84.4931L169.962 86.7395V90.7717H169.9L164.66 84.4931H168.088Z" fill="#263238"/>
<path d="M151.509 84.4931H154.928L159.768 90.3017L159.262 90.7717H156.739L151.509 84.4931Z" fill="#263238"/>
<path d="M146.057 85.8466V84.4931H148.348L153.188 90.3017L152.682 90.7717H150.159L146.057 85.8466Z" fill="#263238"/>
<path d="M158.427 73.8628V61.55" stroke="#263238" stroke-width="2" stroke-linecap="round" stroke-linejoin="round"/>
<path d="M1 61.2399H164.466V53.8616L132.842 39.6785H1" stroke="#263238" stroke-width="2" stroke-linecap="round" stroke-linejoin="round"/>
<path d="M132.842 61.2398V39.6785L111.946 61.2398V39.6785L132.842 61.2398Z" stroke="#263238" stroke-width="2" stroke-linecap="round" stroke-linejoin="round"/>
<path d="M111.972 61.2398V39.6785L91.0674 61.2398V39.6785L111.972 61.2398Z" stroke="#263238" stroke-width="2" stroke-linecap="round" stroke-linejoin="round"/>
<path d="M91.0934 61.2398V39.6785L70.1973 61.2398V39.6785L91.0934 61.2398Z" stroke="#263238" stroke-width="2" stroke-linecap="round" stroke-linejoin="round"/>
<path d="M70.2244 61.2398V39.6785L49.3193 61.2398V39.6785L70.2244 61.2398Z" stroke="#263238" stroke-width="2" stroke-linecap="round" stroke-linejoin="round"/>
<path d="M49.3561 61.2398V39.6785L28.4512 61.2398V39.6785L49.3561 61.2398Z" stroke="#263238" stroke-width="2" stroke-linecap="round" stroke-linejoin="round"/>
<path d="M28.4762 61.2398V39.6785L7.57129 61.2398V39.6785L28.4762 61.2398Z" stroke="#263238" stroke-width="2" stroke-linecap="round" stroke-linejoin="round"/>
<path d="M39.3552 351.745C41.451 352.685 46.5752 352.591 46.584 352.591C46.5929 352.591 45.4828 349.038 45.3852 348.831C44.2573 346.341 40.6962 342.252 37.8011 342.638C37.3218 342.722 36.8646 342.912 36.4592 343.195C36.0538 343.478 35.7093 343.849 35.448 344.282C35.1867 344.716 35.0144 345.202 34.9425 345.711C34.8705 346.219 34.9005 346.738 35.0303 347.234C35.5099 349.339 37.5702 350.918 39.3552 351.745Z" fill="#263238"/>
<path d="M41.1232 367.47C43.2989 367.808 47.8724 366.408 48.2277 366.285C48.9854 369.06 49.9139 371.779 51.0073 374.425C51.6378 375.966 52.3216 377.499 53.0143 379.021C52.5969 378.382 52.2239 377.799 52.1263 377.724C50.4212 375.638 45.9098 372.667 43.2456 373.87C42.8025 374.083 42.4069 374.393 42.0847 374.779C41.7625 375.165 41.521 375.618 41.3759 376.11C41.2309 376.602 41.1856 377.12 41.243 377.631C41.3005 378.143 41.4594 378.636 41.7093 379.078C42.7039 380.957 45.0839 381.897 47.0377 382.236C48.9914 382.574 52.9166 381.418 53.9557 381.108C54.231 381.691 54.4974 382.283 54.7727 382.856C56.0959 385.676 57.4369 388.439 58.6624 391.202C59.0975 392.142 59.4883 393.157 59.8879 394.135C59.5149 393.561 59.1952 393.082 59.1419 393.016C57.4369 390.93 52.9788 387.95 50.2613 389.163C49.8204 389.377 49.427 389.687 49.1064 390.072C48.7859 390.457 48.5454 390.91 48.4005 391.4C48.2557 391.89 48.2097 392.407 48.2656 392.917C48.3215 393.427 48.478 393.918 48.725 394.36C49.7196 396.24 52.0996 397.18 54.0534 397.518C56.0071 397.857 59.5505 396.814 60.7849 396.447C61.1667 397.462 61.5486 398.477 61.8683 399.483C62.0726 400.169 62.3212 400.818 62.4899 401.522C62.6587 402.227 62.8541 402.895 63.0317 403.581C63.3336 404.897 63.6444 406.26 63.9197 407.557C64.1062 408.497 64.2661 409.324 64.4348 410.188C64.0174 409.248 63.156 407.312 63.0672 407.162C61.6729 404.831 57.7388 401.175 54.8615 401.936C54.3942 402.076 53.9602 402.32 53.5877 402.65C53.2152 402.98 52.9126 403.389 52.6998 403.851C52.4869 404.313 52.3685 404.818 52.3523 405.331C52.3361 405.845 52.4225 406.357 52.6058 406.833C53.3074 408.882 55.5275 410.198 57.3925 410.799C59.4439 411.467 63.9819 410.856 64.5503 410.799C64.8256 412.237 65.0742 413.619 65.2962 414.963C65.4561 415.903 65.607 416.843 65.7403 417.783H67.5608C67.3921 416.768 67.2056 415.715 67.0013 414.615C66.726 413.158 66.4063 411.598 66.1132 410.01C67.4801 409.427 68.8144 408.761 70.1095 408.017C71.6103 409.728 75.4379 411.777 75.9352 411.993C75.4113 413.356 74.8962 414.662 74.3811 415.903L73.5996 417.783H75.5178L75.9796 416.608C76.5125 415.236 77.0631 413.788 77.6048 412.228C78.1554 412.35 82.6578 413.318 84.7537 412.811C86.6541 412.36 88.9542 411.222 89.8067 409.23C90.0222 408.769 90.1436 408.266 90.1629 407.753C90.1823 407.239 90.0991 406.727 89.919 406.25C89.7388 405.773 89.4657 405.341 89.1174 404.983C88.769 404.626 88.3534 404.349 87.8974 404.173C85.1267 403.186 80.8995 406.523 79.3454 408.741C79.2566 408.873 78.4573 410.414 77.8978 411.391C78.1198 410.771 78.3419 410.16 78.5639 409.512C79.0079 408.243 79.4519 406.955 79.8516 405.573C80.0381 404.897 80.2334 404.211 80.4288 403.524C80.6242 402.838 80.7752 402.096 80.9528 401.381C81.3258 399.708 81.6277 397.988 81.903 396.259C82.9598 396.663 86.7252 398.054 88.6789 397.904C90.6326 397.753 93.0659 396.964 94.1938 395.178C94.4709 394.756 94.6614 394.278 94.753 393.774C94.8447 393.269 94.8354 392.75 94.7258 392.25C94.6162 391.749 94.4086 391.279 94.1166 390.868C93.8246 390.458 93.4546 390.117 93.0304 389.868C90.4284 388.448 85.7749 391.061 83.9278 393.016C83.8123 393.139 82.6312 394.689 82.0007 395.554C82.1516 394.511 82.3115 393.467 82.4358 392.405C82.7999 389.341 83.0752 386.23 83.3239 383.119C83.4127 382.179 83.5104 381.239 83.5992 380.299C83.9722 380.45 88.4214 382.179 90.6149 382.038C92.5597 381.897 94.993 381.098 96.1209 379.313C96.3994 378.891 96.591 378.413 96.6834 377.908C96.7758 377.403 96.7668 376.884 96.6571 376.383C96.5474 375.882 96.3394 375.411 96.0466 375.001C95.7538 374.591 95.3827 374.251 94.9575 374.002C92.3644 372.583 87.702 375.196 85.8549 377.141C85.7128 377.292 84.0255 379.538 83.617 380.13C83.8301 378.034 84.0521 375.957 84.354 373.917C84.7514 371.16 85.315 368.431 86.0414 365.75C86.2101 365.815 90.8458 367.63 93.0926 367.507C95.0286 367.357 97.4707 366.567 98.5986 364.772C98.8771 364.351 99.0687 363.873 99.1611 363.368C99.2535 362.863 99.2445 362.343 99.1348 361.843C99.0251 361.342 98.8171 360.871 98.5243 360.461C98.2315 360.051 97.8604 359.71 97.4352 359.462C94.8421 358.052 90.1797 360.665 88.3326 362.61C88.1905 362.761 86.3699 365.176 86.068 365.637C86.068 365.487 86.1391 365.317 86.1835 365.167C86.9827 362.498 88.005 359.909 89.2384 357.432C89.9044 356.059 90.6149 354.781 91.3253 353.559C92.1601 353.992 95.9699 355.956 98.0036 356.041C100.037 356.125 102.444 355.655 103.758 353.963C104.08 353.579 104.321 353.126 104.466 352.636C104.611 352.145 104.657 351.628 104.6 351.118C104.543 350.608 104.385 350.116 104.136 349.675C103.886 349.234 103.552 348.854 103.154 348.559C100.721 346.848 95.8278 348.897 93.7853 350.627C93.6698 350.721 92.6397 351.802 91.9026 352.6C92.24 352.055 92.5686 351.482 92.8972 350.965C94.1138 349.019 95.3483 347.309 96.4495 345.814C97.0889 344.959 97.675 344.207 98.2256 343.512C99.2557 343.512 103.385 343.361 105.197 342.459C107.009 341.557 108.98 339.949 109.406 337.816C109.523 337.316 109.539 336.797 109.453 336.29C109.368 335.784 109.182 335.302 108.909 334.877C108.636 334.451 108.281 334.091 107.868 333.82C107.455 333.55 106.993 333.374 106.511 333.304C103.607 332.975 100.153 337.186 99.0959 339.714C98.9982 339.931 97.9325 343.474 97.9858 343.474H98.048C97.4974 344.132 96.9201 344.856 96.2718 345.645C95.1351 347.121 93.8652 348.803 92.5953 350.73C91.208 352.793 89.9359 354.939 88.7855 357.159C87.4846 359.637 86.3939 362.232 85.5263 364.913V365.017C85.5263 364.077 85.5263 361.567 85.5263 361.379C85.1888 358.635 83.022 353.55 80.1446 352.995C79.6645 352.914 79.1736 352.941 78.704 353.074C78.2343 353.208 77.7966 353.444 77.4194 353.769C77.0422 354.094 76.734 354.499 76.515 354.959C76.2959 355.418 76.171 355.921 76.1483 356.435C75.9796 358.606 77.4716 360.787 78.928 362.159C80.5709 363.71 85.1444 365.214 85.4819 365.336C84.6627 368.085 84.0189 370.889 83.5548 373.73C83.2795 375.393 83.0486 377.066 82.8355 378.749C82.8355 377.968 82.8355 377.264 82.8355 377.17C82.5069 374.425 80.3311 369.34 77.5071 368.776C77.0184 368.683 76.5165 368.702 76.0354 368.832C75.5542 368.962 75.1051 369.2 74.7185 369.53C74.3319 369.86 74.0169 370.274 73.7947 370.744C73.5725 371.214 73.4485 371.729 73.4309 372.254C73.2621 374.425 74.7541 376.606 76.2016 377.978C77.6492 379.35 81.53 380.741 82.5602 381.08C82.4802 381.728 82.4003 382.377 82.3293 383.025C81.974 386.127 81.6455 389.229 81.2192 392.255C81.0771 393.317 80.8906 394.37 80.713 395.413C80.713 394.718 80.713 394.135 80.713 394.041C80.3844 391.306 78.2087 386.221 75.3846 385.657C74.9051 385.577 74.4152 385.605 73.9466 385.739C73.4781 385.873 73.0415 386.11 72.6653 386.435C72.2891 386.759 71.9817 387.164 71.7632 387.623C71.5447 388.082 71.42 388.584 71.3972 389.097C71.2285 391.278 72.7115 393.458 74.168 394.83C75.6244 396.203 79.1234 397.453 80.34 397.866C80.1269 398.938 79.9137 400 79.6651 401.024C79.4786 401.72 79.3454 402.397 79.1145 403.092L78.5017 405.122C78.0577 406.401 77.6136 407.716 77.1519 408.957C76.841 409.812 76.5302 410.63 76.2194 411.448C76.3792 410.386 76.6457 408.309 76.6457 408.13C76.6231 405.701 76.0115 403.319 74.8695 401.212C74.896 400.944 74.896 400.673 74.8695 400.404C74.8091 399.894 74.6479 399.404 74.3965 398.965C74.145 398.525 73.8089 398.147 73.4101 397.855C73.0113 397.562 72.5587 397.361 72.0818 397.266C71.6049 397.171 71.1145 397.183 70.6424 397.302C67.8183 398.092 66.0244 403.346 65.8912 406.1C65.8912 406.26 65.9889 408.036 66.0688 409.154C65.9268 408.506 65.7935 407.876 65.6426 407.209C65.3406 405.884 65.012 404.577 64.6568 403.167L64.0707 401.118C63.8931 400.432 63.6178 399.727 63.3869 399.032C62.8363 397.415 62.188 395.808 61.5131 394.201C62.6054 393.919 66.4773 392.875 68.0315 391.616C69.5856 390.356 71.2107 388.307 71.2018 386.117C71.2173 385.602 71.1296 385.089 70.9447 384.613C70.7597 384.136 70.4815 383.706 70.1285 383.351C69.7755 382.996 69.3555 382.724 68.8961 382.553C68.4368 382.382 67.9484 382.315 67.4631 382.358C64.5591 382.687 62.037 387.584 61.5131 390.291C61.5131 390.46 61.3088 392.443 61.2289 393.543C60.8115 392.603 60.403 391.616 59.959 390.657C58.6535 387.884 57.2948 385.131 55.8828 382.367C55.4565 381.531 55.048 380.675 54.6306 379.829C55.0213 379.735 59.6393 378.608 61.3799 377.188C62.9251 375.938 64.568 373.88 64.5503 371.699C64.567 371.185 64.4805 370.672 64.2966 370.195C64.1126 369.718 63.8353 369.288 63.4829 368.933C63.1306 368.578 62.7111 368.306 62.2522 368.135C61.7933 367.963 61.3053 367.897 60.8204 367.94C57.9164 368.278 55.3943 373.175 54.8615 375.882C54.8615 376.079 54.5773 378.937 54.5507 379.641C53.6626 377.762 52.7745 375.882 51.8865 374.002C50.7736 371.475 49.8213 368.872 49.0358 366.21C49.2134 366.163 54.0445 364.998 55.8295 363.55C57.3747 362.3 59.0176 360.242 58.9999 358.061C59.0125 357.547 58.9229 357.036 58.737 356.56C58.5511 356.085 58.2729 355.656 57.9204 355.302C57.568 354.947 57.1492 354.675 56.6911 354.503C56.233 354.331 55.7458 354.262 55.2611 354.302C52.3572 354.64 49.8351 359.537 49.3111 362.244C49.3111 362.451 49.0092 365.534 49.0003 366.088C49.0003 365.938 48.8937 365.778 48.8493 365.628C48.1247 362.935 47.6284 360.18 47.3662 357.394C47.2064 355.862 47.1353 354.377 47.0909 352.939C47.979 352.826 52.2151 352.234 53.9468 351.115C55.6785 349.997 57.499 348.192 57.6766 346.021C57.7416 345.512 57.7047 344.994 57.5684 344.501C57.432 344.008 57.1993 343.551 56.8853 343.159C56.5713 342.768 56.183 342.45 55.7457 342.227C55.3083 342.005 54.8316 341.882 54.3464 341.867C51.4247 341.867 48.4142 346.435 47.606 349.057C47.5616 349.207 47.2686 350.711 47.0732 351.811C47.0732 351.153 47.0732 350.486 47.0732 349.865C47.0732 347.525 47.2153 345.382 47.3574 343.483C47.4373 342.412 47.535 341.434 47.6415 340.532C48.5296 339.912 51.8687 337.393 52.9078 335.588C53.9468 333.784 54.746 331.283 53.9912 329.253C53.8285 328.769 53.5714 328.327 53.2367 327.954C52.902 327.582 52.4971 327.289 52.0482 327.093C51.5994 326.897 51.1166 326.803 50.6313 326.817C50.146 326.832 49.669 326.954 49.2312 327.176C46.638 328.605 45.9542 334.131 46.3805 336.857C46.3805 337.092 47.4018 340.701 47.4462 340.673H47.4995C47.384 341.547 47.2686 342.478 47.162 343.493C46.9844 345.373 46.8068 347.534 46.7535 349.884C46.6668 352.414 46.7232 354.947 46.9222 357.469C47.1277 360.294 47.5705 363.093 48.2454 365.834C48.2454 365.834 48.2454 365.9 48.2454 365.938C47.7836 365.167 46.4693 363.118 46.3094 362.93C44.6044 360.843 40.1463 357.873 37.4288 359.076C36.987 359.289 36.5925 359.599 36.2712 359.984C35.9498 360.369 35.7088 360.822 35.5638 361.312C35.4189 361.803 35.3732 362.32 35.4298 362.83C35.4865 363.341 35.6441 363.833 35.8925 364.274C36.8161 366.229 39.1961 367.178 41.1232 367.47Z" fill="#263238"/>
<path d="M91.2445 352.939C91.2889 352.939 92.177 349.33 92.2125 349.095C92.5678 346.36 91.7419 340.852 89.1132 339.508C88.67 339.298 88.1901 339.189 87.7046 339.188C87.2191 339.187 86.7389 339.295 86.2951 339.503C85.8513 339.711 85.4538 340.016 85.1284 340.397C84.8031 340.778 84.5571 341.228 84.4064 341.716C83.7049 343.765 84.5929 346.284 85.6586 348.014C86.893 350.044 91.2445 352.939 91.2445 352.939Z" fill="#263238"/>
<path d="M356.153 227.152C356.153 227.152 352.157 233.27 352.308 234.06C352.459 234.849 353.409 234.915 352.477 236.024C351.544 237.133 349.617 239.201 349.511 240.329C349.569 241.232 349.917 242.088 350.496 242.754C350.496 242.754 349.537 247.67 349.848 248.807C350.159 249.944 353.649 250.687 353.649 250.687L352.717 254.296L362.77 257.341L364.492 250.959L370.469 231.522L356.153 227.152Z" fill="white" stroke="#263238" stroke-linecap="round" stroke-linejoin="round"/>
<path d="M369.697 226.39C369.057 226.259 366.375 224.21 362.468 223.467C358.561 222.725 357.051 224.407 356.598 226.127C356.145 227.847 355.257 226.964 356.394 228.129C357.53 229.295 355.55 230.338 355.55 230.338C355.615 230.994 355.475 231.654 355.15 232.218C354.591 233.468 356.323 235.733 356.323 235.733C355.959 236.576 355.705 237.468 355.568 238.384C355.568 239.126 356.172 239.483 356.713 239.107C357.255 238.731 358.33 236.344 358.356 237.519C358.383 238.694 357.228 247.059 357.903 248.337C358.578 249.615 363.178 250.762 364.493 250.969C365.807 251.176 369.981 246.589 372.174 243.75C374.368 240.912 375.807 235.009 375.078 231.804C374.714 230.478 374.024 229.279 373.079 228.328C372.133 227.377 370.966 226.708 369.697 226.39V226.39Z" fill="#263238" stroke="#263238" stroke-linecap="round" stroke-linejoin="round"/>
<path d="M357.317 237.039C357.087 238.309 356.791 239.564 356.429 240.799C355.95 242.228 354.778 242.679 355.168 243.544C355.559 244.408 356.11 244.258 356.944 243.309C357.872 242.181 358.548 240.848 358.925 239.408C359.102 238.252 359.76 235.818 357.317 237.039Z" fill="white" stroke="#263238" stroke-linecap="round" stroke-linejoin="round"/>
<path d="M358.162 241.607C359.773 242.947 361.551 244.044 363.446 244.869C366.13 245.949 369.028 246.298 371.874 245.884C372.763 245.785 373.596 245.378 374.245 244.728C374.973 243.788 374.973 241.833 374.973 241.26C374.973 240.686 378.01 235.047 375.461 229.454C372.913 223.862 361.856 220.253 359.849 220.638C357.842 221.023 354.21 226.804 354.21 226.804C354.21 226.804 350.045 227.631 350.027 229.539C350.027 231.917 352.301 232.641 353.091 234.887C354.188 237.564 355.938 239.883 358.162 241.607V241.607Z" fill="white" stroke="#263238" stroke-linecap="round" stroke-linejoin="round"/>
<path d="M356.394 228.129C356.394 228.129 360.585 223.251 361.42 222.8C362.033 222.48 364.635 222.743 367.379 224.36" stroke="#263238" stroke-linecap="round" stroke-linejoin="round"/>
<path d="M351.634 254.193L348.783 259.71C348.783 259.71 355.959 257.501 359.875 257.501C362.63 257.554 365.376 257.834 368.09 258.338L366.26 252.952C366.26 252.952 356.332 251.843 351.634 254.193Z" fill="white" stroke="#263238" stroke-linecap="round" stroke-linejoin="round"/>
<path d="M378.631 326.988C378.645 329.294 378.514 331.599 378.24 333.887C377.85 335.955 375.248 339.132 374.2 339.686C373.152 340.241 371.855 340.372 371.589 339.686C371.322 339 370.94 339.273 371.331 335.682C371.722 332.092 373.161 325.193 373.161 325.193L378.631 326.988Z" fill="white" stroke="#263238" stroke-linecap="round" stroke-linejoin="round"/>
<path d="M379.546 322.571L378.658 326.988C377.545 327.233 376.401 327.277 375.274 327.12C374.79 327.041 374.336 326.818 373.967 326.477C373.597 326.136 373.327 325.691 373.188 325.193L373.578 321.321L379.546 322.571Z" fill="white" stroke="#263238" stroke-linecap="round" stroke-linejoin="round"/>
<path d="M378.906 263.169C378.906 263.169 380.735 274.899 381.908 283.593C382.898 290.581 383.288 297.65 383.071 304.713C382.805 308.857 381.242 322.157 380.718 323.116C380.194 324.074 376.677 324.497 375.247 323.811C373.817 323.125 373.16 322.289 373.16 319.666C373.16 317.044 374.457 292.569 374.457 292.569L378.906 263.169Z" fill="white" stroke="#263238" stroke-linecap="round" stroke-linejoin="round"/>
<path d="M350.728 414.719C350.214 414.721 349.708 414.857 349.254 415.114C348.481 415.555 345.124 416.523 342.966 417.332C339.592 418.601 336.963 417.924 337.23 418.854C337.496 419.785 342.762 421.674 345.808 421.674C348.854 421.674 350.32 420.922 351.776 420.95C353.232 420.979 352.158 421.721 354.573 422.012C356.989 422.304 357.788 422.313 358.632 420.913C359.475 419.512 359.955 419.155 359.689 417.379V417.369C359.556 416.605 359.172 415.916 358.605 415.424C358.037 414.932 357.323 414.668 356.589 414.681L350.728 414.719Z" fill="#263238" stroke="#263238" stroke-linecap="round" stroke-linejoin="round"/>
<path d="M369.572 413.008C369.123 413.001 368.682 413.132 368.302 413.384C367.636 413.826 364.749 414.756 362.893 415.555C359.989 416.796 357.68 415.969 357.947 416.984C358.213 417.999 361.321 419.371 363.977 419.531C365.411 419.623 366.851 419.567 368.275 419.362C371.135 419.193 369.314 420.302 370.344 420.706C371.065 420.947 371.818 421.062 372.573 421.044C375.593 421.214 375.966 421.467 376.658 419.992C377.351 418.516 377.751 418.112 377.466 416.232V416.176C377.393 415.415 377.076 414.703 376.569 414.158C376.063 413.613 375.395 413.267 374.678 413.177L369.572 413.008Z" fill="#263238" stroke="#263238" stroke-linecap="round" stroke-linejoin="round"/>
<path d="M342.504 312.908C342.504 312.908 343.028 332.233 343.028 338.718C343.028 345.203 344.591 374.519 346.678 385.149C348.302 394.243 349.39 403.434 349.937 412.67C349.937 414.324 349.422 414.738 350.461 415.837C351.5 416.937 355.416 419.014 356.855 418.328C358.294 417.642 359.066 415.01 359.066 415.01C359.066 415.01 359.066 400.658 359.466 391.268C359.866 381.879 359.2 369.603 359.2 369.603C359.2 369.603 364.288 394.445 365.718 399.417C367.148 404.389 368.329 413.403 368.595 415.189C368.862 416.975 369.998 417.068 371.455 417.068C373.231 417.068 375.371 416.824 376.153 415.442C376.934 414.061 375.265 399.567 375.265 393.778C375.265 387.988 370.984 351.971 371.33 343.117C371.677 334.263 374.199 318.961 373.417 314.403C372.949 311.701 372.687 308.963 372.636 306.216C372.636 306.216 345.763 302.964 342.504 312.908Z" fill="#5E5E5E" stroke="#263238" stroke-linecap="round" stroke-linejoin="round"/>
<path d="M313.393 222.809C313.393 222.809 313.899 221.869 314.654 220.281C315.193 218.8 315.406 217.209 315.276 215.628C315.276 214.566 316.403 214.171 316.403 212.978C316.403 211.784 314.778 211.906 313.899 212.705C313.02 213.504 312.762 215.901 312.762 215.901C312.762 215.901 311.377 213.41 310.631 211.643C309.965 210.064 309.041 207.338 307.789 206.944C306.537 206.549 306.59 208.184 306.715 208.579C306.923 209.353 307.184 210.11 307.496 210.844C307.789 211.455 308.384 213.241 308.384 213.241C308.384 213.241 306.608 211.775 305.995 211.775C305.833 211.771 305.672 211.815 305.531 211.901C305.39 211.988 305.274 212.113 305.196 212.265C305.118 212.416 305.081 212.587 305.089 212.759C305.097 212.932 305.149 213.098 305.241 213.241C305.241 213.241 303.731 213.908 304.113 214.97C304.495 216.033 304.61 216.427 304.61 216.427C304.61 216.427 304.237 216.963 304.61 218.307C304.983 219.651 306.626 221.898 307.274 223.007C307.636 223.628 308.106 224.17 308.66 224.604L313.393 222.809Z" fill="white" stroke="#263238" stroke-linecap="round" stroke-linejoin="round"/>
<path d="M305.268 213.194C305.669 213.847 306.136 214.453 306.662 214.999" stroke="#263238" stroke-linecap="round" stroke-linejoin="round"/>
<path d="M304.602 216.38C304.85 216.813 305.148 217.211 305.49 217.565" stroke="#263238" stroke-linecap="round" stroke-linejoin="round"/>
<path d="M309.494 229.68L307.283 224.567C307.72 223.902 308.281 223.338 308.932 222.912C309.583 222.485 310.309 222.204 311.066 222.086C313.802 221.531 314.192 222.086 314.192 222.086L315.631 227.33C315.631 227.33 310.933 227.744 309.494 229.68Z" fill="white" stroke="#263238" stroke-linecap="round" stroke-linejoin="round"/>
<path d="M340.196 256.796L322.798 239.06C322.798 239.06 318.758 231.748 317.719 229.125C316.68 226.503 315.241 225.808 312.888 226.089C310.534 226.371 308.447 228.984 308.447 230.921C308.447 232.02 311.111 238.647 313.545 244.371C313.669 244.775 317.097 255.978 319.024 256.796C320.951 257.614 341.359 280.021 341.359 280.021L348.783 259.71L340.196 256.796Z" fill="white" stroke="#263238" stroke-linecap="round" stroke-linejoin="round"/>
<path d="M338.126 276.121C339.209 287.014 338.774 315.597 338.774 317.542C338.774 319.892 338.641 320.024 339.423 320.719C340.204 321.415 347.619 321.659 354.795 321.556C361.97 321.452 370.958 319.854 371.615 319.854C372.142 319.814 372.653 319.644 373.106 319.356C373.56 319.069 373.943 318.673 374.226 318.2C374.652 317.514 378.897 289.345 380.14 276.412C381.17 265.716 378.808 263.413 378.87 263.169C379.003 262.614 368.56 258.61 367.645 258.338C366.73 258.065 361.518 254.334 349.777 259.024C349.777 259.024 344.955 257.407 343.206 258.206C343.206 258.206 346.589 265.368 344.049 272.239C341.51 279.11 338.126 276.121 338.126 276.121Z" fill="#FF725E" stroke="#263238" stroke-linecap="round" stroke-linejoin="round"/>
<path d="M338.899 302.974C338.899 304.722 338.899 306.395 338.899 307.946C343.668 307.438 358.712 306.01 376.331 305.991C376.562 304.421 376.811 302.767 377.051 301.047C359.485 301.028 344.343 302.41 338.899 302.974Z" fill="white" stroke="#263238" stroke-linecap="round" stroke-linejoin="round"/>
<path d="M338.863 295.577C344.493 294.975 362.175 293.302 377.991 294.289C378.879 287.71 379.767 281.064 380.176 276.431C381.206 265.735 378.844 263.432 378.906 263.187C378.968 262.943 376.162 261.665 373.329 260.518C374.439 262.53 376.33 267.173 376.153 275.265C376.028 280.67 375.593 285.604 375.167 289.204C368.364 288.913 361.455 289.044 355.381 289.345C355.488 286.525 355.514 283.16 355.443 279.391C355.312 272.21 353.958 265.113 351.447 258.441C350.923 258.62 350.408 258.808 349.857 259.024C348.67 258.638 347.46 258.339 346.234 258.131C349.092 264.848 350.65 272.102 350.816 279.467C350.887 283.358 350.816 286.742 350.728 289.589C345.523 289.928 341.305 290.341 338.845 290.614C338.827 292.249 338.845 293.913 338.863 295.577Z" fill="white" stroke="#263238" stroke-linecap="round" stroke-linejoin="round"/>
<path d="M370.301 287.164C366.571 292.804 360.674 301.113 356.092 304.243" stroke="#263238" stroke-linecap="round" stroke-linejoin="round"/>
<path d="M373.932 281.384C373.932 281.384 373.257 282.531 372.156 284.326" stroke="#263238" stroke-linecap="round" stroke-linejoin="round"/>
<path d="M363.134 301.009C360.229 303.795 357.086 306.29 353.747 308.463" stroke="#263238" stroke-linecap="round" stroke-linejoin="round"/>
<path d="M370.416 391.052C371.808 392.601 373.45 393.874 375.265 394.812C375.265 394.407 375.265 394.031 375.265 393.684C375.265 387.885 370.958 351.943 371.349 343.108C371.42 341.5 371.562 339.677 371.739 337.741C371.597 337.352 371.422 336.977 371.216 336.622C369.09 333.115 367.174 329.471 365.479 325.71L372.255 332.571C372.308 332.054 372.37 331.528 372.423 331.011C370.647 327.58 368.249 322.871 368.09 321.433L360.097 325.992C360.097 325.992 359.049 358.757 359.209 369.528C359.209 369.528 359.982 373.288 360.985 378.166C363.454 384.125 367.859 388.279 370.416 391.052Z" fill="#263238" stroke="#263238" stroke-linecap="round" stroke-linejoin="round"/>
<path d="M352.486 410.536C352.658 412.655 352.635 414.786 352.415 416.899" stroke="#263238" stroke-linecap="round" stroke-linejoin="round"/>
<path d="M351.909 402.622C352.025 404.455 352.14 406.081 352.238 407.406" stroke="#263238" stroke-linecap="round" stroke-linejoin="round"/>
<path d="M348.534 330.842C348.854 344.677 349.635 375.064 350.31 381.841C350.816 386.747 351.278 393.533 351.66 399.295" stroke="#263238" stroke-linecap="round" stroke-linejoin="round"/>
</svg>
