<svg width="200" height="160" viewBox="0 0 200 160" fill="none" xmlns="http://www.w3.org/2000/svg">
<path d="M98.2496 160C143.006 160 179.289 158.412 179.289 156.453C179.289 154.495 143.006 152.907 98.2496 152.907C53.4929 152.907 17.2104 154.495 17.2104 156.453C17.2104 158.412 53.4929 160 98.2496 160Z" fill="#263238"/>
<path d="M50.5272 93.5711H150.627C151.217 93.5711 151.782 93.7699 152.198 94.124C152.615 94.478 152.849 94.9581 152.849 95.4587V150.065H48.3005V95.4587C48.3005 95.2105 48.3582 94.9646 48.4701 94.7353C48.5821 94.506 48.7462 94.2977 48.953 94.1224C49.1599 93.9471 49.4054 93.8081 49.6755 93.7135C49.9456 93.6189 50.235 93.5705 50.5272 93.5711V93.5711Z" fill="#FF725E" stroke="#263238" stroke-linecap="round" stroke-linejoin="round"/>
<path d="M55.8971 97.8568H145.258C145.549 97.8568 145.838 97.9056 146.108 98.0005C146.377 98.0954 146.622 98.2344 146.828 98.4097C147.035 98.585 147.198 98.7931 147.31 99.0221C147.422 99.2511 147.479 99.4966 147.479 99.7445V150.826H53.6704V99.7489C53.6697 99.5002 53.7269 99.2539 53.8385 99.0241C53.9502 98.7943 54.1142 98.5855 54.3211 98.4097C54.528 98.2339 54.7737 98.0945 55.0441 97.9996C55.3146 97.9048 55.6045 97.8562 55.8971 97.8568V97.8568Z" fill="#263238" stroke="#263238" stroke-linecap="round" stroke-linejoin="round"/>
<path d="M151.953 154.627H44.5464C39.6012 154.627 35.5933 152.084 35.5933 148.947H160.906C160.906 152.084 156.898 154.627 151.953 154.627Z" fill="#FF725E" stroke="#263238" stroke-linecap="round" stroke-linejoin="round"/>
<path d="M100.13 41.5526C93.2321 47.1275 75.5899 52.7597 55.0168 64.7061C55.0168 64.7061 56.3011 105.073 100.13 127.14V41.5526Z" fill="#FF725E" stroke="#263238" stroke-linecap="round" stroke-linejoin="round"/>
<path d="M100.129 41.5526C107.022 47.1276 124.669 52.7597 145.242 64.7061C145.242 64.7061 143.958 105.073 100.129 127.14V41.5526Z" fill="#263238" stroke="#263238" stroke-linecap="round" stroke-linejoin="round"/>
<path d="M100.129 44.9891C91.8081 50.0008 77.3867 54.7794 58.3257 65.8458C58.3257 65.8458 59.5167 103.247 100.129 123.703C140.742 103.256 141.933 65.8458 141.933 65.8458C122.867 54.7838 108.513 50.0008 100.129 44.9891Z" fill="#263238" stroke="#263238" stroke-linecap="round" stroke-linejoin="round"/>
<path d="M134.808 61.8724C105.727 69.3527 83.5435 91.0674 73.4563 102.521C80.395 111.171 89.5047 118.405 100.129 123.703C140.742 103.256 141.933 65.8458 141.933 65.8458C139.479 64.426 137.104 63.1015 134.808 61.8724Z" fill="#FF725E" stroke="#263238" stroke-linecap="round" stroke-linejoin="round"/>
<path d="M115.964 82.7027H84.7864C84.0997 82.7027 83.4411 82.4709 82.9556 82.0583C82.47 81.6457 82.1973 81.0861 82.1973 80.5026V68.0326C82.2777 63.9834 84.2272 60.1231 87.6256 57.2837C91.0239 54.4443 95.5991 52.8532 100.365 52.8532C105.131 52.8532 109.706 54.4443 113.105 57.2837C116.503 60.1231 118.452 63.9834 118.533 68.0326V80.5026C118.533 81.0831 118.263 81.64 117.782 82.0521C117.301 82.4642 116.648 82.6981 115.964 82.7027ZM87.3962 78.3026H113.375V68.0326C113.307 65.1434 111.909 62.392 109.48 60.3691C107.052 58.3462 103.787 57.2131 100.386 57.2131C96.985 57.2131 93.7197 58.3462 91.2911 60.3691C88.8625 62.392 87.4641 65.1434 87.3962 68.0326V78.3026Z" fill="white" stroke="#263238" stroke-linecap="round" stroke-linejoin="round"/>
<path d="M119.962 76.6921H80.2969V105.174H119.962V76.6921Z" fill="white" stroke="#263238" stroke-linecap="round" stroke-linejoin="round"/>
<path d="M104.251 88.5197C104.251 87.871 104.049 87.234 103.665 86.6734C103.281 86.1128 102.729 85.6488 102.065 85.3285C101.401 85.0082 100.649 84.8432 99.8859 84.8502C99.1226 84.8573 98.3751 85.0361 97.7196 85.3685C97.0641 85.7009 96.524 86.175 96.1543 86.7425C95.7846 87.31 95.5985 87.9506 95.615 88.5991C95.6315 89.2476 95.85 89.8808 96.2483 90.4342C96.6465 90.9876 97.2103 91.4414 97.8821 91.7494L97.1571 98.2176H102.708L101.983 91.7494C102.67 91.4358 103.243 90.9697 103.643 90.401C104.042 89.8322 104.252 89.182 104.251 88.5197V88.5197Z" fill="#263238" stroke="#263238" stroke-linecap="round" stroke-linejoin="round"/>
<path d="M178.279 82.9843L178.217 82.3243" stroke="#263238" stroke-linecap="round" stroke-linejoin="round"/>
<path d="M178.067 81.0087C176.017 64.516 166.964 49.2233 152.604 37.992C138.244 26.7608 119.559 20.3605 100.047 19.9889C80.5351 19.6173 61.5321 25.2997 46.5941 35.973C31.656 46.6462 21.8065 61.579 18.8884 77.977C18.6675 79.2266 18.4949 80.4806 18.3706 81.7391" stroke="#263238" stroke-linecap="round" stroke-linejoin="round" stroke-dasharray="3.01 3.01"/>
<path d="M18.2775 82.3903L18.2153 83.0459" stroke="#263238" stroke-linecap="round" stroke-linejoin="round"/>
<path d="M36.1061 71.5175L40.694 55.655H26.7749L36.1061 71.5175Z" fill="#263238" stroke="#263238" stroke-linecap="round" stroke-linejoin="round"/>
<path d="M36.1059 71.5175L37.1261 56.2578H28.2661L36.1059 71.5175Z" fill="#FF725E" stroke="#263238" stroke-linecap="round" stroke-linejoin="round"/>
<path d="M36.1059 71.5175L35.1583 55.0698H26.2983L36.1059 71.5175Z" fill="#FF725E" stroke="#263238" stroke-linecap="round" stroke-linejoin="round"/>
<path d="M19.5667 54.3086L17.2831 52.1129H5.25928L10.8984 71.5175H36.106L32.1084 54.3086H19.5667Z" fill="#263238" stroke="#263238" stroke-linecap="round" stroke-linejoin="round"/>
<path d="M62.862 24.2776H32.8335C31.7839 24.2776 30.9331 25.0006 30.9331 25.8925V39.6781C30.9331 40.57 31.7839 41.293 32.8335 41.293H62.862C63.9116 41.293 64.7624 40.57 64.7624 39.6781V25.8925C64.7624 25.0006 63.9116 24.2776 62.862 24.2776Z" fill="#263238" stroke="#263238" stroke-linecap="round" stroke-linejoin="round"/>
<path d="M64.7624 27.5029H30.9331V33.6631H64.7624V27.5029Z" fill="#FF725E" stroke="#263238" stroke-linecap="round" stroke-linejoin="round"/>
<path d="M57.6215 38.5737C57.6215 38.3361 57.5386 38.1038 57.3833 37.9063C57.2279 37.7087 57.0071 37.5548 56.7488 37.4639C56.4905 37.3729 56.2063 37.3492 55.9321 37.3955C55.6578 37.4419 55.4059 37.5563 55.2082 37.7243C55.0105 37.8923 54.8759 38.1063 54.8214 38.3393C54.7668 38.5723 54.7948 38.8139 54.9018 39.0334C55.0088 39.2529 55.19 39.4405 55.4225 39.5725C55.6549 39.7045 55.9282 39.7749 56.2078 39.7749C56.5828 39.7749 56.9423 39.6483 57.2074 39.4231C57.4726 39.1978 57.6215 38.8923 57.6215 38.5737V38.5737Z" fill="white" stroke="#263238" stroke-linecap="round" stroke-linejoin="round"/>
<path d="M61.5517 38.5737C61.5517 38.3361 61.4688 38.1038 61.3134 37.9063C61.1581 37.7087 60.9373 37.5548 60.679 37.4639C60.4207 37.3729 60.1365 37.3492 59.8622 37.3955C59.588 37.4419 59.3361 37.5563 59.1384 37.7243C58.9407 37.8923 58.8061 38.1063 58.7515 38.3393C58.697 38.5723 58.725 38.8139 58.832 39.0334C58.939 39.2529 59.1202 39.4405 59.3526 39.5725C59.5851 39.7045 59.8584 39.7749 60.138 39.7749C60.5129 39.7749 60.8725 39.6483 61.1376 39.4231C61.4027 39.1978 61.5517 38.8923 61.5517 38.5737Z" fill="white" stroke="#263238" stroke-linecap="round" stroke-linejoin="round"/>
<path d="M118.999 12.8768H82.7722V32.8359H118.999V12.8768Z" fill="#FF725E" stroke="#263238" stroke-linecap="round" stroke-linejoin="round"/>
<path d="M117.357 14.1441H84.5378V31.4058H117.357V14.1441Z" fill="#263238" stroke="#263238" stroke-linecap="round" stroke-linejoin="round"/>
<path d="M94.1385 26.1829C94.1385 24.2996 92.3364 21.0611 90.1202 21.0611C87.9039 21.0611 86.0967 24.2996 86.0967 26.1829C86.0967 28.0661 87.8987 28.5325 90.1202 28.5325C92.3416 28.5325 94.1385 28.0529 94.1385 26.1829Z" fill="white" stroke="#263238" stroke-linecap="round" stroke-linejoin="round"/>
<path d="M90.1201 21.6859C91.6473 21.6859 92.8853 20.6339 92.8853 19.3363C92.8853 18.0386 91.6473 16.9866 90.1201 16.9866C88.593 16.9866 87.355 18.0386 87.355 19.3363C87.355 20.6339 88.593 21.6859 90.1201 21.6859Z" fill="white" stroke="#263238" stroke-linecap="round" stroke-linejoin="round"/>
<path d="M98.1567 17.431H104.852" stroke="white" stroke-width="2" stroke-linecap="round" stroke-linejoin="round"/>
<path d="M98.1567 19.8951H104.852" stroke="white" stroke-width="2" stroke-linecap="round" stroke-linejoin="round"/>
<path d="M98.1567 24.26H113.779" stroke="white" stroke-width="2" stroke-linecap="round" stroke-linejoin="round"/>
<path d="M98.1567 27.4853H113.779" stroke="white" stroke-width="2" stroke-linecap="round" stroke-linejoin="round"/>
<path d="M168.575 24.2776H141.633C139.966 24.2776 138.614 25.4261 138.614 26.8429V38.7585C138.614 40.1752 139.966 41.3238 141.633 41.3238H168.575C170.242 41.3238 171.594 40.1752 171.594 38.7585V26.8429C171.594 25.4261 170.242 24.2776 168.575 24.2776Z" fill="#263238" stroke="#263238" stroke-width="2" stroke-linecap="round" stroke-linejoin="round"/>
<path d="M156.422 32.3739L171.594 25.8529V25.5536C171.594 25.2152 171.436 24.8907 171.154 24.6513C170.873 24.412 170.491 24.2776 170.092 24.2776H140.121C139.722 24.2776 139.34 24.4119 139.057 24.6511C138.775 24.8903 138.615 25.2148 138.614 25.5536V25.9101L153.512 32.4047C153.966 32.593 154.466 32.6883 154.971 32.6829C155.476 32.6776 155.973 32.5717 156.422 32.3739Z" fill="#FF725E" stroke="#263238" stroke-width="2" stroke-linecap="round" stroke-linejoin="round"/>
<path d="M188.222 53.9962H159.084C157.926 53.9962 156.987 54.794 156.987 55.7782V66.5102C156.987 67.4944 157.926 68.2922 159.084 68.2922H188.222C189.38 68.2922 190.319 67.4944 190.319 66.5102V55.7782C190.319 54.794 189.38 53.9962 188.222 53.9962Z" fill="#263238"/>
<path d="M156.992 64.5521V72.2304L162.03 67.3022" fill="#263238"/>
<path d="M168.612 61.406C168.613 61.115 168.512 60.8302 168.322 60.5879C168.133 60.3455 167.863 60.1565 167.546 60.0447C167.23 59.9329 166.882 59.9034 166.546 59.96C166.21 60.0166 165.901 60.1566 165.659 60.3624C165.417 60.5682 165.252 60.8305 165.186 61.116C165.119 61.4015 165.154 61.6973 165.285 61.9661C165.417 62.2348 165.639 62.4643 165.924 62.6254C166.21 62.7866 166.545 62.8721 166.887 62.8713C167.344 62.8701 167.782 62.7153 168.105 62.4408C168.428 62.1663 168.61 61.7943 168.612 61.406Z" fill="#FF725E"/>
<path d="M176.011 61.406C176.012 61.115 175.912 60.8302 175.722 60.5879C175.532 60.3455 175.262 60.1565 174.946 60.0447C174.63 59.9329 174.282 59.9034 173.946 59.96C173.61 60.0166 173.301 60.1566 173.059 60.3624C172.817 60.5682 172.652 60.8305 172.585 61.116C172.519 61.4015 172.553 61.6973 172.685 61.9661C172.816 62.2348 173.039 62.4643 173.324 62.6254C173.609 62.7866 173.944 62.8721 174.287 62.8713C174.744 62.8701 175.182 62.7153 175.505 62.4408C175.828 62.1663 176.01 61.7943 176.011 61.406Z" fill="#FF725E"/>
<path d="M183.416 61.406C183.417 61.1152 183.317 60.8306 183.127 60.5883C182.938 60.3461 182.668 60.157 182.352 60.0451C182.036 59.9332 181.688 59.9035 181.352 59.9597C181.016 60.0159 180.708 60.1555 180.465 60.3609C180.223 60.5662 180.058 60.8281 179.991 61.1133C179.923 61.3985 179.957 61.6942 180.088 61.963C180.219 62.2318 180.441 62.4616 180.725 62.6233C181.01 62.7849 181.344 62.8713 181.687 62.8713C182.144 62.8701 182.582 62.7155 182.906 62.4411C183.23 62.1667 183.413 61.7947 183.416 61.406V61.406Z" fill="#FF725E"/>
<path d="M35.9299 89.6637C35.8489 89.5737 35.7447 89.5007 35.6253 89.4504C35.5059 89.4 35.3745 89.3736 35.2412 89.3733H12.8712L12.0116 87.1732C11.9532 87.027 11.8424 86.9 11.6948 86.8101C11.5471 86.7201 11.37 86.6717 11.1883 86.6716H5.52333C5.30487 86.686 5.10083 86.7699 4.95199 86.9065C4.80314 87.0431 4.72046 87.2225 4.72046 87.4086C4.72046 87.5948 4.80314 87.7742 4.95199 87.9108C5.10083 88.0474 5.30487 88.1313 5.52333 88.1457H10.5617L16.0248 102.072C16.0825 102.219 16.1931 102.346 16.3409 102.436C16.4888 102.526 16.6662 102.574 16.8481 102.574H17.164C16.8529 102.981 16.6874 103.456 16.6876 103.942C16.6848 104.338 16.7911 104.73 16.9979 105.085C17.2047 105.44 17.5063 105.749 17.8787 105.988C18.2511 106.226 18.6839 106.388 19.1426 106.459C19.6014 106.53 20.0734 106.509 20.521 106.398C20.9686 106.287 21.3794 106.088 21.7206 105.818C22.0618 105.548 22.3241 105.214 22.4864 104.842C22.6487 104.471 22.7066 104.072 22.6555 103.678C22.6044 103.285 22.4457 102.906 22.192 102.574H26.3346C26.0235 102.981 25.858 103.456 25.8582 103.942C25.8414 104.285 25.9064 104.627 26.0491 104.947C26.1918 105.268 26.4094 105.561 26.6887 105.809C26.968 106.056 27.3034 106.253 27.6746 106.387C28.0458 106.522 28.4451 106.591 28.8486 106.591C29.2522 106.591 29.6515 106.522 30.0227 106.387C30.3939 106.253 30.7292 106.056 31.0086 105.809C31.2879 105.561 31.5055 105.268 31.6482 104.947C31.7909 104.627 31.8558 104.285 31.8391 103.942C31.8393 103.456 31.6738 102.981 31.3627 102.574H32.0307C32.1502 102.582 32.2704 102.568 32.3836 102.535C32.4968 102.501 32.6007 102.448 32.6887 102.379C32.7767 102.31 32.8469 102.226 32.8949 102.133C32.9429 102.039 32.9677 101.939 32.9677 101.837C32.9677 101.735 32.9429 101.634 32.8949 101.541C32.8469 101.447 32.7767 101.363 32.6887 101.294C32.6007 101.225 32.4968 101.172 32.3836 101.139C32.2704 101.105 32.1502 101.092 32.0307 101.1H17.4695L16.5115 98.6664H32.7608C32.9517 98.6663 33.1373 98.6128 33.2888 98.5142C33.4404 98.4156 33.5497 98.2773 33.5997 98.1208L36.0749 90.3061C36.1111 90.1969 36.1169 90.0819 36.0917 89.9704C36.0665 89.8589 36.0111 89.7539 35.9299 89.6637V89.6637ZM19.6754 105.007C19.4276 105.007 19.1853 104.945 18.9792 104.828C18.7731 104.711 18.6125 104.544 18.5177 104.35C18.4228 104.155 18.398 103.941 18.4464 103.734C18.4947 103.528 18.6141 103.338 18.7893 103.189C18.9646 103.04 19.1879 102.939 19.4309 102.898C19.674 102.857 19.926 102.878 20.155 102.958C20.384 103.039 20.5797 103.175 20.7174 103.351C20.8551 103.526 20.9285 103.732 20.9285 103.942C20.9272 104.224 20.7947 104.494 20.56 104.694C20.3253 104.893 20.0074 105.006 19.6754 105.007V105.007ZM28.8771 105.007C28.6293 105.007 28.387 104.945 28.1809 104.828C27.9748 104.711 27.8142 104.544 27.7194 104.35C27.6245 104.155 27.5997 103.941 27.6481 103.734C27.6964 103.528 27.8158 103.338 27.991 103.189C28.1663 103.04 28.3896 102.939 28.6326 102.898C28.8757 102.857 29.1277 102.878 29.3567 102.958C29.5857 103.039 29.7814 103.175 29.9191 103.351C30.0568 103.526 30.1302 103.732 30.1302 103.942C30.1296 104.083 30.0962 104.222 30.032 104.352C29.9678 104.482 29.8741 104.6 29.7562 104.699C29.6383 104.797 29.4986 104.876 29.3451 104.929C29.1916 104.982 29.0273 105.008 28.8616 105.007H28.8771ZM31.1918 97.1924H27.9761V90.865H31.1918V97.1924ZM23.0206 90.865H26.2362V97.2056H23.0206V90.865ZM21.2858 97.2056H18.0702V90.865H21.2858V97.2056ZM13.4512 90.865H16.3303V97.2056H15.9419L13.4512 90.865ZM32.9265 94.5963V90.865H34.1071L32.9265 94.5963Z" fill="#263238"/>
<path d="M177.037 86.0996C174.561 86.0987 172.14 86.7219 170.081 87.8901C168.022 89.0584 166.417 90.7193 165.469 92.6628C164.521 94.6063 164.273 96.7451 164.756 98.8085C165.239 100.872 166.431 102.767 168.181 104.255C169.932 105.743 172.163 106.756 174.591 107.166C177.019 107.576 179.536 107.365 181.823 106.56C184.111 105.754 186.065 104.39 187.44 102.641C188.815 100.891 189.548 98.8342 189.547 96.7304C189.543 93.912 188.224 91.21 185.878 89.2171C183.533 87.2242 180.353 86.1031 177.037 86.0996V86.0996ZM177.037 87.4197C178.072 87.4197 179.201 88.5725 179.999 90.4998H174.075C174.888 88.5725 175.985 87.4197 177.037 87.4197ZM180.449 91.8198C180.829 93.2101 181.039 94.6301 181.076 96.0571H172.992C173.029 94.6301 173.239 93.2101 173.619 91.8198H180.449ZM181.101 97.3904C181.059 99.0529 180.77 100.704 180.242 102.305H173.852C173.334 100.709 173.054 99.0636 173.018 97.408L181.101 97.3904ZM171.46 96.0703H166.111C166.236 94.5674 166.791 93.1131 167.726 91.833H172.014C171.662 93.2266 171.468 94.6454 171.434 96.0703H171.46ZM171.46 97.3904C171.486 99.0473 171.734 100.696 172.2 102.305H168.259C167.003 100.883 166.257 99.1821 166.111 97.408L171.46 97.3904ZM172.687 103.625C172.992 104.347 173.398 105.034 173.899 105.671C172.326 105.268 170.88 104.568 169.668 103.625H172.687ZM174.37 103.625H179.698C178.937 105.165 177.958 106.063 177.037 106.063C176.115 106.063 175.136 105.148 174.37 103.625ZM181.381 103.625H184.4C183.188 104.568 181.742 105.268 180.169 105.671C180.67 105.034 181.076 104.347 181.381 103.625V103.625ZM181.868 102.305C182.352 100.698 182.616 99.049 182.655 97.3904H187.978C187.829 99.1725 187.076 100.88 185.808 102.305H181.868ZM182.655 96.0703C182.621 94.6454 182.426 93.2266 182.075 91.833H186.363C187.298 93.1131 187.852 94.5674 187.978 96.0703H182.655ZM185.192 90.513H181.666C181.332 89.556 180.835 88.6457 180.19 87.8113C182.11 88.3086 183.832 89.2429 185.172 90.513H185.192ZM173.919 87.8113C173.274 88.645 172.779 89.5555 172.449 90.513H168.917C170.256 89.2429 171.979 88.3086 173.899 87.8113H173.919Z" fill="#263238"/>
</svg>
