<svg width="200" height="160" viewBox="0 0 200 160" fill="none" xmlns="http://www.w3.org/2000/svg">
<path d="M23.3142 86.3245C23.4668 81.1539 23.414 75.9761 23.156 70.8128C22.5814 60.1649 21.3608 49.5963 19.506 39.2105C18.4871 33.3597 17.2339 27.6101 15.926 21.8686C15.8895 21.6945 15.6797 21.7431 15.7162 21.9253C19.7555 42.1703 23.0678 63.0631 22.8397 84.1097C22.7758 90.001 22.2648 95.787 21.8451 101.638C21.8451 101.796 22.0276 101.856 22.0549 101.695C22.8883 96.6859 23.159 91.4384 23.3142 86.3245Z" fill="#EBEBEB"/>
<path d="M15.7162 21.9253C15.7162 21.9253 9.59645 42.5995 10.9682 47.4583C12.34 52.3171 15.1627 53.3536 15.1627 53.3536C15.1627 53.3536 11.4184 60.4515 14.0342 67.1445C16.65 73.8374 22.4626 73.5014 22.855 81.069C22.8489 81.069 23.1743 49.4301 15.7162 21.9253Z" fill="#EBEBEB"/>
<path d="M22.1826 68.0028C22.193 67.9677 22.193 67.9287 22.1826 67.8935C21.3249 53.8354 19.4452 39.8219 16.2484 26.3063C16.2484 26.2658 16.1906 26.278 16.1997 26.3063C17.4164 32.3555 18.4871 38.4358 19.4117 44.547C18.5899 43.5112 17.5859 42.7663 16.4917 42.3808C16.4877 42.3808 16.4838 42.383 16.481 42.3868C16.4781 42.3905 16.4765 42.3957 16.4765 42.4011C16.4765 42.4064 16.4781 42.4116 16.481 42.4154C16.4838 42.4192 16.4877 42.4213 16.4917 42.4213C17.6232 43.0732 18.7061 43.8263 19.506 45.1058C19.6855 46.3205 19.8619 47.5028 20.0261 48.7013C18.6604 46.6768 16.7624 45.6565 14.8553 44.6968C14.831 44.6968 14.8158 44.7414 14.8553 44.7535C16.8294 45.8265 18.8095 47.2032 20.1387 49.4706C20.6051 52.9042 21.0106 56.3471 21.3553 59.7996C20.366 58.4225 19.0983 57.4564 17.7054 57.0179C17.6628 57.0179 17.6384 57.0868 17.6841 57.103C19.1207 57.6545 20.4057 58.7504 21.3827 60.2571C21.3894 60.2674 21.3977 60.2757 21.407 60.2814C21.5287 61.4961 21.6443 62.7108 21.7507 63.9255C20.9867 63.0643 20.1242 62.3713 19.1958 61.8727C19.1918 61.8748 19.1884 61.8784 19.186 61.8831C19.1836 61.8878 19.1824 61.8933 19.1824 61.899C19.1824 61.9047 19.1836 61.9102 19.186 61.9149C19.1884 61.9196 19.1918 61.9232 19.1958 61.9253C20.1422 62.4713 21.0091 63.2347 21.7568 64.1806C21.7568 64.1806 21.7781 64.1806 21.7903 64.2008C21.8907 65.3589 21.9941 66.5169 22.0944 67.6749C20.7164 65.4582 18.9279 63.7583 16.9054 62.7432C16.8978 62.7414 16.89 62.7432 16.8833 62.7481C16.8766 62.7531 16.8713 62.761 16.8685 62.7705C16.8656 62.78 16.8653 62.7906 16.8676 62.8003C16.8699 62.8101 16.8747 62.8185 16.8811 62.8242C18.8782 63.9974 20.6332 65.7947 21.9971 68.0636C22.011 68.0901 22.0309 68.11 22.0539 68.1202C22.0769 68.1304 22.1018 68.1304 22.1249 68.1203C22.2587 69.8991 22.3753 71.6807 22.4746 73.4649C22.4746 73.4892 22.5051 73.4933 22.5051 73.4649C22.4016 71.6483 22.2942 69.8276 22.1826 68.0028Z" fill="white"/>
<path d="M17.2673 40.3361C16.2058 39.3684 14.8583 38.9513 13.59 38.8137C13.5595 38.8137 13.5595 38.8703 13.59 38.8744C14.907 39.1335 16.0233 39.7692 17.2247 40.4535C17.2673 40.4859 17.3129 40.3806 17.2673 40.3361Z" fill="white"/>
<path d="M18.0094 62.229C17.1582 61.5799 16.2219 61.1525 15.2506 60.9697C15.2172 60.9697 15.2141 61.0345 15.2506 61.0386C16.2031 61.2926 17.1245 61.7219 17.9881 62.314C17.9953 62.3133 18.0021 62.3098 18.0078 62.3039C18.0135 62.298 18.0177 62.29 18.02 62.2809C18.0223 62.2718 18.0225 62.2621 18.0206 62.2528C18.0187 62.2436 18.0148 62.2353 18.0094 62.229Z" fill="white"/>
<path d="M39.4015 47.7943C36.8137 50.177 34.4372 52.9426 32.3175 56.0381C30.1328 59.3126 28.446 63.1201 27.3505 67.2497C25.0281 75.8576 23.7797 84.9134 23.6549 94.0581C23.5765 99.1251 23.9429 104.187 24.7469 109.141C24.7521 109.178 24.7682 109.21 24.7916 109.232C24.815 109.253 24.8437 109.261 24.8716 109.254C24.8994 109.247 24.924 109.226 24.94 109.194C24.9559 109.163 24.962 109.125 24.9567 109.088C23.9583 100.347 23.9963 91.4507 25.0693 82.725C26.1217 74.1735 27.7703 64.8689 31.8552 57.9168C34.0786 54.131 36.8526 51.155 39.5931 48.0778C39.733 47.9239 39.5505 47.6567 39.4015 47.7943Z" fill="#EBEBEB"/>
<path d="M24.5671 87.9077C26.0431 84.7362 27.7772 81.791 29.7379 79.1254C32.8009 75.0521 35.3771 72.1571 35.7756 69.4605C36.174 66.7639 32.7096 64.7839 32.7096 64.7839C32.7096 64.7839 36.9466 65.7962 38.1055 63.4275C39.2643 61.0588 39.824 47.357 39.824 47.357C39.824 47.357 32.1165 54.6776 28.5274 64.9459C24.9382 75.2141 24.5671 87.9077 24.5671 87.9077Z" fill="#EBEBEB"/>
<path d="M37.1323 50.8675C33.8899 55.1068 30.6263 59.6255 28.7161 65.1969C28.064 67.1206 27.4963 69.0931 27.0158 71.1044C27.0158 71.1044 27.0158 71.1044 27.0158 71.1044C26.9185 71.5093 26.8181 71.9142 26.7117 72.3191C26.7035 72.3391 26.6983 72.3611 26.6965 72.3839C25.7911 76.5482 25.0609 80.7765 24.5095 85.0491C24.5095 85.0734 24.5339 85.0896 24.5399 85.0491C24.8715 82.9112 25.2365 80.7491 25.6471 78.5991C25.6622 78.6029 25.6776 78.6029 25.6927 78.5991C26.3358 78.231 27.0184 78.0001 27.7154 77.9148C27.761 77.9148 27.758 77.8014 27.7154 77.8055C27.0349 77.8468 26.3617 78.0102 25.714 78.2913C26.0881 76.3478 26.4927 74.4124 26.9489 72.5053C28.4435 72.0183 29.9731 71.7468 31.5114 71.6955V71.6591C30.0079 71.5787 28.5029 71.7583 27.0341 72.1936C27.1132 71.8656 27.1953 71.5417 27.2774 71.2137C28.2789 70.8969 29.295 70.6683 30.3191 70.5294C30.3373 70.5294 30.3373 70.4849 30.3191 70.4849C29.3168 70.5112 28.3191 70.6727 27.3413 70.9667C27.758 69.3147 28.2112 67.687 28.7161 66.1079C29.1317 64.8089 29.6176 63.5517 30.17 62.3464C30.9816 62.0792 31.8057 61.8844 32.6368 61.7633C32.6611 61.7633 32.6581 61.7107 32.6368 61.7067C31.8608 61.6291 31.0807 61.7318 30.3312 62.0103C30.7358 61.1398 31.1616 60.2855 31.6178 59.4595C33.3455 58.9493 35.0975 58.4756 36.8677 58.9169C36.8981 58.9169 36.9072 58.8562 36.8677 58.8481C35.1857 58.2569 33.5219 58.597 31.8399 59.0384C32.0224 58.7145 32.211 58.3946 32.3995 58.0788C33.4456 57.65 34.5323 57.4223 35.6267 57.4026C35.6316 57.4026 35.6362 57.4 35.6396 57.3955C35.643 57.3909 35.645 57.3847 35.645 57.3783C35.645 57.3718 35.643 57.3657 35.6396 57.3611C35.6362 57.3566 35.6316 57.354 35.6267 57.354C34.6161 57.2308 33.597 57.3515 32.6185 57.7103C34.0451 55.3497 35.6237 53.1309 37.181 50.9323C37.2662 50.827 37.2084 50.7703 37.1323 50.8675Z" fill="white"/>
<path d="M37.038 60.2126C36.5344 60.1167 36.0246 60.0923 35.5171 60.1397C35.4563 60.1397 35.4594 60.2855 35.5171 60.2855C36.0251 60.2855 36.53 60.2571 37.038 60.2855C37.0431 60.2821 37.0474 60.277 37.0505 60.2705C37.0535 60.2641 37.0551 60.2566 37.0551 60.249C37.0551 60.2414 37.0535 60.234 37.0505 60.2275C37.0474 60.2211 37.0431 60.2159 37.038 60.2126Z" fill="white"/>
<path d="M31.4991 73.5095C30.6854 73.5341 29.8813 73.7493 29.1236 74.1452C29.1053 74.1452 29.1236 74.1937 29.1236 74.1897C29.9083 73.9387 30.7022 73.8374 31.493 73.6633C31.5006 73.6639 31.5082 73.6624 31.5154 73.659C31.5225 73.6557 31.5291 73.6504 31.5348 73.6437C31.5404 73.6369 31.545 73.6287 31.5483 73.6196C31.5516 73.6104 31.5535 73.6005 31.5539 73.5904C31.5543 73.5803 31.5532 73.5702 31.5506 73.5607C31.5481 73.5512 31.5442 73.5424 31.5391 73.5349C31.534 73.5273 31.5279 73.5212 31.521 73.5169C31.5141 73.5125 31.5067 73.51 31.4991 73.5095V73.5095Z" fill="white"/>
<path d="M29.8385 68.9139C29.4997 68.9119 29.1616 68.9526 28.8287 69.0353C28.7952 69.0353 28.7982 69.1163 28.8287 69.1163C29.1659 69.1408 29.5042 69.1204 29.8385 69.0556C29.8993 69.0394 29.8963 68.9179 29.8385 68.9139Z" fill="white"/>
<path d="M1.96196 62.3424C4.4695 63.4738 6.87255 64.9802 9.12502 66.8327C11.4621 68.8098 13.4879 71.3732 15.0897 74.38C18.4669 80.6313 21.0521 87.5769 22.7424 94.9408C23.685 99.0208 24.2668 103.233 24.4762 107.493C24.4723 107.521 24.4612 107.546 24.4448 107.564C24.4284 107.582 24.4078 107.592 24.3864 107.592C24.3651 107.592 24.3445 107.582 24.3281 107.564C24.3117 107.546 24.3006 107.521 24.2967 107.493C23.5873 100.111 22.0129 92.9233 19.6308 86.1909C17.2949 79.5951 14.3414 72.5742 9.83068 68.2053C7.37304 65.8245 4.61123 64.2697 1.85854 62.6217C1.71559 62.5448 1.819 62.2735 1.96196 62.3424Z" fill="#EBEBEB"/>
<path d="M20.9446 90.2359C19.2011 88.1227 17.2886 86.2706 15.2415 84.713C12.0569 82.3606 9.46237 80.8098 8.67763 78.7529C7.89289 76.696 10.3444 74.0237 10.3444 74.0237C10.3444 74.0237 7.09293 76.1454 5.74549 74.5865C4.39804 73.0276 1.56323 62.1075 1.56323 62.1075C1.56323 62.1075 9.07 65.6625 13.7602 72.8697C18.4504 80.0769 20.9446 90.2359 20.9446 90.2359Z" fill="#EBEBEB"/>
<path d="M20.5524 87.9846C16.7959 78.5991 11.7925 70.1124 4.92139 64.5005C6.71431 66.0439 8.39548 67.8061 9.94313 69.7642C8.54621 69.6626 7.15389 70.0537 5.90688 70.8979C5.90299 70.9024 5.90028 70.9084 5.89913 70.9151C5.89798 70.9218 5.89846 70.9288 5.90049 70.9351C5.90251 70.9414 5.90599 70.9467 5.91042 70.9502C5.91485 70.9537 5.92 70.9552 5.92513 70.9546C7.25239 70.2919 8.66286 69.9744 10.08 70.0192C10.0969 70.0188 10.1131 70.0101 10.1256 69.995C10.372 70.3027 10.6123 70.6145 10.8495 70.9303C10.1239 70.9755 9.40245 71.1028 8.69302 71.3109C8.68899 71.3109 8.68512 71.313 8.68227 71.3168C8.67941 71.3206 8.67781 71.3257 8.67781 71.3311C8.67781 71.3365 8.67941 71.3416 8.68227 71.3454C8.68512 71.3492 8.68899 71.3514 8.69302 71.3514C9.444 71.1645 10.2074 71.0804 10.9712 71.1003C12.2315 72.7906 13.4196 74.5736 14.5299 76.441C14.021 76.3446 13.5024 76.3943 13.0091 76.5867C13.003 76.5894 12.9977 76.5945 12.994 76.6014C12.9902 76.6083 12.9882 76.6167 12.9882 76.6252C12.9882 76.6337 12.9902 76.642 12.994 76.6489C12.9977 76.6558 13.003 76.661 13.0091 76.6636C13.5433 76.5814 14.0825 76.5719 14.6181 76.6353C14.825 76.9835 15.0318 77.3277 15.2265 77.6799C13.6918 77.5571 12.1521 77.7566 10.664 78.2711C10.6427 78.2711 10.6488 78.3237 10.664 78.3197C12.2049 77.9181 13.7781 77.782 15.3451 77.9148C15.5367 78.2509 15.7192 78.5991 15.9047 78.9432C14.9906 78.9078 14.0772 79.0441 13.1916 79.3481C13.1875 79.3462 13.1831 79.3456 13.1787 79.3465C13.1744 79.3473 13.1703 79.3495 13.1667 79.3528C13.1632 79.3562 13.1603 79.3607 13.1583 79.3658C13.1563 79.371 13.1552 79.3767 13.1552 79.3825C13.1552 79.3884 13.1563 79.3941 13.1583 79.3993C13.1603 79.4044 13.1632 79.4089 13.1667 79.4122C13.1703 79.4156 13.1744 79.4178 13.1787 79.4186C13.1831 79.4194 13.1875 79.4189 13.1916 79.417C14.1132 79.1512 15.0578 79.0545 15.999 79.1295C16.8081 80.6074 17.5807 82.1217 18.3259 83.6563C17.9284 83.5606 17.5194 83.5939 17.1336 83.7534C17.1295 83.7534 17.1257 83.7556 17.1228 83.7594C17.12 83.7632 17.1184 83.7683 17.1184 83.7737C17.1184 83.779 17.12 83.7842 17.1228 83.788C17.1257 83.7918 17.1295 83.7939 17.1336 83.7939C17.5643 83.7499 17.9975 83.7771 18.4232 83.8749C19.0924 85.2624 19.7372 86.6606 20.3577 88.0697C20.4581 88.1952 20.6132 88.1061 20.5524 87.9846Z" fill="white"/>
<path d="M14.7125 80.1984C13.9742 80.134 13.2334 80.2548 12.5286 80.5547C12.5104 80.5547 12.5286 80.6033 12.5286 80.5993C13.2469 80.4381 13.9724 80.3394 14.7003 80.3037C14.7521 80.2915 14.7612 80.2065 14.7125 80.1984Z" fill="white"/>
<path d="M8.16065 68.7641C7.82486 68.7302 7.48716 68.7574 7.15691 68.845C7.15082 68.8477 7.14552 68.8529 7.14176 68.8598C7.13801 68.8667 7.13599 68.875 7.13599 68.8835C7.13599 68.892 7.13801 68.9003 7.14176 68.9073C7.14552 68.9142 7.15082 68.9193 7.15691 68.922C7.48845 68.8774 7.8139 68.8936 8.14544 68.8774C8.15673 68.8801 8.16836 68.8767 8.17778 68.868C8.18719 68.8593 8.19361 68.8459 8.19563 68.8309C8.19764 68.8158 8.19509 68.8004 8.18853 68.7878C8.18197 68.7753 8.17194 68.7668 8.16065 68.7641V68.7641Z" fill="white"/>
<path d="M30.6295 121.263H13.6785L16.0966 97.6982L16.714 91.6571H27.594L28.2114 97.6982L30.6295 121.263Z" fill="#DBDBDB"/>
<path d="M28.2113 97.6982H16.0964L16.7139 91.6571H27.5938L28.2113 97.6982Z" fill="#C7C7C7"/>
<path d="M29.1478 89.5597H15.1562V94.6776H29.1478V89.5597Z" fill="#DBDBDB"/>
<path d="M159.588 13.7464C158.783 16.4729 158.31 19.3528 158.186 22.2776H152.583H152.513V22.0711L152.559 21.4921C152.627 20.4871 152.749 19.4898 152.924 18.508C153.218 16.9013 153.641 15.3415 154.186 13.8557C154.196 13.8195 154.215 13.7889 154.24 13.7691C154.265 13.7492 154.294 13.7412 154.323 13.7464H159.579H159.588Z" fill="#EBEBEB"/>
<path d="M159.418 32.7968H154.205C154.177 32.8006 154.15 32.7918 154.126 32.772C154.103 32.7521 154.086 32.7223 154.077 32.6875C153.475 31.0157 153.04 29.2461 152.784 27.4238C152.655 26.547 152.57 25.6596 152.529 24.7677C152.529 24.7394 152.529 24.707 152.513 24.6786V24.4681H152.599H158.095C158.195 24.4681 158.192 24.4681 158.198 24.6057C158.235 25.209 158.265 25.8204 158.308 26.4237C158.38 27.3853 158.497 28.3399 158.658 29.2823C158.846 30.4357 159.093 31.5706 159.397 32.6794C159.4 32.7199 159.406 32.7564 159.418 32.7968Z" fill="#EBEBEB"/>
<path d="M181.342 34.9995C181.342 35.04 181.312 35.0724 181.3 35.1007C180.857 36 180.363 36.8528 179.822 37.6516C179.169 38.6326 178.444 39.5226 177.656 40.3077C176.883 41.0837 176.057 41.7615 175.189 42.3322C174.353 42.8879 173.481 43.3405 172.582 43.6846C171.87 43.9547 171.144 44.1603 170.411 44.3L170.198 44.3486H170.073L169.958 44.2555L170.097 44.1259C171.69 42.6851 173.084 40.8877 174.216 38.8137C174.856 37.6445 175.419 36.4035 175.898 35.1048C175.906 35.0695 175.924 35.0393 175.947 35.0193C175.97 34.9994 175.998 34.9909 176.026 34.9955H181.358L181.342 34.9995Z" fill="#EBEBEB"/>
<path d="M176.129 22.2695H168.804V13.7666H168.89H174.52C174.544 13.7625 174.57 13.7706 174.59 13.7892C174.611 13.8078 174.626 13.8357 174.632 13.8678C175.159 15.4688 175.55 17.1434 175.797 18.8602C175.929 19.7527 176.024 20.6543 176.08 21.5609C176.098 21.7795 176.113 22.0184 176.129 22.2695Z" fill="#EBEBEB"/>
<path d="M176.083 24.545C176.083 24.7434 176.083 24.9499 176.062 25.1443C176.032 25.618 176.004 26.0958 175.956 26.5655C175.886 27.2173 175.813 27.8733 175.712 28.5211C175.495 29.9426 175.178 31.3336 174.763 32.6754C174.757 32.7147 174.739 32.7494 174.715 32.7726C174.69 32.7958 174.66 32.8059 174.63 32.8009H168.762V24.545H176.083Z" fill="#EBEBEB"/>
<path d="M167.153 13.803V22.3343H160.002C160.002 22.1156 160.017 21.9051 160.035 21.6945C160.072 21.2167 160.099 20.739 160.157 20.2652C160.245 19.5445 160.337 18.8197 160.461 18.1031C160.697 16.6561 161.04 15.2441 161.486 13.8881C161.494 13.8547 161.511 13.826 161.533 13.8068C161.555 13.7877 161.582 13.7792 161.608 13.7828H167.153V13.803Z" fill="#EBEBEB"/>
<path d="M167.162 24.6584C167.162 27.3307 167.162 30.0044 167.162 32.6794V32.7969H161.441C161.413 32.802 161.384 32.7934 161.361 32.7725C161.337 32.7516 161.32 32.7199 161.313 32.6835C160.879 31.2997 160.553 29.8601 160.34 28.3875C160.233 27.6303 160.151 26.8651 160.081 26.0998C160.033 25.6018 160.02 25.0957 159.996 24.5895C159.995 24.572 159.995 24.5544 159.996 24.5369H167.062C167.144 24.5329 167.162 24.5612 167.162 24.6584Z" fill="#EBEBEB"/>
<path d="M183.894 22.3302H177.893C177.772 19.3882 177.3 16.4907 176.494 13.7463H182.088C182.115 13.7414 182.143 13.7491 182.167 13.7682C182.191 13.7874 182.209 13.8168 182.219 13.8516C182.859 15.5403 183.325 17.3369 183.602 19.1922C183.752 20.1798 183.854 21.1793 183.907 22.1844L183.894 22.3302Z" fill="#EBEBEB"/>
<path d="M183.897 24.4802C183.897 24.6746 183.897 24.8568 183.879 25.039C183.841 25.7596 183.775 26.4772 183.681 27.189C183.459 28.8415 183.088 30.4524 182.577 31.9871C182.498 32.234 182.407 32.477 182.325 32.724C182.319 32.7485 182.307 32.7697 182.291 32.7838C182.275 32.7978 182.256 32.8039 182.237 32.8009H176.649C176.716 32.5458 176.783 32.2988 176.847 32.0478C177.17 30.7786 177.419 29.4776 177.589 28.1567C177.718 27.1993 177.804 26.2326 177.848 25.2617C177.848 25.0309 177.869 24.8001 177.875 24.5733C177.875 24.5126 177.875 24.4802 177.939 24.4883C177.957 24.4903 177.975 24.4903 177.994 24.4883L183.897 24.4802Z" fill="#EBEBEB"/>
<path d="M181.178 11.572V11.6085H181.099C179.35 11.6085 177.601 11.6085 175.852 11.6085C175.825 11.6128 175.798 11.6052 175.775 11.5869C175.752 11.5685 175.734 11.5405 175.724 11.5072C175.027 9.65165 174.152 7.92447 173.121 6.36907C172.512 5.47184 171.843 4.65053 171.122 3.91538C170.763 3.55097 170.392 3.20681 170.027 2.85454L169.967 2.79381L170.04 2.72498C170.04 2.68449 170.018 2.6359 170.003 2.57516C171.854 2.85168 173.652 3.57042 175.311 4.69684C177.681 6.27268 179.703 8.64192 181.178 11.572V11.572Z" fill="#EBEBEB"/>
<path d="M166.137 44.2555C166.088 44.276 166.037 44.2869 165.985 44.2879C165.409 44.1877 164.838 44.0403 164.276 43.8466C163.225 43.4891 162.206 42.9856 161.234 42.3444C160.122 41.6071 159.079 40.6965 158.129 39.6316C157.453 38.8783 156.829 38.0463 156.264 37.1455C155.842 36.4638 155.453 35.7471 155.099 34.9995C155.089 34.9782 155.08 34.955 155.075 34.9307H155.16C156.79 34.9307 158.417 34.9307 160.048 34.9307C160.074 34.9278 160.1 34.9366 160.122 34.9557C160.144 34.9747 160.161 35.0029 160.169 35.0359C160.679 36.404 161.281 37.7077 161.967 38.9311C162.602 40.0432 163.306 41.082 164.072 42.0367C164.702 42.8305 165.379 43.5549 166.098 44.2029L166.137 44.2555Z" fill="#EBEBEB"/>
<path d="M166.073 2.78168C165.848 3.00032 165.587 3.24731 165.331 3.50645C164.478 4.39063 163.685 5.37292 162.962 6.44196C161.982 7.86312 161.147 9.44897 160.477 11.159C160.434 11.2684 160.398 11.3817 160.349 11.483C160.34 11.5003 160.329 11.5151 160.316 11.5263C160.303 11.5374 160.288 11.5448 160.273 11.5477C160.185 11.5477 160.096 11.5477 160.008 11.5477H155.233C157.894 6.54724 161.468 3.53884 166.019 2.63996C166.019 2.6683 165.997 2.69665 165.985 2.72094L166.073 2.78168Z" fill="#EBEBEB"/>
<path d="M173.942 35.0035C173.264 36.5792 172.447 38.0418 171.509 39.3603C170.685 40.5422 169.757 41.5889 168.747 42.478V35.0035H173.942Z" fill="#EBEBEB"/>
<path d="M167.153 35.0076V42.3363C165.085 40.4495 163.382 37.9382 162.183 35.0076H167.153Z" fill="#EBEBEB"/>
<path d="M173.781 11.5437H168.804V4.57538C169.825 5.4613 170.763 6.50663 171.597 7.68905C172.422 8.87101 173.154 10.1627 173.781 11.5437V11.5437Z" fill="#EBEBEB"/>
<path d="M167.153 4.77378V11.6004H162.377C163.546 8.85836 165.181 6.52001 167.153 4.77378V4.77378Z" fill="#EBEBEB"/>
<path d="M72.3943 39.8016H30.593V3.56313H72.3943V39.8016ZM30.8972 39.3967H72.0901V3.96802H30.8972V39.3967Z" fill="#EBEBEB"/>
<path d="M72.3943 8.72964H30.593V3.56313H72.3943V8.72964ZM30.8972 8.32474H72.0901V3.96802H30.8972V8.32474Z" fill="#EBEBEB"/>
<path d="M34.1026 6.19498C34.1026 6.43522 34.0491 6.67007 33.9488 6.86983C33.8485 7.06958 33.706 7.22527 33.5393 7.31721C33.3725 7.40915 33.1891 7.4332 33.0121 7.38633C32.8351 7.33946 32.6725 7.22378 32.5449 7.0539C32.4172 6.88402 32.3303 6.66758 32.2951 6.43195C32.2599 6.19632 32.278 5.95209 32.347 5.73013C32.4161 5.50817 32.5331 5.31846 32.6831 5.18499C32.8332 5.05152 33.0096 4.98028 33.1901 4.98028C33.4321 4.98028 33.6642 5.10826 33.8353 5.33606C34.0064 5.56386 34.1026 5.87282 34.1026 6.19498Z" fill="#C7C7C7"/>
<path d="M37.774 6.19498C37.7739 6.43608 37.72 6.67171 37.6191 6.87188C37.5181 7.07205 37.3747 7.22771 37.2071 7.31902C37.0394 7.41033 36.8552 7.43317 36.6778 7.38464C36.5004 7.33611 36.3378 7.21839 36.2108 7.04648C36.0839 6.87457 35.9982 6.65624 35.9647 6.4193C35.9312 6.18235 35.9515 5.9375 36.0229 5.71593C36.0943 5.49436 36.2136 5.30608 36.3656 5.17508C36.5177 5.04407 36.6956 4.97626 36.8767 4.98028C36.9958 4.98026 37.1137 5.01181 37.2236 5.0731C37.3335 5.13439 37.4331 5.22418 37.5166 5.33725C37.6001 5.45032 37.6659 5.5844 37.7101 5.73166C37.7543 5.87892 37.776 6.03642 37.774 6.19498Z" fill="#EBEBEB"/>
<path d="M41.4485 6.19498C41.4485 6.43522 41.395 6.67007 41.2947 6.86983C41.1945 7.06958 41.052 7.22527 40.8852 7.31721C40.7185 7.40915 40.535 7.4332 40.358 7.38633C40.181 7.33946 40.0184 7.22378 39.8908 7.0539C39.7632 6.88402 39.6763 6.66758 39.6411 6.43195C39.6059 6.19632 39.6239 5.95209 39.693 5.73013C39.7621 5.50817 39.879 5.31846 40.0291 5.18499C40.1791 5.05152 40.3556 4.98028 40.536 4.98028C40.778 4.98028 41.0101 5.10826 41.1813 5.33606C41.3524 5.56386 41.4485 5.87282 41.4485 6.19498Z" fill="#FF725E"/>
<path d="M100 160C155.228 160 200 152.51 200 143.27C200 134.03 155.228 126.539 100 126.539C44.7715 126.539 0 134.03 0 143.27C0 152.51 44.7715 160 100 160Z" fill="#EBEBEB"/>
<path d="M1.36572 121.263L26.0243 121.166L50.6829 121.13L100 121.061L149.317 121.13L173.976 121.166L198.634 121.263L173.976 121.365L149.317 121.397L100 121.466L50.6829 121.397L26.0243 121.36L1.36572 121.263Z" fill="#263238"/>
<path d="M158.923 21.7593H40.8494V126.899H158.923V21.7593Z" fill="#DBDBDB"/>
<path d="M158.065 23.0428H41.7068V125.616H158.065V23.0428Z" fill="#263238"/>
<path d="M174.301 134.783H25.4707V141.998H174.301V134.783Z" fill="#C7C7C7"/>
<path d="M25.4707 134.783L40.8492 126.899H158.923L174.301 134.783H25.4707Z" fill="#DBDBDB"/>
<path d="M42.2241 131.989L52.149 126.899H147.626L157.551 131.989H42.2241Z" fill="#263238"/>
<path d="M151.489 30.8371H48.283V117.826H151.489V30.8371Z" fill="white"/>
<path d="M151.492 30.8371H48.1978V34.1857H151.492V30.8371Z" fill="#455A64"/>
<path d="M50.196 32.5134C50.196 32.6784 50.159 32.8397 50.0898 32.9766C50.0206 33.1135 49.9223 33.2199 49.8075 33.282C49.6927 33.3442 49.5665 33.3594 49.4452 33.3257C49.3238 33.292 49.2128 33.2109 49.1262 33.0928C49.0396 32.9747 48.9815 32.8249 48.9592 32.6626C48.9368 32.5003 48.9514 32.3328 49.0009 32.1815C49.0505 32.0302 49.1327 31.902 49.2373 31.8133C49.3418 31.7246 49.4638 31.6794 49.5877 31.6834C49.7504 31.6887 49.9052 31.7784 50.0188 31.9335C50.1325 32.0886 50.1961 32.2967 50.196 32.5134Z" fill="#C7C7C7"/>
<path d="M52.7419 32.5134C52.7419 32.6784 52.7049 32.8397 52.6357 32.9766C52.5665 33.1135 52.4682 33.2199 52.3534 33.282C52.2386 33.3442 52.1124 33.3594 51.9911 33.3257C51.8697 33.292 51.7587 33.2109 51.6721 33.0928C51.5855 32.9747 51.5274 32.8249 51.5051 32.6626C51.4827 32.5003 51.4973 32.3328 51.5468 32.1815C51.5964 32.0302 51.6786 31.902 51.7832 31.8133C51.8877 31.7246 52.0097 31.6794 52.1336 31.6834C52.2963 31.6887 52.4511 31.7784 52.5647 31.9335C52.6784 32.0886 52.742 32.2967 52.7419 32.5134V32.5134Z" fill="white"/>
<path d="M55.2881 32.5134C55.2881 32.6776 55.2515 32.8381 55.183 32.9746C55.1145 33.1111 55.0171 33.2175 54.9032 33.2803C54.7892 33.3431 54.6639 33.3595 54.5429 33.3275C54.422 33.2955 54.3108 33.2164 54.2236 33.1004C54.1364 32.9843 54.0771 32.8364 54.053 32.6754C54.0289 32.5143 54.0413 32.3475 54.0885 32.1958C54.1357 32.0441 54.2156 31.9145 54.3181 31.8233C54.4207 31.7321 54.5412 31.6834 54.6646 31.6834C54.8299 31.6834 54.9885 31.7708 55.1055 31.9265C55.2224 32.0822 55.2881 32.2933 55.2881 32.5134Z" fill="#FF725E"/>
<path d="M53.2411 78.6355H93.3755V41.2188L53.2411 41.2188V78.6355Z" fill="#EBEBEB"/>
<path d="M57.9309 51.8555C57.9309 52.7308 58.1259 53.5864 58.4912 54.3142C58.8565 55.0419 59.3757 55.6092 59.9832 55.9441C60.5907 56.2791 61.2591 56.3667 61.904 56.196C62.5489 56.0252 63.1413 55.6037 63.6062 54.9848C64.0711 54.3659 64.3878 53.5773 64.5161 52.7188C64.6443 51.8604 64.5785 50.9705 64.3269 50.1619C64.0752 49.3532 63.6491 48.662 63.1024 48.1757C62.5557 47.6895 61.9129 47.4299 61.2554 47.4299C60.3737 47.4299 59.5281 47.8962 58.9046 48.7261C58.2812 49.5561 57.9309 50.6817 57.9309 51.8555V51.8555Z" fill="#DBDBDB"/>
<path d="M71.0557 70.574H93.3783L82.2154 50.4383L71.0557 70.574Z" fill="#C7C7C7"/>
<path d="M62.314 70.5942H80.7402L71.5271 57.4795L62.314 70.5942Z" fill="#DBDBDB"/>
<path d="M93.3752 70.574H53.2407V78.6355H93.3752V70.574Z" fill="#DBDBDB"/>
<path d="M99.0842 110.659H121.51V83.6482H99.0842V110.659Z" fill="#EBEBEB"/>
<path d="M101.983 89.5516C101.882 90.2247 101.946 90.9233 102.167 91.544C102.387 92.1647 102.751 92.6746 103.206 92.9984C103.661 93.3222 104.181 93.4428 104.692 93.3422C105.202 93.2416 105.674 92.9252 106.039 92.4398C106.403 91.9544 106.641 91.3258 106.716 90.6467C106.792 89.9677 106.701 89.2743 106.458 88.6691C106.215 88.0638 105.832 87.5788 105.366 87.2856C104.899 86.9925 104.375 86.9068 103.869 87.0412C103.403 87.165 102.976 87.4694 102.64 87.9162C102.305 88.3629 102.076 88.932 101.983 89.5516V89.5516Z" fill="#DBDBDB"/>
<path d="M105.399 104.837H121.514L113.456 90.3007L105.399 104.837Z" fill="#C7C7C7"/>
<path d="M99.0874 104.849H112.392L105.739 95.3821L99.0874 104.849Z" fill="#DBDBDB"/>
<path d="M121.513 104.837H99.0874V110.655H121.513V104.837Z" fill="#DBDBDB"/>
<path d="M135.061 41.2228H99.0874V43.6401H135.061V41.2228Z" fill="#A6A6A6"/>
<path d="M142.884 46.2233H99.0874V48.6406H142.884V46.2233Z" fill="#DBDBDB"/>
<path d="M142.884 51.2238H99.0874V53.6411H142.884V51.2238Z" fill="#DBDBDB"/>
<path d="M142.884 56.2284H99.0874V58.6456H142.884V56.2284Z" fill="#DBDBDB"/>
<path d="M142.884 61.2289H99.0874V63.6461H142.884V61.2289Z" fill="#DBDBDB"/>
<path d="M128.162 66.2294H99.0874V68.6466H128.162V66.2294Z" fill="#DBDBDB"/>
<path d="M139.423 83.6441H123.512V86.0249H139.423V83.6441Z" fill="#A6A6A6"/>
<path d="M142.881 88.5717H123.512V90.9525H142.881V88.5717Z" fill="#DBDBDB"/>
<path d="M142.881 93.4994H123.512V95.8802H142.881V93.4994Z" fill="#DBDBDB"/>
<path d="M142.881 98.4229H123.512V100.804H142.881V98.4229Z" fill="#DBDBDB"/>
<path d="M142.881 103.351H123.512V105.731H142.881V103.351Z" fill="#DBDBDB"/>
<path d="M136.658 108.278H123.512V110.659H136.658V108.278Z" fill="#DBDBDB"/>
<path d="M142.884 71.5336H99.0874V78.6355H142.884V71.5336Z" fill="#FF725E"/>
<path d="M93.3752 83.6441H53.2407V90.746H93.3752V83.6441Z" fill="#A6A6A6"/>
<path d="M93.3752 93.3333H53.2407V95.7344H93.3752V93.3333Z" fill="#DBDBDB"/>
<path d="M93.3752 98.3055H53.2407V100.707H93.3752V98.3055Z" fill="#DBDBDB"/>
<path d="M93.3752 103.282H53.2407V105.683H93.3752V103.282Z" fill="#DBDBDB"/>
<path d="M80.7402 108.254H53.2407V110.655H80.7402V108.254Z" fill="#DBDBDB"/>
<path d="M151.489 34.1816H148.73V117.822H151.489V34.1816Z" fill="#DBDBDB"/>
<path d="M150.108 77.9553C149.919 77.9553 149.738 77.8555 149.605 77.6778C149.471 77.5001 149.396 77.2591 149.396 77.0078V35.9591C149.396 35.7078 149.471 35.4669 149.605 35.2892C149.738 35.1115 149.919 35.0117 150.108 35.0117C150.297 35.0117 150.478 35.1115 150.611 35.2892C150.745 35.4669 150.82 35.7078 150.82 35.9591V77.0078C150.82 77.2591 150.745 77.5001 150.611 77.6778C150.478 77.8555 150.297 77.9553 150.108 77.9553Z" fill="#A6A6A6"/>
<path d="M87.8517 77.8621V137.212C87.8429 138.491 87.4538 139.712 86.7696 140.609C86.0854 141.506 85.1621 142.006 84.2018 141.998H14.1224C13.1621 142.006 12.2387 141.506 11.5545 140.609C10.8704 139.712 10.4812 138.491 10.4724 137.212V77.8621C10.4812 76.5842 10.8705 75.3631 11.5547 74.4667C12.239 73.5702 13.1624 73.0717 14.1224 73.0803H84.1835C84.6604 73.0728 85.1337 73.1907 85.5763 73.4271C86.019 73.6635 86.4222 74.0138 86.763 74.458C87.1037 74.9022 87.3753 75.4316 87.5621 76.0157C87.7489 76.5998 87.8474 77.2273 87.8517 77.8621V77.8621Z" fill="#455A64"/>
<path d="M82.5381 75.9753H15.9292V139.01H82.5381V75.9753Z" fill="white"/>
<path d="M19.8926 107.914H49.4421V80.3685H19.8926L19.8926 107.914Z" fill="#EBEBEB"/>
<path d="M23.3506 88.2033C23.3536 88.843 23.4989 89.4673 23.7681 89.9973C24.0373 90.5273 24.4184 90.9394 24.8632 91.1814C25.3081 91.4235 25.7969 91.4848 26.2679 91.3575C26.7389 91.2302 27.1711 90.9201 27.5099 90.4663C27.8486 90.0125 28.0789 89.4353 28.1716 88.8075C28.2642 88.1798 28.2152 87.5295 28.0305 86.9388C27.8459 86.3481 27.534 85.8434 27.1342 85.4884C26.7344 85.1333 26.2646 84.9438 25.7839 84.9438C25.4631 84.9438 25.1455 85.0283 24.8492 85.1923C24.553 85.3564 24.2841 85.5968 24.0579 85.8997C23.8318 86.2027 23.6529 86.5621 23.5315 86.9575C23.4101 87.3528 23.3486 87.7762 23.3506 88.2033V88.2033Z" fill="#DBDBDB"/>
<path d="M33.0081 101.982H49.442L41.2235 87.1586L33.0081 101.982Z" fill="#C7C7C7"/>
<path d="M26.5718 101.994H40.1375L33.3546 92.3413L26.5718 101.994Z" fill="#DBDBDB"/>
<path d="M49.4421 101.982H19.8926V107.918H49.4421V101.982Z" fill="#DBDBDB"/>
<path d="M58.8165 134.086H78.575V115.668H58.8165V134.086Z" fill="#EBEBEB"/>
<path d="M61.1248 120.907C61.1242 121.339 61.2198 121.761 61.3996 122.121C61.5794 122.48 61.8352 122.76 62.1347 122.926C62.4342 123.092 62.764 123.136 63.0822 123.052C63.4004 122.968 63.6928 122.761 63.9224 122.456C64.152 122.151 64.3084 121.762 64.3719 121.338C64.4354 120.915 64.4031 120.476 64.2791 120.077C64.1551 119.678 63.945 119.337 63.6753 119.097C63.4057 118.857 63.0886 118.729 62.7642 118.729C62.5491 118.728 62.3359 118.784 62.137 118.893C61.9382 119.003 61.7574 119.163 61.6051 119.365C61.4528 119.568 61.332 119.808 61.2496 120.072C61.1672 120.337 61.1248 120.621 61.1248 120.907V120.907Z" fill="#DBDBDB"/>
<path d="M67.5884 130.118H78.5748L73.0816 120.207L67.5884 130.118Z" fill="#C7C7C7"/>
<path d="M63.2844 130.131H72.3546L67.8195 123.672L63.2844 130.131Z" fill="#DBDBDB"/>
<path d="M78.5749 130.122H58.8164V134.09H78.5749V130.122Z" fill="#DBDBDB"/>
<path d="M78.5779 80.3725H51.991V87.102H78.5779V80.3725Z" fill="#FF725E"/>
<path d="M78.5779 89.6569H51.991V90.6003H78.5779V89.6569Z" fill="#DBDBDB"/>
<path d="M78.5779 91.8717H51.991V92.8151H78.5779V91.8717Z" fill="#DBDBDB"/>
<path d="M78.5779 94.0865H51.991V95.0299H78.5779V94.0865Z" fill="#DBDBDB"/>
<path d="M78.5779 96.3013H51.991V97.2447H78.5779V96.3013Z" fill="#DBDBDB"/>
<path d="M78.5779 98.5161H51.991V99.4595H78.5779V98.5161Z" fill="#DBDBDB"/>
<path d="M78.5779 100.731H51.991V101.674H78.5779V100.731Z" fill="#DBDBDB"/>
<path d="M67.2752 102.946H51.991V103.889H67.2752V102.946Z" fill="#DBDBDB"/>
<path d="M56.0059 128.96H29.4189V129.904H56.0059V128.96Z" fill="#DBDBDB"/>
<path d="M56.0059 115.672H29.4189V116.615H56.0059V115.672Z" fill="#DBDBDB"/>
<path d="M56.0059 117.886H29.4189V118.83H56.0059V117.886Z" fill="#DBDBDB"/>
<path d="M56.0059 120.101H29.4189V121.045H56.0059V120.101Z" fill="#DBDBDB"/>
<path d="M47.5502 122.316H29.4189V123.259H47.5502V122.316Z" fill="#DBDBDB"/>
<path d="M56.0059 126.746H29.4189V127.689H56.0059V126.746Z" fill="#DBDBDB"/>
<path d="M47.5502 131.175H29.4189V132.119H47.5502V131.175Z" fill="#DBDBDB"/>
<path d="M78.578 110.991H19.8926V113.218H78.578V110.991Z" fill="#455A64"/>
<path d="M27.4906 115.672H19.8926V134.091H27.4906V115.672Z" fill="#FF725E"/>
<path d="M13.6783 100.034H13.6326C13.4227 100.034 13.2524 100.261 13.2524 100.541V114.53C13.2524 114.809 13.4227 115.036 13.6326 115.036H13.6783C13.8883 115.036 14.0585 114.809 14.0585 114.53V100.541C14.0585 100.261 13.8883 100.034 13.6783 100.034Z" fill="#37474F"/>
<path d="M86.9212 107.533C86.9218 107.918 86.8366 108.294 86.6764 108.614C86.5162 108.935 86.2882 109.184 86.0213 109.332C85.7544 109.48 85.4606 109.518 85.1771 109.444C84.8936 109.369 84.6332 109.184 84.4288 108.911C84.2245 108.639 84.0854 108.293 84.0291 107.915C83.9729 107.538 84.0021 107.147 84.1129 106.792C84.2238 106.436 84.4114 106.133 84.652 105.92C84.8925 105.706 85.1752 105.593 85.4642 105.594C85.8504 105.595 86.2205 105.799 86.4936 106.163C86.7666 106.526 86.9204 107.019 86.9212 107.533V107.533Z" fill="#37474F"/>
<path d="M184.895 60.3705H157.791C157.058 60.3812 156.358 60.7785 155.845 61.4754C155.332 62.1722 155.047 63.1116 155.054 64.0875V138.346C155.048 139.322 155.333 140.26 155.846 140.957C156.359 141.654 157.059 142.051 157.791 142.063H184.889C185.622 142.051 186.322 141.654 186.835 140.957C187.348 140.26 187.632 139.322 187.627 138.346V64.0956C187.635 63.1197 187.352 62.1794 186.84 61.4811C186.328 60.7827 185.628 60.3833 184.895 60.3705V60.3705ZM185.926 136.05C185.926 138.006 184.825 139.585 183.469 139.585H159.227C157.867 139.585 156.769 138.006 156.769 136.05V66.9015C156.769 62.9213 157.867 62.727 159.227 62.727H164.094C164.376 62.727 164.608 63.1319 164.608 63.6826V63.9093C164.608 65.1523 165.119 65.1564 165.745 65.1564H176.954C177.583 65.1564 178.088 65.1564 178.088 63.9093V63.6907C178.088 63.1602 178.316 62.7351 178.605 62.7351H183.472C184.828 62.7351 185.93 63.2655 185.93 66.9096L185.926 136.05Z" fill="#455A64"/>
<path d="M172.878 63.6056H169.815C169.765 63.6056 169.717 63.5792 169.681 63.5321C169.646 63.485 169.626 63.4212 169.626 63.3546V63.3546C169.626 63.288 169.646 63.2242 169.681 63.1771C169.717 63.13 169.765 63.1036 169.815 63.1036H172.878C172.928 63.1036 172.976 63.1299 173.012 63.1768C173.048 63.2238 173.069 63.2877 173.069 63.3546V63.3546C173.069 63.4216 173.048 63.4854 173.012 63.5324C172.976 63.5793 172.928 63.6056 172.878 63.6056V63.6056Z" fill="white"/>
<path d="M185.927 66.9015V136.05C185.927 138.006 184.826 139.585 183.469 139.585H159.227C157.868 139.585 156.77 138.006 156.77 136.05V66.9015C156.77 62.9214 157.868 62.727 159.227 62.727H164.094C164.377 62.727 164.608 63.1319 164.608 63.6826V63.9093C164.608 65.1524 165.119 65.1564 165.745 65.1564H176.954C177.583 65.1564 178.088 65.1564 178.088 63.9093V63.6907C178.088 63.1603 178.316 62.7351 178.605 62.7351H183.472C184.826 62.727 185.927 63.2574 185.927 66.9015Z" fill="white"/>
<path d="M185.927 66.9015V72.0599H156.766V66.9015C156.766 62.9214 157.867 62.727 159.227 62.727H164.094C164.373 62.727 164.605 63.1319 164.605 63.6826V63.9093C164.605 65.1524 165.116 65.1564 165.739 65.1564H176.954C177.583 65.1564 178.091 65.1564 178.091 63.9093V63.6907C178.091 63.1603 178.319 62.7351 178.605 62.7351H183.472C184.825 62.727 185.927 63.2574 185.927 66.9015Z" fill="#FF725E"/>
<path d="M159.531 69.5415L158.67 68.4685L159.531 67.3955L159.665 67.5817L158.956 68.4685L159.665 69.3552L159.531 69.5415Z" fill="white"/>
<path d="M183.296 69.6386H182.687V69.3593C182.687 69.3515 182.685 69.3439 182.682 69.3375C182.679 69.331 182.674 69.3259 182.669 69.3228L182.602 69.2702C182.597 69.2672 182.591 69.2656 182.585 69.2656C182.58 69.2656 182.574 69.2672 182.569 69.2702L182.383 69.4159L182.079 68.7155L182.264 68.5738C182.268 68.5674 182.27 68.5595 182.27 68.5515C182.27 68.5434 182.268 68.5356 182.264 68.5292V68.432C182.268 68.4257 182.27 68.4178 182.27 68.4098C182.27 68.4017 182.268 68.3939 182.264 68.3875L182.079 68.2458L182.383 67.5453L182.569 67.687C182.574 67.6909 182.579 67.693 182.585 67.693C182.591 67.693 182.597 67.6909 182.602 67.687L182.669 67.6344C182.674 67.6313 182.679 67.6262 182.682 67.6197C182.685 67.6133 182.687 67.6057 182.687 67.5979V67.3105H183.296V67.5979C183.296 67.6057 183.297 67.6133 183.301 67.6197C183.304 67.6262 183.308 67.6313 183.314 67.6344L183.381 67.687C183.386 67.6909 183.392 67.693 183.397 67.693C183.403 67.693 183.409 67.6909 183.414 67.687L183.6 67.5453L183.904 68.2458L183.718 68.3875C183.715 68.3939 183.713 68.4017 183.713 68.4098C183.713 68.4178 183.715 68.4257 183.718 68.432V68.5292C183.715 68.5356 183.713 68.5434 183.713 68.5515C183.713 68.5595 183.715 68.5674 183.718 68.5738L183.904 68.7155L183.6 69.4159L183.414 69.2742C183.409 69.2703 183.403 69.2683 183.397 69.2683C183.392 69.2683 183.386 69.2703 183.381 69.2742L183.314 69.3269C183.308 69.33 183.304 69.3351 183.301 69.3415C183.297 69.348 183.296 69.3555 183.296 69.3633V69.6386ZM182.839 69.4362H183.143V69.3593C183.144 69.3142 183.153 69.2701 183.171 69.2316C183.189 69.1931 183.214 69.1617 183.244 69.1406C183.262 69.1294 183.279 69.1159 183.296 69.1001C183.325 69.0774 183.359 69.0654 183.393 69.0654C183.427 69.0654 183.461 69.0774 183.49 69.1001L183.545 69.1447L183.697 68.7924L183.642 68.7479C183.613 68.7259 183.589 68.6934 183.573 68.654C183.556 68.6146 183.549 68.5699 183.551 68.5252V68.4442C183.549 68.3989 183.557 68.3538 183.573 68.3138C183.589 68.2738 183.613 68.2404 183.642 68.2174L183.697 68.177L183.545 67.8247L183.49 67.8692C183.461 67.892 183.428 67.904 183.394 67.904C183.361 67.904 183.328 67.892 183.299 67.8692L183.244 67.8287C183.214 67.8077 183.189 67.7762 183.171 67.7377C183.153 67.6993 183.144 67.6552 183.143 67.6101V67.5251H182.839V67.6101C182.839 67.6552 182.829 67.6993 182.812 67.7377C182.794 67.7762 182.769 67.8077 182.739 67.8287C182.721 67.8399 182.703 67.8535 182.687 67.8692C182.658 67.892 182.624 67.9039 182.59 67.9039C182.556 67.9039 182.522 67.892 182.493 67.8692L182.438 67.8247L182.286 68.177L182.34 68.2174C182.37 68.2404 182.394 68.2738 182.41 68.3138C182.426 68.3538 182.434 68.3989 182.432 68.4442V68.5252C182.434 68.5705 182.426 68.6156 182.41 68.6556C182.394 68.6956 182.37 68.7289 182.34 68.7519L182.286 68.7924L182.438 69.1447L182.493 69.1001C182.522 69.0774 182.556 69.0654 182.59 69.0654C182.624 69.0654 182.658 69.0774 182.687 69.1001C182.703 69.1159 182.721 69.1294 182.739 69.1406C182.769 69.1617 182.794 69.1931 182.812 69.2316C182.829 69.2701 182.839 69.3142 182.839 69.3593V69.4362ZM182.991 69.0677C182.902 69.0677 182.815 69.0326 182.741 68.9667C182.667 68.9009 182.61 68.8073 182.575 68.6978C182.541 68.5883 182.532 68.4678 182.55 68.3516C182.567 68.2353 182.61 68.1286 182.673 68.0447C182.736 67.9609 182.816 67.9039 182.904 67.8807C182.991 67.8576 183.081 67.8695 183.164 67.9148C183.246 67.9602 183.316 68.037 183.366 68.1356C183.415 68.2341 183.442 68.35 183.442 68.4685C183.441 68.6271 183.393 68.7789 183.309 68.891C183.225 69.0032 183.11 69.0667 182.991 69.0677V69.0677ZM182.991 68.0717C182.931 68.0717 182.872 68.0954 182.822 68.1399C182.772 68.1844 182.733 68.2476 182.71 68.3216C182.687 68.3956 182.681 68.477 182.693 68.5556C182.705 68.6341 182.734 68.7063 182.776 68.7629C182.819 68.8195 182.873 68.8581 182.932 68.8737C182.991 68.8893 183.052 68.8813 183.108 68.8507C183.163 68.82 183.211 68.7681 183.244 68.7015C183.278 68.6349 183.296 68.5567 183.296 68.4766C183.296 68.3692 183.263 68.2662 183.206 68.1903C183.149 68.1143 183.072 68.0717 182.991 68.0717Z" fill="white"/>
<path d="M163.245 64.2778L163.199 64.3426L163.172 64.379C163.112 64.2982 163.041 64.234 162.963 64.1902C162.885 64.1464 162.801 64.1238 162.716 64.1238C162.631 64.1238 162.547 64.1464 162.468 64.1902C162.39 64.234 162.319 64.2982 162.259 64.379L162.235 64.3426L162.189 64.2818C162.207 64.2568 162.227 64.2338 162.247 64.213C162.289 64.1664 162.335 64.127 162.384 64.0956C162.442 64.0584 162.503 64.0311 162.567 64.0146H162.658H162.798C162.855 64.024 162.911 64.0416 162.965 64.0672C163.004 64.0874 163.042 64.1118 163.078 64.1401C163.116 64.1677 163.153 64.2003 163.187 64.2373L163.236 64.298L163.245 64.2778Z" fill="white"/>
<path d="M162.415 64.5734L162.342 64.4762C162.391 64.4101 162.45 64.3576 162.515 64.3218C162.579 64.286 162.649 64.2676 162.719 64.2676C162.789 64.2676 162.858 64.286 162.923 64.3218C162.988 64.3576 163.047 64.4101 163.096 64.4762L163.023 64.5774C162.942 64.4706 162.833 64.4107 162.719 64.4107C162.605 64.4107 162.496 64.4706 162.415 64.5774V64.5734Z" fill="white"/>
<path d="M162.962 64.6705L162.889 64.7718C162.87 64.7448 162.846 64.7234 162.82 64.7088C162.794 64.6942 162.766 64.6867 162.737 64.6867C162.709 64.6867 162.681 64.6942 162.655 64.7088C162.629 64.7234 162.605 64.7448 162.585 64.7718L162.512 64.6705C162.572 64.5924 162.653 64.5486 162.737 64.5486C162.821 64.5486 162.902 64.5924 162.962 64.6705Z" fill="white"/>
<path d="M162.786 64.8608C162.786 64.8784 162.782 64.8957 162.774 64.9103C162.767 64.925 162.757 64.9364 162.744 64.9431C162.732 64.9499 162.719 64.9516 162.706 64.9482C162.693 64.9448 162.681 64.9363 162.671 64.9238C162.662 64.9114 162.656 64.8955 162.653 64.8782C162.651 64.8609 162.652 64.843 162.657 64.8267C162.662 64.8105 162.671 64.7966 162.682 64.7868C162.693 64.777 162.706 64.7718 162.719 64.7718C162.728 64.7712 162.737 64.7731 162.745 64.7774C162.753 64.7816 162.761 64.7882 162.767 64.7966C162.773 64.8049 162.778 64.815 162.781 64.8261C162.785 64.8371 162.786 64.849 162.786 64.8608V64.8608Z" fill="white"/>
<path d="M158.67 64.4681C158.67 64.4004 158.691 64.3355 158.727 64.2877C158.762 64.2399 158.811 64.213 158.862 64.213C158.913 64.213 158.962 64.2397 158.999 64.2875C159.035 64.3352 159.056 64.4001 159.057 64.4681C159.057 64.5368 159.036 64.6027 159 64.6513C158.963 64.6999 158.914 64.7272 158.862 64.7272C158.811 64.7262 158.762 64.6984 158.726 64.6499C158.69 64.6014 158.67 64.5361 158.67 64.4681Z" fill="white"/>
<path d="M159.279 64.4681C159.279 64.4004 159.299 64.3355 159.335 64.2877C159.371 64.2399 159.419 64.213 159.47 64.213C159.521 64.213 159.57 64.2397 159.607 64.2875C159.643 64.3352 159.664 64.4001 159.665 64.4681C159.665 64.5368 159.644 64.6027 159.608 64.6513C159.571 64.6999 159.522 64.7272 159.47 64.7272C159.419 64.7262 159.37 64.6984 159.334 64.6499C159.299 64.6014 159.279 64.5361 159.279 64.4681Z" fill="white"/>
<path d="M159.887 64.4681C159.893 64.4054 159.916 64.3478 159.951 64.3061C159.987 64.2643 160.033 64.2413 160.08 64.2413C160.128 64.2413 160.173 64.2643 160.209 64.3061C160.244 64.3478 160.267 64.4054 160.273 64.4681C160.277 64.5045 160.274 64.5416 160.266 64.5767C160.258 64.6118 160.244 64.6443 160.226 64.6718C160.208 64.6994 160.185 64.7215 160.16 64.7366C160.135 64.7517 160.108 64.7595 160.08 64.7595C160.053 64.7595 160.025 64.7517 160 64.7366C159.975 64.7215 159.952 64.6994 159.934 64.6718C159.916 64.6443 159.902 64.6118 159.894 64.5767C159.886 64.5416 159.884 64.5045 159.887 64.4681V64.4681Z" fill="white"/>
<path d="M160.496 64.4681C160.496 64.4168 160.507 64.3667 160.528 64.3241C160.55 64.2815 160.58 64.2483 160.616 64.2287C160.651 64.2091 160.69 64.2039 160.728 64.2139C160.766 64.2239 160.801 64.2486 160.828 64.2848C160.855 64.3211 160.874 64.3672 160.881 64.4175C160.889 64.4678 160.885 64.5199 160.87 64.5672C160.855 64.6146 160.83 64.6551 160.798 64.6835C160.766 64.712 160.729 64.7272 160.69 64.7272C160.639 64.7272 160.589 64.6999 160.553 64.6513C160.516 64.6027 160.496 64.5368 160.496 64.4681V64.4681Z" fill="white"/>
<path d="M161.104 64.4681C161.104 64.4001 161.125 64.3352 161.162 64.2875C161.198 64.2397 161.247 64.213 161.298 64.213C161.349 64.213 161.398 64.2399 161.434 64.2877C161.47 64.3355 161.49 64.4004 161.49 64.4681C161.49 64.5361 161.47 64.6014 161.434 64.6499C161.398 64.6984 161.349 64.7262 161.298 64.7272C161.247 64.7272 161.197 64.6999 161.161 64.6513C161.124 64.6027 161.104 64.5368 161.104 64.4681V64.4681Z" fill="white"/>
<path d="M183.736 65.0268H182.167V64.0632H183.736V65.0268ZM182.243 64.9256H183.66V64.1644H182.243V64.9256Z" fill="white"/>
<path d="M183.308 64.2251H182.295V64.8649H183.308V64.2251Z" fill="white"/>
<path d="M183.879 64.2859H183.74V64.8041H183.879V64.2859Z" fill="white"/>
<path d="M161.198 135.358H160.976V136.714H160.562V136.022H159.829V136.714H159.416V135.358H159.194L160.197 133.981L161.198 135.358Z" fill="#EBEBEB"/>
<path d="M183.505 133.981H181.087V134.443H183.505V133.981Z" fill="#EBEBEB"/>
<path d="M183.505 135.115H181.087V135.576H183.505V135.115Z" fill="#EBEBEB"/>
<path d="M183.505 136.253H181.087V136.714H183.505V136.253Z" fill="#EBEBEB"/>
<path d="M161.152 78.8501C160.896 79.0633 160.599 79.1764 160.296 79.1764C159.994 79.1764 159.697 79.0633 159.44 78.8501C159.139 78.6022 158.907 78.2303 158.779 77.791C158.651 77.3516 158.634 76.8687 158.731 76.4155C158.828 75.9623 159.033 75.5634 159.315 75.2794C159.598 74.9954 159.942 74.8418 160.296 74.8418C160.65 74.8418 160.995 74.9954 161.277 75.2794C161.559 75.5634 161.765 75.9623 161.861 76.4155C161.958 76.8687 161.941 77.3516 161.813 77.791C161.686 78.2303 161.453 78.6022 161.152 78.8501V78.8501Z" fill="#DBDBDB"/>
<path d="M160.79 76.7608C160.79 76.8915 160.761 77.0193 160.707 77.1279C160.652 77.2365 160.574 77.3211 160.484 77.3709C160.393 77.4208 160.293 77.4336 160.197 77.4078C160.101 77.382 160.012 77.3188 159.943 77.2261C159.874 77.1333 159.827 77.0154 159.808 76.8871C159.789 76.7588 159.799 76.626 159.837 76.5054C159.875 76.3849 159.939 76.2821 160.021 76.2101C160.103 76.1381 160.199 76.1 160.298 76.1008C160.429 76.1019 160.554 76.1719 160.646 76.2956C160.739 76.4192 160.79 76.5865 160.79 76.7608V76.7608Z" fill="white"/>
<path d="M161.152 78.5788V78.8501C160.896 79.0633 160.599 79.1764 160.296 79.1764C159.993 79.1764 159.697 79.0633 159.44 78.8501V78.5788C159.453 78.2883 159.549 78.0153 159.708 77.8157C159.867 77.6161 160.078 77.505 160.296 77.505C160.515 77.505 160.725 77.6161 160.884 77.8157C161.043 78.0153 161.139 78.2883 161.152 78.5788V78.5788Z" fill="white"/>
<path d="M174.304 74.9671H163.963V76.1008H174.304V74.9671Z" fill="#EBEBEB"/>
<path d="M172.99 76.858H163.963V77.6111H172.99V76.858Z" fill="#EBEBEB"/>
<path d="M178.888 78.3075H163.963V79.0606H178.888V78.3075Z" fill="#EBEBEB"/>
<path d="M156.769 108.145H185.927V80.9677H156.769V108.145Z" fill="#EBEBEB"/>
<path d="M160.176 88.6932C160.176 89.3291 160.317 89.9506 160.583 90.4793C160.848 91.008 161.225 91.4201 161.667 91.6634C162.108 91.9067 162.594 91.9704 163.062 91.8463C163.53 91.7223 163.961 91.4161 164.299 90.9665C164.636 90.5169 164.866 89.944 164.959 89.3204C165.053 88.6968 165.005 88.0504 164.822 87.4629C164.639 86.8755 164.33 86.3734 163.933 86.0201C163.535 85.6669 163.068 85.4783 162.591 85.4783C161.95 85.4783 161.336 85.817 160.883 86.4199C160.43 87.0228 160.176 87.8406 160.176 88.6932V88.6932Z" fill="#DBDBDB"/>
<path d="M169.715 102.29H185.927L177.821 87.6607L169.715 102.29Z" fill="#C7C7C7"/>
<path d="M163.357 102.302H176.744L170.049 92.7786L163.357 102.302Z" fill="#DBDBDB"/>
<path d="M185.927 102.29H156.77V108.145H185.927V102.29Z" fill="#DBDBDB"/>
<path d="M161.152 122.474C160.896 122.687 160.599 122.8 160.296 122.8C159.994 122.8 159.697 122.687 159.44 122.474C159.139 122.226 158.907 121.854 158.779 121.415C158.651 120.975 158.634 120.493 158.731 120.039C158.828 119.586 159.033 119.187 159.315 118.903C159.598 118.619 159.942 118.466 160.296 118.466C160.65 118.466 160.995 118.619 161.277 118.903C161.559 119.187 161.765 119.586 161.861 120.039C161.958 120.493 161.941 120.975 161.813 121.415C161.686 121.854 161.453 122.226 161.152 122.474V122.474Z" fill="#DBDBDB"/>
<path d="M160.298 121.045C160.571 121.045 160.793 120.749 160.793 120.385C160.793 120.02 160.571 119.725 160.298 119.725C160.024 119.725 159.802 120.02 159.802 120.385C159.802 120.749 160.024 121.045 160.298 121.045Z" fill="white"/>
<path d="M161.152 122.203V122.474C160.896 122.687 160.599 122.8 160.296 122.8C159.993 122.8 159.697 122.687 159.44 122.474V122.203C159.453 121.912 159.549 121.639 159.708 121.44C159.867 121.24 160.078 121.129 160.296 121.129C160.515 121.129 160.725 121.24 160.884 121.44C161.043 121.639 161.139 121.912 161.152 122.203V122.203Z" fill="white"/>
<path d="M177.261 118.591H163.963V119.725H177.261V118.591Z" fill="#EBEBEB"/>
<path d="M180.941 120.482H163.963V121.235H180.941V120.482Z" fill="#EBEBEB"/>
<path d="M169.745 121.931H163.963V122.684H169.745V121.931Z" fill="#EBEBEB"/>
<path d="M185.921 124.592H156.77V131.228H185.921V124.592Z" fill="#EBEBEB"/>
<path d="M164.863 131.232H160.319C160.486 130.608 160.794 130.068 161.201 129.686C161.608 129.304 162.093 129.099 162.591 129.099C163.089 129.099 163.574 129.304 163.981 129.686C164.388 130.068 164.696 130.608 164.863 131.232Z" fill="#DBDBDB"/>
<path d="M158.728 111.327C158.683 111.08 158.694 110.821 158.759 110.583C158.825 110.345 158.942 110.137 159.096 109.987C159.25 109.838 159.434 109.752 159.624 109.741C159.815 109.73 160.003 109.795 160.166 109.927C160.329 110.059 160.459 110.252 160.539 110.482C160.62 110.712 160.647 110.969 160.618 111.22C160.589 111.471 160.504 111.705 160.375 111.892C160.246 112.079 160.079 112.21 159.893 112.27C159.77 112.311 159.642 112.319 159.517 112.293C159.392 112.267 159.272 112.209 159.163 112.121C159.055 112.034 158.961 111.918 158.886 111.782C158.812 111.646 158.758 111.491 158.728 111.327V111.327Z" fill="#EBEBEB"/>
<path fill-rule="evenodd" clip-rule="evenodd" d="M159.534 111.534C159.507 111.513 159.485 111.481 159.452 111.485C159.418 111.489 159.452 111.485 159.452 111.465V110.951C159.45 110.946 159.448 110.941 159.448 110.936C159.448 110.931 159.45 110.926 159.452 110.922C159.549 110.857 159.592 110.728 159.653 110.614C159.685 110.557 159.708 110.492 159.72 110.422C159.732 110.352 159.733 110.28 159.723 110.21C159.723 110.173 159.723 110.157 159.759 110.149C159.772 110.142 159.786 110.141 159.799 110.146C159.813 110.151 159.824 110.162 159.832 110.177C159.861 110.248 159.879 110.324 159.887 110.404C159.893 110.467 159.893 110.531 159.887 110.594C159.887 110.643 159.872 110.687 159.866 110.736C159.859 110.785 159.884 110.736 159.893 110.736H160.218C160.264 110.736 160.288 110.736 160.294 110.793C160.298 110.818 160.295 110.844 160.286 110.866C160.277 110.889 160.263 110.907 160.246 110.918C160.246 110.918 160.224 110.918 160.224 110.938C160.224 110.959 160.224 110.938 160.246 110.959C160.267 110.979 160.276 111.068 160.246 111.112C160.215 111.157 160.215 111.112 160.215 111.137C160.215 111.161 160.234 111.137 160.243 111.169C160.25 111.181 160.254 111.195 160.257 111.21C160.259 111.224 160.258 111.24 160.256 111.254C160.253 111.269 160.247 111.282 160.24 111.293C160.232 111.305 160.223 111.313 160.212 111.319H160.191C160.191 111.319 160.191 111.319 160.191 111.339C160.202 111.346 160.211 111.357 160.218 111.371C160.224 111.384 160.228 111.4 160.228 111.416C160.228 111.432 160.224 111.448 160.218 111.462C160.211 111.475 160.202 111.486 160.191 111.493C160.172 111.501 160.152 111.501 160.133 111.493H159.622C159.62 111.505 159.616 111.517 159.61 111.526C159.603 111.535 159.595 111.542 159.587 111.546C159.578 111.55 159.568 111.551 159.559 111.549C159.55 111.547 159.541 111.541 159.534 111.534V111.534Z" fill="white"/>
<path fill-rule="evenodd" clip-rule="evenodd" d="M159.048 111.234C159.048 111.125 159.048 111.015 159.048 110.906C159.048 110.886 159.048 110.874 159.072 110.874C159.169 110.874 159.27 110.874 159.376 110.874C159.394 110.874 159.397 110.874 159.397 110.906V111.562C159.397 111.59 159.397 111.598 159.37 111.598H159.081C159.057 111.598 159.054 111.598 159.054 111.558C159.051 111.469 159.048 111.343 159.048 111.234Z" fill="white"/>
<path d="M160.754 111.327C160.709 111.081 160.72 110.822 160.785 110.584C160.851 110.345 160.968 110.138 161.121 109.989C161.275 109.839 161.459 109.753 161.649 109.742C161.84 109.731 162.028 109.795 162.191 109.927C162.354 110.059 162.484 110.251 162.564 110.481C162.645 110.711 162.673 110.968 162.644 111.218C162.615 111.469 162.531 111.703 162.403 111.89C162.274 112.077 162.107 112.21 161.922 112.27C161.799 112.312 161.67 112.32 161.545 112.294C161.419 112.269 161.299 112.211 161.19 112.123C161.081 112.035 160.987 111.92 160.912 111.783C160.837 111.647 160.783 111.492 160.754 111.327Z" fill="#FF725E"/>
<path d="M162.183 111.185C162.183 111.359 162.131 111.526 162.039 111.649C161.947 111.772 161.821 111.841 161.691 111.841C161.56 111.841 161.435 111.772 161.342 111.649C161.25 111.526 161.198 111.359 161.198 111.185C161.166 111.124 161.145 111.055 161.136 110.981C161.126 110.908 161.128 110.833 161.143 110.762C161.157 110.69 161.182 110.623 161.218 110.565C161.253 110.508 161.297 110.461 161.347 110.428C161.621 110.319 161.691 110.955 161.691 110.955C161.691 110.955 161.761 110.319 162.037 110.428C162.229 110.505 162.305 110.857 162.183 111.185Z" fill="white"/>
<path d="M177.821 110.857H164.124V111.598H177.821V110.857Z" fill="#EBEBEB"/>
<path d="M156.77 115.283L160.413 115.21L164.057 115.17L171.345 115.133L178.633 115.17L182.277 115.21L185.921 115.283L182.277 115.36L178.633 115.4L171.345 115.437L164.057 115.4L160.413 115.36L156.77 115.283Z" fill="#EBEBEB"/>
<path d="M112.979 150.359C112.751 149.501 100.976 129.661 100.186 129.305C100.097 129.256 95.0512 134.252 95.0512 134.252C94.8444 134.633 85.0625 132.163 85.0625 132.163L85.2115 147.804L102.941 146.808C102.941 146.808 105.375 148.618 107.583 150.084C108.525 150.758 109.498 151.353 110.497 151.866C111.394 152.137 113.21 151.21 112.979 150.359Z" fill="#EB9481"/>
<path d="M110.503 151.857C109.505 151.346 108.533 150.751 107.592 150.076V150.076C105.377 148.61 102.95 146.8 102.95 146.8L98.9961 147.023L92.6086 133.916C93.9713 134.2 94.9842 134.362 95.042 134.24C95.042 134.24 100.085 129.248 100.176 129.296C100.967 129.661 112.741 149.501 112.969 150.351C113.198 151.202 111.394 152.141 110.503 151.857Z" fill="white"/>
<path d="M113.079 150.38C112.839 149.505 101.013 129.677 100.201 129.301C99.8966 129.155 97.4207 131.285 95.0452 134.244L102.68 147.011C102.68 147.011 109.615 151.659 110.536 151.947C111.458 152.234 113.322 151.258 113.079 150.38Z" fill="#FF725E"/>
<path d="M112.318 150.744C110.274 147.505 102.263 134.082 100.429 130.657C100.413 130.629 100.429 130.612 100.429 130.657C102.506 133.827 110.439 147.315 112.343 150.716C112.401 150.744 112.361 150.797 112.318 150.744Z" fill="#263238"/>
<path d="M109.247 151.238C109.018 150.876 108.849 150.455 108.75 150.001C108.65 149.547 108.623 149.071 108.669 148.602C108.746 147.759 109.066 146.989 109.56 146.452C109.575 146.452 109.596 146.472 109.581 146.493C109.154 147.127 108.893 147.93 108.838 148.779C108.783 149.629 108.937 150.479 109.277 151.202C109.292 151.23 109.262 151.262 109.247 151.238Z" fill="#263238"/>
<path d="M103.559 147.792C102.75 146.476 102.184 144.553 102.509 142.869C102.509 142.804 102.591 142.828 102.598 142.869C102.834 144.516 103.202 146.124 103.696 147.667C103.708 147.691 103.713 147.721 103.709 147.75C103.705 147.778 103.692 147.804 103.674 147.821C103.656 147.837 103.634 147.844 103.612 147.838C103.59 147.833 103.571 147.816 103.559 147.792Z" fill="#263238"/>
<path d="M104.471 148.501C103.665 147.185 103.096 145.262 103.422 143.577C103.422 143.513 103.504 143.537 103.513 143.577C103.747 145.225 104.114 146.833 104.608 148.375C104.621 148.4 104.625 148.429 104.621 148.458C104.617 148.487 104.605 148.513 104.587 148.529C104.578 148.537 104.568 148.543 104.557 148.546C104.546 148.549 104.535 148.55 104.525 148.547C104.503 148.542 104.484 148.525 104.471 148.501V148.501Z" fill="#263238"/>
<path d="M105.384 149.209C104.578 147.894 104.012 145.97 104.334 144.286C104.334 144.221 104.416 144.245 104.426 144.286C104.662 145.932 105.029 147.541 105.521 149.084C105.533 149.108 105.538 149.138 105.534 149.167C105.53 149.196 105.517 149.221 105.499 149.238C105.481 149.254 105.459 149.261 105.437 149.255C105.415 149.25 105.396 149.234 105.384 149.209Z" fill="#263238"/>
<path d="M106.299 149.934C105.49 148.618 104.924 146.695 105.247 145.011C105.247 144.946 105.329 144.97 105.338 145.011C105.573 146.658 105.942 148.266 106.436 149.809C106.448 149.833 106.453 149.863 106.449 149.892C106.445 149.92 106.433 149.946 106.415 149.963C106.406 149.971 106.396 149.977 106.385 149.98C106.374 149.983 106.363 149.983 106.352 149.98C106.331 149.975 106.312 149.958 106.299 149.934V149.934Z" fill="#263238"/>
<path d="M98.5614 133.993C97.6732 132.495 99.4192 130.661 100.307 132.159C101.195 133.657 99.4496 135.491 98.5614 133.993Z" fill="#263238"/>
<path d="M103.151 150.392C103.419 148.938 103.203 147.383 103.13 145.914C103.126 145.881 103.117 145.851 103.102 145.825C103.088 145.798 103.069 145.777 103.048 145.762C103.026 145.747 103.002 145.739 102.978 145.738C102.953 145.738 102.929 145.745 102.908 145.76C102.904 145.755 102.9 145.75 102.895 145.748C102.89 145.745 102.885 145.743 102.88 145.743C102.875 145.743 102.87 145.745 102.865 145.748C102.86 145.75 102.856 145.755 102.853 145.76C101.998 146.827 101.369 148.174 101.028 149.667C100.842 150.542 100.937 151.825 101.758 152.056C102.579 152.287 102.996 151.242 103.151 150.392ZM102.36 151.327C101.192 152.347 101.25 150.157 101.408 149.521C101.513 149.104 101.641 148.698 101.791 148.307C102.106 147.512 102.452 146.739 102.825 145.991C102.825 146.715 102.877 147.432 102.898 148.153C102.926 149.031 103.002 150.768 102.36 151.327Z" fill="#263238"/>
<path d="M99.3916 141.699C98.8015 142.508 99.2517 143.634 99.7718 144.225C100.676 145.223 101.762 145.885 102.92 146.144C102.947 146.144 102.959 146.124 102.959 146.096C102.984 146.092 103.007 146.081 103.028 146.063C103.049 146.045 103.066 146.021 103.078 145.993C103.09 145.964 103.097 145.932 103.098 145.899C103.099 145.867 103.094 145.834 103.084 145.804C102.537 144.525 102.071 143.071 101.259 142.055C100.773 141.46 99.9573 140.95 99.3916 141.699ZM101.956 144.092C102.239 144.711 102.494 145.347 102.789 145.954C102.181 145.578 101.554 145.237 100.964 144.78C100.68 144.564 100.406 144.323 100.146 144.059C99.7505 143.654 98.7985 141.856 100.195 141.852C100.973 141.836 101.63 143.355 101.962 144.092H101.956Z" fill="#263238"/>
<path d="M84.4875 128.434L76.4911 127.596C76.4911 127.596 64.9328 123.142 58.2655 125.47C50.6128 128.147 49.533 140.047 57.3135 144.816C65.021 149.529 98.8958 147.796 98.8958 147.796L91.6323 133.475C91.6323 133.475 80.4756 129.989 70.7089 130.697L84.5362 132.815L84.4875 128.434Z" fill="#37474F"/>
<path d="M84.4055 131.463C83.2162 131.204 82.0117 131.058 80.8133 130.924C79.6149 130.791 78.38 130.657 77.1634 130.556C74.7425 130.345 72.3153 130.297 69.8908 130.41C69.6627 130.41 69.4376 130.438 69.2095 130.459C69.1605 130.44 69.1107 130.425 69.0604 130.414C68.9448 130.378 68.8262 130.341 68.7106 130.317C68.4886 130.268 68.2696 130.232 68.0476 130.191C67.5883 130.11 67.1351 130.058 66.6697 129.956C66.6423 129.956 66.6302 130.009 66.6697 130.013C67.132 130.139 67.5822 130.301 68.0476 130.418L68.446 130.519C67.5579 130.604 66.6727 130.722 65.7876 130.855C65.7602 130.855 65.7602 130.916 65.7876 130.912C67.0043 130.782 68.2209 130.738 69.4193 130.734C70.6177 130.73 71.8192 130.734 73.0206 130.787C75.454 130.904 77.8873 131.127 80.2962 131.398C81.6528 131.548 83.0155 131.734 84.3781 131.77C84.512 131.779 84.5393 131.491 84.4055 131.463Z" fill="#263238"/>
<path d="M95.4376 147.468C94.9905 146.557 94.6042 145.582 94.1936 144.634L92.9526 141.8C92.1252 139.917 89.1627 133.592 88.8737 133.151C88.8555 133.123 88.819 133.151 88.8281 133.192C88.9711 133.682 90.8234 137.872 91.2614 138.808C92.1131 140.674 93.0073 142.504 93.8863 144.347C94.1388 144.873 94.3973 145.395 94.6528 145.918C94.9083 146.44 95.1791 146.954 95.4133 147.493C95.4041 147.533 95.4376 147.505 95.4376 147.468Z" fill="#263238"/>
<path d="M55.6438 153.242C55.8415 152.372 66.8979 131.815 67.6735 131.398C67.7617 131.345 72.9812 136.014 72.9812 136.014C73.2002 136.382 82.8817 133.301 82.8817 133.301L83.2893 148.934L65.5443 149.056C65.5443 149.056 63.1871 151.015 61.0245 152.623C60.1067 153.355 59.1559 154.01 58.1775 154.587C57.2893 154.923 55.4431 154.109 55.6438 153.242Z" fill="#EB9481"/>
<path d="M58.1715 154.587C59.1494 154.012 60.0993 153.356 61.0154 152.623V152.623C63.175 151.003 65.5353 149.056 65.5353 149.056L69.4894 149.031L75.4054 135.536C74.055 135.904 73.0482 136.131 72.9721 136.014C72.9721 136.014 67.7527 131.341 67.6645 131.398C66.8888 131.803 55.8325 152.372 55.6348 153.242C55.4371 154.113 57.2894 154.923 58.1715 154.587Z" fill="white"/>
<path d="M55.5399 153.275C55.7467 152.384 66.8578 131.815 67.6517 131.41C67.9558 131.244 70.5017 133.216 72.9806 136.018L65.8054 149.258C65.8054 149.258 59.0469 154.335 58.1344 154.68C57.2219 155.024 55.333 154.165 55.5399 153.275Z" fill="#FF725E"/>
<path d="M56.3189 153.578C58.2443 150.193 65.7693 136.305 67.4817 132.762C67.4817 132.734 67.4817 132.722 67.4635 132.762C65.5016 136.058 58.0587 150.031 56.2763 153.55C56.2368 153.603 56.2763 153.643 56.3189 153.578Z" fill="#263238"/>
<path d="M59.4061 153.886C59.6204 153.51 59.7737 153.078 59.8564 152.619C59.9391 152.16 59.9494 151.683 59.8867 151.218C59.7843 150.384 59.4444 149.634 58.9377 149.124C58.9377 149.124 58.9012 149.149 58.9134 149.169C59.3629 149.776 59.6523 150.561 59.7378 151.406C59.8234 152.251 59.7006 153.11 59.3879 153.854C59.3874 153.857 59.3876 153.861 59.3883 153.865C59.389 153.868 59.3902 153.872 59.3919 153.875C59.3936 153.878 59.3957 153.88 59.3982 153.882C59.4006 153.884 59.4033 153.886 59.4061 153.886V153.886Z" fill="#263238"/>
<path d="M64.9634 150.084C65.7238 148.72 66.2226 146.772 65.8363 145.104C65.8363 145.039 65.7542 145.067 65.7481 145.124C65.5749 146.782 65.269 148.411 64.8356 149.983C64.8326 150.004 64.8345 150.026 64.8412 150.046C64.8478 150.065 64.8589 150.082 64.8729 150.093C64.8868 150.104 64.903 150.109 64.9192 150.108C64.9354 150.106 64.9508 150.098 64.9634 150.084V150.084Z" fill="#263238"/>
<path d="M64.0752 150.849C64.8356 149.485 65.3344 147.537 64.9512 145.869C64.9512 145.804 64.866 145.833 64.8599 145.889C64.6867 147.548 64.3808 149.176 63.9474 150.748C63.9444 150.769 63.9463 150.791 63.953 150.811C63.9597 150.831 63.9707 150.847 63.9847 150.858C63.9986 150.869 64.0148 150.874 64.031 150.873C64.0472 150.871 64.0626 150.863 64.0752 150.849V150.849Z" fill="#263238"/>
<path d="M63.1962 151.615C63.9536 150.25 64.4524 148.302 64.0692 146.634C64.0539 146.57 63.987 146.598 63.9809 146.634C63.8064 148.292 63.5005 149.921 63.0685 151.493C63.0592 151.516 63.0565 151.542 63.0609 151.567C63.0652 151.592 63.0762 151.614 63.092 151.629C63.1077 151.644 63.1269 151.651 63.1461 151.648C63.1653 151.645 63.1832 151.633 63.1962 151.615V151.615Z" fill="#263238"/>
<path d="M62.3021 152.384C63.0625 151.015 63.5613 149.068 63.175 147.4C63.175 147.335 63.0929 147.363 63.0868 147.42C62.9136 149.078 62.6077 150.707 62.1743 152.279C62.1704 152.3 62.1717 152.323 62.1781 152.343C62.1844 152.364 62.1954 152.381 62.2096 152.393C62.2237 152.404 62.2403 152.41 62.2569 152.408C62.2735 152.407 62.2893 152.398 62.3021 152.384V152.384Z" fill="#263238"/>
<path d="M69.4649 135.989C70.2983 134.439 68.4886 132.714 67.6551 134.265C66.8217 135.815 68.6285 137.54 69.4649 135.989Z" fill="#263238"/>
<path d="M66.9221 154.222C67.7342 153.943 67.7828 152.655 67.5638 151.793C67.1688 150.321 66.4889 149.013 65.5929 148.003C65.5716 147.979 65.5533 148.003 65.5411 148.003C65.5185 147.99 65.4939 147.984 65.4693 147.987C65.4448 147.989 65.4209 147.998 65.3996 148.015C65.3783 148.031 65.3603 148.054 65.3468 148.082C65.3334 148.109 65.3249 148.14 65.3222 148.173C65.3039 149.643 65.1427 151.21 65.4621 152.647C65.6476 153.497 66.1525 154.489 66.9221 154.222ZM65.6294 150.42C65.6294 149.699 65.6476 148.979 65.6294 148.258C66.0294 148.981 66.401 149.731 66.7426 150.505C66.905 150.882 67.0482 151.273 67.1715 151.675C67.3509 152.303 67.4756 154.485 66.2833 153.546C65.6294 153.024 65.6294 151.283 65.6294 150.42Z" fill="#263238"/>
<path d="M67.0619 144.209C66.2741 145.278 65.8605 146.76 65.3616 148.072C65.3524 148.102 65.3488 148.135 65.351 148.167C65.3531 148.2 65.3611 148.231 65.3741 148.259C65.3872 148.287 65.405 148.31 65.4261 148.326C65.4472 148.343 65.471 148.353 65.4955 148.355C65.4949 148.362 65.4956 148.369 65.4974 148.376C65.4992 148.382 65.5022 148.388 65.506 148.393C65.5099 148.397 65.5145 148.401 65.5195 148.403C65.5246 148.405 65.5299 148.405 65.535 148.404C66.6823 148.07 67.7437 147.341 68.6131 146.29C69.1089 145.667 69.5256 144.5 68.9021 143.743C68.2786 142.986 67.5212 143.585 67.0619 144.209ZM68.1022 143.942C69.4952 143.861 68.6071 145.703 68.2269 146.144C67.9765 146.424 67.7123 146.681 67.436 146.914C66.8606 147.382 66.2677 147.812 65.6597 148.201C65.9335 147.578 66.1677 146.926 66.4262 146.29C66.7334 145.533 67.3326 143.986 68.1022 143.942Z" fill="#263238"/>
<path d="M83.3226 128.475L91.2825 128.195C91.2825 128.195 99.495 122.571 106.253 124.482C113.991 126.669 115.232 139.492 109.575 144.241C102.409 150.258 69.9819 150.286 69.9819 150.286L76.6735 134.236C76.6735 134.236 87.3892 130.835 97.1712 130.928L83.4321 133.916L83.3226 128.475Z" fill="#37474F"/>
<path d="M76.2234 135.285C76.2314 135.259 76.2365 135.232 76.2387 135.204V135.135L76.266 134.981C76.2873 134.876 76.3147 134.775 76.3421 134.67C76.3694 134.564 76.4029 134.467 76.4333 134.366C76.4705 134.267 76.5132 134.172 76.5611 134.082C76.5611 134.082 76.5611 134.082 76.5793 134.062H76.5945H76.6128C77.7929 133.726 85.8137 131.908 87.0091 131.685C88.2045 131.463 89.4181 131.281 90.6287 131.09C93.0386 130.726 95.4608 130.523 97.886 130.483C98.1141 130.483 98.3422 130.483 98.5704 130.483C98.6181 130.461 98.6669 130.443 98.7164 130.43C98.832 130.39 98.9475 130.345 99.0631 130.313C99.2821 130.248 99.5011 130.195 99.7201 130.143C100.176 130.033 100.633 129.952 101.089 129.823C101.116 129.823 101.128 129.871 101.089 129.88C100.633 130.033 100.176 130.224 99.7292 130.374L99.3338 130.499C100.225 130.531 101.113 130.592 102.004 130.669C102.01 130.669 102.015 130.672 102.019 130.677C102.023 130.683 102.026 130.69 102.026 130.697C102.026 130.705 102.023 130.712 102.019 130.717C102.015 130.723 102.01 130.726 102.004 130.726C100.788 130.673 99.5711 130.706 98.3696 130.774C97.1682 130.843 95.9728 130.92 94.7744 131.058C92.3411 131.325 89.9382 131.702 87.5292 132.123C86.1787 132.362 77.9998 134.244 76.6402 134.37H76.6219C76.6135 134.413 76.6023 134.455 76.5884 134.495L76.4789 134.791C76.4424 134.884 76.4059 134.977 76.3634 135.07L76.2995 135.204L76.266 135.269C76.266 135.289 76.2356 135.317 76.2326 135.338C76.2295 135.358 76.2082 135.321 76.2234 135.285Z" fill="#263238"/>
<path d="M72.4883 149.25C72.905 148.311 73.2547 147.315 73.6319 146.347L74.7695 143.44C75.5299 141.508 78.2643 135.002 78.5381 134.532C78.5533 134.504 78.5928 134.532 78.5837 134.568C78.459 135.07 76.7587 139.37 76.3663 140.33C75.5816 142.249 74.7543 144.136 73.933 146.031C73.7019 146.574 73.4585 147.108 73.2243 147.651C72.9901 148.193 72.7377 148.72 72.5217 149.27C72.5221 149.275 72.5215 149.28 72.52 149.285C72.5184 149.289 72.516 149.293 72.513 149.296C72.5099 149.299 72.5064 149.301 72.5026 149.301C72.4989 149.302 72.4951 149.301 72.4917 149.299C72.4883 149.297 72.4854 149.294 72.4832 149.29C72.481 149.285 72.4797 149.281 72.4793 149.276C72.479 149.271 72.4796 149.266 72.4812 149.261C72.4828 149.257 72.4852 149.253 72.4883 149.25Z" fill="#263238"/>
<path d="M99.2731 85.5067L97.5972 97.5848C97.5181 97.9411 97.6641 98.2164 97.9226 98.1921L102.531 97.7872C102.67 97.7602 102.802 97.6813 102.909 97.5596C103.017 97.4378 103.096 97.2782 103.139 97.0989L104.815 85.0208C104.894 84.6645 104.748 84.3932 104.49 84.4134L99.8845 84.8183C99.7443 84.8451 99.6127 84.9239 99.5045 85.0456C99.3964 85.1673 99.3162 85.3271 99.2731 85.5067Z" fill="#37474F"/>
<path d="M99.8205 85.454L98.1446 97.5321C98.0655 97.8885 98.2115 98.1638 98.467 98.1395L103.075 97.7346C103.215 97.708 103.346 97.6293 103.454 97.5075C103.562 97.3857 103.641 97.2258 103.683 97.0463L105.362 84.9681C105.441 84.6118 105.295 84.3365 105.037 84.3608L100.429 84.7657C100.289 84.7932 100.158 84.8722 100.051 84.9939C99.9431 85.1156 99.8634 85.275 99.8205 85.454V85.454Z" fill="#455A64"/>
<path d="M101.11 85.8873C101.114 85.9906 101.094 86.093 101.054 86.1815C101.014 86.27 100.955 86.3406 100.884 86.3844C100.814 86.4282 100.735 86.4431 100.658 86.4274C100.582 86.4116 100.51 86.3659 100.453 86.2959C100.395 86.226 100.355 86.135 100.337 86.0345C100.318 85.934 100.323 85.8285 100.35 85.7313C100.376 85.6342 100.424 85.5499 100.487 85.489C100.55 85.4281 100.625 85.3933 100.702 85.3892C100.806 85.3837 100.907 85.433 100.983 85.5263C101.06 85.6197 101.105 85.7494 101.11 85.8873V85.8873Z" fill="#263238"/>
<path d="M85.2872 104.776C88.2041 111.979 94.4608 121.154 96.888 121.016C98.0408 120.952 100.115 121.166 101.554 119.291C104.696 115.202 107.151 107.634 107.54 103.379C107.677 101.869 102.065 99.0222 101.308 100.302C99.5312 103.302 97.5633 109.072 97.2256 109.064C95.9786 109.027 90.9051 104.006 87.3616 100.472C83.0607 96.1757 84.1253 101.905 85.2872 104.776Z" fill="#EB9481"/>
<path d="M107.352 95.6251C106.646 92.6248 106.12 91.981 106.533 89.0455C106.804 87.106 105.992 86.0452 105.037 87.6526C103.477 90.2845 103.778 94.4104 104.191 95.8032L107.352 95.6251Z" fill="#EB9481"/>
<path d="M107.327 104.707C107.327 104.707 108.17 100.391 107.656 97.0949C107.3 94.8153 106.111 89.9686 101.168 87.7295C99.9938 87.1991 98.0411 87.5514 99.7201 89.3491C100.912 90.6246 101.956 90.9687 102.549 91.8636C102.549 91.8636 100.115 92.6977 99.7505 94.293C99.4404 95.675 99.2056 97.085 99.0479 98.512C99.2373 98.6099 99.4314 98.691 99.6288 98.755C99.6288 98.755 99.3246 100.253 100.237 102.278L107.327 104.707Z" fill="#EB9481"/>
<path d="M107.054 94.9894C106.324 94.2525 104.754 92.726 103.145 92.0701C101.357 91.3453 97.7677 90.5841 97.3662 92.3454C97.0803 93.6411 98.4308 94.0905 98.4308 94.0905C98.4308 94.0905 96.91 94.1917 96.8309 95.4348C96.7701 96.5685 97.8316 96.8317 97.8316 96.8317C97.8316 96.8317 96.9191 97.107 97.0104 98.2124C97.129 99.5405 99.0422 98.7469 100.052 99.9535C100.274 100.225 107.054 94.9894 107.054 94.9894Z" fill="#EB9481"/>
<path d="M102.883 94.714C101.499 93.9064 99.963 93.6776 98.4789 94.0581C98.4424 94.0581 98.4303 94.1148 98.4637 94.1108C99.9517 94.0817 101.437 94.2938 102.886 94.7424L102.883 94.714Z" fill="#263238"/>
<path d="M102.278 97.0949C101.575 96.7183 99.5011 96.1879 97.8464 96.7871C97.8069 96.7871 97.7977 96.8438 97.8464 96.8398C99.3298 96.7088 100.82 96.8025 102.287 97.1192L102.278 97.0949Z" fill="#263238"/>
<path d="M107.72 106.464C107.72 106.464 103.714 118.591 101.162 120.146C98.6101 121.701 97.0345 121.514 96.0582 121.389C95.6786 121.299 95.3184 121.1 95.0027 120.806C92.2653 118.498 87.1979 109.999 85.0809 105.169C83.4932 101.524 83.5145 98.1436 85.7318 99.0748C86.4844 99.4394 87.1864 99.9675 87.8093 100.638C91.9885 104.804 96.8034 108.711 97.0193 108.541C97.2353 108.371 99.331 103.359 99.331 103.359L107.72 106.464Z" fill="#FF725E"/>
<path d="M97.3841 111.064C97.3557 111.332 97.3557 111.605 97.3841 111.874C97.4138 112.154 97.4754 112.427 97.5666 112.683C97.5965 112.415 97.5965 112.142 97.5666 111.874C97.5368 111.593 97.4753 111.32 97.3841 111.064V111.064Z" fill="white"/>
<path d="M102.613 114.08C102.584 114.349 102.584 114.622 102.613 114.89C102.64 115.161 102.696 115.425 102.777 115.676C102.807 115.407 102.807 115.134 102.777 114.866C102.752 114.595 102.696 114.33 102.613 114.08V114.08Z" fill="white"/>
<path d="M93.3963 117.008C93.3679 117.276 93.3679 117.549 93.3963 117.818C93.4213 118.089 93.4767 118.354 93.5605 118.603C93.5889 118.334 93.5889 118.062 93.5605 117.793C93.5322 117.523 93.477 117.259 93.3963 117.008Z" fill="white"/>
<path d="M90.8748 105.096C90.8233 105.646 90.8821 106.205 91.0451 106.715C91.0735 106.447 91.0735 106.174 91.0451 105.905C91.0169 105.626 90.9596 105.354 90.8748 105.096V105.096Z" fill="white"/>
<path d="M90.0476 109.975C90.2494 110.012 90.4542 110.012 90.6559 109.975C90.8597 109.941 91.0586 109.868 91.246 109.756C91.0442 109.718 90.8395 109.718 90.6377 109.756C90.4346 109.794 90.2361 109.867 90.0476 109.975V109.975Z" fill="white"/>
<path d="M100.718 111.388C100.92 111.426 101.124 111.426 101.326 111.388C101.529 111.351 101.728 111.277 101.916 111.169C101.715 111.129 101.51 111.129 101.308 111.169C101.104 111.203 100.905 111.277 100.718 111.388V111.388Z" fill="white"/>
<path d="M95.2978 115.647C95.4996 115.685 95.7043 115.685 95.9061 115.647C96.1099 115.614 96.3088 115.54 96.4962 115.429C96.0825 115.364 95.6631 115.443 95.2795 115.659L95.2978 115.647Z" fill="white"/>
<path d="M105.606 107.205C105.807 107.243 106.012 107.243 106.214 107.205C106.418 107.172 106.617 107.098 106.804 106.987C106.39 106.921 105.971 107.001 105.587 107.217L105.606 107.205Z" fill="white"/>
<path d="M100.325 119.619C100.527 119.657 100.731 119.657 100.933 119.619C101.137 119.586 101.336 119.512 101.523 119.401C101.322 119.361 101.117 119.361 100.915 119.401C100.711 119.434 100.512 119.508 100.325 119.619V119.619Z" fill="white"/>
<path d="M84.6427 99.4757C84.4749 99.5744 84.2979 99.6425 84.1165 99.6781C84.1423 99.6004 84.175 99.527 84.2138 99.4595C84.3567 99.4407 84.5008 99.4461 84.6427 99.4757Z" fill="white"/>
<path d="M94.7836 108.104C94.6213 108.271 94.477 108.468 94.3547 108.687C94.2286 108.904 94.1262 109.144 94.0505 109.4C94.3753 109.061 94.6271 108.614 94.7805 108.104H94.7836Z" fill="white"/>
<path d="M99.7992 114.882C99.6361 115.05 99.4917 115.248 99.3703 115.469C99.2449 115.686 99.1426 115.924 99.0662 116.178C99.2292 116.011 99.3736 115.815 99.495 115.595C99.6211 115.377 99.7235 115.138 99.7992 114.882Z" fill="white"/>
<path d="M102.649 105.897C102.486 106.064 102.342 106.26 102.22 106.48C102.094 106.698 101.992 106.938 101.916 107.193C102.079 107.025 102.224 106.828 102.345 106.606C102.471 106.39 102.573 106.151 102.649 105.897Z" fill="white"/>
<path d="M91.6171 114.036C91.4547 114.205 91.3104 114.402 91.1882 114.623C91.0628 114.839 90.9604 115.078 90.884 115.332C91.047 115.165 91.1914 114.969 91.3129 114.748C91.4401 114.532 91.5426 114.292 91.6171 114.036Z" fill="white"/>
<path d="M87.8334 102.634C87.6704 102.8 87.526 102.996 87.4045 103.217C87.2773 103.433 87.1748 103.673 87.1003 103.93C87.4251 103.591 87.6769 103.144 87.8303 102.634H87.8334Z" fill="white"/>
<path d="M87.5993 108.23C87.4733 108.012 87.3248 107.82 87.1583 107.659C86.9964 107.49 86.8171 107.354 86.626 107.254C86.7493 107.473 86.897 107.665 87.064 107.825C87.2265 107.994 87.4069 108.13 87.5993 108.23V108.23Z" fill="white"/>
<path d="M105.323 110.878C105.197 110.662 105.05 110.47 104.885 110.307C104.722 110.139 104.541 110.003 104.35 109.902C104.475 110.118 104.623 110.31 104.788 110.473C104.951 110.641 105.131 110.777 105.323 110.878V110.878Z" fill="white"/>
<path d="M99.8693 108.695C99.7436 108.479 99.5962 108.287 99.4313 108.124C99.2688 107.955 99.0884 107.819 98.896 107.719C99.1506 108.152 99.4863 108.487 99.8693 108.691V108.695Z" fill="white"/>
<path d="M93.862 113.173C93.7379 112.955 93.5903 112.763 93.424 112.603C93.2623 112.432 93.0817 112.295 92.8887 112.198C93.0155 112.414 93.1639 112.606 93.3297 112.769C93.4923 112.935 93.6714 113.072 93.862 113.173V113.173Z" fill="white"/>
<path d="M97.4755 119.85C97.3506 119.633 97.2031 119.441 97.0375 119.279C96.8743 119.111 96.6941 118.975 96.5022 118.874C96.6282 119.091 96.7767 119.284 96.9432 119.445C97.1058 119.612 97.2849 119.749 97.4755 119.85V119.85Z" fill="white"/>
<path d="M95.0027 120.806C92.2653 118.498 87.1979 109.999 85.0809 105.169C83.4932 101.524 83.5145 98.1436 85.7318 99.0748C86.9637 101.929 92.3413 114.416 95.0027 120.806Z" fill="#263238"/>
<path d="M106.692 108.695C106.387 108.497 103.51 107.242 102.88 106.987C102.251 106.731 99.6897 105.663 99.0236 105.472C99.0208 105.471 99.0179 105.47 99.0149 105.471C99.0119 105.471 99.009 105.472 99.0063 105.473C99.0037 105.475 99.0012 105.477 98.9993 105.48C98.9973 105.483 98.9957 105.487 98.9947 105.49C98.9937 105.494 98.9933 105.498 98.9934 105.502C98.9936 105.506 98.9943 105.51 98.9956 105.513C98.9969 105.517 98.9986 105.52 99.0008 105.523C99.003 105.526 99.0056 105.528 99.0084 105.529C99.635 105.881 102.217 106.974 102.856 107.25C103.495 107.525 106.357 108.683 106.682 108.752C106.716 108.756 106.719 108.707 106.692 108.695Z" fill="#263238"/>
<path d="M92.1069 128.811C91.818 129.216 73.2123 130.025 73.118 129.871C72.8594 129.467 75.1498 113.7 77.0539 107.667C79.4872 99.9332 80.8863 99.2206 81.7197 98.759C82.7813 98.1597 84.7249 98.2731 85.1963 98.5282C85.7316 98.8116 88.0676 102.233 88.7794 105.007C90.2089 110.586 92.3594 128.442 92.1069 128.811Z" fill="#FF725E"/>
<path d="M83.9126 103.185C83.8637 103.735 83.9234 104.294 84.086 104.804C84.1146 104.536 84.1146 104.263 84.086 103.994C84.0595 103.714 84.001 103.441 83.9126 103.185Z" fill="white"/>
<path d="M84.0708 115.008C84.0194 115.558 84.0781 116.117 84.2412 116.627C84.2695 116.359 84.2695 116.086 84.2412 115.817C84.213 115.538 84.1556 115.266 84.0708 115.008Z" fill="white"/>
<path d="M73.4922 127.373C73.4441 127.924 73.5039 128.482 73.6656 128.993C73.694 128.724 73.694 128.452 73.6656 128.183C73.6387 127.903 73.5803 127.63 73.4922 127.373V127.373Z" fill="white"/>
<path d="M81.1145 127.863C81.0859 128.132 81.0859 128.404 81.1145 128.673C81.142 128.945 81.1984 129.211 81.2818 129.463C81.3102 129.194 81.3102 128.921 81.2818 128.653C81.2561 128.38 81.1997 128.114 81.1145 127.863V127.863Z" fill="white"/>
<path d="M87.3892 122.401C87.3608 122.67 87.3608 122.942 87.3892 123.211C87.4142 123.482 87.4696 123.747 87.5534 123.996C87.5821 123.728 87.5821 123.455 87.5534 123.187C87.5266 122.916 87.4713 122.651 87.3892 122.401Z" fill="white"/>
<path d="M78.4405 110.254C78.4121 110.523 78.4121 110.795 78.4405 111.064C78.4655 111.335 78.5209 111.6 78.6047 111.849C78.6349 111.581 78.6349 111.308 78.6047 111.04C78.5794 110.768 78.524 110.504 78.4405 110.254V110.254Z" fill="white"/>
<path d="M77.5406 120.668C77.5122 120.937 77.5122 121.209 77.5406 121.478C77.5685 121.748 77.6237 122.013 77.7048 122.263C77.7569 121.713 77.6981 121.154 77.5345 120.644L77.5406 120.668Z" fill="white"/>
<path d="M88.7186 112.416C88.6902 112.685 88.6902 112.957 88.7186 113.226C88.7465 113.497 88.8017 113.761 88.8828 114.012C88.913 113.743 88.913 113.47 88.8828 113.202C88.8575 112.931 88.8021 112.666 88.7186 112.416V112.416Z" fill="white"/>
<path d="M82.1121 108.185C82.3139 108.223 82.5187 108.223 82.7205 108.185C82.9252 108.152 83.1251 108.078 83.3136 107.966C82.8998 107.896 82.4794 107.976 82.0969 108.197L82.1121 108.185Z" fill="white"/>
<path d="M77.6257 115.983C78.0395 116.049 78.4588 115.969 78.8424 115.753C78.6406 115.714 78.4358 115.714 78.2341 115.753C78.0236 115.788 77.8185 115.866 77.6257 115.983V115.983Z" fill="white"/>
<path d="M84.728 120.405C84.9298 120.443 85.1346 120.443 85.3364 120.405C85.5398 120.37 85.7385 120.296 85.9264 120.186C85.7246 120.149 85.5199 120.149 85.3181 120.186C85.1149 120.223 84.9164 120.297 84.728 120.405V120.405Z" fill="white"/>
<path d="M79.4568 125.418C79.6586 125.455 79.8633 125.455 80.0651 125.418C80.2683 125.38 80.4668 125.307 80.6552 125.199C80.4534 125.161 80.2487 125.161 80.0469 125.199C79.8438 125.237 79.6453 125.31 79.4568 125.418V125.418Z" fill="white"/>
<path d="M89.8501 125.28C90.0519 125.318 90.2566 125.318 90.4584 125.28C90.6622 125.247 90.8611 125.173 91.0485 125.061C90.8469 125.021 90.6418 125.021 90.4402 125.061C90.2365 125.095 90.0376 125.169 89.8501 125.28V125.28Z" fill="white"/>
<path d="M83.438 99.7024C83.6398 99.7405 83.8446 99.7405 84.0463 99.7024C84.2505 99.6653 84.45 99.5917 84.6394 99.4838C84.4377 99.446 84.2329 99.446 84.0311 99.4838C83.8266 99.5186 83.6269 99.5923 83.438 99.7024V99.7024Z" fill="white"/>
<path d="M81.5676 101.788C81.403 101.954 81.2575 102.152 81.1357 102.375C81.0097 102.591 80.9073 102.829 80.8315 103.083C80.9953 102.918 81.1398 102.722 81.2604 102.5C81.3875 102.283 81.4909 102.043 81.5676 101.788V101.788Z" fill="white"/>
<path d="M85.9049 110.627C85.5805 110.967 85.3279 111.413 85.1719 111.922C85.3364 111.757 85.481 111.559 85.6007 111.335C85.7273 111.12 85.8297 110.881 85.9049 110.627Z" fill="white"/>
<path d="M90.2152 119.502C90.0528 119.671 89.9086 119.868 89.7863 120.089C89.6603 120.306 89.5579 120.546 89.4822 120.802C89.6453 120.634 89.7897 120.436 89.911 120.215C90.0382 119.998 90.1407 119.758 90.2152 119.502V119.502Z" fill="white"/>
<path d="M85.4213 126.252C85.2582 126.418 85.1138 126.614 84.9924 126.835C84.8653 127.051 84.7628 127.291 84.6882 127.547C84.8527 127.383 84.9973 127.187 85.1171 126.964C85.2442 126.748 85.3467 126.508 85.4213 126.252V126.252Z" fill="white"/>
<path d="M75.4965 124.146C75.3326 124.313 75.1881 124.511 75.0676 124.733C74.9411 124.949 74.8386 125.187 74.7634 125.442C74.9279 125.278 75.0725 125.081 75.1923 124.859C75.3194 124.642 75.4219 124.402 75.4965 124.146Z" fill="white"/>
<path d="M81.1996 117.882C81.0373 118.05 80.893 118.246 80.7707 118.465C80.6446 118.683 80.5422 118.923 80.4666 119.178C80.6288 119.011 80.7731 118.815 80.8954 118.595C81.022 118.378 81.1244 118.138 81.1996 117.882V117.882Z" fill="white"/>
<path d="M87.8334 102.634C87.6704 102.8 87.526 102.996 87.4045 103.217C87.2773 103.433 87.1748 103.673 87.1003 103.93C87.4251 103.591 87.6769 103.144 87.8303 102.634H87.8334Z" fill="white"/>
<path d="M87.5993 108.23C87.4733 108.012 87.3248 107.82 87.1583 107.659C86.9964 107.49 86.8171 107.354 86.626 107.254C86.7493 107.473 86.897 107.665 87.064 107.825C87.2265 107.994 87.4069 108.13 87.5993 108.23V108.23Z" fill="white"/>
<path d="M75.3809 117.81C75.198 117.715 75.0259 117.587 74.8699 117.429L74.9064 117.206L74.9398 117.239C75.1064 117.4 75.2549 117.592 75.3809 117.81V117.81Z" fill="white"/>
<path d="M88.2228 117.619C88.0979 117.402 87.9504 117.21 87.7848 117.048C87.6216 116.88 87.4414 116.744 87.2495 116.643C87.3755 116.86 87.524 117.053 87.6906 117.214C87.8531 117.381 88.0323 117.518 88.2228 117.619V117.619Z" fill="white"/>
<path d="M88.9344 129.151C88.8076 128.935 88.6592 128.743 88.4933 128.58C88.3308 128.411 88.1505 128.274 87.958 128.175C88.0848 128.391 88.2332 128.583 88.399 128.746C88.5623 128.914 88.7425 129.05 88.9344 129.151V129.151Z" fill="white"/>
<path d="M79.4565 106.383C79.3304 106.161 79.1808 105.965 79.0124 105.8C78.8498 105.631 78.6694 105.495 78.4771 105.395C78.6011 105.613 78.7487 105.806 78.915 105.966C79.0794 106.139 79.2617 106.28 79.4565 106.383Z" fill="white"/>
<path d="M83.2009 123.211C83.0748 122.994 82.9264 122.802 82.7598 122.64C82.5972 122.473 82.4181 122.337 82.2275 122.235C82.3515 122.452 82.498 122.644 82.6625 122.806C82.8267 122.974 83.0079 123.11 83.2009 123.211Z" fill="white"/>
<path d="M77.7656 128.665C77.6407 128.448 77.4932 128.256 77.3276 128.094C77.165 127.925 76.9846 127.788 76.7922 127.689C76.9163 127.907 77.0639 128.099 77.2302 128.26C77.3932 128.428 77.5735 128.565 77.7656 128.665Z" fill="white"/>
<path d="M82.0878 112.858C81.9621 112.642 81.8147 112.449 81.6498 112.287C81.4873 112.117 81.3069 111.981 81.1145 111.882C81.2402 112.098 81.3876 112.29 81.5525 112.453C81.7157 112.621 81.8959 112.757 82.0878 112.858V112.858Z" fill="white"/>
<path d="M78.6508 100.877C70.6847 109.007 63.8258 120.235 64.5163 123.753C65.2463 127.47 70.8246 131.576 75.7277 132.366C76.7315 132.528 79.767 122.697 78.7359 122.243C77.9329 121.903 74.283 120.571 73.8419 119.911C73.5378 119.453 79.11 108.801 80.9077 103.253C82.7904 97.4674 80.7829 98.7023 78.6508 100.877Z" fill="#EB9481"/>
<path d="M76.6646 121.996C76.6646 121.996 79.7306 122.365 81.7259 122.733C82.8392 122.94 84.725 123.519 85.4915 124.166C86.6351 125.138 90.9664 130.175 90.0691 131.596C89.2601 132.884 88.0099 130.876 88.0099 130.876C88.0099 130.876 89.5308 132.9 88.4327 133.848C87.3347 134.795 85.8869 131.981 85.8869 131.981C85.8869 131.981 87.6145 133.977 86.3705 134.844C85.2877 135.593 83.3684 132.58 83.3684 132.58C83.3684 132.58 85.3546 134.41 84.3022 135.325C83.1433 136.334 79.8371 132.297 79.8371 132.297C77.2182 132.702 75.6031 132.503 73.7538 131.835C73.4131 131.714 76.6646 121.996 76.6646 121.996Z" fill="#EB9481"/>
<path d="M86.3521 132.649C86.2335 132.434 86.1088 132.224 85.9871 132.009C85.7601 131.583 85.5121 131.177 85.2449 130.795C84.9834 130.422 84.7096 130.07 84.4237 129.73C84.1378 129.39 83.7971 129.045 83.5112 128.673C83.509 128.67 83.5064 128.668 83.5036 128.667C83.5009 128.666 83.4979 128.665 83.4949 128.665C83.492 128.665 83.489 128.666 83.4864 128.668C83.4837 128.67 83.4813 128.672 83.4793 128.675C83.4773 128.678 83.4757 128.681 83.4747 128.685C83.4737 128.689 83.4733 128.693 83.4734 128.697C83.4736 128.701 83.4743 128.704 83.4755 128.708C83.4768 128.712 83.4786 128.715 83.4808 128.717C83.7734 129.08 84.0497 129.465 84.3081 129.871C84.5727 130.256 84.8313 130.645 85.0929 131.034C85.3544 131.422 85.6191 131.766 85.8806 132.139C86.0114 132.321 86.1361 132.515 86.2608 132.706C86.3701 132.898 86.4912 133.078 86.6228 133.244C86.638 133.244 86.6532 133.244 86.6471 133.216C86.5638 133.014 86.4649 132.824 86.3521 132.649V132.649Z" fill="#263238"/>
<path d="M88.3202 131.309C87.9144 130.505 87.4672 129.739 86.9819 129.017C86.4879 128.301 85.9418 127.651 85.3515 127.078C85.3493 127.075 85.3468 127.073 85.344 127.072C85.3412 127.07 85.3382 127.07 85.3353 127.07C85.3323 127.07 85.3294 127.071 85.3267 127.073C85.324 127.074 85.3216 127.077 85.3196 127.08C85.3176 127.083 85.3161 127.086 85.3151 127.09C85.3141 127.093 85.3136 127.097 85.3137 127.101C85.3139 127.105 85.3146 127.109 85.3159 127.113C85.3171 127.116 85.3189 127.12 85.3211 127.122C85.8139 127.839 86.3157 128.547 86.8146 129.26C87.0579 129.604 88.1316 131.228 88.2624 131.378C88.2928 131.402 88.3354 131.341 88.3202 131.309Z" fill="#263238"/>
<path d="M84.5268 133.981C84.1335 133.236 83.7037 132.526 83.2402 131.855C82.7196 131.231 82.1656 130.657 81.5825 130.139C81.5612 130.139 81.5339 130.163 81.5521 130.183C82.0692 130.811 82.5954 131.422 83.0729 132.078C83.3163 132.402 84.2196 133.754 84.4691 134.034C84.4743 134.044 84.4824 134.051 84.4915 134.053C84.5006 134.056 84.5101 134.053 84.5177 134.046C84.5254 134.039 84.5306 134.028 84.5324 134.016C84.5341 134.004 84.5321 133.991 84.5268 133.981V133.981Z" fill="#263238"/>
<path d="M79.0705 121.85L74.7818 132.762C74.7818 132.762 65.1185 129.365 64.2851 123.539C63.4517 117.712 74.5233 104.318 77.939 101.152C81.3548 97.9856 83.4383 97.5605 80.7434 104.772C78.0485 111.983 73.8784 119.401 74.2191 119.773C74.5081 120.085 79.0705 121.85 79.0705 121.85Z" fill="#FF725E"/>
<path d="M72.2693 113.898C72.241 114.167 72.241 114.439 72.2693 114.708C72.2948 114.98 72.3501 115.246 72.4336 115.498C72.462 115.229 72.462 114.956 72.4336 114.688C72.4053 114.416 72.3501 114.151 72.2693 113.898V113.898Z" fill="white"/>
<path d="M73.4922 127.373C73.4441 127.924 73.5039 128.482 73.6656 128.993C73.694 128.724 73.694 128.452 73.6656 128.183C73.6387 127.903 73.5803 127.63 73.4922 127.373V127.373Z" fill="white"/>
<path d="M68.504 120.806C68.4756 121.074 68.4756 121.347 68.504 121.616C68.5303 121.887 68.5866 122.152 68.6712 122.401C68.7011 122.133 68.7011 121.86 68.6712 121.591C68.6445 121.32 68.5882 121.055 68.504 120.806Z" fill="white"/>
<path d="M78.4532 110.299L78.435 110.339C78.4335 110.312 78.4335 110.285 78.435 110.258C78.4424 110.27 78.4486 110.284 78.4532 110.299V110.299Z" fill="white"/>
<path d="M76.1352 103.128C76.0863 103.679 76.1461 104.237 76.3086 104.747C76.337 104.479 76.337 104.206 76.3086 103.938C76.2825 103.657 76.224 103.384 76.1352 103.128V103.128Z" fill="white"/>
<path d="M77.7108 122.271C77.6297 122.021 77.5745 121.756 77.5466 121.486C77.5466 121.405 77.5405 121.324 77.5283 121.243L77.6834 121.304C77.6834 121.352 77.6987 121.405 77.7047 121.454C77.7357 121.724 77.7377 122 77.7108 122.271V122.271Z" fill="white"/>
<path d="M78.313 100.844C78.5148 100.882 78.7196 100.882 78.9213 100.844C79.1307 100.809 79.3354 100.735 79.5296 100.626C79.1162 100.556 78.6963 100.635 78.313 100.852V100.844Z" fill="white"/>
<path d="M68.2544 114.659C68.4562 114.697 68.6609 114.697 68.8627 114.659C69.0665 114.626 69.2654 114.552 69.4528 114.441C69.251 114.403 69.0463 114.403 68.8445 114.441C68.6413 114.478 68.4428 114.551 68.2544 114.659V114.659Z" fill="white"/>
<path d="M72.5066 121.591C72.7084 121.629 72.9132 121.629 73.1149 121.591C73.3197 121.558 73.5196 121.484 73.708 121.373C73.5063 121.335 73.3015 121.335 73.0997 121.373C72.8955 121.409 72.6959 121.483 72.5066 121.591V121.591Z" fill="white"/>
<path d="M69.9818 129.56C70.1835 129.598 70.3883 129.598 70.5901 129.56C70.7948 129.526 70.9947 129.453 71.1832 129.341C70.7695 129.276 70.3501 129.355 69.9666 129.572L69.9818 129.56Z" fill="white"/>
<path d="M65.3681 124.021C65.5699 124.058 65.7747 124.058 65.9764 124.021C66.1802 123.987 66.3791 123.914 66.5665 123.802C66.1528 123.737 65.7334 123.816 65.3499 124.033L65.3681 124.021Z" fill="white"/>
<path d="M74.2921 107.651C74.4938 107.689 74.6986 107.689 74.9004 107.651C75.1052 107.617 75.305 107.544 75.4935 107.432C75.0798 107.367 74.6604 107.446 74.2769 107.663L74.2921 107.651Z" fill="white"/>
<path d="M81.5676 101.788C81.403 101.954 81.2575 102.152 81.1357 102.375C81.0097 102.591 80.9073 102.829 80.8315 103.083C80.9953 102.918 81.1398 102.722 81.2604 102.5C81.3875 102.283 81.4909 102.043 81.5676 101.788V101.788Z" fill="white"/>
<path d="M75.4965 111.214C75.3326 111.38 75.1881 111.578 75.0676 111.801C74.9411 112.016 74.8386 112.255 74.7634 112.509C74.9279 112.345 75.0725 112.149 75.1923 111.926C75.3194 111.71 75.4219 111.47 75.4965 111.214Z" fill="white"/>
<path d="M75.4965 124.146C75.3326 124.313 75.1881 124.511 75.0676 124.733C74.9411 124.949 74.8386 125.187 74.7634 125.442C74.9279 125.278 75.0725 125.081 75.1923 124.859C75.3194 124.642 75.4219 124.402 75.4965 124.146Z" fill="white"/>
<path d="M69.1669 125.891C68.8425 126.232 68.5899 126.678 68.4338 127.187C68.5984 127.021 68.743 126.823 68.8627 126.6C68.9892 126.384 69.0917 126.146 69.1669 125.891Z" fill="white"/>
<path d="M70.712 117.619C70.5498 117.787 70.4055 117.983 70.2832 118.202C70.1566 118.419 70.0542 118.659 69.979 118.915C70.142 118.749 70.2864 118.552 70.4079 118.332C70.534 118.115 70.6364 117.875 70.712 117.619V117.619Z" fill="white"/>
<path d="M75.1282 130.953C74.8052 131.294 74.5538 131.74 74.3982 132.248C74.7229 131.909 74.9747 131.462 75.1282 130.953V130.953Z" fill="white"/>
<path d="M75.1101 117.425L75.0401 117.579C74.9732 117.526 74.9093 117.465 74.8455 117.405C74.6799 117.243 74.5324 117.051 74.4075 116.834C74.5981 116.935 74.7772 117.072 74.9398 117.239C74.9975 117.299 75.0584 117.36 75.1101 117.425Z" fill="white"/>
<path d="M66.7487 119.401C66.623 119.185 66.4756 118.993 66.3107 118.83C66.1475 118.662 65.9673 118.526 65.7754 118.425C65.9003 118.642 66.0478 118.834 66.2134 118.996C66.3766 119.164 66.5568 119.3 66.7487 119.401Z" fill="white"/>
<path d="M72.017 125.511C71.8921 125.294 71.7446 125.101 71.579 124.94C71.4158 124.772 71.2356 124.636 71.0437 124.535C71.1697 124.752 71.3182 124.944 71.4847 125.106C71.6473 125.273 71.8264 125.409 72.017 125.511V125.511Z" fill="white"/>
<path d="M79.4565 106.383C79.3304 106.161 79.1808 105.965 79.0124 105.8C78.8498 105.631 78.6694 105.495 78.4771 105.395C78.6011 105.613 78.7487 105.806 78.915 105.966C79.0794 106.139 79.2617 106.28 79.4565 106.383Z" fill="white"/>
<path d="M72.239 110.878C71.9827 110.448 71.6475 110.113 71.2656 109.906C71.3906 110.123 71.538 110.315 71.7036 110.477C71.867 110.643 72.0473 110.778 72.239 110.878Z" fill="white"/>
<path d="M73.4132 131.248C73.617 130.888 75.0982 127.377 75.4085 126.604C75.7187 125.831 77.0084 122.693 77.276 121.863C77.2773 121.856 77.277 121.849 77.275 121.842C77.2731 121.836 77.2696 121.831 77.2652 121.827C77.2608 121.823 77.2556 121.822 77.2505 121.822C77.2453 121.823 77.2404 121.826 77.2365 121.83C76.8563 122.579 75.5484 125.741 75.2199 126.519C74.8914 127.296 73.4862 130.811 73.3706 131.224C73.3615 131.26 73.398 131.272 73.4132 131.248Z" fill="#263238"/>
<path d="M79.1222 121.814L78.9215 122.259C78.9215 122.259 78.8941 122.308 78.9215 122.259C78.9488 122.211 79.0583 121.879 79.0583 121.879C77.7504 121.474 76.4486 121.041 75.162 120.51C75.0008 120.441 74.8396 120.373 74.6784 120.292C74.5054 120.214 74.34 120.109 74.1856 119.98C74.1726 119.966 74.1604 119.951 74.1491 119.935C74.13 119.905 74.1146 119.871 74.1035 119.834C74.0921 119.771 74.0921 119.706 74.1035 119.644C74.1187 119.587 74.137 119.522 74.1552 119.47C74.1735 119.417 74.2282 119.259 74.2647 119.158C74.3407 118.955 74.4229 118.753 74.502 118.559C74.8244 117.749 75.1589 116.988 75.5026 116.214C76.1992 114.676 76.8927 113.137 77.6135 111.627C78.2949 110.193 79.0036 108.574 79.7184 107.173C79.7609 107.088 79.8704 107.011 79.7397 107.319C79.0827 108.886 78.4895 110.238 77.8112 111.772L75.7612 116.405C75.4205 117.178 75.0738 117.943 74.7483 118.725C74.6662 118.919 74.5841 119.129 74.508 119.312C74.4685 119.409 74.435 119.506 74.3985 119.603L74.3681 119.713L74.3468 119.692C74.3486 119.702 74.3486 119.711 74.3468 119.721C74.3468 119.721 74.3468 119.757 74.3468 119.745V119.717C74.4737 119.812 74.6059 119.895 74.7422 119.964L75.2106 120.194C75.8403 120.498 76.4821 120.769 77.1269 121.033L79.1222 121.814Z" fill="#263238"/>
<path d="M74.3679 119.717V119.745C74.3679 119.745 74.3679 119.725 74.3679 119.721C74.3713 119.711 74.3713 119.702 74.3679 119.692V119.717Z" fill="#263238"/>
<path d="M79.539 109.201C79.6302 109.108 79.6211 109.201 79.5785 109.254C79.3443 109.659 78.9854 110.084 78.7238 110.44C78.4172 110.864 78.09 111.26 77.7444 111.627C78.0141 111.16 78.3057 110.716 78.6173 110.299C78.9049 109.905 79.2129 109.538 79.539 109.201V109.201Z" fill="#263238"/>
<path d="M84.7916 102.82C83.7453 103.225 81.8595 101.201 81.0839 99.4878C81.0291 99.3704 81.1234 98.1031 81.1812 96.5564C81.2147 95.621 81.236 94.5723 81.2025 93.6168C81.2025 93.4224 85.765 94.795 85.765 94.795C85.55 96.0074 85.4478 97.2503 85.4608 98.4958C85.466 98.6322 85.4802 98.7677 85.5034 98.9007C85.5034 98.9007 85.5034 98.9412 85.5034 98.9655C85.625 99.6903 85.8015 102.435 84.7916 102.82Z" fill="#EB9481"/>
<path d="M81.4824 93.6249C81.747 95.2445 82.6413 99.087 85.0472 99.01C85.2014 99.0077 85.355 98.9874 85.5065 98.9493C85.5085 98.9278 85.5085 98.906 85.5065 98.8845C85.4841 98.7512 85.4689 98.6159 85.4609 98.4796C85.4489 97.2342 85.551 95.9914 85.7651 94.7788C85.7651 94.7788 82.4679 93.803 81.4824 93.6249Z" fill="#263238"/>
<path d="M86.8206 84.0531C86.8206 84.0531 88.2866 84.8629 88.5573 86.8388C88.828 88.8147 88.4904 90.8878 88.3627 90.9971C88.2349 91.1064 86.8206 84.0531 86.8206 84.0531Z" fill="#263238"/>
<path d="M80.6551 86.5553C80.2293 88.7054 81.2635 94.8072 82.4223 96.1191C84.1287 98.0221 86.8297 98.0747 88.022 95.374C89.1778 92.7584 87.7452 84.8467 86.4403 83.6563C84.518 81.9111 81.2848 83.3769 80.6551 86.5553Z" fill="#EB9481"/>
<path d="M85.3485 90.5719C85.3485 90.5719 85.3272 90.6003 85.3302 90.6165C85.4093 91.0214 85.4458 91.5113 85.1873 91.7259C85.1873 91.7259 85.1873 91.7542 85.1873 91.7502C85.5249 91.5882 85.4701 90.9444 85.3485 90.5719Z" fill="#263238"/>
<path d="M85.0013 90.2237C84.4964 90.3169 84.6759 91.6571 85.1443 91.568C85.6127 91.4789 85.4271 90.1468 85.0013 90.2237Z" fill="#263238"/>
<path d="M87.0939 90.1751C87.0939 90.1751 87.1213 90.1751 87.1213 90.2075C87.1669 90.6124 87.2734 91.0902 87.5715 91.1631V91.1874C87.2247 91.2238 87.0848 90.58 87.0939 90.1751Z" fill="#263238"/>
<path d="M87.3135 89.6771C87.8093 89.5071 88.0253 90.8351 87.569 90.993C87.1128 91.1509 86.8999 89.8188 87.3135 89.6771Z" fill="#263238"/>
<path d="M84.3994 89.2722C84.5338 89.2218 84.6658 89.161 84.7948 89.09C84.9414 89.0513 85.0741 88.9488 85.172 88.7985C85.1951 88.7433 85.2043 88.6797 85.1983 88.617C85.1923 88.5544 85.1713 88.4959 85.1385 88.4503C85.0616 88.3744 84.9707 88.3276 84.8754 88.3148C84.7801 88.3019 84.6839 88.3236 84.5971 88.3774C84.4092 88.4467 84.2476 88.607 84.1439 88.8268C84.1229 88.8789 84.1136 88.9379 84.1172 88.9969C84.1207 89.0558 84.137 89.1121 84.1639 89.1591C84.1908 89.206 84.2274 89.2417 84.2692 89.2618C84.3109 89.2818 84.3561 89.2855 84.3994 89.2722V89.2722Z" fill="#263238"/>
<path d="M87.6448 88.592C87.5054 88.5872 87.3663 88.5723 87.2281 88.5475C87.0793 88.5593 86.9317 88.5052 86.8084 88.3936C86.7747 88.3486 86.7532 88.2901 86.7471 88.2271C86.7411 88.1641 86.7508 88.1002 86.7749 88.0454C86.8348 87.9464 86.9135 87.8706 87.0028 87.8258C87.0921 87.7809 87.1888 87.7687 87.2829 87.7903C87.4783 87.7967 87.6653 87.8974 87.8091 88.0737C87.8397 88.1171 87.8602 88.1714 87.8681 88.2301C87.876 88.2887 87.8709 88.3491 87.8535 88.4039C87.8361 88.4588 87.8072 88.5058 87.7701 88.5391C87.7331 88.5725 87.6896 88.5909 87.6448 88.592V88.592Z" fill="#263238"/>
<path d="M85.3394 94.548C85.4213 94.6549 85.5291 94.7195 85.6435 94.7303C85.7589 94.6978 85.8683 94.6359 85.966 94.548C85.966 94.548 85.9873 94.548 85.9812 94.548C85.9477 94.6403 85.8961 94.7187 85.8319 94.7751C85.7676 94.8314 85.693 94.8635 85.6162 94.8679C85.5477 94.8632 85.4819 94.8309 85.4276 94.7752C85.3732 94.7195 85.3329 94.6431 85.312 94.5561C85.312 94.5561 85.3272 94.5359 85.3394 94.548Z" fill="#263238"/>
<path d="M85.5032 93.2483C85.6036 93.3943 85.7258 93.5108 85.862 93.5903C85.9981 93.6698 86.1453 93.7105 86.294 93.7099C86.4234 93.7126 86.5525 93.6908 86.6772 93.6451L86.7502 93.6168L86.8172 93.5884C86.8328 93.5792 86.8459 93.5637 86.8547 93.5441C86.8634 93.5245 86.8673 93.5018 86.8658 93.4791V93.4791C86.8668 93.4656 86.8668 93.4521 86.8658 93.4386V93.4386V93.4022C86.8324 93.0823 86.7442 92.5924 86.7442 92.5924C86.8385 92.6329 87.3221 92.7948 87.2917 92.6288C87.0732 91.1899 86.745 89.7843 86.3122 88.4341C86.3084 88.4273 86.3031 88.4223 86.297 88.4197C86.2909 88.4172 86.2844 88.4173 86.2783 88.42C86.2722 88.4226 86.267 88.4278 86.2632 88.4347C86.2595 88.4416 86.2575 88.4499 86.2575 88.4584C86.4552 89.7824 86.8232 91.0538 87.0392 92.3818C86.8668 92.3198 86.6885 92.2912 86.51 92.2968C86.4795 92.3171 86.6925 93.22 86.6985 93.3657C86.5058 93.4382 86.304 93.458 86.1054 93.4239C85.9067 93.3898 85.7154 93.3025 85.5427 93.1673C85.5001 93.1673 85.4788 93.1997 85.5032 93.2483Z" fill="#263238"/>
<path d="M86.5166 93.4953C86.4155 93.755 86.2657 93.9754 86.0816 94.1351C85.979 94.2168 85.8602 94.2549 85.7409 94.2444C85.4824 94.216 85.4368 93.9124 85.4368 93.6411C85.444 93.4969 85.4634 93.3543 85.4946 93.2159C85.8036 93.4536 86.1622 93.5516 86.5166 93.4953Z" fill="#263238"/>
<path d="M86.0816 94.135C85.979 94.2168 85.8602 94.2549 85.7409 94.2444C85.4824 94.216 85.4368 93.9124 85.4368 93.6411C85.5702 93.6168 85.7058 93.6522 85.8225 93.7415C85.9392 93.8309 86.0303 93.9693 86.0816 94.135Z" fill="#FF98B9"/>
<path d="M81.2572 92.3414C81.7986 92.4385 82.1332 90.248 82.2001 89.422C82.2609 88.6932 82.1544 86.442 82.1605 86.2881C82.1666 86.1342 84.6455 87.7457 85.8774 86.9562C87.1093 86.1666 87.7815 84.4256 87.7024 83.717C87.6233 83.0084 85.7922 81.5143 84.387 81.7289C82.9818 81.9435 81.3971 84.7131 81.3971 84.7131C81.5802 84.3249 81.7408 83.9189 81.8777 83.4984C81.8442 83.4174 81.0047 84.0976 80.9469 84.9843C80.9469 84.9843 80.9895 83.8749 80.9195 83.8709C80.8496 83.8668 80.2656 84.9398 80.5089 85.5957C80.5089 85.5957 79.8185 86.7092 79.8732 87.7457C79.928 88.7823 80.6245 92.228 81.2572 92.3414Z" fill="#263238"/>
<path d="M86.7503 86.3893C86.4029 86.7522 86.0149 87.0405 85.6006 87.2437C85.1306 87.4036 84.638 87.4036 84.168 87.2437C83.6941 87.1137 83.2397 86.8797 82.8236 86.5513C82.4525 86.2679 82.1118 85.9034 81.7286 85.6646C81.6312 85.6038 81.5522 85.7941 81.6191 85.8873C82.3319 86.842 83.2564 87.4666 84.2562 87.6688C84.7207 87.7634 85.1957 87.6955 85.6346 87.4719C86.0734 87.2483 86.4611 86.8766 86.7594 86.3934C86.7594 86.3934 86.7564 86.3853 86.7503 86.3893Z" fill="#263238"/>
<path d="M81.7837 91.5113C81.7837 91.5113 80.6552 89.6083 80.0013 90.1549C79.3473 90.7015 80.2568 93.5196 81.0659 93.8516C81.1679 93.9034 81.2768 93.9272 81.386 93.9217C81.4952 93.9161 81.6024 93.8813 81.7012 93.8193C81.8 93.7573 81.8884 93.6694 81.9611 93.5609C82.0339 93.4523 82.0894 93.3254 82.1243 93.1876L81.7837 91.5113Z" fill="#EB9481"/>
<path d="M80.2749 90.9525C80.2749 90.9525 80.2749 90.9768 80.2749 90.9809C80.8467 91.24 81.1691 91.9041 81.4064 92.6005C81.3707 92.5287 81.3237 92.4682 81.2687 92.4229C81.2136 92.3777 81.1519 92.3489 81.0877 92.3385C81.0235 92.3281 80.9584 92.3364 80.8968 92.3627C80.8353 92.3891 80.7788 92.4329 80.7311 92.4912C80.7311 92.4912 80.7311 92.5357 80.7494 92.5276C80.8456 92.479 80.9507 92.4713 81.0504 92.5053C81.15 92.5394 81.2393 92.6136 81.306 92.7179C81.4165 92.8925 81.5123 93.0826 81.5919 93.2848C81.6224 93.3495 81.7106 93.3091 81.6893 93.2321C81.6528 92.2685 81.0414 90.989 80.2749 90.9525Z" fill="#263238"/>
<path d="M80.5335 99.9373C81.0319 100.746 81.564 101.516 82.1273 102.245C82.6441 102.959 83.3207 103.43 84.0557 103.589C84.7705 103.674 85.4853 103.48 85.7469 102.318C85.9323 101.318 85.95 100.275 85.7986 99.2651C85.7971 99.2596 85.7967 99.2538 85.7973 99.248C85.7979 99.2422 85.7996 99.2368 85.8021 99.232C85.8046 99.2273 85.808 99.2234 85.8119 99.2208C85.8157 99.2181 85.82 99.2167 85.8244 99.2167C85.8288 99.2167 85.8331 99.2181 85.837 99.2208C85.8408 99.2234 85.8442 99.2273 85.8467 99.232C85.8493 99.2368 85.8509 99.2422 85.8515 99.248C85.8521 99.2538 85.8517 99.2596 85.8503 99.2651C86.0145 100.783 86.1848 103.14 85.1476 103.666C83.9857 104.258 82.8451 103.46 82.0269 102.391C81.4542 101.658 80.9441 100.844 80.5061 99.9615C80.5152 99.9413 80.5335 99.9211 80.5335 99.9373Z" fill="#263238"/>
</svg>
