<svg width="200" height="161" viewBox="0 0 200 161" fill="none" xmlns="http://www.w3.org/2000/svg">
<path d="M94.7554 156.744C137.136 156.744 171.493 155.27 171.493 153.451C171.493 151.632 137.136 150.157 94.7554 150.157C52.3747 150.157 18.0183 151.632 18.0183 153.451C18.0183 155.27 52.3747 156.744 94.7554 156.744Z" fill="#FF725E"/>
<path opacity="0.7" d="M94.7554 156.744C137.136 156.744 171.493 155.27 171.493 153.451C171.493 151.632 137.136 150.157 94.7554 150.157C52.3747 150.157 18.0183 151.632 18.0183 153.451C18.0183 155.27 52.3747 156.744 94.7554 156.744Z" fill="white"/>
<path d="M185.062 161C193.312 161 200 159.7 200 158.097C200 156.494 193.312 155.194 185.062 155.194C176.812 155.194 170.124 156.494 170.124 158.097C170.124 159.7 176.812 161 185.062 161Z" fill="#FF725E"/>
<path opacity="0.7" d="M185.062 161C193.312 161 200 159.7 200 158.097C200 156.494 193.312 155.194 185.062 155.194C176.812 155.194 170.124 156.494 170.124 158.097C170.124 159.7 176.812 161 185.062 161Z" fill="white"/>
<path d="M48.4128 143.961C47.7305 143.057 46.788 141.751 45.6982 140.146C45.3889 139.684 45.0747 139.193 44.7557 138.68C44.9864 138.554 46.8812 137.529 47.4703 136.773C48.0152 136.096 48.4521 135.092 48.1085 134.286C47.9731 133.92 47.6739 133.615 47.2764 133.438C46.8789 133.261 46.4155 133.226 45.9878 133.341L45.816 133.395C44.52 133.92 44.0979 136.096 44.2599 137.176C44.2599 137.239 44.5053 138.05 44.6329 138.462L44.0537 137.533C43.7739 137.067 43.5088 136.567 43.2142 136.088L42.8117 135.311C42.6693 135.05 42.5663 134.79 42.4435 134.525C42.2717 134.134 42.1146 133.723 41.9526 133.311C42.4975 133.093 44.1911 132.429 44.8097 131.845C45.4282 131.261 46.0664 130.316 45.8945 129.463C45.8256 129.085 45.5845 128.745 45.2239 128.518C44.8634 128.292 44.4127 128.196 43.9702 128.253L43.7837 128.287C42.4141 128.635 41.609 130.732 41.5796 131.824C41.5807 132.007 41.5971 132.189 41.6286 132.37C41.4912 131.95 41.3488 131.559 41.2261 131.148C40.8727 129.971 40.5585 128.766 40.2443 127.564C40.1805 127.312 40.1118 127.06 40.0381 126.812C40.529 126.631 42.3306 125.917 42.9835 125.304C43.6364 124.691 44.2451 123.775 44.0684 122.926C43.9983 122.547 43.7555 122.206 43.3931 121.98C43.0306 121.753 42.5781 121.658 42.1343 121.716L41.9575 121.75C40.5879 122.099 39.7829 124.199 39.7534 125.291C39.7534 125.329 39.7534 125.606 39.8123 125.913C39.6258 125.262 39.4294 124.611 39.2134 123.972C38.8458 122.874 38.3949 121.798 37.8635 120.75C38.0353 120.691 40.1756 119.91 40.8972 119.212C41.5403 118.608 42.1588 117.683 41.9821 116.839C41.9143 116.459 41.673 116.118 41.3112 115.89C40.9494 115.662 40.4968 115.567 40.0529 115.625C39.9913 115.632 39.9305 115.643 39.8712 115.658C38.5016 116.007 37.7015 118.108 37.6671 119.2C37.6671 119.271 37.7702 120.271 37.8242 120.628V120.595C37.2701 119.577 36.613 118.603 35.8606 117.683C35.1871 116.864 34.4611 116.077 33.6859 115.327C32.9741 114.625 32.2721 114.02 31.6487 113.47C31.3051 113.184 30.986 112.928 30.6669 112.692C30.6669 112.692 29.9993 111.327 29.9453 111.243C29.3071 110.311 27.4221 108.794 26.0181 109.054C25.5833 109.146 25.2087 109.381 24.9768 109.709C24.7448 110.037 24.6744 110.43 24.781 110.802C24.781 110.852 24.8154 110.903 24.835 110.953C25.1443 111.793 26.2095 112.348 27.1128 112.6C28.016 112.852 30.0582 112.739 30.5491 112.701C30.8534 112.953 31.1774 113.222 31.5309 113.541C32.1396 114.083 32.8268 114.696 33.4945 115.398C33.681 115.587 33.8676 115.818 34.0394 115.999C33.6368 115.717 33.0821 115.335 33.0232 115.301C31.9383 114.717 29.4593 114.125 28.3646 114.906C28.1969 115.031 28.0594 115.182 27.9602 115.352C27.861 115.521 27.8019 115.706 27.7864 115.895C27.7709 116.085 27.7993 116.275 27.8698 116.455C27.9404 116.635 28.0518 116.801 28.1977 116.944C28.2367 116.987 28.2812 117.027 28.3302 117.062C29.0518 117.667 30.2938 117.742 31.2363 117.62C32.1789 117.498 33.951 116.557 34.3634 116.36C34.7708 116.826 35.1782 117.288 35.571 117.797C36.2916 118.715 36.9159 119.687 37.4364 120.7C37.4658 120.758 37.4855 120.821 37.5198 120.88C37.3529 120.716 36.3466 119.847 36.2631 119.788C35.2813 119.107 32.8759 118.284 31.6831 118.948C31.3143 119.17 31.0638 119.509 30.9865 119.889C30.9092 120.27 31.0114 120.661 31.2707 120.977C31.304 121.017 31.3401 121.054 31.3787 121.09C32.012 121.762 33.2392 121.931 34.1915 121.931C35.2764 121.901 37.4511 120.964 37.5346 120.926C38.024 121.949 38.4324 122.999 38.7569 124.069C39.0072 124.854 39.2183 125.665 39.4196 126.476C39.1987 126.262 38.2611 125.455 38.1874 125.405C37.2057 124.72 34.8003 123.897 33.6025 124.565C33.2342 124.784 32.9829 125.12 32.9037 125.498C32.8246 125.876 32.924 126.266 33.1803 126.581L33.2932 126.707C33.9363 127.375 35.1586 127.547 36.111 127.547C37.2007 127.514 39.2625 126.615 39.4343 126.552C39.5276 126.917 39.6258 127.291 39.7141 127.657C40.0087 128.871 40.2934 130.085 40.6223 131.274C40.7303 131.694 40.8579 132.114 40.9856 132.496C40.637 132.181 40.0038 131.622 39.9252 131.568C38.9434 130.879 36.5331 130.06 35.3402 130.727C34.9717 130.948 34.7202 131.284 34.6411 131.663C34.562 132.042 34.6616 132.432 34.9181 132.748C34.953 132.791 34.9907 132.831 35.031 132.87C35.6741 133.542 36.8964 133.731 37.8487 133.71C38.8011 133.689 40.5683 132.967 41.0641 132.782C41.285 133.45 41.5157 134.118 41.7808 134.756C41.9085 135.034 42.0115 135.319 42.1392 135.596C42.2668 135.874 42.3944 136.122 42.527 136.378C42.8068 136.903 43.067 137.39 43.3468 137.873C43.4842 138.117 43.6217 138.34 43.7591 138.579C43.4597 138.218 42.9786 137.651 42.9246 137.605C42.0606 136.794 39.8369 135.676 38.5409 136.185C38.3411 136.268 38.1625 136.384 38.0153 136.527C37.8682 136.669 37.7553 136.835 37.6833 137.015C37.6112 137.195 37.5814 137.385 37.5954 137.575C37.6095 137.765 37.6672 137.951 37.7653 138.121C37.7653 138.167 37.8242 138.214 37.8536 138.26C38.3985 139.008 39.5472 139.352 40.4947 139.445C41.5403 139.55 43.6855 138.978 43.931 138.894C44.2697 139.474 44.6084 140.029 44.9127 140.549C45.9534 142.192 46.8763 143.52 47.5538 144.448C48.2312 145.376 48.6387 145.893 48.6387 145.893C48.6755 145.941 48.7233 145.981 48.7791 146.013C48.8349 146.044 48.8976 146.065 48.9633 146.075C49.029 146.085 49.0963 146.083 49.1612 146.07C49.2261 146.057 49.2871 146.032 49.3406 145.998C49.3955 145.967 49.4424 145.926 49.4784 145.879C49.5145 145.831 49.539 145.778 49.5504 145.722C49.5619 145.667 49.5601 145.609 49.5451 145.554C49.5302 145.499 49.5024 145.447 49.4634 145.402C49.4634 145.402 49.105 144.86 48.4128 143.961Z" fill="#FF725E"/>
<path d="M34.3948 116.125C34.3948 116.125 36.3584 114.793 36.8787 113.936C37.3058 113.213 37.6151 112.18 37.1684 111.415C36.9859 111.066 36.6487 110.792 36.2308 110.655C35.8129 110.518 35.3485 110.529 34.9397 110.684L34.7728 110.756C33.5603 111.403 33.4277 113.608 33.737 114.671C33.7812 114.751 34.3948 116.137 34.3948 116.125Z" fill="#FF725E"/>
<path d="M47.2736 144.75C46.1249 144.33 44.4853 143.688 42.561 142.852C42.021 142.612 41.4221 142.352 40.8233 142.07C40.946 141.86 41.859 140.108 41.8541 139.205C41.8541 138.39 41.5891 137.344 40.7693 136.832C40.4223 136.589 39.977 136.475 39.5315 136.513C39.0859 136.552 38.6765 136.74 38.3933 137.037L38.2804 137.168C37.5391 138.218 38.5848 140.234 39.4242 141.058C39.4782 141.117 40.1949 141.675 40.5631 141.961L39.4782 141.448C38.9333 141.192 38.3933 140.911 37.8484 140.638L37.0237 140.171C36.7341 140.024 36.4788 139.852 36.2088 139.705C35.8112 139.466 35.4136 139.197 35.0257 138.928C35.3596 138.462 36.3168 137.134 36.4592 136.353C36.6015 135.571 36.5181 134.492 35.8161 133.866C35.5174 133.58 35.0987 133.407 34.6516 133.385C34.2045 133.363 33.7654 133.494 33.4303 133.748C33.3837 133.785 33.3394 133.824 33.2978 133.866C32.3798 134.794 33.0573 136.932 33.7347 137.857C33.8546 138.004 33.9858 138.144 34.1274 138.277C33.7543 138.004 33.3714 137.731 33.0033 137.437C31.9576 136.622 30.912 135.756 29.8713 134.916L29.2037 134.387C29.4884 134.013 30.5439 132.563 30.6764 131.748C30.8089 130.933 30.7353 129.887 30.0333 129.257C29.885 129.115 29.7054 129 29.5049 128.917C29.3043 128.835 29.0867 128.787 28.8645 128.777C28.6424 128.767 28.4201 128.795 28.2104 128.858C28.0007 128.922 27.8077 129.02 27.6426 129.148L27.515 129.257C26.597 130.186 27.2745 132.328 27.9568 133.252C28.0919 133.425 28.2412 133.589 28.4035 133.744C27.8292 133.286 27.245 132.836 26.6559 132.408C25.6438 131.664 24.5745 130.979 23.4553 130.358C23.5584 130.223 24.8347 128.556 24.9967 127.644C25.1391 126.833 25.0556 125.783 24.3536 125.153C24.2042 125.011 24.0234 124.895 23.8216 124.813C23.6198 124.731 23.401 124.684 23.1779 124.675C22.9548 124.665 22.7317 124.694 22.5215 124.759C22.3113 124.823 22.1181 124.923 21.9531 125.052L21.8353 125.153C20.9173 126.081 21.5948 128.224 22.2722 129.148C22.3213 129.215 23.0577 129.988 23.3277 130.27L23.2884 130.244C22.1721 129.659 20.9975 129.158 19.7785 128.749C18.6885 128.386 17.5757 128.077 16.4453 127.82C15.3997 127.568 14.4228 127.4 13.5588 127.249C13.0679 127.173 12.6604 127.11 12.2628 127.052C12.2628 127.052 10.8196 126.232 10.7214 126.19C9.58252 125.703 7.03476 125.35 6.03824 126.211C5.73437 126.495 5.57409 126.87 5.59249 127.254C5.61089 127.638 5.80648 128 6.13642 128.261L6.27387 128.358C7.06422 128.9 8.30619 128.858 9.21926 128.656C10.1323 128.455 11.767 127.396 12.1646 127.115C12.5819 127.178 13.0286 127.253 13.5146 127.341C14.3737 127.505 15.3408 127.694 16.3765 127.963C16.6564 128.035 16.9214 128.123 17.2307 128.198C16.7398 128.152 16.0084 128.093 15.9446 128.098C14.6633 128.098 12.2137 128.795 11.7965 129.959C11.7371 130.142 11.7207 130.334 11.7483 130.523C11.776 130.712 11.8471 130.894 11.9576 131.059C12.068 131.224 12.2156 131.369 12.3919 131.485C12.5681 131.601 12.7695 131.687 12.9844 131.736C13.0422 131.751 13.1013 131.762 13.1612 131.769C14.143 131.937 15.2377 131.412 15.9446 130.841C16.6514 130.27 17.5743 128.656 17.7314 128.32C18.3598 128.501 19.0078 128.703 19.6606 128.946C20.8579 129.371 22.008 129.887 23.0969 130.488L23.2786 130.606C23.0282 130.547 21.6488 130.295 21.5359 130.286C20.2595 130.19 17.7363 130.631 17.1914 131.761C17.1103 131.939 17.0713 132.13 17.0769 132.321C17.0824 132.512 17.1323 132.701 17.2236 132.876C17.3149 133.05 17.4459 133.208 17.6089 133.339C17.772 133.47 17.9638 133.572 18.1732 133.639C18.2278 133.658 18.2835 133.675 18.3401 133.689C19.3219 133.945 20.4461 133.525 21.2217 133.051C22.1151 132.505 23.3178 130.698 23.362 130.635C24.4272 131.257 25.4439 131.938 26.4056 132.673C27.1223 133.219 27.8243 133.79 28.5164 134.353C28.1875 134.286 26.8867 134.05 26.7885 134.042C25.522 133.941 22.9889 134.387 22.444 135.512C22.2797 135.869 22.2871 136.267 22.4646 136.619C22.6422 136.971 22.9755 137.248 23.3915 137.39L23.5682 137.441C24.55 137.701 25.6791 137.281 26.4547 136.802C27.3236 136.269 28.487 134.55 28.5803 134.403L29.5277 135.202C30.5537 136.067 31.5747 136.949 32.6105 137.785C32.9689 138.075 33.342 138.352 33.7003 138.625C33.2094 138.529 32.3013 138.369 32.2276 138.361C30.9513 138.264 28.4232 138.709 27.8832 139.835C27.801 140.012 27.7602 140.2 27.7631 140.39C27.7659 140.579 27.8125 140.767 27.9 140.941C27.9875 141.116 28.1143 141.274 28.2731 141.406C28.432 141.538 28.6197 141.643 28.8257 141.713L29.0073 141.764C29.9891 142.02 31.1133 141.6 31.8889 141.125C32.6645 140.65 33.6807 139.222 33.9605 138.802C34.5741 139.268 35.1927 139.705 35.8259 140.113C36.1106 140.285 36.3708 140.474 36.6555 140.629L37.4802 141.091C38.0546 141.394 38.5651 141.68 39.1051 141.953L39.9053 142.348C39.4144 142.184 38.6486 141.927 38.5798 141.927C37.3379 141.663 34.7803 141.776 34.0096 142.818C33.8974 142.982 33.8241 143.164 33.794 143.353C33.7638 143.541 33.7774 143.733 33.8339 143.917C33.8904 144.102 33.9888 144.274 34.1234 144.426C34.258 144.578 34.4262 144.705 34.6183 144.801C34.6702 144.828 34.7243 144.852 34.7803 144.872C35.6836 145.246 36.8912 144.982 37.7257 144.616C38.6633 144.196 40.0771 142.709 40.2489 142.516C40.9067 142.839 41.5449 143.146 42.1536 143.419C44.073 144.297 45.7126 144.969 46.8711 145.427C48.0296 145.885 48.6972 146.124 48.6972 146.124C48.8222 146.165 48.961 146.161 49.083 146.115C49.2049 146.068 49.3002 145.981 49.3477 145.874C49.3952 145.767 49.3911 145.649 49.3364 145.544C49.2816 145.44 49.1806 145.358 49.0556 145.318C49.0556 145.318 48.4322 145.171 47.2736 144.75Z" fill="#FF725E"/>
<path d="M17.6632 128.148C17.6632 128.148 18.4486 126.106 18.321 125.157C18.2081 124.342 17.7761 123.338 16.9367 122.901C16.557 122.695 16.0973 122.626 15.6583 122.709C15.2194 122.793 14.837 123.022 14.5951 123.346C14.5619 123.389 14.5324 123.434 14.5067 123.481C13.9078 124.598 15.2234 126.497 16.1709 127.232C16.2494 127.299 17.6583 128.173 17.6632 128.148Z" fill="#FF725E"/>
<g opacity="0.4">
<path opacity="0.4" d="M48.4128 143.961C47.7305 143.057 46.788 141.751 45.6982 140.146C45.3889 139.684 45.0747 139.192 44.7557 138.68C44.9864 138.554 46.8812 137.529 47.4703 136.773C48.0152 136.096 48.4521 135.092 48.1085 134.286C47.9731 133.92 47.6739 133.615 47.2764 133.438C46.8789 133.261 46.4155 133.226 45.9878 133.34L45.816 133.395C44.52 133.92 44.0979 136.096 44.2599 137.176C44.2599 137.239 44.5053 138.05 44.6329 138.462L44.0537 137.533C43.7739 137.067 43.5088 136.567 43.2142 136.088L42.8117 135.311C42.6693 135.05 42.5663 134.79 42.4435 134.525C42.2717 134.134 42.1146 133.723 41.9526 133.311C42.4975 133.093 44.1911 132.429 44.8097 131.845C45.4282 131.261 46.0664 130.316 45.8945 129.463C45.8256 129.085 45.5845 128.745 45.2239 128.518C44.8634 128.292 44.4127 128.196 43.9702 128.253L43.7837 128.287C42.4141 128.635 41.609 130.732 41.5796 131.824C41.5807 132.007 41.5971 132.189 41.6286 132.37C41.4912 131.95 41.3488 131.559 41.2261 131.148C40.8727 129.971 40.5585 128.766 40.2443 127.564C40.1805 127.312 40.1118 127.06 40.0381 126.812C40.529 126.631 42.3306 125.917 42.9835 125.304C43.6364 124.691 44.2451 123.775 44.0684 122.926C43.9983 122.547 43.7555 122.206 43.3931 121.98C43.0306 121.753 42.5781 121.658 42.1343 121.716L41.9575 121.75C40.5879 122.099 39.7829 124.199 39.7534 125.291C39.7534 125.329 39.7534 125.606 39.8123 125.913C39.6258 125.262 39.4294 124.611 39.2134 123.972C38.8458 122.874 38.3949 121.798 37.8635 120.75C38.0353 120.691 40.1756 119.91 40.8972 119.212C41.5403 118.608 42.1588 117.683 41.9821 116.839C41.9143 116.459 41.673 116.118 41.3112 115.89C40.9494 115.662 40.4968 115.567 40.0529 115.625C39.9913 115.632 39.9305 115.643 39.8712 115.658C38.5016 116.007 37.7015 118.108 37.6671 119.2C37.6671 119.271 37.7702 120.271 37.8242 120.628V120.595C37.2701 119.577 36.613 118.603 35.8606 117.683C35.1871 116.864 34.4611 116.077 33.6859 115.327C32.9741 114.625 32.2721 114.02 31.6487 113.47C31.3051 113.184 30.986 112.928 30.6669 112.692C30.6669 112.692 29.9993 111.327 29.9453 111.243C29.3071 110.31 27.4221 108.794 26.0181 109.054C25.5833 109.146 25.2087 109.381 24.9768 109.709C24.7448 110.037 24.6744 110.43 24.781 110.802C24.781 110.852 24.8154 110.903 24.835 110.953C25.1443 111.793 26.2095 112.348 27.1128 112.6C28.016 112.852 30.0582 112.739 30.5491 112.701C30.8534 112.953 31.1774 113.222 31.5309 113.541C32.1396 114.083 32.8268 114.696 33.4945 115.398C33.681 115.587 33.8676 115.818 34.0394 115.999C33.6368 115.717 33.0821 115.335 33.0232 115.301C31.9383 114.717 29.4593 114.125 28.3646 114.906C28.1969 115.031 28.0594 115.182 27.9602 115.352C27.861 115.521 27.8019 115.706 27.7864 115.895C27.7709 116.085 27.7993 116.275 27.8698 116.455C27.9404 116.635 28.0518 116.801 28.1977 116.944C28.2367 116.987 28.2812 117.027 28.3302 117.062C29.0518 117.666 30.2938 117.742 31.2363 117.62C32.1789 117.498 33.951 116.557 34.3634 116.36C34.7708 116.826 35.1782 117.288 35.571 117.797C36.2916 118.715 36.9159 119.687 37.4364 120.7C37.4658 120.758 37.4855 120.821 37.5198 120.88C37.3529 120.716 36.3466 119.847 36.2631 119.788C35.2813 119.107 32.8759 118.284 31.6831 118.948C31.3143 119.17 31.0638 119.509 30.9865 119.889C30.9092 120.27 31.0114 120.661 31.2707 120.977C31.304 121.017 31.3401 121.054 31.3787 121.09C32.012 121.762 33.2392 121.931 34.1915 121.931C35.2764 121.901 37.4511 120.964 37.5346 120.926C38.024 121.949 38.4324 122.999 38.7569 124.069C39.0072 124.854 39.2183 125.665 39.4196 126.476C39.1987 126.262 38.2611 125.455 38.1874 125.405C37.2057 124.72 34.8003 123.897 33.6025 124.565C33.2342 124.784 32.9829 125.12 32.9037 125.498C32.8246 125.876 32.924 126.266 33.1803 126.581L33.2932 126.707C33.9363 127.375 35.1586 127.547 36.111 127.547C37.2007 127.514 39.2625 126.615 39.4343 126.552C39.5276 126.917 39.6258 127.291 39.7141 127.656C40.0087 128.871 40.2934 130.085 40.6223 131.274C40.7303 131.694 40.8579 132.114 40.9856 132.496C40.637 132.181 40.0038 131.622 39.9252 131.568C38.9434 130.879 36.5331 130.059 35.3402 130.727C34.9717 130.948 34.7202 131.284 34.6411 131.663C34.562 132.042 34.6616 132.432 34.9181 132.748C34.953 132.791 34.9907 132.831 35.031 132.87C35.6741 133.542 36.8964 133.731 37.8487 133.71C38.8011 133.689 40.5683 132.967 41.0641 132.782C41.285 133.45 41.5157 134.118 41.7808 134.756C41.9085 135.033 42.0115 135.319 42.1392 135.596C42.2668 135.874 42.3944 136.122 42.527 136.378C42.8068 136.903 43.067 137.39 43.3468 137.873C43.4842 138.117 43.6217 138.34 43.7591 138.579C43.4597 138.218 42.9786 137.651 42.9246 137.605C42.0606 136.794 39.8369 135.676 38.5409 136.185C38.3411 136.268 38.1625 136.384 38.0153 136.527C37.8682 136.669 37.7553 136.835 37.6833 137.015C37.6112 137.195 37.5814 137.385 37.5954 137.575C37.6095 137.765 37.6672 137.951 37.7653 138.121C37.7653 138.167 37.8242 138.214 37.8536 138.26C38.3985 139.008 39.5472 139.352 40.4947 139.445C41.5403 139.55 43.6855 138.978 43.931 138.894C44.2697 139.474 44.6084 140.028 44.9127 140.549C45.9534 142.192 46.8763 143.52 47.5538 144.448C48.2312 145.376 48.6387 145.893 48.6387 145.893C48.6755 145.941 48.7233 145.981 48.7791 146.013C48.8349 146.044 48.8976 146.065 48.9633 146.075C49.029 146.085 49.0963 146.083 49.1612 146.07C49.2261 146.057 49.2871 146.032 49.3406 145.998C49.3955 145.967 49.4424 145.926 49.4784 145.879C49.5145 145.831 49.539 145.778 49.5504 145.722C49.5619 145.667 49.5601 145.609 49.5451 145.554C49.5302 145.499 49.5024 145.447 49.4634 145.402C49.4634 145.402 49.105 144.86 48.4128 143.961Z" fill="white"/>
<path opacity="0.4" d="M34.3948 116.125C34.3948 116.125 36.3584 114.793 36.8787 113.936C37.3058 113.213 37.6151 112.18 37.1684 111.415C36.9859 111.066 36.6487 110.792 36.2308 110.655C35.8129 110.518 35.3485 110.529 34.9397 110.684L34.7728 110.756C33.5603 111.403 33.4277 113.608 33.737 114.671C33.7812 114.751 34.3948 116.137 34.3948 116.125Z" fill="white"/>
<path opacity="0.4" d="M47.2736 144.75C46.1249 144.33 44.4853 143.688 42.561 142.852C42.021 142.612 41.4221 142.352 40.8233 142.07C40.946 141.86 41.859 140.108 41.8541 139.205C41.8541 138.39 41.5891 137.344 40.7693 136.832C40.4223 136.589 39.977 136.475 39.5315 136.513C39.0859 136.552 38.6765 136.74 38.3933 137.037L38.2804 137.168C37.5391 138.218 38.5848 140.234 39.4242 141.058C39.4782 141.117 40.1949 141.675 40.5631 141.961L39.4782 141.448C38.9333 141.192 38.3933 140.911 37.8484 140.638L37.0237 140.171C36.7341 140.024 36.4788 139.852 36.2088 139.705C35.8112 139.466 35.4136 139.197 35.0257 138.928C35.3596 138.462 36.3168 137.134 36.4592 136.353C36.6015 135.571 36.5181 134.492 35.8161 133.866C35.5174 133.58 35.0987 133.407 34.6516 133.385C34.2045 133.363 33.7654 133.494 33.4303 133.748C33.3837 133.785 33.3394 133.824 33.2978 133.866C32.3798 134.794 33.0573 136.932 33.7347 137.857C33.8546 138.004 33.9858 138.144 34.1274 138.277C33.7543 138.004 33.3714 137.731 33.0033 137.437C31.9576 136.622 30.912 135.756 29.8713 134.916L29.2037 134.387C29.4884 134.013 30.5439 132.563 30.6764 131.748C30.8089 130.933 30.7353 129.887 30.0333 129.257C29.885 129.115 29.7054 129 29.5049 128.917C29.3043 128.835 29.0867 128.787 28.8645 128.777C28.6424 128.767 28.4201 128.795 28.2104 128.858C28.0007 128.922 27.8077 129.02 27.6426 129.148L27.515 129.257C26.597 130.186 27.2745 132.328 27.9568 133.252C28.0919 133.425 28.2412 133.589 28.4035 133.744C27.8292 133.286 27.245 132.836 26.6559 132.408C25.6438 131.664 24.5745 130.979 23.4553 130.358C23.5584 130.223 24.8347 128.556 24.9967 127.644C25.1391 126.833 25.0556 125.783 24.3536 125.153C24.2042 125.011 24.0234 124.895 23.8216 124.813C23.6198 124.731 23.401 124.684 23.1779 124.675C22.9548 124.665 22.7317 124.694 22.5215 124.759C22.3113 124.823 22.1181 124.923 21.9531 125.052L21.8353 125.153C20.9173 126.081 21.5948 128.224 22.2722 129.148C22.3213 129.215 23.0577 129.988 23.3277 130.27L23.2884 130.244C22.1721 129.659 20.9975 129.158 19.7785 128.749C18.6885 128.386 17.5757 128.077 16.4453 127.82C15.3997 127.568 14.4228 127.4 13.5588 127.249C13.0679 127.173 12.6604 127.11 12.2628 127.052C12.2628 127.052 10.8196 126.232 10.7214 126.19C9.58252 125.703 7.03476 125.35 6.03824 126.211C5.73437 126.495 5.57409 126.87 5.59249 127.254C5.61089 127.638 5.80648 128 6.13642 128.261L6.27387 128.358C7.06422 128.9 8.30619 128.858 9.21926 128.656C10.1323 128.455 11.767 127.396 12.1646 127.115C12.5819 127.178 13.0286 127.253 13.5146 127.341C14.3737 127.505 15.3408 127.694 16.3765 127.963C16.6564 128.035 16.9214 128.123 17.2307 128.198C16.7398 128.152 16.0084 128.093 15.9446 128.098C14.6633 128.098 12.2137 128.795 11.7965 129.959C11.7371 130.142 11.7207 130.334 11.7483 130.523C11.776 130.712 11.8471 130.894 11.9576 131.059C12.068 131.224 12.2156 131.369 12.3919 131.485C12.5681 131.601 12.7695 131.687 12.9844 131.736C13.0422 131.751 13.1013 131.762 13.1612 131.769C14.143 131.937 15.2377 131.412 15.9446 130.841C16.6514 130.27 17.5743 128.656 17.7314 128.32C18.3598 128.501 19.0078 128.703 19.6606 128.946C20.8579 129.371 22.008 129.887 23.0969 130.488L23.2786 130.606C23.0282 130.547 21.6488 130.295 21.5359 130.286C20.2595 130.19 17.7363 130.631 17.1914 131.761C17.1103 131.939 17.0713 132.13 17.0769 132.321C17.0824 132.512 17.1323 132.701 17.2236 132.876C17.3149 133.05 17.4459 133.208 17.6089 133.339C17.772 133.47 17.9638 133.572 18.1732 133.639C18.2278 133.658 18.2835 133.675 18.3401 133.689C19.3219 133.945 20.4461 133.525 21.2217 133.051C22.1151 132.505 23.3178 130.698 23.362 130.635C24.4272 131.257 25.4439 131.938 26.4056 132.673C27.1223 133.219 27.8243 133.79 28.5164 134.353C28.1875 134.286 26.8867 134.05 26.7885 134.042C25.522 133.941 22.9889 134.387 22.444 135.512C22.2797 135.869 22.2871 136.267 22.4646 136.619C22.6422 136.971 22.9755 137.248 23.3915 137.39L23.5682 137.441C24.55 137.701 25.6791 137.281 26.4547 136.802C27.3236 136.269 28.487 134.55 28.5803 134.403L29.5277 135.202C30.5537 136.067 31.5747 136.949 32.6105 137.785C32.9689 138.075 33.342 138.352 33.7003 138.625C33.2094 138.529 32.3013 138.369 32.2276 138.361C30.9513 138.264 28.4232 138.709 27.8832 139.835C27.801 140.012 27.7602 140.2 27.7631 140.39C27.7659 140.579 27.8125 140.767 27.9 140.941C27.9875 141.116 28.1143 141.274 28.2731 141.406C28.432 141.538 28.6197 141.643 28.8257 141.713L29.0073 141.764C29.9891 142.02 31.1133 141.6 31.8889 141.125C32.6645 140.65 33.6807 139.222 33.9605 138.802C34.5741 139.268 35.1927 139.705 35.8259 140.113C36.1106 140.285 36.3708 140.474 36.6555 140.629L37.4802 141.091C38.0546 141.394 38.5651 141.68 39.1051 141.953L39.9053 142.348C39.4144 142.184 38.6486 141.927 38.5798 141.927C37.3379 141.663 34.7803 141.776 34.0096 142.818C33.8974 142.982 33.8241 143.164 33.794 143.353C33.7638 143.541 33.7774 143.733 33.8339 143.917C33.8904 144.102 33.9888 144.274 34.1234 144.426C34.258 144.578 34.4262 144.705 34.6183 144.801C34.6702 144.828 34.7243 144.852 34.7803 144.872C35.6836 145.246 36.8912 144.982 37.7257 144.616C38.6633 144.196 40.0771 142.709 40.2489 142.516C40.9067 142.839 41.5449 143.146 42.1536 143.419C44.073 144.297 45.7126 144.969 46.8711 145.427C48.0296 145.885 48.6972 146.124 48.6972 146.124C48.8222 146.165 48.961 146.161 49.083 146.115C49.2049 146.068 49.3002 145.981 49.3477 145.874C49.3952 145.767 49.3911 145.649 49.3364 145.544C49.2816 145.44 49.1806 145.358 49.0556 145.318C49.0556 145.318 48.4322 145.171 47.2736 144.75Z" fill="white"/>
<path opacity="0.4" d="M17.6632 128.148C17.6632 128.148 18.4486 126.106 18.321 125.157C18.2081 124.342 17.7761 123.338 16.9367 122.901C16.557 122.695 16.0973 122.626 15.6583 122.709C15.2194 122.793 14.837 123.022 14.5951 123.346C14.5619 123.389 14.5324 123.434 14.5067 123.481C13.9078 124.598 15.2234 126.497 16.1709 127.232C16.2494 127.299 17.6583 128.173 17.6632 128.148Z" fill="white"/>
</g>
<path d="M130.669 123.884C130.728 135.924 141.906 145.658 141.906 145.658C141.906 145.658 153 135.857 152.941 123.813C152.883 111.768 141.685 102.039 141.685 102.039C141.685 102.039 130.606 111.823 130.669 123.884Z" fill="#FF725E"/>
<path d="M141.931 145.628L141.705 102.018" stroke="white" stroke-width="0.993857" stroke-miterlimit="10"/>
<path d="M141.797 117.519L135.528 112.877" stroke="white" stroke-width="0.993857" stroke-miterlimit="10"/>
<path d="M141.925 124.724L149.612 115.116" stroke="white" stroke-width="0.993857" stroke-miterlimit="10"/>
<path d="M141.847 128.879L132.598 121.876" stroke="white" stroke-width="0.993857" stroke-miterlimit="10"/>
<path d="M141.973 134.475L151.05 127.488" stroke="white" stroke-width="0.993857" stroke-miterlimit="10"/>
<path d="M142.002 139.306L134.844 134.5" stroke="white" stroke-width="0.993857" stroke-miterlimit="10"/>
<path d="M123.047 142.465C128.477 147.666 137.71 148.204 137.71 148.204C137.71 148.204 138.118 140.302 132.674 135.088C127.23 129.875 118.03 129.371 118.03 129.371C118.03 129.371 117.603 137.273 123.047 142.465Z" fill="#FF725E"/>
<path d="M137.702 148.204L117.998 129.354" stroke="white" stroke-width="0.993857" stroke-miterlimit="10"/>
<path d="M125.016 136.054L120.22 136.101" stroke="white" stroke-width="0.993857" stroke-miterlimit="10"/>
<path d="M128.311 139.134L127.324 132.437" stroke="white" stroke-width="0.993857" stroke-miterlimit="10"/>
<path d="M130.136 140.961L122.979 140.97" stroke="white" stroke-width="0.993857" stroke-miterlimit="10"/>
<path d="M132.72 143.347L133.52 137.327" stroke="white" stroke-width="0.993857" stroke-miterlimit="10"/>
<path d="M134.911 145.435L129.644 145.708" stroke="white" stroke-width="0.993857" stroke-miterlimit="10"/>
<path d="M151.418 134.836C145.757 139.877 145.831 147.784 145.831 147.784C145.831 147.784 155.06 147.544 160.73 142.507C166.4 137.47 166.321 129.56 166.321 129.56C166.321 129.56 157.078 129.807 151.418 134.836Z" fill="#FF725E"/>
<path d="M145.831 147.784L166.321 129.56" stroke="white" stroke-width="0.993857" stroke-miterlimit="10"/>
<path d="M159.037 136.042L158.625 131.946" stroke="white" stroke-width="0.993857" stroke-miterlimit="10"/>
<path d="M155.695 139.083L163.426 137.739" stroke="white" stroke-width="0.993857" stroke-miterlimit="10"/>
<path d="M153.7 140.785L153.156 134.672" stroke="white" stroke-width="0.993857" stroke-miterlimit="10"/>
<path d="M151.105 143.158L158.174 143.389" stroke="white" stroke-width="0.993857" stroke-miterlimit="10"/>
<path d="M148.838 145.175L148.126 140.701" stroke="white" stroke-width="0.993857" stroke-miterlimit="10"/>
<g opacity="0.4">
<path opacity="0.4" d="M130.669 123.884C130.728 135.924 141.906 145.658 141.906 145.658C141.906 145.658 153 135.857 152.941 123.813C152.883 111.768 141.685 102.039 141.685 102.039C141.685 102.039 130.606 111.823 130.669 123.884Z" fill="white"/>
<path opacity="0.4" d="M123.046 142.465C128.476 147.666 137.709 148.204 137.709 148.204C137.709 148.204 138.117 140.302 132.673 135.088C127.229 129.875 118.029 129.371 118.029 129.371C118.029 129.371 117.602 137.273 123.046 142.465Z" fill="white"/>
<path opacity="0.4" d="M151.418 134.836C145.757 139.877 145.831 147.784 145.831 147.784C145.831 147.784 155.06 147.544 160.73 142.507C166.4 137.47 166.321 129.56 166.321 129.56C166.321 129.56 157.078 129.807 151.418 134.836Z" fill="white"/>
</g>
<path d="M116.313 19.2534C116.363 29.3107 125.719 37.4354 125.719 37.4354C125.719 37.4354 134.992 29.2477 134.953 19.1862C134.914 9.12477 125.547 1 125.547 1C125.547 1 116.259 9.19619 116.313 19.2534Z" fill="#FF725E"/>
<path d="M125.699 37.4354L125.518 1" stroke="white" stroke-width="0.993857" stroke-miterlimit="10"/>
<path d="M125.604 13.9517L120.366 10.0742" stroke="white" stroke-width="0.993857" stroke-miterlimit="10"/>
<path d="M125.713 19.9676L132.129 11.9437" stroke="white" stroke-width="0.993857" stroke-miterlimit="10"/>
<path d="M125.652 23.4418L117.925 17.5898" stroke="white" stroke-width="0.993857" stroke-miterlimit="10"/>
<path d="M125.737 28.1176L133.322 22.2782" stroke="white" stroke-width="0.993857" stroke-miterlimit="10"/>
<path d="M125.759 32.1548L119.78 28.1386" stroke="white" stroke-width="0.993857" stroke-miterlimit="10"/>
<path d="M109.925 34.793C114.471 39.1411 122.197 39.5864 122.197 39.5864C122.197 39.5864 122.541 32.9782 117.995 28.6343C113.45 24.2904 105.723 23.8409 105.723 23.8409C105.723 23.8409 105.379 30.4449 109.925 34.793Z" fill="#FF725E"/>
<path d="M122.172 39.5864L105.717 23.8409" stroke="white" stroke-width="0.993857" stroke-miterlimit="10"/>
<path d="M111.588 29.4367L107.573 29.4787" stroke="white" stroke-width="0.993857" stroke-miterlimit="10"/>
<path d="M114.33 32.0119L113.505 26.4162" stroke="white" stroke-width="0.993857" stroke-miterlimit="10"/>
<path d="M115.852 33.5369L109.868 33.5453" stroke="white" stroke-width="0.993857" stroke-miterlimit="10"/>
<path d="M117.998 35.5282L118.67 30.4995" stroke="white" stroke-width="0.993857" stroke-miterlimit="10"/>
<path d="M119.833 37.2758L115.434 37.5026" stroke="white" stroke-width="0.993857" stroke-miterlimit="10"/>
<path d="M133.629 28.4201C128.906 32.6211 128.96 39.2377 128.96 39.2377C128.96 39.2377 136.682 39.0234 141.409 34.8224C146.137 30.6214 146.083 24.009 146.083 24.009C146.083 24.009 138.361 24.2191 133.629 28.4201Z" fill="#FF725E"/>
<path d="M128.96 39.2377L146.083 24.0132" stroke="white" stroke-width="0.993857" stroke-miterlimit="10"/>
<path d="M140.003 29.4241L139.654 26.0003" stroke="white" stroke-width="0.993857" stroke-miterlimit="10"/>
<path d="M137.213 31.9699L143.668 30.844" stroke="white" stroke-width="0.993857" stroke-miterlimit="10"/>
<path d="M135.545 33.3898L135.088 28.2856" stroke="white" stroke-width="0.993857" stroke-miterlimit="10"/>
<path d="M133.379 35.3727L139.29 35.566" stroke="white" stroke-width="0.993857" stroke-miterlimit="10"/>
<path d="M131.488 37.0573L130.889 33.3226" stroke="white" stroke-width="0.993857" stroke-miterlimit="10"/>
<g opacity="0.4">
<path opacity="0.4" d="M116.313 19.2534C116.363 29.3107 125.719 37.4354 125.719 37.4354C125.719 37.4354 134.992 29.2477 134.953 19.1862C134.914 9.12477 125.547 1 125.547 1C125.547 1 116.259 9.19619 116.313 19.2534Z" fill="white"/>
<path opacity="0.4" d="M109.925 34.793C114.471 39.1411 122.197 39.5864 122.197 39.5864C122.197 39.5864 122.541 32.9782 117.995 28.6343C113.45 24.2904 105.723 23.8409 105.723 23.8409C105.723 23.8409 105.379 30.4449 109.925 34.793Z" fill="white"/>
<path opacity="0.4" d="M133.629 28.4201C128.906 32.6211 128.96 39.2377 128.96 39.2377C128.96 39.2377 136.682 39.0234 141.409 34.8224C146.137 30.6214 146.083 24.009 146.083 24.009C146.083 24.009 138.361 24.2191 133.629 28.4201Z" fill="white"/>
</g>
<path d="M50.3195 132.362C50.3587 140.201 57.6437 146.523 57.6437 146.523C57.6437 146.523 64.8697 140.146 64.8255 132.307C64.7813 124.468 57.4964 118.145 57.4964 118.145C57.4964 118.145 50.2851 124.527 50.3195 132.362Z" fill="#FF725E"/>
<path d="M57.6446 146.523L57.4973 118.145" stroke="white" stroke-width="0.993857" stroke-miterlimit="10"/>
<path d="M57.5434 128.232L53.469 125.216" stroke="white" stroke-width="0.993857" stroke-miterlimit="10"/>
<path d="M57.644 132.92L62.6414 126.669" stroke="white" stroke-width="0.993857" stroke-miterlimit="10"/>
<path d="M57.588 135.626L51.5647 131.072" stroke="white" stroke-width="0.993857" stroke-miterlimit="10"/>
<path d="M57.6682 139.268L63.5737 134.723" stroke="white" stroke-width="0.993857" stroke-miterlimit="10"/>
<path d="M57.6882 142.411L53.0295 139.285" stroke="white" stroke-width="0.993857" stroke-miterlimit="10"/>
<path d="M45.3866 144.469C48.9211 147.855 54.9248 148.187 54.9248 148.187C54.9248 148.187 55.1948 143.041 51.6701 139.655C48.1455 136.269 42.1222 135.937 42.1222 135.937C42.1222 135.937 41.8227 141.083 45.3866 144.469Z" fill="#FF725E"/>
<path d="M54.8845 148.204L42.0671 135.937" stroke="white" stroke-width="0.993857" stroke-miterlimit="10"/>
<path d="M46.6346 140.297L43.5076 140.331" stroke="white" stroke-width="0.993857" stroke-miterlimit="10"/>
<path d="M48.7701 142.301L48.1221 137.941" stroke="white" stroke-width="0.993857" stroke-miterlimit="10"/>
<path d="M49.9728 143.49L45.3142 143.494" stroke="white" stroke-width="0.993857" stroke-miterlimit="10"/>
<path d="M51.6377 145.04L52.1531 141.125" stroke="white" stroke-width="0.993857" stroke-miterlimit="10"/>
<path d="M53.0622 146.406L49.6357 146.582" stroke="white" stroke-width="0.993857" stroke-miterlimit="10"/>
<path d="M63.8207 139.503C60.139 142.78 60.1831 147.926 60.1831 147.926C60.1831 147.926 66.1966 147.771 69.8833 144.498C73.5699 141.226 73.4914 136.067 73.4914 136.067C73.4914 136.067 67.5171 136.231 63.8207 139.503Z" fill="#FF725E"/>
<path d="M60.1831 147.926L73.5159 136.071" stroke="white" stroke-width="0.993857" stroke-miterlimit="10"/>
<path d="M68.7785 140.289L68.5085 137.621" stroke="white" stroke-width="0.993857" stroke-miterlimit="10"/>
<path d="M66.5798 142.268L71.6115 141.394" stroke="white" stroke-width="0.993857" stroke-miterlimit="10"/>
<path d="M65.2975 143.373L64.9441 139.398" stroke="white" stroke-width="0.993857" stroke-miterlimit="10"/>
<path d="M63.6013 144.919L68.2059 145.07" stroke="white" stroke-width="0.993857" stroke-miterlimit="10"/>
<path d="M62.1338 146.233L61.6724 143.322" stroke="white" stroke-width="0.993857" stroke-miterlimit="10"/>
<g opacity="0.4">
<path opacity="0.4" d="M50.3195 132.362C50.3587 140.201 57.6437 146.523 57.6437 146.523C57.6437 146.523 64.8697 140.146 64.8255 132.307C64.7813 124.468 57.4964 118.145 57.4964 118.145C57.4964 118.145 50.2851 124.527 50.3195 132.362Z" fill="white"/>
<path opacity="0.4" d="M45.3866 144.469C48.9211 147.855 54.9248 148.187 54.9248 148.187C54.9248 148.187 55.1948 143.041 51.6701 139.655C48.1455 136.269 42.1222 135.937 42.1222 135.937C42.1222 135.937 41.8227 141.083 45.3866 144.469Z" fill="white"/>
<path opacity="0.4" d="M63.8207 139.503C60.139 142.78 60.1831 147.926 60.1831 147.926C60.1831 147.926 66.1966 147.771 69.8833 144.498C73.5699 141.226 73.4914 136.067 73.4914 136.067C73.4914 136.067 67.5171 136.231 63.8207 139.503Z" fill="white"/>
</g>
<path d="M44.6105 13.8971L38.2583 18.6443L44.0509 34.4107L57.4082 34.2006L60.3782 14.8591L50.8891 12.6536L44.6105 13.8971Z" fill="white"/>
<path opacity="0.5" d="M55.6952 15.275C54.5661 15.0608 52.8087 14.523 52.8087 14.523C52.8087 14.523 45.6514 14.418 44.5125 18.3922L44.1394 20.0054L46.0245 19.5853L43.6338 22.7066C43.3785 23.0343 43.1429 20.018 42.6275 20.3415C42.112 20.6649 41.0173 24.7399 41.0173 24.7399L41.7439 28.0755L44.0707 34.4191L57.4231 34.209L60.0494 17.1277C59.3425 16.758 56.677 15.4599 55.6952 15.275Z" fill="#FF725E"/>
<path d="M44.6105 13.8971L38.2583 18.6443L44.0509 34.4107L57.4082 34.2006L60.3782 14.8591L50.8891 12.6536L44.6105 13.8971Z" stroke="#263238" stroke-width="0.829701" stroke-linecap="round" stroke-linejoin="round"/>
<path d="M45.8269 17.1991L47.9918 19.4047L47.4371 32.6211L49.5234 35.0282L51.698 31.449L48.6398 19.4047L50.4119 16.8546L49.6903 14.7247L45.8269 17.1991Z" fill="#263238" stroke="#263238" stroke-width="0.829701" stroke-linecap="round" stroke-linejoin="round"/>
<path d="M44.0476 13.3972C43.7159 14.3109 43.5342 15.2596 43.5076 16.2161C43.58 17.3224 43.8227 18.4156 44.2292 19.4676C44.2292 19.4676 45.859 17.6738 46.9439 17.3335C48.0287 16.9932 50.2427 16.7832 50.9692 17.0563C51.6957 17.3293 53.463 18.3166 53.463 18.3166C53.5215 16.8612 53.248 15.41 52.6579 14.0441C51.6761 11.9814 51.2883 11.221 50.6403 11.0194C49.9923 10.8177 45.1717 10.5195 44.0476 13.3972Z" fill="white" stroke="#263238" stroke-width="0.829701" stroke-linecap="round" stroke-linejoin="round"/>
<path d="M38.2699 18.6442L33.302 29.5207C33.302 29.5207 37.1605 31.4489 37.2292 31.2389C37.2979 31.0288 41.2202 26.6178 41.2202 26.6178L38.2699 18.6442Z" fill="white"/>
<path opacity="0.5" d="M39.3681 24.5215C39.3681 24.5215 36.1478 23.4544 36.9824 24.1014C37.8259 24.8134 38.6224 25.5651 39.3681 26.3531L36.354 27.647L38.4698 29.7475C39.6381 28.399 41.2139 26.6304 41.2139 26.6304L39.1129 20.9296L38.9901 20.9716L39.3681 24.5215Z" fill="#FF725E"/>
<path d="M38.2699 18.6442L33.302 29.5207C33.302 29.5207 37.1605 31.4489 37.2292 31.2389C37.2979 31.0288 41.2202 26.6178 41.2202 26.6178L38.2699 18.6442Z" stroke="#263238" stroke-width="0.829701" stroke-linecap="round" stroke-linejoin="round"/>
<path d="M60.3882 14.8591L72.5919 23.2234L67.84 25.6222L59.426 21.4673L60.3882 14.8591Z" fill="white"/>
<path opacity="0.5" d="M68.508 24.4123L64.3648 21.8328C64.3648 21.8328 66.2499 21.5094 66.623 21.0809C66.996 20.6524 62.2049 20.7616 62.2049 20.7616L63.7119 19.0392L60.8255 19.8794V18.8207L60.0302 17.1403L59.4019 21.459L67.8158 25.6138L68.5424 25.2441L68.508 24.4123Z" fill="#FF725E"/>
<path d="M60.3882 14.8591L72.5919 23.2234L67.84 25.6222L59.426 21.4673L60.3882 14.8591Z" stroke="#263238" stroke-width="0.829701" stroke-linecap="round" stroke-linejoin="round"/>
<path d="M44.0691 13.3972C44.0691 13.3972 45.1147 15.8086 46.3174 16.758C47.5201 17.7074 48.5755 17.5142 49.3757 16.6193C50.1759 15.7245 51.0644 12.7628 51.3098 12.6242C51.5553 12.4855 52.434 11.784 52.434 11.1118C52.434 10.4396 51.3933 10.7673 51.2264 11.0446L51.0644 11.3177L50.2642 9.87251C49.893 10.6816 49.4344 11.4594 48.8946 12.1957C48.2515 12.9561 48.0895 13.5064 47.4514 13.0947C46.8132 12.683 46.3174 12.0612 45.8216 12.7502C45.3258 13.4392 44.0691 13.3972 44.0691 13.3972Z" fill="white" stroke="#263238" stroke-width="0.829701" stroke-linecap="round" stroke-linejoin="round"/>
<path opacity="0.5" d="M51.2216 11.074L51.0596 11.3471L50.2594 9.90192C49.8882 10.711 49.4297 11.4888 48.8898 12.2251C48.2468 12.9855 48.0848 13.5358 47.4466 13.1241C46.8084 12.7124 46.3126 12.0906 45.8168 12.7796C45.321 13.4686 44.0447 13.3972 44.0447 13.3972C44.0447 13.3972 44.2901 13.9643 44.6779 14.6575C46.7544 14.7499 50.1122 14.5819 50.8829 12.641V13.456C50.9619 13.1687 51.0927 12.8938 51.2707 12.641C51.5063 12.5065 52.3948 11.8008 52.3948 11.1244C52.3948 10.448 51.3885 10.7967 51.2216 11.074Z" fill="#FF725E"/>
<path d="M44.9724 14.2038C44.9724 14.2038 46.0966 14.6239 46.4991 14.3508C46.4991 14.3508 46.5826 16.2665 47.1422 16.0942L47.854 15.6741" stroke="#263238" stroke-width="0.553134" stroke-linecap="round" stroke-linejoin="round"/>
<path d="M48.1709 14.2626C48.1709 14.2626 48.76 14.6827 49.678 13.9895" stroke="#263238" stroke-width="0.553134" stroke-linecap="round" stroke-linejoin="round"/>
<path d="M47.7559 13.9139C47.7559 13.9139 47.7559 12.8679 49.69 12.9561" stroke="#263238" stroke-width="0.553134" stroke-linecap="round" stroke-linejoin="round"/>
<path d="M46.5076 14.3508C46.429 14.0809 46.2681 13.8336 46.0413 13.6343C45.8144 13.435 45.5298 13.2909 45.2166 13.2165" stroke="#263238" stroke-width="0.553134" stroke-linecap="round" stroke-linejoin="round"/>
<path d="M46.7305 16.4387C47.0396 16.5572 47.3852 16.5873 47.7159 16.5245C48.0466 16.4617 48.3449 16.3093 48.5664 16.09" stroke="#263238" stroke-width="0.553134" stroke-linecap="round" stroke-linejoin="round"/>
<path d="M52.0254 11.1412C52.0254 11.1412 54.2491 9.14154 53.0317 6.84359C52.2315 5.33542 52.1088 5.39423 50.1747 3.63821C48.2406 1.88218 44.2839 2.84001 42.9585 4.05831C41.6331 5.2766 42.551 7.45273 42.0405 7.7132C41.53 7.97366 38.4766 8.75925 38.6042 9.81371C38.7319 10.8682 42.0405 11.3807 41.6576 11.7294C41.2747 12.0781 38.6042 11.9898 39.8266 12.8636C41.0489 13.7375 44.5735 14.1786 47.4698 13.1451C50.3661 12.1117 50.1845 10.5951 50.1845 10.5951C50.1845 10.5951 50.5183 12.3007 52.0254 11.1412Z" fill="#263238" stroke="#263238" stroke-width="0.829701" stroke-linecap="round" stroke-linejoin="round"/>
<path d="M44.8992 12.9477C44.8992 12.9477 46.6173 13.2081 48.63 11.826C50.6427 10.4439 49.2338 8.5744 49.2338 8.5744" stroke="white" stroke-width="0.553134" stroke-linecap="round" stroke-linejoin="round"/>
<path d="M50.5393 7.17126C50.5393 7.17126 51.6291 10.1834 50.6424 11.0068" stroke="white" stroke-width="0.553134" stroke-linecap="round" stroke-linejoin="round"/>
<path d="M41.6277 11.7168C41.6277 11.7168 44.8872 12.3385 46.5121 10.7884" stroke="white" stroke-width="0.553134" stroke-linecap="round" stroke-linejoin="round"/>
<path d="M34.2395 30.9742C34.2395 30.9742 31.785 30.5121 32.2023 29.3485C32.6196 28.1848 32.2023 26.9077 35.1919 27.1387C38.1814 27.3698 39.3989 27.9537 39.3989 29.1174C39.3989 30.2811 38.9914 32.2514 37.3616 31.6716C36.3631 31.318 35.3126 31.0833 34.2395 30.9742V30.9742Z" fill="white" stroke="#263238" stroke-width="0.829701" stroke-linecap="round" stroke-linejoin="round"/>
<path d="M62.8427 19.5559L59.426 21.4673L65.3904 20.2827" stroke="#263238" stroke-width="0.553134" stroke-linecap="round" stroke-linejoin="round"/>
<path d="M40.8411 25.9414L38.1362 23.7275" stroke="#263238" stroke-width="0.553134" stroke-linecap="round" stroke-linejoin="round"/>
<path d="M39.6254 25.5423L37.8188 24.7231" stroke="#263238" stroke-width="0.553134" stroke-linecap="round" stroke-linejoin="round"/>
<path d="M57.1139 22.7318L53.9329 22.8201V23.6351H56.9028" stroke="#263238" stroke-width="0.553134" stroke-linecap="round" stroke-linejoin="round"/>
<path opacity="0.5" d="M33.7219 30.1088C33.7219 30.1088 32.2197 29.4492 32.8432 29.0333C33.8173 28.5213 34.9759 28.3302 36.1027 28.4956C36.7569 28.6476 37.3879 28.8647 37.9829 29.1426C37.9829 29.1426 36.358 28.0671 37.3545 28.0671C38.351 28.0671 38.9843 29.1426 38.6112 30.218C38.2381 31.2935 36.7262 30.97 36.7262 30.97L33.7219 30.1088Z" fill="#FF725E"/>
<path d="M106.383 139.634V124.56H78.0382V139.634C78.0426 142.216 76.8511 144.695 74.7246 146.527L68.2644 152.106H116.156L109.701 146.527C107.571 144.697 106.377 142.217 106.383 139.634V139.634Z" fill="white" stroke="#263238" stroke-width="1.10627" stroke-linecap="round" stroke-linejoin="round"/>
<path opacity="0.44" d="M78.0539 124.56V139.634C78.0526 140.802 77.8049 141.96 77.3225 143.053H107.13C106.65 141.96 106.402 140.802 106.398 139.634V124.56H78.0539Z" fill="#FF725E"/>
<path d="M106.399 125.241H78.0549V136.424H106.399V125.241Z" fill="#263238" stroke="#263238" stroke-width="1.10627" stroke-miterlimit="10"/>
<path d="M116.151 152.106H68.2644V152.905H116.151V152.106Z" fill="white" stroke="#263238" stroke-width="1.10627" stroke-linecap="round" stroke-linejoin="round"/>
<path d="M23.4874 32.3018H160.973C161.847 32.3012 162.712 32.4482 163.52 32.7344C164.327 33.0206 165.061 33.4403 165.678 33.9695C166.295 34.4987 166.785 35.127 167.118 35.8183C167.451 36.5097 167.622 37.2505 167.62 37.9983V125.833C167.613 127.469 166.848 129.036 165.492 130.189C164.136 131.343 162.301 131.988 160.389 131.984H24.0765C22.1652 131.984 20.3323 131.334 18.9808 130.177C17.6294 129.021 16.8701 127.452 16.8701 125.816V37.9773C16.8727 36.4749 17.5702 35.0345 18.8102 33.971C20.0502 32.9075 21.7318 32.3073 23.4874 32.3018V32.3018Z" fill="#263238" stroke="#263238" stroke-width="1.10627" stroke-miterlimit="10"/>
<path d="M16.8464 120.448H167.621V125.816C167.621 127.452 166.862 129.021 165.51 130.177C164.159 131.334 162.326 131.984 160.414 131.984H24.0774C22.1661 131.984 20.3331 131.334 18.9817 130.177C17.6302 129.021 16.871 127.452 16.871 125.816V120.448H16.8464Z" fill="white" stroke="#263238" stroke-width="1.10627" stroke-miterlimit="10"/>
<path d="M173.542 38.5949H38.7468V115.495H173.542V38.5949Z" fill="white" stroke="#263238" stroke-width="0.829701" stroke-linecap="round" stroke-linejoin="round"/>
<path d="M173.542 38.5949H38.7468V63.5153H173.542V38.5949Z" fill="#FF725E"/>
<path d="M52.4769 110.315H47.0476V69.6908H52.4769V110.315ZM63.1196 69.6656H57.7197V110.315H63.1491L63.1196 69.6656ZM73.7672 69.6656H68.3329V110.315H73.7672V69.6656ZM84.4049 69.6656H78.9756V110.315H84.4049V69.6656ZM95.0476 69.6656H89.6183V110.315H95.0476V69.6656ZM105.685 69.6656H100.256V110.315H105.685V69.6656ZM116.333 69.6656H110.899V110.315H116.333V69.6656ZM126.976 69.6656H121.546V110.315H126.976V69.6656ZM137.613 69.6656H132.184V110.315H137.613V69.6656ZM148.256 69.6656H142.827V110.315H148.256V69.6656Z" fill="#FF725E"/>
<path opacity="0.4" d="M52.4769 110.315H47.0476V69.6908H52.4769V110.315ZM63.1196 69.6656H57.7197V110.315H63.1491L63.1196 69.6656ZM73.7672 69.6656H68.3329V110.315H73.7672V69.6656ZM84.4049 69.6656H78.9756V110.315H84.4049V69.6656ZM95.0476 69.6656H89.6183V110.315H95.0476V69.6656ZM105.685 69.6656H100.256V110.315H105.685V69.6656ZM116.333 69.6656H110.899V110.315H116.333V69.6656ZM126.976 69.6656H121.546V110.315H126.976V69.6656ZM137.613 69.6656H132.184V110.315H137.613V69.6656ZM148.256 69.6656H142.827V110.315H148.256V69.6656Z" fill="white"/>
<path d="M80.7842 47.9253H45.0911C44.7747 47.9253 44.4713 47.8178 44.2476 47.6263C44.0239 47.4349 43.8982 47.1752 43.8982 46.9045V46.9045C43.8995 46.6345 44.0257 46.3759 44.2493 46.1854C44.4729 45.9948 44.7755 45.8878 45.0911 45.8878H80.7842C81.0993 45.8878 81.4015 45.995 81.6243 46.1856C81.8471 46.3763 81.9722 46.6349 81.9722 46.9045V46.9045C81.9729 47.0384 81.9426 47.171 81.8832 47.2948C81.8238 47.4187 81.7364 47.5312 81.626 47.6261C81.5156 47.7209 81.3844 47.7962 81.24 47.8476C81.0955 47.8989 80.9407 47.9253 80.7842 47.9253V47.9253Z" fill="white" stroke="#263238" stroke-width="0.829701" stroke-linecap="round" stroke-linejoin="round"/>
<path d="M69.9845 47.9253H45.0911C44.7747 47.9253 44.4713 47.8178 44.2476 47.6263C44.0239 47.4349 43.8982 47.1752 43.8982 46.9045V46.9045C43.8995 46.6345 44.0257 46.3759 44.2493 46.1854C44.4729 45.9948 44.7755 45.8878 45.0911 45.8878H69.9845V47.9253Z" fill="#263238" stroke="#263238" stroke-width="1.10627" stroke-linecap="round" stroke-linejoin="round"/>
<path d="M80.7842 51.9205H45.0911C44.9347 51.9211 44.7797 51.8952 44.635 51.8443C44.4903 51.7935 44.3587 51.7187 44.2479 51.6242C44.137 51.5298 44.0491 51.4175 43.9891 51.2939C43.9291 51.1703 43.8982 51.0377 43.8982 50.9039V50.9039C43.8982 50.77 43.9291 50.6375 43.9891 50.5138C44.0491 50.3902 44.137 50.278 44.2479 50.1835C44.3587 50.089 44.4903 50.0142 44.635 49.9634C44.7797 49.9126 44.9347 49.8867 45.0911 49.8872H80.7842C81.0993 49.8872 81.4015 49.9943 81.6243 50.185C81.8471 50.3756 81.9722 50.6342 81.9722 50.9039V50.9039C81.9722 51.1735 81.8471 51.4321 81.6243 51.6227C81.4015 51.8134 81.0993 51.9205 80.7842 51.9205V51.9205Z" fill="white" stroke="#263238" stroke-width="0.829701" stroke-linecap="round" stroke-linejoin="round"/>
<path d="M74.5694 51.9205H45.1155C44.9591 51.9211 44.8041 51.8952 44.6594 51.8443C44.5147 51.7935 44.3831 51.7187 44.2723 51.6242C44.1615 51.5298 44.0735 51.4175 44.0135 51.2939C43.9535 51.1703 43.9226 51.0377 43.9226 50.9039C43.9226 50.77 43.9535 50.6375 44.0135 50.5138C44.0735 50.3902 44.1615 50.278 44.2723 50.1835C44.3831 50.089 44.5147 50.0142 44.6594 49.9634C44.8041 49.9126 44.9591 49.8867 45.1155 49.8872H74.5694V51.9205Z" fill="#263238" stroke="#263238" stroke-width="1.10627" stroke-linecap="round" stroke-linejoin="round"/>
<path d="M80.7842 55.9409H45.0911C44.9347 55.9414 44.7797 55.9155 44.635 55.8647C44.4903 55.8139 44.3587 55.7391 44.2479 55.6446C44.137 55.5501 44.0491 55.4379 43.9891 55.3143C43.9291 55.1906 43.8982 55.0581 43.8982 54.9242V54.9242C43.8982 54.6535 44.0239 54.3938 44.2476 54.2024C44.4713 54.0109 44.7747 53.9034 45.0911 53.9034H80.7842C80.9407 53.9034 81.0955 53.9298 81.24 53.9812C81.3844 54.0325 81.5156 54.1078 81.626 54.2026C81.7364 54.2975 81.8238 54.4101 81.8832 54.5339C81.9426 54.6577 81.9729 54.7904 81.9722 54.9242V54.9242C81.9722 55.1939 81.8471 55.4525 81.6243 55.6431C81.4015 55.8338 81.0993 55.9409 80.7842 55.9409V55.9409Z" fill="white" stroke="#263238" stroke-width="0.829701" stroke-linecap="round" stroke-linejoin="round"/>
<path d="M63.6176 55.9409H45.0911C44.9347 55.9414 44.7797 55.9155 44.635 55.8647C44.4903 55.8139 44.3587 55.7391 44.2479 55.6446C44.137 55.5501 44.0491 55.4379 43.9891 55.3143C43.9291 55.1906 43.8982 55.0581 43.8982 54.9242V54.9242C43.8982 54.6535 44.0239 54.3938 44.2476 54.2024C44.4713 54.0109 44.7747 53.9034 45.0911 53.9034H63.6176V55.9409Z" fill="#263238" stroke="#263238" stroke-width="1.10627" stroke-linecap="round" stroke-linejoin="round"/>
<path d="M80.7842 59.915H45.0911C44.7755 59.915 44.4729 59.8081 44.2493 59.6175C44.0257 59.427 43.8995 59.1684 43.8982 58.8984C43.8995 58.6276 44.0254 58.3682 44.2487 58.1763C44.472 57.9844 44.7746 57.8756 45.0911 57.8734H80.7842C81.1002 57.8756 81.4024 57.9845 81.6249 58.1765C81.8474 58.3685 81.9722 58.628 81.9722 58.8984V58.8984C81.9722 59.168 81.8471 59.4266 81.6243 59.6173C81.4015 59.8079 81.0993 59.915 80.7842 59.915V59.915Z" fill="white" stroke="#263238" stroke-width="0.829701" stroke-linecap="round" stroke-linejoin="round"/>
<path d="M79.4981 59.915H45.0911C44.7755 59.915 44.4729 59.8081 44.2493 59.6175C44.0257 59.427 43.8995 59.1684 43.8982 58.8984C43.8995 58.6276 44.0254 58.3682 44.2487 58.1763C44.472 57.9844 44.7746 57.8756 45.0911 57.8734H79.4981V59.915Z" fill="#263238" stroke="#263238" stroke-width="1.10627" stroke-linecap="round" stroke-linejoin="round"/>
<path d="M44.1667 110.327H151.128" stroke="#263238" stroke-width="0.829701" stroke-linecap="round" stroke-linejoin="round"/>
<path d="M54.8606 110.327V109.407" stroke="#263238" stroke-width="0.829701" stroke-linecap="round" stroke-linejoin="round"/>
<path d="M65.5544 110.327V109.407" stroke="#263238" stroke-width="0.829701" stroke-linecap="round" stroke-linejoin="round"/>
<path d="M76.248 110.327V109.407" stroke="#263238" stroke-width="0.829701" stroke-linecap="round" stroke-linejoin="round"/>
<path d="M86.9419 110.327V109.407" stroke="#263238" stroke-width="0.829701" stroke-linecap="round" stroke-linejoin="round"/>
<path d="M97.6357 110.327V109.407" stroke="#263238" stroke-width="0.829701" stroke-linecap="round" stroke-linejoin="round"/>
<path d="M108.354 110.327V109.407" stroke="#263238" stroke-width="0.829701" stroke-linecap="round" stroke-linejoin="round"/>
<path d="M119.048 110.327V109.407" stroke="#263238" stroke-width="0.829701" stroke-linecap="round" stroke-linejoin="round"/>
<path d="M129.741 110.327V109.407" stroke="#263238" stroke-width="0.829701" stroke-linecap="round" stroke-linejoin="round"/>
<path d="M140.435 110.327V109.407" stroke="#263238" stroke-width="0.829701" stroke-linecap="round" stroke-linejoin="round"/>
<path d="M151.129 110.327V109.407" stroke="#263238" stroke-width="0.829701" stroke-linecap="round" stroke-linejoin="round"/>
<path d="M44.1667 110.327V106.698V69.8085" stroke="#263238" stroke-width="0.829701" stroke-linecap="round" stroke-linejoin="round"/>
<path d="M44.1667 106.698H46.8421" stroke="#263238" stroke-width="0.829701" stroke-linecap="round" stroke-linejoin="round"/>
<path d="M44.1667 100.547H46.8421" stroke="#263238" stroke-width="0.829701" stroke-linecap="round" stroke-linejoin="round"/>
<path d="M44.1667 94.397H46.8421" stroke="#263238" stroke-width="0.829701" stroke-linecap="round" stroke-linejoin="round"/>
<path d="M44.1667 88.2551H46.8421" stroke="#263238" stroke-width="0.829701" stroke-linecap="round" stroke-linejoin="round"/>
<path d="M44.1667 82.1049H46.8421" stroke="#263238" stroke-width="0.829701" stroke-linecap="round" stroke-linejoin="round"/>
<path d="M44.1667 75.9588H46.8421" stroke="#263238" stroke-width="0.829701" stroke-linecap="round" stroke-linejoin="round"/>
<path d="M44.1667 69.8085H46.8421" stroke="#263238" stroke-width="0.829701" stroke-linecap="round" stroke-linejoin="round"/>
<path d="M170.529 45.1275H153.082V60.5032H170.529V45.1275Z" fill="white" stroke="#263238" stroke-width="0.829701" stroke-linecap="round" stroke-linejoin="round"/>
<path d="M170.529 45.1275H153.082V47.7657H170.529V45.1275Z" fill="#263238" stroke="#263238" stroke-width="1.00786" stroke-linecap="round" stroke-linejoin="round"/>
<path d="M154.694 49.9166V58.6505" stroke="#263238" stroke-width="0.829701" stroke-linecap="round" stroke-linejoin="round"/>
<path d="M157.038 49.9166V58.6505" stroke="#263238" stroke-width="0.829701" stroke-linecap="round" stroke-linejoin="round"/>
<path d="M159.406 49.9166V58.6505" stroke="#263238" stroke-width="0.829701" stroke-linecap="round" stroke-linejoin="round"/>
<path d="M161.75 49.9166V58.6505" stroke="#263238" stroke-width="0.829701" stroke-linecap="round" stroke-linejoin="round"/>
<path d="M164.118 49.9166V58.6505" stroke="#263238" stroke-width="0.829701" stroke-linecap="round" stroke-linejoin="round"/>
<path d="M166.462 49.9166V58.6505" stroke="#263238" stroke-width="0.829701" stroke-linecap="round" stroke-linejoin="round"/>
<path d="M168.83 49.9166V58.6505" stroke="#263238" stroke-width="0.829701" stroke-linecap="round" stroke-linejoin="round"/>
<path d="M168.669 51.0593H154.767" stroke="#263238" stroke-width="0.829701" stroke-linecap="round" stroke-linejoin="round"/>
<path d="M168.669 52.6725H154.767" stroke="#263238" stroke-width="0.829701" stroke-linecap="round" stroke-linejoin="round"/>
<path d="M168.669 54.2857H154.767" stroke="#263238" stroke-width="0.829701" stroke-linecap="round" stroke-linejoin="round"/>
<path d="M168.669 55.8989H154.767" stroke="#263238" stroke-width="0.829701" stroke-linecap="round" stroke-linejoin="round"/>
<path d="M168.669 57.5121H154.767" stroke="#263238" stroke-width="0.829701" stroke-linecap="round" stroke-linejoin="round"/>
<path d="M60.2054 91.8848L49.5137 110.327" stroke="#263238" stroke-width="2.21254" stroke-linecap="round" stroke-linejoin="round"/>
<path d="M70.9091 104.177L60.2075 91.8848" stroke="#263238" stroke-width="2.21254" stroke-linecap="round" stroke-linejoin="round"/>
<path d="M81.598 94.3423L70.9014 104.177" stroke="#263238" stroke-width="2.21254" stroke-linecap="round" stroke-linejoin="round"/>
<path d="M92.2867 73.4423L81.595 94.3424" stroke="#263238" stroke-width="2.21254" stroke-linecap="round" stroke-linejoin="round"/>
<path d="M102.99 79.5884L92.2888 73.4423" stroke="#263238" stroke-width="2.21254" stroke-linecap="round" stroke-linejoin="round"/>
<path d="M113.699 101.106L103.007 79.5884" stroke="#263238" stroke-width="2.21254" stroke-linecap="round" stroke-linejoin="round"/>
<path d="M124.373 99.2618L113.677 101.106" stroke="#263238" stroke-width="2.21254" stroke-linecap="round" stroke-linejoin="round"/>
<path d="M135.096 96.8L124.395 99.2618" stroke="#263238" stroke-width="2.21254" stroke-linecap="round" stroke-linejoin="round"/>
<path d="M145.78 85.7345L135.088 96.8" stroke="#263238" stroke-width="2.21254" stroke-linecap="round" stroke-linejoin="round"/>
<path d="M49.5148 109.386C49.8116 109.386 50.0963 109.487 50.3062 109.667C50.5161 109.846 50.634 110.09 50.634 110.344C50.634 110.598 50.5163 110.843 50.3065 111.023C50.0967 111.203 49.8121 111.305 49.5148 111.306V111.306C49.217 111.305 48.9318 111.203 48.7213 111.023C48.5108 110.843 48.3919 110.599 48.3906 110.344V110.344C48.3919 110.09 48.5109 109.846 48.7216 109.667C48.9323 109.487 49.2175 109.386 49.5148 109.386V109.386Z" fill="white" stroke="#263238" stroke-width="0.829701" stroke-linecap="round" stroke-linejoin="round"/>
<path d="M60.2035 90.927C60.5008 90.927 60.786 91.0278 60.9966 91.2073C61.2073 91.3868 61.3263 91.6304 61.3276 91.8848V91.8848C61.3263 92.1392 61.2073 92.3828 60.9966 92.5624C60.786 92.7419 60.5008 92.8426 60.2035 92.8426V92.8426C59.9066 92.8426 59.6219 92.7417 59.4121 92.5621C59.2022 92.3825 59.0842 92.1388 59.0842 91.8848C59.0842 91.6308 59.2022 91.3872 59.4121 91.2075C59.6219 91.0279 59.9066 90.927 60.2035 90.927V90.927Z" fill="white" stroke="#263238" stroke-width="0.829701" stroke-linecap="round" stroke-linejoin="round"/>
<path d="M70.8976 103.219C71.1944 103.219 71.4791 103.32 71.689 103.5C71.8989 103.679 72.0168 103.923 72.0168 104.177C72.0168 104.431 71.899 104.675 71.6893 104.856C71.4795 105.036 71.1949 105.138 70.8976 105.139V105.139C70.6003 105.138 70.3156 105.036 70.1058 104.856C69.8961 104.675 69.7783 104.431 69.7783 104.177V104.177C69.7783 103.923 69.8962 103.679 70.1061 103.5C70.316 103.32 70.6007 103.219 70.8976 103.219Z" fill="white" stroke="#263238" stroke-width="0.829701" stroke-linecap="round" stroke-linejoin="round"/>
<path d="M81.6449 93.3845C81.9409 93.3856 82.2243 93.487 82.4332 93.6665C82.642 93.8461 82.7592 94.089 82.7592 94.3424V94.3424C82.7592 94.5957 82.642 94.8387 82.4332 95.0182C82.2243 95.1977 81.9409 95.2991 81.6449 95.3002V95.3002C81.3476 95.3002 81.0624 95.1994 80.8517 95.0199C80.6411 94.8404 80.5221 94.5968 80.5208 94.3424V94.3424C80.5221 94.0879 80.6411 93.8443 80.8517 93.6648C81.0624 93.4853 81.3476 93.3845 81.6449 93.3845Z" fill="white" stroke="#263238" stroke-width="0.829701" stroke-linecap="round" stroke-linejoin="round"/>
<path d="M92.285 72.4803C92.5832 72.4803 92.8691 72.5816 93.0799 72.7621C93.2907 72.9425 93.4092 73.1872 93.4092 73.4423V73.4423C93.4079 73.6967 93.2889 73.9404 93.0782 74.1199C92.8675 74.2994 92.5823 74.4002 92.285 74.4002V74.4002C92.138 74.4002 91.9925 74.3754 91.8567 74.3272C91.7209 74.2791 91.5975 74.2086 91.4936 74.1196C91.3897 74.0307 91.3072 73.9251 91.251 73.8089C91.1947 73.6927 91.1658 73.5681 91.1658 73.4423V73.4423C91.1658 73.1879 91.2835 72.9438 91.4933 72.7635C91.7031 72.5832 91.9877 72.4814 92.285 72.4803Z" fill="white" stroke="#263238" stroke-width="0.829701" stroke-linecap="round" stroke-linejoin="round"/>
<path d="M103.003 78.6306C103.3 78.6317 103.584 78.7329 103.793 78.9123C104.003 79.0917 104.121 79.3347 104.123 79.5884V79.5884C104.123 79.8428 104.005 80.0869 103.795 80.2672C103.585 80.4475 103.301 80.5493 103.003 80.5504V80.5504C102.706 80.5493 102.421 80.4475 102.212 80.2672C102.002 80.0869 101.884 79.8428 101.884 79.5884V79.5884C101.884 79.3344 102.002 79.0907 102.212 78.9111C102.422 78.7315 102.706 78.6306 103.003 78.6306Z" fill="white" stroke="#263238" stroke-width="0.829701" stroke-linecap="round" stroke-linejoin="round"/>
<path d="M113.672 100.148C113.97 100.148 114.255 100.249 114.466 100.428C114.676 100.608 114.795 100.852 114.797 101.106C114.795 101.36 114.676 101.604 114.466 101.784C114.255 101.963 113.97 102.064 113.672 102.064V102.064C113.376 102.064 113.091 101.963 112.881 101.783C112.671 101.604 112.553 101.36 112.553 101.106C112.553 100.852 112.671 100.608 112.881 100.429C113.091 100.249 113.376 100.148 113.672 100.148V100.148Z" fill="white" stroke="#263238" stroke-width="0.829701" stroke-linecap="round" stroke-linejoin="round"/>
<path d="M124.415 98.304C124.712 98.304 124.997 98.4049 125.207 98.5845C125.416 98.7641 125.534 99.0078 125.534 99.2618C125.534 99.5162 125.417 99.7603 125.207 99.9406C124.997 100.121 124.712 100.223 124.415 100.224V100.224C124.118 100.223 123.833 100.121 123.623 99.9406C123.414 99.7603 123.296 99.5162 123.296 99.2618C123.296 99.0078 123.414 98.7641 123.624 98.5845C123.834 98.4049 124.118 98.304 124.415 98.304Z" fill="white" stroke="#263238" stroke-width="0.829701" stroke-linecap="round" stroke-linejoin="round"/>
<path d="M135.089 95.8422C135.385 95.8433 135.669 95.9447 135.878 96.1242C136.087 96.3037 136.204 96.5467 136.204 96.8V96.8C136.204 97.0533 136.087 97.2963 135.878 97.4758C135.669 97.6553 135.385 97.7567 135.089 97.7578C134.792 97.7578 134.507 97.6571 134.296 97.4775C134.086 97.298 133.967 97.0544 133.965 96.8V96.8C133.967 96.5456 134.086 96.302 134.296 96.1224C134.507 95.9429 134.792 95.8422 135.089 95.8422V95.8422Z" fill="white" stroke="#263238" stroke-width="0.829701" stroke-linecap="round" stroke-linejoin="round"/>
<path d="M145.778 84.7767C146.076 84.7767 146.361 84.8775 146.572 85.057C146.782 85.2365 146.901 85.4801 146.903 85.7345C146.901 85.989 146.782 86.2326 146.572 86.4121C146.361 86.5916 146.076 86.6924 145.778 86.6924V86.6924C145.482 86.6924 145.197 86.5915 144.987 86.4118C144.777 86.2322 144.659 85.9886 144.659 85.7345V85.7345C144.659 85.4805 144.777 85.2369 144.987 85.0572C145.197 84.8776 145.482 84.7767 145.778 84.7767Z" fill="white" stroke="#263238" stroke-width="0.829701" stroke-linecap="round" stroke-linejoin="round"/>
<path d="M63.2492 87.6124H57.4075C57.0169 87.6124 56.6423 87.4796 56.3662 87.2433C56.09 87.0069 55.9348 86.6864 55.9348 86.3521C55.9348 86.0215 56.0865 85.704 56.3574 85.4683C56.6283 85.2325 56.9966 85.0973 57.383 85.0918H63.2296C63.6201 85.0918 63.9947 85.2246 64.2709 85.4609C64.5471 85.6973 64.7022 86.0178 64.7022 86.3521C64.7022 86.6864 64.5471 87.0069 64.2709 87.2433C63.9947 87.4796 63.6201 87.6124 63.2296 87.6124H63.2492Z" fill="white" stroke="#263238" stroke-width="0.829701" stroke-linecap="round" stroke-linejoin="round"/>
<path d="M60.2075 90.927V87.7342" stroke="#263238" stroke-width="0.829701" stroke-linecap="round" stroke-linejoin="round"/>
<path d="M95.1987 69.2035H89.3423C88.9517 69.2035 88.5772 69.0707 88.301 68.8343C88.0248 68.598 87.8696 68.2774 87.8696 67.9432C87.8696 67.6089 88.0248 67.2883 88.301 67.052C88.5772 66.8156 88.9517 66.6829 89.3423 66.6829H95.2331C95.6237 66.6829 95.9983 66.8156 96.2744 67.052C96.5506 67.2883 96.7058 67.6089 96.7058 67.9432C96.7058 68.1112 96.6666 68.2775 96.5905 68.4324C96.5143 68.5872 96.4028 68.7275 96.2624 68.8449C96.122 68.9623 95.9555 69.0545 95.7729 69.1161C95.5902 69.1777 95.395 69.2074 95.1987 69.2035Z" fill="white" stroke="#263238" stroke-width="0.829701" stroke-linecap="round" stroke-linejoin="round"/>
<path d="M92.1667 72.5181V69.3253" stroke="#263238" stroke-width="0.829701" stroke-linecap="round" stroke-linejoin="round"/>
<path d="M148.575 81.3109H142.738C142.347 81.3109 141.973 81.1781 141.697 80.9417C141.421 80.7054 141.265 80.3848 141.265 80.0506V80.0506C141.265 79.7163 141.421 79.3957 141.697 79.1594C141.973 78.923 142.347 78.7903 142.738 78.7903H148.575C148.957 78.7901 149.324 78.9171 149.599 79.1444C149.874 79.3718 150.035 79.6816 150.048 80.0085V80.038C150.048 80.3722 149.892 80.6928 149.616 80.9291C149.34 81.1655 148.965 81.2983 148.575 81.2983V81.3109Z" fill="white" stroke="#263238" stroke-width="0.829701" stroke-linecap="round" stroke-linejoin="round"/>
<path d="M145.538 84.6254V81.4326" stroke="#263238" stroke-width="0.829701" stroke-linecap="round" stroke-linejoin="round"/>
<path d="M96.772 45.1274C95.103 45.1274 93.4715 45.551 92.0838 46.3445C90.6961 47.138 89.6145 48.2659 88.9758 49.5854C88.3372 50.905 88.17 52.357 88.4956 53.7579C88.8212 55.1587 89.6249 56.4455 90.8051 57.4554C91.9852 58.4654 93.4888 59.1531 95.1258 59.4318C96.7627 59.7104 98.4594 59.5674 100.001 59.0208C101.543 58.4743 102.861 57.5486 103.788 56.3611C104.716 55.1735 105.211 53.7773 105.211 52.349V52.349C105.209 50.4341 104.32 48.5979 102.738 47.2438C101.155 45.8898 99.0097 45.1286 96.772 45.1274V45.1274ZM96.772 57.4448C95.5902 57.4448 94.435 57.1449 93.4524 56.5829C92.4699 56.0209 91.7041 55.2222 91.2521 54.2877C90.8001 53.3533 90.682 52.3251 90.913 51.3332C91.1439 50.3413 91.7134 49.4304 92.5494 48.7155C93.3854 48.0007 94.4503 47.5141 95.6095 47.3173C96.7687 47.1205 97.9701 47.2223 99.0617 47.6099C100.153 47.9975 101.086 48.6535 101.742 49.4948C102.398 50.3361 102.747 51.325 102.746 52.3364C102.746 53.0076 102.592 53.6722 102.291 54.2923C101.991 54.9123 101.551 55.4757 100.996 55.9501C100.441 56.4245 99.7827 56.8007 99.0579 57.0572C98.3331 57.3137 97.5563 57.4454 96.772 57.4448V57.4448Z" fill="white" stroke="#263238" stroke-width="0.829701" stroke-linecap="round" stroke-linejoin="round"/>
<path d="M96.7646 45.1274C95.6262 45.1236 94.4989 45.3191 93.452 45.7021C92.4052 46.085 91.461 46.6471 90.6775 47.3539L92.4644 48.8201C93.0174 48.3201 93.6844 47.9224 94.4239 47.6515C95.1635 47.3805 95.9601 47.2421 96.7646 47.2447C98.3491 47.2447 99.8687 47.7834 100.989 48.7422C102.109 49.701 102.739 51.0014 102.739 52.3574C102.739 53.7133 102.109 55.0137 100.989 55.9725C99.8687 56.9313 98.3491 57.47 96.7646 57.47V57.47V59.5705C99.002 59.619 101.17 58.9048 102.792 57.5852C104.414 56.2656 105.358 54.4485 105.414 52.5338C105.471 50.6191 104.636 48.7635 103.094 47.3754C101.552 45.9872 99.4291 45.1801 97.1917 45.1316H96.7646V45.1274Z" fill="#263238" stroke="#263238" stroke-width="1.00786" stroke-linecap="round" stroke-linejoin="round"/>
<path d="M94.4128 51.9667H99.1107" stroke="#263238" stroke-width="0.829701" stroke-linecap="round" stroke-linejoin="round"/>
<path d="M94.4128 52.7313H99.1107" stroke="#263238" stroke-width="0.829701" stroke-linecap="round" stroke-linejoin="round"/>
<path d="M44.5574 43.6361H49.2553" stroke="#263238" stroke-width="0.829701" stroke-linecap="round" stroke-linejoin="round"/>
<path d="M44.5574 44.3965H49.2553" stroke="#263238" stroke-width="0.829701" stroke-linecap="round" stroke-linejoin="round"/>
<path d="M50.3682 43.6361H55.0661" stroke="#263238" stroke-width="0.829701" stroke-linecap="round" stroke-linejoin="round"/>
<path d="M50.3682 44.3965H55.0661" stroke="#263238" stroke-width="0.829701" stroke-linecap="round" stroke-linejoin="round"/>
<path d="M56.179 43.6361H60.8768" stroke="#263238" stroke-width="0.829701" stroke-linecap="round" stroke-linejoin="round"/>
<path d="M56.179 44.3965H60.8768" stroke="#263238" stroke-width="0.829701" stroke-linecap="round" stroke-linejoin="round"/>
<path d="M44.5574 65.9939H49.2553" stroke="#263238" stroke-width="0.829701" stroke-linecap="round" stroke-linejoin="round"/>
<path d="M44.5574 66.7501H49.2553" stroke="#263238" stroke-width="0.829701" stroke-linecap="round" stroke-linejoin="round"/>
<path d="M50.3682 65.9939H55.0661" stroke="#263238" stroke-width="0.829701" stroke-linecap="round" stroke-linejoin="round"/>
<path d="M50.3682 66.7501H55.0661" stroke="#263238" stroke-width="0.829701" stroke-linecap="round" stroke-linejoin="round"/>
<path d="M56.179 65.9939H60.8768" stroke="#263238" stroke-width="0.829701" stroke-linecap="round" stroke-linejoin="round"/>
<path d="M56.179 66.7501H60.8768" stroke="#263238" stroke-width="0.829701" stroke-linecap="round" stroke-linejoin="round"/>
<path d="M154.23 69.8379H158.928" stroke="#263238" stroke-width="0.829701" stroke-linecap="round" stroke-linejoin="round"/>
<path d="M160.041 69.8379H164.738" stroke="#263238" stroke-width="0.829701" stroke-linecap="round" stroke-linejoin="round"/>
<path d="M165.827 69.8379H170.525" stroke="#263238" stroke-width="0.829701" stroke-linecap="round" stroke-linejoin="round"/>
<path d="M154.23 70.7705H158.928" stroke="#263238" stroke-width="0.829701" stroke-linecap="round" stroke-linejoin="round"/>
<path d="M160.041 70.7705H164.738" stroke="#263238" stroke-width="0.829701" stroke-linecap="round" stroke-linejoin="round"/>
<path d="M165.827 70.7705H170.525" stroke="#263238" stroke-width="0.829701" stroke-linecap="round" stroke-linejoin="round"/>
<path d="M154.23 71.7115H158.928" stroke="#263238" stroke-width="0.829701" stroke-linecap="round" stroke-linejoin="round"/>
<path d="M160.041 71.7115H164.738" stroke="#263238" stroke-width="0.829701" stroke-linecap="round" stroke-linejoin="round"/>
<path d="M165.827 71.7115H170.525" stroke="#263238" stroke-width="0.829701" stroke-linecap="round" stroke-linejoin="round"/>
<path d="M154.23 72.6442H158.928" stroke="#263238" stroke-width="0.829701" stroke-linecap="round" stroke-linejoin="round"/>
<path d="M160.041 72.6442H164.738" stroke="#263238" stroke-width="0.829701" stroke-linecap="round" stroke-linejoin="round"/>
<path d="M165.827 72.6442H170.525" stroke="#263238" stroke-width="0.829701" stroke-linecap="round" stroke-linejoin="round"/>
<path d="M154.23 73.581H158.928" stroke="#263238" stroke-width="0.829701" stroke-linecap="round" stroke-linejoin="round"/>
<path d="M160.041 73.581H164.738" stroke="#263238" stroke-width="0.829701" stroke-linecap="round" stroke-linejoin="round"/>
<path d="M165.827 73.581H170.525" stroke="#263238" stroke-width="0.829701" stroke-linecap="round" stroke-linejoin="round"/>
<path d="M154.23 74.522H158.928" stroke="#263238" stroke-width="0.829701" stroke-linecap="round" stroke-linejoin="round"/>
<path d="M160.041 74.522H164.738" stroke="#263238" stroke-width="0.829701" stroke-linecap="round" stroke-linejoin="round"/>
<path d="M165.827 74.522H170.525" stroke="#263238" stroke-width="0.829701" stroke-linecap="round" stroke-linejoin="round"/>
<path d="M154.23 75.4546H158.928" stroke="#263238" stroke-width="0.829701" stroke-linecap="round" stroke-linejoin="round"/>
<path d="M160.041 75.4546H164.738" stroke="#263238" stroke-width="0.829701" stroke-linecap="round" stroke-linejoin="round"/>
<path d="M165.827 75.4546H170.525" stroke="#263238" stroke-width="0.829701" stroke-linecap="round" stroke-linejoin="round"/>
<path d="M154.23 76.3957H158.928" stroke="#263238" stroke-width="0.829701" stroke-linecap="round" stroke-linejoin="round"/>
<path d="M160.041 76.3957H164.738" stroke="#263238" stroke-width="0.829701" stroke-linecap="round" stroke-linejoin="round"/>
<path d="M165.827 76.3957H170.525" stroke="#263238" stroke-width="0.829701" stroke-linecap="round" stroke-linejoin="round"/>
<path d="M154.23 77.3283H158.928" stroke="#263238" stroke-width="0.829701" stroke-linecap="round" stroke-linejoin="round"/>
<path d="M160.041 77.3283H164.738" stroke="#263238" stroke-width="0.829701" stroke-linecap="round" stroke-linejoin="round"/>
<path d="M165.827 77.3283H170.525" stroke="#263238" stroke-width="0.829701" stroke-linecap="round" stroke-linejoin="round"/>
<path d="M154.23 78.2693H158.928" stroke="#263238" stroke-width="0.829701" stroke-linecap="round" stroke-linejoin="round"/>
<path d="M160.041 78.2693H164.738" stroke="#263238" stroke-width="0.829701" stroke-linecap="round" stroke-linejoin="round"/>
<path d="M165.827 78.2693H170.525" stroke="#263238" stroke-width="0.829701" stroke-linecap="round" stroke-linejoin="round"/>
<path d="M154.23 79.2061H158.928" stroke="#263238" stroke-width="0.829701" stroke-linecap="round" stroke-linejoin="round"/>
<path d="M160.041 79.2061H164.738" stroke="#263238" stroke-width="0.829701" stroke-linecap="round" stroke-linejoin="round"/>
<path d="M165.827 79.2061H170.525" stroke="#263238" stroke-width="0.829701" stroke-linecap="round" stroke-linejoin="round"/>
<path d="M154.23 80.1387H158.928" stroke="#263238" stroke-width="0.829701" stroke-linecap="round" stroke-linejoin="round"/>
<path d="M160.041 80.1387H164.738" stroke="#263238" stroke-width="0.829701" stroke-linecap="round" stroke-linejoin="round"/>
<path d="M165.827 80.1387H170.525" stroke="#263238" stroke-width="0.829701" stroke-linecap="round" stroke-linejoin="round"/>
<path d="M154.23 81.0798H158.928" stroke="#263238" stroke-width="0.829701" stroke-linecap="round" stroke-linejoin="round"/>
<path d="M160.041 81.0798H164.738" stroke="#263238" stroke-width="0.829701" stroke-linecap="round" stroke-linejoin="round"/>
<path d="M165.827 81.0798H170.525" stroke="#263238" stroke-width="0.829701" stroke-linecap="round" stroke-linejoin="round"/>
<path d="M154.23 82.0124H158.928" stroke="#263238" stroke-width="0.829701" stroke-linecap="round" stroke-linejoin="round"/>
<path d="M160.041 82.0124H164.738" stroke="#263238" stroke-width="0.829701" stroke-linecap="round" stroke-linejoin="round"/>
<path d="M165.827 82.0124H170.525" stroke="#263238" stroke-width="0.829701" stroke-linecap="round" stroke-linejoin="round"/>
<path d="M154.23 82.9535H158.928" stroke="#263238" stroke-width="0.829701" stroke-linecap="round" stroke-linejoin="round"/>
<path d="M160.041 82.9535H164.738" stroke="#263238" stroke-width="0.829701" stroke-linecap="round" stroke-linejoin="round"/>
<path d="M165.827 82.9535H170.525" stroke="#263238" stroke-width="0.829701" stroke-linecap="round" stroke-linejoin="round"/>
<path d="M116.553 45.1274C114.884 45.1266 113.252 45.5493 111.864 46.3422C110.476 47.135 109.393 48.2623 108.754 49.5815C108.114 50.9008 107.946 52.3527 108.271 53.7537C108.595 55.1547 109.398 56.4419 110.578 57.4524C111.757 58.463 113.26 59.1515 114.897 59.431C116.534 59.7104 118.231 59.5683 119.773 59.0224C121.315 58.4766 122.634 57.5517 123.562 56.3646C124.49 55.1775 124.986 53.7815 124.987 52.3532C124.985 50.4386 124.097 48.6026 122.516 47.248C120.935 45.8934 118.79 45.1308 116.553 45.1274V45.1274ZM116.553 57.4448C115.371 57.4448 114.216 57.1449 113.233 56.5829C112.251 56.0209 111.485 55.2222 111.033 54.2877C110.581 53.3533 110.463 52.3251 110.694 51.3332C110.925 50.3413 111.494 49.4304 112.33 48.7155C113.166 48.0007 114.231 47.5141 115.391 47.3173C116.55 47.1205 117.751 47.2223 118.843 47.6099C119.934 47.9975 120.867 48.6535 121.523 49.4948C122.179 50.3361 122.528 51.325 122.527 52.3364C122.527 53.0076 122.373 53.6722 122.072 54.2923C121.772 54.9123 121.332 55.4757 120.777 55.9501C120.222 56.4245 119.564 56.8007 118.839 57.0572C118.114 57.3137 117.337 57.4454 116.553 57.4448V57.4448Z" fill="white" stroke="#263238" stroke-width="0.829701" stroke-linecap="round" stroke-linejoin="round"/>
<path d="M122.353 51.1349L124.685 50.3871C124.282 49.1621 123.509 48.05 122.442 47.1636C121.375 46.2772 120.053 45.6481 118.611 45.3401C117.168 45.0321 115.656 45.0561 114.227 45.4098C112.799 45.7635 111.506 46.4342 110.478 47.354L112.265 48.8201C113.003 48.1597 113.935 47.6814 114.963 47.4352C115.992 47.1889 117.079 47.1839 118.11 47.4205C119.141 47.6572 120.079 48.1269 120.826 48.7804C121.572 49.4338 122.1 50.2471 122.353 51.1349V51.1349Z" fill="#263238" stroke="#263238" stroke-width="1.00786" stroke-linecap="round" stroke-linejoin="round"/>
<path d="M114.091 51.9667H118.789" stroke="#263238" stroke-width="0.829701" stroke-linecap="round" stroke-linejoin="round"/>
<path d="M114.091 52.7313H118.789" stroke="#263238" stroke-width="0.829701" stroke-linecap="round" stroke-linejoin="round"/>
<path d="M143.907 47.9757C142.897 46.8403 141.515 45.9868 139.938 45.5232C138.36 45.0595 136.658 45.0066 135.045 45.3711C133.432 45.7356 131.982 46.5011 130.878 47.5708C129.774 48.6405 129.065 49.9665 128.841 51.3809C128.617 52.7954 128.889 54.2349 129.621 55.5174C130.353 56.7999 131.513 57.8678 132.954 58.5861C134.396 59.3044 136.054 59.6408 137.718 59.5528C139.383 59.4648 140.98 58.9564 142.307 58.0918C143.189 57.5179 143.93 56.8009 144.488 55.9817C145.046 55.1625 145.409 54.2572 145.558 53.3177C145.707 52.3781 145.637 51.4227 145.354 50.5061C145.071 49.5895 144.579 48.7296 143.907 47.9757V47.9757ZM132.455 55.4409C131.737 54.6375 131.314 53.67 131.239 52.6609C131.165 51.6518 131.441 50.6463 132.034 49.7716C132.627 48.8969 133.509 48.1923 134.57 47.7468C135.631 47.3014 136.822 47.1351 137.993 47.2691C139.164 47.403 140.263 47.8312 141.15 48.4994C142.036 49.1676 142.672 50.0458 142.975 51.023C143.279 52.0002 143.237 53.0325 142.855 53.9894C142.473 54.9463 141.768 55.7848 140.829 56.3988V56.3988C139.57 57.2211 137.981 57.5821 136.411 57.4025C134.84 57.223 133.418 56.5175 132.455 55.4409V55.4409Z" fill="white" stroke="#263238" stroke-width="0.829701" stroke-linecap="round" stroke-linejoin="round"/>
<path d="M141.833 55.5502L143.944 56.6887C144.837 55.6718 145.401 54.471 145.578 53.2078C145.755 51.9446 145.539 50.6639 144.951 49.4952C144.364 48.3265 143.426 47.3113 142.233 46.5524C141.04 45.7936 139.633 45.3179 138.156 45.1737L137.872 47.2742C138.929 47.3821 139.934 47.7301 140.782 48.2822C141.63 48.8343 142.29 49.5703 142.693 50.414C143.097 51.2578 143.229 52.1785 143.077 53.0808C142.925 53.9832 142.494 54.8343 141.828 55.546L141.833 55.5502Z" fill="#263238" stroke="#263238" stroke-width="1.00786" stroke-linecap="round" stroke-linejoin="round"/>
<path d="M134.747 51.9667H139.444" stroke="#263238" stroke-width="0.829701" stroke-linecap="round" stroke-linejoin="round"/>
<path d="M134.747 52.7313H139.444" stroke="#263238" stroke-width="0.829701" stroke-linecap="round" stroke-linejoin="round"/>
<path d="M168.884 98.4804C167.874 97.345 166.492 96.4915 164.915 96.0279C163.337 95.5642 161.634 95.5113 160.022 95.8758C158.409 96.2403 156.959 97.0058 155.855 98.0755C154.751 99.1452 154.042 100.471 153.818 101.886C153.594 103.3 153.866 104.74 154.598 106.022C155.33 107.305 156.49 108.372 157.931 109.091C159.373 109.809 161.03 110.145 162.695 110.058C164.36 109.97 165.957 109.461 167.284 108.596C168.165 108.022 168.906 107.305 169.463 106.486C170.021 105.667 170.384 104.762 170.533 103.822C170.681 102.883 170.612 101.927 170.329 101.011C170.047 100.094 169.555 99.2345 168.884 98.4804V98.4804ZM157.432 105.937C156.715 105.133 156.294 104.165 156.221 103.156C156.147 102.147 156.425 101.142 157.019 100.268C157.613 99.3938 158.497 98.6901 159.558 98.2458C160.619 97.8014 161.811 97.6364 162.981 97.7715C164.152 97.9066 165.25 98.3357 166.136 99.0047C167.022 99.6737 167.656 100.552 167.959 101.53C168.261 102.507 168.218 103.54 167.835 104.496C167.452 105.453 166.746 106.29 165.806 106.903V106.903C165.182 107.311 164.471 107.609 163.712 107.781C162.953 107.953 162.163 107.995 161.385 107.905C160.607 107.815 159.858 107.595 159.18 107.258C158.501 106.92 157.907 106.471 157.432 105.937Z" fill="#FF725E" stroke="#263238" stroke-width="1.10627" stroke-linecap="round" stroke-linejoin="round"/>
<path d="M166.8 106.055L168.916 107.189C169.81 106.173 170.374 104.973 170.551 103.71C170.728 102.447 170.512 101.167 169.925 99.9985C169.338 98.8301 168.401 97.8152 167.208 97.0566C166.015 96.2979 164.61 95.8224 163.133 95.6783L162.848 97.7788C163.907 97.8861 164.912 98.2339 165.76 98.786C166.608 99.3381 167.268 100.074 167.671 100.919C168.075 101.763 168.207 102.684 168.053 103.586C167.9 104.489 167.467 105.34 166.8 106.051V106.055Z" fill="#263238" stroke="#263238" stroke-width="1.00786" stroke-linecap="round" stroke-linejoin="round"/>
<path d="M159.723 102.471H164.421" stroke="#263238" stroke-width="0.829701" stroke-linecap="round" stroke-linejoin="round"/>
<path d="M159.723 103.228H164.421" stroke="#263238" stroke-width="0.829701" stroke-linecap="round" stroke-linejoin="round"/>
<path d="M70.6913 21.8286C70.6913 21.8286 67.6968 22.8158 66.8328 24.1181C66.2879 24.9079 66.7837 26.5799 68.9289 27.2185C69.8518 27.5 71.1772 27.1387 72.6696 26.6766C74.1619 26.2145 72.8708 21.2489 70.6913 21.8286Z" fill="white" stroke="#263238" stroke-width="0.829701" stroke-linecap="round" stroke-linejoin="round"/>
<path opacity="0.5" d="M69.6909 26.8068C69.6909 26.8068 67.7273 26.4539 67.7273 25.0592C67.7273 23.6644 70.3634 22.799 71.1194 22.799C71.8754 22.799 72.2485 23.446 72.2485 24.5214C72.2485 25.5969 70.7758 27.1639 69.6909 26.8068Z" fill="#FF725E"/>
<path d="M33.302 29.5207L38.6282 44.2242L37.9213 47.5472L39.8849 49.9628L40.5918 49.6604L40.9453 47.3918V45.5812L41.8289 47.9968L42.7076 47.5304L42.1676 44.0562L40.4004 41.6364L37.9459 30.1676C37.9459 30.1676 35.5601 29.1132 33.302 29.5207Z" fill="white" stroke="#263238" stroke-width="0.829701" stroke-linecap="round" stroke-linejoin="round"/>
<path d="M39.789 49.7318L38.4292 47.0936" stroke="#263238" stroke-width="0.553134" stroke-linecap="round" stroke-linejoin="round"/>
<path d="M40.5546 49.6393L39.4304 46.4844" stroke="#263238" stroke-width="0.553134" stroke-linecap="round" stroke-linejoin="round"/>
<path d="M72.7342 23.9207L82.3755 34.3056L85.3847 36.4901L85.6792 39.4309L84.9036 39.5821L82.94 38.0235L81.5949 36.6288L82.7093 38.9519L81.6882 39.0822L79.5283 36.0826L79.5724 34.0283L69.6956 26.7942C68.8807 26.1892 69.0378 24.387 69.9705 23.9249C70.3989 23.7399 70.8719 23.6431 71.3518 23.6424C71.8317 23.6417 72.3051 23.737 72.7342 23.9207V23.9207Z" fill="white" stroke="#263238" stroke-width="0.829701" stroke-linecap="round" stroke-linejoin="round"/>
<path d="M85.348 39.5443L82.9868 35.9902" stroke="#263238" stroke-width="0.553134" stroke-linecap="round" stroke-linejoin="round"/>
<path d="M85.2826 38.2588L84.2075 36.2969" stroke="#263238" stroke-width="0.553134" stroke-linecap="round" stroke-linejoin="round"/>
<path d="M180.899 82.2394L175.215 75.4799L173.86 75.9756L177.62 83.7223L180.899 82.2394Z" fill="white" stroke="#263238" stroke-width="0.829701" stroke-linecap="round" stroke-linejoin="round"/>
<path d="M170.149 73.9885L171.455 74.6607L171.813 74.2406L170.13 71.867C169.899 71.2285 170.498 71.6696 170.498 71.6696L171.813 73.2282L170.586 70.4387C170.832 69.8505 171.283 70.2874 171.283 70.2874L172.643 72.661L172.324 70.1068C172.545 69.5817 172.869 70.1068 172.869 70.1068L173.747 72.8459C173.792 72.3543 173.87 72.0057 173.949 71.5225C173.993 71.2243 173.885 71.1024 174.184 71.0562C174.724 70.989 174.597 71.6402 174.616 71.9342C174.661 72.5098 174.705 73.0853 174.744 73.6567L175.235 75.711L173.855 76.2361L171.74 75.6437L169.889 74.4465C169.604 73.8541 170.149 73.9885 170.149 73.9885Z" fill="white" stroke="#263238" stroke-width="0.829701" stroke-linecap="round" stroke-linejoin="round"/>
<path d="M180.24 82.4326C180.24 82.4326 178.61 82.5124 177.933 83.0081C177.256 83.5038 176.848 83.9155 176.303 83.8483C176.194 83.8111 176.076 83.7975 175.959 83.8086C175.842 83.8197 175.73 83.8553 175.633 83.9122C175.536 83.969 175.457 84.0455 175.402 84.1347C175.348 84.2239 175.32 84.3232 175.321 84.4239C175.228 84.9154 175.513 85.2641 175.513 85.4951C175.513 85.7262 174.983 87.4612 174.983 88.2006C174.983 88.94 175.267 89.129 176.038 89.4399C176.586 89.6588 177.171 89.8007 177.771 89.86C177.872 90.655 177.905 91.4554 177.869 92.2546C177.827 92.6686 177.658 93.0658 177.378 93.4057C178.402 93.5079 179.431 93.564 180.461 93.5737C181.172 93.5958 181.883 93.5393 182.577 93.4057C182.577 93.4057 180.073 91.1833 180.073 88.461C180.073 85.7388 180.751 84.0122 181.163 83.4198C181.575 82.8275 181.305 82.6552 180.24 82.4326Z" fill="white" stroke="#263238" stroke-width="0.829701" stroke-linecap="round" stroke-linejoin="round"/>
<path d="M176.099 87.3856C175.877 87.3646 175.663 87.3041 175.47 87.2078C175.277 87.1116 175.11 86.9818 174.98 86.8268C174.969 86.8119 174.962 86.7955 174.96 86.7783C174.957 86.7612 174.958 86.7437 174.963 86.7269C174.968 86.7102 174.977 86.6944 174.989 86.6805C175.001 86.6667 175.016 86.655 175.034 86.6462C175.051 86.6374 175.07 86.6316 175.09 86.6291C175.11 86.6267 175.131 86.6276 175.15 86.6319C175.17 86.6362 175.188 86.6437 175.204 86.6541C175.221 86.6645 175.234 86.6775 175.245 86.6924C175.351 86.8128 175.486 86.9126 175.641 86.985C175.796 87.0574 175.967 87.1009 176.143 87.1125C176.183 87.1177 176.218 87.136 176.242 87.1636C176.266 87.1911 176.276 87.2256 176.271 87.2595C176.269 87.2765 176.264 87.2931 176.255 87.3082C176.246 87.3234 176.234 87.3369 176.219 87.3479C176.204 87.3589 176.186 87.3671 176.167 87.3722C176.148 87.3772 176.128 87.3789 176.109 87.3772L176.099 87.3856Z" fill="#263238"/>
<path d="M177.095 84.5415C177.045 84.5418 176.995 84.528 176.955 84.5022C176.915 84.4764 176.885 84.44 176.872 84.3986C176.858 84.3572 176.86 84.313 176.878 84.2728C176.896 84.2326 176.929 84.1986 176.972 84.176V84.176L177.6 83.8441C177.651 83.8176 177.712 83.8094 177.77 83.8212C177.828 83.833 177.878 83.8639 177.91 83.9071V83.9071C177.941 83.9525 177.95 84.0063 177.935 84.0573C177.921 84.1083 177.883 84.1524 177.831 84.1802L177.208 84.5037C177.175 84.5255 177.136 84.5386 177.095 84.5415V84.5415Z" fill="#263238"/>
<path d="M173.2 129.518C173.2 129.518 173.392 133.324 173.838 135.622C174.285 137.92 178.296 153.413 178.296 154.371C178.296 155.329 174.481 157.912 174.481 157.912C174.481 157.912 173.397 159.076 174.742 158.778C175.831 158.538 180.441 157.517 182.105 156.295C182.832 155.77 181.217 153.619 181.217 153.619C181.217 153.619 180.132 139.071 179.439 136.781C179.071 135.49 178.625 134.215 178.104 132.962L180.323 128.925L173.2 129.518Z" fill="white" stroke="#263238" stroke-width="0.829701" stroke-linecap="round" stroke-linejoin="round"/>
<path opacity="0.5" d="M179.415 136.764C179.046 135.473 178.6 134.198 178.08 132.946L180.313 128.938L173.2 129.518C173.2 129.518 173.274 130.912 173.431 132.559C173.984 132.764 174.553 132.937 175.134 133.076C175.688 133.189 176.254 133.252 176.823 133.265C177.514 134.776 177.933 136.368 178.065 137.987C178.291 140.684 180.431 154.173 180.431 154.173L180.785 156.963C181.251 156.777 181.693 156.547 182.1 156.278C182.822 155.753 181.207 153.602 181.207 153.602C181.207 153.602 180.087 139.054 179.415 136.764Z" fill="#FF725E"/>
<path d="M181.316 153.766C180.586 153.89 179.893 154.141 179.279 154.501L178.297 154.371C178.297 155.299 174.468 157.895 174.468 157.895C174.468 157.895 173.383 159.059 174.729 158.761C175.813 158.521 180.428 157.501 182.092 156.278C182.696 155.862 181.67 154.266 181.316 153.766Z" fill="#263238"/>
<path d="M174.725 158.752C175.81 158.513 180.424 157.492 182.088 156.27C182.176 156.184 182.237 156.081 182.265 155.97C182.294 155.859 182.289 155.744 182.25 155.635L174.106 158.345C173.959 158.652 173.959 158.929 174.725 158.752Z" fill="white" stroke="#263238" stroke-width="0.829701" stroke-linecap="round" stroke-linejoin="round"/>
<path d="M187.772 126.825L184.591 131.521C185.749 132.791 186.665 134.208 187.306 135.723C188.057 137.579 191.233 148.023 193.147 152.812C193.369 153.413 193.7 153.98 194.129 154.493C194.43 154.82 194.601 155.22 194.62 155.635C194.644 155.88 194.555 156.123 194.371 156.311C194.187 156.499 193.924 156.617 193.638 156.639V156.639C192.489 156.782 186.073 157.265 185.745 157.034C185.533 156.883 188.744 155.732 190.089 154.976C190.519 154.747 190.89 154.445 191.179 154.089C191.179 154.089 182.004 137.138 181.032 135.08C180.247 133.433 179.887 131.66 179.976 129.883C180.039 128.364 180.203 126.849 180.467 125.346L187.772 126.825Z" fill="white"/>
<path opacity="0.5" d="M193.147 152.829C191.213 148.04 188.062 137.588 187.311 135.739C186.67 134.225 185.754 132.807 184.596 131.538L187.747 126.825L181.655 125.59L180.33 125.93C180.115 127.238 179.985 128.555 179.942 129.875C179.929 130.457 179.954 131.039 180.016 131.618C180.576 131.824 181.16 131.979 181.758 132.08C182.276 132.18 182.801 132.249 183.329 132.286C183.89 133.198 184.306 134.17 184.566 135.176C185.111 137.1 192.102 153.476 192.332 153.959C192.563 154.442 193.457 154.535 192.332 156.282L191.999 156.786C192.71 156.732 193.275 156.673 193.55 156.644C193.834 156.621 194.097 156.504 194.281 156.316C194.465 156.129 194.555 155.887 194.532 155.644C194.518 155.227 194.345 154.826 194.041 154.501C193.647 153.985 193.346 153.421 193.147 152.829V152.829Z" fill="#FF725E"/>
<path d="M187.772 126.825L184.591 131.521C185.749 132.791 186.665 134.208 187.306 135.723C188.057 137.579 191.233 148.023 193.147 152.812C193.369 153.413 193.7 153.98 194.129 154.493C194.43 154.82 194.601 155.22 194.62 155.635C194.644 155.88 194.555 156.123 194.371 156.311C194.187 156.499 193.924 156.617 193.638 156.639V156.639C192.489 156.782 186.073 157.265 185.745 157.034C185.533 156.883 188.744 155.732 190.089 154.976C190.519 154.747 190.89 154.445 191.179 154.089C191.179 154.089 182.004 137.138 181.032 135.08C180.247 133.433 179.887 131.66 179.976 129.883C180.039 128.364 180.203 126.849 180.467 125.346L187.772 126.825Z" stroke="#263238" stroke-width="0.829701" stroke-linecap="round" stroke-linejoin="round"/>
<path d="M194.596 155.648C194.578 155.232 194.406 154.832 194.106 154.505L194.032 154.417C193.367 154.82 192.562 155.015 191.749 154.972V154.299C191.749 153.615 191.145 154.089 191.145 154.089C190.849 154.446 190.469 154.746 190.031 154.972C188.681 155.728 185.471 156.879 185.687 157.03C186.016 157.261 192.432 156.778 193.58 156.635C193.865 156.612 194.128 156.493 194.312 156.305C194.495 156.117 194.585 155.875 194.562 155.631L194.596 155.648Z" fill="#263238"/>
<path d="M194.62 155.862C192.446 156.055 188.882 156.282 187.016 156.387C186.236 156.719 185.666 156.98 185.76 157.047C186.089 157.278 192.5 156.795 193.653 156.652C193.898 156.639 194.129 156.553 194.306 156.408C194.483 156.264 194.594 156.07 194.62 155.862V155.862Z" fill="white" stroke="#263238" stroke-width="0.829701" stroke-linecap="round" stroke-linejoin="round"/>
<path d="M176.877 108.647C176.877 108.647 175.247 112.18 172.949 117.65C170.652 123.119 172.778 131.391 172.778 131.391C172.778 131.391 174.461 132.29 179.017 131.206C183.572 130.123 187.401 129.001 187.401 129.001C187.401 129.001 190.347 122.901 190.519 119.011C190.69 115.121 187.647 110.353 187.647 110.353C187.647 110.353 181.457 103.812 176.877 108.647Z" fill="white"/>
<path d="M179.379 107.08L177.975 111.89C177.975 111.89 181.235 117.188 181.578 118.444C181.922 119.7 182.589 119.792 180.454 122.107C178.319 124.422 176.061 126.631 176.964 126.342C177.867 126.052 181.338 122.897 180.891 124.128C180.444 125.359 177.857 126.728 176.964 128.077C176.252 129.237 175.717 130.471 175.373 131.748C176.616 131.696 177.847 131.519 179.04 131.219C183.601 130.139 187.425 129.009 187.425 129.009C187.425 129.009 190.37 122.914 190.542 119.023C190.714 115.133 187.67 110.365 187.67 110.365C187.67 110.365 183.399 105.891 179.379 107.08Z" fill="#FF725E"/>
<path d="M176.877 108.647C176.877 108.647 175.247 112.18 172.949 117.65C170.652 123.119 172.778 131.391 172.778 131.391C172.778 131.391 174.461 132.29 179.017 131.206C183.572 130.123 187.401 129.001 187.401 129.001C187.401 129.001 190.347 122.901 190.519 119.011C190.69 115.121 187.647 110.353 187.647 110.353C187.647 110.353 181.457 103.812 176.877 108.647Z" stroke="#263238" stroke-width="0.829701" stroke-linecap="round" stroke-linejoin="round"/>
<path d="M180.476 126.917C180.476 126.917 186.485 123.35 188.188 119.393" stroke="#263238" stroke-width="0.553134" stroke-linecap="round" stroke-linejoin="round"/>
<path d="M178.303 126.522C178.303 126.522 181.852 125.069 183.703 123.481" stroke="#263238" stroke-width="0.553134" stroke-linecap="round" stroke-linejoin="round"/>
<path d="M177.672 126.787L176.13 127.047" stroke="#263238" stroke-width="0.553134" stroke-linecap="round" stroke-linejoin="round"/>
<path d="M176.179 92.8511C177 92.4642 177.904 92.2228 178.837 92.1412C179.77 92.0597 180.712 92.1396 181.608 92.3764C184.868 93.1074 183.385 94.1408 182.001 94.2921C180.617 94.4433 176.179 92.8511 176.179 92.8511Z" fill="white" stroke="#263238" stroke-width="0.829701" stroke-linecap="round" stroke-linejoin="round"/>
<path d="M181.481 93.12C179.986 92.8816 178.471 92.7412 176.95 92.6999C175.021 92.6999 171.457 92.8679 169.631 92.1243C167.805 91.3807 165.365 89.4441 165.365 89.4441L161.251 78.9415L159.43 79.0508C159.43 79.0508 161.173 87.8729 161.173 89.4357C161.177 90.737 161.723 91.9943 162.714 92.9813C163.583 93.9728 169.631 96.8967 171.845 97.8839L172.827 98.304C172.827 98.304 171.094 100.531 171.384 101.518C171.673 102.505 173.98 103.744 174.466 104.484C174.952 105.223 176.636 109.264 176.636 109.264C178.004 107.147 179.246 104.978 180.362 102.757C182.635 98.3208 184.466 95.023 181.481 93.12Z" fill="white"/>
<path opacity="0.5" d="M180.339 102.774C182.651 98.3208 184.482 95.023 181.498 93.1116C180.002 92.8753 178.487 92.7349 176.967 92.6915H175.646C176.328 92.9939 178.052 93.9182 177.958 95.481C177.85 97.4092 175.828 96.6362 172.445 96.5396C169.063 96.443 170.079 96.6362 171.316 97.5983L171.488 97.7201L171.861 97.8881L172.843 98.3082L172.745 98.4427C174.404 99.2829 176.672 100.262 176.741 100.694C176.854 101.27 175.165 101.845 175.617 103.102C175.897 103.862 176.333 106.021 177.089 107.832C178.367 106.243 179.456 104.548 180.339 102.774Z" fill="#FF725E"/>
<path d="M181.481 93.12C179.986 92.8816 178.471 92.7412 176.95 92.6999C175.021 92.6999 171.457 92.8679 169.631 92.1243C167.805 91.3807 165.365 89.4441 165.365 89.4441L161.251 78.9415L159.43 79.0508C159.43 79.0508 161.173 87.8729 161.173 89.4357C161.177 90.737 161.723 91.9943 162.714 92.9813C163.583 93.9728 169.631 96.8967 171.845 97.8839L172.827 98.304C172.827 98.304 171.094 100.531 171.384 101.518C171.673 102.505 173.98 103.744 174.466 104.484C174.952 105.223 176.636 109.264 176.636 109.264C178.004 107.147 179.246 104.978 180.362 102.757C182.635 98.3208 184.466 95.023 181.481 93.12Z" stroke="#263238" stroke-width="0.829701" stroke-linecap="round" stroke-linejoin="round"/>
<path d="M162.396 74.9044L161.905 76.2445L161.257 76.1143L160.643 73.1735C160.299 72.5182 160.186 73.2366 160.186 73.2366L160.412 75.3077L159.072 72.2913C158.38 71.9594 158.38 72.5812 158.38 72.5812L159.264 75.3371L157.379 73.0517C156.765 72.7576 156.917 73.3794 156.917 73.3794L158.488 76.1311C158.086 75.8033 157.665 75.4934 157.226 75.2026C156.937 74.9926 156.937 74.8329 156.681 74.9884C156.191 75.2614 156.829 75.7068 157.059 75.963L158.39 77.4334L159.445 79.076L161.266 78.9709L162.489 77.1981L162.98 75.0976C162.695 74.4759 162.396 74.9044 162.396 74.9044Z" fill="white" stroke="#263238" stroke-width="0.829701" stroke-linecap="round" stroke-linejoin="round"/>
<path d="M172.81 98.3208L175.519 99.9886" stroke="#263238" stroke-width="0.553134" stroke-linecap="round" stroke-linejoin="round"/>
<path d="M173.664 99.0645L174.896 101.043" stroke="#263238" stroke-width="0.553134" stroke-linecap="round" stroke-linejoin="round"/>
<path d="M181.975 94.2795C181.975 94.2795 178.99 91.9521 177.733 89.087C176.476 86.2219 177.822 82.7855 179.456 81.4874C181.091 80.1893 186.692 81.9075 188.145 85.2053C189.598 88.5031 187.163 91.7126 186.412 92.4604C185.661 93.2082 183.231 94.2711 183.231 94.2711C185.843 96.3846 187.909 98.9416 189.299 101.778C191.518 106.399 190.929 109.214 189.588 112.331C188.248 115.448 182.942 119.095 182.942 119.095C182.942 119.095 177.434 113.403 176.197 108.786C174.96 104.169 180.143 96.0943 181.975 94.2795Z" fill="#263238"/>
<path d="M182.166 90.7464C177.384 88.6459 178.616 83.3568 178.616 83.3568C178.616 83.3568 180.791 87.8393 183.555 88.104" stroke="white" stroke-width="0.553134" stroke-linecap="round" stroke-linejoin="round"/>
<path d="M181.841 96.0271C180.964 99.2066 180.293 102.425 179.833 105.668C179.063 111.084 181.699 117.62 182.926 119.112" stroke="white" stroke-width="0.553134" stroke-linecap="round" stroke-linejoin="round"/>
<path d="M182.649 95.3633C182.649 95.3633 185.27 102.631 184.5 107.513C184.146 109.998 183.631 112.465 182.958 114.902" stroke="white" stroke-width="0.553134" stroke-linecap="round" stroke-linejoin="round"/>
<path d="M183.381 95.9095C183.381 95.9095 188.781 103.564 188.006 109.508C187.23 115.453 185.232 117.032 185.232 117.032" stroke="white" stroke-width="0.553134" stroke-linecap="round" stroke-linejoin="round"/>
</svg>
