<svg width="200" height="160" viewBox="0 0 200 160" fill="none" xmlns="http://www.w3.org/2000/svg">
<path d="M200 140.605H0V140.713H200V140.605Z" fill="#E6E6E6"/>
<path d="M178.34 144.32H164.58V144.428H178.34V144.32Z" fill="#E6E6E6"/>
<path d="M103.86 144.32H99.748V144.428H103.86V144.32Z" fill="#E6E6E6"/>
<path d="M160.4 146.433H152.656V146.541H160.4V146.433Z" fill="#E6E6E6"/>
<path d="M46.2521 144.574H28.9761V144.681H46.2521V144.574Z" fill="#E6E6E6"/>
<path d="M51.4677 143.045H44.4517V143.152H51.4677V143.045Z" fill="#E6E6E6"/>
<path d="M127.736 147.593H90.2639V147.7H127.736V147.593Z" fill="#E6E6E6"/>
<path d="M94.7997 121.452H17.5637C16.9586 121.45 16.3787 121.192 15.9512 120.732C15.5238 120.272 15.2837 119.649 15.2837 118.999V2.43075C15.289 1.78485 15.5314 1.16727 15.9583 0.71214C16.3852 0.257014 16.9621 0.00110646 17.5637 0H94.7997C95.4055 0 95.9864 0.258358 96.4147 0.718239C96.8431 1.17812 97.0837 1.80185 97.0837 2.45222V118.999C97.0837 119.65 96.8431 120.273 96.4147 120.733C95.9864 121.193 95.4055 121.452 94.7997 121.452V121.452ZM17.5637 0.0858925C16.9852 0.0870302 16.4307 0.334578 16.022 0.774201C15.6132 1.21382 15.3837 1.8096 15.3837 2.43075V118.999C15.3837 119.62 15.6132 120.216 16.022 120.656C16.4307 121.096 16.9852 121.343 17.5637 121.344H94.7997C95.3786 121.343 95.9335 121.096 96.3429 120.656C96.7522 120.217 96.9826 119.621 96.9837 118.999V2.43075C96.9826 1.8092 96.7522 1.21344 96.3429 0.773939C95.9335 0.334439 95.3786 0.0870278 94.7997 0.0858925H17.5637Z" fill="#E6E6E6"/>
<path d="M181.324 121.452H104.084C103.479 121.45 102.898 121.192 102.47 120.732C102.042 120.272 101.801 119.649 101.8 118.999V2.43075C101.806 1.78446 102.05 1.16688 102.477 0.711871C102.905 0.256864 103.482 0.00109439 104.084 0H181.324C181.925 0.00223513 182.501 0.258643 182.927 0.713647C183.353 1.16865 183.595 1.78559 183.6 2.43075V118.999C183.6 119.648 183.361 120.271 182.934 120.73C182.507 121.19 181.928 121.449 181.324 121.452V121.452ZM104.084 0.0858925C103.505 0.0870278 102.95 0.334439 102.541 0.773939C102.132 1.21344 101.901 1.8092 101.9 2.43075V118.999C101.901 119.621 102.132 120.217 102.541 120.656C102.95 121.096 103.505 121.343 104.084 121.344H181.324C181.903 121.343 182.458 121.096 182.867 120.656C183.277 120.217 183.507 119.621 183.508 118.999V2.43075C183.507 1.8092 183.277 1.21344 182.867 0.773939C182.458 0.334439 181.903 0.0870278 181.324 0.0858925H104.084Z" fill="#E6E6E6"/>
<path d="M81.7123 140.606H115.64C112.316 127.146 114.308 112.652 121.608 99.1927H87.6803C80.3763 112.652 78.4003 127.146 81.7123 140.606Z" fill="#FAFAFA"/>
<path d="M80.5562 118.531H114.852C116.03 111.715 118.314 105.173 121.6 99.2056H87.3082C84.0219 105.174 81.7366 111.715 80.5562 118.531V118.531Z" fill="#E6E6E6"/>
<path d="M29.9603 113.438L167.096 113.438C169.35 113.438 171.176 111.477 171.176 109.057V18.381C171.176 15.9617 169.35 14.0005 167.096 14.0005L29.9603 14.0005C27.7069 14.0005 25.8803 15.9617 25.8803 18.381V109.057C25.8803 111.477 27.7069 113.438 29.9603 113.438Z" fill="#E6E6E6"/>
<path d="M31.8841 113.438L169.02 113.438C171.273 113.438 173.1 111.477 173.1 109.057V18.381C173.1 15.9617 171.273 14.0005 169.02 14.0005L31.8841 14.0005C29.6308 14.0005 27.8041 15.9617 27.8041 18.381V109.057C27.8041 111.477 29.6308 113.438 31.8841 113.438Z" fill="#F5F5F5"/>
<path d="M27.8041 99.1968L173.1 99.1968V19.0379L27.8041 19.0379V99.1968Z" fill="white"/>
<path d="M100.456 109.483C101.991 109.483 103.236 108.146 103.236 106.498C103.236 104.849 101.991 103.513 100.456 103.513C98.9207 103.513 97.676 104.849 97.676 106.498C97.676 108.146 98.9207 109.483 100.456 109.483Z" fill="#E6E6E6"/>
<path d="M88 137.724H126.732C127.444 137.724 128.126 138.027 128.63 138.568C129.133 139.108 129.416 139.841 129.416 140.606H85.324C85.324 139.843 85.6057 139.111 86.1073 138.571C86.6089 138.031 87.2895 137.726 88 137.724V137.724Z" fill="#F5F5F5"/>
<path d="M78.7999 137.724H85.7359C86.4471 137.725 87.1287 138.029 87.6312 138.569C88.1337 139.11 88.4159 139.842 88.4159 140.606H76.0959C76.0965 140.226 76.1669 139.849 76.3032 139.499C76.4395 139.148 76.6391 138.829 76.8903 138.562C77.1416 138.294 77.4396 138.082 77.7673 137.938C78.095 137.795 78.4459 137.722 78.7999 137.724V137.724Z" fill="#E6E6E6"/>
<path d="M113.8 7.58002C113.799 6.93683 113.561 6.32031 113.137 5.86551C112.713 5.41071 112.139 5.1547 111.54 5.15356H41.1401C40.5414 5.15583 39.9678 5.4122 39.5444 5.86676C39.121 6.32132 38.8822 6.93718 38.8801 7.58002V15.3876H113.8V7.58002Z" fill="#E6E6E6"/>
<path d="M95.5317 12.1065C96.475 12.1065 97.2397 11.2855 97.2397 10.2727C97.2397 9.25992 96.475 8.4389 95.5317 8.4389C94.5884 8.4389 93.8237 9.25992 93.8237 10.2727C93.8237 11.2855 94.5884 12.1065 95.5317 12.1065Z" fill="white"/>
<path d="M101.584 12.1065C102.527 12.1065 103.292 11.2855 103.292 10.2727C103.292 9.25992 102.527 8.4389 101.584 8.4389C100.641 8.4389 99.876 9.25992 99.876 10.2727C99.876 11.2855 100.641 12.1065 101.584 12.1065Z" fill="white"/>
<path d="M107.64 12.1065C108.583 12.1065 109.348 11.2855 109.348 10.2727C109.348 9.25992 108.583 8.4389 107.64 8.4389C106.697 8.4389 105.932 9.25992 105.932 10.2727C105.932 11.2855 106.697 12.1065 107.64 12.1065Z" fill="white"/>
<path d="M41.1599 67.9751H111.56C112.158 67.9739 112.732 67.7185 113.155 67.2646C113.579 66.8108 113.818 66.1954 113.82 65.5529V15.3876H38.8999V65.5529C38.9031 66.195 39.1423 66.8098 39.5656 67.2634C39.9888 67.717 40.5619 67.9728 41.1599 67.9751V67.9751Z" fill="#FAFAFA"/>
<path d="M118.84 15.6969C118.838 15.0552 118.599 14.4404 118.177 13.9867C117.754 13.5329 117.182 13.277 116.584 13.2747H46.2038C45.6055 13.2759 45.0319 13.5313 44.6084 13.9851C44.1849 14.439 43.946 15.0544 43.9438 15.6969V23.5088H118.84V15.6969Z" fill="#F5F5F5"/>
<path d="M100.572 20.2233C101.515 20.2233 102.28 19.4023 102.28 18.3895C102.28 17.3767 101.515 16.5557 100.572 16.5557C99.6287 16.5557 98.864 17.3767 98.864 18.3895C98.864 19.4023 99.6287 20.2233 100.572 20.2233Z" fill="#E6E6E6"/>
<path d="M106.628 20.2233C107.571 20.2233 108.336 19.4023 108.336 18.3895C108.336 17.3767 107.571 16.5557 106.628 16.5557C105.685 16.5557 104.92 17.3767 104.92 18.3895C104.92 19.4023 105.685 20.2233 106.628 20.2233Z" fill="#E6E6E6"/>
<path d="M114.4 18.3895C114.4 18.7522 114.3 19.1068 114.112 19.4083C113.925 19.7099 113.658 19.9449 113.346 20.0837C113.034 20.2225 112.69 20.2588 112.359 20.1881C112.028 20.1173 111.723 19.9427 111.484 19.6862C111.246 19.4298 111.083 19.103 111.017 18.7473C110.951 18.3916 110.985 18.0228 111.114 17.6878C111.243 17.3527 111.462 17.0663 111.743 16.8648C112.024 16.6633 112.354 16.5557 112.692 16.5557C113.145 16.5557 113.58 16.7489 113.9 17.0928C114.22 17.4367 114.4 17.9032 114.4 18.3895V18.3895Z" fill="#E6E6E6"/>
<path d="M46.2038 76.0962H116.604C117.202 76.094 117.775 75.8375 118.198 75.3828C118.621 74.9281 118.859 74.3122 118.86 73.6698V23.5087H43.9438V73.6698C43.9449 74.313 44.1834 74.9295 44.607 75.3843C45.0306 75.8391 45.6048 76.0951 46.2038 76.0962V76.0962Z" fill="white"/>
<path d="M123.884 23.8179C123.883 23.1747 123.645 22.5582 123.221 22.1034C122.797 21.6486 122.223 21.3926 121.624 21.3915H51.2441C50.6451 21.3926 50.0708 21.6486 49.6472 22.1034C49.2236 22.5582 48.9852 23.1747 48.9841 23.8179V31.6255H123.884V23.8179Z" fill="#FAFAFA"/>
<path d="M105.616 28.3444C106.559 28.3444 107.324 27.5234 107.324 26.5106C107.324 25.4978 106.559 24.6768 105.616 24.6768C104.673 24.6768 103.908 25.4978 103.908 26.5106C103.908 27.5234 104.673 28.3444 105.616 28.3444Z" fill="#F0F0F0"/>
<path d="M111.668 28.3444C112.611 28.3444 113.376 27.5234 113.376 26.5106C113.376 25.4978 112.611 24.6768 111.668 24.6768C110.725 24.6768 109.96 25.4978 109.96 26.5106C109.96 27.5234 110.725 28.3444 111.668 28.3444Z" fill="#F0F0F0"/>
<path d="M119.432 26.5106C119.433 26.8743 119.333 27.2301 119.145 27.533C118.958 27.8358 118.691 28.0721 118.378 28.2119C118.065 28.3516 117.721 28.3886 117.389 28.3182C117.056 28.2478 116.751 28.073 116.511 27.8162C116.271 27.5593 116.108 27.2318 116.041 26.8751C115.975 26.5184 116.009 26.1486 116.138 25.8125C116.267 25.4764 116.487 25.1891 116.768 24.9869C117.05 24.7847 117.381 24.6768 117.72 24.6768C118.173 24.6768 118.608 24.8699 118.929 25.2137C119.25 25.5574 119.431 26.0239 119.432 26.5106Z" fill="#F0F0F0"/>
<path d="M51.2441 84.2173H121.644C122.243 84.215 122.816 83.9587 123.24 83.5041C123.663 83.0495 123.902 82.4337 123.904 81.7908V31.6255H48.9841V81.7908C48.9862 82.4337 49.225 83.0495 49.6484 83.5041C50.0718 83.9587 50.6454 84.215 51.2441 84.2173V84.2173Z" fill="#E6E6E6"/>
<path opacity="0.5" d="M142.8 52.9955H117.004V94.3526H155.528V52.9955H142.8ZM130.06 53.3176H142.496V66.6739H130.048L130.06 53.3176ZM142.496 80.3522H130.048V66.996H142.484L142.496 80.3522ZM117.32 53.3176H129.756V66.6739H117.308L117.32 53.3176ZM117.32 66.996H129.756V80.3522H117.308L117.32 66.996ZM129.744 94.052H117.308V80.6958H129.744V94.052ZM142.484 94.052H130.048V80.6958H142.484V94.052ZM155.224 94.052H142.8V80.6958H155.236L155.224 94.052ZM155.224 80.3737H142.8V66.996H155.236L155.224 80.3737ZM142.8 66.6739V53.3176H155.236V66.6739H142.8Z" fill="#E6E6E6"/>
<path d="M132.392 46.6265L177.356 46.6265V24.6725L132.392 24.6725V46.6265Z" fill="#F5F5F5"/>
<path d="M177.356 33.2317V46.6309H132.4V29.9893C139.86 29.9893 143.84 37.333 153.068 37.333C162.296 37.333 165.076 33.2317 177.356 33.2317Z" fill="white"/>
<path d="M177.356 39.6349C167.252 39.6349 163.916 34.8378 158.24 34.8378C152.564 34.8378 149.776 39.8754 142.704 39.8754C135.336 39.8754 132.392 35.9158 132.392 35.9158V46.6523H177.356V39.6349Z" fill="#E6E6E6"/>
<path d="M100 160C142.833 160 177.556 157.823 177.556 155.138C177.556 152.454 142.833 150.277 100 150.277C57.1671 150.277 22.4441 152.454 22.4441 155.138C22.4441 157.823 57.1671 160 100 160Z" fill="#F5F5F5"/>
<path d="M80.7998 67.2192C79.1247 60.7837 79.7911 53.9052 82.6641 47.9777C85.5371 42.0502 90.4016 37.5172 96.2718 35.2974L97.7798 40.4251C93.1822 42.2216 89.3798 45.8049 87.1245 50.4665C84.8692 55.1281 84.3251 60.5286 85.5998 65.6001L80.7998 67.2192Z" fill="#FF725E"/>
<path d="M93.0357 83.4185C91.1503 82.3732 89.4018 81.0649 87.8357 79.5276C84.8645 76.6031 82.61 72.9377 81.2717 68.8555L86.0477 67.2364C87.1641 70.5576 89.0444 73.5218 91.514 75.8534C93.9836 78.185 96.9622 79.8083 100.173 80.5724C103.384 81.3365 106.722 81.2166 109.878 80.2237C113.034 79.2309 115.905 77.3974 118.224 74.8937L121.916 78.5269C118.223 82.5527 113.425 85.2005 108.226 86.081C103.028 86.9614 97.7035 86.0282 93.0357 83.4185V83.4185Z" fill="#FF725E"/>
<path opacity="0.7" d="M93.0357 83.4185C91.1503 82.3732 89.4018 81.0649 87.8357 79.5276C84.8645 76.6031 82.61 72.9377 81.2717 68.8555L86.0477 67.2364C87.1641 70.5576 89.0444 73.5218 91.514 75.8534C93.9836 78.185 96.9622 79.8083 100.173 80.5724C103.384 81.3365 106.722 81.2166 109.878 80.2237C113.034 79.2309 115.905 77.3974 118.224 74.8937L121.916 78.5269C118.223 82.5527 113.425 85.2005 108.226 86.081C103.028 86.9614 97.7035 86.0282 93.0357 83.4185V83.4185Z" fill="white"/>
<path d="M119.324 73.6269C122.004 70.2161 123.599 65.9753 123.877 61.5229C124.154 57.0705 123.1 52.6392 120.867 48.8753C118.635 45.1114 115.341 42.2117 111.465 40.5989C107.59 38.9862 103.336 38.7448 99.3239 39.9099L97.8159 34.7563C103.945 32.9133 110.502 33.7011 116.1 36.9532C121.698 40.2053 125.9 45.667 127.816 52.1839C129.062 56.4525 129.277 60.991 128.442 65.3735C127.606 69.756 125.748 73.8388 123.04 77.2386L119.324 73.6269Z" fill="#FF725E"/>
<path opacity="0.3" d="M119.324 73.6269C122.004 70.2161 123.599 65.9753 123.877 61.5229C124.154 57.0705 123.1 52.6392 120.867 48.8753C118.635 45.1114 115.341 42.2117 111.465 40.5989C107.59 38.9862 103.336 38.7448 99.3239 39.9099L97.8159 34.7563C103.945 32.9133 110.502 33.7011 116.1 36.9532C121.698 40.2053 125.9 45.667 127.816 52.1839C129.062 56.4525 129.277 60.991 128.442 65.3735C127.606 69.756 125.748 73.8388 123.04 77.2386L119.324 73.6269Z" fill="black"/>
<path d="M108.98 53.7686C108.415 53.1614 107.744 52.6798 107.005 52.3511C106.266 52.0224 105.475 51.8532 104.675 51.853C103.876 51.8528 103.084 52.0216 102.345 52.35C101.607 52.6783 100.935 53.1596 100.37 53.7664C99.8044 54.3733 99.3558 55.0937 99.0497 55.8867C98.7435 56.6797 98.5859 57.5296 98.5857 58.388C98.5855 59.2464 98.7428 60.0965 99.0486 60.8896C99.3544 61.6827 99.8027 62.4034 100.368 63.0106L104.672 67.6316L108.98 63.0106C110.121 61.7848 110.762 60.1227 110.762 58.3896C110.762 56.6565 110.121 54.9943 108.98 53.7686V53.7686Z" fill="#FF725E"/>
<path opacity="0.3" d="M108.98 53.7686C108.415 53.1614 107.744 52.6798 107.005 52.3511C106.266 52.0224 105.475 51.8532 104.675 51.853C103.876 51.8528 103.084 52.0216 102.345 52.35C101.607 52.6783 100.935 53.1596 100.37 53.7664C99.8044 54.3733 99.3558 55.0937 99.0497 55.8867C98.7435 56.6797 98.5859 57.5296 98.5857 58.388C98.5855 59.2464 98.7428 60.0965 99.0486 60.8896C99.3544 61.6827 99.8027 62.4034 100.368 63.0106L104.672 67.6316L108.98 63.0106C110.121 61.7848 110.762 60.1227 110.762 58.3896C110.762 56.6565 110.121 54.9943 108.98 53.7686V53.7686Z" fill="black"/>
<path d="M104.916 69.0015H104.436V71.0629H104.916V69.0015Z" fill="#FF725E"/>
<path opacity="0.3" d="M104.916 69.0015H104.436V71.0629H104.916V69.0015Z" fill="black"/>
<path d="M104.916 72.6562H104.436V74.7177H104.916V72.6562Z" fill="#FF725E"/>
<path opacity="0.3" d="M104.916 72.6562H104.436V74.7177H104.916V72.6562Z" fill="black"/>
<path d="M88.0598 89.3364H71.7678V152.673H88.0598V89.3364Z" fill="#FF725E"/>
<path opacity="0.7" d="M88.0598 89.3364H71.7678V152.673H88.0598V89.3364Z" fill="white"/>
<path d="M95.8798 89.3364H88.0598V152.673H95.8798V89.3364Z" fill="#FF725E"/>
<path opacity="0.5" d="M95.8798 89.3364H88.0598V152.673H95.8798V89.3364Z" fill="white"/>
<path d="M118.184 112.648H117.768V122.508H118.184V112.648Z" fill="#263238"/>
<path d="M118.184 106.85H117.768V110.814H118.184V106.85Z" fill="#263238"/>
<path d="M129.756 128.624H113.464V152.673H129.756V128.624Z" fill="#FF725E"/>
<path opacity="0.5" d="M129.756 128.624H113.464V152.673H129.756V128.624Z" fill="black"/>
<path d="M137.576 128.624H129.756V152.673H137.576V128.624Z" fill="#FF725E"/>
<path opacity="0.6" d="M137.576 128.624H129.756V152.673H137.576V128.624Z" fill="black"/>
<path d="M108.908 75.9459H92.6157V152.673H108.908V75.9459Z" fill="#FF725E"/>
<path opacity="0.7" d="M108.908 75.9459H92.6157V152.673H108.908V75.9459Z" fill="black"/>
<path d="M116.728 75.9459H108.908V152.673H116.728V75.9459Z" fill="#FF725E"/>
<path opacity="0.8" d="M116.728 75.9459H108.908V152.673H116.728V75.9459Z" fill="black"/>
<path d="M140.892 58.2478C140.332 62.9977 139.628 67.7604 139 72.4716C138.922 73.1598 138.806 73.8424 138.652 74.5158C138.472 75.2055 138.242 75.879 137.964 76.53C137.433 77.7546 136.77 78.9078 135.988 79.9657C135.243 80.9822 134.421 81.9316 133.532 82.8044C133.1 83.2339 132.64 83.6633 132.176 84.0369C131.712 84.4106 131.252 84.7971 130.72 85.1707L129.3 83.2682C129.632 82.8731 130.008 82.4093 130.348 81.9798C130.688 81.5504 131.024 81.0866 131.352 80.6313C131.993 79.7413 132.58 78.8074 133.108 77.8355C133.617 76.924 134.037 75.9583 134.36 74.9538C134.509 74.4891 134.623 74.0123 134.7 73.528C134.77 73.0199 134.816 72.5081 134.836 71.9949C134.984 69.5555 135.208 67.1419 135.456 64.7327C135.704 62.3234 136 59.9442 136.352 57.5478L140.892 58.2478Z" fill="#E58A7B"/>
<path d="M141.888 56.6158C142.908 59.5233 137.744 68.0824 137.744 68.0824L131.692 64.5565C132.603 61.893 133.779 59.3429 135.2 56.9508C137.328 53.5237 140.772 53.4249 141.888 56.6158Z" fill="#FF725E"/>
<path opacity="0.2" d="M141.888 56.6158C142.908 59.5233 137.744 68.0824 137.744 68.0824L131.692 64.5565C132.603 61.893 133.779 59.3429 135.2 56.9508C137.328 53.5237 140.772 53.4249 141.888 56.6158Z" fill="black"/>
<path d="M138.296 54.3912C138.296 54.3912 134.724 64.2044 138.116 82.4737H154.304C154.416 79.8067 152.852 66.7941 155.248 54.228C153.46 53.8557 151.65 53.6089 149.832 53.4894C147.541 53.3475 145.244 53.3475 142.952 53.4894C141.381 53.6593 139.824 53.9609 138.296 54.3912V54.3912Z" fill="#FF725E"/>
<path opacity="0.2" d="M138.296 54.3912C138.296 54.3912 134.724 64.2044 138.116 82.4737H154.304C154.416 79.8067 152.852 66.7941 155.248 54.228C153.46 53.8557 151.65 53.6089 149.832 53.4894C147.541 53.3475 145.244 53.3475 142.952 53.4894C141.381 53.6593 139.824 53.9609 138.296 54.3912V54.3912Z" fill="black"/>
<path d="M140.444 151.136H137.42L136.612 143.612H139.64L140.444 151.136Z" fill="#E58A7B"/>
<path d="M161.74 151.136H158.716L156.356 143.612H159.384L161.74 151.136Z" fill="#E58A7B"/>
<path d="M158.312 150.741H162C162.06 150.74 162.118 150.763 162.165 150.803C162.212 150.844 162.244 150.901 162.256 150.964L162.856 153.854C162.869 153.925 162.867 153.997 162.851 154.066C162.835 154.136 162.804 154.201 162.762 154.256C162.719 154.311 162.666 154.355 162.605 154.385C162.545 154.415 162.479 154.431 162.412 154.43C161.212 154.408 160.36 154.335 158.864 154.335C157.944 154.335 156.064 154.438 154.78 154.438C153.496 154.438 153.344 153.09 153.864 152.965C156.196 152.42 157.064 151.677 157.82 150.943C157.955 150.812 158.13 150.74 158.312 150.741V150.741Z" fill="#263238"/>
<path d="M137.44 150.741H140.744C140.804 150.741 140.863 150.763 140.91 150.804C140.957 150.844 140.99 150.901 141.004 150.964L141.6 153.854C141.615 153.924 141.614 153.996 141.599 154.066C141.584 154.135 141.554 154.2 141.512 154.256C141.47 154.311 141.417 154.355 141.357 154.386C141.296 154.416 141.23 154.431 141.164 154.43C139.964 154.408 138.248 154.335 136.764 154.335C135.012 154.335 133.5 154.438 131.444 154.438C130.2 154.438 129.844 153.09 130.376 152.965C132.744 152.411 134.676 152.351 136.724 150.994C136.937 150.841 137.184 150.754 137.44 150.741Z" fill="#263238"/>
<path d="M130.4 82.027L127.864 84.3031L131.196 86.4032C131.687 85.996 132.044 85.4308 132.215 84.7902C132.385 84.1497 132.36 83.4673 132.144 82.843L130.4 82.027Z" fill="#E58A7B"/>
<path d="M136.616 143.616L137.028 147.494H140.056L139.64 143.616H136.616Z" fill="#CF6F64"/>
<path d="M159.384 143.616H156.356L157.572 147.494H160.6L159.384 143.616Z" fill="#CF6F64"/>
<path opacity="0.2" d="M151.952 60.2319C152.48 57.3631 153.508 57.8612 154.484 59.2742C154.067 63.0766 153.874 66.9036 153.908 70.7322C153.244 69.5168 151.068 65.0375 151.952 60.2319Z" fill="black"/>
<path d="M149.148 45.175C148.716 47.55 148.284 51.9047 149.832 53.4894C149.832 53.4894 149.228 55.903 145.112 55.903C140.588 55.903 142.952 53.4937 142.952 53.4937C145.42 52.8581 145.352 50.8912 144.924 49.0445L149.148 45.175Z" fill="#E58A7B"/>
<path d="M147.428 46.7554L144.928 49.0444C145.035 49.4734 145.106 49.9117 145.14 50.3543C146.084 50.2082 147.38 49.0959 147.48 48.0352C147.534 47.6087 147.517 47.1752 147.428 46.7554V46.7554Z" fill="#CF6F64"/>
<path d="M142.112 37.8613C140.624 38.5399 139.816 43.0148 141.712 44.0498C143.608 45.0848 144.932 36.5815 142.112 37.8613Z" fill="#263238"/>
<path d="M149.412 41.5975C149.228 44.8142 149.272 46.7081 147.76 48.3616C145.484 50.8438 141.78 49.3708 141.068 46.1584C140.424 43.2681 140.832 38.4882 143.768 37.2085C144.414 36.9231 145.117 36.8197 145.81 36.9081C146.504 36.9965 147.164 37.2738 147.73 37.7135C148.295 38.1533 148.747 38.741 149.041 39.4208C149.336 40.1006 149.463 40.8499 149.412 41.5975Z" fill="#E58A7B"/>
<path d="M140.168 35.8428C141.98 32.8924 142.264 34.3139 142.236 35.7182C143.836 34.0949 146.792 32.0248 148.236 33.9145C148.407 34.1094 148.518 34.356 148.555 34.6209C148.591 34.8858 148.551 35.1564 148.44 35.3961C150.3 34.8636 152.176 34.7133 151.836 36.8692C151.536 38.776 150.268 39.476 148.492 39.4889C145.308 39.9613 137.6 40.0085 140.168 35.8428Z" fill="#263238"/>
<path d="M149.2 44.7498C147.6 45.4499 144.38 39.1411 149.224 38.3981C154.068 37.6552 151.764 43.6204 149.2 44.7498Z" fill="#263238"/>
<path d="M150.768 45.1449C150.363 45.8293 149.724 46.3152 148.988 46.4977C148.012 46.7296 147.576 45.7762 147.896 44.8143C148.184 43.9553 149.036 42.7915 149.996 42.989C150.205 43.037 150.4 43.1402 150.562 43.2892C150.724 43.4382 150.85 43.6284 150.926 43.8424C151.003 44.0565 151.029 44.2877 151.001 44.5152C150.973 44.7426 150.893 44.9591 150.768 45.1449V45.1449Z" fill="#E58A7B"/>
<path d="M152.348 39.373C152.126 39.107 151.845 38.9048 151.531 38.7848C151.218 38.6648 150.881 38.6308 150.552 38.6858C150.552 38.6858 152.116 37.3631 152.348 39.373Z" fill="#263238"/>
<path d="M138.116 82.4565C138.116 82.4565 129.6 105.69 129.912 115.602C130.252 125.909 135.912 146.743 135.912 146.743H141.04C141.04 146.743 138.94 126.506 139.168 116.388C139.416 105.351 148.768 82.4608 148.768 82.4608L138.116 82.4565Z" fill="#FF725E"/>
<path opacity="0.2" d="M144.916 90.1481L145.408 91.3463C143.613 96.3116 142.054 101.371 140.736 106.506C140.596 100.648 141.724 94.1893 144.916 90.1481Z" fill="black"/>
<path d="M143.86 82.4565C143.86 82.4565 142.136 106.214 144.02 115.525C146.084 125.712 156.148 146.734 156.148 146.734H161.692C161.692 146.734 154.276 126.549 153.096 116.448C151.82 105.501 154.296 82.4651 154.296 82.4651L143.86 82.4565Z" fill="#FF725E"/>
<path d="M144.868 42.5167C144.868 42.7786 144.736 42.9934 144.576 42.9934C144.416 42.9934 144.288 42.7786 144.288 42.5167C144.288 42.2547 144.416 42.0443 144.576 42.0443C144.736 42.0443 144.868 42.2332 144.868 42.5167Z" fill="#263238"/>
<path d="M142.108 42.5167C142.108 42.7786 141.976 42.9934 141.82 42.9934C141.664 42.9934 141.528 42.7786 141.528 42.5167C141.528 42.2547 141.66 42.0443 141.82 42.0443C141.98 42.0443 142.108 42.2332 142.108 42.5167Z" fill="#263238"/>
<path d="M142.984 42.6283C142.693 43.4277 142.301 44.1805 141.82 44.8658C141.986 44.9941 142.176 45.0818 142.377 45.1226C142.579 45.1634 142.786 45.1564 142.984 45.102V42.6283Z" fill="#DF5753"/>
<path d="M143.696 45.8277C143.677 45.8277 143.659 45.8196 143.645 45.8051C143.632 45.7906 143.624 45.7709 143.624 45.7504C143.624 45.7299 143.632 45.7102 143.645 45.6958C143.659 45.6813 143.677 45.6731 143.696 45.6731C144 45.6803 144.301 45.6106 144.574 45.4696C144.848 45.3285 145.087 45.1202 145.272 44.8614C145.277 44.853 145.284 44.8457 145.292 44.84C145.3 44.8343 145.309 44.8304 145.318 44.8284C145.327 44.8264 145.337 44.8264 145.346 44.8284C145.355 44.8304 145.364 44.8343 145.372 44.84C145.387 44.8512 145.397 44.8681 145.401 44.8873C145.405 44.9064 145.401 44.9263 145.392 44.943C145.197 45.2266 144.941 45.4553 144.645 45.6094C144.35 45.7634 144.024 45.8384 143.696 45.8277V45.8277Z" fill="#263238"/>
<path d="M145.696 41.5417C145.674 41.5411 145.653 41.5354 145.634 41.525C145.614 41.5146 145.597 41.4998 145.584 41.4816C145.48 41.3236 145.342 41.1946 145.182 41.105C145.022 41.0154 144.844 40.9678 144.664 40.9662C144.645 40.968 144.626 40.9655 144.608 40.9591C144.59 40.9526 144.573 40.9422 144.559 40.9285C144.544 40.9148 144.533 40.8981 144.525 40.8795C144.517 40.8609 144.512 40.8407 144.512 40.8202C144.51 40.7799 144.522 40.7402 144.547 40.7097C144.572 40.6792 144.606 40.6603 144.644 40.657C144.872 40.6556 145.096 40.7125 145.3 40.8231C145.503 40.9336 145.678 41.0946 145.812 41.2926C145.835 41.3259 145.844 41.3673 145.839 41.4082C145.834 41.4491 145.814 41.4862 145.784 41.5116C145.758 41.5299 145.727 41.5403 145.696 41.5417Z" fill="#263238"/>
<path d="M140.9 41.4773C140.879 41.4814 140.857 41.4814 140.836 41.4773C140.819 41.4686 140.804 41.4563 140.791 41.4411C140.779 41.426 140.769 41.4082 140.763 41.3889C140.757 41.3697 140.755 41.3493 140.756 41.3291C140.758 41.3088 140.763 41.2891 140.772 41.2712C140.867 41.0499 141.009 40.8563 141.188 40.7068C141.367 40.5573 141.577 40.4563 141.8 40.4123C141.836 40.4116 141.87 40.4251 141.897 40.45C141.924 40.4749 141.941 40.5096 141.945 40.5474C141.95 40.5852 141.941 40.6234 141.921 40.6547C141.901 40.686 141.871 40.7083 141.836 40.7172V40.7172C141.661 40.7579 141.498 40.8421 141.359 40.963C141.22 41.0838 141.11 41.2379 141.036 41.4129C141.021 41.4363 141.001 41.4547 140.977 41.4661C140.953 41.4775 140.926 41.4814 140.9 41.4773Z" fill="#263238"/>
<path d="M156.4 56.7533C156.66 57.3545 156.88 57.8914 157.088 58.4711C157.296 59.0509 157.488 59.6006 157.7 60.189C158.1 61.3314 158.432 62.4909 158.736 63.6719C159.04 64.8529 159.292 66.0597 159.5 67.288L159.644 68.2113L159.748 69.1561C159.788 69.4696 159.804 69.7917 159.828 70.1138L159.856 70.5948V70.7151V70.9169C159.856 71.0672 159.856 71.2047 159.856 71.3464C159.777 72.1922 159.549 73.0141 159.184 73.7685C158.9 74.3752 158.578 74.9606 158.22 75.5207C157.557 76.545 156.832 77.5206 156.048 78.4411C154.54 80.2237 152.905 81.8765 151.156 83.3842L149.556 81.6663C150.864 79.8712 152.168 78.0159 153.356 76.1735C153.934 75.2766 154.468 74.3477 154.956 73.3906C155.179 72.961 155.373 72.5147 155.536 72.055C155.655 71.7614 155.722 71.4471 155.736 71.1274C155.736 71.1274 155.736 71.1274 155.736 71.1274C155.736 71.1274 155.736 71.1531 155.736 71.1274V71.0286L155.68 70.6421C155.644 70.3801 155.612 70.1224 155.556 69.8604L155.412 69.0745L155.24 68.2843C154.996 67.2279 154.72 66.1671 154.4 65.1106C154.08 64.0541 153.74 63.002 153.376 61.9498C153.012 60.8976 152.612 59.8368 152.24 58.8662L156.4 56.7533Z" fill="#E58A7B"/>
<path d="M157.308 151.329C157.103 151.346 156.898 151.287 156.728 151.162C156.671 151.11 156.627 151.043 156.601 150.968C156.575 150.893 156.568 150.811 156.58 150.732C156.58 150.688 156.591 150.645 156.612 150.607C156.633 150.569 156.664 150.538 156.7 150.517C157.04 150.333 158.012 150.977 158.124 151.05C158.136 151.058 158.145 151.07 158.151 151.084C158.157 151.097 158.158 151.112 158.156 151.127C158.154 151.143 158.147 151.157 158.137 151.168C158.127 151.18 158.114 151.188 158.1 151.192C157.842 151.268 157.576 151.314 157.308 151.329ZM156.86 150.655C156.828 150.652 156.796 150.66 156.768 150.676C156.748 150.676 156.724 150.706 156.72 150.767C156.715 150.818 156.722 150.87 156.739 150.919C156.756 150.967 156.784 151.011 156.82 151.046C157.158 151.209 157.541 151.229 157.892 151.102C157.578 150.883 157.228 150.731 156.86 150.655V150.655Z" fill="#FF725E"/>
<path d="M158.084 151.213H158.052C157.736 151.029 157.132 150.32 157.196 149.955C157.207 149.898 157.236 149.848 157.277 149.811C157.319 149.774 157.37 149.754 157.424 149.753C157.478 149.746 157.533 149.752 157.586 149.769C157.638 149.786 157.686 149.814 157.728 149.852C158.08 150.161 158.152 151.097 158.156 151.14C158.156 151.154 158.154 151.167 158.148 151.179C158.143 151.191 158.134 151.201 158.124 151.209C158.111 151.215 158.098 151.216 158.084 151.213ZM157.476 149.882H157.44C157.348 149.882 157.34 149.938 157.336 149.959C157.3 150.174 157.684 150.711 157.996 150.964C157.974 150.594 157.85 150.24 157.64 149.946C157.594 149.905 157.536 149.882 157.476 149.882Z" fill="#FF725E"/>
<path d="M136.18 151.329C135.922 151.354 135.663 151.283 135.448 151.127C135.399 151.082 135.361 151.024 135.337 150.959C135.313 150.893 135.305 150.823 135.312 150.754C135.314 150.712 135.326 150.671 135.346 150.635C135.367 150.599 135.395 150.569 135.428 150.547C135.8 150.328 137.028 150.977 137.152 151.067C137.166 151.074 137.177 151.086 137.185 151.101C137.192 151.115 137.194 151.132 137.192 151.148C137.19 151.164 137.183 151.179 137.172 151.191C137.161 151.203 137.147 151.211 137.132 151.213C136.819 151.282 136.5 151.321 136.18 151.329V151.329ZM135.632 150.655C135.586 150.652 135.541 150.662 135.5 150.685C135.486 150.692 135.474 150.704 135.466 150.718C135.458 150.733 135.455 150.75 135.456 150.767C135.45 150.812 135.455 150.858 135.469 150.9C135.484 150.943 135.508 150.981 135.54 151.011C135.728 151.192 136.228 151.222 136.892 151.101C136.499 150.877 136.073 150.725 135.632 150.655V150.655Z" fill="#FF725E"/>
<path d="M137.12 151.213C137.11 151.217 137.098 151.217 137.088 151.213C136.724 151.037 136 150.354 136.056 149.968C136.056 149.882 136.124 149.775 136.324 149.753C136.396 149.745 136.468 149.753 136.537 149.776C136.605 149.799 136.669 149.836 136.724 149.886C137.124 150.225 137.192 151.102 137.192 151.136C137.194 151.15 137.192 151.164 137.187 151.177C137.182 151.189 137.174 151.201 137.164 151.209C137.15 151.215 137.135 151.216 137.12 151.213V151.213ZM136.4 149.882H136.356C136.228 149.882 136.22 149.951 136.216 149.968C136.184 150.187 136.676 150.741 137.048 150.981C137.014 150.611 136.874 150.262 136.648 149.981C136.579 149.916 136.491 149.881 136.4 149.882V149.882Z" fill="#FF725E"/>
<path d="M150.256 81.1896L147.288 82.0485L149.748 85.2523C149.748 85.2523 152.128 83.9252 151.616 82.4951L150.256 81.1896Z" fill="#E58A7B"/>
<path d="M145.752 84.1915L147.9 86.7339L149.748 85.2394L147.288 82.0356L145.752 84.1915Z" fill="#E58A7B"/>
<path d="M155.168 146.871H162.416V144.776L154.316 144.642L155.168 146.871Z" fill="#FF725E"/>
<path opacity="0.4" d="M155.168 146.871H162.416V144.776L154.316 144.642L155.168 146.871Z" fill="black"/>
<path d="M134.748 146.871H141.996V144.754L133.896 144.642L134.748 146.871Z" fill="#FF725E"/>
<path opacity="0.4" d="M134.748 146.871H141.996V144.754L133.896 144.642L134.748 146.871Z" fill="black"/>
<path d="M155.88 54.4384C158.58 55.555 161.28 65.8363 161.28 65.8363L154.08 68.8769C154.08 68.8769 151.932 63.5601 151.2 59.6091C150.448 55.4648 152.82 53.1758 155.88 54.4384Z" fill="#FF725E"/>
<path opacity="0.2" d="M155.88 54.4384C158.58 55.555 161.28 65.8363 161.28 65.8363L154.08 68.8769C154.08 68.8769 151.932 63.5601 151.2 59.6091C150.448 55.4648 152.82 53.1758 155.88 54.4384Z" fill="black"/>
<path d="M126.692 70.7537C125.925 73.6245 126.002 76.6795 126.912 79.5018C127.745 82.1285 129.264 84.4424 131.288 86.167C133.985 88.4592 137.392 89.5663 140.82 89.2644C144.247 88.9625 147.441 87.2741 149.753 84.5407C152.066 81.8073 153.325 78.233 153.277 74.5406C153.228 70.8482 151.876 67.3133 149.492 64.651V64.651C147.855 62.8205 145.796 61.4871 143.524 60.7859C141.423 60.1335 139.207 60.0336 137.063 60.4949C134.918 60.9561 132.909 61.9647 131.204 63.4356C130.894 63.7043 130.597 63.9911 130.316 64.2946C128.6 66.0674 127.349 68.2956 126.692 70.7537V70.7537Z" fill="#FF725E"/>
<path opacity="0.6" d="M126.692 70.7537C125.925 73.6245 126.002 76.6795 126.912 79.5018C127.745 82.1285 129.264 84.4424 131.288 86.167C133.985 88.4592 137.392 89.5663 140.82 89.2644C144.247 88.9625 147.441 87.2741 149.753 84.5407C152.066 81.8073 153.325 78.233 153.277 74.5406C153.228 70.8482 151.876 67.3133 149.492 64.651V64.651C147.855 62.8205 145.796 61.4871 143.524 60.7859C141.423 60.1335 139.207 60.0336 137.063 60.4949C134.918 60.9561 132.909 61.9647 131.204 63.4356C130.894 63.7043 130.597 63.9911 130.316 64.2946C128.6 66.0674 127.349 68.2956 126.692 70.7537V70.7537Z" fill="black"/>
<path d="M147.788 64.0798L138.028 74.1936L134.288 88.1941C137.158 89.0789 140.221 88.922 142.999 87.7476C145.778 86.5732 148.118 84.4471 149.657 81.699C151.195 78.9509 151.846 75.7345 151.508 72.5488C151.17 69.3631 149.863 66.3862 147.788 64.0798V64.0798Z" fill="#FF725E"/>
<path opacity="0.9" d="M147.788 64.0798L138.028 74.1936L134.288 88.1941C137.158 89.0789 140.221 88.922 142.999 87.7476C145.778 86.5732 148.118 84.4471 149.657 81.699C151.195 78.9509 151.846 75.7345 151.508 72.5488C151.17 69.3631 149.863 66.3862 147.788 64.0798V64.0798Z" fill="white"/>
<g opacity="0.7">
<path opacity="0.7" d="M138.028 74.1937L147.788 64.0756C146.134 62.2356 144.058 60.8957 141.768 60.1907C139.478 59.4856 137.056 59.4403 134.745 60.0593C132.434 60.6784 130.316 61.9398 128.603 63.7169C126.89 65.494 125.643 67.7239 124.988 70.1825L138.028 74.1937Z" fill="#FF725E"/>
<path opacity="0.44" d="M138.028 74.1937L147.788 64.0756C146.134 62.2356 144.058 60.8957 141.768 60.1907C139.478 59.4856 137.056 59.4403 134.745 60.0593C132.434 60.6784 130.316 61.9398 128.603 63.7169C126.89 65.494 125.643 67.7239 124.988 70.1825L138.028 74.1937Z" fill="white"/>
</g>
<path d="M127.656 86.2357L130.596 87.2321L131.184 86.4161L127.852 84.316L127.656 86.2357Z" fill="#E58A7B"/>
<path d="M138.028 74.1937L124.992 70.1825C124.002 73.895 124.426 77.8778 126.169 81.2552C127.913 84.6327 130.835 87.1285 134.292 88.1941L138.028 74.1937Z" fill="#FF725E"/>
<path opacity="0.6" d="M138.028 74.1937L124.992 70.1825C124.002 73.895 124.426 77.8778 126.169 81.2552C127.913 84.6327 130.835 87.1285 134.292 88.1941L138.028 74.1937Z" fill="black"/>
<path d="M63.2961 54.4813C62.5961 55.2501 61.8441 56.1004 61.1521 56.9507C60.4601 57.8011 59.7641 58.6686 59.1121 59.5576C58.4601 60.4466 57.8441 61.3613 57.2521 62.2847L56.8201 62.9847L56.4201 63.6933C56.2841 63.9295 56.1561 64.17 56.0201 64.4105L55.6881 65.0676C55.5531 65.4424 55.4761 65.8385 55.4601 66.24C55.4281 66.7576 55.4281 67.277 55.4601 67.7946C55.5349 68.9084 55.6684 70.0168 55.8601 71.1144C56.0401 72.2396 56.2601 73.369 56.5201 74.4899C56.7801 75.6108 57.0361 76.7532 57.3201 77.8612L55.7801 78.4796C54.8472 76.2918 54.0677 74.0323 53.4481 71.7199C53.1288 70.5321 52.8842 69.3226 52.7161 68.0996C52.6318 67.4464 52.5891 66.7878 52.5881 66.1283C52.5771 65.3509 52.6991 64.578 52.9481 63.8479C53.0441 63.5988 53.0961 63.4957 53.1601 63.3497L53.3481 62.9203C53.4721 62.6368 53.6041 62.3577 53.7481 62.0871L54.1481 61.2668L54.5881 60.468C55.1762 59.4174 55.8157 58.401 56.5041 57.4232C57.1841 56.4483 57.8881 55.4949 58.6321 54.5801C59.3761 53.6654 60.1321 52.7893 60.9921 51.9089L63.2961 54.4813Z" fill="#E58A7B"/>
<path d="M56.8962 77.1613L59.6322 78.0202L57.8122 80.0043C57.8122 80.0043 55.8402 79.3515 55.5642 77.9085L56.8962 77.1613Z" fill="#E58A7B"/>
<path d="M61.2923 80.2964L60.8283 82.1903L57.8123 80.0172L59.6323 78.0374L61.2923 80.2964Z" fill="#E58A7B"/>
<path d="M36.8 133.541L39.04 136.122L45.12 131.449L42.876 128.868L36.8 133.541Z" fill="#E58A7B"/>
<path d="M66.5237 142.998L65.9877 147.438L62.7837 146.863L63.2797 142.74L66.5237 142.998Z" fill="#CF6F64"/>
<path d="M42.876 128.868L45.116 131.454L42.6 133.386L40.28 130.861L42.876 128.868Z" fill="#CF6F64"/>
<path d="M72.1359 72.3083C72.1359 72.3083 65.7999 95.0912 62.7039 108.224C59.4399 122.066 43.8519 133.352 43.8519 133.352L40.5239 129.8C40.5239 129.8 50.9439 120.352 54.1239 107.438C60.5479 81.2111 57.4599 75.6581 62.5799 70.3242L72.1359 72.3083Z" fill="#FF725E"/>
<path opacity="0.6" d="M72.1359 72.3083C72.1359 72.3083 65.7999 95.0912 62.7039 108.224C59.4399 122.066 43.8519 133.352 43.8519 133.352L40.5239 129.8C40.5239 129.8 50.9439 120.352 54.1239 107.438C60.5479 81.2111 57.4599 75.6581 62.5799 70.3242L72.1359 72.3083Z" fill="black"/>
<path d="M40.02 135.71L38.152 132.274C38.1214 132.214 38.0716 132.169 38.012 132.146C37.9523 132.123 37.8869 132.124 37.828 132.149L35.164 133.3C35.0979 133.334 35.0391 133.382 34.9914 133.442C34.9437 133.502 34.9081 133.571 34.887 133.646C34.8659 133.722 34.8597 133.801 34.8688 133.879C34.878 133.957 34.9022 134.032 34.94 134.099C35.612 135.28 35.988 135.817 36.812 137.324C37.32 138.252 37.972 139.661 38.668 140.94C39.364 142.22 40.552 141.568 40.364 140.971C39.524 138.286 39.964 137.509 40.128 136.315C40.1577 136.106 40.1196 135.892 40.02 135.71V135.71Z" fill="#263238"/>
<path d="M44.1359 133.859L39.9839 129.422L41.1119 128.078L46.1679 132.699L44.1359 133.859Z" fill="#F5F5F5"/>
<path opacity="0.3" d="M69.1604 77.1613C65.0044 80.5969 64.7244 93.7213 64.8204 99.6478C66.9364 91.3635 69.4364 82.143 70.8964 76.8134C70.4964 76.4441 69.9244 76.5257 69.1604 77.1613Z" fill="black"/>
<path d="M40.692 137.582C40.6526 137.581 40.6135 137.574 40.576 137.561C40.176 137.432 39.9 136.655 39.776 136.204C39.7714 136.188 39.7713 136.171 39.7755 136.155C39.7798 136.139 39.7883 136.124 39.8 136.113C39.8123 136.104 39.8269 136.099 39.842 136.099C39.8571 136.099 39.8718 136.104 39.884 136.113C40.004 136.178 41.056 136.766 41.084 137.213C41.0883 137.261 41.081 137.31 41.0628 137.354C41.0446 137.398 41.0161 137.437 40.98 137.466C40.8989 137.539 40.7974 137.579 40.692 137.582V137.582ZM39.976 136.35C40.172 136.947 40.408 137.333 40.62 137.406C40.6671 137.419 40.7165 137.419 40.7634 137.405C40.8103 137.391 40.8532 137.365 40.888 137.329C40.905 137.318 40.9186 137.302 40.9272 137.283C40.9357 137.264 40.9388 137.242 40.936 137.221C40.912 136.998 40.4 136.599 39.976 136.35Z" fill="#FF725E"/>
<path d="M40.8001 136.496C40.454 136.495 40.1124 136.411 39.8001 136.251C39.7893 136.242 39.7806 136.232 39.7746 136.219C39.7685 136.206 39.7654 136.192 39.7654 136.178C39.7654 136.164 39.7685 136.15 39.7746 136.137C39.7806 136.124 39.7893 136.113 39.8001 136.105C39.8361 136.105 40.6241 135.594 41.0721 135.753C41.1301 135.77 41.1836 135.802 41.2287 135.845C41.2737 135.888 41.309 135.942 41.3321 136.002C41.3629 136.059 41.3745 136.126 41.365 136.192C41.3556 136.257 41.3256 136.318 41.2801 136.363C41.1388 136.464 40.9695 136.511 40.8001 136.496V136.496ZM40.0001 136.174C40.3681 136.332 41.0041 136.397 41.1721 136.238C41.2001 136.212 41.2241 136.169 41.1721 136.07C41.1571 136.032 41.1343 135.997 41.1052 135.969C41.0761 135.94 41.0416 135.919 41.0041 135.907C40.6521 135.886 40.3022 135.979 40.0001 136.174V136.174Z" fill="#FF725E"/>
<path d="M62.3198 150.732L65.5638 150.99L66.5238 142.993L63.2838 142.736L62.3198 150.732Z" fill="#E58A7B"/>
<path d="M75.3761 73.0084C75.3761 73.0084 76.1761 100.575 74.3721 110.96C72.4841 121.761 66.7361 146.326 66.7361 146.326L62.0601 145.677C62.0601 145.677 65.0201 120.859 66.2721 110.131C67.6441 98.4325 65.8481 71.0286 65.8481 71.0286L75.3761 73.0084Z" fill="#FF725E"/>
<path opacity="0.6" d="M75.3761 73.0084C75.3761 73.0084 76.1761 100.575 74.3721 110.96C72.4841 121.761 66.7361 146.326 66.7361 146.326L62.0601 145.677C62.0601 145.677 65.0201 120.859 66.2721 110.131C67.6441 98.4325 65.8481 71.0286 65.8481 71.0286L75.3761 73.0084Z" fill="black"/>
<path d="M78.9764 40.2147C78.9324 40.4939 79.0364 40.743 79.2044 40.7816C79.3724 40.8203 79.5444 40.6184 79.6044 40.3522C79.6644 40.0859 79.5444 39.8239 79.3764 39.7896C79.2084 39.7552 79.0204 39.9399 78.9764 40.2147Z" fill="#263238"/>
<path d="M79.28 39.7809L79.932 39.7165C79.932 39.7165 79.532 40.1717 79.28 39.7809Z" fill="#263238"/>
<path d="M79.1521 40.5282C79.2861 41.2082 79.5054 41.8655 79.804 42.4822C79.6547 42.5556 79.4923 42.5936 79.3281 42.5936C79.1638 42.5936 79.0014 42.5556 78.8521 42.4822L79.1521 40.5282Z" fill="#DF5753"/>
<path d="M79.6 39.0809C79.5702 39.081 79.541 39.0716 79.5161 39.0541C79.4913 39.0365 79.4717 39.0115 79.46 38.9821C79.3844 38.7873 79.2684 38.6137 79.1207 38.4745C78.973 38.3353 78.7976 38.2342 78.608 38.179C78.5883 38.1754 78.5694 38.1676 78.5525 38.1561C78.5356 38.1447 78.5209 38.1297 78.5094 38.1122C78.4979 38.0946 78.4897 38.0748 78.4854 38.0538C78.481 38.0329 78.4805 38.0112 78.484 37.9901C78.4917 37.947 78.515 37.9089 78.5486 37.884C78.5823 37.8591 78.6237 37.8494 78.664 37.8569C78.9032 37.9202 79.1252 38.0429 79.3121 38.2153C79.499 38.3876 79.6456 38.6047 79.74 38.849C79.7564 38.8889 79.7576 38.9342 79.7434 38.9751C79.7292 39.016 79.7007 39.0493 79.664 39.068L79.6 39.0809Z" fill="#263238"/>
<path d="M70.768 42.5167C70.828 44.621 70.628 48.4175 69.092 49.4954C69.092 49.4954 69.292 51.6427 72.824 52.3943C76.708 53.2017 75 50.7237 75 50.7237C72.96 49.7402 73.276 48.0739 73.888 46.5751L70.768 42.5167Z" fill="#E58A7B"/>
<path d="M80.7678 53.777C81.5678 54.4298 82.4478 55.1213 83.3158 55.7526C84.1838 56.3839 85.0718 57.0409 85.9758 57.6121C86.8798 58.1833 87.7958 58.7459 88.7158 59.2741C89.6326 59.7829 90.5739 60.2387 91.5358 60.6398C91.6198 60.6742 91.5918 60.6398 91.6118 60.6699H91.6638C91.7156 60.6779 91.7681 60.6779 91.8198 60.6699C91.9798 60.6708 92.1393 60.6535 92.2958 60.6183C92.7204 60.507 93.1322 60.3457 93.5238 60.1374C94.4299 59.6437 95.2956 59.0691 96.1118 58.4195C96.9678 57.771 97.8038 57.0624 98.6238 56.3237C99.4438 55.5851 100.26 54.8163 101.044 54.0519L102.244 55.2329C100.872 57.1521 99.3405 58.9332 97.6678 60.5539C96.7906 61.3957 95.841 62.1464 94.8318 62.7957C94.2638 63.1538 93.66 63.4419 93.0318 63.6546C92.6612 63.7737 92.2783 63.843 91.8918 63.8608C91.6701 63.8738 91.4477 63.8638 91.2278 63.8307C91.1093 63.8158 90.9917 63.7928 90.8758 63.762C90.7718 63.7319 90.6078 63.6847 90.5638 63.6632C88.385 62.8915 86.2881 61.8752 84.3078 60.6312C83.3318 60.0214 82.3678 59.3901 81.4318 58.7115C80.4958 58.033 79.5998 57.3416 78.6838 56.5385L80.7678 53.777Z" fill="#E58A7B"/>
<path d="M100.8 54.3783L101.752 51.7457L103.752 53.893C103.752 53.893 102.804 55.8513 101.444 55.8556L100.8 54.3783Z" fill="#E58A7B"/>
<path d="M103.724 50.9857L105.624 51.6256L103.768 53.8888L101.76 51.7458L103.724 50.9857Z" fill="#E58A7B"/>
<path d="M65.7639 150.492H62.1199C62.0563 150.491 61.9946 150.515 61.9461 150.559C61.8976 150.603 61.8656 150.665 61.8559 150.732L61.3639 153.829C61.3542 153.906 61.3601 153.985 61.3812 154.06C61.4023 154.135 61.4382 154.204 61.4864 154.262C61.5346 154.321 61.5939 154.368 61.6605 154.4C61.727 154.432 61.7991 154.448 61.8719 154.447C63.1439 154.426 63.7559 154.344 65.3599 154.344C66.3439 154.344 68.3839 154.456 69.7599 154.456C71.1359 154.456 71.2279 153.008 70.6639 152.875C68.1359 152.291 67.1559 151.48 66.3159 150.706C66.1627 150.565 65.9663 150.488 65.7639 150.492V150.492Z" fill="#263238"/>
<path d="M70.4481 37.6637C70.1241 41.0994 69.9161 42.5295 71.2481 44.6038C73.2481 47.7174 77.2481 47.5242 78.5401 44.2989C79.6881 41.4 80.0321 36.2809 77.1321 34.2882C76.5154 33.8385 75.8003 33.5691 75.0571 33.5064C74.314 33.4436 73.5684 33.5898 72.8939 33.9305C72.2194 34.2711 71.6391 34.7945 71.2102 35.4491C70.7814 36.1037 70.5187 36.867 70.4481 37.6637Z" fill="#E58A7B"/>
<path d="M70.8002 45.1363C69.2802 44.4706 67.8602 41.8423 67.9162 37.7324C67.9722 33.6224 70.8242 31.2389 75.9162 32.9696C81.0082 34.7004 75.7682 47.3179 70.8002 45.1363Z" fill="#263238"/>
<path d="M75.1121 33.3476C76.6121 32.7163 79.9321 33.4979 79.9321 36.852L76.7041 39.665L75.1121 33.3476Z" fill="#263238"/>
<path d="M74.6921 33.3175C76.6921 33.193 77.4681 33.2016 79.2801 33.747C78.0881 32.2095 75.8561 32.7163 74.6921 33.3175Z" fill="#263238"/>
<path d="M76.424 39.4503C76.362 40.0882 76.4834 40.7311 76.772 41.2927C77.172 42.0829 77.776 41.9755 78 41.3356C78.204 40.7602 78.24 39.6564 77.68 39.0638C77.12 38.4711 76.52 38.7417 76.424 39.4503Z" fill="#E58A7B"/>
<path d="M68.232 34.6961C69.392 35.4606 73.336 34.8293 74.188 33.2016C75.04 31.5739 72.096 28.8512 69.428 28.9499C66.76 29.0487 65.648 32.9869 68.232 34.6961Z" fill="#FF725E"/>
<path d="M67.7322 146.627L61.0642 145.703L61.1482 144.003L68.4002 144.342L67.7322 146.627Z" fill="#F5F5F5"/>
<path d="M66.972 151.102C66.6291 151.095 66.2876 151.053 65.952 150.977C65.9364 150.974 65.922 150.966 65.9112 150.954C65.9003 150.941 65.8936 150.925 65.892 150.908C65.89 150.891 65.8927 150.874 65.8998 150.859C65.9069 150.844 65.9182 150.831 65.932 150.822C66.08 150.741 67.392 150.028 67.784 150.268C67.821 150.29 67.8519 150.321 67.8737 150.36C67.8955 150.398 67.9074 150.442 67.908 150.487C67.9159 150.562 67.9065 150.637 67.8807 150.707C67.8549 150.777 67.8134 150.839 67.76 150.887C67.5286 151.055 67.25 151.131 66.972 151.102V151.102ZM66.208 150.861C66.924 150.99 67.456 150.956 67.66 150.767C67.6945 150.734 67.7212 150.692 67.7379 150.646C67.7546 150.6 67.7608 150.55 67.756 150.5C67.7562 150.482 67.7518 150.464 67.7434 150.448C67.7349 150.432 67.7228 150.419 67.708 150.41C67.496 150.281 66.748 150.586 66.208 150.861Z" fill="#FF725E"/>
<path d="M65.9681 150.977C65.9523 150.981 65.9359 150.981 65.9201 150.977C65.9097 150.968 65.9017 150.956 65.8968 150.942C65.8919 150.929 65.8903 150.914 65.8921 150.9C65.8921 150.84 66.0481 149.414 66.7721 149.414H66.8361C67.0441 149.435 67.1041 149.551 67.1201 149.641C67.1801 150.036 66.3921 150.792 66.0001 150.981L65.9681 150.977ZM66.7681 149.568C66.3001 149.568 66.1161 150.393 66.0561 150.749C66.4561 150.487 66.9961 149.89 66.9601 149.658C66.9601 149.658 66.9601 149.585 66.8121 149.568H66.7681Z" fill="#FF725E"/>
<path d="M63.4757 49.1045C61.2237 49.2162 59.0757 53.223 59.0757 53.223L62.0477 59.7423C62.0477 59.7423 66.0757 56.1391 66.1277 52.596C66.1717 50.2941 65.6877 48.9971 63.4757 49.1045Z" fill="#FF725E"/>
<path opacity="0.8" d="M63.4757 49.1045C61.2237 49.2162 59.0757 53.223 59.0757 53.223L62.0477 59.7423C62.0477 59.7423 66.0757 56.1391 66.1277 52.596C66.1717 50.2941 65.6877 48.9971 63.4757 49.1045Z" fill="white"/>
<path d="M62.5637 70.3157L75.5717 73.0213C81.7157 53.5925 80.2477 52.9654 80.2477 52.9654C79.2921 52.4114 78.3063 51.9195 77.2957 51.4924L77.1157 51.4194C76.2877 51.0973 76.1117 51.0458 74.9957 50.6979C73.0797 50.2126 71.2957 49.8175 69.0877 49.4739L68.6677 49.4095C68.2677 49.358 67.8677 49.3107 67.4877 49.2721C67.2317 49.242 66.9717 49.2248 66.7277 49.2034L65.8877 49.1561C64.4637 49.0788 63.4477 49.1046 63.4477 49.1046C64.1917 61.2283 63.6477 64.7112 62.5637 70.3157Z" fill="#FF725E"/>
<path opacity="0.6" d="M62.5637 70.3157L75.5717 73.0213C81.7157 53.5925 80.2477 52.9654 80.2477 52.9654C79.2921 52.4114 78.3063 51.9195 77.2957 51.4924L77.1157 51.4194C76.2877 51.0973 76.1117 51.0458 74.9957 50.6979C73.0797 50.2126 71.2957 49.8175 69.0877 49.4739L68.6677 49.4095C68.2677 49.358 67.8677 49.3107 67.4877 49.2721C67.2317 49.242 66.9717 49.2248 66.7277 49.2034L65.8877 49.1561C64.4637 49.0788 63.4477 49.1046 63.4477 49.1046C64.1917 61.2283 63.6477 64.7112 62.5637 70.3157Z" fill="white"/>
<path opacity="0.2" d="M77.0757 57.638C77.5917 58.7288 78.2037 60.1761 79.0237 61.1768C79.2597 60.2577 79.4557 59.4589 79.6237 58.7159L77.0757 57.638Z" fill="#FF725E"/>
<path d="M66.6482 60.5539C69.8922 57.8011 70.5762 55.2415 70.1242 53.004C69.6722 50.7665 69.1522 46.8627 69.5242 45.5571C69.8962 44.2516 71.1922 41.5417 70.9282 39.2269C70.6642 36.9121 70.0482 33.6954 70.6402 32.304C71.2322 30.9125 73.1122 30.0879 71.5882 28.1124C70.8482 27.1547 67.7122 27.0087 66.8922 29.68C66.0722 32.3512 62.7042 33.5065 61.3802 33.7727C60.0562 34.039 57.7242 35.6366 57.3202 38.2391C56.9162 40.8416 55.2882 41.8681 53.0522 43.2037C50.8162 44.5393 47.6002 49.7744 48.8802 54.4212C50.6082 60.7815 61.8162 64.6681 66.6482 60.5539Z" fill="#263238"/>
<path d="M76.4 51.7887C77.408 50.9298 81.748 53.7556 83.076 54.9366L82.3 61.0607C82.3 61.0607 76.1 58.3036 75.676 56.4183C75.22 54.4556 75.6 52.4458 76.4 51.7887Z" fill="#FF725E"/>
<path opacity="0.6" d="M76.4 51.7887C77.408 50.9298 81.748 53.7556 83.076 54.9366L82.3 61.0607C82.3 61.0607 76.1 58.3036 75.676 56.4183C75.22 54.4556 75.6 52.4458 76.4 51.7887Z" fill="white"/>
<path d="M62.4921 69.461L61.7161 70.5819C61.6561 70.6678 61.7481 70.788 61.8961 70.8224L75.5401 73.6568C75.6561 73.6826 75.7641 73.6568 75.7841 73.5624L76.0921 72.3427C76.1121 72.2611 76.0241 72.1666 75.8961 72.1408L62.7201 69.4009C62.6805 69.3882 62.6386 69.3871 62.5985 69.3977C62.5584 69.4083 62.5217 69.4301 62.4921 69.461Z" fill="#FF725E"/>
<path d="M64.0201 71.4022L63.6681 71.3292C63.6001 71.3292 63.5521 71.2648 63.5641 71.2176L63.9641 69.6372C63.9641 69.5899 64.0441 69.5642 64.1161 69.577L64.4681 69.65C64.5361 69.65 64.5841 69.7145 64.5721 69.7617L64.1721 71.3421C64.1601 71.3894 64.0921 71.4151 64.0201 71.4022Z" fill="#FF725E"/>
<path d="M72.9321 73.2747L72.5761 73.2017C72.5081 73.2017 72.4601 73.1373 72.4721 73.09L72.8721 71.5096C72.8721 71.4666 72.9521 71.4409 73.0241 71.4538L73.3761 71.5268C73.4481 71.5268 73.4961 71.5912 73.4841 71.6384L73.0841 73.2189C73.0681 73.2661 73.0001 73.2919 72.9321 73.2747Z" fill="#FF725E"/>
<path opacity="0.6" d="M64.0201 71.4022L63.6681 71.3292C63.6001 71.3292 63.5521 71.2648 63.5641 71.2176L63.9641 69.6372C63.9641 69.5899 64.0441 69.5642 64.1161 69.577L64.4681 69.65C64.5361 69.65 64.5841 69.7145 64.5721 69.7617L64.1721 71.3421C64.1601 71.3894 64.0921 71.4151 64.0201 71.4022Z" fill="black"/>
<path opacity="0.6" d="M72.9321 73.2747L72.5761 73.2017C72.5081 73.2017 72.4601 73.1373 72.4721 73.09L72.8721 71.5096C72.8721 71.4666 72.9521 71.4409 73.0241 71.4538L73.3761 71.5268C73.4481 71.5268 73.4961 71.5912 73.4841 71.6384L73.0841 73.2189C73.0681 73.2661 73.0001 73.2919 72.9321 73.2747Z" fill="black"/>
</svg>
