<svg width="200" height="160" viewBox="0 0 200 160" fill="none" xmlns="http://www.w3.org/2000/svg">
<path d="M200 141.036H0V141.141H200V141.036Z" fill="#E0E0E0"/>
<path d="M151.732 144.907H137.972V145.012H151.732V144.907Z" fill="#E0E0E0"/>
<path d="M167.92 144.609H160.176V144.714H167.92V144.609Z" fill="#E0E0E0"/>
<path d="M98.9361 144.857H88.6641V144.962H98.9361V144.857Z" fill="#E0E0E0"/>
<path d="M106.356 146.348H99.3401V146.453H106.356V146.348Z" fill="#E0E0E0"/>
<path d="M57.8681 143.795H36.6721V143.9H57.8681V143.795Z" fill="#E0E0E0"/>
<path d="M94.8002 122.306H17.5642C16.9591 122.305 16.3792 122.052 15.9517 121.603C15.5243 121.153 15.2842 120.544 15.2842 119.909V5.9253C15.2894 5.29373 15.5319 4.68984 15.9588 4.24481C16.3857 3.79978 16.9626 3.54954 17.5642 3.54846H94.8002C95.4059 3.54846 95.9869 3.80109 96.4152 4.25077C96.8436 4.70045 97.0842 5.31035 97.0842 5.9463V119.909C97.0842 120.545 96.8436 121.155 96.4152 121.604C95.9869 122.054 95.4059 122.306 94.8002 122.306V122.306ZM17.5642 3.63245C16.9856 3.63356 16.4312 3.87562 16.0224 4.30549C15.6137 4.73537 15.3842 5.31793 15.3842 5.9253V119.909C15.3842 120.516 15.6137 121.099 16.0224 121.528C16.4312 121.958 16.9856 122.2 17.5642 122.202H94.8002C95.3791 122.2 95.934 121.958 96.3433 121.529C96.7527 121.099 96.9831 120.516 96.9842 119.909V5.9253C96.9831 5.31754 96.7527 4.73499 96.3433 4.30524C95.934 3.87548 95.3791 3.63356 94.8002 3.63245H17.5642Z" fill="#E0E0E0"/>
<path d="M181.324 122.306H104.084C103.479 122.305 102.898 122.052 102.47 121.603C102.042 121.154 101.801 120.544 101.8 119.909V5.9253C101.806 5.29335 102.05 4.68946 102.477 4.24455C102.905 3.79963 103.482 3.54953 104.084 3.54846H181.324C181.925 3.55065 182.501 3.80137 182.927 4.24628C183.353 4.6912 183.595 5.29445 183.6 5.9253V119.909C183.6 120.543 183.361 121.152 182.934 121.601C182.507 122.051 181.928 122.304 181.324 122.306V122.306ZM104.084 3.63245C103.505 3.63356 102.95 3.87548 102.541 4.30524C102.132 4.73499 101.901 5.31754 101.9 5.9253V119.909C101.901 120.516 102.132 121.099 102.541 121.529C102.95 121.958 103.505 122.2 104.084 122.202H181.324C181.903 122.2 182.458 121.958 182.867 121.529C183.277 121.099 183.507 120.516 183.508 119.909V5.9253C183.507 5.31754 183.277 4.73499 182.867 4.30524C182.458 3.87548 181.903 3.63356 181.324 3.63245H104.084Z" fill="#E0E0E0"/>
<path d="M173.612 13.7404H113.332V68.1473H173.612V13.7404Z" fill="#E0E0E0"/>
<path d="M174.952 13.7404H114.672V68.1473H174.952V13.7404Z" fill="#F0F0F0"/>
<path d="M172.548 65.5941V16.2935L117.076 16.2935V65.5941H172.548Z" fill="#FAFAFA"/>
<path d="M154.82 65.5941V16.2935H151.196V65.5941H154.82Z" fill="#E0E0E0"/>
<path d="M135.756 65.5941V16.2935H132.132V65.5941H135.756Z" fill="#E0E0E0"/>
<path d="M156.096 67.2108V14.3912H152.472V67.2108H156.096Z" fill="#F0F0F0"/>
<path d="M137.028 67.2151V14.3954H133.404V67.2151H137.028Z" fill="#F0F0F0"/>
<path d="M172.548 65.5899V16.2894H171.536V65.5899H172.548Z" fill="#E0E0E0"/>
<path d="M70.9361 56.7083C70.9361 56.7083 63.6001 43.4425 73.7801 32.8643C73.7801 32.8643 76.4361 34.6826 76.3961 37.1266C76.3561 39.5706 73.5481 40.188 74.1521 42.2288C74.7561 44.2697 77.4001 46.2644 75.6641 47.9526C73.9281 49.6407 75.9441 51.1357 75.8281 53.2018C75.7121 55.2679 70.9361 56.7083 70.9361 56.7083Z" fill="#E0E0E0"/>
<path d="M72.0882 58.8792C72.0882 58.8792 75.0642 43.8539 62.2322 37.1937C62.2322 37.1937 60.2562 39.7973 61.0322 42.1028C61.8082 44.4082 64.6522 44.0639 64.6922 46.2014C64.7322 48.3388 62.8242 51.1104 64.9762 52.1351C67.1282 53.1597 65.6682 55.251 66.4002 57.1743C67.1322 59.0976 72.0882 58.8792 72.0882 58.8792Z" fill="#E6E6E6"/>
<path d="M65.5562 55.062C65.5562 55.062 65.6842 68.0338 70.6242 68.0338C75.5642 68.0338 75.6882 55.062 75.6882 55.062H65.5562Z" fill="#F0F0F0"/>
<path d="M35.876 63.1543C35.876 63.1543 36.152 68.034 46.7 68.034C57.248 68.034 57.528 63.1543 57.528 63.1543H35.876Z" fill="#E6E6E6"/>
<path d="M147.08 92.575H141.512C140.818 92.575 140.256 93.1653 140.256 93.8936V103.56C140.256 104.289 140.818 104.879 141.512 104.879H147.08C147.774 104.879 148.336 104.289 148.336 103.56V93.8936C148.336 93.1653 147.774 92.575 147.08 92.575Z" fill="#F0F0F0"/>
<path d="M161.848 96.598H158.1C157.634 96.598 157.256 96.9947 157.256 97.4841V103.993C157.256 104.482 157.634 104.879 158.1 104.879H161.848C162.314 104.879 162.692 104.482 162.692 103.993V97.4841C162.692 96.9947 162.314 96.598 161.848 96.598Z" fill="#E6E6E6"/>
<path d="M162.408 95.7959H157.54C157.383 95.7959 157.256 95.9294 157.256 96.094V96.43C157.256 96.5947 157.383 96.7282 157.54 96.7282H162.408C162.565 96.7282 162.692 96.5947 162.692 96.43V96.094C162.692 95.9294 162.565 95.7959 162.408 95.7959Z" fill="#F0F0F0"/>
<path d="M127.368 98.0342C127.368 98.0342 127.568 104.879 135.204 104.879C142.84 104.879 143.044 98.0342 143.044 98.0342H127.368Z" fill="#E6E6E6"/>
<path d="M108.376 88.993H119.932V86.5993H108.376V88.993Z" fill="#E0E0E0"/>
<path d="M177.384 86.6035H119.932V88.9972H177.384V86.6035Z" fill="#F0F0F0"/>
<path d="M108.376 107.273H119.932V104.879H108.376V107.273Z" fill="#E0E0E0"/>
<path d="M177.384 104.879H119.932V107.273H177.384V104.879Z" fill="#F0F0F0"/>
<path d="M112.54 88.993H110.408V141.032H112.54V88.993Z" fill="#E0E0E0"/>
<path d="M122.064 88.993H119.932V141.032H122.064V88.993Z" fill="#F0F0F0"/>
<path d="M169.992 88.993H167.86V141.032H169.992V88.993Z" fill="#E0E0E0"/>
<path d="M177.384 88.993H175.252V141.032H177.384V88.993Z" fill="#F0F0F0"/>
<path d="M35.876 71.0785H24.948V137.886H35.876V71.0785Z" fill="#E6E6E6"/>
<path d="M80.9359 137.882H27.0479V141.036H80.9359V137.882Z" fill="#E6E6E6"/>
<path d="M35.8762 137.882H83.0322L83.0322 71.0743H35.8762L35.8762 137.882Z" fill="#F0F0F0"/>
<path d="M40.1721 112.64H78.7361V96.3208H40.1721V112.64Z" fill="#E6E6E6"/>
<path d="M40.1721 131.932H78.7361V115.613H40.1721V131.932Z" fill="#E6E6E6"/>
<path d="M63.7841 98.1098H55.1241C54.8422 98.1087 54.5722 97.9906 54.3729 97.7814C54.1736 97.5721 54.0611 97.2887 54.0601 96.9927V96.9927C54.0601 96.6961 54.172 96.4116 54.3715 96.2014C54.5709 95.9913 54.8415 95.8726 55.1241 95.8715H63.7841C64.0666 95.8726 64.3372 95.9913 64.5367 96.2014C64.7361 96.4116 64.8481 96.6961 64.8481 96.9927V96.9927C64.847 97.2887 64.7346 97.5721 64.5353 97.7814C64.336 97.9906 64.0659 98.1087 63.7841 98.1098Z" fill="#F0F0F0"/>
<path d="M40.1721 93.3435H78.7361V77.0248H40.1721V93.3435Z" fill="#E6E6E6"/>
<path d="M63.7841 78.8179H55.1241C54.8415 78.8168 54.5709 78.6982 54.3715 78.488C54.172 78.2779 54.0601 77.9933 54.0601 77.6967C54.0611 77.4008 54.1736 77.1173 54.3729 76.908C54.5722 76.6988 54.8422 76.5808 55.1241 76.5797H63.7841C64.0659 76.5808 64.336 76.6988 64.5353 76.908C64.7346 77.1173 64.847 77.4008 64.8481 77.6967V77.6967C64.8481 77.9933 64.7361 78.2779 64.5367 78.488C64.3372 78.6982 64.0666 78.8168 63.7841 78.8179V78.8179Z" fill="#F0F0F0"/>
<path d="M63.7841 117.402H55.1241C54.8422 117.401 54.5722 117.282 54.3729 117.073C54.1736 116.864 54.0611 116.581 54.0601 116.285V116.285C54.0601 115.988 54.172 115.703 54.3715 115.493C54.5709 115.283 54.8415 115.165 55.1241 115.163H63.7841C64.0666 115.165 64.3372 115.283 64.5367 115.493C64.7361 115.703 64.8481 115.988 64.8481 116.285V116.285C64.847 116.581 64.7346 116.864 64.5353 117.073C64.336 117.282 64.0659 117.401 63.7841 117.402Z" fill="#F0F0F0"/>
<path d="M84.488 68.0339H35.876V71.0785H84.488V68.0339Z" fill="#E6E6E6"/>
<path d="M23.42 71.0742H35.876V68.0297H23.42V71.0742Z" fill="#E0E0E0"/>
<path d="M48.056 16.2935H30.376V36.6772H48.056V16.2935Z" fill="#E6E6E6"/>
<path d="M49.972 16.2935H31.708V36.6772H49.972V16.2935Z" fill="#F0F0F0"/>
<path d="M48.4399 35.0689V17.8977H33.2359V35.0689H48.4399Z" fill="#FAFAFA"/>
<path d="M44.7559 30.9073V22.0593H36.9239V30.9073H44.7559Z" fill="#F0F0F0"/>
<path d="M66.6958 10.2759H53.2878V25.3978H66.6958V10.2759Z" fill="#E6E6E6"/>
<path d="M68.1198 10.2759H54.5718V25.3978H68.1198V10.2759Z" fill="#F0F0F0"/>
<path d="M66.9841 24.2051V11.4684H55.7081V24.2051H66.9841Z" fill="#FAFAFA"/>
<path d="M61.344 14.6138L58.26 20.2242H64.428L61.344 14.6138Z" fill="#F0F0F0"/>
<path d="M100 160C142.833 160 177.556 157.872 177.556 155.246C177.556 152.621 142.833 150.493 100 150.493C57.1671 150.493 22.4441 152.621 22.4441 155.246C22.4441 157.872 57.1671 160 100 160Z" fill="#F5F5F5"/>
<path d="M167.92 41.6871H128.68C126.61 41.6871 124.932 43.4487 124.932 45.6219V56.8258C124.932 58.9989 126.61 60.7606 128.68 60.7606H167.92C169.99 60.7606 171.668 58.9989 171.668 56.8258V45.6219C171.668 43.4487 169.99 41.6871 167.92 41.6871Z" fill="#FF725E"/>
<path d="M160.136 44.9038H129.484C129.122 44.9038 128.828 45.2121 128.828 45.5925V46.3484C128.828 46.7287 129.122 47.0371 129.484 47.0371H160.136C160.498 47.0371 160.792 46.7287 160.792 46.3484V45.5925C160.792 45.2121 160.498 44.9038 160.136 44.9038Z" fill="#FF725E"/>
<path d="M150.428 50.0438H129.484C129.122 50.0438 128.828 50.3522 128.828 50.7325V51.4884C128.828 51.8688 129.122 52.1771 129.484 52.1771H150.428C150.79 52.1771 151.084 51.8688 151.084 51.4884V50.7325C151.084 50.3522 150.79 50.0438 150.428 50.0438Z" fill="#FF725E"/>
<path d="M144.812 55.1839H129.484C129.122 55.1839 128.828 55.4922 128.828 55.8726V56.6285C128.828 57.0088 129.122 57.3172 129.484 57.3172H144.812C145.174 57.3172 145.468 57.0088 145.468 56.6285V55.8726C145.468 55.4922 145.174 55.1839 144.812 55.1839Z" fill="#FF725E"/>
<path d="M163.808 55.1839H148.48C148.117 55.1839 147.824 55.4922 147.824 55.8726V56.6285C147.824 57.0088 148.117 57.3172 148.48 57.3172H163.808C164.17 57.3172 164.464 57.0088 164.464 56.6285V55.8726C164.464 55.4922 164.17 55.1839 163.808 55.1839Z" fill="#FF725E"/>
<g opacity="0.5">
<path opacity="0.5" d="M160.136 44.9038H129.484C129.122 44.9038 128.828 45.2121 128.828 45.5925V46.3484C128.828 46.7287 129.122 47.0371 129.484 47.0371H160.136C160.498 47.0371 160.792 46.7287 160.792 46.3484V45.5925C160.792 45.2121 160.498 44.9038 160.136 44.9038Z" fill="white"/>
<path opacity="0.5" d="M150.428 50.0438H129.484C129.122 50.0438 128.828 50.3522 128.828 50.7325V51.4884C128.828 51.8688 129.122 52.1771 129.484 52.1771H150.428C150.79 52.1771 151.084 51.8688 151.084 51.4884V50.7325C151.084 50.3522 150.79 50.0438 150.428 50.0438Z" fill="white"/>
<path opacity="0.5" d="M144.812 55.1839H129.484C129.122 55.1839 128.828 55.4922 128.828 55.8726V56.6285C128.828 57.0088 129.122 57.3172 129.484 57.3172H144.812C145.174 57.3172 145.468 57.0088 145.468 56.6285V55.8726C145.468 55.4922 145.174 55.1839 144.812 55.1839Z" fill="white"/>
<path opacity="0.5" d="M163.808 55.1839H148.48C148.117 55.1839 147.824 55.4922 147.824 55.8726V56.6285C147.824 57.0088 148.117 57.3172 148.48 57.3172H163.808C164.17 57.3172 164.464 57.0088 164.464 56.6285V55.8726C164.464 55.4922 164.17 55.1839 163.808 55.1839Z" fill="white"/>
</g>
<path d="M136.488 37.2399H91.9479C88.9125 37.2399 86.4519 39.8232 86.4519 43.0099V59.4378C86.4519 62.6244 88.9125 65.2077 91.9479 65.2077H136.488C139.523 65.2077 141.984 62.6244 141.984 59.4378V43.0099C141.984 39.8232 139.523 37.2399 136.488 37.2399Z" fill="#FF725E"/>
<path d="M138.064 41.9559H93.1278C92.5954 41.9559 92.1638 42.409 92.1638 42.9679V44.0723C92.1638 44.6313 92.5954 45.0844 93.1278 45.0844H138.064C138.596 45.0844 139.028 44.6313 139.028 44.0723V42.9679C139.028 42.409 138.596 41.9559 138.064 41.9559Z" fill="#FF725E"/>
<path d="M123.828 49.4937H93.1278C92.5954 49.4937 92.1638 49.9468 92.1638 50.5058V51.6102C92.1638 52.1691 92.5954 52.6222 93.1278 52.6222H123.828C124.36 52.6222 124.792 52.1691 124.792 51.6102V50.5058C124.792 49.9468 124.36 49.4937 123.828 49.4937Z" fill="#FF725E"/>
<path d="M115.596 57.0316H93.1278C92.5954 57.0316 92.1638 57.4847 92.1638 58.0437V59.1481C92.1638 59.707 92.5954 60.1601 93.1278 60.1601H115.596C116.128 60.1601 116.56 59.707 116.56 59.1481V58.0437C116.56 57.4847 116.128 57.0316 115.596 57.0316Z" fill="#FF725E"/>
<path d="M139.7 57.0316H120.98C120.447 57.0316 120.016 57.4847 120.016 58.0437V59.1481C120.016 59.707 120.447 60.1601 120.98 60.1601H139.7C140.232 60.1601 140.664 59.707 140.664 59.1481V58.0437C140.664 57.4847 140.232 57.0316 139.7 57.0316Z" fill="#FF725E"/>
<g opacity="0.5">
<path opacity="0.5" d="M138.064 41.9559H93.1276C92.5952 41.9559 92.1636 42.409 92.1636 42.9679V44.0723C92.1636 44.6313 92.5952 45.0844 93.1276 45.0844H138.064C138.596 45.0844 139.028 44.6313 139.028 44.0723V42.9679C139.028 42.409 138.596 41.9559 138.064 41.9559Z" fill="white"/>
<path opacity="0.5" d="M123.828 49.4937H93.1276C92.5952 49.4937 92.1636 49.9468 92.1636 50.5058V51.6102C92.1636 52.1691 92.5952 52.6222 93.1276 52.6222H123.828C124.36 52.6222 124.792 52.1691 124.792 51.6102V50.5058C124.792 49.9468 124.36 49.4937 123.828 49.4937Z" fill="white"/>
<path opacity="0.5" d="M115.596 57.0316H93.1276C92.5952 57.0316 92.1636 57.4847 92.1636 58.0437V59.1481C92.1636 59.707 92.5952 60.1601 93.1276 60.1601H115.596C116.128 60.1601 116.56 59.707 116.56 59.1481V58.0437C116.56 57.4847 116.128 57.0316 115.596 57.0316Z" fill="white"/>
<path opacity="0.5" d="M139.7 57.0316H120.98C120.447 57.0316 120.016 57.4847 120.016 58.0437V59.1481C120.016 59.707 120.447 60.1601 120.98 60.1601H139.7C140.232 60.1601 140.664 59.707 140.664 59.1481V58.0437C140.664 57.4847 140.232 57.0316 139.7 57.0316Z" fill="white"/>
</g>
<path d="M108.796 70.2764H87.3436C85.9254 70.2764 84.7756 71.4834 84.7756 72.9724V106.71C84.7756 108.199 85.9254 109.406 87.3436 109.406H108.796C110.214 109.406 111.364 108.199 111.364 106.71V72.9724C111.364 71.4834 110.214 70.2764 108.796 70.2764Z" fill="#FF725E"/>
<path opacity="0.4" d="M108.796 70.2764H87.3436C85.9254 70.2764 84.7756 71.4834 84.7756 72.9724V106.71C84.7756 108.199 85.9254 109.406 87.3436 109.406H108.796C110.214 109.406 111.364 108.199 111.364 106.71V72.9724C111.364 71.4834 110.214 70.2764 108.796 70.2764Z" fill="black"/>
<path d="M107.812 74.3582H88.3236C88.0629 74.3582 87.8516 74.58 87.8516 74.8537V75.597C87.8516 75.8706 88.0629 76.0925 88.3236 76.0925H107.812C108.072 76.0925 108.284 75.8706 108.284 75.597V74.8537C108.284 74.58 108.072 74.3582 107.812 74.3582Z" fill="#FAFAFA"/>
<path d="M101.608 78.5323H88.3236C88.0629 78.5323 87.8516 78.7542 87.8516 79.0279V79.7712C87.8516 80.0448 88.0629 80.2667 88.3236 80.2667H101.608C101.868 80.2667 102.08 80.0448 102.08 79.7712V79.0279C102.08 78.7542 101.868 78.5323 101.608 78.5323Z" fill="#FAFAFA"/>
<path d="M107.812 82.7107H88.3236C88.0629 82.7107 87.8516 82.9326 87.8516 83.2062V83.9495C87.8516 84.2232 88.0629 84.445 88.3236 84.445H107.812C108.072 84.445 108.284 84.2232 108.284 83.9495V83.2062C108.284 82.9326 108.072 82.7107 107.812 82.7107Z" fill="#FAFAFA"/>
<path d="M95.5676 86.8849H88.3236C88.0629 86.8849 87.8516 87.1067 87.8516 87.3804V88.1237C87.8516 88.3974 88.0629 88.6192 88.3236 88.6192H95.5676C95.8282 88.6192 96.0396 88.3974 96.0396 88.1237V87.3804C96.0396 87.1067 95.8282 86.8849 95.5676 86.8849Z" fill="#FAFAFA"/>
<path d="M105.704 86.8849H98.4598C98.1991 86.8849 97.9878 87.1067 97.9878 87.3804V88.1237C97.9878 88.3974 98.1991 88.6192 98.4598 88.6192H105.704C105.964 88.6192 106.176 88.3974 106.176 88.1237V87.3804C106.176 87.1067 105.964 86.8849 105.704 86.8849Z" fill="#FAFAFA"/>
<path d="M107.812 91.0632H88.3236C88.0629 91.0632 87.8516 91.2851 87.8516 91.5588V92.3021C87.8516 92.5757 88.0629 92.7976 88.3236 92.7976H107.812C108.072 92.7976 108.284 92.5757 108.284 92.3021V91.5588C108.284 91.2851 108.072 91.0632 107.812 91.0632Z" fill="#FAFAFA"/>
<path d="M107.812 95.2374H88.3236C88.0629 95.2374 87.8516 95.4593 87.8516 95.7329V96.4762C87.8516 96.7499 88.0629 96.9718 88.3236 96.9718H107.812C108.072 96.9718 108.284 96.7499 108.284 96.4762V95.7329C108.284 95.4593 108.072 95.2374 107.812 95.2374Z" fill="#FAFAFA"/>
<path d="M104.356 99.4158H88.3236C88.0629 99.4158 87.8516 99.6376 87.8516 99.9113V100.655C87.8516 100.928 88.0629 101.15 88.3236 101.15H104.356C104.616 101.15 104.828 100.928 104.828 100.655V99.9113C104.828 99.6376 104.616 99.4158 104.356 99.4158Z" fill="#FAFAFA"/>
<path d="M95.8036 103.59H88.3236C88.0629 103.59 87.8516 103.812 87.8516 104.085V104.829C87.8516 105.102 88.0629 105.324 88.3236 105.324H95.8036C96.0642 105.324 96.2756 105.102 96.2756 104.829V104.085C96.2756 103.812 96.0642 103.59 95.8036 103.59Z" fill="#FAFAFA"/>
<path d="M114.6 70.037H84.8438L97.9998 81.0268L118.172 89.0056V73.7787C118.17 72.7856 117.792 71.8339 117.123 71.1324C116.453 70.431 115.546 70.037 114.6 70.037Z" fill="#FF725E"/>
<path opacity="0.4" d="M114.6 70.037H84.8438L97.9998 81.0268L118.172 89.0056V73.7787C118.17 72.7856 117.792 71.8339 117.123 71.1324C116.453 70.431 115.546 70.037 114.6 70.037Z" fill="black"/>
<path d="M113.3 75.6978H91.5278C91.2008 75.6978 90.9358 75.976 90.9358 76.3193V77.4783C90.9358 77.8215 91.2008 78.0998 91.5278 78.0998H113.3C113.627 78.0998 113.892 77.8215 113.892 77.4783V76.3193C113.892 75.976 113.627 75.6978 113.3 75.6978Z" fill="#FAFAFA"/>
<path d="M166.06 99.7853V77.8142C166.06 76.1305 164.759 74.7655 163.156 74.7655H126.816C125.212 74.7655 123.912 76.1305 123.912 77.8142V99.7853C123.912 101.469 125.212 102.834 126.816 102.834H163.156C164.759 102.834 166.06 101.469 166.06 99.7853Z" fill="#FF725E"/>
<path d="M172.696 92.8228V70.8517C172.696 69.1679 171.396 67.803 169.792 67.803H133.452C131.848 67.803 130.548 69.1679 130.548 70.8517V92.8228C130.548 94.5066 131.848 95.8715 133.452 95.8715H169.792C171.396 95.8715 172.696 94.5066 172.696 92.8228Z" fill="#FF725E"/>
<path opacity="0.5" d="M172.696 92.8228V70.8517C172.696 69.1679 171.396 67.803 169.792 67.803H133.452C131.848 67.803 130.548 69.1679 130.548 70.8517V92.8228C130.548 94.5066 131.848 95.8715 133.452 95.8715H169.792C171.396 95.8715 172.696 94.5066 172.696 92.8228Z" fill="white"/>
<path d="M169.008 85.2933V71.7672C169.008 71.018 168.429 70.4108 167.716 70.4108H155.84C155.126 70.4108 154.548 71.018 154.548 71.7672V85.2933C154.548 86.0424 155.126 86.6497 155.84 86.6497H167.716C168.429 86.6497 169.008 86.0424 169.008 85.2933Z" fill="#FF725E"/>
<path opacity="0.7" d="M169.008 85.2933V71.7672C169.008 71.018 168.429 70.4108 167.716 70.4108H155.84C155.126 70.4108 154.548 71.018 154.548 71.7672V85.2933C154.548 86.0424 155.126 86.6497 155.84 86.6497H167.716C168.429 86.6497 169.008 86.0424 169.008 85.2933Z" fill="white"/>
<path d="M152.284 91.8359V81.4719C152.284 80.8967 151.84 80.4304 151.292 80.4304H142.192C141.644 80.4304 141.2 80.8967 141.2 81.4719V91.8359C141.2 92.4111 141.644 92.8773 142.192 92.8773H151.292C151.84 92.8773 152.284 92.4111 152.284 91.8359Z" fill="#FF725E"/>
<path opacity="0.3" d="M152.284 91.8359V81.4719C152.284 80.8967 151.84 80.4304 151.292 80.4304H142.192C141.644 80.4304 141.2 80.8967 141.2 81.4719V91.8359C141.2 92.4111 141.644 92.8773 142.192 92.8773H151.292C151.84 92.8773 152.284 92.4111 152.284 91.8359Z" fill="white"/>
<path d="M146.74 26.1243V20.5265C146.74 18.8149 145.418 17.4274 143.788 17.4274L46.136 17.4274C44.5057 17.4274 43.184 18.8149 43.184 20.5265V26.1243C43.184 27.8359 44.5057 29.2234 46.136 29.2234L143.788 29.2234C145.418 29.2234 146.74 27.8359 146.74 26.1243Z" fill="#FF725E"/>
<path opacity="0.5" d="M146.74 26.1243V20.5265C146.74 18.8149 145.418 17.4274 143.788 17.4274L46.136 17.4274C44.5057 17.4274 43.184 18.8149 43.184 20.5265V26.1243C43.184 27.8359 44.5057 29.2234 46.136 29.2234L143.788 29.2234C145.418 29.2234 146.74 27.8359 146.74 26.1243Z" fill="white"/>
<path d="M128.264 31.1971V27.1363L100.164 27.1363V31.1971H128.264Z" fill="#FF725E"/>
<path opacity="0.5" d="M128.264 31.1971V27.1363L100.164 27.1363V31.1971H128.264Z" fill="white"/>
<path d="M156.816 8.69689V3.09913C156.816 1.38753 155.494 0 153.864 0L56.2119 0C54.5816 0 53.2599 1.38753 53.2599 3.09913V8.69689C53.2599 10.4085 54.5816 11.796 56.2119 11.796L153.864 11.796C155.494 11.796 156.816 10.4085 156.816 8.69689Z" fill="#FF725E"/>
<path d="M52.1441 62.0288C51.7921 62.8687 51.4041 63.7758 51.0641 64.6618C50.7241 65.5479 50.3721 66.4592 50.0641 67.3662C49.4322 69.1345 48.9255 70.9494 48.5481 72.796L48.4321 73.4679L48.3921 73.7199C48.3921 73.7913 48.3921 73.8836 48.3681 73.9676C48.3529 74.3765 48.3609 74.786 48.3921 75.1938C48.4681 76.0799 48.6041 77.029 48.7921 77.978C49.1281 79.8803 49.5561 81.8414 49.9921 83.7731L47.9401 84.613C46.9836 82.7824 46.169 80.8739 45.5041 78.9061C45.1539 77.8819 44.8705 76.8338 44.6561 75.7691C44.536 75.1801 44.4611 74.5819 44.4321 73.9802C44.4321 73.8122 44.4321 73.6527 44.4321 73.4721C44.4321 73.2915 44.4321 73.09 44.4601 72.9724L44.5401 72.1325C44.6596 71.0508 44.8427 69.978 45.0881 68.92C45.3121 67.8701 45.6001 66.8497 45.8881 65.8419C46.1761 64.834 46.5361 63.843 46.9161 62.8687C47.1041 62.3816 47.3161 61.8986 47.5001 61.4157C47.6841 60.9328 47.9001 60.4709 48.1561 59.9543L52.1441 62.0288Z" fill="#E4897B"/>
<path d="M49.884 83.2062L51.444 84.8061L48.04 86.4859C48.04 86.4859 47.216 84.9699 47.788 83.6009L49.884 83.2062Z" fill="#E4897B"/>
<path d="M52.7039 87.1872L49.8279 88.4218L48.0439 86.4691L51.4439 84.8062L52.7039 87.1872Z" fill="#E4897B"/>
<path opacity="0.4" d="M110.964 85.4655C105.304 84.7984 99.9602 82.3846 95.6071 78.5292C91.254 74.6739 88.0874 69.5502 86.5076 63.8058C84.9278 58.0614 85.0058 51.9542 86.7317 46.2563C88.4576 40.5584 91.7538 35.5256 96.2038 31.7942C100.654 28.0628 106.058 25.8002 111.732 25.2926C117.407 24.785 123.098 26.055 128.085 28.9423C133.072 31.8295 137.132 36.2042 139.751 41.5134C142.37 46.8226 143.431 52.8279 142.8 58.7701C142.381 62.7181 141.224 66.5406 139.397 70.0192C137.57 73.4979 135.108 76.5644 132.151 79.0435C129.195 81.5227 125.802 83.3659 122.166 84.4678C118.531 85.5697 114.724 85.9087 110.964 85.4655V85.4655Z" fill="#FAFAFA"/>
<path opacity="0.4" d="M131.916 31.596L88.116 68.3363C87.932 67.9163 87.752 67.4964 87.584 67.0765C86.4859 64.3344 85.7835 61.4358 85.5 58.4762V58.4762L123.332 26.7416C126.438 27.8293 129.342 29.4715 131.916 31.596V31.596Z" fill="#FAFAFA"/>
<path opacity="0.4" d="M142.024 47.6922L100.844 82.232C96.9319 80.091 93.5417 77.0333 90.936 73.2957L135.9 35.577C138.798 39.0696 140.894 43.2146 142.024 47.6922Z" fill="#FAFAFA"/>
<path d="M81.756 43.8624L81.376 43.728C82.0341 41.6892 82.8613 39.7149 83.848 37.8279L84.196 38.0294C83.2223 39.8954 82.4058 41.8471 81.756 43.8624ZM86.612 34.061L86.288 33.8133C89.5752 29.1469 93.8775 25.3732 98.836 22.8067L99.016 23.1847C94.1138 25.7246 89.8609 29.458 86.612 34.0736V34.061ZM130.448 23.76C129.141 23.0239 127.789 22.38 126.4 21.8325L126.544 21.4377C127.946 21.9981 129.312 22.6546 130.632 23.403L130.448 23.76Z" fill="#FF725E"/>
<path opacity="0.3" d="M81.756 43.8624L81.376 43.728C82.0341 41.6892 82.8613 39.7149 83.848 37.8279L84.196 38.0294C83.2223 39.8954 82.4058 41.8471 81.756 43.8624ZM86.612 34.061L86.288 33.8133C89.5752 29.1469 93.8775 25.3732 98.836 22.8067L99.016 23.1847C94.1138 25.7246 89.8609 29.458 86.612 34.0736V34.061ZM130.448 23.76C129.141 23.0239 127.789 22.38 126.4 21.8325L126.544 21.4377C127.946 21.9981 129.312 22.6546 130.632 23.403L130.448 23.76Z" fill="black"/>
<path d="M143.948 39.9738C140.244 31.909 133.726 25.6499 125.745 22.4939C117.765 19.338 108.933 19.5273 101.082 23.0226C93.2302 26.5178 86.961 33.051 83.5738 41.2678C80.1865 49.4845 79.941 58.7546 82.8881 67.1562C80.2161 68.1389 77.5761 69.1929 74.9521 70.2806C71.1681 71.8567 67.4187 73.5029 63.7041 75.219C59.9921 76.945 56.2961 78.7045 52.6361 80.5438C50.8001 81.4467 48.9881 82.3999 47.1601 83.3238C46.2091 83.7528 45.3475 84.3734 44.6241 85.1505C44.2326 85.5809 43.8878 86.0555 43.5961 86.5657C43.2401 87.1692 42.9705 87.8243 42.7961 88.51C42.4951 89.7458 42.6252 91.0538 43.163 92.1976C43.7008 93.3413 44.6106 94.2453 45.7281 94.7461C46.3486 95.0193 47.0033 95.1975 47.6721 95.2752C48.2369 95.3424 48.8072 95.3424 49.3721 95.2752C50.3986 95.1444 51.3906 94.8034 52.2921 94.2715C54.1041 93.3099 55.9281 92.3818 57.7281 91.395C61.3281 89.4675 64.9281 87.456 68.4841 85.4151C72.0401 83.3742 75.6001 81.2367 79.0721 79.0446C81.4721 77.5203 83.8961 75.9623 86.2721 74.333C90.8346 81.8946 97.9932 87.3236 106.265 89.495C114.536 91.6664 123.286 90.4138 130.702 85.9967C138.118 81.5796 143.63 74.3366 146.098 65.7686C148.565 57.2006 147.798 47.9643 143.956 39.9738H143.948ZM125.764 80.0903C121.116 82.4992 115.891 83.4069 110.751 82.6986C105.611 81.9904 100.787 79.698 96.8878 76.1113C92.9888 72.5247 90.1904 67.8048 88.8464 62.5485C87.5025 57.2923 87.6732 51.7356 89.3372 46.5813C91.0012 41.4269 94.0836 36.9062 98.1947 33.5909C102.306 30.2756 107.261 28.3145 112.434 27.9557C117.606 27.5968 122.764 28.8562 127.255 31.5747C131.746 34.2931 135.368 38.3486 137.664 43.2283C139.189 46.4689 140.09 49.9931 140.317 53.5995C140.544 57.206 140.092 60.824 138.987 64.2471C137.882 67.6702 136.146 70.8312 133.877 73.5496C131.608 76.268 128.851 78.4905 125.764 80.0903Z" fill="#FF725E"/>
<path opacity="0.3" d="M143.948 39.9738C140.244 31.909 133.726 25.6499 125.745 22.4939C117.765 19.338 108.933 19.5273 101.082 23.0226C93.2302 26.5178 86.961 33.051 83.5738 41.2678C80.1865 49.4845 79.941 58.7546 82.8881 67.1562C80.2161 68.1389 77.5761 69.1929 74.9521 70.2806C71.1681 71.8567 67.4187 73.5029 63.7041 75.219C59.9921 76.945 56.2961 78.7045 52.6361 80.5438C50.8001 81.4467 48.9881 82.3999 47.1601 83.3238C46.2091 83.7528 45.3475 84.3734 44.6241 85.1505C44.2326 85.5809 43.8878 86.0555 43.5961 86.5657C43.2401 87.1692 42.9705 87.8243 42.7961 88.51C42.4951 89.7458 42.6252 91.0538 43.163 92.1976C43.7008 93.3413 44.6106 94.2453 45.7281 94.7461C46.3486 95.0193 47.0033 95.1975 47.6721 95.2752C48.2369 95.3424 48.8072 95.3424 49.3721 95.2752C50.3986 95.1444 51.3906 94.8034 52.2921 94.2715C54.1041 93.3099 55.9281 92.3818 57.7281 91.395C61.3281 89.4675 64.9281 87.456 68.4841 85.4151C72.0401 83.3742 75.6001 81.2367 79.0721 79.0446C81.4721 77.5203 83.8961 75.9623 86.2721 74.333C90.8346 81.8946 97.9932 87.3236 106.265 89.495C114.536 91.6664 123.286 90.4138 130.702 85.9967C138.118 81.5796 143.63 74.3366 146.098 65.7686C148.565 57.2006 147.798 47.9643 143.956 39.9738H143.948ZM125.764 80.0903C121.116 82.4992 115.891 83.4069 110.751 82.6986C105.611 81.9904 100.787 79.698 96.8878 76.1113C92.9888 72.5247 90.1904 67.8048 88.8464 62.5485C87.5025 57.2923 87.6732 51.7356 89.3372 46.5813C91.0012 41.4269 94.0836 36.9062 98.1947 33.5909C102.306 30.2756 107.261 28.3145 112.434 27.9557C117.606 27.5968 122.764 28.8562 127.255 31.5747C131.746 34.2931 135.368 38.3486 137.664 43.2283C139.189 46.4689 140.09 49.9931 140.317 53.5995C140.544 57.206 140.092 60.824 138.987 64.2471C137.882 67.6702 136.146 70.8312 133.877 73.5496C131.608 76.268 128.851 78.4905 125.764 80.0903Z" fill="black"/>
<path d="M63.2 47.0329C63.2 47.2807 63.3239 47.4822 63.4799 47.4822C63.6359 47.4822 63.7599 47.2807 63.7599 47.0329C63.7599 46.7851 63.6359 46.5836 63.4799 46.5836C63.3239 46.5836 63.2 46.8019 63.2 47.0329Z" fill="#263238"/>
<path d="M63.312 47.4822C63.5951 48.2427 63.976 48.9591 64.444 49.6113C64.2822 49.7328 64.097 49.8157 63.9015 49.8541C63.7059 49.8926 63.5047 49.8856 63.312 49.8338V47.4822Z" fill="#DE5753"/>
<path d="M62.372 45.6513C62.3497 45.6513 62.3277 45.6461 62.3076 45.6359C62.2875 45.6257 62.2699 45.6109 62.256 45.5925C62.2352 45.5605 62.2269 45.5212 62.2328 45.4829C62.2388 45.4446 62.2586 45.4102 62.288 45.3868C62.4642 45.2465 62.67 45.153 62.888 45.1143C63.106 45.0755 63.3297 45.0927 63.54 45.1642C63.5589 45.1696 63.5765 45.1791 63.5917 45.1921C63.6069 45.2051 63.6193 45.2213 63.6281 45.2396C63.637 45.2579 63.6421 45.278 63.6431 45.2985C63.644 45.3191 63.6409 45.3396 63.6339 45.3588C63.6269 45.378 63.6161 45.3954 63.6022 45.4099C63.5884 45.4245 63.5718 45.4358 63.5535 45.4432C63.5353 45.4506 63.5157 45.4538 63.4962 45.4528C63.4766 45.4518 63.4575 45.4464 63.44 45.4372C63.273 45.3834 63.096 45.3725 62.9241 45.4053C62.7522 45.4382 62.5903 45.5139 62.452 45.6261C62.4283 45.6426 62.4005 45.6514 62.372 45.6513V45.6513Z" fill="#263238"/>
<path d="M55.1201 48.9016C55.5201 51.1567 55.9601 55.293 54.4561 56.8006C54.4561 56.8006 55.0441 59.0893 59.0401 59.0893C63.4401 59.0893 61.1361 56.8006 61.1361 56.8006C58.7361 56.1959 58.8041 54.3314 59.2201 52.5761L55.1201 48.9016Z" fill="#E4897B"/>
<path d="M52.6602 57.989C53.1362 57.2121 52.3362 55.3266 52.3362 55.3266C52.3362 55.3266 59.4082 53.4579 62.3002 56.3261C62.9002 56.9182 62.2362 57.7916 62.2362 57.7916L52.6602 57.989Z" fill="#FF725E"/>
<path opacity="0.1" d="M52.6602 57.989C53.1362 57.2121 52.3362 55.3266 52.3362 55.3266C52.3362 55.3266 59.4082 53.4579 62.3002 56.3261C62.9002 56.9182 62.2362 57.7916 62.2362 57.7916L52.6602 57.989Z" fill="black"/>
<path d="M40.9601 143.669C40.5881 143.669 39.9921 143.018 39.8161 142.774C39.8085 142.762 39.8044 142.748 39.8044 142.734C39.8044 142.72 39.8085 142.706 39.8161 142.694C39.8225 142.683 39.8319 142.673 39.8431 142.666C39.8544 142.66 39.8671 142.656 39.8801 142.657C39.9241 142.657 40.9041 142.749 41.1721 143.114C41.2012 143.153 41.222 143.198 41.2331 143.245C41.2441 143.293 41.2451 143.343 41.2361 143.391C41.2326 143.454 41.2107 143.514 41.1734 143.563C41.1362 143.612 41.0854 143.647 41.0281 143.664L40.9601 143.669ZM40.0321 142.829C40.3241 143.181 40.7921 143.58 40.9921 143.53C40.9921 143.53 41.0721 143.509 41.0961 143.375C41.1013 143.347 41.1004 143.318 41.0935 143.29C41.0866 143.262 41.0738 143.237 41.0561 143.215C40.7597 142.979 40.4032 142.842 40.0321 142.82V142.829Z" fill="#FF725E"/>
<path d="M40.076 142.82C40.0042 142.828 39.9318 142.828 39.86 142.82C39.8473 142.819 39.8353 142.814 39.8253 142.806C39.8153 142.798 39.8079 142.787 39.804 142.774C39.7983 142.762 39.7954 142.75 39.7954 142.736C39.7954 142.723 39.7983 142.71 39.804 142.699C39.832 142.673 40.42 142.031 40.864 142.031C40.9171 142.03 40.9699 142.04 41.0188 142.062C41.0678 142.084 41.1118 142.116 41.148 142.157C41.1878 142.192 41.215 142.24 41.2252 142.294C41.2354 142.347 41.2279 142.402 41.204 142.451C41.088 142.686 40.476 142.82 40.076 142.82ZM40.024 142.673C40.424 142.673 41.004 142.543 41.1 142.358C41.1 142.358 41.128 142.304 41.064 142.237C41.0407 142.21 41.0122 142.189 40.9804 142.175C40.9486 142.162 40.9143 142.155 40.88 142.157V142.157C40.5521 142.236 40.254 142.416 40.024 142.673V142.673Z" fill="#FF725E"/>
<path d="M67.3559 153.201C67.0527 153.199 66.7502 153.169 66.4519 153.113C66.437 153.11 66.4237 153.102 66.4142 153.089C66.4047 153.077 66.3996 153.062 66.3999 153.046C66.3976 153.031 66.3995 153.016 66.4051 153.003C66.4108 152.99 66.4201 152.978 66.4319 152.97C66.4759 152.945 67.4999 152.328 67.9919 152.471C68.0375 152.481 68.0805 152.502 68.1183 152.531C68.1562 152.56 68.188 152.596 68.2119 152.638C68.2432 152.685 68.26 152.741 68.26 152.798C68.26 152.855 68.2432 152.911 68.2119 152.958C68.0959 153.147 67.7319 153.201 67.3559 153.201ZM66.6799 153.004C67.2239 153.088 67.9679 153.084 68.1039 152.882C68.1239 152.857 68.1399 152.811 68.1039 152.722C68.0733 152.67 68.0245 152.633 67.9679 152.617C67.6559 152.533 67.0359 152.811 66.6799 153.004Z" fill="#FF725E"/>
<path d="M66.468 153.117C66.4549 153.121 66.4411 153.121 66.428 153.117C66.4169 153.11 66.4083 153.099 66.4033 153.086C66.3982 153.073 66.3971 153.059 66.4 153.046C66.4271 152.609 66.5869 152.192 66.856 151.857C66.9104 151.808 66.9743 151.772 67.0433 151.751C67.1124 151.73 67.1849 151.725 67.256 151.736C67.448 151.736 67.504 151.857 67.516 151.937C67.568 152.286 66.868 152.953 66.512 153.121L66.468 153.117ZM67.184 151.857C67.096 151.857 67.0107 151.89 66.944 151.95C66.7178 152.215 66.5777 152.549 66.544 152.903C66.904 152.672 67.384 152.151 67.344 151.941C67.344 151.941 67.344 151.87 67.208 151.857H67.184Z" fill="#FF725E"/>
<path d="M63.2361 153.042H66.1761L66.4681 145.899H63.5281L63.2361 153.042Z" fill="#E4897B"/>
<path d="M37.0559 140.78L39.5119 142.468L44.9359 137.659L42.4759 135.967L37.0559 140.78Z" fill="#E4897B"/>
<path d="M39.9161 142.308L37.3641 140.112C37.319 140.073 37.2624 140.052 37.2041 140.052C37.1457 140.052 37.0892 140.073 37.0441 140.112L34.9401 141.846C34.8892 141.889 34.8482 141.943 34.82 142.004C34.7918 142.065 34.7771 142.133 34.7771 142.201C34.7771 142.269 34.7918 142.337 34.82 142.398C34.8482 142.459 34.8892 142.513 34.9401 142.556C35.8441 143.308 36.3201 143.627 37.4441 144.593C38.1361 145.185 39.8441 146.999 40.8081 147.818C41.7721 148.637 42.6561 147.755 42.3361 147.331C40.9001 145.42 40.3361 143.786 40.1721 142.774C40.1437 142.591 40.0527 142.425 39.9161 142.308V142.308Z" fill="#263238"/>
<path d="M66.156 152.685H62.956C62.8976 152.685 62.841 152.706 62.7953 152.744C62.7496 152.782 62.7174 152.835 62.704 152.895L62.124 155.637C62.1094 155.703 62.1094 155.772 62.124 155.839C62.1386 155.905 62.1675 155.967 62.2083 156.02C62.2492 156.073 62.301 156.116 62.3598 156.145C62.4187 156.174 62.483 156.188 62.548 156.187C63.704 156.166 65.376 156.095 66.832 156.095C68.532 156.095 70.004 156.191 71.996 156.191C73.196 156.191 73.54 154.91 73.032 154.797C70.736 154.268 68.856 154.213 66.872 152.924C66.6591 152.776 66.4112 152.693 66.156 152.685V152.685Z" fill="#263238"/>
<path d="M48.6638 57.7203C46.1158 58.9801 44.6638 67.4208 44.6638 67.4208L50.8918 70.0286C51.8034 67.6917 52.5403 65.2838 53.0958 62.8267C53.9518 58.9381 51.2718 56.4185 48.6638 57.7203Z" fill="#263238"/>
<path d="M51.968 62.4781C50.428 64.1159 49.724 67.3242 49.416 69.4113L50.908 70.037C51.7937 67.7664 52.5158 65.4292 53.068 63.045C52.936 62.1548 52.608 61.7978 51.968 62.4781Z" fill="#203048"/>
<path d="M65.656 57.6615C65.656 57.6615 68.784 61.3737 65.832 84.3275H50.116C50.008 81.8078 51.524 69.4407 49.196 57.5061C50.9329 57.1526 52.69 56.9197 54.456 56.809C56.6808 56.6703 58.9113 56.6703 61.136 56.809C62.6614 56.9702 64.1726 57.2552 65.656 57.6615V57.6615Z" fill="#263238"/>
<path d="M67.0921 66.5725L64.4441 61.7811C63.9329 64.0167 63.7242 66.3167 63.8241 68.6134C63.8961 70.2596 65.3321 76.3571 66.6241 77.2473C66.9669 73.7008 67.1232 70.1371 67.0921 66.5725V66.5725Z" fill="#203048"/>
<path d="M67.46 60.9412C67.86 62.9821 68.26 65.0733 68.688 67.1226C69.116 69.1719 69.56 71.2296 70.076 73.2159C70.208 73.7072 70.332 74.2112 70.476 74.6815L70.584 75.0426L70.636 75.2232V75.2022C70.608 75.1644 70.576 75.1602 70.6 75.2022C70.7644 75.3907 70.9746 75.5286 71.208 75.6011C71.5862 75.7489 71.9756 75.8627 72.372 75.9413C74.2632 76.256 76.178 76.3867 78.092 76.3318L78.472 78.6163C77.936 78.7969 77.436 78.927 76.908 79.0572C76.38 79.1874 75.86 79.2966 75.328 79.3806C74.2274 79.573 73.1114 79.6517 71.996 79.6157C71.3761 79.5982 70.7595 79.5138 70.156 79.3638C69.3887 79.1876 68.6677 78.8363 68.044 78.3349C67.6367 77.9897 67.3006 77.561 67.056 77.0751C66.992 76.9491 66.936 76.8064 66.884 76.6846L66.812 76.4872L66.664 76.0673C66.46 75.534 66.292 75.009 66.108 74.4841C65.432 72.3844 64.868 70.2638 64.372 68.1473C63.876 66.0308 63.448 63.9185 63.092 61.7474L67.46 60.9412Z" fill="#E4897B"/>
<path d="M61.7322 59.9123C60.9042 62.7301 64.2602 71.133 64.2602 71.133L70.9442 69.3693C70.9442 69.3693 70.6882 65.002 69.1642 61.5375C66.8682 56.3135 62.7242 56.5318 61.7322 59.9123Z" fill="#263238"/>
<path d="M78.036 76.3318L81.364 76.2437L79.764 79.8803C79.764 79.8803 78.408 80.0693 77.296 78.1502L76.124 76.6804L77.472 76.399C77.6576 76.358 77.8464 76.3355 78.036 76.3318V76.3318Z" fill="#E4897B"/>
<path d="M83.4642 76.9198L81.5602 79.9349L79.7642 79.8803L81.3642 76.2437L83.4642 76.9198Z" fill="#E4897B"/>
<path d="M66.468 145.899L66.316 149.581H63.376L63.528 145.899H66.468Z" fill="#CE6F64"/>
<path d="M42.4759 135.967L44.9359 137.659L42.1359 140.137L39.6799 138.449L42.4759 135.967Z" fill="#CE6F64"/>
<path d="M55.3041 46.4995C55.4801 49.5525 55.4361 51.354 56.9041 52.9204C59.1121 55.2846 62.7081 53.8862 63.4041 50.8207C64.0321 48.0743 63.6401 43.539 60.7921 42.3212C60.1637 42.0549 59.4811 41.9606 58.8085 42.0471C58.1359 42.1336 57.4952 42.3981 56.9466 42.8158C56.398 43.2335 55.9595 43.7906 55.6722 44.435C55.3849 45.0793 55.2582 45.7897 55.3041 46.4995V46.4995Z" fill="#E4897B"/>
<path d="M51.88 45.962C52.604 48.7462 54.308 51.9545 56.512 52.1603C59.248 52.4123 60.484 49.4433 60.844 46.3778C62.484 45.1977 61.624 43.9001 63.268 43.7364C65.38 43.5264 64.704 39.4698 61.924 38.8189C61.924 38.8189 62.856 40.6456 60.9 39.7218C59.0398 38.7937 56.9732 38.4175 54.924 38.6341C54.924 38.6341 57.42 39.9443 54.98 40.528C52.54 41.1118 51.812 42.6907 52.936 43.644C52.936 43.6482 51.404 44.1311 51.88 45.962Z" fill="#263238"/>
<path d="M59.1759 47.0077C59.2296 47.7666 59.5207 48.4856 60.0039 49.0528C60.6439 49.7961 61.3119 49.3342 61.4239 48.4313C61.5279 47.6208 61.3159 46.256 60.5319 45.8445C59.7479 45.433 59.1239 46.0923 59.1759 47.0077Z" fill="#E4897B"/>
<path d="M60.256 84.3274C60.256 84.3274 63.12 106.101 60.864 114.827C57.288 128.643 43.616 140.305 43.616 140.305L38.98 137.113C38.98 137.113 50.624 127.266 52.048 115.697C53.328 105.312 50.116 92.7514 50.116 84.3232L60.256 84.3274Z" fill="#FF725E"/>
<path opacity="0.1" d="M60.256 84.3274C60.256 84.3274 63.12 106.101 60.864 114.827C57.288 128.643 43.616 140.305 43.616 140.305L38.98 137.113C38.98 137.113 50.624 127.266 52.048 115.697C53.328 105.312 50.116 92.7514 50.116 84.3232L60.256 84.3274Z" fill="black"/>
<path d="M61.4401 96.7744C60.6777 95.8574 59.8383 95.0141 58.9321 94.2548C59.4201 101.322 59.8201 111.791 59.3761 119.228C59.9731 117.803 60.4704 116.333 60.8641 114.832C61.9641 110.569 61.8481 103.208 61.4401 96.7744Z" fill="#FF725E"/>
<path opacity="0.3" d="M61.4401 96.7744C60.6777 95.8574 59.8383 95.0141 58.9321 94.2548C59.4201 101.322 59.8201 111.791 59.3761 119.228C59.9731 117.803 60.4704 116.333 60.8641 114.832C61.9641 110.569 61.8481 103.208 61.4401 96.7744Z" fill="black"/>
<path d="M45.484 139.217C45.504 139.217 43.688 140.477 43.688 140.477L38.624 136.992L40.224 135.602L45.484 139.217Z" fill="#FF725E"/>
<path opacity="0.3" d="M45.484 139.217C45.504 139.217 43.688 140.477 43.688 140.477L38.624 136.992L40.224 135.602L45.484 139.217Z" fill="black"/>
<path d="M65.832 84.3275C65.832 84.3275 70.256 104.022 70.568 113.433C70.92 123.982 67.412 148.867 67.412 148.867H62.432C62.432 148.867 61.82 123.789 61.6 114.181C61.356 103.703 55.5 84.3275 55.5 84.3275H65.832Z" fill="#FF725E"/>
<path opacity="0.1" d="M65.832 84.3275C65.832 84.3275 70.256 104.022 70.568 113.433C70.92 123.982 67.412 148.867 67.412 148.867H62.432C62.432 148.867 61.82 123.789 61.6 114.181C61.356 103.703 55.5 84.3275 55.5 84.3275H65.832Z" fill="black"/>
<path d="M68.3682 146.789C68.3922 146.789 68.0882 148.956 68.0882 148.956H62.0322L61.8682 147.02L68.3682 146.789Z" fill="#FF725E"/>
<path opacity="0.3" d="M68.3682 146.789C68.3922 146.789 68.0882 148.956 68.0882 148.956H62.0322L61.8682 147.02L68.3682 146.789Z" fill="black"/>
<path d="M142.4 65.4009C142.74 65.7368 143.008 66.0224 143.288 66.3415C143.568 66.6607 143.832 66.9714 144.088 67.2948C144.608 67.9373 145.096 68.6134 145.568 69.2937C146.511 70.6583 147.349 72.099 148.076 73.6022L148.224 73.9088C148.296 74.0572 148.356 74.2117 148.404 74.3707C148.501 74.678 148.56 74.9969 148.58 75.3198C148.606 75.8892 148.531 76.4587 148.36 76.9995C148.068 77.8979 147.634 78.7383 147.076 79.4856C146.071 80.8407 144.885 82.0372 143.556 83.0382L142.56 81.8372C143.028 81.2619 143.516 80.6446 143.952 80.0273C144.396 79.4292 144.797 78.7975 145.152 78.1376C145.484 77.5617 145.729 76.9357 145.88 76.2814C145.932 76.0474 145.941 75.8053 145.908 75.5675C145.894 75.4876 145.869 75.4099 145.836 75.3366C145.821 75.3044 145.804 75.2735 145.784 75.2442L145.656 75.0174C144.885 73.6969 144.047 72.4199 143.148 71.1918C142.704 70.5745 142.228 69.9824 141.748 69.3987C141.512 69.1047 141.268 68.8192 141.024 68.5336C140.78 68.2481 140.516 67.9625 140.304 67.7399L142.4 65.4009Z" fill="#E4897B"/>
<path d="M142.944 81.4845L139.956 80.9722L141.52 83.7186C141.52 83.7186 143.444 83.6472 143.992 82.4587L142.944 81.4845Z" fill="#E4897B"/>
<path d="M137.748 82.2404L139.172 84.4702L141.52 83.7186L139.956 80.9722L137.748 82.2404Z" fill="#E4897B"/>
<path d="M142.8 153.163C142.597 153.182 142.394 153.124 142.228 153C142.178 152.95 142.141 152.888 142.121 152.818C142.1 152.749 142.097 152.676 142.112 152.605C142.115 152.56 142.129 152.517 142.154 152.479C142.179 152.442 142.213 152.413 142.252 152.395C142.6 152.231 143.512 152.844 143.616 152.916C143.628 152.923 143.637 152.935 143.642 152.949C143.647 152.962 143.648 152.977 143.644 152.991C143.642 153.006 143.637 153.019 143.627 153.03C143.618 153.04 143.606 153.047 143.592 153.05C143.333 153.119 143.067 153.157 142.8 153.163V153.163ZM142.4 152.513C142.371 152.508 142.341 152.508 142.312 152.513C142.294 152.521 142.279 152.535 142.269 152.552C142.258 152.569 142.252 152.589 142.252 152.609C142.241 152.656 142.242 152.705 142.255 152.751C142.268 152.798 142.291 152.84 142.324 152.874C142.476 153.017 142.868 153.038 143.392 152.928C143.092 152.72 142.754 152.579 142.4 152.513V152.513Z" fill="#FF725E"/>
<path d="M143.6 153.046H143.564C143.28 152.874 142.732 152.206 142.8 151.841C142.813 151.783 142.843 151.731 142.887 151.694C142.93 151.656 142.984 151.634 143.04 151.631C143.094 151.623 143.149 151.627 143.201 151.645C143.253 151.662 143.301 151.692 143.34 151.731C143.668 152.034 143.672 152.941 143.672 152.991C143.671 153.004 143.668 153.016 143.661 153.027C143.655 153.038 143.646 153.048 143.636 153.054L143.6 153.046ZM143.088 151.786H143.056C142.968 151.786 142.948 151.836 142.94 151.874C142.9 152.088 143.24 152.601 143.524 152.84C143.531 152.488 143.435 152.142 143.248 151.849C143.224 151.826 143.196 151.808 143.165 151.797C143.133 151.786 143.101 151.782 143.068 151.786H143.088Z" fill="#FF725E"/>
<path d="M129.168 153.163C128.912 153.189 128.657 153.121 128.444 152.97C128.396 152.926 128.359 152.869 128.336 152.807C128.313 152.744 128.305 152.676 128.312 152.609C128.314 152.568 128.327 152.529 128.348 152.494C128.369 152.46 128.398 152.431 128.432 152.412C128.804 152.193 129.996 152.832 130.132 152.912C130.144 152.92 130.154 152.932 130.161 152.946C130.167 152.96 130.169 152.976 130.168 152.991C130.166 153.006 130.159 153.02 130.149 153.03C130.139 153.041 130.126 153.048 130.112 153.05C129.801 153.119 129.485 153.157 129.168 153.163V153.163ZM128.636 152.513C128.59 152.509 128.544 152.52 128.504 152.542C128.489 152.549 128.477 152.56 128.469 152.575C128.46 152.589 128.456 152.605 128.456 152.622C128.45 152.665 128.454 152.71 128.468 152.752C128.482 152.793 128.505 152.831 128.536 152.861C128.72 153.033 129.212 153.063 129.876 152.945C129.489 152.729 129.069 152.582 128.636 152.513V152.513Z" fill="#FF725E"/>
<path d="M130.1 153.046H130.068C129.712 152.878 129.004 152.206 129.06 151.841C129.06 151.757 129.132 151.652 129.328 151.631C129.4 151.623 129.472 151.63 129.541 151.652C129.61 151.675 129.673 151.712 129.728 151.761C130.104 152.088 130.176 152.937 130.176 152.974C130.178 152.987 130.176 153 130.171 153.012C130.166 153.024 130.158 153.034 130.148 153.042C130.133 153.048 130.116 153.05 130.1 153.046V153.046ZM129.384 151.786H129.34C129.212 151.786 129.204 151.853 129.2 151.87C129.168 152.084 129.648 152.618 130 152.848C129.965 152.49 129.826 152.151 129.6 151.878C129.539 151.824 129.464 151.792 129.384 151.786V151.786Z" fill="#FF725E"/>
<path d="M134.828 55.7466C134.712 57.6447 134.4 61.4997 135.788 62.5663C135.788 62.5663 135.536 64.5107 132.26 64.9642C128.66 65.4555 130.304 63.3222 130.304 63.3222C132.212 62.5579 131.968 61.0336 131.448 59.6394L134.828 55.7466Z" fill="#E4897B"/>
<path d="M127.376 52.3913C127.356 52.3913 127.337 52.3868 127.319 52.3781C127.301 52.3694 127.285 52.3567 127.272 52.3409C127.158 52.1984 127.013 52.0862 126.85 52.0133C126.686 51.9403 126.509 51.9087 126.332 51.921C126.313 51.9245 126.294 51.9241 126.276 51.9196C126.257 51.9152 126.24 51.9068 126.224 51.895C126.209 51.8832 126.196 51.8682 126.186 51.851C126.177 51.8339 126.17 51.8148 126.168 51.795C126.163 51.7555 126.174 51.7157 126.197 51.6843C126.22 51.6528 126.254 51.6322 126.292 51.627C126.518 51.607 126.745 51.6446 126.954 51.7368C127.163 51.8289 127.348 51.9728 127.492 52.1561C127.509 52.178 127.52 52.2046 127.524 52.2328C127.528 52.261 127.523 52.2898 127.512 52.3156C127.501 52.3415 127.483 52.3635 127.46 52.3792C127.438 52.3948 127.411 52.4033 127.384 52.4039L127.376 52.3913Z" fill="#263238"/>
<path d="M126.752 54.2516C126.61 54.854 126.391 55.4332 126.1 55.9734C126.234 56.0488 126.381 56.0925 126.533 56.1012C126.684 56.1099 126.836 56.0835 126.976 56.0238L126.752 54.2516Z" fill="#DE5753"/>
<path d="M126.912 53.7897C126.944 54.0417 126.844 54.26 126.688 54.2852C126.532 54.3104 126.376 54.1173 126.348 53.8653C126.32 53.6133 126.416 53.395 126.572 53.374C126.728 53.353 126.884 53.5209 126.912 53.7897Z" fill="#263238"/>
<path d="M126.644 53.3781L126.048 53.2816C126.048 53.2816 126.4 53.7141 126.644 53.3781Z" fill="#263238"/>
<path d="M133.396 152.979H130.396L130.196 145.693H133.196L133.396 152.979Z" fill="#E4897B"/>
<path d="M147.016 152.979H144.016L143.052 145.693H146.052L147.016 152.979Z" fill="#E4897B"/>
<path d="M143.832 152.626H147.2C147.257 152.625 147.313 152.647 147.356 152.686C147.4 152.726 147.428 152.78 147.436 152.84L147.836 155.641C147.843 155.712 147.836 155.783 147.815 155.851C147.795 155.918 147.76 155.981 147.715 156.033C147.67 156.086 147.614 156.128 147.552 156.157C147.491 156.185 147.424 156.2 147.356 156.2C146.184 156.179 145.616 156.107 144.136 156.107C143.224 156.107 141.892 156.204 140.636 156.204C139.38 156.204 139.312 154.898 139.836 154.78C142.184 154.251 142.556 153.52 143.344 152.819C143.481 152.699 143.653 152.631 143.832 152.626Z" fill="#263238"/>
<path d="M130.296 152.626H133.66C133.718 152.625 133.774 152.647 133.818 152.686C133.862 152.725 133.891 152.78 133.9 152.84L134.3 155.641C134.307 155.712 134.3 155.783 134.28 155.851C134.259 155.918 134.225 155.981 134.179 156.033C134.134 156.086 134.079 156.128 134.017 156.157C133.955 156.185 133.888 156.2 133.82 156.2C132.648 156.179 132.08 156.107 130.6 156.107C129.688 156.107 127.8 156.204 126.544 156.204C125.288 156.204 125.22 154.898 125.744 154.78C128.092 154.251 129.016 153.52 129.808 152.819C129.946 152.699 130.117 152.631 130.296 152.626Z" fill="#263238"/>
<path d="M130.196 145.693L130.3 149.451H133.3L133.196 145.693H130.196Z" fill="#CE6F64"/>
<path d="M146.052 145.693H143.052L143.552 149.451H146.548L146.052 145.693Z" fill="#CE6F64"/>
<path d="M134.868 51.816C135.072 54.9319 135.22 56.2463 133.932 58.0394C131.992 60.7312 128.304 60.3155 127.216 57.3255C126.236 54.6337 126.068 49.9934 128.796 48.3641C129.396 48.003 130.074 47.8089 130.766 47.8001C131.458 47.7914 132.14 47.9683 132.748 48.314C133.356 48.6598 133.87 49.163 134.241 49.7759C134.612 50.3888 134.828 51.091 134.868 51.816V51.816Z" fill="#E4897B"/>
<path d="M136.596 54.7093C138.26 55.6836 139.496 53.2815 139.496 53.2815C139.496 53.2815 136.512 53.6217 136.78 51.7572C137.132 49.2837 135.444 46.277 131.212 46.6633C130.976 46.6843 130.752 46.7137 130.532 46.7515C130.089 46.5311 129.588 46.4741 129.11 46.59C128.632 46.7058 128.206 46.9877 127.9 47.3898C126.7 47.4948 125.08 48.9982 126.18 50.9845C126.257 50.7563 126.377 50.5464 126.532 50.3672C126.624 51.5304 127.592 53.3781 128.8 53.4999C129.06 55.0915 128.052 56.935 128.4 58.5979C128.916 60.9958 132.768 61.5375 132.768 61.5375C132.635 61.238 132.586 60.9053 132.625 60.5776C132.665 60.2499 132.792 59.9406 132.992 59.6856C135.608 60.9454 137.332 59.715 137.332 59.715C135.548 59.0179 136.088 57.7749 136.088 57.7749C136.704 58.062 137.402 58.0872 138.035 57.8452C138.668 57.6032 139.188 57.1129 139.484 56.4772C138.891 56.5068 138.303 56.3556 137.791 56.0418C137.278 55.7281 136.863 55.2653 136.596 54.7093V54.7093Z" fill="#263238"/>
<path d="M129.844 53.9786C129.851 54.2777 129.802 54.5752 129.699 54.8542C129.596 55.1331 129.441 55.3879 129.244 55.6038C128.716 56.1791 128.068 55.776 127.892 55.0411C127.736 54.3776 127.824 53.2816 128.512 52.9792C128.663 52.9167 128.827 52.895 128.989 52.916C129.15 52.9369 129.304 52.9999 129.436 53.0992C129.569 53.1985 129.675 53.331 129.747 53.4846C129.818 53.6382 129.851 53.808 129.844 53.9786V53.9786Z" fill="#E4897B"/>
<path d="M132.336 83.0088C132.336 83.0088 133.096 103.737 134.904 115.907C136.36 125.742 142.828 148.721 142.828 148.721H146.916C146.916 148.721 143.544 126.527 142.804 116.805C140.932 92.2013 145.792 86.9185 141.204 81.7952L132.336 83.0088Z" fill="#263238"/>
<path d="M135.752 89.564C135.752 89.564 133.904 89.2281 132.824 92.9235C133.224 99.9239 133.908 109.213 134.904 115.907C135.124 117.397 135.46 119.195 135.872 121.164C135.092 109.339 135.752 89.564 135.752 89.564Z" fill="#161F33"/>
<path d="M129.148 83.4456C129.148 83.4456 125.78 106.378 125.976 115.974C126.18 125.956 129.664 148.729 129.664 148.729H133.716C133.716 148.729 133.076 126.548 133.432 116.747C133.832 106.059 137.988 82.2404 137.988 82.2404L129.148 83.4456Z" fill="#263238"/>
<path d="M147.508 148.922H142.072L141.648 147.007L147.468 147.049L147.508 148.922Z" fill="#FF725E"/>
<path opacity="0.2" d="M147.508 148.922H142.072L141.648 147.007L147.468 147.049L147.508 148.922Z" fill="black"/>
<path d="M141 62.5705C142.564 62.7301 144.94 67.3956 144.94 67.3956L140.992 70.5745C140.992 70.5745 137.724 67.5636 138.112 65.8712C138.516 64.1117 139.5 62.4236 141 62.5705Z" fill="#FF725E"/>
<path opacity="0.1" d="M141 62.5705C142.564 62.7301 144.94 67.3956 144.94 67.3956L140.992 70.5745C140.992 70.5745 137.724 67.5636 138.112 65.8712C138.516 64.1117 139.5 62.4236 141 62.5705Z" fill="black"/>
<path d="M139.82 64.5778C139.421 64.4651 139.008 64.4169 138.596 64.4351C138.386 64.8942 138.224 65.3757 138.112 65.8713C137.712 67.551 140.992 70.5745 140.992 70.5745L141.284 70.3394L139.82 64.5778Z" fill="#FF725E"/>
<path opacity="0.3" d="M139.82 64.5778C139.421 64.4651 139.008 64.4169 138.596 64.4351C138.386 64.8942 138.224 65.3757 138.112 65.8713C137.712 67.551 140.992 70.5745 140.992 70.5745L141.284 70.3394L139.82 64.5778Z" fill="black"/>
<path d="M127.808 69.0586C126.668 72.0863 125.468 75.1645 124.512 78.2006C124.448 78.3938 124.396 78.5785 124.34 78.7675L124.204 79.2336C124.167 79.3709 124.167 79.5163 124.204 79.6536C124.43 80.1786 124.788 80.6288 125.24 80.9554C126.436 81.8562 127.739 82.5889 129.116 83.1348L128.756 84.6802C127.062 84.4457 125.424 83.8848 123.924 83.0257C123.001 82.508 122.249 81.7085 121.768 80.7328C121.492 80.1092 121.396 79.4142 121.492 78.7339C121.501 78.6506 121.514 78.5679 121.532 78.4861L121.572 78.3098L121.64 77.9906C121.688 77.7765 121.736 77.5707 121.788 77.3607C122.188 75.681 122.7 74.0852 123.24 72.5021C123.78 70.9189 124.344 69.3567 124.98 67.7988L127.808 69.0586Z" fill="#E4897B"/>
<path d="M125.38 64.8088C125.38 64.8088 124.028 65.5269 129.148 83.4456L141.22 81.7911C140.372 76.6594 139.972 73.4805 141 62.5706C139.269 62.4404 137.531 62.4404 135.8 62.5706C133.957 62.6831 132.124 62.9357 130.316 63.3265C128 63.8682 125.38 64.8088 125.38 64.8088Z" fill="#FF725E"/>
<path opacity="0.1" d="M125.38 64.8088C125.38 64.8088 124.028 65.5269 129.148 83.4456L141.22 81.7911C140.372 76.6594 139.972 73.4805 141 62.5706C139.269 62.4404 137.531 62.4404 135.8 62.5706C133.957 62.6831 132.124 62.9357 130.316 63.3265C128 63.8682 125.38 64.8088 125.38 64.8088Z" fill="black"/>
<path d="M141.308 81.0226L142 82.0766C142.052 82.1606 141.964 82.2614 141.828 82.2824L129.168 84.0209C129.06 84.0209 128.96 83.9915 128.944 83.9201L128.696 82.7989C128.676 82.7233 128.764 82.6435 128.884 82.6267L141.108 80.947C141.145 80.9408 141.182 80.9445 141.217 80.9577C141.252 80.971 141.283 80.9933 141.308 81.0226Z" fill="#FF725E"/>
<path opacity="0.2" d="M141.308 81.0226L142 82.0766C142.052 82.1606 141.964 82.2614 141.828 82.2824L129.168 84.0209C129.06 84.0209 128.96 83.9915 128.944 83.9201L128.696 82.7989C128.676 82.7233 128.764 82.6435 128.884 82.6267L141.108 80.947C141.145 80.9408 141.182 80.9445 141.217 80.9577C141.252 80.971 141.283 80.9933 141.308 81.0226Z" fill="black"/>
<path d="M139.844 82.6813L140.172 82.6352C140.236 82.6352 140.28 82.5848 140.272 82.5428L139.936 81.0898C139.923 81.065 139.903 81.0456 139.878 81.0349C139.853 81.0242 139.825 81.0228 139.8 81.031L139.472 81.073C139.404 81.073 139.36 81.1234 139.372 81.1696L139.708 82.6184C139.716 82.6645 139.78 82.6897 139.844 82.6813Z" fill="#263238"/>
<path d="M131.908 83.7563L132.236 83.7102C132.3 83.7102 132.348 83.6598 132.336 83.6178L132 82.1648C131.987 82.1403 131.966 82.1209 131.942 82.1095C131.917 82.0982 131.89 82.0955 131.864 82.1018L131.536 82.148C131.472 82.148 131.424 82.1984 131.436 82.2404L131.772 83.6934C131.78 83.7564 131.844 83.7815 131.908 83.7563Z" fill="#263238"/>
<path d="M125.944 70.8895C126.276 72.5104 126.744 74.5639 127.428 77.1633L127.576 70.5745L125.944 70.8895Z" fill="#FF725E"/>
<path opacity="0.3" d="M125.944 70.8895C126.276 72.5104 126.744 74.5639 127.428 77.1633L127.576 70.5745L125.944 70.8895Z" fill="black"/>
<path d="M125.38 64.8088C123.88 65.443 122.58 70.8307 122.58 70.8307L127.74 73.4679C127.74 73.4679 130.232 66.8791 129.116 65.5941C128 64.3091 127.108 64.0824 125.38 64.8088Z" fill="#FF725E"/>
<path opacity="0.1" d="M125.38 64.8088C123.88 65.443 122.58 70.8307 122.58 70.8307L127.74 73.4679C127.74 73.4679 130.232 66.8791 129.116 65.5941C128 64.3091 127.108 64.0824 125.38 64.8088Z" fill="black"/>
<path d="M134.408 148.922H128.972L128.548 147.007L134.6 147.049L134.408 148.922Z" fill="#FF725E"/>
<path opacity="0.2" d="M134.408 148.922H128.972L128.548 147.007L134.6 147.049L134.408 148.922Z" fill="black"/>
<path d="M129.2 82.6141L128.764 82.4251C128.657 82.3794 128.54 82.3642 128.425 82.3811C128.311 82.3981 128.203 82.4465 128.112 82.5216C128.021 82.5966 127.95 82.6956 127.907 82.8084C127.865 82.9213 127.851 83.0441 127.868 83.1642L128.184 85.3521C128.199 85.4616 128.237 85.5662 128.296 85.6583C128.354 85.7505 128.431 85.8279 128.521 85.8849C128.612 85.942 128.713 85.9773 128.818 85.9882C128.923 85.9992 129.029 85.9856 129.128 85.9484C129.287 85.8879 129.435 85.8014 129.568 85.6922C129.713 85.5663 129.827 85.4064 129.902 85.2255C129.977 85.0446 130.011 84.8478 130 84.6508L129.956 83.7437C129.948 83.4986 129.873 83.2612 129.738 83.0605C129.604 82.8599 129.417 82.7047 129.2 82.6141Z" fill="#E4897B"/>
</svg>
