<svg width="200" height="160" viewBox="0 0 200 160" fill="none" xmlns="http://www.w3.org/2000/svg">
<path d="M39.4744 152.566C48.9092 146.573 51.0527 135.448 50.6771 125.444C50.613 123.779 50.8145 122.017 49.9443 120.551C49.0741 119.085 47.0314 118.085 45.3643 118.789C43.9903 119.372 43.4086 120.817 42.6437 122.009C41.6271 123.603 40.1343 124.903 38.3385 125.757C37.1706 126.307 35.7279 126.644 34.5737 126.065C32.989 125.274 32.8013 123.283 32.815 121.621C32.8333 118.528 32.8532 115.434 32.8745 112.338C32.8745 110.672 32.8745 108.985 32.3249 107.407C31.7753 105.828 30.4929 104.371 28.7662 103.925C27.0396 103.479 24.8824 104.396 24.516 106.007C24.3603 106.682 24.516 107.386 24.461 108.09C24.4061 108.794 24.058 109.543 23.3389 109.756C22.6198 109.968 21.8779 109.481 21.3328 108.993C19.4505 107.328 18.1726 105.158 16.9772 103.009C15.7818 100.86 14.6231 98.6647 12.9102 96.8364C11.1972 95.008 8.83394 93.5586 6.22332 93.4254C3.6127 93.2921 0.818877 94.7581 0.159352 97.0904C-0.500173 99.4227 0.997499 101.805 2.63257 103.7C5.07182 106.502 7.94428 108.968 11.1606 111.022C11.7331 111.397 12.3606 111.796 12.5804 112.413C12.9743 113.516 11.8201 114.616 10.6202 114.982C9.24614 115.399 7.78511 115.266 6.36072 115.399C4.93633 115.532 3.37454 116.161 2.83867 117.365C2.08755 119.076 3.64934 120.838 5.20655 121.992C8.28358 124.322 11.7788 126.154 15.5391 127.406C16.8856 127.856 18.2871 128.239 19.3818 129.105C20.4764 129.972 18.7818 132.999 18.1268 134.17C17.4719 135.34 18.1268 134.17 16.7208 133.932C15.3147 133.695 14.0552 132.999 12.7132 132.541C10.2079 131.679 6.96528 131.837 5.35769 133.791C4.30428 135.086 4.2081 136.894 4.74397 138.439C5.27983 139.984 6.36072 141.312 7.49199 142.541C11.5133 146.831 16.6521 150.283 22.4824 152.12C28.3128 153.957 33.6944 154.452 39.4789 152.537" fill="#EBEBEB"/>
<path d="M39.6209 159.979C39.109 155.343 38.1106 150.761 36.6393 146.298C34.8124 140.85 32.644 135.502 30.1448 130.28L28.2029 126.157C27.5616 124.807 26.9296 123.466 26.2197 122.192C24.857 119.748 23.3464 117.374 21.6946 115.082C20.1283 112.883 18.5573 110.847 17.0734 108.952C15.5894 107.057 14.1559 105.324 12.7819 103.787C10.6213 101.359 8.2521 99.0903 5.69657 97.0029C4.78057 96.2616 4.07524 95.7076 3.58518 95.337L3.02183 94.9205C2.96028 94.8682 2.89272 94.8221 2.82031 94.7831C2.87317 94.8417 2.93309 94.8948 2.99893 94.9413L3.53938 95.3828C3.99738 95.7659 4.72103 96.3324 5.60955 97.0862C8.11764 99.2071 10.4492 101.494 12.5849 103.929C13.959 105.47 15.333 107.211 16.8306 109.106C18.3283 111.001 19.8672 113.042 21.4107 115.241C23.0537 117.524 24.5582 119.888 25.9174 122.321C26.6227 123.57 27.2502 124.916 27.8868 126.273L29.8242 130.388C32.3269 135.602 34.5059 140.94 36.3507 146.377C37.8316 150.821 38.8498 155.382 39.3919 160" fill="#E0E0E0"/>
<path d="M26.124 122.183C26.2129 121.954 26.2728 121.717 26.3026 121.475C26.3988 121.017 26.5133 120.351 26.6415 119.522C26.898 117.856 27.1682 115.574 27.4568 113.046C27.7453 110.518 28.0522 108.248 28.3362 106.582C28.4781 105.749 28.5972 105.095 28.6888 104.633C28.7521 104.397 28.7859 104.155 28.7896 103.912C28.6872 104.136 28.6105 104.37 28.5606 104.608C28.4323 105.062 28.272 105.724 28.1026 106.545C27.7591 108.185 27.411 110.476 27.127 113.008C26.8431 115.541 26.5957 117.769 26.4034 119.493C26.3118 120.272 26.2339 120.926 26.1744 121.455C26.1277 121.695 26.1108 121.939 26.124 122.183Z" fill="#E0E0E0"/>
<path d="M2.6499 118.194C2.95106 118.254 3.2577 118.289 3.56591 118.298C4.17047 118.343 5.04068 118.41 6.11699 118.527C8.26502 118.735 11.2237 119.122 14.4664 119.676C17.709 120.23 20.6219 120.859 22.7104 121.367C23.7593 121.613 24.602 121.829 25.1837 121.979C25.4812 122.074 25.7879 122.142 26.0997 122.183C25.8185 122.051 25.524 121.944 25.2203 121.863C24.6478 121.679 23.8142 121.446 22.7746 121.155C20.6906 120.592 17.7777 119.939 14.5305 119.372C11.2833 118.806 8.30166 118.464 6.13989 118.306C5.059 118.223 4.17963 118.189 3.57507 118.177C3.26675 118.157 2.95713 118.163 2.6499 118.194Z" fill="#E0E0E0"/>
<path d="M36.3501 145.902C36.3501 145.902 36.4188 145.819 36.515 145.644L36.9134 144.869C37.2615 144.199 37.7333 143.203 38.2875 141.991C39.4187 139.546 40.866 136.123 42.4095 132.329C43.9529 128.535 45.3636 125.099 46.4353 122.637L47.7177 119.722C47.8551 119.405 47.9696 119.143 48.0612 118.926C48.1085 118.837 48.1424 118.741 48.162 118.643C48.0967 118.723 48.0428 118.81 48.0017 118.901L47.5986 119.672C47.2551 120.347 46.7834 121.338 46.2246 122.554C45.0934 124.999 43.6461 128.422 42.1026 132.221C40.5591 136.019 39.1531 139.447 38.0768 141.908C37.5501 143.107 37.1195 144.09 36.7944 144.823C36.657 145.14 36.5425 145.402 36.4509 145.619C36.4063 145.71 36.3725 145.805 36.3501 145.902Z" fill="#E0E0E0"/>
<path d="M5.15625 136.76C5.25326 136.813 5.35819 136.852 5.46769 136.877L6.3837 137.156L9.72713 138.139C12.5438 138.972 16.4277 140.159 20.7192 141.471C25.0107 142.783 28.8992 143.949 31.7434 144.728C33.1632 145.119 34.3128 145.423 35.1143 145.619L36.0303 145.84C36.135 145.872 36.2447 145.891 36.3555 145.894C36.2592 145.843 36.1561 145.804 36.0486 145.777L35.1326 145.502L31.7937 144.519C28.9724 143.686 25.0931 142.499 20.8017 141.187C16.5102 139.876 12.6217 138.709 9.78667 137.931C8.36685 137.539 7.21269 137.235 6.41118 137.039L5.49517 136.819C5.38488 136.788 5.27123 136.768 5.15625 136.76Z" fill="#E0E0E0"/>
<path d="M155.064 6.78452L129.856 62.7639L175.111 79.2899L199.935 23.677L155.064 6.78452Z" fill="#E6E6E6"/>
<path d="M155.065 6.78452L199.95 23.6312H200L199.977 23.677C193.006 39.3035 184.433 58.5324 175.167 79.2982L175.144 79.3524H175.08L174.75 79.2316L129.829 62.818H129.774L129.797 62.7681L155.065 6.78452L129.912 62.7847L129.88 62.7139L174.805 79.115L175.135 79.2358L175.048 79.2691C184.323 58.5075 192.91 39.2868 199.886 23.6562L199.913 23.7187L155.065 6.78452Z" fill="#E6E6E6"/>
<path d="M151.763 1.44101L126.555 57.4204L171.81 73.9506L196.634 18.3335L151.763 1.44101Z" fill="#FAFAFA"/>
<path d="M151.768 1.44101L196.652 18.2877H196.702V18.3335L171.869 73.9713L171.846 74.0296L171.787 74.0046L171.457 73.8839L126.532 57.4745L126.477 57.4537L126.499 57.3995L151.768 1.44101L126.609 57.437L126.577 57.3662L171.503 73.7714L171.833 73.888L171.75 73.9213C181.02 53.1597 189.612 33.9391 196.583 18.3085L196.611 18.3752L151.768 1.44101Z" fill="#EBEBEB"/>
<path d="M185.83 26.8423C185.789 26.9381 177.943 24.2435 168.307 20.8242C158.67 17.4049 150.902 14.577 150.925 14.4729C150.948 14.3688 158.812 17.0717 168.449 20.491C178.085 23.9103 185.871 26.7507 185.83 26.8423Z" fill="#E0E0E0"/>
<path d="M184.097 31.965C184.056 32.0566 176.211 29.362 166.574 25.9469C156.938 22.5318 149.17 19.6997 149.193 19.5915C149.216 19.4832 157.08 22.1944 166.716 25.6137C176.353 29.033 184.134 31.8734 184.097 31.965Z" fill="#E0E0E0"/>
<path d="M178.245 47.4833C178.209 47.5749 170.358 44.8802 160.722 41.4651C151.086 38.0499 143.318 35.2178 143.345 35.1095C143.373 35.0012 151.228 37.7125 160.869 41.1277C170.509 44.5429 178.286 47.3916 178.245 47.4833Z" fill="#E0E0E0"/>
<path d="M175.483 52.7267C175.447 52.8183 167.597 50.1237 157.96 46.7085C148.324 43.2934 140.556 40.4613 140.584 40.353C140.611 40.2447 148.466 42.9518 158.107 46.3712C167.748 49.7905 175.525 52.6309 175.483 52.7267Z" fill="#E0E0E0"/>
<path d="M173.189 58.0202C173.148 58.1118 165.302 55.4172 155.666 52.002C146.029 48.5868 138.262 45.7547 138.289 45.6464C138.317 45.5382 146.171 48.2495 155.812 51.6646C165.453 55.0798 173.23 57.9286 173.189 58.0202Z" fill="#E0E0E0"/>
<path d="M170.894 63.3137C170.853 63.4053 163.007 60.7106 153.371 57.2955C143.734 53.8803 135.967 51.0482 135.994 50.9399C136.022 50.8316 143.876 53.543 153.517 56.9581C163.158 60.3733 170.935 63.222 170.894 63.3137Z" fill="#E0E0E0"/>
<path d="M156.989 21.3823C156.874 21.5989 156.407 22.5818 156.407 22.5818L175.501 29.6246L176.083 28.1336L156.989 21.3823Z" fill="#EBEBEB"/>
<path d="M147.375 23.5605C147.256 23.7771 146.555 25.1098 146.555 25.1098L182.348 37.5041L183.228 35.8049L147.375 23.5605Z" fill="#EBEBEB"/>
<path d="M145.296 28.833L144.48 30.3657L180.269 42.7602L181.148 41.061L145.296 28.833Z" fill="#EBEBEB"/>
<path d="M143.496 34.3639C143.46 34.4431 142.855 36.0298 142.855 36.0298L160.767 42.2771L161.775 40.3654L143.496 34.3639Z" fill="#EBEBEB"/>
<path d="M190.295 159.325C190.295 159.388 147.774 159.433 95.3415 159.433C42.9093 159.433 0.374512 159.388 0.374512 159.325C0.374512 159.263 42.8864 159.217 95.3415 159.217C147.797 159.217 190.295 159.267 190.295 159.325Z" fill="#263238"/>
<path d="M29.453 4.87283C28.8392 23.702 27.0393 94.4789 26.563 113.362C26.5309 114.6 27.0388 115.8 27.9758 116.699C28.9129 117.598 30.2029 118.123 31.5644 118.16L116.863 120.53C117.543 120.549 118.221 120.445 118.858 120.224C119.494 120.004 120.076 119.671 120.57 119.246C121.064 118.82 121.461 118.309 121.737 117.743C122.014 117.177 122.164 116.567 122.18 115.949L123.509 61.2478L130.731 61.1395C131.586 61.1266 132.401 60.8114 133.004 60.2608C133.606 59.7103 133.95 58.9677 133.96 58.1908L134.514 14.1229C134.523 13.3345 134.188 12.5749 133.583 12.01C132.978 11.4451 132.152 11.1207 131.285 11.1076L124.745 10.9909L124.796 6.73033C124.81 5.49848 124.289 4.31125 123.345 3.42737C122.402 2.54349 121.112 2.0346 119.757 2.01159L34.665 0.345668C33.3162 0.325424 32.0128 0.789199 31.0373 1.63654C30.0617 2.48389 29.4925 3.64659 29.453 4.87283Z" fill="#FF725E"/>
<path opacity="0.4" d="M29.453 4.87283C28.8392 23.702 27.0393 94.4789 26.563 113.362C26.5309 114.6 27.0388 115.8 27.9758 116.699C28.9129 117.598 30.2029 118.123 31.5644 118.16L116.863 120.53C117.543 120.549 118.221 120.445 118.858 120.224C119.494 120.004 120.076 119.671 120.57 119.246C121.064 118.82 121.461 118.309 121.737 117.743C122.014 117.177 122.164 116.567 122.18 115.949L123.509 61.2478L130.731 61.1395C131.586 61.1266 132.401 60.8114 133.004 60.2608C133.606 59.7103 133.95 58.9677 133.96 58.1908L134.514 14.1229C134.523 13.3345 134.188 12.5749 133.583 12.01C132.978 11.4451 132.152 11.1207 131.285 11.1076L124.745 10.9909L124.796 6.73033C124.81 5.49848 124.289 4.31125 123.345 3.42737C122.402 2.54349 121.112 2.0346 119.757 2.01159L34.665 0.345668C33.3162 0.325424 32.0128 0.789199 31.0373 1.63654C30.0617 2.48389 29.4925 3.64659 29.453 4.87283Z" fill="black"/>
<path d="M35.9342 5.68094L28.4092 114.662L116.305 119.139L123.399 10.9786L35.9342 5.68094Z" fill="#E0E0E0"/>
<path d="M25.3677 3.3152L25.9539 112.513L113.982 111.58L113.03 3.2319L25.3677 3.3152Z" fill="#EBEBEB"/>
<path d="M13.8442 10.8286L30.4606 118.977L117.564 107.365L100.709 0.104187L13.8442 10.8286Z" fill="#FAFAFA"/>
<path d="M13.8442 10.8285L100.695 0H100.792V0.0874608C105.532 30.2199 111.367 67.2993 117.664 107.344V107.452H117.545L116.913 107.536L30.4743 119.076H30.3644V118.976C20.5998 54.9923 13.9908 11.6782 13.8763 10.816L30.598 118.951L30.4743 118.864L116.941 107.332L117.577 107.244L117.477 107.369C111.193 67.3202 105.372 30.2408 100.645 0.104121L100.755 0.179087L13.8442 10.8285Z" fill="#263238"/>
<path d="M95.2361 35.8884C95.2681 36.0675 80.3372 38.3456 61.8888 40.9819C43.4405 43.6182 28.4546 45.6047 28.4546 45.4298C28.4546 45.2549 43.3534 42.9726 61.8018 40.3363C80.2502 37.7001 95.204 35.7135 95.2361 35.8884Z" fill="#263238"/>
<path d="M101.616 64.9338C101.644 65.1087 86.713 67.391 68.2692 70.0231C49.8254 72.6553 34.835 74.6502 34.835 74.4711C34.835 74.292 49.7292 72.0139 68.1822 69.3817C86.6352 66.7496 101.584 64.7505 101.616 64.9338Z" fill="#263238"/>
<path d="M102.546 75.3875C102.573 75.5666 87.6422 77.8447 69.1984 80.4769C50.7546 83.109 35.7642 85.1039 35.7642 84.9248C35.7642 84.7457 50.6584 82.4676 69.1114 79.8355C87.5644 77.2034 102.514 75.2085 102.546 75.3875Z" fill="#263238"/>
<path d="M91.8478 12.9443C91.8478 13.1067 81.8267 14.5269 69.4514 16.1178C57.0762 17.7087 47.0093 18.8665 47.0093 18.7041C47.0093 18.5417 57.0304 17.1173 69.4102 15.5306C81.7901 13.9438 91.8387 12.7818 91.8478 12.9443Z" fill="#263238"/>
<path d="M93.2619 18.7334C93.2619 18.8958 83.2408 20.3202 70.8655 21.9069C58.4903 23.4937 48.4233 24.6557 48.4233 24.4932C48.4233 24.3308 58.4399 22.9106 70.8197 21.3197C83.1995 19.7288 93.2573 18.571 93.2619 18.7334Z" fill="#263238"/>
<path d="M94.9745 24.8431C94.9745 25.0097 84.9534 26.4299 72.5736 28.0209C60.1937 29.6119 50.1589 30.7655 50.1314 30.6031C50.1039 30.4407 60.1663 29.0204 72.5324 27.4503C84.8985 25.8801 94.9745 24.6807 94.9745 24.8431Z" fill="#263238"/>
<path d="M104.254 85.5414C104.286 85.7163 89.3553 87.9986 70.9069 90.6307C52.4585 93.2628 37.4727 95.2577 37.4727 95.0786C37.4727 94.8995 52.3715 92.6214 70.8199 89.9893C89.2683 87.3572 104.222 85.3623 104.254 85.5414Z" fill="#263238"/>
<path d="M105.967 95.6952C105.999 95.8701 91.0677 98.1524 72.6239 100.785C54.1801 103.417 39.1896 105.412 39.1621 105.233C39.1347 105.054 54.061 102.775 72.514 100.143C90.9669 97.511 105.934 95.5161 105.967 95.6952Z" fill="#263238"/>
<path d="M42.3774 41.7773C42.4141 42.1938 42.666 44.1346 42.666 44.1346L79.4849 39.3367L78.9124 36.5338L42.3774 41.7773Z" fill="#FF725E"/>
<path d="M29.5532 53.1223C29.5944 53.5388 29.828 56.2167 29.828 56.2167L98.0385 45.9755L97.7133 42.6021L29.5532 53.1223Z" fill="#FF725E"/>
<path d="M31.583 63.0595C31.6242 63.476 31.8578 66.1582 31.8578 66.1582L100.068 55.9169L99.7431 52.5392L31.583 63.0595Z" fill="#FF725E"/>
<path d="M34.3076 73.1758C34.3076 73.3299 34.9763 76.3203 34.9763 76.3203L69.1571 71.2642L68.8182 67.445L34.3076 73.1758Z" fill="#FF725E"/>
<path d="M24.3774 18.1129L27.4369 38.1873L47.5387 35.626L44.7998 15.614L24.3774 18.1129Z" fill="#263238"/>
<path d="M24.3774 18.1129L27.4369 38.1873L47.5387 35.626L44.7998 15.614L24.3774 18.1129Z" fill="#FF725E"/>
<path d="M34.3999 34.7387L40.473 33.2477C40.3768 32.5855 39.8043 30.07 39.8043 30.07C39.8043 30.07 42.2913 29.2745 41.8424 26.9422C41.3936 24.6099 39.8593 19.3456 39.8593 19.3456C38.2914 19.0279 36.6587 19.0958 35.1292 19.5423C33.5998 19.9889 32.2287 20.7979 31.1572 21.8861L30.832 22.2152L34.3999 34.7387Z" fill="#FFBE9D"/>
<path d="M40.0741 23.4438C40.027 23.4226 39.9853 23.3926 39.9518 23.3558C39.9182 23.319 39.8935 23.2763 39.8793 23.2303C39.865 23.1843 39.8616 23.1361 39.8691 23.0888C39.8767 23.0415 39.8951 22.9961 39.9231 22.9557C39.9511 22.9153 39.9882 22.8806 40.0319 22.8541C40.0756 22.8275 40.1249 22.8095 40.1767 22.8014C40.2285 22.7932 40.2816 22.795 40.3326 22.8067C40.3835 22.8184 40.4312 22.8397 40.4726 22.8692C40.5152 22.8922 40.5524 22.9228 40.5818 22.9591C40.6112 22.9955 40.6323 23.0368 40.6438 23.0807C40.6553 23.1245 40.6571 23.1701 40.6489 23.2145C40.6407 23.259 40.6228 23.3016 40.5963 23.3397C40.5418 23.416 40.4565 23.4698 40.3587 23.4892C40.261 23.5087 40.1587 23.4924 40.0741 23.4438Z" fill="#263238"/>
<path d="M40.5868 22.8066C40.5547 22.8566 40.2662 22.7233 39.9135 22.7817C39.5609 22.84 39.341 23.0482 39.2952 23.0149C39.2494 22.9815 39.2952 22.9191 39.3914 22.8233C39.5196 22.6972 39.6905 22.6136 39.8769 22.5859C40.0622 22.5581 40.2525 22.5829 40.4219 22.6567C40.5502 22.7192 40.6005 22.7858 40.5868 22.8066Z" fill="#263238"/>
<path d="M36.5847 23.7771C36.6311 23.7928 36.6737 23.8167 36.7099 23.8475C36.7461 23.8782 36.7752 23.9152 36.7957 23.9562C36.8161 23.9972 36.8274 24.0415 36.8289 24.0865C36.8305 24.1316 36.8222 24.1764 36.8046 24.2185C36.7868 24.2606 36.7601 24.2991 36.726 24.3319C36.6919 24.3646 36.651 24.3909 36.6057 24.4093C36.5604 24.4276 36.5116 24.4377 36.462 24.4389C36.4124 24.4401 36.3631 24.4325 36.3168 24.4163C36.2705 24.4002 36.2281 24.3759 36.1921 24.3449C36.1561 24.3139 36.1272 24.2767 36.107 24.2355C36.0868 24.1943 36.0757 24.1499 36.0744 24.1049C36.073 24.0598 36.0815 24.0149 36.0992 23.9728C36.1351 23.8883 36.2063 23.8202 36.2974 23.7835C36.3884 23.7468 36.4918 23.7445 36.5847 23.7771Z" fill="#263238"/>
<path d="M36.8085 23.7394C36.7764 23.7852 36.4879 23.652 36.1398 23.7103C35.7917 23.7686 35.5627 23.981 35.5169 23.9435C35.4711 23.906 35.5169 23.8519 35.6131 23.7519C35.7465 23.6316 35.9173 23.5514 36.1025 23.5224C36.2877 23.4933 36.4782 23.5168 36.6482 23.5895C36.781 23.652 36.836 23.7019 36.8085 23.7394Z" fill="#263238"/>
<path d="M38.7742 26.1425C38.9419 26.046 39.1261 25.9756 39.3192 25.9343C39.4108 25.9093 39.4795 25.8802 39.4795 25.8344C39.4634 25.7496 39.4222 25.6704 39.3604 25.6053L38.9482 25.0014C38.5744 24.4947 38.2554 23.9564 37.9956 23.3938C38.4287 23.8602 38.8064 24.3669 39.1223 24.9056L39.5207 25.5178C39.6029 25.6143 39.6465 25.7332 39.6444 25.8552C39.6385 25.89 39.6233 25.9231 39.6001 25.9514C39.577 25.9797 39.5466 26.0024 39.5116 26.0176C39.4635 26.0385 39.4127 26.0539 39.3604 26.0634C39.1713 26.1197 38.9731 26.1464 38.7742 26.1425Z" fill="#263238"/>
<path d="M37.7245 26.6924C37.3169 26.555 38.8375 27.0089 39.5566 26.8548C39.4715 27.0431 39.3187 27.1995 39.1232 27.2986C38.9277 27.3977 38.7011 27.4335 38.4802 27.4004C37.6284 27.2754 37.7245 26.6924 37.7245 26.6924Z" fill="white"/>
<path d="M39.7902 30.0367C38.613 30.2585 37.3898 30.1555 36.2773 29.741C36.2773 29.741 37.4086 31.2821 39.9414 30.6365L39.7902 30.0367Z" fill="#EB996E"/>
<path d="M31.2529 24.4641C31.1934 24.4641 29.3201 24.6599 30.03 26.5467C30.7399 28.4334 32.6223 27.1714 32.6086 27.1173C32.5948 27.0631 31.2529 24.4641 31.2529 24.4641Z" fill="#FFBE9D"/>
<path d="M31.7157 26.6673C31.7157 26.6673 31.6882 26.7006 31.6332 26.7464C31.5587 26.8057 31.462 26.837 31.363 26.8338C31.1157 26.8338 30.8088 26.5673 30.6714 26.2258C30.6057 26.0635 30.5807 25.89 30.5982 25.7178C30.5962 25.6521 30.6113 25.5869 30.6424 25.5275C30.6734 25.4682 30.7195 25.4164 30.7768 25.3763C30.8146 25.3531 30.8602 25.343 30.9055 25.3475C30.9508 25.3521 30.9928 25.3712 31.0241 25.4013C31.0745 25.4471 31.0745 25.4887 31.0882 25.4887C31.102 25.4887 31.1203 25.4429 31.0882 25.368C31.0581 25.3251 31.0129 25.2928 30.96 25.2764C30.9252 25.2631 30.8878 25.2562 30.8501 25.2562C30.8123 25.2562 30.7749 25.2631 30.7401 25.2764C30.6597 25.319 30.5927 25.3797 30.5454 25.4526C30.4981 25.5255 30.4721 25.6082 30.4699 25.6928C30.4411 25.8852 30.4647 26.0811 30.5386 26.2633C30.5914 26.437 30.6996 26.5927 30.8496 26.7105C30.9996 26.8284 31.1846 26.9031 31.3813 26.9254C31.4427 26.9231 31.5027 26.9079 31.5567 26.8812C31.6107 26.8545 31.6572 26.8169 31.6928 26.7714C31.7294 26.7131 31.7248 26.6673 31.7157 26.6673Z" fill="#EB996E"/>
<path d="M39.8226 19.2791C39.4882 20.9908 37.0745 22.0528 35.2151 22.4651C35.9433 21.6322 35.4349 21.8612 35.8746 21.2823C34.6622 22.6656 32.9416 23.6047 31.0289 23.927C30.8034 23.5572 30.6619 23.15 30.613 22.7295C30.5641 22.309 30.6087 21.8838 30.7441 21.4793C30.8796 21.0748 31.1031 20.6992 31.4015 20.3749C31.6998 20.0506 32.0669 19.7841 32.4808 19.5914C33.0258 19.3374 33.6304 19.2166 34.1937 18.9959C34.6517 18.8084 35.1097 18.5461 35.5952 18.392C37.0608 17.9338 39.4287 17.1425 39.8226 19.2791Z" fill="#263238"/>
<path d="M31.9987 22.8689C31.9484 23.1105 31.9529 25.8426 31.9529 25.8426L30.7759 23.4062L31.9987 22.8689Z" fill="#263238"/>
<path d="M22.3633 44.4636L27.4517 37.6458C28.4189 36.2938 29.7228 35.1681 31.2577 34.3598C32.0703 33.9261 32.9528 33.6113 33.8729 33.4269C36.1328 33.6773 38.4227 33.289 40.4315 32.3149C42.263 32.1869 44.105 32.3461 45.8772 32.7855L55.9533 34.6513L54.4968 42.6894L49.1748 42.0272L50.329 49.1574L53.4984 59.5694L34.0973 63.0512L32.3752 53.4013L30.9646 46.4503L28.6746 49.4073L22.3633 44.4636Z" fill="#455A64"/>
<path d="M132.389 157.876L132.367 154.044L140.253 153.961L140.354 159.563L139.864 159.596C137.689 159.729 128.794 160.138 127.333 159.75C125.707 159.321 132.389 157.876 132.389 157.876Z" fill="#FF725E"/>
<path d="M137.497 159.538C137.605 158.931 137.956 158.383 138.481 157.997C138.996 157.614 139.65 157.421 140.313 157.455L140.341 159.458L137.497 159.538Z" fill="#FF725E"/>
<path d="M129.123 158.688C129.123 158.688 126.783 159.329 127.08 159.679C127.378 160.029 136.387 159.925 140.362 159.563V159.4L129.856 159.604C129.856 159.604 129.586 158.7 129.123 158.688Z" fill="#FF725E"/>
<path d="M140.464 159.396H140.327L139.937 159.425L138.508 159.496C137.295 159.55 135.623 159.604 133.773 159.625C131.922 159.646 130.251 159.625 129.037 159.625L127.603 159.587H127.214H127.077H127.603H129.041C130.251 159.587 131.922 159.587 133.773 159.587C135.623 159.587 137.295 159.517 138.504 159.479L139.937 159.438H140.327L140.464 159.396Z" fill="#263238"/>
<path d="M129.839 159.717C129.775 159.501 129.683 159.292 129.564 159.096C129.421 158.916 129.255 158.751 129.07 158.605C129.318 158.684 129.524 158.847 129.647 159.059C129.796 159.25 129.865 159.483 129.839 159.717Z" fill="#263238"/>
<path d="M132.151 158.613C132.128 158.613 132.018 158.505 131.899 158.342C131.815 158.249 131.756 158.139 131.725 158.022C131.748 158.022 131.863 158.13 131.977 158.297C132.092 158.463 132.174 158.601 132.151 158.613Z" fill="#263238"/>
<path d="M132.789 158.301C132.789 158.301 132.642 158.242 132.505 158.134C132.367 158.026 132.271 157.922 132.289 157.905C132.308 157.888 132.431 157.959 132.569 158.072C132.706 158.184 132.802 158.284 132.789 158.301Z" fill="#263238"/>
<path d="M133.181 157.618C133.051 157.665 132.909 157.684 132.769 157.672C132.631 157.687 132.49 157.675 132.357 157.638C132.488 157.591 132.629 157.572 132.769 157.584C132.908 157.57 133.048 157.581 133.181 157.618Z" fill="#263238"/>
<path d="M133.315 157.139C133.18 157.223 133.02 157.268 132.857 157.268C132.702 157.292 132.542 157.273 132.399 157.214C132.55 157.19 132.703 157.179 132.857 157.18C133.008 157.155 133.161 157.141 133.315 157.139Z" fill="#263238"/>
<path d="M131.877 157.992C131.708 158.018 131.537 158.018 131.368 157.992C131.185 157.972 131.004 157.937 130.828 157.888C130.72 157.862 130.615 157.824 130.516 157.776C130.456 157.745 130.41 157.694 130.388 157.634C130.381 157.6 130.384 157.565 130.398 157.532C130.412 157.5 130.435 157.472 130.466 157.451C130.657 157.361 130.877 157.335 131.088 157.377C131.298 157.42 131.485 157.529 131.616 157.684C131.696 157.773 131.753 157.877 131.785 157.988C131.795 158.029 131.795 158.072 131.785 158.113C131.73 157.972 131.649 157.839 131.547 157.722C131.43 157.604 131.279 157.518 131.112 157.472C131.013 157.443 130.908 157.432 130.805 157.44C130.701 157.448 130.6 157.474 130.507 157.518C130.425 157.572 130.461 157.659 130.548 157.705C130.641 157.75 130.737 157.786 130.837 157.813C131.007 157.865 131.182 157.904 131.359 157.93C131.684 157.98 131.877 157.98 131.877 157.992Z" fill="#263238"/>
<path d="M131.743 158.018C131.682 157.92 131.66 157.807 131.679 157.697C131.695 157.576 131.742 157.46 131.817 157.36C131.858 157.291 131.918 157.232 131.991 157.19C132.064 157.148 132.147 157.123 132.233 157.118C132.286 157.127 132.332 157.155 132.362 157.194C132.392 157.234 132.403 157.283 132.394 157.33C132.382 157.404 132.354 157.475 132.311 157.539C132.246 157.641 132.166 157.735 132.073 157.818C131.997 157.904 131.898 157.97 131.785 158.009C131.785 158.009 131.885 157.926 132.023 157.776C132.105 157.691 132.176 157.597 132.233 157.497C132.302 157.401 132.348 157.226 132.233 157.205C132.119 157.185 131.977 157.314 131.899 157.405C131.83 157.495 131.783 157.597 131.762 157.705C131.746 157.809 131.74 157.913 131.743 158.018Z" fill="#263238"/>
<path d="M140.276 157.434C140.276 157.434 140.047 157.434 139.694 157.459C139.23 157.512 138.792 157.682 138.429 157.951C138.067 158.22 137.796 158.577 137.647 158.979C137.532 159.292 137.523 159.496 137.505 159.496C137.497 159.448 137.497 159.398 137.505 159.35C137.519 159.219 137.547 159.089 137.587 158.963C137.723 158.539 137.996 158.163 138.371 157.883C138.746 157.604 139.206 157.434 139.689 157.397C139.834 157.383 139.98 157.383 140.125 157.397C140.177 157.403 140.227 157.416 140.276 157.434Z" fill="#263238"/>
<path d="M139.401 154.477C139.496 155.456 139.523 156.44 139.484 157.422C139.395 156.443 139.367 155.46 139.401 154.477Z" fill="#263238"/>
<path d="M136.493 158.851C135.738 158.989 134.963 159.004 134.203 158.896C134.203 158.871 134.72 158.896 135.357 158.896C135.993 158.896 136.488 158.826 136.493 158.851Z" fill="#263238"/>
<path d="M138.028 158.83C138.028 158.83 137.986 158.93 137.936 159.038C137.886 159.146 137.858 159.242 137.831 159.238C137.803 159.234 137.789 159.125 137.831 159C137.872 158.876 138.028 158.813 138.028 158.83Z" fill="#263238"/>
<path d="M138.609 158.163C138.632 158.163 138.582 158.255 138.5 158.33C138.417 158.405 138.339 158.455 138.321 158.438C138.303 158.421 138.348 158.346 138.431 158.271C138.513 158.196 138.591 158.147 138.609 158.163Z" fill="#263238"/>
<path d="M139.438 157.851C139.438 157.876 139.328 157.876 139.214 157.913C139.099 157.951 139.017 158.009 138.994 157.993C138.971 157.976 139.04 157.88 139.182 157.834C139.324 157.788 139.448 157.83 139.438 157.851Z" fill="#263238"/>
<path d="M140.033 157.701C140.033 157.726 139.997 157.764 139.933 157.784C139.868 157.805 139.804 157.813 139.795 157.784C139.786 157.755 139.832 157.726 139.896 157.701C139.96 157.676 140.02 157.68 140.033 157.701Z" fill="#263238"/>
<path d="M172.702 155.898L171.415 152.249L163.89 154.394L165.722 159.746L166.18 159.642C168.296 159.154 176.888 157.03 178.148 156.252C179.549 155.385 172.702 155.898 172.702 155.898Z" fill="#FF725E"/>
<path d="M168.415 158.917C168.107 158.37 167.586 157.947 166.954 157.73C166.333 157.509 165.643 157.509 165.021 157.73L165.681 159.642L168.415 158.917Z" fill="#FF725E"/>
<path d="M176.082 155.748C176.082 155.748 178.528 155.698 178.372 156.114C178.216 156.531 169.611 158.971 165.713 159.746L165.676 159.592L175.729 156.818C175.729 156.818 175.652 155.889 176.082 155.748Z" fill="#FF725E"/>
<path d="M165.544 159.621L165.682 159.596L166.057 159.509L167.431 159.175C168.599 158.884 170.212 158.463 171.975 157.963C173.738 157.464 175.327 156.976 176.472 156.614L177.824 156.172L178.19 156.047C178.233 156.035 178.275 156.019 178.314 155.997L178.181 156.031L177.81 156.139L176.436 156.556C175.286 156.905 173.688 157.389 171.934 157.88C170.179 158.372 168.563 158.809 167.399 159.13L166.025 159.492L165.654 159.592C165.617 159.599 165.58 159.609 165.544 159.621Z" fill="#263238"/>
<path d="M175.753 156.926C175.745 156.703 175.764 156.48 175.808 156.26C175.882 156.047 175.984 155.843 176.11 155.652C175.901 155.795 175.759 156.005 175.712 156.239C175.636 156.465 175.651 156.709 175.753 156.926Z" fill="#263238"/>
<path d="M173.179 156.531C173.206 156.531 173.27 156.389 173.33 156.202C173.389 156.014 173.408 155.856 173.38 155.848C173.306 155.948 173.256 156.062 173.234 156.181C173.187 156.292 173.168 156.412 173.179 156.531Z" fill="#263238"/>
<path d="M172.47 156.414C172.492 156.414 172.589 156.318 172.68 156.177C172.772 156.035 172.831 155.906 172.808 155.893C172.786 155.881 172.694 155.989 172.598 156.131C172.502 156.272 172.447 156.402 172.47 156.414Z" fill="#263238"/>
<path d="M171.865 155.877C172.004 155.88 172.143 155.858 172.272 155.81C172.409 155.784 172.538 155.733 172.652 155.66C172.513 155.651 172.372 155.674 172.245 155.727C172.025 155.785 171.855 155.852 171.865 155.877Z" fill="#263238"/>
<path d="M171.576 155.456C171.725 155.5 171.885 155.5 172.034 155.456C172.196 155.436 172.347 155.372 172.469 155.273C172.313 155.293 172.16 155.327 172.011 155.373C171.863 155.39 171.718 155.417 171.576 155.456Z" fill="#263238"/>
<path d="M173.23 155.86C173.4 155.843 173.565 155.796 173.716 155.723C173.883 155.652 174.044 155.568 174.196 155.473C174.29 155.416 174.376 155.351 174.453 155.277C174.499 155.23 174.525 155.169 174.526 155.106C174.522 155.071 174.507 155.038 174.482 155.011C174.458 154.983 174.426 154.963 174.389 154.952C174.176 154.919 173.957 154.956 173.771 155.056C173.585 155.156 173.444 155.312 173.372 155.498C173.329 155.607 173.31 155.723 173.317 155.839C173.315 155.881 173.324 155.922 173.345 155.96C173.346 155.81 173.377 155.662 173.436 155.523C173.506 155.376 173.62 155.25 173.766 155.16C173.85 155.105 173.946 155.064 174.047 155.042C174.149 155.02 174.254 155.016 174.357 155.031C174.448 155.065 174.448 155.152 174.38 155.223C174.308 155.292 174.228 155.353 174.142 155.406C173.996 155.504 173.843 155.591 173.683 155.668C173.413 155.798 173.225 155.847 173.23 155.86Z" fill="#263238"/>
<path d="M173.362 155.848C173.39 155.739 173.374 155.625 173.316 155.527C173.263 155.415 173.179 155.318 173.074 155.244C173.013 155.193 172.94 155.156 172.86 155.136C172.78 155.116 172.696 155.115 172.616 155.131C172.593 155.143 172.572 155.158 172.556 155.177C172.539 155.195 172.527 155.216 172.52 155.239C172.513 155.262 172.51 155.286 172.514 155.31C172.517 155.333 172.525 155.356 172.538 155.377C172.571 155.445 172.621 155.505 172.684 155.552C172.782 155.63 172.89 155.697 173.005 155.752C173.106 155.812 173.223 155.846 173.344 155.852C173.344 155.852 173.22 155.802 173.037 155.698C172.932 155.639 172.834 155.57 172.744 155.494C172.648 155.419 172.542 155.265 172.657 155.21C172.725 155.199 172.795 155.202 172.861 155.218C172.928 155.235 172.989 155.265 173.042 155.306C173.138 155.372 173.218 155.456 173.275 155.552C173.317 155.647 173.346 155.746 173.362 155.848Z" fill="#263238"/>
<path d="M165.05 157.701C165.05 157.701 165.26 157.622 165.613 157.563C166.072 157.481 166.547 157.518 166.983 157.672C167.42 157.825 167.799 158.088 168.077 158.43C168.292 158.692 168.37 158.888 168.389 158.88C168.381 158.832 168.365 158.786 168.343 158.742C168.286 158.621 168.215 158.505 168.132 158.396C167.859 158.032 167.47 157.752 167.018 157.592C166.566 157.432 166.072 157.401 165.599 157.501C165.458 157.532 165.32 157.575 165.187 157.63C165.138 157.647 165.091 157.671 165.05 157.701Z" fill="#263238"/>
<path d="M164.857 154.631C165.098 155.589 165.404 156.532 165.773 157.455C165.661 156.974 165.52 156.498 165.352 156.031C165.218 155.556 165.053 155.088 164.857 154.631Z" fill="#263238"/>
<path d="M169.134 157.98C169.521 157.952 169.903 157.88 170.27 157.767C170.644 157.678 171.005 157.545 171.342 157.372C171.342 157.351 170.847 157.518 170.243 157.684C169.638 157.851 169.13 157.955 169.134 157.98Z" fill="#263238"/>
<path d="M167.662 158.396C167.662 158.396 167.735 158.48 167.817 158.567C167.9 158.655 167.964 158.738 167.987 158.73C168.01 158.721 167.987 158.613 167.891 158.509C167.794 158.405 167.671 158.375 167.662 158.396Z" fill="#263238"/>
<path d="M166.882 157.926C166.882 157.947 166.942 158.005 167.047 158.055C167.153 158.105 167.244 158.126 167.253 158.105C167.262 158.084 167.194 158.026 167.093 157.976C166.992 157.926 166.882 157.905 166.882 157.926Z" fill="#263238"/>
<path d="M165.992 157.863C165.992 157.884 166.102 157.863 166.226 157.863C166.35 157.863 166.45 157.901 166.464 157.863C166.478 157.826 166.382 157.768 166.231 157.763C166.079 157.759 165.965 157.842 165.992 157.863Z" fill="#263238"/>
<path d="M165.379 157.888C165.379 157.913 165.434 157.934 165.503 157.938C165.571 157.943 165.631 157.938 165.631 157.905C165.631 157.872 165.58 157.859 165.507 157.855C165.434 157.851 165.379 157.863 165.379 157.888Z" fill="#263238"/>
<path d="M127.021 81.8221L130.704 156.227L142.987 156.46L140.949 94.1708L163.208 157.201L173.248 154.702L150.847 81.8221" fill="#263238"/>
<path d="M162.683 156.781L163.256 157.78L173.895 154.961L173.249 153.336L162.683 156.781Z" fill="#455A64"/>
<path d="M172.021 152.965C172.085 152.965 172.181 153.07 172.236 153.232C172.291 153.395 172.282 153.549 172.236 153.565C172.19 153.582 172.08 153.461 172.025 153.295C171.97 153.128 171.957 152.982 172.021 152.965Z" fill="#455A64"/>
<path d="M171.224 150.55C171.288 150.55 171.43 150.787 171.54 151.12C171.65 151.454 171.686 151.741 171.622 151.758C171.558 151.774 171.421 151.52 171.311 151.183C171.201 150.846 171.16 150.566 171.224 150.55Z" fill="#455A64"/>
<path d="M170.427 148.134C170.491 148.134 170.633 148.372 170.743 148.705C170.853 149.038 170.89 149.325 170.826 149.342C170.762 149.359 170.624 149.101 170.514 148.767C170.404 148.434 170.363 148.151 170.427 148.134Z" fill="#455A64"/>
<path d="M169.629 145.731C169.693 145.731 169.835 145.969 169.945 146.302C170.055 146.635 170.092 146.922 170.027 146.939C169.963 146.956 169.826 146.697 169.716 146.364C169.606 146.031 169.565 145.731 169.629 145.731Z" fill="#455A64"/>
<path d="M168.832 143.303C168.896 143.303 169.038 143.541 169.148 143.874C169.258 144.207 169.294 144.494 169.23 144.511C169.166 144.528 169.029 144.269 168.919 143.936C168.809 143.603 168.772 143.32 168.832 143.303Z" fill="#455A64"/>
<path d="M168.036 140.888C168.1 140.867 168.242 141.125 168.352 141.458C168.462 141.791 168.499 142.074 168.435 142.095C168.371 142.116 168.233 141.854 168.123 141.521C168.013 141.187 167.977 140.904 168.036 140.888Z" fill="#455A64"/>
<path d="M167.239 138.468C167.303 138.468 167.445 138.709 167.555 139.042C167.665 139.376 167.701 139.659 167.637 139.68C167.573 139.7 167.436 139.438 167.326 139.105C167.216 138.772 167.179 138.489 167.239 138.468Z" fill="#455A64"/>
<path d="M166.424 136.052C166.488 136.052 166.63 136.294 166.74 136.627C166.85 136.96 166.887 137.243 166.823 137.26C166.758 137.277 166.621 137.023 166.511 136.689C166.401 136.356 166.383 136.073 166.424 136.052Z" fill="#455A64"/>
<path d="M165.646 133.653C165.71 133.653 165.852 133.895 165.962 134.228C166.072 134.561 166.108 134.844 166.044 134.861C165.98 134.878 165.843 134.624 165.733 134.29C165.623 133.957 165.586 133.653 165.646 133.653Z" fill="#455A64"/>
<path d="M164.849 131.221C164.913 131.221 165.055 131.463 165.165 131.796C165.275 132.129 165.312 132.412 165.248 132.429C165.184 132.445 165.046 132.191 164.936 131.858C164.826 131.525 164.79 131.238 164.849 131.221Z" fill="#455A64"/>
<path d="M164.056 128.806C164.116 128.806 164.258 129.047 164.367 129.38C164.477 129.713 164.514 129.997 164.454 130.013C164.395 130.03 164.248 129.776 164.138 129.443C164.028 129.11 163.992 128.822 164.056 128.806Z" fill="#455A64"/>
<path d="M163.258 126.39C163.318 126.39 163.46 126.627 163.57 126.965C163.68 127.302 163.716 127.581 163.657 127.598C163.597 127.614 163.451 127.36 163.341 127.027C163.231 126.694 163.217 126.407 163.258 126.39Z" fill="#455A64"/>
<path d="M162.462 123.974C162.522 123.974 162.664 124.212 162.774 124.545C162.884 124.878 162.92 125.165 162.861 125.182C162.801 125.199 162.655 124.945 162.545 124.607C162.435 124.27 162.398 123.991 162.462 123.974Z" fill="#455A64"/>
<path d="M161.665 121.575C161.724 121.575 161.866 121.813 161.976 122.146C162.086 122.479 162.123 122.766 162.063 122.783C162.004 122.8 161.857 122.542 161.747 122.208C161.637 121.875 161.601 121.575 161.665 121.575Z" fill="#455A64"/>
<path d="M160.868 119.143C160.928 119.143 161.069 119.38 161.179 119.714C161.289 120.047 161.326 120.334 161.266 120.351C161.207 120.368 161.06 120.109 160.95 119.776C160.84 119.443 160.804 119.16 160.868 119.143Z" fill="#455A64"/>
<path d="M160.071 116.728C160.135 116.728 160.273 116.965 160.382 117.298C160.492 117.631 160.534 117.919 160.469 117.935C160.405 117.952 160.263 117.694 160.153 117.361C160.044 117.027 160.011 116.744 160.071 116.728Z" fill="#455A64"/>
<path d="M159.275 114.312C159.339 114.291 159.477 114.549 159.587 114.882C159.697 115.216 159.738 115.499 159.674 115.52C159.61 115.54 159.468 115.278 159.358 114.945C159.248 114.612 159.211 114.328 159.275 114.312Z" fill="#455A64"/>
<path d="M158.477 111.892C158.541 111.892 158.678 112.134 158.788 112.467C158.898 112.8 158.939 113.083 158.875 113.104C158.811 113.125 158.669 112.863 158.559 112.529C158.449 112.196 158.413 111.913 158.477 111.892Z" fill="#455A64"/>
<path d="M157.68 109.497C157.745 109.497 157.882 109.739 157.992 110.072C158.102 110.405 158.143 110.688 158.079 110.705C158.015 110.722 157.873 110.468 157.763 110.134C157.653 109.801 157.616 109.497 157.68 109.497Z" fill="#455A64"/>
<path d="M156.883 107.061C156.947 107.061 157.085 107.302 157.195 107.636C157.305 107.969 157.346 108.252 157.282 108.269C157.218 108.285 157.076 108.031 156.966 107.698C156.856 107.365 156.806 107.078 156.883 107.061Z" fill="#455A64"/>
<path d="M156.086 104.645C156.15 104.645 156.288 104.887 156.398 105.22C156.508 105.553 156.549 105.836 156.485 105.853C156.421 105.87 156.283 105.616 156.169 105.283C156.054 104.949 156.022 104.662 156.086 104.645Z" fill="#455A64"/>
<path d="M155.29 102.23C155.354 102.23 155.491 102.471 155.601 102.804C155.711 103.138 155.752 103.421 155.688 103.437C155.624 103.454 155.487 103.2 155.377 102.867C155.267 102.534 155.226 102.246 155.29 102.23Z" fill="#455A64"/>
<path d="M154.516 99.8142C154.58 99.8142 154.717 100.052 154.827 100.389C154.937 100.726 154.978 101.005 154.914 101.022C154.85 101.039 154.713 100.785 154.603 100.451C154.493 100.118 154.429 99.8308 154.516 99.8142Z" fill="#455A64"/>
<path d="M153.695 97.4193C153.759 97.4193 153.896 97.6567 154.011 97.9899C154.125 98.3231 154.158 98.6105 154.093 98.6272C154.029 98.6438 153.892 98.3898 153.782 98.0524C153.672 97.715 153.631 97.4193 153.695 97.4193Z" fill="#455A64"/>
<path d="M152.899 94.9829C152.963 94.9829 153.105 95.2203 153.215 95.5535C153.325 95.8867 153.362 96.1741 153.298 96.1908C153.233 96.2074 153.096 95.9492 152.986 95.616C152.876 95.2828 152.835 94.9996 152.899 94.9829Z" fill="#455A64"/>
<path d="M152.103 92.5674C152.167 92.5674 152.309 92.8048 152.419 93.138C152.529 93.4711 152.565 93.7585 152.501 93.7751C152.437 93.7918 152.3 93.5336 152.19 93.2004C152.08 92.8673 152.039 92.5841 152.103 92.5674Z" fill="#455A64"/>
<path d="M151.31 90.1518C151.374 90.1518 151.516 90.3892 151.626 90.7224C151.736 91.0555 151.772 91.3429 151.708 91.3595C151.644 91.3762 151.507 91.118 151.397 90.7848C151.287 90.4517 151.241 90.1685 151.31 90.1518Z" fill="#455A64"/>
<path d="M150.508 87.7361C150.572 87.7153 150.714 87.9735 150.824 88.3067C150.934 88.64 150.971 88.9232 150.906 88.944C150.842 88.9648 150.705 88.7024 150.595 88.3692C150.485 88.036 150.444 87.7528 150.508 87.7361Z" fill="#455A64"/>
<path d="M149.71 85.3164C149.775 85.3164 149.917 85.558 150.027 85.8912C150.136 86.2244 150.173 86.5076 150.109 86.5284C150.045 86.5492 149.907 86.2868 149.798 85.9536C149.688 85.6204 149.651 85.3414 149.71 85.3164Z" fill="#455A64"/>
<path d="M149.116 83.513C149.18 83.513 149.276 83.613 149.331 83.7796C149.386 83.9461 149.377 84.0919 149.331 84.1085C149.285 84.1252 149.175 84.0086 149.12 83.842C149.065 83.6754 149.052 83.5297 149.116 83.513Z" fill="#455A64"/>
<path d="M140.872 155.852C140.936 155.852 140.995 155.985 141.009 156.156C141.023 156.326 140.972 156.472 140.904 156.476C140.835 156.481 140.78 156.343 140.771 156.168C140.762 155.993 140.803 155.856 140.872 155.852Z" fill="#455A64"/>
<path d="M140.776 153.374C140.841 153.374 140.909 153.645 140.923 153.99C140.937 154.336 140.896 154.611 140.827 154.611C140.758 154.611 140.699 154.34 140.685 153.998C140.671 153.657 140.694 153.374 140.776 153.374Z" fill="#455A64"/>
<path d="M140.675 150.896C140.739 150.896 140.803 151.166 140.812 151.512C140.821 151.858 140.78 152.133 140.711 152.133C140.643 152.133 140.583 151.858 140.574 151.516C140.565 151.175 140.606 150.896 140.675 150.896Z" fill="#455A64"/>
<path d="M140.606 148.413C140.67 148.413 140.729 148.688 140.738 149.03C140.748 149.371 140.702 149.65 140.638 149.654C140.573 149.659 140.509 149.38 140.5 149.038C140.491 148.697 140.537 148.413 140.606 148.413Z" fill="#455A64"/>
<path d="M140.538 145.931C140.607 145.931 140.666 146.206 140.675 146.552C140.685 146.897 140.639 147.172 140.575 147.172C140.51 147.172 140.446 146.897 140.437 146.556C140.428 146.214 140.474 145.935 140.538 145.931Z" fill="#455A64"/>
<path d="M140.468 143.449C140.532 143.449 140.596 143.724 140.605 144.069C140.614 144.415 140.568 144.69 140.504 144.69C140.44 144.69 140.376 144.415 140.367 144.074C140.358 143.732 140.404 143.453 140.468 143.449Z" fill="#455A64"/>
<path d="M140.377 140.971C140.446 140.971 140.51 141.242 140.524 141.587C140.537 141.933 140.492 142.208 140.427 142.212C140.363 142.216 140.295 141.937 140.285 141.596C140.276 141.254 140.318 140.971 140.377 140.971Z" fill="#455A64"/>
<path d="M140.263 138.493C140.331 138.493 140.395 138.764 140.414 139.105C140.432 139.447 140.386 139.73 140.322 139.73C140.258 139.73 140.189 139.459 140.171 139.113C140.153 138.768 140.199 138.493 140.263 138.493Z" fill="#455A64"/>
<path d="M140.156 136.011C140.22 136.011 140.289 136.285 140.303 136.627C140.317 136.968 140.275 137.247 140.207 137.252C140.138 137.256 140.078 136.977 140.065 136.635C140.051 136.294 140.092 136.015 140.156 136.011Z" fill="#455A64"/>
<path d="M140.062 133.533C140.13 133.533 140.194 133.807 140.204 134.149C140.213 134.49 140.176 134.769 140.107 134.774C140.039 134.778 139.979 134.499 139.965 134.157C139.952 133.816 139.997 133.537 140.062 133.533Z" fill="#455A64"/>
<path d="M139.979 131.05C140.043 131.05 140.107 131.325 140.116 131.667C140.125 132.008 140.084 132.287 140.02 132.291C139.956 132.296 139.892 132.017 139.878 131.675C139.864 131.334 139.914 131.055 139.979 131.05Z" fill="#455A64"/>
<path d="M139.905 128.572C139.974 128.572 140.034 128.847 140.043 129.189C140.052 129.53 140.006 129.809 139.942 129.809C139.878 129.809 139.814 129.534 139.805 129.193C139.795 128.851 139.86 128.572 139.905 128.572Z" fill="#455A64"/>
<path d="M139.86 126.09C139.924 126.09 139.983 126.365 139.993 126.711C140.002 127.056 139.951 127.331 139.887 127.331C139.823 127.331 139.759 127.056 139.754 126.715C139.75 126.373 139.782 126.09 139.86 126.09Z" fill="#455A64"/>
<path d="M139.805 123.612C139.869 123.612 139.929 123.887 139.933 124.228C139.938 124.57 139.892 124.849 139.823 124.849C139.755 124.849 139.7 124.574 139.695 124.232C139.691 123.891 139.736 123.612 139.805 123.612Z" fill="#455A64"/>
<path d="M139.768 121.13C139.837 121.13 139.892 121.405 139.897 121.75C139.901 122.096 139.851 122.371 139.787 122.371C139.723 122.371 139.663 122.092 139.658 121.75C139.654 121.409 139.704 121.13 139.768 121.13Z" fill="#455A64"/>
<path d="M139.75 118.66C139.819 118.66 139.874 118.939 139.874 119.281C139.874 119.622 139.823 119.901 139.759 119.901C139.695 119.901 139.64 119.626 139.636 119.281C139.631 118.935 139.686 118.66 139.75 118.66Z" fill="#455A64"/>
<path d="M139.746 116.161C139.81 116.161 139.865 116.436 139.865 116.782C139.865 117.127 139.814 117.398 139.746 117.402C139.677 117.406 139.626 117.123 139.626 116.782C139.626 116.44 139.681 116.161 139.746 116.161Z" fill="#455A64"/>
<path d="M139.754 113.687C139.818 113.687 139.868 113.966 139.868 114.308C139.868 114.649 139.813 114.928 139.744 114.928C139.676 114.928 139.63 114.649 139.63 114.308C139.63 113.966 139.685 113.687 139.754 113.687Z" fill="#455A64"/>
<path d="M139.772 111.205C139.841 111.205 139.891 111.484 139.887 111.826C139.882 112.167 139.827 112.446 139.763 112.446C139.699 112.446 139.644 112.167 139.649 111.826C139.653 111.484 139.708 111.205 139.772 111.205Z" fill="#455A64"/>
<path d="M139.809 108.727C139.873 108.727 139.923 109.006 139.919 109.347C139.914 109.689 139.855 109.968 139.79 109.968C139.726 109.968 139.676 109.689 139.68 109.343C139.685 108.998 139.745 108.727 139.809 108.727Z" fill="#455A64"/>
<path d="M139.859 106.245C139.924 106.245 139.969 106.528 139.965 106.869C139.96 107.211 139.896 107.486 139.832 107.486C139.768 107.486 139.718 107.207 139.727 106.865C139.736 106.524 139.791 106.245 139.859 106.245Z" fill="#455A64"/>
<path d="M139.918 103.762C139.982 103.762 140.028 104.046 140.019 104.387C140.01 104.729 139.95 105.008 139.886 105.003C139.822 104.999 139.772 104.724 139.781 104.383C139.79 104.041 139.859 103.762 139.918 103.762Z" fill="#455A64"/>
<path d="M140.015 101.28C140.079 101.28 140.12 101.563 140.107 101.905C140.093 102.246 140.029 102.525 139.96 102.521C139.891 102.517 139.855 102.242 139.869 101.897C139.882 101.551 139.951 101.28 140.015 101.28Z" fill="#455A64"/>
<path d="M140.175 98.8061C140.239 98.8061 140.271 99.0894 140.249 99.4309C140.226 99.7725 140.152 100.047 140.084 100.043C140.015 100.039 139.987 99.76 140.01 99.4143C140.033 99.0686 140.107 98.7978 140.175 98.8061Z" fill="#455A64"/>
<path d="M140.423 96.3322C140.491 96.3322 140.51 96.6196 140.473 96.9612C140.436 97.3027 140.349 97.5735 140.285 97.5693C140.221 97.5651 140.198 97.2819 140.235 96.9404C140.271 96.5988 140.358 96.3281 140.423 96.3322Z" fill="#455A64"/>
<path d="M140.688 94.504C140.752 94.504 140.784 94.6581 140.757 94.8246C140.729 94.9912 140.656 95.1286 140.592 95.1203C140.528 95.112 140.496 94.9662 140.519 94.7955C140.542 94.6248 140.624 94.479 140.688 94.504Z" fill="#455A64"/>
<path d="M130.383 156.589L143.372 156.781L143.272 154.811L130.383 154.873V156.589Z" fill="#455A64"/>
<path d="M138.902 82.7634C138.948 82.9113 138.974 83.0637 138.98 83.2173C139.012 83.513 139.058 83.9378 139.104 84.4668C139.196 85.5205 139.31 86.9657 139.415 88.5816C139.47 89.3813 139.516 90.1476 139.562 90.8473C139.554 91.458 139.634 92.0671 139.8 92.659C139.935 93.0454 140.233 93.3674 140.629 93.5544C140.778 93.6074 140.931 93.6492 141.087 93.6794C141.044 93.6889 140.998 93.6889 140.954 93.6794C140.826 93.6795 140.699 93.6583 140.579 93.6169C140.359 93.531 140.161 93.405 139.997 93.2467C139.833 93.0883 139.707 92.901 139.626 92.6965C139.433 92.0943 139.332 91.4705 139.328 90.8431C139.278 90.1434 139.223 89.3771 139.168 88.5775C139.058 86.9698 138.971 85.5163 138.921 84.4626C138.893 83.9337 138.88 83.5089 138.875 83.2132C138.862 83.0628 138.871 82.9115 138.902 82.7634Z" fill="#455A64"/>
<path d="M140.162 83.7505C140.162 83.7797 140.061 83.8546 140.047 84.0295C140.044 84.0756 140.051 84.1218 140.067 84.1654C140.084 84.209 140.109 84.2492 140.143 84.2836C140.187 84.3174 140.24 84.3393 140.297 84.3467C140.354 84.3541 140.412 84.3466 140.464 84.3252C140.519 84.3079 140.567 84.2768 140.602 84.2354C140.638 84.1941 140.66 84.1443 140.665 84.092C140.663 84.0459 140.651 84.0007 140.629 83.9591C140.607 83.9176 140.576 83.8806 140.537 83.8505C140.395 83.7297 140.249 83.7547 140.244 83.7214C140.24 83.688 140.395 83.5964 140.638 83.7214C140.707 83.7605 140.765 83.8135 140.808 83.8763C140.851 83.9392 140.877 84.0101 140.885 84.0837C140.885 84.1802 140.854 84.2746 140.794 84.3545C140.734 84.4344 140.65 84.4963 140.551 84.5322C140.453 84.5681 140.345 84.5762 140.241 84.5557C140.137 84.5351 140.043 84.4867 139.969 84.4168C139.917 84.3597 139.881 84.2921 139.864 84.2197C139.846 84.1473 139.848 84.0721 139.869 84.0004C139.96 83.7588 140.162 83.7255 140.162 83.7505Z" fill="#455A64"/>
<path d="M151.721 85.5164C151.416 85.7052 151.066 85.8264 150.7 85.8704C149.818 86.0317 148.904 85.939 148.083 85.6054C147.262 85.2717 146.576 84.7135 146.12 84.0087C145.91 83.7316 145.775 83.4134 145.726 83.0799C145.767 83.0799 145.891 83.4297 146.262 83.9129C146.732 84.5631 147.396 85.0776 148.177 85.3957C148.957 85.7138 149.822 85.8221 150.668 85.7079C151.309 85.6371 151.708 85.483 151.721 85.5164Z" fill="#455A64"/>
<path d="M131.295 82.7634C131.355 83.0319 131.34 83.3099 131.249 83.5713C131.084 84.2175 130.699 84.8001 130.15 85.2372C129.598 85.6752 128.91 85.946 128.181 86.0119C127.885 86.0587 127.58 86.0358 127.297 85.9453C127.297 85.9078 127.64 85.9453 128.162 85.8578C128.841 85.7552 129.475 85.4843 129.995 85.0748C130.506 84.6575 130.884 84.1222 131.089 83.5255C131.245 83.0716 131.254 82.7634 131.295 82.7634Z" fill="#455A64"/>
<path d="M129.469 50.4152C129.469 50.4152 117.231 55.1214 116.842 54.9423C116.452 54.7632 116.177 45.8006 116.177 45.8006H110.091C110.091 45.8006 108.936 59.0946 112.605 61.2104C117.62 64.1257 129.762 58.0618 129.762 58.0618L129.469 50.4152Z" fill="#FFBE9D"/>
<path d="M88.5997 34.3598L87.3447 39.3326L93.2163 40.6028C93.2163 40.6028 95.63 41.0901 98.03 44.2012C100.43 47.3123 101.36 48.6909 101.36 48.6909L105.427 30.4157L101.012 33.2811C100.136 33.8407 99.164 34.263 98.1353 34.5306C96.8758 34.8637 95.1949 35.2427 94.256 35.2011C92.3522 35.0345 90.4626 34.7535 88.5997 34.3598Z" fill="#263238"/>
<path d="M154.484 55.5713L101.36 48.691L105.427 30.4157L157.081 41.7441C157.637 41.8656 158.122 42.1741 158.438 42.6076C158.754 43.0411 158.878 43.5674 158.784 44.0805L157.039 53.8596C156.939 54.3898 156.617 54.8643 156.141 55.1834C155.664 55.5025 155.07 55.6415 154.484 55.5713Z" fill="#FF725E"/>
<path d="M83.8585 34.593C83.8217 34.5869 83.7839 34.5891 83.7482 34.5993C83.7126 34.6096 83.6803 34.6276 83.6541 34.6519C83.6279 34.6761 83.6086 34.7058 83.5979 34.7384C83.5872 34.7709 83.5855 34.8054 83.5928 34.8387C83.8151 35.9196 84.1072 36.9876 84.4676 38.0373C84.5913 38.3247 87.5317 38.5829 87.5317 38.5829L88.3423 35.3718L83.8585 34.593Z" fill="#FF725E"/>
<path d="M150.22 49.2782L151.031 46.3254L116.713 39.9948L116.012 42.9644L150.22 49.2782Z" fill="#263238"/>
<path d="M143.55 49.1782L135.966 48.6243C135.915 47.8205 135.966 44.7052 135.966 44.7052C135.966 44.7052 132.81 44.2596 132.76 41.3733C132.709 38.4871 133.268 31.9192 133.268 31.9192C135.06 31.2169 137.026 30.9625 138.962 31.1821C140.899 31.4018 142.735 32.0876 144.283 33.1687L144.741 33.4977L143.55 49.1782Z" fill="#FFBE9D"/>
<path d="M134.02 36.8627C134.102 36.7869 134.149 36.6856 134.151 36.5794C134.153 36.4733 134.111 36.3703 134.032 36.2916C133.954 36.2129 133.846 36.1644 133.729 36.156C133.613 36.1476 133.497 36.1799 133.406 36.2464C133.361 36.2831 133.324 36.3277 133.298 36.3774C133.272 36.4271 133.257 36.481 133.254 36.536C133.251 36.591 133.261 36.646 133.281 36.6978C133.302 36.7496 133.333 36.7971 133.374 36.8377C133.456 36.9187 133.57 36.9668 133.691 36.9715C133.812 36.9762 133.931 36.9371 134.02 36.8627Z" fill="#263238"/>
<path d="M133.255 36.1966C133.306 36.2466 133.617 36.03 134.047 36.03C134.478 36.03 134.799 36.23 134.849 36.18C134.899 36.13 134.822 36.0675 134.684 35.9716C134.498 35.8517 134.276 35.7876 134.047 35.7883C133.818 35.7904 133.596 35.8606 133.415 35.9883C133.278 36.0966 133.232 36.1966 133.255 36.1966Z" fill="#263238"/>
<path d="M138.262 36.5546C138.208 36.582 138.161 36.6191 138.123 36.6636C138.085 36.7081 138.058 36.7591 138.042 36.8135C138.026 36.8679 138.023 36.9246 138.032 36.9802C138.042 37.0358 138.063 37.0891 138.096 37.1369C138.128 37.1848 138.171 37.2261 138.221 37.2585C138.272 37.2909 138.329 37.3136 138.39 37.3254C138.45 37.3371 138.513 37.3376 138.573 37.3268C138.634 37.316 138.692 37.2942 138.743 37.2626C138.846 37.2049 138.919 37.1125 138.948 37.0056C138.976 36.8987 138.957 36.786 138.894 36.692C138.862 36.6451 138.821 36.6043 138.772 36.572C138.723 36.5397 138.668 36.5165 138.609 36.5037C138.551 36.4909 138.49 36.4888 138.43 36.4976C138.37 36.5063 138.313 36.5257 138.262 36.5546Z" fill="#263238"/>
<path d="M137.977 36.5588C138.023 36.6088 138.334 36.3923 138.769 36.3881C139.204 36.3839 139.52 36.5922 139.566 36.5422C139.612 36.4922 139.543 36.4297 139.406 36.3339C139.22 36.2111 138.995 36.1468 138.765 36.1507C138.537 36.1534 138.315 36.2219 138.133 36.3464C138 36.4464 137.949 36.538 137.977 36.5588Z" fill="#263238"/>
<path d="M136.232 39.8156C136.008 39.7361 135.771 39.691 135.531 39.6823C135.416 39.6823 135.329 39.649 135.32 39.5907C135.316 39.4875 135.343 39.3851 135.398 39.295C135.513 39.0368 135.627 38.7702 135.746 38.4912C136.07 37.813 136.319 37.107 136.488 36.3838C136.089 37.0283 135.762 37.7078 135.513 38.4121C135.403 38.6911 135.293 38.9577 135.187 39.245C135.118 39.3742 135.096 39.52 135.123 39.6615C135.14 39.7005 135.167 39.7353 135.201 39.7635C135.235 39.7916 135.276 39.8123 135.32 39.824C135.383 39.8388 135.448 39.8471 135.513 39.8489C135.753 39.8767 135.996 39.8654 136.232 39.8156Z" fill="#263238"/>
<path d="M137.643 40.253C138.101 40.0072 136.397 40.857 135.513 40.8153C135.663 41.0203 135.885 41.173 136.143 41.2487C136.401 41.3243 136.679 41.3184 136.933 41.2319C137.876 40.9361 137.643 40.253 137.643 40.253Z" fill="white"/>
<path d="M135.976 44.6635C137.435 44.6908 138.871 44.3209 140.098 43.6014C140.098 43.6014 139.127 45.6839 135.976 45.409V44.6635Z" fill="#EB996E"/>
<path d="M144.788 36.2964C144.856 36.2755 147.137 36.1381 146.762 38.5538C146.386 40.9695 143.821 39.8283 143.826 39.7575C143.83 39.6867 144.788 36.2964 144.788 36.2964Z" fill="#FFBE9D"/>
<path d="M144.774 39.0119C144.774 39.0119 144.816 39.0494 144.889 39.0911C144.94 39.1199 144.998 39.1391 145.057 39.1477C145.117 39.1563 145.178 39.154 145.237 39.1411C145.424 39.0651 145.586 38.9446 145.705 38.7921C145.823 38.6397 145.894 38.4609 145.91 38.2748C145.948 38.0683 145.937 37.8567 145.878 37.6543C145.865 37.5759 145.831 37.5016 145.779 37.4378C145.727 37.3739 145.659 37.3225 145.58 37.2878C145.529 37.2684 145.472 37.2657 145.418 37.2801C145.365 37.2945 145.319 37.3252 145.287 37.3669C145.241 37.4294 145.251 37.4794 145.237 37.4835C145.223 37.4877 145.187 37.4377 145.237 37.3378C145.26 37.2792 145.305 37.2304 145.365 37.2003C145.446 37.1605 145.541 37.1501 145.631 37.1712C145.734 37.2038 145.826 37.2588 145.901 37.3313C145.975 37.4039 146.028 37.4919 146.057 37.5876C146.136 37.8122 146.154 38.0506 146.112 38.2831C146.091 38.5007 146 38.7078 145.85 38.8783C145.7 39.0488 145.498 39.1751 145.269 39.241C145.195 39.2509 145.119 39.2452 145.047 39.2243C144.976 39.2033 144.911 39.1677 144.857 39.1202C144.77 39.0744 144.765 39.0161 144.774 39.0119Z" fill="#EB996E"/>
<path d="M133.301 31.8483C134.12 33.8183 137.262 34.5971 139.571 34.7138C138.503 33.86 139.163 34.0391 138.503 33.4393C140.284 34.8402 142.561 35.6105 144.916 35.6092C145.092 35.1227 145.16 34.6089 145.114 34.0982C145.069 33.5875 144.911 33.0903 144.651 32.636C144.39 32.1816 144.032 31.7794 143.598 31.4532C143.164 31.1269 142.662 30.8831 142.122 30.7363C141.412 30.5406 140.656 30.5239 139.932 30.3698C139.323 30.2407 138.737 30.02 138.1 29.9533C136.241 29.7035 133.223 29.2453 133.273 31.865" fill="#263238"/>
<path d="M143.523 34.5306C143.643 34.8096 144.307 38.0665 144.307 38.0665L145.113 34.9262L143.523 34.5306Z" fill="#263238"/>
<path d="M166.081 74.8085C167.3 73.5332 167.969 71.8985 167.962 70.2085C167.955 68.5185 167.274 66.8882 166.044 65.621L153.797 52.9933L150.518 61.3229C150.742 61.4562 160.053 70.5354 160.053 70.5354L152.052 79.6064C151.444 80.2939 151.038 81.1102 150.872 81.9791C150.705 82.848 150.783 83.7411 151.099 84.575L153.238 89.3354L159.096 86.9489L158.638 86.3284H154.246L153.985 85.3705L166.081 74.8085Z" fill="#FFBE9D"/>
<path d="M160.277 58.3324L152.541 51.2522C151.051 49.8357 149.218 48.7547 147.187 48.0953C146.111 47.7457 144.982 47.549 143.839 47.5122C141.209 48.2702 138.386 48.2702 135.756 47.5122C133.541 47.732 131.385 48.2955 129.38 49.1781L117.834 53.4388L121.539 62.7263L127.736 60.8313L128.102 69.5775L126.875 82.6425L150.851 82.8425L150.54 70.9893V62.4181L154.003 65.4793L160.277 58.3324Z" fill="#455A64"/>
</svg>
