<svg width="200" height="160" viewBox="0 0 200 160" fill="none" xmlns="http://www.w3.org/2000/svg">
<path d="M174.624 12.3136H152.899V56.0629L174.624 56.9016V12.3136Z" fill="#E0E0E0"/>
<path d="M173.196 13.8683H154.187V53.5467L173.196 54.5374V13.8683Z" fill="#FAFAFA"/>
<path d="M169.867 21.0782L157.251 20.3376V48.0732H169.867V21.0782Z" fill="#E0E0E0"/>
<path d="M157.251 48.0732L169.867 33.8253L157.251 20.3376V48.0732Z" fill="#EBEBEB"/>
<path d="M32.6305 32.3784H5.70947V159.727H32.6305V32.3784Z" fill="#EBEBEB"/>
<path d="M53.8269 32.7855H32.5498V159.727H53.8269V32.7855Z" fill="#F5F5F5"/>
<path d="M29.9923 52.762H7.15576V62.689H29.9923V52.762Z" fill="#E0E0E0"/>
<path d="M9.07098 54.0078H7.79102V61.6052H9.07098V54.0078Z" fill="#F5F5F5"/>
<path d="M10.5768 55.6068C10.5768 55.731 10.5529 55.8523 10.5083 55.9556C10.4636 56.0588 10.4001 56.1393 10.3258 56.1868C10.2515 56.2343 10.1698 56.2468 10.0909 56.2225C10.012 56.1983 9.93961 56.1385 9.88275 56.0507C9.82589 55.9629 9.78717 55.8511 9.77148 55.7293C9.7558 55.6075 9.76385 55.4813 9.79462 55.3666C9.82539 55.2519 9.8775 55.1538 9.94435 55.0848C10.0112 55.0158 10.0898 54.979 10.1702 54.979C10.278 54.979 10.3815 55.0452 10.4577 55.1629C10.5339 55.2806 10.5768 55.4403 10.5768 55.6068Z" fill="#FAFAFA"/>
<path d="M10.5768 58.2895C10.5768 58.456 10.5339 58.6157 10.4577 58.7334C10.3815 58.8511 10.278 58.9173 10.1702 58.9173C10.0624 58.9173 9.95899 58.8511 9.88275 58.7334C9.80651 58.6157 9.76367 58.456 9.76367 58.2895C9.76367 58.123 9.80651 57.9633 9.88275 57.8456C9.95899 57.7278 10.0624 57.6617 10.1702 57.6617C10.278 57.6617 10.3815 57.7278 10.4577 57.8456C10.5339 57.9633 10.5768 58.123 10.5768 58.2895Z" fill="#FAFAFA"/>
<path d="M13.4604 54.979H12.2026V60.8154H13.4604V54.979Z" fill="#F5F5F5"/>
<path d="M15.2739 54.979H14.0161V60.8154H15.2739V54.979Z" fill="#F5F5F5"/>
<path d="M17.0913 54.979H15.8335V60.8154H17.0913V54.979Z" fill="#F5F5F5"/>
<path d="M18.9052 54.979H17.6475V60.8154H18.9052V54.979Z" fill="#F5F5F5"/>
<path d="M20.7216 54.979H19.4639V60.8154H20.7216V54.979Z" fill="#F5F5F5"/>
<path d="M22.5341 54.979H21.2764V60.8154H22.5341V54.979Z" fill="#F5F5F5"/>
<path d="M24.3515 54.979H23.0938V60.8154H24.3515V54.979Z" fill="#F5F5F5"/>
<path d="M26.1655 54.979H24.9077V60.8154H26.1655V54.979Z" fill="#F5F5F5"/>
<path d="M27.9819 54.979H26.7241V60.8154H27.9819V54.979Z" fill="#F5F5F5"/>
<path d="M29.7954 54.979H28.5376V60.8154H29.7954V54.979Z" fill="#F5F5F5"/>
<path d="M29.9923 68.6628H7.15576V78.5899H29.9923V68.6628Z" fill="#E0E0E0"/>
<path d="M9.07098 69.9087H7.79102V77.506H9.07098V69.9087Z" fill="#F5F5F5"/>
<path d="M10.5768 71.5076C10.5768 71.6741 10.5339 71.8338 10.4577 71.9515C10.3815 72.0693 10.278 72.1354 10.1702 72.1354C10.0624 72.1354 9.95899 72.0693 9.88275 71.9515C9.80651 71.8338 9.76367 71.6741 9.76367 71.5076C9.76367 71.341 9.80651 71.1813 9.88275 71.0636C9.95899 70.9458 10.0624 70.8797 10.1702 70.8797C10.278 70.8797 10.3815 70.9458 10.4577 71.0636C10.5339 71.1813 10.5768 71.341 10.5768 71.5076Z" fill="#FAFAFA"/>
<path d="M10.5768 74.1953C10.5768 74.3195 10.5529 74.4409 10.5083 74.5441C10.4636 74.6474 10.4001 74.7278 10.3258 74.7754C10.2515 74.8229 10.1698 74.8353 10.0909 74.8111C10.012 74.7869 9.93961 74.7271 9.88275 74.6393C9.82589 74.5514 9.78717 74.4396 9.77148 74.3178C9.7558 74.196 9.76385 74.0697 9.79462 73.955C9.82539 73.8403 9.8775 73.7422 9.94435 73.6732C10.0112 73.6042 10.0898 73.5674 10.1702 73.5674C10.278 73.5674 10.3815 73.6336 10.4577 73.7513C10.5339 73.8691 10.5768 74.0288 10.5768 74.1953Z" fill="#FAFAFA"/>
<path d="M13.4604 70.8797H12.2026V76.7163H13.4604V70.8797Z" fill="#F5F5F5"/>
<path d="M15.2739 70.8797H14.0161V76.7163H15.2739V70.8797Z" fill="#F5F5F5"/>
<path d="M17.0913 70.8797H15.8335V76.7163H17.0913V70.8797Z" fill="#F5F5F5"/>
<path d="M18.9052 70.8797H17.6475V76.7163H18.9052V70.8797Z" fill="#F5F5F5"/>
<path d="M20.7216 70.8797H19.4639V76.7163H20.7216V70.8797Z" fill="#F5F5F5"/>
<path d="M22.5341 70.8797H21.2764V76.7163H22.5341V70.8797Z" fill="#F5F5F5"/>
<path d="M24.3515 70.8797H23.0938V76.7163H24.3515V70.8797Z" fill="#F5F5F5"/>
<path d="M26.1655 70.8797H24.9077V76.7163H26.1655V70.8797Z" fill="#F5F5F5"/>
<path d="M27.9819 70.8797H26.7241V76.7163H27.9819V70.8797Z" fill="#F5F5F5"/>
<path d="M29.7954 70.8797H28.5376V76.7163H29.7954V70.8797Z" fill="#F5F5F5"/>
<path d="M29.9923 84.5637H7.15576V94.4905H29.9923V84.5637Z" fill="#E0E0E0"/>
<path d="M9.07098 85.8144H7.79102V93.4117H9.07098V85.8144Z" fill="#F5F5F5"/>
<path d="M10.5768 87.3986C10.5768 87.5227 10.5529 87.6441 10.5083 87.7473C10.4636 87.8506 10.4001 87.931 10.3258 87.9786C10.2515 88.0261 10.1698 88.0385 10.0909 88.0143C10.012 87.9901 9.93961 87.9303 9.88275 87.8425C9.82589 87.7547 9.78717 87.6428 9.77148 87.521C9.7558 87.3993 9.76385 87.273 9.79462 87.1583C9.82539 87.0436 9.8775 86.9456 9.94435 86.8766C10.0112 86.8076 10.0898 86.7708 10.1702 86.7708C10.278 86.7708 10.3815 86.8369 10.4577 86.9547C10.5339 87.0724 10.5768 87.2321 10.5768 87.3986Z" fill="#FAFAFA"/>
<path d="M10.5768 90.0961C10.5768 90.2203 10.5529 90.3416 10.5083 90.4449C10.4636 90.5481 10.4001 90.6285 10.3258 90.676C10.2515 90.7235 10.1698 90.736 10.0909 90.7118C10.012 90.6875 9.93961 90.6278 9.88275 90.54C9.82589 90.4522 9.78717 90.3403 9.77148 90.2186C9.7558 90.0968 9.76385 89.9706 9.79462 89.8559C9.82539 89.7412 9.8775 89.6432 9.94435 89.5742C10.0112 89.5052 10.0898 89.4684 10.1702 89.4684C10.278 89.4684 10.3815 89.5346 10.4577 89.6523C10.5339 89.77 10.5768 89.9297 10.5768 90.0961Z" fill="#FAFAFA"/>
<path d="M13.4604 86.7856H12.2026V92.622H13.4604V86.7856Z" fill="#F5F5F5"/>
<path d="M15.2739 86.7856H14.0161V92.622H15.2739V86.7856Z" fill="#F5F5F5"/>
<path d="M17.0913 86.7856H15.8335V92.622H17.0913V86.7856Z" fill="#F5F5F5"/>
<path d="M18.9052 86.7856H17.6475V92.622H18.9052V86.7856Z" fill="#F5F5F5"/>
<path d="M20.7216 86.7856H19.4639V92.622H20.7216V86.7856Z" fill="#F5F5F5"/>
<path d="M22.5341 86.7856H21.2764V92.622H22.5341V86.7856Z" fill="#F5F5F5"/>
<path d="M24.3515 86.7856H23.0938V92.622H24.3515V86.7856Z" fill="#F5F5F5"/>
<path d="M26.1655 86.7856H24.9077V92.622H26.1655V86.7856Z" fill="#F5F5F5"/>
<path d="M27.9819 86.7856H26.7241V92.622H27.9819V86.7856Z" fill="#F5F5F5"/>
<path d="M29.7954 86.7856H28.5376V92.622H29.7954V86.7856Z" fill="#F5F5F5"/>
<path d="M29.9923 100.469H7.15576V110.396H29.9923V100.469Z" fill="#E0E0E0"/>
<path d="M9.07098 101.715H7.79102V109.312H9.07098V101.715Z" fill="#F5F5F5"/>
<path d="M10.5768 103.314C10.5768 103.438 10.5529 103.56 10.5083 103.663C10.4636 103.766 10.4001 103.846 10.3258 103.894C10.2515 103.942 10.1698 103.954 10.0909 103.93C10.012 103.906 9.93961 103.846 9.88275 103.758C9.82589 103.67 9.78717 103.558 9.77148 103.436C9.7558 103.315 9.76385 103.188 9.79462 103.074C9.82539 102.959 9.8775 102.861 9.94435 102.792C10.0112 102.723 10.0898 102.686 10.1702 102.686C10.278 102.686 10.3815 102.752 10.4577 102.87C10.5339 102.988 10.5768 103.148 10.5768 103.314Z" fill="#FAFAFA"/>
<path d="M10.5768 105.997C10.5768 106.163 10.5339 106.323 10.4577 106.441C10.3815 106.559 10.278 106.625 10.1702 106.625C10.0624 106.625 9.95899 106.559 9.88275 106.441C9.80651 106.323 9.76367 106.163 9.76367 105.997C9.76367 105.83 9.80651 105.671 9.88275 105.553C9.95899 105.435 10.0624 105.369 10.1702 105.369C10.278 105.369 10.3815 105.435 10.4577 105.553C10.5339 105.671 10.5768 105.83 10.5768 105.997Z" fill="#FAFAFA"/>
<path d="M13.4604 102.686H12.2026V108.523H13.4604V102.686Z" fill="#F5F5F5"/>
<path d="M15.2739 102.686H14.0161V108.523H15.2739V102.686Z" fill="#F5F5F5"/>
<path d="M17.0913 102.686H15.8335V108.523H17.0913V102.686Z" fill="#F5F5F5"/>
<path d="M18.9052 102.686H17.6475V108.523H18.9052V102.686Z" fill="#F5F5F5"/>
<path d="M20.7216 102.686H19.4639V108.523H20.7216V102.686Z" fill="#F5F5F5"/>
<path d="M22.5341 102.686H21.2764V108.523H22.5341V102.686Z" fill="#F5F5F5"/>
<path d="M24.3515 102.686H23.0938V108.523H24.3515V102.686Z" fill="#F5F5F5"/>
<path d="M26.1655 102.686H24.9077V108.523H26.1655V102.686Z" fill="#F5F5F5"/>
<path d="M27.9819 102.686H26.7241V108.523H27.9819V102.686Z" fill="#F5F5F5"/>
<path d="M29.7954 102.686H28.5376V108.523H29.7954V102.686Z" fill="#F5F5F5"/>
<path d="M29.9923 116.37H7.15576V126.297H29.9923V116.37Z" fill="#E0E0E0"/>
<path d="M9.07098 117.616H7.79102V125.213H9.07098V117.616Z" fill="#F5F5F5"/>
<path d="M10.5768 119.215C10.5768 119.381 10.5339 119.541 10.4577 119.659C10.3815 119.777 10.278 119.843 10.1702 119.843C10.0624 119.843 9.95899 119.777 9.88275 119.659C9.80651 119.541 9.76367 119.381 9.76367 119.215C9.76367 119.048 9.80651 118.889 9.88275 118.771C9.95899 118.653 10.0624 118.587 10.1702 118.587C10.278 118.587 10.3815 118.653 10.4577 118.771C10.5339 118.889 10.5768 119.048 10.5768 119.215Z" fill="#FAFAFA"/>
<path d="M10.5768 121.903C10.5768 122.027 10.5529 122.148 10.5083 122.251C10.4636 122.355 10.4001 122.435 10.3258 122.483C10.2515 122.53 10.1698 122.543 10.0909 122.518C10.012 122.494 9.93961 122.434 9.88275 122.346C9.82589 122.259 9.78717 122.147 9.77148 122.025C9.7558 121.903 9.76385 121.777 9.79462 121.662C9.82539 121.548 9.8775 121.45 9.94435 121.381C10.0112 121.312 10.0898 121.275 10.1702 121.275C10.278 121.275 10.3815 121.341 10.4577 121.459C10.5339 121.576 10.5768 121.736 10.5768 121.903Z" fill="#FAFAFA"/>
<path d="M13.4604 118.587H12.2026V124.423H13.4604V118.587Z" fill="#F5F5F5"/>
<path d="M15.2739 118.587H14.0161V124.423H15.2739V118.587Z" fill="#F5F5F5"/>
<path d="M17.0913 118.587H15.8335V124.423H17.0913V118.587Z" fill="#F5F5F5"/>
<path d="M18.9052 118.587H17.6475V124.423H18.9052V118.587Z" fill="#F5F5F5"/>
<path d="M20.7216 118.587H19.4639V124.423H20.7216V118.587Z" fill="#F5F5F5"/>
<path d="M22.5341 118.587H21.2764V124.423H22.5341V118.587Z" fill="#F5F5F5"/>
<path d="M24.3515 118.587H23.0938V124.423H24.3515V118.587Z" fill="#F5F5F5"/>
<path d="M26.1655 118.587H24.9077V124.423H26.1655V118.587Z" fill="#F5F5F5"/>
<path d="M27.9819 118.587H26.7241V124.423H27.9819V118.587Z" fill="#F5F5F5"/>
<path d="M29.7954 118.587H28.5376V124.423H29.7954V118.587Z" fill="#F5F5F5"/>
<path d="M29.9923 132.271H7.15576V142.198H29.9923V132.271Z" fill="#E0E0E0"/>
<path d="M9.07098 133.522H7.79102V141.119H9.07098V133.522Z" fill="#F5F5F5"/>
<path d="M10.5767 135.121C10.5755 135.244 10.5506 135.365 10.5051 135.467C10.4597 135.569 10.3958 135.648 10.3214 135.694C10.247 135.74 10.1655 135.751 10.087 135.725C10.0086 135.7 9.93675 135.639 9.88053 135.551C9.8243 135.463 9.78621 135.351 9.77103 135.23C9.75585 135.108 9.76427 134.982 9.79522 134.868C9.82616 134.754 9.87827 134.657 9.94498 134.588C10.0117 134.519 10.09 134.483 10.1702 134.483C10.2241 134.483 10.2775 134.499 10.3272 134.532C10.377 134.564 10.4221 134.611 10.4599 134.67C10.4977 134.73 10.5276 134.8 10.5476 134.877C10.5677 134.955 10.5776 135.037 10.5767 135.121Z" fill="#FAFAFA"/>
<path d="M10.5768 137.803C10.5768 137.928 10.5529 138.049 10.5083 138.152C10.4636 138.255 10.4001 138.336 10.3258 138.383C10.2515 138.431 10.1698 138.443 10.0909 138.419C10.012 138.395 9.93961 138.335 9.88275 138.247C9.82589 138.16 9.78717 138.048 9.77148 137.926C9.7558 137.804 9.76385 137.678 9.79462 137.563C9.82539 137.448 9.8775 137.35 9.94435 137.281C10.0112 137.212 10.0898 137.176 10.1702 137.176C10.278 137.176 10.3815 137.242 10.4577 137.36C10.5339 137.477 10.5768 137.637 10.5768 137.803Z" fill="#FAFAFA"/>
<path d="M13.4604 134.493H12.2026V140.329H13.4604V134.493Z" fill="#F5F5F5"/>
<path d="M15.2739 134.493H14.0161V140.329H15.2739V134.493Z" fill="#F5F5F5"/>
<path d="M17.0913 134.493H15.8335V140.329H17.0913V134.493Z" fill="#F5F5F5"/>
<path d="M18.9052 134.493H17.6475V140.329H18.9052V134.493Z" fill="#F5F5F5"/>
<path d="M20.7216 134.493H19.4639V140.329H20.7216V134.493Z" fill="#F5F5F5"/>
<path d="M22.5341 134.493H21.2764V140.329H22.5341V134.493Z" fill="#F5F5F5"/>
<path d="M24.3515 134.493H23.0938V140.329H24.3515V134.493Z" fill="#F5F5F5"/>
<path d="M26.1655 134.493H24.9077V140.329H26.1655V134.493Z" fill="#F5F5F5"/>
<path d="M27.9819 134.493H26.7241V140.329H27.9819V134.493Z" fill="#F5F5F5"/>
<path d="M29.7954 134.493H28.5376V140.329H29.7954V134.493Z" fill="#F5F5F5"/>
<path d="M29.9923 148.177H7.15576V158.103H29.9923V148.177Z" fill="#E0E0E0"/>
<path d="M9.07098 149.422H7.79102V157.02H9.07098V149.422Z" fill="#F5F5F5"/>
<path d="M10.5768 151.021C10.5768 151.146 10.5529 151.267 10.5083 151.37C10.4636 151.473 10.4001 151.554 10.3258 151.601C10.2515 151.649 10.1698 151.661 10.0909 151.637C10.012 151.613 9.93961 151.553 9.88275 151.465C9.82589 151.378 9.78717 151.266 9.77148 151.144C9.7558 151.022 9.76385 150.896 9.79462 150.781C9.82539 150.666 9.8775 150.568 9.94435 150.499C10.0112 150.43 10.0898 150.394 10.1702 150.394C10.278 150.394 10.3815 150.46 10.4577 150.578C10.5339 150.695 10.5768 150.855 10.5768 151.021Z" fill="#FAFAFA"/>
<path d="M10.5768 153.709C10.5768 153.833 10.5529 153.955 10.5082 154.058C10.4636 154.161 10.4001 154.242 10.3258 154.289C10.2515 154.337 10.1698 154.349 10.0909 154.325C10.012 154.301 9.9396 154.241 9.88275 154.153C9.82589 154.065 9.78717 153.953 9.77148 153.832C9.7558 153.71 9.76385 153.584 9.79462 153.469C9.82539 153.354 9.8775 153.256 9.94435 153.187C10.0112 153.118 10.0898 153.081 10.1702 153.081C10.2237 153.081 10.2768 153.097 10.3263 153.128C10.3758 153.159 10.4208 153.205 10.4586 153.264C10.4965 153.322 10.5264 153.392 10.5467 153.468C10.567 153.545 10.5772 153.627 10.5768 153.709Z" fill="#FAFAFA"/>
<path d="M13.4604 150.394H12.2026V156.23H13.4604V150.394Z" fill="#F5F5F5"/>
<path d="M15.2739 150.394H14.0161V156.23H15.2739V150.394Z" fill="#F5F5F5"/>
<path d="M17.0913 150.394H15.8335V156.23H17.0913V150.394Z" fill="#F5F5F5"/>
<path d="M18.9052 150.394H17.6475V156.23H18.9052V150.394Z" fill="#F5F5F5"/>
<path d="M20.7216 150.394H19.4639V156.23H20.7216V150.394Z" fill="#F5F5F5"/>
<path d="M22.5341 150.394H21.2764V156.23H22.5341V150.394Z" fill="#F5F5F5"/>
<path d="M24.3515 150.394H23.0938V156.23H24.3515V150.394Z" fill="#F5F5F5"/>
<path d="M26.1655 150.394H24.9077V156.23H26.1655V150.394Z" fill="#F5F5F5"/>
<path d="M27.9819 150.394H26.7241V156.23H27.9819V150.394Z" fill="#F5F5F5"/>
<path d="M29.7954 150.394H28.5376V156.23H29.7954V150.394Z" fill="#F5F5F5"/>
<path d="M21.2761 52.7622C21.2634 52.6603 21.2559 52.5569 21.2538 52.4532C21.2538 52.2521 21.2348 51.9627 21.2284 51.5703C21.2221 51.178 21.2284 50.7218 21.1998 50.1774C21.1876 49.5673 21.1344 48.9608 21.041 48.3676C20.9106 47.6654 20.7044 47.0022 20.4312 46.4057C20.12 45.7161 19.6866 45.1797 19.183 44.8608C18.6138 44.5379 18.0163 44.3494 17.4107 44.3016L15.4447 44.0417C12.7481 43.6787 10.3025 43.4482 8.53335 43.3943C7.64721 43.3648 6.94528 43.3697 6.43391 43.3943H5.86221C5.79574 43.4066 5.72857 43.4066 5.66211 43.3943C5.72812 43.3747 5.79502 43.3632 5.86221 43.3599L6.43074 43.306C6.92939 43.2717 7.64721 43.2373 8.53335 43.2422C10.3088 43.2422 12.7608 43.4531 15.4574 43.8161L17.4266 44.0858C18.047 44.1351 18.6587 44.3319 19.2402 44.6695C19.768 45.0113 20.2203 45.582 20.5424 46.3125C20.8221 46.9395 21.0294 47.6364 21.1554 48.3725C21.2431 48.9797 21.2889 49.5995 21.292 50.2216C21.292 50.766 21.292 51.2368 21.292 51.6194C21.292 52.002 21.292 52.2717 21.292 52.5022C21.2923 52.5895 21.287 52.6766 21.2761 52.7622Z" fill="#E0E0E0"/>
<path d="M14.3502 52.7622C14.3436 52.666 14.3436 52.569 14.3502 52.4728C14.3502 52.2521 14.3502 51.9823 14.3502 51.639C14.3502 51.2957 14.3502 50.8396 14.3216 50.3344C14.3036 49.7651 14.2072 49.2084 14.039 48.7012C13.7921 48.1317 13.4303 47.7041 13.0099 47.4848C12.5334 47.1971 12.015 47.1157 11.5107 47.2494C11.2405 47.3174 10.9796 47.455 10.7389 47.6565C10.489 47.8531 10.2807 48.156 10.1386 48.5295C10.0683 48.7165 10.0313 48.9288 10.0313 49.145C10.0313 49.3612 10.0683 49.5736 10.1386 49.7605C10.2103 49.9568 10.3074 50.1281 10.4237 50.2639C10.5401 50.3998 10.6734 50.4972 10.8152 50.5502C10.9561 50.5989 11.1027 50.5921 11.2414 50.5304C11.3802 50.4687 11.5066 50.354 11.6092 50.1971C11.8147 49.8865 11.9409 49.4722 11.9649 49.0298C11.9834 48.5992 11.8986 48.1732 11.7267 47.833C11.5715 47.4904 11.3657 47.2097 11.1264 47.014C10.8839 46.8349 10.6224 46.7252 10.3546 46.6903C10.0973 46.6314 9.84642 46.5824 9.60503 46.5382C9.11908 46.4548 8.65218 46.4058 8.24881 46.3764C7.41666 46.3273 6.74331 46.3469 6.27641 46.342H5.73964C5.6774 46.3537 5.61448 46.3537 5.55225 46.342C5.61255 46.3193 5.67439 46.3078 5.73646 46.3077L6.27323 46.2636C6.74013 46.2341 7.41666 46.19 8.25199 46.2194C8.67124 46.2194 9.12861 46.2734 9.61774 46.3469C9.86548 46.3862 10.1164 46.4352 10.3768 46.4892C10.5071 46.5235 10.6373 46.548 10.7739 46.5873C10.9145 46.628 11.0504 46.7008 11.1772 46.8031C11.439 47.0073 11.6655 47.3049 11.8379 47.6712C12.0309 48.0571 12.1269 48.5381 12.1079 49.0249C12.0845 49.5321 11.9395 50.0077 11.7013 50.3589C11.5783 50.5474 11.4265 50.6849 11.2599 50.7586C11.0934 50.8324 10.9174 50.84 10.7485 50.7807C10.5873 50.7192 10.4357 50.6086 10.3026 50.4553C10.1695 50.302 10.0576 50.1091 9.97347 49.8881C9.89196 49.6633 9.84915 49.41 9.84915 49.1524C9.84915 48.8948 9.89196 48.6415 9.97347 48.4167C10.1291 47.9962 10.3609 47.6552 10.6405 47.4358C10.8978 47.2262 11.1757 47.0837 11.4631 47.014C11.9984 46.8743 12.5483 46.9677 13.0512 47.2837C13.4974 47.5248 13.8779 47.9914 14.1311 48.608C14.3019 49.1409 14.3951 49.7252 14.4042 50.3197C14.4042 50.8347 14.4042 51.3006 14.4042 51.639C14.4042 51.9774 14.4042 52.2472 14.382 52.4679C14.3797 52.5677 14.369 52.6666 14.3502 52.7622Z" fill="#E0E0E0"/>
<path d="M23.1409 52.7622C23.1194 52.6548 23.1035 52.5449 23.0933 52.4336C23.0679 52.2178 23.0298 51.899 22.9726 51.4919C22.8169 50.3397 22.5903 49.2131 22.2961 48.1273C21.8821 46.5098 21.1969 45.0913 20.311 44.0173C19.7757 43.4204 19.148 43.0516 18.4911 42.9481C17.7812 42.8282 17.0676 42.7693 16.3535 42.7715C13.3997 42.6882 10.7254 42.7029 8.79111 42.5852C7.83827 42.5312 7.04105 42.4577 6.50111 42.3988L5.86588 42.3154C5.79303 42.3099 5.72069 42.2935 5.6499 42.2664C5.72285 42.258 5.79611 42.258 5.86906 42.2664L6.50429 42.3056C7.04423 42.335 7.82556 42.3792 8.79429 42.4086C10.7286 42.4822 13.3997 42.4331 16.3567 42.5214C17.0783 42.5183 17.7995 42.5805 18.5165 42.7078C19.199 42.8185 19.8502 43.2078 20.4031 43.8358C20.8944 44.4126 21.3232 45.1062 21.6735 45.8909C21.9688 46.5739 22.2179 47.3019 22.4168 48.0636C22.7064 49.1701 22.9193 50.321 23.052 51.4968C23.0996 51.9088 23.1282 52.2276 23.1441 52.4483C23.1491 52.5529 23.1481 52.6579 23.1409 52.7622Z" fill="#E0E0E0"/>
<path d="M29.6784 33.9627H7.4707V38.9408H29.6784V33.9627Z" fill="#E0E0E0"/>
<path d="M24.4441 36.4493H12.3525V38.9408H24.4441V36.4493Z" fill="#F5F5F5"/>
<path d="M199.717 159.335H199.202H197.687L191.868 159.393L170.467 159.555L99.8583 159.928C72.2766 160.016 47.3121 160.031 29.2398 159.928C20.2036 159.884 12.8921 159.81 7.83884 159.712C5.29792 159.658 3.35094 159.599 2.02013 159.536C0.689321 159.472 -0.00943229 159.379 9.61623e-05 159.32C0.0417504 159.337 0.0842479 159.348 0.127143 159.354C0.212899 159.354 0.339945 159.389 0.511457 159.403C0.851305 159.433 1.35631 159.457 2.02331 159.482C3.35094 159.531 5.3138 159.575 7.83884 159.609C12.8921 159.683 20.2036 159.727 29.2398 159.747C47.3121 159.791 72.2766 159.747 99.8583 159.658L170.467 159.393L191.868 159.315H197.687H199.202C199.542 159.325 199.717 159.335 199.717 159.335Z" fill="#263238"/>
<path d="M152.627 49.7262C152.509 49.1394 152.254 48.6419 151.91 48.3323C151.567 48.0226 151.16 47.9232 150.772 48.0537C150.495 48.2345 150.201 48.3486 149.902 48.3921C149.642 48.323 149.391 48.1853 149.162 47.985C148.586 47.6501 147.948 47.6754 147.384 48.0555C146.82 48.4356 146.374 49.1406 146.141 50.0205C145.768 49.6996 145.342 49.5563 144.916 49.6085C144.49 49.6607 144.084 49.9061 143.748 50.3139C143.412 50.7217 143.162 51.2737 143.029 51.9004C142.896 52.5271 142.886 53.2006 143 53.8363C142.598 53.9554 142.231 54.2714 141.954 54.7375C141.677 55.2037 141.505 55.7951 141.463 56.4241C141.421 57.0532 141.511 57.6865 141.721 58.2301C141.93 58.7737 142.247 59.1987 142.625 59.4422C142.455 59.9123 142.362 60.4396 142.355 60.9779C142.347 61.5162 142.425 62.0492 142.582 62.5302C142.739 63.0112 142.969 63.4256 143.254 63.7371C143.538 64.0487 143.867 64.2479 144.213 64.3174C144.158 64.8978 144.214 65.4905 144.374 66.0221C144.535 66.5538 144.793 67.0012 145.116 67.3091C145.44 67.6169 145.814 67.7717 146.194 67.7543C146.574 67.7369 146.942 67.5481 147.253 67.2112C147.34 67.773 147.531 68.2836 147.803 68.6808C148.075 69.078 148.415 69.3448 148.783 69.4487C149.151 69.5527 149.531 69.4892 149.876 69.2661C150.221 69.043 150.517 68.6699 150.727 68.1921C151.385 69.227 152.579 69.0749 153.268 68.094C153.958 67.1131 154.193 65.5387 154.088 64.1016C154.494 64.2917 154.929 64.2777 155.33 64.0617C155.731 63.8458 156.078 63.439 156.32 62.8998C156.561 62.3606 156.686 61.7169 156.676 61.0613C156.666 60.4056 156.522 59.7718 156.263 59.251C156.609 59.1958 156.936 58.9851 157.204 58.645C157.472 58.3048 157.67 57.8504 157.772 57.3382C157.866 56.8221 157.881 56.2791 157.815 55.7527C157.748 55.2264 157.603 54.7313 157.391 54.3071C156.956 53.463 156.342 52.883 155.657 52.669C155.602 52.1848 155.482 51.7237 155.305 51.3156C155.127 50.9074 154.897 50.5613 154.627 50.2997C154.358 50.038 154.056 49.8666 153.741 49.7965C153.426 49.7265 153.105 49.7593 152.798 49.8929" fill="#263238"/>
<path d="M150.08 119.161L149.295 157.927H148.101L148.333 119.264L150.08 119.161Z" fill="#455A64"/>
<path d="M154.394 118.695L160.288 159.609L161.568 159.516L156.699 118.695H154.394Z" fill="#455A64"/>
<path d="M143.502 119.161L136.632 159.609L135.117 159.516L141.578 118.989L143.502 119.161Z" fill="#455A64"/>
<path d="M160.221 79.0606C160.221 79.0606 166.637 78.4966 165.996 89.9587C165.354 101.421 164.986 113.01 162.603 116.988C160.221 120.966 136.213 121.088 134.196 117.837C132.179 114.585 138.046 114.722 139.144 114.722C140.243 114.722 147.024 115.703 149.226 106.796C151.427 97.8895 150.874 78.4818 160.221 79.0606Z" fill="#455A64"/>
<path d="M160.632 79.0608C160.632 79.0608 165.536 80.6106 165.078 88.5365C164.621 96.4623 163.338 110.328 160.949 113.869C158.561 117.41 149.229 118.175 144.179 117.69C138.313 117.121 134.61 115.399 134.61 115.399C134.61 115.399 133.539 116.463 133.866 117.145C134.194 117.827 137.043 120.578 150.913 120.127C164.783 119.676 163.811 116.508 164.386 113.06C164.961 109.612 166.168 91.2144 165.999 87.1681C165.831 83.1218 164.519 79.7621 160.632 79.0608Z" fill="#455A64"/>
<path d="M131.096 157.152L131.08 152.63L136.55 152.527L136.62 159.124L136.28 159.163C134.774 159.32 128.603 159.801 127.59 159.349C126.462 158.854 131.096 157.152 131.096 157.152Z" fill="#FF725E"/>
<g opacity="0.4">
<path opacity="0.4" d="M134.638 159.109C134.713 158.395 134.956 157.749 135.321 157.294C135.677 156.843 136.131 156.616 136.591 156.657L136.61 159.016L134.638 159.109Z" fill="black"/>
</g>
<path opacity="0.4" d="M128.832 158.109C128.832 158.109 127.209 158.864 127.415 159.276C127.622 159.688 133.869 159.565 136.626 159.138V158.947L129.34 159.187C129.34 159.187 129.152 158.123 128.832 158.109Z" fill="black"/>
<path d="M136.702 158.942H136.607L136.337 158.972L135.346 159.055C134.504 159.119 133.345 159.183 132.062 159.212C130.778 159.241 129.619 159.212 128.777 159.212L127.783 159.168H127.513H127.418H127.783H128.781C129.619 159.168 130.778 159.168 132.062 159.168C133.345 159.168 134.504 159.089 135.343 159.045L136.337 158.991H136.607L136.702 158.942Z" fill="#263238"/>
<path d="M129.328 159.32C129.283 159.066 129.219 158.82 129.137 158.589C129.036 158.383 128.921 158.194 128.794 158.025C128.96 158.132 129.099 158.316 129.195 158.55C129.29 158.784 129.337 159.058 129.328 159.335V159.32Z" fill="#263238"/>
<path d="M130.931 158.025C130.915 158.025 130.839 157.898 130.756 157.701C130.698 157.592 130.656 157.463 130.636 157.324C130.652 157.324 130.731 157.456 130.814 157.647C130.896 157.839 130.947 158.025 130.931 158.025Z" fill="#263238"/>
<path d="M131.373 157.652C131.373 157.652 131.272 157.589 131.176 157.456C131.081 157.324 131.014 157.206 131.027 157.187C131.04 157.167 131.125 157.25 131.221 157.383C131.316 157.515 131.383 157.633 131.373 157.652Z" fill="#263238"/>
<path d="M131.646 156.848C131.555 156.904 131.457 156.926 131.36 156.912C131.264 156.932 131.166 156.919 131.074 156.873C131.165 156.817 131.263 156.795 131.36 156.809C131.456 156.792 131.553 156.805 131.646 156.848Z" fill="#263238"/>
<path d="M131.738 156.284C131.645 156.386 131.534 156.439 131.42 156.436C131.313 156.465 131.202 156.442 131.103 156.372C131.207 156.344 131.314 156.331 131.42 156.333C131.525 156.303 131.631 156.287 131.738 156.284Z" fill="#263238"/>
<path d="M130.74 157.29C130.623 157.32 130.504 157.32 130.387 157.29C130.26 157.267 130.135 157.226 130.013 157.167C129.937 157.138 129.864 157.094 129.797 157.034C129.755 156.998 129.723 156.938 129.708 156.868C129.703 156.827 129.705 156.786 129.714 156.748C129.724 156.709 129.74 156.676 129.762 156.652C129.894 156.546 130.047 156.515 130.193 156.565C130.339 156.615 130.468 156.743 130.559 156.927C130.615 157.032 130.655 157.156 130.676 157.29C130.684 157.336 130.684 157.385 130.676 157.432C130.638 157.266 130.583 157.112 130.511 156.976C130.431 156.833 130.327 156.729 130.21 156.676C130.141 156.642 130.068 156.63 129.997 156.639C129.925 156.648 129.855 156.679 129.79 156.73C129.733 156.794 129.759 156.897 129.819 156.951C129.882 157.006 129.949 157.048 130.019 157.079C130.137 157.14 130.258 157.186 130.381 157.216C130.607 157.275 130.74 157.275 130.74 157.29Z" fill="#263238"/>
<path d="M130.648 157.319C130.606 157.204 130.592 157.071 130.607 156.941C130.615 156.799 130.647 156.662 130.699 156.544C130.728 156.463 130.77 156.394 130.82 156.344C130.871 156.295 130.928 156.265 130.988 156.259C131.024 156.27 131.056 156.302 131.077 156.349C131.098 156.396 131.106 156.454 131.099 156.51C131.092 156.597 131.072 156.68 131.042 156.755C130.997 156.875 130.941 156.986 130.877 157.083C130.825 157.183 130.757 157.26 130.68 157.309C130.68 157.309 130.747 157.211 130.842 157.039C130.898 156.937 130.947 156.827 130.988 156.711C131.036 156.593 131.068 156.387 130.988 156.362C130.909 156.338 130.81 156.49 130.76 156.598C130.709 156.702 130.676 156.823 130.661 156.951C130.65 157.073 130.646 157.196 130.648 157.319Z" fill="#263238"/>
<path d="M136.565 156.632C136.565 156.632 136.406 156.632 136.162 156.662C135.841 156.728 135.538 156.928 135.285 157.24C135.035 157.561 134.847 157.982 134.742 158.457C134.663 158.82 134.656 159.06 134.644 159.06C134.637 159.003 134.637 158.945 134.644 158.888C134.651 158.734 134.669 158.581 134.698 158.432C134.791 157.934 134.981 157.491 135.241 157.162C135.501 156.834 135.82 156.635 136.155 156.593C136.261 156.573 136.368 156.573 136.473 156.593C136.505 156.6 136.536 156.613 136.565 156.632Z" fill="#263238"/>
<path d="M135.968 153.121C136.033 154.273 136.052 155.432 136.025 156.588C135.964 155.435 135.945 154.277 135.968 153.121Z" fill="#263238"/>
<path d="M133.943 158.3C133.419 158.463 132.882 158.481 132.354 158.354C132.354 158.324 132.713 158.354 133.155 158.354C133.596 158.354 133.939 158.27 133.943 158.3Z" fill="#263238"/>
<path d="M135.011 158.275C135.011 158.275 134.983 158.393 134.948 158.521C134.914 158.648 134.895 158.761 134.876 158.761C134.857 158.761 134.847 158.624 134.876 158.481C134.904 158.339 134.998 158.256 135.011 158.275Z" fill="#263238"/>
<path d="M135.409 157.49C135.425 157.49 135.39 157.598 135.333 157.687C135.276 157.775 135.222 157.834 135.209 157.814C135.196 157.794 135.228 157.706 135.285 157.618C135.342 157.53 135.396 157.471 135.409 157.49Z" fill="#263238"/>
<path d="M135.988 157.123C135.988 157.152 135.908 157.152 135.829 157.201C135.749 157.25 135.692 157.314 135.679 157.294C135.667 157.275 135.708 157.157 135.807 157.103C135.905 157.049 135.991 157.098 135.988 157.123Z" fill="#263238"/>
<path d="M136.383 156.951C136.383 156.976 136.358 157.02 136.314 157.049C136.27 157.079 136.226 157.079 136.22 157.049C136.213 157.02 136.245 156.98 136.289 156.951C136.333 156.922 136.383 156.922 136.383 156.951Z" fill="#263238"/>
<path d="M143.528 157.152L143.509 152.645L148.981 152.542L149.051 159.139L148.711 159.178C147.203 159.335 141.035 159.815 140.021 159.364C138.891 158.854 143.528 157.152 143.528 157.152Z" fill="#FF725E"/>
<g opacity="0.4">
<path opacity="0.4" d="M147.066 159.109C147.141 158.395 147.384 157.749 147.749 157.294C148.106 156.844 148.559 156.617 149.019 156.657L149.041 159.016L147.066 159.109Z" fill="black"/>
</g>
<path opacity="0.4" d="M141.262 158.109C141.262 158.109 139.639 158.864 139.846 159.276C140.052 159.688 146.297 159.565 149.057 159.138V158.947L141.774 159.187C141.774 159.187 141.58 158.123 141.262 158.109Z" fill="black"/>
<path d="M149.125 158.942H149.033L148.772 159.006L147.778 159.089C146.939 159.153 145.777 159.217 144.497 159.246C143.217 159.276 142.051 159.246 141.213 159.246L140.219 159.202H139.946H139.854H140.197H141.191C142.029 159.202 143.192 159.202 144.472 159.202C145.752 159.202 146.914 159.124 147.753 159.08L148.747 159.026H149.02L149.125 158.942Z" fill="#263238"/>
<path d="M141.758 159.32C141.711 159.066 141.646 158.821 141.564 158.589C141.465 158.376 141.35 158.182 141.221 158.01C141.392 158.103 141.535 158.29 141.621 158.535C141.726 158.763 141.775 159.041 141.758 159.32Z" fill="#263238"/>
<path d="M143.372 158.025C143.356 158.025 143.276 157.898 143.194 157.701C143.111 157.505 143.06 157.343 143.076 157.324C143.092 157.304 143.168 157.456 143.251 157.647C143.309 157.758 143.35 157.887 143.372 158.025Z" fill="#263238"/>
<path d="M143.8 157.652C143.8 157.652 143.702 157.589 143.606 157.456C143.511 157.324 143.445 157.206 143.454 157.187C143.464 157.167 143.556 157.25 143.651 157.383C143.746 157.515 143.813 157.633 143.8 157.652Z" fill="#263238"/>
<path d="M144.074 156.848C143.984 156.903 143.887 156.925 143.791 156.912C143.694 156.932 143.595 156.918 143.502 156.872C143.593 156.817 143.691 156.795 143.788 156.809C143.884 156.791 143.981 156.805 144.074 156.848Z" fill="#263238"/>
<path d="M144.166 156.284C144.073 156.386 143.962 156.439 143.848 156.436C143.741 156.464 143.63 156.442 143.531 156.372C143.636 156.345 143.742 156.332 143.848 156.333C143.953 156.304 144.059 156.287 144.166 156.284Z" fill="#263238"/>
<path d="M143.168 157.29C143.053 157.32 142.935 157.32 142.819 157.29C142.691 157.268 142.564 157.227 142.441 157.167C142.366 157.138 142.295 157.094 142.228 157.034C142.207 157.017 142.188 156.993 142.173 156.965C142.158 156.936 142.146 156.903 142.139 156.868C142.133 156.828 142.135 156.786 142.144 156.748C142.153 156.71 142.169 156.676 142.19 156.652C142.276 156.581 142.371 156.541 142.468 156.536C142.565 156.531 142.662 156.56 142.751 156.622C142.839 156.684 142.918 156.776 142.98 156.891C143.041 157.007 143.085 157.143 143.108 157.29C143.114 157.336 143.114 157.385 143.108 157.432C143.07 157.266 143.014 157.112 142.943 156.976C142.864 156.832 142.759 156.728 142.641 156.676C142.572 156.642 142.5 156.63 142.428 156.639C142.356 156.648 142.286 156.679 142.222 156.73C142.168 156.794 142.19 156.897 142.254 156.951C142.316 157.006 142.382 157.048 142.45 157.079C142.569 157.141 142.692 157.187 142.816 157.216C143.035 157.275 143.168 157.275 143.168 157.29Z" fill="#263238"/>
<path d="M143.08 157.319C143.057 157.264 143.041 157.202 143.033 157.137C143.025 157.072 143.026 157.005 143.036 156.941C143.045 156.799 143.077 156.663 143.128 156.544C143.157 156.462 143.199 156.393 143.25 156.343C143.301 156.293 143.36 156.265 143.42 156.259C143.456 156.271 143.487 156.304 143.507 156.351C143.527 156.397 143.535 156.454 143.528 156.51C143.522 156.597 143.502 156.681 143.471 156.755C143.427 156.875 143.372 156.985 143.309 157.083C143.255 157.182 143.186 157.26 143.109 157.309C143.109 157.309 143.179 157.211 143.274 157.039C143.328 156.937 143.376 156.827 143.417 156.711C143.464 156.593 143.496 156.387 143.417 156.362C143.337 156.338 143.242 156.49 143.188 156.598C143.14 156.704 143.108 156.824 143.093 156.951C143.08 157.072 143.076 157.196 143.08 157.319Z" fill="#263238"/>
<path d="M148.994 156.632C148.994 156.632 148.838 156.632 148.59 156.662C148.27 156.728 147.967 156.928 147.714 157.24C147.465 157.561 147.278 157.982 147.174 158.457C147.091 158.82 147.085 159.06 147.072 159.06C147.066 159.003 147.066 158.945 147.072 158.888C147.079 158.733 147.098 158.58 147.129 158.432C147.224 157.934 147.413 157.492 147.673 157.162C147.934 156.837 148.253 156.639 148.587 156.593C148.686 156.575 148.787 156.575 148.886 156.593C148.923 156.598 148.959 156.611 148.994 156.632Z" fill="#263238"/>
<path d="M148.4 153.121C148.461 154.274 148.48 155.431 148.456 156.588C148.391 155.435 148.372 154.277 148.4 153.121Z" fill="#263238"/>
<path d="M146.37 158.3C145.847 158.463 145.309 158.481 144.782 158.354C144.782 158.324 145.141 158.354 145.583 158.354C146.024 158.354 146.367 158.27 146.37 158.3Z" fill="#263238"/>
<path d="M147.442 158.275C147.442 158.275 147.414 158.393 147.379 158.521C147.345 158.648 147.323 158.761 147.307 158.761C147.291 158.761 147.275 158.624 147.307 158.481C147.338 158.339 147.43 158.256 147.442 158.275Z" fill="#263238"/>
<path d="M147.842 157.49C147.842 157.49 147.819 157.598 147.765 157.687C147.711 157.775 147.651 157.834 147.638 157.814C147.626 157.794 147.661 157.706 147.715 157.618C147.769 157.53 147.819 157.471 147.842 157.49Z" fill="#263238"/>
<path d="M148.417 157.123C148.417 157.152 148.341 157.152 148.261 157.201C148.182 157.25 148.124 157.314 148.109 157.294C148.093 157.275 148.137 157.157 148.239 157.103C148.341 157.049 148.423 157.098 148.417 157.123Z" fill="#263238"/>
<path d="M148.823 156.951C148.823 156.976 148.798 157.02 148.754 157.049C148.71 157.079 148.669 157.079 148.663 157.049C148.657 157.02 148.685 156.98 148.729 156.951C148.773 156.922 148.817 156.922 148.823 156.951Z" fill="#263238"/>
<path d="M132.938 64.3811C132.556 70.2667 131.55 88.1195 136.831 87.4966C143.066 86.7658 144.502 79.1587 144.502 79.1587L143.289 72.2923C143.289 72.2923 137.136 80.5762 136.978 79.5511C136.114 74.0825 136.342 66.5833 136.482 63.9103" fill="#FFBE9D"/>
<path d="M160.523 85.4368L159.456 77.1774C158.672 70.4139 152.532 69.948 152.532 69.948L147.714 69.8254C147.714 69.8254 144.503 69.6684 141.937 72.9251C139.37 76.1818 137.655 78.6733 137.655 78.6733L141.689 85.8733L144.074 83.421C144.074 83.421 143.217 85.8144 143.36 87.8351C143.493 89.797 144.827 91.3027 144.827 91.3027L145.145 103.957L159.437 104.197L157.522 85.4368H160.523Z" fill="#FF725E"/>
<path d="M153.793 76.6673C153.833 76.8374 153.86 77.0133 153.876 77.1921L154.063 78.6635C154.222 79.9485 154.432 81.6063 154.664 83.4455C154.895 85.2847 155.089 87.016 155.216 88.2471C155.28 88.8651 155.324 89.3653 155.35 89.7185C155.371 89.898 155.378 90.0807 155.372 90.2629C155.329 90.0926 155.3 89.9146 155.286 89.7332L155.102 88.2863C154.94 87.0013 154.73 85.3435 154.502 83.4994C154.273 81.6553 154.073 79.9338 153.946 78.6978C153.885 78.0799 153.838 77.5796 153.812 77.2265C153.79 77.0422 153.784 76.8542 153.793 76.6673Z" fill="#263238"/>
<path d="M160.625 85.5152C159.658 85.6514 158.688 85.7005 157.718 85.6622C156.748 85.7066 155.777 85.6689 154.809 85.5495C155.775 85.4133 156.745 85.3642 157.715 85.4024C158.686 85.3581 159.657 85.3958 160.625 85.5152Z" fill="#263238"/>
<path d="M141.679 85.8732C140.971 84.7352 140.303 83.5401 139.678 82.2929C139.01 81.0995 138.385 79.8519 137.804 78.5556C138.512 79.6911 139.18 80.8847 139.805 82.131C140.472 83.3255 141.098 84.5747 141.679 85.8732Z" fill="#263238"/>
<path d="M143.372 85.5692C143.441 85.2274 143.535 84.8985 143.651 84.5882L143.991 83.5386C144.165 83.1679 144.249 82.715 144.229 82.2585C144.112 81.2776 144 80.3457 143.934 79.6884C143.88 79.3332 143.853 78.9694 143.854 78.6045C143.945 78.9416 144.01 79.2938 144.048 79.6541C144.143 80.3113 144.274 81.204 144.394 82.2242C144.427 82.4907 144.406 82.7665 144.334 83.0138C144.273 83.2305 144.204 83.4418 144.128 83.6465L143.753 84.6765C143.649 84.9964 143.521 85.296 143.372 85.5692Z" fill="#263238"/>
<path opacity="0.2" d="M145.102 102.353L144.896 97.6443H158.671L159.195 101.73L145.102 102.353Z" fill="black"/>
<path opacity="0.2" d="M153.923 77.4127C153.987 80.2933 154.048 83.1723 154.107 86.0497C154.18 86.9761 154.096 87.9157 153.863 88.7767C153.383 90.1843 152.249 90.6454 151.243 90.9642L145.103 92.926L156.477 92.0677L153.923 77.4127Z" fill="black"/>
<path d="M161.181 92.058C160.863 88.0902 160.527 85.53 160.527 85.53L154.93 85.6624C154.93 85.6624 155.432 90.0275 155.28 91.1948C155.143 92.21 144.348 92.882 141.537 92.9506C141.368 92.7594 141.124 93.0831 140.901 92.7937C140.71 92.5334 140.549 92.225 140.425 91.8814C140.256 91.4614 140.126 91.0076 140.037 90.5327C140.033 90.4382 140.009 90.3485 139.969 90.2767C139.929 90.2049 139.875 90.1549 139.815 90.134C139.756 90.1131 139.693 90.1224 139.637 90.1607C139.581 90.1989 139.534 90.264 139.504 90.3463C139.393 90.7191 139.52 91.955 140.053 93.1517C140.587 94.3485 139.186 93.7256 138.675 93.5147C138.164 93.3038 136.553 92.7643 136.388 92.9654C136.144 93.2547 136.296 93.7207 136.814 93.9169C137.331 94.113 138.85 94.8585 138.767 95.2803C138.684 95.7021 136.08 94.5642 136.08 94.5642C136.08 94.5642 135.55 94.1768 135.445 94.6623C135.254 95.5354 138.075 96.4231 138.348 96.4967C138.535 96.5457 138.453 97.0116 138.256 96.943C138.059 96.8743 135.673 95.7119 135.473 96.5997C135.318 97.2814 137.792 97.3599 138.202 98.0367C138.611 98.7135 136.331 97.6689 136.198 98.331C136.15 98.5762 137.1 98.689 138.462 98.9882C139.863 99.1947 141.27 99.2716 142.677 99.2187C145.853 99.4836 157.017 99.8416 159.402 99.5816C162.188 99.2776 161.289 93.4215 161.181 92.058Z" fill="#FFBE9D"/>
<path d="M161.105 80.9687H161.187C161.244 80.9687 161.327 81.0079 161.432 81.052C161.739 81.2034 162.032 81.4144 162.305 81.6798C162.735 82.0984 163.137 82.5814 163.506 83.1218C163.722 83.4357 163.944 83.7839 164.166 84.1763C164.404 84.5864 164.617 85.0297 164.802 85.5005C164.853 85.631 164.895 85.769 164.929 85.9125C164.951 86.0547 164.973 86.2019 164.999 86.349C165.043 86.6433 165.097 86.9376 165.138 87.2466C165.215 87.8646 165.294 88.5071 165.345 89.1839C165.459 90.6171 165.496 92.0623 165.456 93.5049C165.333 96.8059 164.974 100.076 164.386 103.255C164.12 104.923 163.784 106.561 163.379 108.16C162.99 109.647 162.47 111.045 161.835 112.314C161.54 112.907 161.206 113.451 160.838 113.938C160.476 114.372 160.083 114.741 159.666 115.036C158.917 115.535 158.142 115.937 157.35 116.238C155.905 116.807 154.724 117.16 153.911 117.43L152.958 117.734L152.713 117.807H152.627L152.71 117.763L152.948 117.665C153.161 117.582 153.475 117.459 153.882 117.312C154.689 117.013 155.87 116.635 157.306 116.046C158.088 115.734 158.853 115.325 159.593 114.825C159.996 114.531 160.378 114.169 160.73 113.746C161.088 113.265 161.413 112.729 161.702 112.147C162.323 110.892 162.832 109.513 163.214 108.047C163.614 106.463 163.946 104.839 164.208 103.187C164.795 100.025 165.157 96.7733 165.288 93.4902C165.331 92.0596 165.299 90.6261 165.192 89.2035C165.145 88.5365 165.072 87.894 164.995 87.2809C164.957 86.9768 164.906 86.6825 164.862 86.3883L164.795 85.9567C164.768 85.8259 164.731 85.7007 164.684 85.5839C164.498 85.121 164.285 84.6844 164.049 84.2793C163.833 83.8869 163.614 83.5338 163.414 83.2199C163.053 82.6752 162.661 82.1826 162.242 81.7485C161.977 81.4771 161.692 81.2548 161.394 81.0864C161.296 81.0555 161.199 81.0162 161.105 80.9687Z" fill="#263238"/>
<path d="M136.274 65.3276C136.274 65.3276 136.359 64.6949 136.502 62.8753L137.814 58.9173C137.814 58.9173 137.522 58.0884 136.861 59.8443C136.793 60.083 136.667 60.2703 136.51 60.365C136.353 60.4598 136.177 60.4542 136.023 60.3495C135.868 60.2448 135.747 60.0495 135.686 59.8067C135.624 59.5639 135.628 59.2934 135.696 59.0547C135.738 58.7475 135.837 58.466 135.981 58.2448C136.125 58.0236 136.308 57.8724 136.507 57.8098C136.707 57.7473 136.913 57.7761 137.102 57.8927C137.291 58.0093 137.453 58.2086 137.57 58.4661C137.57 58.4661 137.989 58.5299 138.036 58.0296C138.084 57.5293 137.138 56.2737 136.334 56.6367C136.005 56.7975 135.702 57.0632 135.445 57.4165C135.445 57.4165 135.619 53.2525 135.4 53.2133C135.181 53.174 134.876 53.434 134.711 57.9953C134.711 57.9953 134.619 54.3953 134.574 53.9342C134.53 53.4732 134.127 53.1642 134.076 54.3168C134.076 54.4492 133.923 57.9854 133.923 57.9854C133.923 57.9854 133.663 55.646 133.634 55.4596C133.558 54.9691 133.244 55.0182 133.215 55.6705C133.19 56.1609 133.088 58.2846 133.088 58.2846L132.891 64.8078H132.866" fill="#FFBE9D"/>
<path d="M147.308 71.9881C147.276 69.8595 147.222 67.6328 147.222 67.6328C147.222 67.6328 145.189 67.2405 145.1 64.0328C145.011 60.8252 145.221 53.4438 145.221 53.4438L148.962 50.6677L152.231 56.4209L152.278 71.8802C152.28 72.3862 152.217 72.8877 152.093 73.3559C151.968 73.8241 151.785 74.2498 151.554 74.6084C151.323 74.9671 151.049 75.2518 150.746 75.446C150.443 75.6402 150.119 75.7402 149.791 75.7402C149.142 75.7404 148.518 75.3478 148.054 74.6465C147.59 73.9451 147.322 72.9908 147.308 71.9881Z" fill="#FFBE9D"/>
<path d="M145.745 58.839C145.745 58.9183 145.76 58.9959 145.788 59.0619C145.817 59.128 145.857 59.1795 145.905 59.2101C145.952 59.2407 146.004 59.2489 146.055 59.2338C146.105 59.2187 146.152 59.1808 146.188 59.1251C146.225 59.0693 146.25 58.9981 146.26 58.9204C146.271 58.8427 146.266 58.762 146.247 58.6885C146.227 58.6149 146.194 58.5517 146.152 58.507C146.11 58.4622 146.06 58.4378 146.008 58.4368C145.939 58.4368 145.872 58.479 145.823 58.5543C145.774 58.6296 145.745 58.7319 145.745 58.839Z" fill="#263238"/>
<path d="M145.318 58.3876C145.35 58.4416 145.544 58.1866 145.823 58.1718C146.103 58.1571 146.309 58.3729 146.338 58.3141C146.366 58.2552 146.319 58.1915 146.23 58.0885C146.109 57.9583 145.964 57.8929 145.817 57.9021C145.668 57.9119 145.526 57.9982 145.413 58.1473C145.331 58.2601 145.302 58.3631 145.318 58.3876Z" fill="#263238"/>
<path d="M148.771 58.839C148.771 58.9183 148.786 58.9959 148.815 59.0619C148.843 59.128 148.884 59.1795 148.931 59.2101C148.978 59.2407 149.031 59.2489 149.081 59.2338C149.132 59.2187 149.178 59.1808 149.214 59.1251C149.251 59.0693 149.276 58.9981 149.287 58.9204C149.297 58.8427 149.292 58.762 149.273 58.6885C149.254 58.6149 149.221 58.5517 149.178 58.507C149.136 58.4622 149.086 58.4378 149.035 58.4368C148.965 58.4368 148.899 58.479 148.849 58.5543C148.8 58.6296 148.772 58.7319 148.771 58.839Z" fill="#263238"/>
<path d="M148.407 58.4613C148.439 58.5104 148.633 58.2602 148.912 58.2455C149.192 58.2308 149.398 58.4466 149.427 58.3878C149.455 58.3289 149.408 58.2652 149.319 58.1622C149.198 58.032 149.053 57.9665 148.906 57.9758C148.758 57.9863 148.616 58.0707 148.502 58.2161C148.42 58.3436 148.391 58.4613 148.407 58.4613Z" fill="#263238"/>
<path d="M147.358 62.1691C147.21 62.1032 147.057 62.067 146.903 62.0612C146.834 62.0612 146.767 62.0367 146.751 61.9533C146.746 61.8332 146.761 61.713 146.796 61.6051C146.862 61.3157 146.929 61.0117 146.999 60.6929C147.187 59.9204 147.337 59.1268 147.447 58.3191C147.222 59.0682 147.034 59.8419 146.884 60.634C146.818 60.9528 146.754 61.2569 146.691 61.5462C146.644 61.6992 146.633 61.8724 146.659 62.0367C146.669 62.0763 146.686 62.1116 146.707 62.1397C146.728 62.1678 146.753 62.188 146.78 62.1985C146.819 62.2154 146.86 62.2237 146.9 62.2231C147.054 62.2354 147.207 62.2172 147.358 62.1691Z" fill="#263238"/>
<path d="M147.221 67.6329C148.186 67.596 149.122 67.1237 149.915 66.2743C149.915 66.2743 149.279 68.609 147.256 68.4226L147.221 67.6329Z" fill="#EB996E"/>
<path d="M147.46 63.2972C147.477 63.1629 147.515 63.0369 147.57 62.9301C147.625 62.8233 147.697 62.7388 147.778 62.684C147.835 62.6439 147.896 62.6231 147.959 62.6231C148.021 62.6231 148.083 62.6439 148.14 62.684C148.196 62.7307 148.242 62.8024 148.272 62.8899C148.301 62.9775 148.313 63.0766 148.305 63.1746C148.289 63.2798 148.253 63.3752 148.201 63.4486C148.15 63.522 148.085 63.5701 148.016 63.5866C147.878 63.6204 147.737 63.607 147.603 63.5474C147.565 63.5365 147.528 63.5149 147.495 63.4836C147.479 63.4682 147.466 63.4454 147.458 63.4182C147.45 63.3911 147.447 63.3609 147.451 63.3315" fill="#EB996E"/>
<path d="M148.137 62.1495C148.159 62.1495 148.194 62.2672 148.185 62.4781C148.169 62.7567 148.088 63.0167 147.956 63.2085C147.824 63.4003 147.651 63.5104 147.47 63.5178C147.333 63.5178 147.257 63.4589 147.26 63.4295C147.264 63.4001 147.578 63.3952 147.842 63.0225C148.105 62.6497 148.105 62.1495 148.137 62.1495Z" fill="#263238"/>
<path d="M142.171 77.3294C142.21 76.8689 142.3 76.4222 142.438 76.01C142.529 75.5655 142.671 75.15 142.857 74.7838C142.821 75.2465 142.731 75.6951 142.591 76.1081C142.503 76.5527 142.36 76.9673 142.171 77.3294Z" fill="#263238"/>
<path d="M146.917 78.3985C146.267 78.068 145.696 77.4446 145.278 76.6085C145.839 77.1805 146.39 77.7774 146.929 78.3985H146.917Z" fill="#263238"/>
<path d="M146.325 72.0666C145.891 72.478 145.403 72.7375 144.896 72.8268C145.101 72.5897 145.336 72.4225 145.585 72.3364C145.816 72.1645 146.069 72.0725 146.325 72.0666Z" fill="#263238"/>
<path d="M146.008 84.9463C146.337 83.9232 146.766 82.9838 147.279 82.1605C147.135 82.6906 146.942 83.1861 146.707 83.6319C146.516 84.1193 146.281 84.5619 146.008 84.9463Z" fill="#263238"/>
<path d="M146.278 90.2188C145.945 89.9379 145.64 89.5843 145.373 89.1691C145.071 88.8148 144.803 88.3971 144.576 87.9281C145.212 88.5601 145.786 89.3317 146.278 90.2188Z" fill="#263238"/>
<path d="M148.675 89.7234C148.556 89.2011 148.459 88.6669 148.386 88.1245C148.259 87.6042 148.152 87.0718 148.069 86.5304C148.302 86.9735 148.462 87.4967 148.536 88.0558C148.665 88.5877 148.713 89.1583 148.675 89.7234Z" fill="#263238"/>
<path d="M153.078 89.8117C152.494 90.2666 151.865 90.5667 151.217 90.6994C151.799 90.2388 152.429 89.9384 153.078 89.8117Z" fill="#263238"/>
<path d="M153.288 84.3871C152.688 85.0799 152.025 85.6335 151.322 86.0303C151.92 85.3326 152.583 84.7786 153.288 84.3871Z" fill="#263238"/>
<path d="M150.969 82.2437C150.494 81.4963 150.102 80.635 149.806 79.6934C150.28 80.4408 150.673 81.3021 150.969 82.2437Z" fill="#263238"/>
<path d="M152.703 76.5153C152.703 76.5153 152.662 76.5153 152.611 76.4613L152.665 76.427C152.658 76.9344 152.615 77.4392 152.538 77.9326C152.484 78.4862 152.362 79.0188 152.179 79.502C152.206 78.9513 152.272 78.4069 152.376 77.8787C152.471 77.2215 152.548 76.6575 152.602 76.4074L152.621 76.3093L152.656 76.3779C152.694 76.4564 152.71 76.5055 152.703 76.5153Z" fill="#263238"/>
<path d="M156.477 72.6847C155.718 72.6173 154.97 72.3828 154.254 71.9882C154.635 71.9776 155.014 72.052 155.381 72.2089C155.759 72.2882 156.128 72.4484 156.477 72.6847Z" fill="#263238"/>
<path d="M155.574 78.2418C155.526 77.8006 155.534 77.3492 155.596 76.9125C155.607 76.4667 155.67 76.0277 155.784 75.6176C155.832 76.0587 155.824 76.5101 155.762 76.9468C155.751 77.3926 155.688 77.8317 155.574 78.2418Z" fill="#263238"/>
<path d="M157.579 79.8747C157.598 79.47 157.672 79.0759 157.795 78.7172C157.87 78.3295 157.995 77.9693 158.163 77.6578C158.143 78.0625 158.07 78.4566 157.947 78.8153C157.873 79.2038 157.747 79.5645 157.579 79.8747Z" fill="#263238"/>
<path d="M157.595 82.9844C157.232 82.7316 156.894 82.4014 156.591 82.0034C156.254 81.6836 155.948 81.2905 155.683 80.8361C156.045 81.0887 156.383 81.4189 156.686 81.8171C157.022 82.1397 157.328 82.5325 157.595 82.9844Z" fill="#263238"/>
<path d="M147.971 102.701C147.684 102.554 147.417 102.326 147.184 102.029C146.918 101.801 146.681 101.501 146.485 101.141C146.772 101.295 147.039 101.524 147.276 101.818C147.54 102.046 147.775 102.345 147.971 102.701Z" fill="#263238"/>
<path d="M151.598 100.729C151.423 101.266 151.2 101.761 150.934 102.201C150.713 102.691 150.446 103.128 150.144 103.5C150.319 102.964 150.542 102.468 150.807 102.029C151.029 101.539 151.295 101.101 151.598 100.729Z" fill="#263238"/>
<path d="M155.365 103.427C155.419 102.996 155.527 102.586 155.683 102.22C155.794 101.815 155.955 101.447 156.156 101.136C155.99 101.974 155.718 102.752 155.356 103.427H155.365Z" fill="#263238"/>
<path d="M154.358 103.746C154.148 103.439 153.978 103.072 153.856 102.667C153.69 102.302 153.569 101.893 153.498 101.46C153.709 101.765 153.88 102.132 153.999 102.539C154.168 102.902 154.29 103.311 154.358 103.746Z" fill="#263238"/>
<path d="M145.074 52.6885C144.886 52.8544 144.727 53.0888 144.611 53.3714C144.495 53.6541 144.426 53.9762 144.409 54.3098C144.392 54.6434 144.428 54.9783 144.515 55.2853C144.601 55.5922 144.734 55.8619 144.904 56.0708C145.073 56.2796 145.273 56.4213 145.486 56.4835C145.699 56.5457 145.918 56.5265 146.125 56.4275C146.332 56.3285 146.52 56.1528 146.673 55.9157C146.826 55.6786 146.939 55.3873 147.002 55.0673C146.895 55.4054 146.863 55.7882 146.91 56.1574C146.957 56.5266 147.081 56.862 147.263 57.1125C147.45 57.3516 147.677 57.5064 147.918 57.5601C148.159 57.6137 148.405 57.5641 148.628 57.4166C148.851 57.2626 149.048 57.0338 149.206 56.747C149.363 56.4601 149.478 56.1225 149.54 55.7588C149.543 56.1152 149.6 56.4654 149.706 56.782C149.812 57.0986 149.964 57.373 150.151 57.5835C150.337 57.7941 150.552 57.9351 150.78 57.9955C151.007 58.0559 151.24 58.034 151.462 57.9316C151.235 58.1518 151.053 58.4655 150.936 58.8371C150.819 59.2087 150.771 59.6234 150.799 60.0345C150.826 60.4457 150.927 60.8368 151.091 61.1637C151.255 61.4906 151.474 61.7404 151.725 61.8847C151.454 62.1471 151.255 62.5531 151.164 63.0266C151.074 63.5 151.098 64.0082 151.233 64.4558C151.368 64.9033 151.604 65.2593 151.897 65.4569C152.19 65.6545 152.52 65.6801 152.824 65.5289C153.459 65.2248 153.837 64.2537 154.095 63.3071C154.775 60.7301 154.768 57.8425 154.075 55.2733C153.718 54.0098 153.179 52.889 152.499 51.9965C151.818 51.104 151.015 50.4633 150.15 50.1234C149.284 49.8053 148.378 49.8415 147.524 50.2286C146.67 50.6156 145.895 51.3401 145.278 52.3305" fill="#263238"/>
<path d="M155.619 52.9828C155.619 52.9828 155.619 53.0171 155.635 53.0907C155.643 53.1949 155.643 53.3003 155.635 53.4046C155.601 53.7993 155.49 54.1688 155.317 54.4639C155.182 54.6981 155.01 54.8738 154.817 54.9736C154.624 55.0733 154.418 55.0938 154.218 55.0329C153.961 54.9473 153.726 54.7437 153.545 54.4489C153.364 54.154 153.244 53.7815 153.202 53.38H153.355C153.32 53.7081 153.24 54.0208 153.12 54.2968C153 54.5727 152.843 54.8054 152.659 54.9789C152.462 55.1754 152.236 55.2916 152.002 55.3165C151.768 55.3413 151.534 55.2741 151.322 55.1211C151.12 54.9802 150.941 54.7728 150.797 54.5135C150.652 54.2543 150.546 53.9494 150.487 53.6204C150.452 53.4595 150.44 53.2895 150.449 53.1208C150.459 52.9521 150.491 52.7883 150.544 52.6395C150.606 52.4893 150.7 52.378 150.81 52.3256C150.867 52.2985 150.927 52.2923 150.986 52.3077C151.044 52.323 151.099 52.3594 151.147 52.4139C151.228 52.5223 151.284 52.6689 151.306 52.8311C151.328 52.9933 151.314 53.162 151.268 53.3114C151.187 53.568 151.062 53.7852 150.906 53.9392C150.638 54.2194 150.317 54.3539 149.994 54.3217C149.73 54.2974 149.477 54.1522 149.267 53.9048C149.11 53.7246 148.979 53.4936 148.886 53.228C148.823 53.0636 148.778 52.8848 148.752 52.6983C148.745 52.635 148.745 52.5703 148.752 52.507C148.806 52.7395 148.873 52.9643 148.952 53.179C149.064 53.4634 149.219 53.7014 149.404 53.8723C149.589 54.0432 149.798 54.1419 150.013 54.1599C150.308 54.1769 150.598 54.0443 150.839 53.7822C150.975 53.6502 151.085 53.4637 151.157 53.2427C151.189 53.1398 151.199 53.0231 151.185 52.9106C151.171 52.7982 151.133 52.696 151.077 52.6198C151.045 52.5923 151.01 52.5749 150.974 52.5687C150.937 52.5624 150.9 52.5674 150.865 52.5834C150.83 52.5994 150.797 52.626 150.769 52.6617C150.74 52.6975 150.717 52.7416 150.699 52.7915C150.66 52.913 150.637 53.0456 150.631 53.1813C150.626 53.317 150.638 53.453 150.668 53.5811C150.721 53.8736 150.816 54.1442 150.945 54.3739C151.074 54.6036 151.234 54.7867 151.414 54.9102C151.601 55.0463 151.808 55.1068 152.015 55.0862C152.221 55.0656 152.421 54.9646 152.595 54.7925C152.76 54.6382 152.902 54.4316 153.012 54.1864C153.121 53.9413 153.196 53.6631 153.231 53.3702L153.31 52.5414L153.38 53.3751C153.419 53.7287 153.524 54.0568 153.683 54.3184C153.841 54.5801 154.047 54.7638 154.272 54.8465C154.453 54.9042 154.64 54.8895 154.816 54.8036C154.991 54.7177 155.15 54.5636 155.276 54.356C155.451 54.0878 155.571 53.747 155.622 53.3751C155.619 53.1299 155.61 52.9828 155.619 52.9828Z" fill="#455A64"/>
<path d="M157.292 56.3181C157.309 56.456 157.301 56.5982 157.27 56.7301C157.205 57.1046 157.074 57.4442 156.892 57.7109C156.758 57.914 156.598 58.0703 156.421 58.1693C156.245 58.2683 156.056 58.3077 155.869 58.2847C155.639 58.2544 155.417 58.1398 155.222 57.9504C155.026 57.7611 154.863 57.5024 154.745 57.196C154.717 57.1238 154.692 57.0484 154.672 56.9704H154.828C154.743 57.3157 154.577 57.5992 154.364 57.7649C154.175 57.9234 153.962 58.0013 153.748 57.9905C153.385 57.965 153.043 57.7222 152.795 57.3137C152.631 57.0587 152.498 56.7595 152.404 56.4309C152.362 56.3177 152.335 56.1926 152.325 56.0631C152.48 56.4683 152.664 56.8451 152.874 57.1862C153.107 57.538 153.416 57.7428 153.741 57.76C153.935 57.7728 154.126 57.6961 154.291 57.5396C154.455 57.3832 154.586 57.1542 154.666 56.8821L154.729 56.6074L154.818 56.8772C154.84 56.9409 154.856 57.0096 154.882 57.0734C154.987 57.3436 155.132 57.5726 155.305 57.7427C155.477 57.9128 155.672 58.0194 155.876 58.0542C156.044 58.0752 156.214 58.0425 156.374 57.9581C156.534 57.8738 156.681 57.7396 156.806 57.5638C156.983 57.3288 157.119 57.0308 157.203 56.6957C157.229 56.5676 157.259 56.4415 157.292 56.3181Z" fill="#455A64"/>
<path d="M155.2 62.3852C155.109 62.4839 155.005 62.5516 154.895 62.5837C154.786 62.6158 154.673 62.6117 154.565 62.5716C154.323 62.5234 154.099 62.3505 153.93 62.0811C153.721 61.7394 153.607 61.2852 153.612 60.8155L153.736 60.9284L153.688 60.9627C153.41 61.184 153.087 61.2263 152.789 61.0804C152.549 60.9619 152.342 60.7216 152.202 60.3986C152.13 60.2633 152.077 60.1056 152.048 59.9364C152.019 59.7671 152.014 59.5902 152.033 59.4176C152.087 59.7301 152.177 60.0256 152.297 60.2907C152.433 60.5612 152.621 60.7586 152.834 60.8548C153.094 60.9666 153.371 60.9246 153.612 60.7371L153.653 60.7076L153.777 60.5997V60.8155C153.776 61.1868 153.858 61.5473 154.008 61.8373C154.158 62.1272 154.368 62.3292 154.603 62.4097C154.802 62.4501 155.003 62.4418 155.2 62.3852Z" fill="#455A64"/>
<path d="M143.512 54.6162C143.745 54.9423 144.021 55.1866 144.322 55.3323C144.647 55.4694 144.993 55.4331 145.303 55.2293C145.679 54.9715 145.975 54.4959 146.126 53.905C146.158 53.7678 146.184 53.6267 146.202 53.4831L146.253 53.1006L146.358 53.4537C146.4 53.5665 146.465 53.655 146.543 53.7062C146.621 53.7575 146.707 53.7687 146.79 53.7382C146.958 53.674 147.112 53.5361 147.231 53.3409C147.448 53.0058 147.601 52.5849 147.673 52.1245C147.729 51.695 147.737 51.2533 147.695 50.8198C147.738 50.9237 147.766 51.0408 147.777 51.1631C147.82 51.4868 147.82 51.8204 147.777 52.1441C147.716 52.6476 147.562 53.1129 147.333 53.4831C147.196 53.7236 147.016 53.8946 146.815 53.9736C146.697 54.0158 146.574 53.9973 146.464 53.9212C146.354 53.845 146.263 53.7153 146.205 53.5518L146.361 53.5175C146.343 53.6852 146.315 53.8496 146.275 54.008C146.194 54.3354 146.072 54.6344 145.914 54.8872C145.757 55.1399 145.569 55.3413 145.36 55.4794C145.017 55.6894 144.638 55.7085 144.287 55.5334C144.054 55.4231 143.842 55.2299 143.667 54.9693C143.598 54.8723 143.545 54.7513 143.512 54.6162Z" fill="#455A64"/>
<path d="M144.433 58.6378C144.452 58.6378 144.452 58.8732 144.3 59.1283C144.195 59.2845 144.066 59.3961 143.925 59.452C143.784 59.5079 143.637 59.5062 143.496 59.4471C143.227 59.337 142.982 59.1167 142.788 58.8094C142.639 58.5887 142.562 58.4317 142.575 58.4072C142.588 58.3827 142.699 58.4906 142.861 58.6721C143.062 58.9117 143.29 59.0898 143.534 59.197C143.651 59.2453 143.774 59.2519 143.893 59.2162C144.012 59.1806 144.124 59.1035 144.22 58.9909C144.366 58.8193 144.408 58.628 144.433 58.6378Z" fill="#455A64"/>
<path d="M146.999 59.2851C146.999 59.2851 146.999 59.1135 146.929 58.829C146.849 58.4346 146.689 58.0906 146.472 57.8481C146.337 57.6913 146.181 57.5812 146.016 57.5253C145.851 57.4693 145.681 57.4688 145.515 57.5238C145.35 57.5788 145.195 57.688 145.059 57.844C144.924 58 144.812 58.1991 144.73 58.4279C144.649 58.6567 144.601 58.9098 144.588 59.17C144.576 59.4302 144.6 59.6915 144.659 59.936C144.718 60.1806 144.81 60.4028 144.929 60.5875C145.049 60.7723 145.192 60.9152 145.351 61.0067C145.536 61.1108 145.735 61.1433 145.931 61.1014C146.126 61.0595 146.312 60.9445 146.472 60.7663C146.687 60.5218 146.847 60.1786 146.929 59.7854C146.983 59.496 146.983 59.3244 146.999 59.3244C147.025 59.4855 147.025 59.6537 146.999 59.8148C146.937 60.2513 146.777 60.6402 146.548 60.9135C146.375 61.124 146.171 61.2636 145.954 61.3193C145.737 61.3751 145.514 61.3451 145.306 61.2323C145.049 61.0924 144.826 60.8326 144.668 60.4887C144.51 60.1447 144.425 59.7336 144.425 59.3121C144.425 58.8906 144.51 58.4795 144.668 58.1356C144.826 57.7916 145.049 57.5318 145.306 57.392C145.513 57.278 145.736 57.247 145.953 57.3019C146.17 57.3568 146.375 57.4958 146.548 57.7059C146.779 57.9861 146.938 58.3843 146.996 58.829C147.019 58.9787 147.02 59.1347 146.999 59.2851Z" fill="#455A64"/>
<path d="M150.528 59.2852C150.528 59.2852 150.528 59.1135 150.458 58.829C150.379 58.4337 150.218 58.0891 150 57.8481C149.865 57.6902 149.71 57.5792 149.544 57.5225C149.379 57.4659 149.208 57.465 149.042 57.5198C148.876 57.5747 148.72 57.6841 148.585 57.8405C148.449 57.9969 148.336 58.1967 148.255 58.4262C148.174 58.6558 148.126 58.9097 148.114 59.1706C148.102 59.4316 148.126 59.6934 148.186 59.9383C148.245 60.1832 148.339 60.4054 148.459 60.5898C148.579 60.7742 148.723 60.9164 148.882 61.0067C149.067 61.1108 149.266 61.1433 149.461 61.1014C149.656 61.0595 149.841 60.9445 150 60.7663C150.217 60.5233 150.377 60.1795 150.458 59.7854C150.512 59.4961 150.515 59.3244 150.528 59.3244C150.557 59.4848 150.557 59.6544 150.528 59.8149C150.467 60.258 150.308 60.654 150.077 60.9331C149.904 61.1436 149.7 61.2832 149.484 61.339C149.267 61.3947 149.045 61.3648 148.838 61.2519C148.58 61.1121 148.357 60.8523 148.2 60.5083C148.042 60.1644 147.957 59.7533 147.957 59.3317C147.957 58.9102 148.042 58.4991 148.2 58.1552C148.357 57.8112 148.58 57.5514 148.838 57.4116C149.045 57.2981 149.267 57.2673 149.483 57.3222C149.7 57.3771 149.904 57.5158 150.077 57.7255C150.308 58.0055 150.468 58.4036 150.528 58.8486C150.551 58.9919 150.551 59.1419 150.528 59.2852Z" fill="#455A64"/>
<path d="M148.098 59.1922C148.098 59.2657 147.847 59.3197 147.536 59.3197C147.225 59.3197 146.977 59.2657 146.977 59.1922C146.977 59.1186 147.228 59.0646 147.536 59.0646C147.844 59.0646 148.098 59.1235 148.098 59.1922Z" fill="#455A64"/>
<path d="M135.655 103.726C140.47 102.984 145.318 102.891 150.144 103.446L144.008 117.022L138.481 117.057L137.306 156.063H130.001L130.7 112.255C130.732 110.158 131.248 108.148 132.156 106.587C133.063 105.025 134.301 104.016 135.648 103.741L135.655 103.726Z" fill="#263238"/>
<path d="M149.109 118.097C149.109 118.097 160.057 119.244 159.784 104.059C159.784 104.059 142.245 99.4835 141.105 107.355C140.736 109.886 141.74 156.362 141.74 156.362H149.407" fill="#263238"/>
<path d="M149.214 114.732C149.278 116.027 149.231 117.331 149.072 118.607C149.013 117.311 149.06 116.009 149.214 114.732Z" fill="#455A64"/>
<path d="M148.867 102.662C148.818 102.704 148.767 102.739 148.714 102.765C148.616 102.824 148.467 102.902 148.27 102.99C147.713 103.221 147.147 103.401 146.577 103.53C145.736 103.698 144.905 103.974 144.093 104.354C143.623 104.589 143.174 104.919 142.759 105.335C142.32 105.796 141.948 106.394 141.667 107.091C141.121 108.448 140.848 110.025 140.882 111.623C140.933 113.094 140.977 114.423 141.015 115.546C141.054 116.669 141.076 117.542 141.095 118.209C141.095 118.499 141.095 118.734 141.095 118.93C141.104 119.015 141.104 119.101 141.095 119.185C141.082 119.102 141.073 119.016 141.069 118.93C141.069 118.739 141.044 118.499 141.025 118.214C140.993 117.547 140.946 116.65 140.892 115.561C140.838 114.472 140.774 113.109 140.723 111.637C140.679 109.99 140.958 108.361 141.524 106.963C141.814 106.237 142.202 105.615 142.661 105.139C143.089 104.707 143.552 104.366 144.039 104.123C144.861 103.751 145.703 103.49 146.555 103.344C147.272 103.192 147.854 103.035 148.247 102.887C148.641 102.74 148.86 102.642 148.867 102.662Z" fill="#455A64"/>
<path d="M125.61 75.7305L129.767 95.7707L152.753 96.4181L152.601 95.3489L144.206 94.9516L140.341 75.7207L125.61 75.7305Z" fill="#455A64"/>
<path d="M134.945 85.7457C135.082 86.5942 134.846 87.428 134.421 87.6046C133.995 87.7811 133.535 87.2367 133.398 86.3882C133.262 85.5397 133.497 84.7108 133.925 84.5343C134.354 84.3577 134.796 84.9021 134.945 85.7457Z" fill="white"/>
<path d="M176.777 90.0323C176.407 89.6059 175.948 89.402 175.488 89.4585C175.488 89.0759 175.488 88.8356 175.488 88.8356H168.462C168.462 88.8356 168.24 96.0014 171.794 96.2565C173.382 96.3693 174.294 95.2755 174.814 93.8826C175.076 93.9807 175.343 94.0317 175.612 94.0346C176.006 94.0571 176.394 93.8853 176.72 93.5441C176.898 93.3275 177.039 93.0472 177.131 92.7276C177.223 92.408 177.263 92.0587 177.247 91.7098C177.256 91.3934 177.219 91.0781 177.137 90.7875C177.056 90.4969 176.933 90.2387 176.777 90.0323ZM176.295 92.6907C175.996 93.039 175.459 92.985 175.107 92.8869C175.287 92.1286 175.402 91.3371 175.45 90.5326C175.758 90.477 176.069 90.5879 176.329 90.8465C176.406 90.9561 176.465 91.0914 176.503 91.2419C176.54 91.3924 176.555 91.5541 176.545 91.7147C176.558 91.8966 176.542 92.0807 176.498 92.2508C176.455 92.4209 176.385 92.5719 176.295 92.6907Z" fill="#FF725E"/>
<path d="M174.45 86.5256C174.399 86.4554 174.354 86.3745 174.317 86.2853C174.203 86.0302 174.124 85.7413 174.085 85.4368C174.014 84.9449 174.043 84.4311 174.168 83.9654C174.364 83.3968 174.633 82.8961 174.959 82.494C175.325 81.9733 175.574 81.2862 175.67 80.5322C175.754 79.8726 175.71 79.1897 175.545 78.5681C175.379 77.9464 175.099 77.4134 174.739 77.0352C174.47 76.7707 174.176 76.5676 173.869 76.4319C173.536 76.2885 173.224 76.0452 172.951 75.7158C172.818 75.5296 172.71 75.3046 172.634 75.0537C172.552 74.7882 172.528 74.4884 172.567 74.2003C172.567 74.1562 172.583 74.117 172.589 74.0826L172.672 74.2101C172.525 74.3117 172.4 74.4742 172.309 74.6794C172.219 74.8847 172.168 75.1246 172.16 75.3725C172.141 75.8719 172.213 76.3696 172.367 76.8096C172.507 77.2657 172.684 77.6875 172.805 78.1485C172.945 78.5969 173.006 79.0941 172.983 79.5905C172.943 80.0678 172.794 80.5075 172.564 80.8313C172.355 81.13 172.117 81.3751 171.859 81.5572C171.393 81.8199 170.937 82.1228 170.493 82.4646C170.14 82.7748 169.861 83.2508 169.696 83.8232C169.569 84.2544 169.504 84.7228 169.505 85.1965C169.513 85.6015 169.563 86.002 169.651 86.3834C169.642 86.3616 169.633 86.3386 169.626 86.3147C169.626 86.2657 169.588 86.197 169.565 86.094C169.498 85.8056 169.461 85.5027 169.454 85.1965C169.444 84.7098 169.503 84.2257 169.629 83.779C169.794 83.1782 170.079 82.6747 170.442 82.342C170.887 81.9902 171.344 81.6759 171.811 81.4003C172.059 81.2256 172.287 80.9886 172.484 80.6989C172.692 80.4031 172.826 80.0038 172.862 79.5709C172.882 79.1075 172.823 78.6444 172.691 78.227C172.567 77.7856 172.395 77.3638 172.252 76.8979C172.084 76.4243 172.006 75.8871 172.027 75.348C172.048 75.0699 172.107 74.8021 172.202 74.5633C172.3 74.3108 172.451 74.1185 172.63 74.0189L172.748 73.9502L172.713 74.1464L172.697 74.2445C172.675 74.4924 172.696 74.7449 172.757 74.9766C172.818 75.2082 172.918 75.4108 173.047 75.5638C173.307 75.8764 173.605 76.1064 173.923 76.2406C174.241 76.3836 174.544 76.5967 174.822 76.8733C175.086 77.1547 175.31 77.517 175.479 77.9376C175.804 78.7159 175.918 79.6598 175.797 80.5665C175.691 81.3471 175.426 82.0551 175.041 82.5872C174.72 82.9795 174.452 83.4663 174.253 84.0193C174.133 84.4569 174.099 84.9398 174.155 85.4073C174.197 85.8101 174.298 86.1926 174.45 86.5256Z" fill="#263238"/>
<path d="M183.016 95.864H110.93V99.2727H114.786L112.734 159.516L113.836 159.511L115.888 99.2727L179.071 98.7381L180.526 159.335L181.743 159.438L180.186 99.2727H183.016V95.864Z" fill="#263238"/>
<path d="M71.7171 14.5747H41.0322V159.727H71.7171V14.5747Z" fill="#EBEBEB"/>
<path d="M95.9265 15.0455H71.6733V159.732H95.9265V15.0455Z" fill="#E0E0E0"/>
<path d="M68.761 37.808H42.7324V49.1229H68.761V37.808Z" fill="#263238"/>
<path d="M44.9139 39.2302H43.4561V47.8919H44.9139V39.2302Z" fill="#FF725E"/>
<path d="M46.633 41.05C46.6336 41.1918 46.6069 41.3307 46.5564 41.4491C46.5058 41.5675 46.4336 41.6601 46.3489 41.715C46.2642 41.77 46.1709 41.7849 46.0808 41.7578C45.9906 41.7307 45.9077 41.6629 45.8425 41.563C45.7773 41.463 45.7329 41.3354 45.7147 41.1964C45.6966 41.0574 45.7056 40.9131 45.7406 40.782C45.7756 40.6509 45.835 40.5387 45.9113 40.4598C45.9876 40.3809 46.0774 40.3388 46.1693 40.3388C46.2917 40.3388 46.4092 40.4136 46.496 40.5468C46.5829 40.68 46.6321 40.8609 46.633 41.05Z" fill="white"/>
<path d="M46.633 44.1104C46.633 44.252 46.6058 44.3905 46.5548 44.5082C46.5039 44.626 46.4314 44.7178 46.3467 44.772C46.262 44.8262 46.1688 44.8403 46.0788 44.8127C45.9889 44.7851 45.9062 44.7169 45.8414 44.6167C45.7765 44.5166 45.7324 44.389 45.7145 44.2501C45.6966 44.1112 45.7058 43.9672 45.7409 43.8364C45.776 43.7055 45.8354 43.5937 45.9116 43.515C45.9879 43.4363 46.0776 43.3943 46.1693 43.3943C46.2922 43.3943 46.4102 43.4698 46.4972 43.6041C46.5841 43.7383 46.633 43.9205 46.633 44.1104Z" fill="white"/>
<path d="M49.9168 40.3388H48.4844V46.9893H49.9168V40.3388Z" fill="#455A64"/>
<path d="M51.9847 40.3388H50.5522V46.9893H51.9847V40.3388Z" fill="#455A64"/>
<path d="M54.056 40.3388H52.6235V46.9893H54.056V40.3388Z" fill="#455A64"/>
<path d="M56.1224 40.3388H54.6899V46.9893H56.1224V40.3388Z" fill="#455A64"/>
<path d="M58.1912 40.3388H56.7588V46.9893H58.1912V40.3388Z" fill="#455A64"/>
<path d="M60.2615 40.3388H58.8291V46.9893H60.2615V40.3388Z" fill="#455A64"/>
<path d="M62.3289 40.3388H60.8965V46.9893H62.3289V40.3388Z" fill="#455A64"/>
<path d="M64.3992 40.3388H62.9668V46.9893H64.3992V40.3388Z" fill="#455A64"/>
<path d="M66.4681 40.3388H65.0356V46.9893H66.4681V40.3388Z" fill="#455A64"/>
<path d="M68.5345 40.3388H67.1021V46.9893H68.5345V40.3388Z" fill="#455A64"/>
<path d="M68.761 54.0618H42.7324V65.3769H68.761V54.0618Z" fill="#263238"/>
<path d="M44.9139 55.4891H43.4561V64.1508H44.9139V55.4891Z" fill="#FF725E"/>
<path d="M46.633 57.3089C46.633 57.4505 46.6058 57.589 46.5548 57.7067C46.5039 57.8245 46.4314 57.9163 46.3467 57.9705C46.262 58.0247 46.1688 58.0388 46.0788 58.0112C45.9889 57.9836 45.9062 57.9154 45.8414 57.8152C45.7765 57.7151 45.7324 57.5875 45.7145 57.4486C45.6966 57.3097 45.7058 57.1657 45.7409 57.0348C45.776 56.904 45.8354 56.7922 45.9116 56.7135C45.9879 56.6348 46.0776 56.5928 46.1693 56.5928C46.2922 56.5928 46.4102 56.6682 46.4972 56.8025C46.5841 56.9368 46.633 57.119 46.633 57.3089Z" fill="white"/>
<path d="M46.633 60.3692C46.633 60.5108 46.6058 60.6493 46.5548 60.7671C46.5039 60.8848 46.4314 60.9766 46.3467 61.0308C46.262 61.085 46.1688 61.0992 46.0788 61.0716C45.9889 61.044 45.9062 60.9757 45.8414 60.8756C45.7765 60.7754 45.7324 60.6478 45.7145 60.5089C45.6966 60.37 45.7058 60.226 45.7409 60.0951C45.776 59.9643 45.8354 59.8524 45.9116 59.7737C45.9879 59.695 46.0776 59.653 46.1693 59.653C46.2922 59.653 46.4102 59.7285 46.4972 59.8628C46.5841 59.9971 46.633 60.1792 46.633 60.3692Z" fill="white"/>
<path d="M49.9168 56.5928H48.4844V63.2433H49.9168V56.5928Z" fill="#455A64"/>
<path d="M51.9847 56.5928H50.5522V63.2433H51.9847V56.5928Z" fill="#455A64"/>
<path d="M54.056 56.5928H52.6235V63.2433H54.056V56.5928Z" fill="#455A64"/>
<path d="M56.1224 56.5928H54.6899V63.2433H56.1224V56.5928Z" fill="#455A64"/>
<path d="M58.1912 56.5928H56.7588V63.2433H58.1912V56.5928Z" fill="#455A64"/>
<path d="M60.2615 56.5928H58.8291V63.2433H60.2615V56.5928Z" fill="#455A64"/>
<path d="M62.3289 56.5928H60.8965V63.2433H62.3289V56.5928Z" fill="#455A64"/>
<path d="M64.3992 56.5928H62.9668V63.2433H64.3992V56.5928Z" fill="#455A64"/>
<path d="M66.4681 56.5928H65.0356V63.2433H66.4681V56.5928Z" fill="#455A64"/>
<path d="M68.5345 56.5928H67.1021V63.2433H68.5345V56.5928Z" fill="#455A64"/>
<path d="M68.761 70.4532H42.7324V81.7682H68.761V70.4532Z" fill="#263238"/>
<path d="M44.9139 71.8754H43.4561V80.5371H44.9139V71.8754Z" fill="#FF725E"/>
<path d="M46.633 73.695C46.6329 73.8375 46.6054 73.9767 46.5539 74.0949C46.5023 74.2131 46.4291 74.3048 46.3437 74.3584C46.2582 74.4119 46.1643 74.4249 46.074 74.3957C45.9838 74.3664 45.9012 74.2962 45.8369 74.1941C45.7725 74.092 45.7294 73.9625 45.713 73.8223C45.6966 73.6822 45.7076 73.5376 45.7446 73.4071C45.7817 73.2766 45.8431 73.1662 45.921 73.0899C45.9989 73.0136 46.0898 72.975 46.182 72.9789C46.3027 72.984 46.4174 73.0617 46.5017 73.1955C46.5859 73.3292 46.633 73.5085 46.633 73.695Z" fill="white"/>
<path d="M46.633 76.7556C46.633 76.8972 46.6058 77.0357 46.5548 77.1534C46.5039 77.2712 46.4314 77.363 46.3467 77.4172C46.262 77.4714 46.1688 77.4856 46.0788 77.4579C45.9889 77.4303 45.9062 77.3621 45.8414 77.262C45.7765 77.1618 45.7324 77.0342 45.7145 76.8953C45.6966 76.7564 45.7058 76.6124 45.7409 76.4816C45.776 76.3507 45.8354 76.2389 45.9116 76.1602C45.9879 76.0815 46.0776 76.0395 46.1693 76.0395C46.2922 76.0395 46.4102 76.115 46.4972 76.2493C46.5841 76.3836 46.633 76.5657 46.633 76.7556Z" fill="white"/>
<path d="M49.9168 72.979H48.4844V79.6297H49.9168V72.979Z" fill="#455A64"/>
<path d="M51.9847 72.979H50.5522V79.6297H51.9847V72.979Z" fill="#455A64"/>
<path d="M54.056 72.979H52.6235V79.6297H54.056V72.979Z" fill="#455A64"/>
<path d="M56.1224 72.979H54.6899V79.6297H56.1224V72.979Z" fill="#455A64"/>
<path d="M58.1912 72.979H56.7588V79.6297H58.1912V72.979Z" fill="#455A64"/>
<path d="M60.2615 72.979H58.8291V79.6297H60.2615V72.979Z" fill="#455A64"/>
<path d="M62.3289 72.979H60.8965V79.6297H62.3289V72.979Z" fill="#455A64"/>
<path d="M64.3992 72.979H62.9668V79.6297H64.3992V72.979Z" fill="#455A64"/>
<path d="M66.4681 72.979H65.0356V79.6297H66.4681V72.979Z" fill="#455A64"/>
<path d="M68.5345 72.979H67.1021V79.6297H68.5345V72.979Z" fill="#455A64"/>
<path d="M68.761 87.0652H42.7324V98.38H68.761V87.0652Z" fill="#263238"/>
<path d="M44.9139 88.4875H43.4561V97.149H44.9139V88.4875Z" fill="#FF725E"/>
<path d="M46.633 90.307C46.633 90.4486 46.6058 90.5871 46.5548 90.7049C46.5039 90.8227 46.4314 90.9145 46.3467 90.9687C46.262 91.0229 46.1688 91.037 46.0788 91.0094C45.9889 90.9818 45.9062 90.9136 45.8414 90.8134C45.7765 90.7133 45.7324 90.5856 45.7145 90.4467C45.6966 90.3078 45.7058 90.1638 45.7409 90.0329C45.776 89.9021 45.8354 89.7902 45.9116 89.7115C45.9879 89.6328 46.0776 89.5908 46.1693 89.5908C46.2922 89.5908 46.4102 89.6663 46.4972 89.8006C46.5841 89.9349 46.633 90.1171 46.633 90.307Z" fill="white"/>
<path d="M46.633 93.3677C46.633 93.5093 46.6058 93.6477 46.5548 93.7655C46.5039 93.8832 46.4314 93.975 46.3467 94.0292C46.262 94.0834 46.1688 94.0976 46.0788 94.07C45.9889 94.0423 45.9062 93.9741 45.8414 93.874C45.7765 93.7738 45.7324 93.6463 45.7145 93.5074C45.6966 93.3685 45.7058 93.2245 45.7409 93.0936C45.776 92.9628 45.8354 92.8509 45.9116 92.7723C45.9879 92.6936 46.0776 92.6516 46.1693 92.6516C46.2922 92.6516 46.4102 92.727 46.4972 92.8613C46.5841 92.9956 46.633 93.1777 46.633 93.3677Z" fill="white"/>
<path d="M49.9168 89.5908H48.4844V96.2415H49.9168V89.5908Z" fill="#455A64"/>
<path d="M51.9847 89.5908H50.5522V96.2415H51.9847V89.5908Z" fill="#455A64"/>
<path d="M54.056 89.5908H52.6235V96.2415H54.056V89.5908Z" fill="#455A64"/>
<path d="M56.1224 89.5908H54.6899V96.2415H56.1224V89.5908Z" fill="#455A64"/>
<path d="M58.1912 89.5908H56.7588V96.2415H58.1912V89.5908Z" fill="#455A64"/>
<path d="M60.2615 89.5908H58.8291V96.2415H60.2615V89.5908Z" fill="#455A64"/>
<path d="M62.3289 89.5908H60.8965V96.2415H62.3289V89.5908Z" fill="#455A64"/>
<path d="M64.3992 89.5908H62.9668V96.2415H64.3992V89.5908Z" fill="#455A64"/>
<path d="M66.4681 89.5908H65.0356V96.2415H66.4681V89.5908Z" fill="#455A64"/>
<path d="M68.5345 89.5908H67.1021V96.2415H68.5345V89.5908Z" fill="#455A64"/>
<path d="M68.761 106.031H42.7324V117.346H68.761V106.031Z" fill="#263238"/>
<path d="M44.9139 107.454H43.4561V116.115H44.9139V107.454Z" fill="#FF725E"/>
<path d="M46.633 109.273C46.633 109.415 46.6058 109.553 46.5548 109.671C46.5039 109.789 46.4314 109.881 46.3467 109.935C46.262 109.989 46.1688 110.003 46.0788 109.976C45.9889 109.948 45.9062 109.88 45.8414 109.78C45.7765 109.679 45.7324 109.552 45.7145 109.413C45.6966 109.274 45.7058 109.13 45.7409 108.999C45.776 108.868 45.8354 108.756 45.9116 108.678C45.9879 108.599 46.0776 108.557 46.1693 108.557C46.2922 108.557 46.4102 108.633 46.4972 108.767C46.5841 108.901 46.633 109.083 46.633 109.273Z" fill="white"/>
<path d="M46.633 112.334C46.633 112.475 46.6058 112.614 46.5548 112.731C46.5039 112.849 46.4314 112.941 46.3467 112.995C46.262 113.049 46.1688 113.064 46.0788 113.036C45.9889 113.008 45.9062 112.94 45.8414 112.84C45.7765 112.74 45.7324 112.612 45.7145 112.473C45.6966 112.334 45.7058 112.191 45.7409 112.06C45.776 111.929 45.8354 111.817 45.9116 111.738C45.9879 111.66 46.0776 111.618 46.1693 111.618C46.2922 111.618 46.4102 111.693 46.4972 111.827C46.5841 111.962 46.633 112.144 46.633 112.334Z" fill="white"/>
<path d="M49.9168 108.557H48.4844V115.208H49.9168V108.557Z" fill="#455A64"/>
<path d="M51.9847 108.557H50.5522V115.208H51.9847V108.557Z" fill="#455A64"/>
<path d="M54.056 108.557H52.6235V115.208H54.056V108.557Z" fill="#455A64"/>
<path d="M56.1224 108.557H54.6899V115.208H56.1224V108.557Z" fill="#455A64"/>
<path d="M58.1912 108.557H56.7588V115.208H58.1912V108.557Z" fill="#455A64"/>
<path d="M60.2615 108.557H58.8291V115.208H60.2615V108.557Z" fill="#455A64"/>
<path d="M62.3289 108.557H60.8965V115.208H62.3289V108.557Z" fill="#455A64"/>
<path d="M64.3992 108.557H62.9668V115.208H64.3992V108.557Z" fill="#455A64"/>
<path d="M66.4681 108.557H65.0356V115.208H66.4681V108.557Z" fill="#455A64"/>
<path d="M68.5345 108.557H67.1021V115.208H68.5345V108.557Z" fill="#455A64"/>
<path d="M68.761 141.609H42.7324V152.924H68.761V141.609Z" fill="#263238"/>
<path d="M44.9139 143.032H43.4561V151.693H44.9139V143.032Z" fill="#FF725E"/>
<path d="M46.633 144.851C46.6336 144.993 46.6069 145.132 46.5564 145.251C46.5058 145.369 46.4336 145.462 46.3489 145.517C46.2642 145.571 46.1709 145.586 46.0808 145.559C45.9906 145.532 45.9077 145.464 45.8425 145.364C45.7773 145.265 45.7329 145.137 45.7147 144.998C45.6966 144.859 45.7056 144.715 45.7406 144.584C45.7756 144.452 45.835 144.34 45.9113 144.261C45.9876 144.182 46.0774 144.14 46.1693 144.14C46.2917 144.14 46.4092 144.215 46.496 144.348C46.5829 144.482 46.6321 144.662 46.633 144.851Z" fill="white"/>
<path d="M46.633 147.912C46.633 148.053 46.6058 148.192 46.5548 148.31C46.5039 148.427 46.4314 148.519 46.3467 148.573C46.262 148.627 46.1688 148.642 46.0788 148.614C45.9889 148.586 45.9062 148.518 45.8414 148.418C45.7765 148.318 45.7324 148.19 45.7145 148.052C45.6966 147.913 45.7058 147.769 45.7409 147.638C45.776 147.507 45.8354 147.395 45.9116 147.316C45.9879 147.238 46.0776 147.196 46.1693 147.196C46.2922 147.196 46.4102 147.271 46.4972 147.406C46.5841 147.54 46.633 147.722 46.633 147.912Z" fill="white"/>
<path d="M49.9168 144.14H48.4844V150.791H49.9168V144.14Z" fill="#455A64"/>
<path d="M51.9847 144.14H50.5522V150.791H51.9847V144.14Z" fill="#455A64"/>
<path d="M54.056 144.14H52.6235V150.791H54.056V144.14Z" fill="#455A64"/>
<path d="M56.1224 144.14H54.6899V150.791H56.1224V144.14Z" fill="#455A64"/>
<path d="M58.1912 144.14H56.7588V150.791H58.1912V144.14Z" fill="#455A64"/>
<path d="M60.2615 144.14H58.8291V150.791H60.2615V144.14Z" fill="#455A64"/>
<path d="M62.3289 144.14H60.8965V150.791H62.3289V144.14Z" fill="#455A64"/>
<path d="M64.3992 144.14H62.9668V150.791H64.3992V144.14Z" fill="#455A64"/>
<path d="M66.4681 144.14H65.0356V150.791H66.4681V144.14Z" fill="#455A64"/>
<path d="M68.5345 144.14H67.1021V150.791H68.5345V144.14Z" fill="#455A64"/>
<path d="M68.761 123.835H42.7324V135.15H68.761V123.835Z" fill="#263238"/>
<path d="M44.9139 125.257H43.4561V133.919H44.9139V125.257Z" fill="#FF725E"/>
<path d="M46.633 127.077C46.6336 127.219 46.6069 127.358 46.5564 127.476C46.5058 127.595 46.4336 127.687 46.3489 127.742C46.2642 127.797 46.1709 127.812 46.0808 127.785C45.9906 127.758 45.9077 127.69 45.8425 127.59C45.7773 127.49 45.7329 127.362 45.7147 127.223C45.6966 127.084 45.7056 126.94 45.7406 126.809C45.7756 126.678 45.835 126.566 45.9113 126.487C45.9876 126.408 46.0774 126.366 46.1693 126.366C46.2917 126.366 46.4092 126.441 46.496 126.574C46.5829 126.707 46.6321 126.888 46.633 127.077Z" fill="white"/>
<path d="M46.633 130.138C46.6336 130.279 46.6069 130.418 46.5564 130.537C46.5058 130.655 46.4336 130.748 46.3489 130.802C46.2642 130.857 46.1709 130.872 46.0808 130.845C45.9906 130.818 45.9077 130.75 45.8425 130.65C45.7773 130.551 45.7329 130.423 45.7147 130.284C45.6966 130.145 45.7056 130.001 45.7406 129.87C45.7756 129.738 45.835 129.626 45.9113 129.547C45.9876 129.469 46.0774 129.426 46.1693 129.426C46.2917 129.426 46.4092 129.501 46.496 129.634C46.5829 129.768 46.6321 129.948 46.633 130.138Z" fill="white"/>
<path d="M49.9168 126.366H48.4844V133.016H49.9168V126.366Z" fill="#455A64"/>
<path d="M51.9847 126.366H50.5522V133.016H51.9847V126.366Z" fill="#455A64"/>
<path d="M54.056 126.366H52.6235V133.016H54.056V126.366Z" fill="#455A64"/>
<path d="M56.1224 126.366H54.6899V133.016H56.1224V126.366Z" fill="#455A64"/>
<path d="M58.1912 126.366H56.7588V133.016H58.1912V126.366Z" fill="#455A64"/>
<path d="M60.2615 126.366H58.8291V133.016H60.2615V126.366Z" fill="#455A64"/>
<path d="M62.3289 126.366H60.8965V133.016H62.3289V126.366Z" fill="#455A64"/>
<path d="M64.3992 126.366H62.9668V133.016H64.3992V126.366Z" fill="#455A64"/>
<path d="M66.4681 126.366H65.0356V133.016H66.4681V126.366Z" fill="#455A64"/>
<path d="M68.5345 126.366H67.1021V133.016H68.5345V126.366Z" fill="#455A64"/>
<path d="M58.8282 37.8082C58.8108 37.6941 58.8022 37.5771 58.8028 37.4599C58.8028 37.2294 58.7837 36.891 58.7742 36.4545C58.7647 36.018 58.7742 35.4735 58.7456 34.8654C58.7311 34.1696 58.6715 33.4779 58.5677 32.8005C58.4199 31.9902 58.1848 31.2242 57.8722 30.5345C57.5157 29.7446 57.0196 29.13 56.4429 28.764C55.7928 28.398 55.1108 28.1847 54.4197 28.1313L52.1805 27.8272C49.106 27.4201 46.3205 27.1552 44.3005 27.0964C43.2905 27.067 42.4742 27.0964 41.9088 27.0964H41.2577C41.1828 27.1093 41.1072 27.1093 41.0322 27.0964C41.1068 27.0765 41.1821 27.065 41.2577 27.062L41.9088 26.9983C42.471 26.964 43.2905 26.9296 44.3037 26.9394C46.3269 26.9394 49.1187 27.1847 52.1932 27.5967L54.4356 27.9007C55.1419 27.9516 55.8391 28.1683 56.5033 28.5433C57.1031 28.9301 57.6172 29.5776 57.9833 30.407C58.3003 31.1196 58.5356 31.9109 58.6789 32.7466C58.7811 33.4386 58.8344 34.1457 58.8377 34.8555C58.8377 35.4784 58.8377 36.0131 58.8377 36.4496C58.8377 36.8861 58.8377 37.1951 58.8377 37.4305C58.8424 37.5566 58.8392 37.683 58.8282 37.8082Z" fill="#263238"/>
<path d="M50.946 37.808C50.9318 37.6999 50.9265 37.5895 50.9301 37.4794V36.5328C50.9301 36.1208 50.9301 35.6205 50.8984 35.0614C50.8791 34.4124 50.7708 33.7771 50.5808 33.1976C50.2986 32.5436 49.8843 32.0521 49.4024 31.7997C48.8572 31.4706 48.2642 31.3773 47.6873 31.53C47.3778 31.6092 47.0786 31.7649 46.8012 31.991C46.5174 32.2121 46.2796 32.552 46.1151 32.972C46.0346 33.1883 45.9922 33.4336 45.9922 33.6831C45.9922 33.9327 46.0346 34.1779 46.1151 34.3943C46.1979 34.6195 46.3096 34.8162 46.4434 34.9723C46.5772 35.1283 46.7303 35.2404 46.8933 35.3017C47.0556 35.3565 47.2243 35.348 47.384 35.2769C47.5437 35.2058 47.6894 35.0744 47.808 34.8946C48.0473 34.5401 48.1932 34.0614 48.2177 33.5507C48.2393 33.0566 48.142 32.5676 47.9446 32.1774C47.7681 31.7813 47.5315 31.4579 47.2553 31.2357C46.9837 31.044 46.6924 30.9278 46.3946 30.8924C46.1024 30.8286 45.8166 30.7649 45.5402 30.7207C44.9876 30.6226 44.4667 30.5687 43.9934 30.5392C43.0406 30.4804 42.2752 30.5049 41.7447 30.5049H41.1318C41.061 30.5166 40.9897 30.5166 40.9189 30.5049C40.9889 30.482 41.0602 30.4705 41.1318 30.4706L41.7447 30.4264C42.2752 30.3921 43.0438 30.3431 43.9966 30.3774C44.473 30.3774 44.9971 30.4412 45.5529 30.5294C45.8324 30.5736 46.1215 30.6275 46.4168 30.6913C46.5661 30.7256 46.7122 30.7551 46.8679 30.7992C47.0267 30.8491 47.1805 30.9315 47.3252 31.0444C47.6242 31.2828 47.8814 31.6295 48.0748 32.0548C48.2983 32.5005 48.4065 33.0586 48.3784 33.6206C48.3502 34.1827 48.1876 34.7085 47.9223 35.0957C47.7854 35.3076 47.6164 35.4635 47.4306 35.5491C47.2448 35.6348 47.0481 35.6475 46.8583 35.5862C46.672 35.5173 46.4969 35.3898 46.3439 35.2118C46.1909 35.0337 46.0632 34.8089 45.969 34.5513C45.8769 34.2973 45.8286 34.011 45.8286 33.7199C45.8286 33.4288 45.8769 33.1426 45.969 32.8886C46.147 32.4173 46.4095 32.0358 46.7249 31.7899C47.0166 31.5481 47.3321 31.3824 47.6587 31.2995C48.2629 31.1461 48.8827 31.253 49.4501 31.6085C49.9573 31.884 50.3901 32.4142 50.6792 33.1142C50.8784 33.7235 50.9869 34.3937 50.9968 35.0761C51.0191 35.6646 50.9968 36.1649 50.9968 36.5769C50.9968 36.9889 50.9778 37.2783 50.9714 37.5235C50.9681 37.6193 50.9596 37.7144 50.946 37.808Z" fill="#263238"/>
<path d="M60.953 37.808C60.9268 37.6869 60.9087 37.562 60.899 37.4352C60.8704 37.1851 60.826 36.8221 60.7624 36.3562C60.5876 35.0444 60.3312 33.7616 59.997 32.5257C59.5249 30.6774 58.7434 29.0559 57.7324 27.827C57.1213 27.1459 56.4049 26.7247 55.6552 26.6057C54.844 26.4701 54.0287 26.403 53.2127 26.4047C49.8492 26.3066 46.8001 26.3262 44.5959 26.1938C43.4937 26.1349 42.6012 26.0564 41.9851 25.9878L41.2768 25.8995C41.1945 25.8947 41.1126 25.8783 41.0322 25.8504C41.1146 25.8386 41.1976 25.8386 41.28 25.8504L41.9882 25.8946C42.6044 25.9338 43.4969 25.9829 44.599 26.0172C46.8033 26.1055 49.8492 26.0564 53.2159 26.1545C54.0384 26.1518 54.8602 26.2222 55.6774 26.3654C56.4535 26.4938 57.194 26.9352 57.8245 27.6455C58.3789 28.3023 58.8615 29.0922 59.2538 29.9851C59.5907 30.7558 59.8759 31.5774 60.105 32.4374C60.4332 33.6894 60.6749 34.9915 60.826 36.3219C60.88 36.7878 60.9149 37.1557 60.934 37.4058C60.9474 37.5388 60.9538 37.6733 60.953 37.808Z" fill="#263238"/>
<path d="M68.4018 16.3797H43.0879V22.0543H68.4018V16.3797Z" fill="#263238"/>
<path d="M62.437 19.2194H48.6558V22.0543H62.437V19.2194Z" fill="#455A64"/>
<path d="M78.7305 134.071C78.7305 134.071 78.451 134.14 77.965 134.356C77.2837 134.677 76.6402 135.165 76.0594 135.802C75.6571 136.238 75.2958 136.758 74.9858 137.347C74.8137 137.671 74.6656 138.023 74.5443 138.397C74.4267 138.803 74.3342 139.225 74.268 139.657C73.979 141.448 74.0647 143.503 74.1251 145.641C74.1854 147.779 74.0901 149.903 73.5438 151.615C73.2967 152.426 72.9456 153.152 72.5116 153.748C71.8154 154.682 70.9658 155.302 70.0564 155.538C69.7475 155.61 69.4345 155.632 69.1226 155.602C68.9265 155.582 68.7319 155.535 68.5414 155.46C68.4746 155.441 68.4095 155.41 68.3477 155.367C68.3477 155.337 68.624 155.47 69.1258 155.499C69.4322 155.516 69.7389 155.481 70.0405 155.396C70.4385 155.28 70.8256 155.089 71.1935 154.827C71.6401 154.513 72.0534 154.096 72.4195 153.591C72.8356 153.007 73.1715 152.3 73.4073 151.512C73.9282 149.854 74.0171 147.775 73.9567 145.626C73.8964 143.478 73.8138 141.413 74.1187 139.574C74.1893 139.127 74.2883 138.692 74.4141 138.274C74.5414 137.885 74.6969 137.52 74.8778 137.186C75.2009 136.59 75.5761 136.067 75.9926 135.631C76.5891 134.996 77.2521 134.525 77.9523 134.238C78.1424 134.162 78.3355 134.104 78.5304 134.066C78.597 134.055 78.6642 134.056 78.7305 134.071Z" fill="#263238"/>
<path d="M69.1387 153.611H67.0615V157.515H69.1387V153.611Z" fill="#263238"/>
<path d="M90.3837 124.213H78.7305V143.929H90.3837V124.213Z" fill="#455A64"/>
<path d="M87.2689 138.336C88.7673 136.023 88.7673 132.271 87.2689 129.957C85.7706 127.644 83.3412 127.644 81.8429 129.957C80.3445 132.271 80.3445 136.023 81.8429 138.336C83.3412 140.65 85.7706 140.65 87.2689 138.336Z" fill="#263238"/>
<path d="M86.4741 134.145C86.4741 134.727 86.3623 135.296 86.1529 135.78C85.9435 136.263 85.6459 136.641 85.2976 136.863C84.9494 137.086 84.5662 137.144 84.1965 137.031C83.8269 136.917 83.4873 136.637 83.2208 136.225C82.9543 135.814 82.7728 135.29 82.6992 134.719C82.6257 134.148 82.6634 133.556 82.8077 133.018C82.9519 132.481 83.1962 132.021 83.5096 131.698C83.823 131.374 84.1914 131.202 84.5683 131.202C85.0738 131.202 85.5585 131.512 85.9159 132.064C86.2733 132.616 86.4741 133.364 86.4741 134.145Z" fill="#455A64"/>
<path d="M80.3059 127.823C80.5024 127.823 80.6616 127.577 80.6616 127.273C80.6616 126.97 80.5024 126.724 80.3059 126.724C80.1095 126.724 79.9502 126.97 79.9502 127.273C79.9502 127.577 80.1095 127.823 80.3059 127.823Z" fill="#263238"/>
<path d="M88.6014 127.823C88.7979 127.823 88.9572 127.577 88.9572 127.273C88.9572 126.97 88.7979 126.724 88.6014 126.724C88.4049 126.724 88.2456 126.97 88.2456 127.273C88.2456 127.577 88.4049 127.823 88.6014 127.823Z" fill="#263238"/>
<path d="M88.6751 142.379C88.8716 142.379 89.0309 142.133 89.0309 141.83C89.0309 141.527 88.8716 141.281 88.6751 141.281C88.4786 141.281 88.3193 141.527 88.3193 141.83C88.3193 142.133 88.4786 142.379 88.6751 142.379Z" fill="#263238"/>
<path d="M80.3059 142.605C80.5024 142.605 80.6616 142.359 80.6616 142.056C80.6616 141.752 80.5024 141.506 80.3059 141.506C80.1095 141.506 79.9502 141.752 79.9502 142.056C79.9502 142.359 80.1095 142.605 80.3059 142.605Z" fill="#263238"/>
<path d="M91.3244 124.213H90.3843V143.929H91.3244V124.213Z" fill="#263238"/>
<path d="M100.281 50.0205C100.281 50.0891 96.9428 50.1479 92.8233 50.1479C88.7039 50.1479 85.3657 50.0891 85.3657 50.0205C85.3657 49.9518 88.7039 49.893 92.8233 49.893C96.9428 49.893 100.281 49.9518 100.281 50.0205Z" fill="#263238"/>
<path d="M131.229 52.468C131.182 52.4723 131.134 52.4723 131.086 52.468H130.648H128.942L122.552 52.5072L100.494 52.5759H100.433L100.417 52.4876C100.175 51.2087 100.132 49.8594 100.291 48.5498C100.45 47.2401 100.807 46.007 101.334 44.951C101.86 43.895 102.54 43.0458 103.319 42.4728C104.099 41.8997 104.954 41.6189 105.817 41.6533L105.734 41.8151C105.599 41.0721 105.541 40.3006 105.563 39.5295C105.59 38.2172 105.839 36.9387 106.285 35.8204C106.73 34.7022 107.357 33.7829 108.104 33.1535C108.825 32.5712 109.629 32.2703 110.443 32.2772C111.257 32.284 112.058 32.5984 112.776 33.1928L112.665 33.2565C113.062 31.8286 113.648 30.5441 114.385 29.4844C115.121 28.4248 115.992 27.6132 116.943 27.1012C117.817 26.5898 118.75 26.3607 119.683 26.4282C120.617 26.4957 121.532 26.8583 122.371 27.4936C123.88 28.7297 125.067 30.7323 125.731 33.1633C126.339 35.2999 126.484 37.6824 126.144 39.9563L126.084 39.8484C126.948 39.7116 127.821 39.907 128.625 40.4173C129.346 40.8631 129.997 41.5459 130.531 42.4184C130.772 42.81 130.974 43.2566 131.128 43.7426C131.265 44.1919 131.371 44.662 131.445 45.1453C131.575 45.9847 131.648 46.8428 131.661 47.7056C131.69 48.8956 131.624 50.0865 131.464 51.2516C131.422 51.5533 131.369 51.8512 131.306 52.1442C131.261 52.3404 131.236 52.4336 131.236 52.4336C131.236 52.4336 131.255 52.3257 131.293 52.1295C131.331 51.9333 131.379 51.6391 131.433 51.2418C131.578 50.0789 131.634 48.8937 131.601 47.7105C131.581 46.8554 131.505 46.0056 131.372 45.1748C131.231 44.1792 130.918 43.2609 130.467 42.5165C129.943 41.6638 129.306 40.9947 128.599 40.5546C127.806 40.0608 126.947 39.8771 126.097 40.02H126.017L126.033 39.8974C126.363 37.6603 126.215 35.3184 125.611 33.2222C124.957 30.8391 123.79 28.8778 122.307 27.6702C121.486 27.0519 120.59 26.7003 119.677 26.6371C118.764 26.5738 117.851 26.8002 116.997 27.3023C116.068 27.8066 115.217 28.6025 114.497 29.6399C113.777 30.6774 113.204 31.9338 112.814 33.3301L112.779 33.4576L112.7 33.3939C112.005 32.8195 111.23 32.5161 110.443 32.5102C109.655 32.5042 108.878 32.7958 108.18 33.3595C107.464 33.9694 106.863 34.8559 106.435 35.9323C106.007 37.0087 105.768 38.2381 105.741 39.5001C105.709 40.2698 105.76 41.0423 105.893 41.7857L105.925 41.9524H105.811C104.973 41.9178 104.142 42.1891 103.385 42.7442C102.628 43.2994 101.967 44.1227 101.455 45.1472C100.944 46.1716 100.596 47.3682 100.44 48.6395C100.285 49.9108 100.326 51.2209 100.56 52.463L100.484 52.3748L122.501 52.4287L128.908 52.463H130.626H131.07L131.229 52.468Z" fill="#263238"/>
<path d="M126.951 81.4298C126.884 81.4416 126.817 81.4416 126.751 81.4298L126.166 81.4543L123.997 81.5131L116.476 81.5573H116.374V81.4347C116.374 79.4728 116.374 77.3393 116.374 75.1371C116.374 68.9327 116.393 63.3218 116.399 59.2314C116.399 57.2107 116.418 55.5725 116.425 54.4101C116.425 53.8608 116.425 53.4292 116.441 53.1006C116.441 52.9632 116.441 52.8504 116.441 52.7572C116.432 52.7537 116.424 52.7452 116.419 52.7333C116.414 52.7214 116.411 52.7071 116.412 52.6928C116.414 52.6786 116.418 52.6656 116.425 52.6561C116.432 52.6466 116.441 52.6414 116.45 52.6414C116.46 52.6414 116.468 52.6466 116.475 52.6561C116.482 52.6656 116.487 52.6786 116.488 52.6928C116.489 52.7071 116.487 52.7214 116.482 52.7333C116.477 52.7452 116.469 52.7537 116.46 52.7572C116.46 52.8504 116.46 52.9632 116.46 53.1006C116.46 53.4194 116.46 53.8608 116.476 54.4101C116.476 55.5725 116.492 57.2107 116.501 59.2314C116.501 63.3218 116.501 68.9327 116.526 75.1371C116.526 77.3393 116.526 79.4679 116.526 81.4347L116.447 81.3121L123.968 81.3562L126.147 81.3954H126.731C126.805 81.3964 126.878 81.4079 126.951 81.4298Z" fill="#263238"/>
<path d="M124.035 18.6457L116.946 14.722L109.924 18.6015C109.028 19.2539 108.24 19.6462 108.24 20.9361V27.3562C108.227 31.8641 109.028 36.2884 110.553 40.1327C112.071 44.0259 114.326 47.1071 117.013 48.961C119.871 47.519 122.028 43.6836 123.337 40.4025C124.861 36.5561 125.661 32.1304 125.649 27.6211V21.8239C125.649 19.9846 125.02 19.0871 124.035 18.6457Z" fill="#FF725E"/>
<g opacity="0.3">
<path opacity="0.3" d="M117.01 45.2188C114.882 43.7367 113.098 41.284 111.899 38.1905C110.691 35.1402 110.058 31.6288 110.073 28.0527V23.5502C110.073 22.5301 110.47 21.5884 111.264 21.0047L116.946 17.753V14.7121L109.924 18.5917C109.187 19.0821 108.24 19.6363 108.24 20.9263V27.3464C108.227 31.8543 109.028 36.2786 110.553 40.1229C112.071 44.0162 114.326 47.0973 117.013 48.9513L117.01 45.2188Z" fill="black"/>
</g>
<g opacity="0.4">
<path opacity="0.4" d="M117.009 48.9364C117.49 48.6921 117.957 48.3836 118.403 48.0144C119.497 47.0574 120.491 45.8502 121.351 44.434C122.132 43.1335 122.82 41.7061 123.403 40.1768C124.948 36.3062 125.727 31.8229 125.645 27.2778V21.9759C125.645 19.3372 124.762 19.141 124.025 18.6457L116.936 14.722V17.753L122.688 21.0882C123.479 21.662 123.876 22.6184 123.876 23.6386V28.141C123.887 31.7075 123.253 35.208 122.046 38.2493C120.874 41.3205 119.114 43.7553 117.009 45.2187V48.9364Z" fill="black"/>
</g>
<path opacity="0.5" d="M118.825 27.7829V26.9147C118.825 26.1603 118.631 25.4367 118.286 24.9032C117.94 24.3697 117.472 24.07 116.983 24.07C116.495 24.07 116.026 24.3697 115.681 24.9032C115.335 25.4367 115.141 26.1603 115.141 26.9147V27.7927C114.897 27.849 114.673 28.0389 114.512 28.3278C114.351 28.6167 114.262 28.9855 114.261 29.3671V34.4778C114.261 34.6869 114.288 34.8939 114.34 35.087C114.392 35.2802 114.468 35.4556 114.564 35.6032C114.66 35.7508 114.773 35.8678 114.899 35.9474C115.024 36.0269 115.158 36.0675 115.293 36.0669H118.727C118.862 36.0675 118.996 36.0269 119.122 35.9474C119.247 35.8678 119.361 35.7508 119.457 35.6032C119.552 35.4556 119.628 35.2802 119.68 35.087C119.732 34.8939 119.759 34.6869 119.759 34.4778V29.3671C119.759 28.9711 119.663 28.5895 119.49 28.2966C119.318 28.0038 119.081 27.8206 118.825 27.7829ZM117.482 33.2075H116.583L116.726 32.2265C116.646 32.1517 116.581 32.0465 116.535 31.9211C116.489 31.7957 116.465 31.6543 116.465 31.5104C116.465 31.3636 116.489 31.2191 116.536 31.0911C116.582 30.963 116.649 30.8557 116.731 30.7798C116.812 30.7038 116.905 30.6618 117 30.6577C117.095 30.6537 117.189 30.6878 117.273 30.7567C117.357 30.8256 117.428 30.927 117.479 31.0509C117.53 31.1748 117.559 31.317 117.564 31.4637C117.568 31.6103 117.548 31.7563 117.506 31.8874C117.463 32.0186 117.399 32.1303 117.32 32.2118C117.383 32.5748 117.482 33.2075 117.482 33.2075ZM118.435 27.778H115.548V26.9147C115.548 26.3229 115.7 25.7552 115.971 25.3367C116.242 24.9182 116.609 24.6831 116.993 24.6831C117.376 24.6831 117.744 24.9182 118.015 25.3367C118.286 25.7552 118.438 26.3229 118.438 26.9147L118.435 27.778Z" fill="white"/>
<path d="M111.222 27.7192C111.16 27.4322 111.124 27.1336 111.114 26.8314C111.062 26.1085 111.043 25.3808 111.057 24.6537C111.057 24.227 111.082 23.8199 111.108 23.4521C111.12 23.1124 111.174 22.7795 111.267 22.4711C111.337 22.2608 111.448 22.0894 111.584 21.9807C111.68 21.912 111.74 21.9169 111.74 21.9267C111.569 22.0492 111.432 22.2612 111.352 22.5251C111.276 22.8186 111.234 23.1309 111.229 23.4472C111.209 23.815 111.197 24.2172 111.187 24.639C111.187 25.4826 111.187 26.2478 111.209 26.802C111.231 27.1066 111.235 27.4135 111.222 27.7192Z" fill="white"/>
<path d="M111.326 30.5051C111.292 30.5051 111.26 30.2452 111.257 29.9165C111.254 29.5879 111.276 29.323 111.311 29.323C111.345 29.323 111.374 29.5879 111.38 29.9116C111.386 30.2354 111.358 30.5051 111.326 30.5051Z" fill="white"/>
</svg>
