<svg width="200" height="160" viewBox="0 0 200 160" fill="none" xmlns="http://www.w3.org/2000/svg">
<path d="M33.9591 71.8069H12.8647V76.5175H33.9591V71.8069Z" fill="#EBEBEB"/>
<path d="M25.0398 81.4804C25.0398 81.4804 25.0398 81.4475 25.0398 81.3926V81.1511C25.0398 80.9315 25.0398 80.6204 25.0398 80.2251C25.0398 79.4126 25.0398 78.2414 25.0051 76.7701L25.0701 76.825L3.94537 76.8689L4.05377 76.7811V77.9669C4.05377 78.3658 4.05377 78.7611 4.05377 79.1564V81.4731L3.94971 81.3816L18.9825 81.4219L23.4181 81.4475H24.6192H24.9314H25.0441H24.9444H24.6409H23.4658L19.0518 81.4731L3.94537 81.5134H3.84131V81.4255C3.84131 80.6679 3.84131 79.892 3.84131 79.1088V76.7225L3.94971 76.631L25.0441 76.664H25.1092V76.7189C25.1092 78.2048 25.0831 79.387 25.0745 80.2068C25.0745 80.5984 25.0745 80.9022 25.0745 81.1218C25.0745 81.2169 25.0745 81.2938 25.0745 81.3523C25.0738 81.3966 25.062 81.4403 25.0398 81.4804Z" fill="#E0E0E0"/>
<path d="M113.193 0H92.0991V4.71054H113.193V0Z" fill="#EBEBEB"/>
<path d="M104.275 9.67352C104.273 9.64548 104.273 9.61738 104.275 9.58934V9.34778C104.275 9.12452 104.275 8.81708 104.275 8.4218C104.275 7.60561 104.275 6.43807 104.24 4.96309L104.305 5.01799L83.2108 5.05459L83.3192 4.96309V7.34941C83.3192 8.1351 83.3192 8.90736 83.3192 9.6662L83.2151 9.57836L98.2478 9.61862L102.683 9.64424H103.885H104.201H104.309C104.309 9.64424 104.279 9.64424 104.214 9.64424H103.911H102.736L98.3215 9.6662L83.2151 9.71012H83.0894V9.61862C83.0894 8.861 83.0894 8.08873 83.0894 7.30183V4.97041L83.1978 4.87891L104.292 4.91551H104.335V4.97041C104.335 6.46003 104.309 7.63855 104.301 8.46205C104.301 8.85002 104.301 9.15746 104.301 9.3734C104.301 9.46856 104.301 9.54542 104.301 9.60764C104.301 9.66986 104.279 9.67718 104.275 9.67352Z" fill="#E0E0E0"/>
<path d="M196.406 12.3966H175.312V17.1071H196.406V12.3966Z" fill="#F5F5F5"/>
<path d="M187.486 12.2796C187.482 12.2516 187.482 12.2234 187.486 12.1954V11.9539C187.486 11.7306 187.486 11.4231 187.486 11.0278C187.486 10.2153 187.464 9.04401 187.451 7.56895L187.516 7.62385L166.422 7.66045C166.469 7.62019 166.313 7.75196 166.526 7.56895V12.2796L166.422 12.1918L181.454 12.232L185.89 12.2577H187.091H187.403H187.516C187.483 12.2611 187.45 12.2611 187.416 12.2577H187.117H185.938L181.515 12.3309L166.409 12.3711H166.3V7.57261C166.513 7.39326 166.361 7.52503 166.409 7.48477L187.503 7.51771H187.568V7.57261C187.568 9.06231 187.542 10.2409 187.533 11.0644C187.533 11.4561 187.533 11.7599 187.533 11.9795C187.533 12.0746 187.533 12.1478 187.533 12.2101C187.52 12.2344 187.504 12.2577 187.486 12.2796Z" fill="#E0E0E0"/>
<path d="M30.7501 13.6191C30.7463 13.5912 30.7463 13.5629 30.7501 13.535V13.2934C30.7501 13.0701 30.7501 12.7627 30.7501 12.3674C30.7501 11.5548 30.7501 10.3836 30.7111 8.90861L30.7804 8.96351L9.68611 9.00011C9.73381 8.95985 9.57772 9.09161 9.79018 8.90861V13.6191L9.65143 13.5496L24.6841 13.5899L29.1241 13.6155H30.3252H30.6374H30.7501C30.717 13.6187 30.6835 13.6187 30.6504 13.6155H30.3512H29.1718L24.7578 13.6411L9.65143 13.6814H9.54736V11.3023C9.54736 10.9107 9.54736 10.5154 9.54736 10.1164V8.91227C9.76416 8.73292 9.60807 8.86469 9.6601 8.82443L30.7544 8.85737H30.8195V8.91227C30.8195 10.4019 30.7891 11.5805 30.7804 12.404C30.7804 12.7956 30.7804 13.0994 30.7804 13.319C30.7804 13.4142 30.7804 13.4874 30.7804 13.5496C30.7726 13.5734 30.7625 13.5967 30.7501 13.6191Z" fill="#E0E0E0"/>
<path d="M198.738 86.3486C198.735 86.3193 198.735 86.2899 198.738 86.2607V86.0191C198.738 85.7995 198.738 85.4884 198.738 85.0931C198.738 84.2806 198.738 83.1094 198.704 81.638L198.769 81.6929L177.674 81.7259L177.778 81.638V86.3486L177.674 86.2571L192.707 86.2973L197.143 86.3229H198.344H198.656H198.769H198.669H198.37H197.195L192.781 86.3486L177.674 86.3888H177.566V81.6453L177.674 81.5538L198.769 81.5868H198.834V81.627C198.834 83.113 198.808 84.2952 198.799 85.1151C198.799 85.5067 198.799 85.8105 198.799 86.0301C198.799 86.1253 198.799 86.2022 198.799 86.2607C198.782 86.2914 198.761 86.3208 198.738 86.3486Z" fill="#E0E0E0"/>
<path d="M157.482 124.212C157.478 124.184 157.478 124.156 157.482 124.128V123.886C157.482 123.663 157.482 123.355 157.482 122.956C157.482 122.144 157.46 120.976 157.447 119.501L157.512 119.556L136.417 119.593C136.465 119.553 136.309 119.684 136.522 119.501V124.205L136.417 124.117L151.45 124.157L155.886 124.183H157.087H157.399H157.512H157.412H157.113H155.938L151.524 124.208L136.417 124.248H136.309V119.509L136.417 119.417L157.512 119.454H157.577V119.509C157.577 120.998 157.551 122.177 157.542 122.997C157.542 123.388 157.542 123.696 157.542 123.912C157.542 124.007 157.542 124.084 157.542 124.146C157.524 124.169 157.504 124.192 157.482 124.212Z" fill="#E0E0E0"/>
<path d="M44.8902 47.7823C44.8884 47.7543 44.8884 47.7262 44.8902 47.6981V47.4566C44.8902 47.2333 44.8902 46.9258 44.8902 46.5305C44.8902 45.7143 44.8902 44.5467 44.8555 43.0717L44.9206 43.1266L23.8262 43.1632L23.9346 43.0717V44.2942C23.9346 44.6932 23.9346 45.0921 23.9346 45.4837V47.8006L23.8306 47.7128L38.8633 47.753L43.2989 47.7786H44.5H44.8122H44.9249C44.9249 47.7786 44.8945 47.7786 44.8295 47.7786H44.5H43.3249L38.911 47.8006L23.8046 47.8445H23.6875V47.753C23.6875 46.9966 23.6875 46.2243 23.6875 45.4362V43.0498L23.7959 42.9583L44.8902 42.9948H44.9552V43.0498C44.9552 44.5394 44.9292 45.718 44.9206 46.5415C44.9206 46.9295 44.9206 47.2369 44.9206 47.4529V47.6871C44.8945 47.7603 44.8945 47.786 44.8902 47.7823Z" fill="#E0E0E0"/>
<path d="M47.752 43.0717C47.7486 43.0425 47.7486 43.0131 47.752 42.9839C47.752 42.9143 47.752 42.8338 47.752 42.7313C47.752 42.5007 47.752 42.186 47.752 41.787C47.752 40.9635 47.726 39.796 47.7086 38.3612L47.7867 38.4271L35.1127 38.4527C35.013 38.5332 35.2428 38.3429 35.2168 38.3612V40.7842C35.2168 41.5711 35.2168 42.336 35.2168 43.0681L35.117 42.9839L44.1835 43.0241L46.8241 43.0461H47.5352H47.791C47.7145 43.0513 47.6377 43.0513 47.5612 43.0461H46.8674L44.2659 43.0717L35.13 43.112H34.9609V43.0241C34.9609 42.2921 34.9609 41.5272 34.9609 40.7403V38.3649L35.0693 38.2734L47.7433 38.299H47.8214V38.3649C47.8214 39.8289 47.7867 40.9965 47.778 41.831C47.778 42.2226 47.778 42.5337 47.778 42.7606C47.778 42.9875 47.7563 43.0754 47.752 43.0717Z" fill="#E0E0E0"/>
<path d="M133.243 80.1082C133.243 80.1082 129.809 79.8849 130.091 86.3888C130.373 92.8928 131.141 96.3552 131.141 96.3552C131.141 96.3552 131.032 97.7973 129.71 97.5118C128.387 97.2263 125.911 95.8099 124.676 96.853C123.44 97.8961 123.839 99.6053 125.521 101.578C127.204 103.551 130.694 107.983 131.006 108.386C131.318 108.788 131.44 109.517 130.499 109.444C129.558 109.37 123.24 107.533 122.391 110.117C121.541 112.701 127.29 117.543 127.906 118.081C128.522 118.619 128.552 118.96 128.301 119.286C128.049 119.611 125.994 118.824 124.168 118.363C122.343 117.902 120.14 117.631 119.793 119.165C119.446 120.698 121.961 125.167 131.474 129.9L136.045 131.847L140.38 129.526C149.334 124.088 151.359 119.436 150.852 117.942C150.344 116.449 148.172 116.881 146.407 117.481C144.643 118.081 142.683 119.018 142.397 118.715C142.111 118.411 142.102 118.07 142.657 117.485C143.212 116.899 148.415 111.629 147.288 109.129C146.16 106.629 140.068 108.935 139.145 109.081C138.221 109.228 138.256 108.485 138.52 108.067C138.785 107.65 141.79 102.962 143.251 100.868C144.712 98.7745 144.985 97.0762 143.58 96.11C142.176 95.1437 139.921 96.7615 138.637 97.1494C137.354 97.5374 137.089 96.11 137.089 96.11C137.089 96.11 137.48 92.6 137.059 86.1033C136.639 79.6067 133.157 80.1155 133.157 80.1155" fill="#EBEBEB"/>
<path d="M133.482 85.9312C133.482 85.9312 133.482 85.9751 133.482 86.0666C133.482 86.1581 133.504 86.2935 133.517 86.4655C133.547 86.8315 133.582 87.3403 133.634 88.0028C133.733 89.335 133.855 91.2675 133.998 93.6539C134.288 98.412 134.622 105.022 134.961 112.32C135.299 119.618 135.611 126.207 135.867 130.987C135.997 133.369 136.105 135.298 136.179 136.641C136.214 137.3 136.24 137.82 136.261 138.175C136.261 138.347 136.261 138.479 136.261 138.578V138.713C136.261 138.713 136.261 138.669 136.261 138.578C136.261 138.486 136.24 138.347 136.227 138.179C136.201 137.813 136.162 137.304 136.11 136.641C136.014 135.309 135.888 133.377 135.745 130.99C135.455 126.232 135.121 119.622 134.783 112.324C134.445 105.026 134.132 98.4413 133.877 93.6576C133.746 91.2749 133.638 89.346 133.564 88.0028C133.53 87.3403 133.504 86.8242 133.482 86.4655C133.482 86.2972 133.482 86.1617 133.482 86.0666V85.9312Z" fill="#E0E0E0"/>
<path d="M128.053 98.9465C128.156 99.004 128.25 99.0715 128.335 99.1478C128.512 99.2833 128.768 99.4882 129.059 99.7408C129.661 100.25 130.472 100.971 131.344 101.779L133.577 103.855L134.253 104.484C134.345 104.554 134.425 104.634 134.492 104.722C134.387 104.667 134.291 104.6 134.205 104.525C134.032 104.389 133.772 104.184 133.486 103.928C132.892 103.416 132.09 102.687 131.218 101.878C130.346 101.069 129.575 100.367 128.968 99.814L128.287 99.1954C128.195 99.1222 128.116 99.0384 128.053 98.9465Z" fill="#E0E0E0"/>
<path d="M134.948 104.598C134.913 104.568 136.6 103.093 138.707 101.304C140.814 99.5138 142.562 98.0826 142.609 98.1119C142.657 98.1412 140.957 99.6162 138.846 101.406C136.734 103.196 134.982 104.627 134.948 104.598Z" fill="#E0E0E0"/>
<path d="M134.869 115.808C134.967 115.74 135.075 115.682 135.19 115.636L136.088 115.215C136.846 114.849 137.891 114.366 139.023 113.784C140.155 113.202 141.156 112.653 141.88 112.247L142.748 111.771C142.847 111.705 142.956 111.651 143.073 111.61C142.987 111.689 142.891 111.759 142.787 111.819C142.596 111.943 142.314 112.123 141.958 112.335C141.252 112.763 140.259 113.33 139.123 113.912C137.987 114.494 136.929 114.974 136.157 115.307C135.767 115.475 135.45 115.603 135.229 115.673C135.116 115.73 134.995 115.776 134.869 115.808Z" fill="#E0E0E0"/>
<path d="M127.316 111.855C127.428 111.887 127.534 111.93 127.633 111.984C127.832 112.071 128.114 112.207 128.461 112.375C129.159 112.712 130.113 113.188 131.162 113.718C132.212 114.249 133.157 114.74 133.838 115.102C134.176 115.281 134.449 115.428 134.636 115.534C134.737 115.584 134.831 115.643 134.917 115.71C134.806 115.68 134.699 115.638 134.601 115.585C134.401 115.494 134.12 115.358 133.773 115.19C133.075 114.853 132.121 114.377 131.071 113.847C130.022 113.316 129.077 112.825 128.396 112.467C128.058 112.284 127.785 112.137 127.598 112.031C127.497 111.981 127.403 111.922 127.316 111.855Z" fill="#E0E0E0"/>
<path d="M125.742 121.745C125.882 121.788 126.015 121.843 126.141 121.91L127.208 122.411C128.101 122.839 129.332 123.44 130.677 124.113C132.021 124.787 133.248 125.398 134.145 125.848L135.177 126.39C135.308 126.451 135.432 126.524 135.546 126.606C135.405 126.562 135.27 126.507 135.143 126.441L134.08 125.939C133.187 125.511 131.956 124.911 130.611 124.238C129.267 123.564 128.04 122.953 127.143 122.503L126.106 121.961C125.977 121.899 125.855 121.827 125.742 121.745Z" fill="#E0E0E0"/>
<path d="M135.342 126.434C135.468 126.35 135.601 126.276 135.741 126.21L136.86 125.643C137.801 125.164 139.102 124.494 140.511 123.725C141.92 122.956 143.182 122.235 144.088 121.708L145.163 121.082C145.288 120.999 145.423 120.928 145.566 120.87C145.455 120.966 145.333 121.053 145.202 121.13C144.959 121.291 144.604 121.518 144.157 121.792C143.29 122.345 142.02 123.081 140.606 123.85C139.193 124.618 137.883 125.273 136.921 125.731C136.439 125.962 136.053 126.141 135.776 126.262C135.639 126.332 135.494 126.39 135.342 126.434Z" fill="#E0E0E0"/>
<path d="M142.192 133.135L129.514 133.088L133.516 159.543L137.917 159.561L142.192 133.135Z" fill="#E0E0E0"/>
<path d="M130.156 136.341C130.156 136.341 130.156 136.378 130.225 136.437C130.308 136.517 130.412 136.58 130.529 136.62C130.749 136.686 130.984 136.708 131.217 136.685C131.449 136.663 131.672 136.595 131.868 136.488C132.38 136.25 132.831 135.785 133.516 135.58C134.278 135.377 135.099 135.394 135.849 135.628C136.612 135.851 137.34 136.152 138.017 136.524C138.581 136.827 139.169 137.096 139.777 137.33C140.19 137.49 140.628 137.599 141.078 137.652C141.198 137.668 141.32 137.675 141.442 137.674C141.529 137.674 141.572 137.674 141.572 137.674C140.972 137.593 140.388 137.441 139.838 137.224C139.24 136.977 138.661 136.699 138.104 136.393C137.419 136.007 136.679 135.697 135.901 135.47C135.11 135.224 134.243 135.213 133.442 135.437C133.104 135.553 132.79 135.715 132.515 135.917C132.283 136.086 132.04 136.244 131.786 136.389C131.608 136.493 131.405 136.562 131.191 136.592C130.978 136.623 130.759 136.613 130.55 136.565C130.404 136.511 130.27 136.436 130.156 136.341Z" fill="#F5F5F5"/>
<path d="M130.594 141.213C130.594 141.213 130.694 141.103 130.893 140.931C131.181 140.692 131.528 140.509 131.908 140.393C132.473 140.222 133.073 140.147 133.673 140.173C134.414 140.223 135.151 140.311 135.88 140.437C136.623 140.559 137.385 140.589 138.139 140.525C138.753 140.459 139.352 140.316 139.916 140.1C140.296 139.958 140.655 139.78 140.987 139.57C141.114 139.497 141.23 139.411 141.33 139.313C140.86 139.568 140.369 139.793 139.86 139.987C139.304 140.176 138.721 140.299 138.126 140.353C137.39 140.409 136.648 140.376 135.923 140.254C135.186 140.128 134.44 140.043 133.69 140.001C133.066 139.982 132.445 140.072 131.864 140.265C131.472 140.396 131.123 140.604 130.846 140.873C130.771 140.946 130.706 141.026 130.65 141.11C130.603 141.176 130.59 141.209 130.594 141.213Z" fill="#F5F5F5"/>
<path d="M140.702 143.848C140.599 143.777 140.482 143.724 140.355 143.691C140.017 143.586 139.664 143.521 139.305 143.497C138.773 143.469 138.239 143.494 137.714 143.57C137.124 143.647 136.487 143.782 135.824 143.899C135.204 144.022 134.569 144.079 133.933 144.071C133.418 144.059 132.911 143.965 132.437 143.793C132.003 143.619 131.616 143.369 131.301 143.062C131.353 143.164 131.427 143.259 131.518 143.34C131.76 143.571 132.055 143.758 132.385 143.889C132.871 144.086 133.399 144.198 133.938 144.218C134.589 144.234 135.24 144.18 135.876 144.057C136.552 143.936 137.177 143.797 137.758 143.713C138.269 143.631 138.789 143.596 139.31 143.607C139.784 143.637 140.252 143.719 140.702 143.848Z" fill="#F5F5F5"/>
<path d="M131.683 147.508C132.072 147.371 132.501 147.336 132.914 147.409C133.366 147.502 133.802 147.639 134.215 147.819C134.739 148.033 135.304 148.167 135.884 148.215C136.943 148.297 138.006 148.094 138.919 147.633C139.194 147.495 139.448 147.332 139.678 147.146C139.766 147.08 139.842 147.003 139.904 146.919C139.566 147.138 139.214 147.341 138.85 147.527C137.95 147.938 136.926 148.116 135.906 148.039C134.705 147.977 133.786 147.369 132.953 147.307C132.634 147.257 132.305 147.28 131.999 147.373C131.765 147.406 131.674 147.483 131.683 147.508Z" fill="#F5F5F5"/>
<path d="M132.359 152.57C132.723 152.578 133.084 152.518 133.417 152.395C134.059 152.219 134.848 151.809 135.772 151.501C136.201 151.357 136.658 151.278 137.12 151.271C137.495 151.272 137.864 151.345 138.2 151.483C138.507 151.623 138.773 151.818 138.98 152.054C138.965 151.972 138.925 151.895 138.863 151.831C138.711 151.641 138.507 151.485 138.269 151.373C137.919 151.208 137.526 151.118 137.125 151.11C136.636 151.107 136.151 151.185 135.698 151.34C134.744 151.655 133.964 152.073 133.365 152.281C132.767 152.49 132.355 152.541 132.359 152.57Z" fill="#F5F5F5"/>
<path d="M132.953 154.931C133.205 155.039 133.476 155.114 133.755 155.154C134.413 155.292 135.083 155.39 135.758 155.447C136.433 155.507 137.113 155.526 137.792 155.506C138.075 155.512 138.358 155.485 138.633 155.425C138.633 155.37 137.332 155.425 135.78 155.275C134.227 155.125 132.983 154.88 132.953 154.931Z" fill="#F5F5F5"/>
<path d="M49.8846 137.835H19.1514V141.4H49.8846V137.835Z" fill="#263238"/>
<path d="M49.937 141.444H19.0996V137.784H49.937V141.444ZM19.2037 141.356H49.8286V137.879H19.2037V141.356Z" fill="#263238"/>
<path d="M22 140.214L26.4227 158.635H42.7909L47.0662 141.4L22 140.214Z" fill="#263238"/>
<path d="M22 156.893L24.3588 159.631H44.2521L47.0662 156.893H22Z" fill="#455A64"/>
<path d="M33.361 140.752C33.3046 140.752 33.2266 132.217 33.1919 121.69C33.1572 111.164 33.1919 102.632 33.2353 102.632C33.2786 102.632 33.374 111.164 33.4087 121.69C33.4434 132.217 33.4217 140.752 33.361 140.752Z" fill="#263238"/>
<path d="M40.2071 119.395C40.19 119.464 40.1623 119.53 40.1248 119.593C40.0554 119.739 39.9643 119.922 39.8516 120.146C39.7909 120.266 39.7215 120.398 39.6521 120.545C39.5828 120.691 39.5177 120.856 39.4483 121.028C39.379 121.2 39.2923 121.394 39.2099 121.584C39.1275 121.774 39.0625 121.994 38.9801 122.217C38.614 123.26 38.3244 124.321 38.1129 125.394C37.8746 126.71 37.7168 128.036 37.6403 129.365C37.5251 131.785 37.6062 134.209 37.8831 136.62C37.9785 137.546 38.0782 138.296 38.1519 138.816C38.1823 139.057 38.2083 139.255 38.23 139.412C38.2415 139.482 38.2415 139.552 38.23 139.621C38.2016 139.555 38.1827 139.486 38.1736 139.416L38.0565 138.823C37.9568 138.311 37.831 137.564 37.714 136.627C37.3911 134.211 37.2882 131.777 37.4061 129.347C37.4854 128.011 37.6504 126.679 37.9004 125.358C38.1203 124.279 38.4245 123.214 38.811 122.17C38.8977 121.95 38.9671 121.734 39.0581 121.536L39.3096 120.984C39.3876 120.812 39.4657 120.651 39.5307 120.501C39.5958 120.351 39.6868 120.226 39.7519 120.109L40.0641 119.571C40.1039 119.508 40.1519 119.449 40.2071 119.395Z" fill="#263238"/>
<path d="M39.4216 112.493C39.4004 112.589 39.3684 112.683 39.3262 112.774C39.2438 112.972 39.1398 113.236 39.0053 113.569C38.9302 113.742 38.8521 113.932 38.7712 114.14C38.6932 114.352 38.6108 114.583 38.5241 114.828C38.342 115.322 38.1338 115.882 37.9474 116.515C37.852 116.83 37.7479 117.159 37.6395 117.5C37.5311 117.84 37.4531 118.206 37.3534 118.579C37.1366 119.311 36.9848 120.131 36.7854 120.973C36.4472 122.668 36.148 124.542 35.9399 126.518C35.7318 128.494 35.6624 130.387 35.632 132.107C35.6017 133.827 35.632 135.375 35.7361 136.675C35.7621 137.322 35.8141 137.912 35.8532 138.428C35.8922 138.944 35.9269 139.387 35.9659 139.749C36.0049 140.111 36.0223 140.379 36.0396 140.584C36.0512 140.681 36.0512 140.779 36.0396 140.876C36.0106 140.783 35.9918 140.687 35.9832 140.591C35.9572 140.381 35.9182 140.103 35.8662 139.756C35.8141 139.39 35.7664 138.951 35.7187 138.435C35.6711 137.919 35.606 137.337 35.5713 136.682C35.4673 135.379 35.4239 133.827 35.4196 132.103C35.4152 130.379 35.515 128.487 35.7101 126.503C35.9052 124.52 36.2217 122.642 36.5773 120.944C36.781 120.098 36.9415 119.289 37.1669 118.546L37.4661 117.467L37.7913 116.478C37.9864 115.849 38.2249 115.289 38.3983 114.798C38.4894 114.553 38.5804 114.323 38.6628 114.11C38.7452 113.898 38.8362 113.715 38.9143 113.543C39.066 113.217 39.1831 112.954 39.2742 112.76C39.3125 112.667 39.3619 112.577 39.4216 112.493Z" fill="#263238"/>
<path d="M31.4178 142.26C31.4132 142.227 31.4132 142.194 31.4178 142.161C31.4178 142.084 31.4178 141.989 31.3875 141.868C31.3875 141.594 31.3354 141.217 31.3008 140.737C31.227 139.742 31.1186 138.325 30.9929 136.579C30.7241 133.069 30.3382 128.223 29.6401 122.891C29.2802 120.226 28.8683 117.693 28.4347 115.399C28.2049 114.253 28.0011 113.162 27.7626 112.148C27.5242 111.135 27.329 110.19 27.0992 109.33C26.8694 108.47 26.6656 107.694 26.4922 107.013C26.3188 106.333 26.141 105.747 25.9979 105.271C25.8548 104.795 25.7551 104.437 25.677 104.173C25.6467 104.052 25.6207 103.961 25.599 103.884C25.5953 103.851 25.5953 103.818 25.599 103.785C25.6176 103.815 25.6308 103.847 25.638 103.88C25.664 103.954 25.6987 104.045 25.7377 104.162C25.8245 104.426 25.9459 104.788 26.0976 105.26C26.2494 105.732 26.4402 106.314 26.6266 106.995C26.8131 107.676 27.0602 108.459 27.2683 109.308C27.4765 110.157 27.7366 111.109 27.9577 112.126C28.1789 113.144 28.4174 114.231 28.6515 115.377C29.0851 117.675 29.5187 120.208 29.8742 122.88C30.5723 128.216 30.9365 133.069 31.175 136.579C31.2877 138.336 31.3658 139.756 31.4135 140.741C31.4352 141.22 31.4525 141.601 31.4655 141.872C31.4655 141.993 31.4655 142.091 31.4655 142.168C31.4542 142.2 31.4382 142.231 31.4178 142.26Z" fill="#263238"/>
<path d="M33.1133 106.732C32.9788 105.524 31.5306 104.612 30.0781 104.598C28.6255 104.583 27.2987 105.33 26.4185 106.278C25.5929 107.273 24.9958 108.391 24.6581 109.572C23.6912 112.423 23.1622 115.428 23.5742 118.356C23.9861 121.284 25.4039 124.212 27.9101 126.276C28.3177 126.613 28.8423 126.953 29.4017 126.851C29.7021 126.776 29.9742 126.636 30.1908 126.445C32.6409 124.552 34.5829 122.24 35.8864 119.661C37.19 117.083 37.8248 114.299 37.7484 111.497C37.7094 110.377 37.5359 109.213 36.8032 108.28C36.0704 107.347 34.3577 106.358 33.1089 106.732" fill="#FF725E"/>
<path d="M22.3865 97.0506C21.713 98.0828 21.038 99.1149 20.3616 100.147C20.3139 100.22 20.2532 100.301 20.1534 100.308C20.0537 100.315 19.9713 100.228 19.9106 100.154L14.5557 93.2002L15.7871 92.611L22.3865 97.0506Z" fill="#FF725E"/>
<g opacity="0.2">
<path opacity="0.2" d="M22.3865 97.0506C21.713 98.0828 21.038 99.1149 20.3616 100.147C20.3139 100.22 20.2532 100.301 20.1534 100.308C20.0537 100.315 19.9713 100.228 19.9106 100.154L14.5557 93.2002L15.7871 92.611L22.3865 97.0506Z" fill="black"/>
</g>
<path d="M33.2267 102.628L14.9637 93.5295C14.7692 93.4585 14.6142 93.3276 14.5301 93.1635C14.4564 92.9366 14.6602 92.717 14.8553 92.5486C16.11 91.4487 17.6311 90.5902 19.3148 90.0319C20.9985 89.4735 22.805 89.2283 24.6112 89.3131C26.4172 89.4225 28.1644 89.9016 29.7018 90.709C31.2392 91.5163 32.5205 92.6276 33.4349 93.9467C35.1996 96.6076 35.2603 100.125 33.2354 102.647" fill="#FF725E"/>
<path d="M17.6167 90.6234C17.6945 90.606 17.7747 90.5974 17.8552 90.5978C18.0113 90.5978 18.2454 90.5685 18.5446 90.5722C19.3945 90.5603 20.2439 90.6167 21.0811 90.7405C23.8677 91.1369 26.4617 92.198 28.5569 93.7986C30.6521 95.3993 32.161 97.4726 32.9053 99.7737C33.1253 100.465 33.2704 101.172 33.3389 101.886C33.3692 102.138 33.3389 102.204 33.3649 102.336C33.3493 102.455 33.3019 102.571 33.2262 102.673C33.2794 102.415 33.2882 102.153 33.2522 101.893C33.1463 101.188 32.9738 100.492 32.7362 99.8103C31.9699 97.5452 30.4668 95.5067 28.3975 93.9262C26.3282 92.3457 23.7755 91.2864 21.0291 90.8686C20.2023 90.7361 19.3642 90.6602 18.5229 90.6417C17.9289 90.6307 17.6167 90.6417 17.6167 90.6234Z" fill="#263238"/>
<path d="M30.7632 96.3478C30.4735 96.5001 30.1635 96.6229 29.8397 96.7138C29.2586 96.9078 28.4435 97.1567 27.5329 97.3983C26.6224 97.6398 25.7985 97.8375 25.1828 97.9619C24.8589 98.0481 24.5242 98.1021 24.1855 98.123C24.4912 98.0007 24.8108 97.905 25.1395 97.8375L27.4679 97.2226L29.7876 96.5894C30.1027 96.4822 30.4295 96.4013 30.7632 96.3478Z" fill="#263238"/>
<path d="M27.8843 89.8256C28.0488 90.3881 28.1217 90.9668 28.1011 91.5459C28.1557 92.1234 28.1178 92.7045 27.9884 93.2735C27.8986 92.7021 27.8638 92.1256 27.8843 91.5495C27.8296 90.9758 27.8296 90.3993 27.8843 89.8256Z" fill="#263238"/>
<path d="M14.8027 93.3576C15.2324 93.1971 15.6778 93.0685 16.1339 92.9733C16.962 92.7573 18.1197 92.4828 19.4075 92.2229C20.6953 91.963 21.8747 91.758 22.7288 91.6336C23.1863 91.5454 23.652 91.4915 24.1207 91.4725C23.6756 91.5963 23.2206 91.693 22.7592 91.7617C21.892 91.9191 20.743 92.1277 19.4595 92.4023C18.1761 92.6768 17.0141 92.9147 16.1729 93.0977C15.7247 93.2138 15.2667 93.3007 14.8027 93.3576Z" fill="#263238"/>
<path d="M25.5299 104.111C23.956 103.104 22.2953 102.907 20.3268 102.973C18.3526 103.083 16.4202 103.504 14.6294 104.213C11.5508 105.352 8.65442 107.032 6.82465 109.407C4.99488 111.783 4.33148 114.934 5.71031 117.518C5.81923 117.791 6.04504 118.019 6.34336 118.158C6.68426 118.241 7.04869 118.217 7.37098 118.093C10.8788 117.126 14.4039 116.153 17.6298 114.641C20.8558 113.129 23.7825 111.029 25.5126 108.28C25.955 107.632 26.2368 106.914 26.3408 106.172C26.3891 105.8 26.3425 105.423 26.2041 105.068C26.0657 104.713 25.8388 104.386 25.5386 104.111" fill="#FF725E"/>
<path d="M25.56 103.796C25.48 103.833 25.3957 103.862 25.3085 103.884L24.5714 104.096L24.0424 104.246C23.8473 104.305 23.6435 104.378 23.418 104.451C22.9844 104.601 22.4641 104.755 21.9221 104.975L21.0549 105.308C20.7601 105.421 20.4609 105.564 20.1444 105.699C19.5113 105.963 18.8696 106.3 18.1845 106.64C16.7251 107.416 15.3379 108.285 14.035 109.239C12.7513 110.206 11.5555 111.253 10.4578 112.372C9.97219 112.902 9.4909 113.397 9.10066 113.894C8.90121 114.14 8.69742 114.37 8.52398 114.608L8.02534 115.3C7.69581 115.724 7.453 116.134 7.21885 116.486C7.10612 116.665 6.99338 116.826 6.89799 116.98C6.8026 117.134 6.72889 117.276 6.65518 117.408C6.51643 117.65 6.39936 117.844 6.31264 117.994C6.27757 118.065 6.23244 118.133 6.17822 118.195C6.19884 118.12 6.22939 118.048 6.26928 117.979C6.35166 117.825 6.45139 117.613 6.57713 117.379C6.64651 117.243 6.72455 117.101 6.80694 116.943C6.88932 116.786 7.00206 116.621 7.11046 116.438C7.33593 116.072 7.57007 115.662 7.89093 115.23L8.38089 114.546C8.55433 114.304 8.75812 114.074 8.95324 113.814C9.33914 113.309 9.82043 112.807 10.3017 112.273C12.4806 109.989 15.1126 108.041 18.0804 106.516C18.7742 106.175 19.4246 105.842 20.0663 105.582C20.3872 105.451 20.6864 105.308 20.9899 105.194L21.8571 104.876C22.4077 104.66 22.928 104.51 23.379 104.374C23.6045 104.305 23.8126 104.235 24.0077 104.181L24.5454 104.049L25.2955 103.866C25.3816 103.837 25.47 103.814 25.56 103.796Z" fill="#263238"/>
<path d="M13.2804 109.411C12.0298 109.814 10.7547 110.161 9.46044 110.45C8.17952 110.798 6.87674 111.085 5.55811 111.31C6.81031 110.907 8.08685 110.56 9.38239 110.271C10.6619 109.924 11.9632 109.637 13.2804 109.411Z" fill="#263238"/>
<path d="M13.1247 116.53C13.0569 116.197 13.0293 115.86 13.0423 115.523C13.0207 114.901 13.0163 114.059 13.0423 113.096C13.0684 112.134 13.1334 111.288 13.1941 110.67C13.204 110.333 13.2548 109.998 13.3459 109.671C13.3807 110.006 13.3807 110.342 13.3459 110.677C13.3198 111.358 13.2895 112.185 13.2548 113.1C13.2201 114.015 13.2028 114.842 13.1854 115.523C13.1995 115.859 13.1792 116.196 13.1247 116.53Z" fill="#263238"/>
<path d="M20.3528 113.422C20.2921 113.422 20.097 111.68 19.9192 109.524C19.7414 107.368 19.6461 105.615 19.7068 105.611C19.7675 105.608 19.9582 107.354 20.1403 109.509C20.3224 111.665 20.4135 113.418 20.3528 113.422Z" fill="#263238"/>
<path d="M11.356 105.439C11.7632 105.4 12.1738 105.39 12.583 105.41C13.3375 105.41 14.3824 105.432 15.5315 105.465C16.6805 105.498 17.7255 105.538 18.4799 105.575C18.8888 105.576 19.2967 105.609 19.6983 105.674C19.2928 105.716 18.8835 105.727 18.4756 105.707C17.7211 105.707 16.6762 105.681 15.5271 105.648C14.3781 105.615 13.3288 105.579 12.5744 105.542C12.1654 105.538 11.7577 105.504 11.356 105.439Z" fill="#263238"/>
<path d="M28.6994 126.686C28.6854 126.617 28.6767 126.547 28.6733 126.477C28.6733 126.324 28.6733 126.111 28.643 125.885C28.617 125.368 28.6083 124.622 28.643 123.688C28.6777 122.755 28.7341 121.672 28.8685 120.457C29.0029 119.242 29.2153 117.895 29.5102 116.522C29.805 115.15 30.191 113.836 30.5422 112.657C30.8934 111.479 31.314 110.428 31.6825 109.557C32.0511 108.686 32.359 107.979 32.6018 107.511C32.7188 107.288 32.8099 107.105 32.8836 106.962C32.9113 106.897 32.9477 106.834 32.992 106.775C32.9796 106.845 32.9563 106.912 32.9226 106.977C32.8619 107.123 32.7795 107.306 32.6842 107.537C32.4674 108.016 32.1725 108.722 31.817 109.597C31.4614 110.472 31.0972 111.522 30.7243 112.701C30.3514 113.88 30.0045 115.182 29.7053 116.566C29.4061 117.95 29.198 119.274 29.0462 120.482C28.8945 121.69 28.8121 122.784 28.7731 123.707C28.7341 124.629 28.7124 125.368 28.7167 125.885C28.7167 126.126 28.7167 126.324 28.7167 126.477C28.7228 126.547 28.7169 126.618 28.6994 126.686Z" fill="#263238"/>
<path d="M29.6662 116.588C29.454 116.835 29.2097 117.061 28.9377 117.262C28.4651 117.66 27.793 118.195 27.0256 118.762C26.2581 119.329 25.547 119.82 25.0181 120.164C24.7531 120.364 24.4622 120.538 24.1509 120.684C24.3899 120.455 24.6541 120.247 24.94 120.061L26.9042 118.623L28.851 117.159C29.1 116.947 29.373 116.756 29.6662 116.588Z" fill="#263238"/>
<path d="M35.4503 120.519C35.1622 120.235 34.9026 119.932 34.6741 119.611C34.1712 118.997 33.5511 118.232 32.866 117.386L31.0232 115.19C30.7501 114.896 30.5037 114.585 30.2861 114.26C30.6039 114.522 30.894 114.806 31.1533 115.109C31.6606 115.655 32.337 116.42 33.0525 117.287C33.7679 118.155 34.3793 118.956 34.7869 119.546C35.0387 119.854 35.2606 120.18 35.4503 120.519Z" fill="#263238"/>
<path d="M32.4195 108.152C32.4498 108.195 30.529 109.286 28.1269 110.589C25.7248 111.892 23.7519 112.917 23.7173 112.873C23.6826 112.829 25.6077 111.738 28.0098 110.435C30.4119 109.132 32.3848 108.108 32.4195 108.152Z" fill="#263238"/>
<path d="M37.8352 113.104C36.8179 112.393 35.848 111.636 34.9301 110.834C33.9612 110.078 33.042 109.278 32.1768 108.437C33.1947 109.146 34.1646 109.902 35.0818 110.703C36.0528 111.458 36.9721 112.26 37.8352 113.104Z" fill="#263238"/>
<path d="M39.1962 112.99L40.8482 112.873C42.0188 112.793 43.1549 112.499 44.1783 112.013C44.6777 111.764 45.1963 111.544 45.7305 111.354C47.7684 110.662 50.0448 110.787 52.2345 110.695C55.8265 110.54 59.3455 109.779 62.5844 108.459C62.7745 108.387 62.9334 108.266 63.0397 108.115C63.3779 107.592 62.7492 107.13 62.2072 106.849C59.4278 105.385 56.6008 103.921 53.4485 103.222C50.2963 102.522 46.7191 102.625 44.0308 104.188C40.8786 106.018 39.7252 109.788 39.1919 112.99" fill="#FF725E"/>
<path d="M63.0793 107.943C62.9824 107.915 62.8894 107.878 62.8018 107.833L62.017 107.489C61.3406 107.185 60.365 106.757 59.1292 106.245C57.6952 105.645 56.2006 105.155 54.6632 104.781C52.7825 104.326 50.8132 104.191 48.8704 104.385C46.9256 104.572 45.0889 105.238 43.5891 106.3C42.4206 107.218 41.4854 108.328 40.8401 109.561C40.3907 110.389 39.9913 111.235 39.6434 112.097L39.3486 112.8C39.3204 112.883 39.2826 112.964 39.2358 113.041C39.2497 112.955 39.2744 112.871 39.3096 112.789C39.3746 112.609 39.457 112.372 39.561 112.057C39.8817 111.185 40.2624 110.329 40.7014 109.495C41.3333 108.233 42.2712 107.097 43.4547 106.16C44.9784 105.073 46.852 104.393 48.8357 104.21C50.8074 104.013 52.8058 104.155 54.7109 104.627C56.2572 105.007 57.7581 105.509 59.1943 106.124C60.4257 106.644 61.3883 107.105 62.056 107.423L62.8192 107.789C62.9121 107.833 62.9993 107.884 63.0793 107.943Z" fill="#263238"/>
<path d="M59.1203 109.74C59.0857 109.78 56.9264 108.602 54.3031 107.108C51.6799 105.615 49.5727 104.367 49.6074 104.323C49.642 104.279 51.797 105.461 54.4246 106.955C57.0521 108.448 59.1507 109.696 59.1203 109.74Z" fill="#263238"/>
<path d="M56.818 104.228C56.3127 104.376 55.7831 104.456 55.2484 104.466C54.718 104.533 54.1788 104.533 53.6484 104.466C54.1709 104.385 54.7 104.339 55.2311 104.327C55.7563 104.26 56.2868 104.227 56.818 104.228Z" fill="#263238"/>
<path d="M47.3743 103.192C47.1974 103.531 46.959 103.845 46.6676 104.122C46.4217 104.444 46.1207 104.734 45.7744 104.982C45.9518 104.642 46.1901 104.327 46.4812 104.049C46.7278 103.728 47.0287 103.439 47.3743 103.192Z" fill="#263238"/>
<path d="M49.3086 110.812C48.9462 110.682 48.5992 110.522 48.2723 110.337C47.6479 110.018 46.8067 109.55 45.9049 108.997C45.003 108.444 44.2138 107.925 43.6415 107.533C43.3284 107.337 43.0354 107.119 42.7656 106.882C43.1153 107.034 43.4465 107.216 43.7542 107.423L46.0523 108.832C46.9498 109.385 47.7867 109.865 48.372 110.212C48.7028 110.391 49.016 110.591 49.3086 110.812Z" fill="#263238"/>
<path d="M41.6251 118.901C40.0555 118.553 38.1564 119.842 37.8529 121.189C37.5494 122.536 38.1261 123.912 38.8285 125.153C40.3263 127.931 42.5499 130.387 45.3324 132.337C48.1507 134.23 51.6758 135.441 55.279 135.426C54.6156 132.82 55.4568 130.094 55.0839 127.447C54.7581 125.113 53.5031 122.941 51.5244 121.288C49.5457 119.634 46.9605 118.596 44.192 118.345C43.1904 118.253 42.0241 118.122 41.6251 118.901Z" fill="#FF725E"/>
<path d="M55.2791 135.43C55.2001 135.409 55.1244 135.379 55.0537 135.342C54.8481 135.245 54.6523 135.134 54.4683 135.009C53.8079 134.525 53.2772 133.927 52.9117 133.256C52.6645 132.846 52.3827 132.4 52.1095 131.906C51.8364 131.411 51.5589 130.881 51.2423 130.324C50.9349 129.745 50.5875 129.182 50.2017 128.637C49.7749 128.059 49.2966 127.51 48.7708 126.994C47.6912 125.925 46.5378 125.003 45.5362 124.121C44.6294 123.349 43.8039 122.513 43.0691 121.621C42.5904 121.019 42.1975 120.371 41.8983 119.692C41.8173 119.505 41.7478 119.314 41.6902 119.121C41.6662 119.054 41.6488 118.985 41.6382 118.916C41.6382 118.916 41.7509 119.19 41.9807 119.666C42.3154 120.334 42.7356 120.968 43.2338 121.559C43.9791 122.432 44.8086 123.252 45.714 124.011C46.7199 124.886 47.882 125.808 48.9703 126.884C49.5043 127.407 49.9885 127.965 50.4185 128.553C50.8095 129.104 51.1572 129.676 51.4591 130.266L52.2873 131.851C52.5518 132.341 52.825 132.795 53.0635 133.205C53.4071 133.87 53.9072 134.469 54.5333 134.965C54.9799 135.284 55.2921 135.408 55.2791 135.43Z" fill="#263238"/>
<path d="M47.1445 133.26C47.1516 132.958 47.1996 132.659 47.2876 132.367C47.4133 131.818 47.6128 131.067 47.886 130.251C48.1591 129.435 48.4539 128.703 48.6837 128.183C48.7931 127.895 48.9384 127.618 49.1173 127.356C49.0576 127.652 48.9632 127.943 48.8355 128.223C48.6404 128.754 48.3759 129.486 48.1027 130.302C47.8296 131.119 47.6041 131.858 47.4437 132.396C47.3763 132.691 47.2761 132.98 47.1445 133.26Z" fill="#263238"/>
<path d="M54.9799 126.858C54.6044 126.816 54.2343 126.745 53.8742 126.646C53.1935 126.496 52.2613 126.28 51.2163 126.093C50.1714 125.907 49.2262 125.727 48.5367 125.632C48.1602 125.59 47.7888 125.52 47.4268 125.423C47.8075 125.416 48.1882 125.442 48.5628 125.5C49.2608 125.581 50.2191 125.713 51.264 125.914C52.309 126.115 53.2455 126.339 53.9176 126.518C54.2847 126.6 54.6407 126.714 54.9799 126.858Z" fill="#263238"/>
<path d="M41.3086 128.721C41.3232 128.372 41.3799 128.025 41.4777 127.685C41.6165 127.052 41.8376 126.181 42.1324 125.23C42.4273 124.278 42.7395 123.425 42.9997 122.814C43.108 122.479 43.2532 122.153 43.4333 121.84C43.369 122.185 43.2689 122.524 43.1341 122.854C42.926 123.473 42.6354 124.318 42.3406 125.274C42.0457 126.229 41.8072 127.085 41.6295 127.711C41.5537 128.054 41.4464 128.392 41.3086 128.721Z" fill="#263238"/>
<path d="M51.372 121.284C51.372 121.332 49.4035 121.2 46.9884 120.984C44.5733 120.768 42.6177 120.552 42.6221 120.501C44.0899 120.537 45.5545 120.637 47.0101 120.801C49.4252 121.017 51.3764 121.233 51.372 121.284Z" fill="#263238"/>
<path d="M49.9326 141.385C49.9326 141.436 43.0298 141.477 34.5183 141.477C26.0068 141.477 19.0996 141.436 19.0996 141.385C19.0996 141.334 26.0025 141.286 34.5269 141.286C43.0514 141.286 49.9326 141.334 49.9326 141.385Z" fill="#455A64"/>
<path d="M45.1329 148.885C45.1329 148.932 40.4804 148.976 34.7266 148.976C28.9728 148.976 24.3203 148.932 24.3203 148.885C24.3203 148.837 28.9728 148.789 34.7266 148.789C40.4804 148.789 45.1329 148.833 45.1329 148.885Z" fill="#455A64"/>
<path d="M44.9327 149.953C44.9327 150.005 40.3626 150.049 34.7258 150.049C29.0891 150.049 24.5537 150.005 24.5537 149.953C24.5537 149.902 29.1238 149.862 34.7605 149.862C40.3973 149.862 44.9327 149.906 44.9327 149.953Z" fill="#455A64"/>
<path d="M45.3107 147.999C45.3107 148.05 40.5022 148.09 34.5706 148.09C28.639 148.09 23.8218 148.05 23.8218 147.999C23.8218 147.948 28.6347 147.907 34.5706 147.907C40.5065 147.907 45.3107 147.948 45.3107 147.999Z" fill="#455A64"/>
<path d="M200 159.803C200 159.854 155.227 159.898 100.004 159.898C44.7817 159.898 0 159.854 0 159.803C0 159.751 44.7643 159.707 100.004 159.707C155.244 159.707 200 159.748 200 159.803Z" fill="#263238"/>
<path d="M119.503 142.439H78.1602V160H119.503V142.439Z" fill="#455A64"/>
<path d="M124.207 86.2935H72.8827C71.5396 86.2935 70.2514 86.7439 69.3017 87.5456C68.3519 88.3473 67.8184 89.4347 67.8184 90.5685V156.816C68.8156 158.225 70.9186 158.8 72.822 158.646C74.7255 158.492 76.4946 157.786 78.242 157.12C79.9894 156.454 81.8278 155.824 83.7356 155.879C87.0526 155.978 89.8883 158.119 93.188 158.441C98.5342 158.964 103.035 154.7 108.39 154.243C111.993 153.935 115.436 155.385 118.857 156.41C122.278 157.434 126.362 157.972 129.263 156.106V90.5685C129.263 89.436 128.731 88.3497 127.783 87.5482C126.835 86.7467 125.549 86.2955 124.207 86.2935Z" fill="#263238"/>
<path d="M77.1498 157.573C77.0891 157.573 77.0371 144.302 77.0371 127.927C77.0371 111.552 77.0891 98.2803 77.1498 98.2803C77.2106 98.2803 77.2626 111.548 77.2626 127.927C77.2626 144.306 77.2149 157.573 77.1498 157.573Z" fill="#455A64"/>
<path d="M88.9951 131.448C89.0558 131.448 89.1078 137.249 89.1078 144.408C89.1078 151.567 89.0558 157.372 88.9951 157.372C88.9344 157.372 88.8823 151.567 88.8823 144.408C88.8823 137.249 88.93 131.448 88.9951 131.448Z" fill="#455A64"/>
<path d="M89.4114 116.185C89.4721 116.185 89.5242 117.876 89.5242 119.959C89.5242 122.041 89.4721 123.729 89.4114 123.729C89.2971 122.474 89.2595 121.216 89.2987 119.959C89.2596 118.7 89.2972 117.441 89.4114 116.185Z" fill="#455A64"/>
<path d="M102.086 156.186C102.021 156.186 101.973 143.109 101.973 126.979C101.973 110.849 102.021 97.7715 102.086 97.7715C102.151 97.7715 102.199 110.845 102.199 126.979C102.199 143.112 102.168 156.186 102.086 156.186Z" fill="#455A64"/>
<path d="M114.743 155.311C114.682 155.311 114.63 142.9 114.63 127.594C114.63 112.287 114.682 99.876 114.743 99.876C114.803 99.876 114.855 112.284 114.855 127.594C114.855 142.904 114.821 155.311 114.743 155.311Z" fill="#455A64"/>
<path d="M145.527 13.6887H48.168C47.363 13.6887 46.591 13.9587 46.0218 14.4391C45.4526 14.9196 45.1328 15.5713 45.1328 16.2508V74.3068C45.1328 74.9863 45.4526 75.638 46.0218 76.1185C46.591 76.5989 47.363 76.8689 48.168 76.8689H85.5395C85.5395 76.8689 87.92 83.091 80.5488 86.2862H115.492C115.492 86.2862 107.172 83.8779 109.314 76.8689H145.527C146.332 76.8689 147.104 76.5989 147.674 76.1185C148.243 75.638 148.563 74.9863 148.563 74.3068V16.2544C148.563 15.9177 148.485 15.5841 148.333 15.2729C148.18 14.9616 147.957 14.6787 147.675 14.4404C147.393 14.2021 147.058 14.0131 146.69 13.8841C146.321 13.7551 145.926 13.6887 145.527 13.6887Z" fill="#455A64"/>
<path d="M98.1579 70.771C99.4804 72.3705 97.4078 74.12 95.513 73.0037C95.452 72.9639 95.398 72.917 95.3525 72.8646C94.0301 71.2652 96.1027 69.5193 97.9932 70.6356C98.0572 70.6721 98.113 70.718 98.1579 70.771Z" fill="#263238"/>
<path d="M49.0136 14.7499H144.699C145.285 14.7499 145.846 14.9462 146.26 15.2956C146.674 15.645 146.906 16.1188 146.906 16.6129V66.2546H46.8066V16.6129C46.8066 16.1188 47.0392 15.645 47.4531 15.2956C47.8669 14.9462 48.4283 14.7499 49.0136 14.7499Z" fill="white"/>
<path d="M128.136 76.8872C128.136 76.9128 114.261 76.9347 97.1908 76.9347C80.1201 76.9347 66.2407 76.9128 66.2407 76.8872C66.2407 76.8616 80.1158 76.8359 97.1908 76.8359C114.266 76.8359 128.136 76.8689 128.136 76.8872Z" fill="#263238"/>
<path d="M115.531 33.2408C115.57 33.281 109.79 37.2669 102.627 42.1713C95.4641 47.0758 89.6193 50.9994 89.5759 50.9555C89.5326 50.9116 95.3167 46.9294 102.484 42.0249C109.651 37.1205 115.492 33.2005 115.531 33.2408Z" fill="#263238"/>
<path d="M115.575 27.7797C115.619 27.82 107.909 33.2698 98.3658 39.9641C88.8224 46.6584 81.0481 52.0424 81.022 52.0058C80.996 51.9692 88.6837 46.5157 98.2358 39.8177C107.788 33.1198 115.536 27.7394 115.575 27.7797Z" fill="#263238"/>
<path d="M146.239 76.3709C146.239 76.4258 124.442 76.466 97.5589 76.466C70.6761 76.466 48.8706 76.4258 48.8706 76.3709C48.8706 76.3161 70.6674 76.2758 97.5589 76.2758C124.45 76.2758 146.239 76.3197 146.239 76.3709Z" fill="#FAFAFA"/>
<path d="M167.393 26.2391C164.358 26.649 161.093 28.5376 159.909 30.924C158.726 33.3104 158.851 36.3848 158.903 38.9762C159.84 38.8152 160.43 39.1885 161.379 39.1336C161.685 39.0886 161.977 38.9922 162.237 38.8501C162.498 38.708 162.722 38.5231 162.897 38.3064C163.774 37.3209 164.483 36.2368 165.004 35.0855C166.389 32.4014 167.744 29.7174 169.071 27.0333" fill="#263238"/>
<path d="M162.806 30.1262C158.036 32.7248 159.255 37.5378 158.331 38.6687C157.962 39.1226 157.512 39.5764 157.464 40.1034C157.416 40.6305 157.897 41.2015 157.923 41.798C157.945 42.6033 157.087 43.2621 156.532 43.9465C156.16 44.4072 155.914 44.9316 155.81 45.4821C155.707 46.0326 155.749 46.5956 155.933 47.1307C155.962 47.2484 156.019 47.3598 156.1 47.4586C156.182 47.5573 156.285 47.6412 156.406 47.7054C156.607 47.7789 156.824 47.8139 157.043 47.8078C161.558 47.9835 166.078 48.0213 170.602 47.9213C171.634 47.8993 172.718 47.8591 173.589 47.4565C174.777 46.9038 175.263 45.8314 175.666 44.8432L176.932 41.7102C177.23 41.0416 177.456 40.352 177.609 39.6496C177.71 38.676 177.732 37.6977 177.674 36.7216C177.747 35.814 177.765 34.9039 177.726 33.9948C177.668 33.0561 177.218 32.165 176.455 31.4804" fill="#263238"/>
<path d="M176.589 34.046C176.604 33.1852 176.413 32.3307 176.028 31.5335C175.643 30.7363 175.072 30.0128 174.348 29.4061C173.625 28.7994 172.764 28.322 171.817 28.0024C170.87 27.6827 169.856 27.5274 168.837 27.5457C166.858 27.5811 164.969 28.2498 163.552 29.4166C162.135 30.5834 161.296 32.161 161.206 33.8301C161.032 36.824 160.941 39.8362 161.088 40.9123C161.522 44.1624 163.994 45.2275 164.991 45.5277C165.337 45.6012 165.692 45.6417 166.049 45.6484C166.056 45.6493 166.063 45.6524 166.068 45.6571C166.072 45.6618 166.075 45.6679 166.075 45.6741L165.641 49.4879C165.546 51.9694 167.467 54.0081 170.458 54.1069C173.45 54.2057 175.54 52.1195 175.692 49.6306L176.589 34.046Z" fill="#FFBE9D"/>
<path d="M163.048 35.543C163.041 35.6791 163.098 35.8121 163.206 35.9135C163.313 36.0148 163.464 36.0763 163.625 36.0848C163.704 36.0935 163.784 36.0887 163.861 36.0709C163.938 36.053 164.01 36.0224 164.072 35.9808C164.135 35.9392 164.187 35.8875 164.226 35.8287C164.264 35.7698 164.289 35.7051 164.297 35.6382C164.304 35.5018 164.248 35.3683 164.14 35.2664C164.033 35.1645 163.882 35.1022 163.721 35.0928C163.641 35.0846 163.561 35.0899 163.484 35.1081C163.407 35.1264 163.336 35.1574 163.273 35.1993C163.21 35.2412 163.158 35.2931 163.12 35.3522C163.081 35.4112 163.057 35.476 163.048 35.543Z" fill="#263238"/>
<path d="M162.177 34.5107C162.229 34.584 162.767 34.5107 163.404 34.6718C164.042 34.8329 164.432 35.199 164.523 35.1697C164.614 35.1404 164.523 35.0416 164.358 34.8842C164.119 34.6733 163.821 34.5161 163.491 34.4265C163.17 34.331 162.824 34.3082 162.49 34.3606C162.251 34.4119 162.151 34.4778 162.177 34.5107Z" fill="#263238"/>
<path d="M169.7 35.6673C169.693 35.8034 169.749 35.9363 169.857 36.0376C169.965 36.1389 170.115 36.2004 170.277 36.2089C170.355 36.2171 170.435 36.212 170.512 36.1939C170.589 36.1759 170.66 36.1452 170.723 36.1037C170.785 36.0622 170.837 36.0107 170.876 35.9522C170.915 35.8936 170.939 35.8291 170.949 35.7625C170.956 35.6261 170.899 35.4927 170.792 35.3908C170.684 35.2889 170.533 35.2266 170.372 35.2172C170.293 35.2091 170.212 35.2143 170.135 35.2326C170.059 35.2509 169.987 35.2818 169.924 35.3237C169.862 35.3656 169.81 35.4175 169.771 35.4765C169.733 35.5355 169.708 35.6004 169.7 35.6673Z" fill="#263238"/>
<path d="M168.941 35.3746C169.036 35.4039 169.461 35.0855 170.164 34.9281C170.866 34.7708 171.464 34.8513 171.517 34.7854C171.569 34.7195 171.434 34.6903 171.174 34.65C170.807 34.5985 170.43 34.6173 170.073 34.7049C169.721 34.7775 169.394 34.9191 169.119 35.1184C168.941 35.2575 168.911 35.36 168.941 35.3746Z" fill="#263238"/>
<path d="M166.184 39.0129C165.832 38.9101 165.466 38.8437 165.095 38.8152C164.926 38.7933 164.766 38.7603 164.74 38.6615C164.732 38.5124 164.781 38.3651 164.879 38.2406L165.442 37.1718C166.231 35.6455 166.808 34.3864 166.743 34.3607C166.678 34.3351 165.971 35.554 165.182 37.0803C164.991 37.4463 164.809 37.8123 164.64 38.1564C164.523 38.3253 164.48 38.5235 164.519 38.7164C164.542 38.7673 164.579 38.8132 164.626 38.8505C164.673 38.8879 164.73 38.9159 164.792 38.9324C164.886 38.9575 164.984 38.9723 165.082 38.9763C165.446 39.0269 165.816 39.0392 166.184 39.0129Z" fill="#263238"/>
<path d="M166.058 45.6411C166.058 45.6411 168.659 45.901 171.998 44.3821C171.998 44.3821 170.823 47.2076 165.949 46.6659L166.058 45.6411Z" fill="#EB996E"/>
<path d="M166.401 40.3707C166.538 40.2412 166.711 40.1426 166.905 40.0838C167.099 40.025 167.307 40.0079 167.511 40.0339C167.658 40.0484 167.8 40.0884 167.929 40.1513C168.057 40.2143 168.169 40.299 168.257 40.4C168.342 40.4951 168.391 40.6106 168.394 40.7301C168.398 40.8496 168.358 40.9672 168.278 41.0662C168.165 41.1642 168.019 41.2315 167.86 41.2595C167.701 41.2875 167.536 41.275 167.385 41.2236C167.072 41.1208 166.786 40.9665 166.544 40.7697C166.471 40.7215 166.408 40.6634 166.357 40.5976C166.334 40.5665 166.321 40.5303 166.321 40.4933C166.321 40.4564 166.334 40.4202 166.357 40.389" fill="#EB996E"/>
<path d="M168.152 39.4666C168.04 39.4666 168.009 40.0632 167.359 40.4731C166.708 40.883 165.932 40.7915 165.924 40.8757C165.915 40.9598 166.093 41.0001 166.422 41.0184C166.849 41.0384 167.271 40.9323 167.615 40.7183C167.945 40.5145 168.167 40.2097 168.235 39.8692C168.274 39.6167 168.2 39.463 168.152 39.4666Z" fill="#263238"/>
<path d="M168.768 33.1603C168.85 33.3067 169.513 33.1859 170.311 33.2115C171.109 33.2371 171.759 33.3689 171.855 33.2115C171.894 33.1419 171.768 33.0065 171.499 32.8784C171.139 32.7183 170.74 32.6318 170.333 32.6258C169.925 32.6151 169.52 32.684 169.149 32.8271C168.867 32.9479 168.733 33.0907 168.768 33.1603Z" fill="#263238"/>
<path d="M162.359 32.7614C162.472 32.8931 162.94 32.7614 163.5 32.787C164.059 32.8126 164.527 32.9077 164.644 32.787C164.696 32.7211 164.644 32.593 164.428 32.4649C164.157 32.3092 163.836 32.2263 163.508 32.227C163.18 32.2204 162.858 32.2997 162.585 32.4539C162.381 32.582 162.307 32.6991 162.359 32.7614Z" fill="#263238"/>
<path d="M167.272 25.9427C166.858 26.7481 166.824 27.6566 167.177 28.4825C167.53 29.3083 168.244 29.9892 169.171 30.386C169.991 30.752 171.04 30.957 171.448 31.6597C171.769 32.2051 171.586 32.9078 171.994 33.4129C172.402 33.918 173.134 34.0132 173.685 34.3535C174.44 34.8184 174.739 35.6492 174.821 36.4325C174.834 37.2254 174.897 38.0171 175.012 38.8042C175.198 39.5728 175.745 40.3561 176.634 40.5867C177.197 38.3577 177.709 36.0958 177.566 33.8228C177.423 31.5499 176.551 29.2331 174.674 27.6007C172.796 25.9683 169.809 25.1448 167.303 25.9536" fill="#263238"/>
<path d="M169.96 25.6497C173.203 25.7522 176.819 27.6152 177.925 30.1919C178.484 31.4876 178.614 32.9809 179.69 34.0203C180.37 34.6755 181.363 35.0854 181.918 35.8174C183.106 37.3876 181.741 39.5434 182.482 41.3076C182.812 42.0945 183.531 42.7094 184.091 43.3938C184.65 44.0782 185.066 44.964 184.689 45.7326C184.54 45.9957 184.327 46.2295 184.064 46.4187C183.801 46.6078 183.494 46.7482 183.163 46.8306C182.502 46.992 181.817 47.0733 181.129 47.0722L170.675 47.4492C170.537 47.1174 170.482 46.7648 170.516 46.4141C170.55 46.0635 170.67 45.7228 170.87 45.4142C171.564 44.4808 173.277 43.6244 172.895 42.2848C172.514 40.9452 171.738 41.1136 171.712 39.7227C171.686 38.3319 172.83 36.9996 172.639 35.7918C172.449 34.584 171.98 34.8621 171.378 32.9589C170.775 31.0557 169.518 30.5286 169.518 30.5286L170.502 25.9645" fill="#263238"/>
<path d="M158.101 39.6166C158.478 39.1372 158.869 38.5882 158.747 38.0209C158.66 37.6256 158.314 37.2888 158.192 36.9228C158.102 36.6787 158.07 36.4218 158.099 36.1673C158.128 35.9127 158.217 35.6656 158.361 35.4405C158.582 34.9684 158.882 34.5255 159.059 34.0424C159.202 33.6764 159.263 33.2481 159.45 32.8785C159.528 32.6869 159.662 32.5146 159.838 32.3767C160.014 32.2389 160.228 32.1397 160.46 32.0879C160.789 33.885 159.966 35.6857 159.853 37.5011C159.871 37.9009 159.798 38.2999 159.636 38.676C159.55 38.8621 159.39 39.0173 159.184 39.1148C158.977 39.2123 158.737 39.2461 158.504 39.2104" fill="#263238"/>
<path d="M162.563 44.0526C162.563 44.0526 162.524 44.1807 162.303 44.2905C161.987 44.4252 161.632 44.4822 161.279 44.4552C160.755 44.4321 160.25 44.2766 159.831 44.0086C159.314 43.6838 158.929 43.231 158.73 42.713C158.534 42.1905 158.565 41.6262 158.817 41.121C159.022 40.7145 159.348 40.3592 159.762 40.0889C160.036 39.9083 160.35 39.7752 160.685 39.6973C160.806 39.6583 160.935 39.6433 161.063 39.6533C160.629 39.7749 160.223 39.9581 159.862 40.195C159.48 40.46 159.182 40.8008 158.994 41.1868C158.771 41.6535 158.748 42.1714 158.929 42.6508C159.113 43.1318 159.465 43.5544 159.94 43.8623C160.324 44.1195 160.787 44.2782 161.275 44.3197C161.602 44.3552 161.935 44.3213 162.242 44.2209C162.472 44.1441 162.541 44.0416 162.563 44.0526Z" fill="white"/>
<path d="M162.003 33.7348C162.23 33.7083 162.459 33.6985 162.688 33.7055H164.548H165.494C165.563 33.7057 165.633 33.7186 165.696 33.7432C165.76 33.7678 165.816 33.8037 165.862 33.8483C165.907 33.8942 165.941 33.9474 165.961 34.0046C165.981 34.0619 165.988 34.122 165.979 34.1814L165.953 34.4925C165.936 34.7085 165.904 34.9236 165.858 35.1367C165.785 35.6219 165.593 36.0889 165.295 36.508C164.996 36.9271 164.597 37.289 164.123 37.5707C163.607 37.8451 162.996 37.9638 162.389 37.9074C162.105 37.8747 161.832 37.7947 161.585 37.6722C161.337 37.5497 161.122 37.3871 160.949 37.1937C160.657 36.8412 160.47 36.4344 160.403 36.0078C160.335 35.6446 160.302 35.2774 160.303 34.9097C160.277 34.5951 160.383 34.2826 160.603 34.0276C160.794 33.8513 161.057 33.7417 161.34 33.7202C161.51 33.7082 161.681 33.7082 161.851 33.7202C161.91 33.7184 161.969 33.7258 162.025 33.7421C162.025 33.7421 161.778 33.7421 161.353 33.8044C161.099 33.8363 160.868 33.9425 160.698 34.1045C160.51 34.3441 160.427 34.6314 160.464 34.9171C160.472 35.2754 160.513 35.6326 160.585 35.9858C160.657 36.3817 160.839 36.7578 161.114 37.0839C161.432 37.4317 161.899 37.6594 162.415 37.7171C162.975 37.7686 163.54 37.6576 164.015 37.4023C164.49 37.1427 164.881 36.7866 165.151 36.3665C165.404 35.9707 165.58 35.5431 165.671 35.1001C165.719 34.8878 165.749 34.6791 165.775 34.4742L165.801 34.1704C165.811 34.1314 165.81 34.0912 165.799 34.0525C165.788 34.0139 165.766 33.9779 165.736 33.9471C165.709 33.9182 165.674 33.8949 165.634 33.879C165.594 33.8632 165.551 33.8552 165.507 33.8556H165.181H164.561L162.701 33.8007C162.466 33.798 162.233 33.776 162.003 33.7348Z" fill="white"/>
<path d="M171.404 33.7349C171.179 33.7677 170.951 33.7824 170.723 33.7788L168.863 33.8337H168.247H167.918C167.874 33.8338 167.83 33.842 167.791 33.8578C167.751 33.8737 167.716 33.8967 167.688 33.9252C167.659 33.9564 167.638 33.9924 167.627 34.0309C167.615 34.0694 167.614 34.1095 167.623 34.1485C167.623 34.2473 167.623 34.3498 167.653 34.4523C167.673 34.6624 167.708 34.8713 167.757 35.0781C167.845 35.522 168.021 35.9502 168.277 36.3445C168.546 36.7654 168.937 37.1218 169.413 37.3802C169.887 37.6358 170.45 37.7469 171.009 37.695C171.525 37.6373 171.992 37.4097 172.31 37.0618C172.585 36.7358 172.767 36.3597 172.839 35.9638C172.912 35.6107 172.954 35.2535 172.965 34.8951C172.998 34.6092 172.913 34.3224 172.726 34.0826C172.557 33.9201 172.325 33.8138 172.071 33.7825C171.638 33.7239 171.399 33.7386 171.399 33.7203C171.456 33.7037 171.517 33.6963 171.577 33.6983C171.747 33.6864 171.919 33.6864 172.089 33.6983C172.371 33.7198 172.634 33.8295 172.826 34.0057C173.046 34.2604 173.151 34.5734 173.121 34.8878C173.124 35.2553 173.092 35.6225 173.025 35.9858C172.957 36.4126 172.768 36.8194 172.475 37.1716C172.302 37.365 172.087 37.5276 171.84 37.6501C171.592 37.7726 171.319 37.8526 171.035 37.8853C170.429 37.9411 169.817 37.8224 169.301 37.5486C168.828 37.2663 168.429 36.9043 168.131 36.4853C167.832 36.0663 167.64 35.5996 167.566 35.1147C167.523 34.8951 167.493 34.6792 167.471 34.4706L167.449 34.1595C167.44 34.1004 167.445 34.0403 167.465 33.9831C167.484 33.9258 167.517 33.8724 167.562 33.8264C167.608 33.7821 167.665 33.7466 167.728 33.722C167.792 33.6974 167.861 33.6843 167.931 33.6837H168.876H170.736C170.96 33.6845 171.183 33.7017 171.404 33.7349Z" fill="white"/>
<path d="M168.017 33.7824C167.17 33.9093 166.302 33.9093 165.455 33.7824C166.302 33.6555 167.17 33.6555 168.017 33.7824Z" fill="white"/>
<path d="M168.681 36.491C168.634 36.524 168.304 36.2458 168.079 35.8066C167.906 35.5531 167.839 35.2579 167.888 34.9684C167.953 34.9684 168.066 35.3344 168.287 35.7297C168.508 36.125 168.733 36.4581 168.681 36.491Z" fill="white"/>
<path d="M161.076 36.4872C160.812 36.2547 160.658 35.9489 160.642 35.6272C160.604 35.4162 160.604 35.2014 160.642 34.9903H160.807C160.751 35.1733 160.699 35.2868 160.664 35.2795C160.629 35.2722 160.625 35.1587 160.642 34.9684H160.812C160.816 35.1694 160.836 35.3699 160.872 35.5686C160.933 36.0883 161.137 36.4616 161.076 36.4872Z" fill="white"/>
<path d="M177.505 30.1334C177.467 29.8902 177.328 29.6662 177.113 29.5013C176.898 29.3364 176.62 29.2413 176.33 29.233C175.692 29.2299 175.056 29.2988 174.439 29.438C173.649 29.5531 172.842 29.5667 172.046 29.4782C171.244 29.391 170.473 29.1628 169.783 28.8084C169.22 28.5156 168.734 28.1281 168.356 27.6701C168.1 27.3653 167.906 27.0263 167.784 26.6672C167.752 26.5699 167.729 26.4708 167.714 26.3707C167.714 26.3012 167.714 26.2646 167.714 26.2646C167.887 26.7398 168.149 27.1885 168.49 27.5932C168.874 28.0206 169.351 28.3821 169.895 28.6584C170.561 28.988 171.298 29.202 172.063 29.2879C172.838 29.3727 173.623 29.3653 174.396 29.266C175.03 29.1276 175.685 29.0721 176.339 29.1012C176.565 29.1255 176.781 29.1949 176.97 29.3038C177.158 29.4126 177.314 29.5577 177.422 29.7271C177.476 29.8208 177.506 29.9232 177.509 30.0273C177.522 30.0968 177.514 30.1334 177.505 30.1334Z" fill="#455A64"/>
<path d="M178.172 31.0449C178.027 31.1338 177.868 31.2053 177.699 31.2571C177.25 31.4231 176.781 31.5459 176.299 31.6232C174.692 31.9005 173.022 31.7124 171.558 31.0895C170.094 30.4665 168.921 29.445 168.23 28.19C168.017 27.8164 167.855 27.4234 167.748 27.0187C167.699 26.8723 167.672 26.7209 167.67 26.5685C167.854 27.1034 168.089 27.6248 168.373 28.1278C169.082 29.3326 170.235 30.3109 171.658 30.916C173.082 31.5211 174.7 31.7204 176.269 31.4841C176.915 31.3791 177.552 31.2322 178.172 31.0449Z" fill="#455A64"/>
<path d="M160.035 48.7778L166.236 47.9872H175.324L182.647 51.0288L166.942 66.3791L160.035 48.7778Z" fill="#FFBE9D"/>
<path d="M181.298 50.4686C181.298 50.4686 167.913 63.5717 167.675 64.2745C167.436 64.9772 160.035 48.7776 160.035 48.7776L158.3 49.0229C156.635 49.2278 154.021 49.2278 151.172 55.4463C148.323 61.6648 146.893 65.7788 146.893 65.7788L155.131 66.6389C155.131 66.6389 156.115 69.4937 157.078 71.4409L155.209 78.3951C155.209 78.3951 176.945 80.8144 179.443 79.3101L179.915 63.8499C179.915 63.8499 181.342 59.0515 182.517 57.4447C183.692 55.838 184.373 52.5183 186.51 52.6207L181.298 50.4686Z" fill="#FF725E"/>
<path d="M186.06 52.4268C184.65 51.8485 181.507 53.0746 180.423 55.9808C179.339 58.8869 176.447 67.0233 176.447 67.0233L185.682 72.7403C185.682 72.7403 187.235 64.3221 187.998 62.3749C188.761 60.4278 189.299 58.8869 189.299 56.8848C189.299 54.8827 187.464 53.0088 186.06 52.4268Z" fill="#FF725E"/>
<path d="M167.697 64.2012C167.635 63.4854 167.651 62.7662 167.745 62.0528C167.76 61.3361 167.852 60.622 168.018 59.9189C168.075 60.6337 168.059 61.3513 167.97 62.0638C167.951 62.7815 167.86 63.4966 167.697 64.2012Z" fill="#EB996E"/>
<path d="M171.594 51.8852C171.633 51.8852 171.508 52.2988 171.412 52.9649C171.149 54.7057 171.439 56.4743 172.253 58.089C172.561 58.7075 172.808 59.0698 172.778 59.0881C172.748 59.1064 172.691 59.0076 172.566 58.8502C172.393 58.6241 172.239 58.3881 172.106 58.1439C171.197 56.5276 170.895 54.7156 171.239 52.9503C171.29 52.6842 171.363 52.4214 171.456 52.1634C171.483 52.0647 171.53 51.9707 171.594 51.8852Z" fill="#263238"/>
<path d="M171.621 58.0159C171.621 58.0159 171.508 57.9756 171.339 57.8658C171.098 57.7124 170.874 57.5422 170.667 57.3571C169.978 56.7426 169.454 56.0097 169.132 55.2087L169.023 54.9452L169.297 55.0952C170.149 55.5538 170.835 56.2006 171.282 56.9655C171.417 57.1998 171.523 57.4451 171.599 57.6975C171.651 57.8732 171.668 57.972 171.651 57.9756C171.634 57.9793 171.499 57.6096 171.139 57.046C170.67 56.3263 169.995 55.7172 169.175 55.2746L169.34 55.1648C169.656 55.9425 170.147 56.6619 170.784 57.2839C171.274 57.7451 171.642 57.9903 171.621 58.0159Z" fill="#263238"/>
<path d="M171.998 55.9369C172.057 55.6352 172.144 55.3379 172.258 55.0475C172.436 54.5022 172.657 53.7372 172.83 52.877L172.995 52.9759L172.843 53.0784C172.447 53.3244 172.156 53.6726 172.015 54.0703C171.893 54.3991 171.842 54.7437 171.863 55.0878C171.894 55.6807 172.006 56.0467 171.967 56.0541C171.914 55.9774 171.877 55.893 171.859 55.8052C171.779 55.5735 171.727 55.3356 171.703 55.0951C171.659 54.7336 171.697 54.3683 171.816 54.019C171.962 53.5791 172.278 53.1929 172.713 52.921C172.774 52.8844 172.839 52.8551 172.9 52.8221L173.108 52.7197L173.069 52.9246C172.915 53.6614 172.699 54.388 172.423 55.0988C172.322 55.3918 172.179 55.6732 171.998 55.9369Z" fill="#263238"/>
<path d="M171.504 51.6144C171.335 51.5679 171.162 51.5312 170.988 51.5045C170.805 51.4912 170.622 51.5163 170.454 51.5777C170.268 51.6473 170.09 51.7864 170.138 51.9438C170.185 52.1013 170.42 52.083 170.628 52.0427C170.815 52.0099 170.997 51.9583 171.17 51.8889C171.464 51.7681 171.625 51.6473 171.647 51.6693C171.668 51.6912 171.547 51.8413 171.248 52.0061C171.071 52.1004 170.878 52.1708 170.675 52.2148C170.549 52.245 170.417 52.2574 170.285 52.2514C170.2 52.2432 170.119 52.2139 170.053 52.1669C169.988 52.12 169.94 52.0576 169.917 51.9878C169.902 51.9227 169.906 51.8557 169.928 51.7921C169.95 51.7286 169.989 51.6702 170.042 51.6217C170.135 51.5399 170.247 51.4762 170.372 51.435C170.576 51.3678 170.799 51.3525 171.014 51.391C171.378 51.4313 171.543 51.6144 171.504 51.6144Z" fill="#263238"/>
<path d="M171.677 51.5741C171.615 51.4058 171.584 51.2305 171.586 51.0543C171.564 50.897 171.538 50.7066 171.499 50.5016C171.488 50.4073 171.449 50.3167 171.386 50.2381C171.354 50.2081 171.311 50.1882 171.264 50.1816C171.217 50.1749 171.168 50.1819 171.126 50.2015C170.931 50.2747 170.883 50.5199 170.931 50.6993C170.982 50.8703 171.078 51.0292 171.213 51.1642C171.443 51.4094 171.62 51.5302 171.599 51.5705C171.577 51.6107 171.369 51.4899 171.091 51.252C170.921 51.1099 170.795 50.9336 170.727 50.7396C170.694 50.6191 170.694 50.494 170.727 50.3735C170.746 50.3011 170.784 50.2332 170.838 50.1749C170.892 50.1166 170.961 50.0694 171.039 50.0368C171.126 50.0011 171.224 49.9908 171.318 50.0073C171.412 50.0239 171.497 50.0664 171.56 50.1283C171.65 50.2355 171.701 50.3628 171.707 50.4943C171.735 50.6838 171.749 50.8744 171.751 51.0653C171.769 51.2374 171.743 51.4108 171.677 51.5741Z" fill="#263238"/>
<path d="M171.89 51.4424C172.088 51.3807 172.29 51.3306 172.497 51.2923C172.697 51.242 172.87 51.1346 172.987 50.9886C173.056 50.9108 173.09 50.8149 173.084 50.7179C173.077 50.6208 173.031 50.5288 172.952 50.4578C172.851 50.4075 172.734 50.3856 172.618 50.3955C172.502 50.4054 172.392 50.4465 172.306 50.5128C172.149 50.6307 172.042 50.7889 172.002 50.9629C171.924 51.2777 171.92 51.49 171.881 51.4863C171.814 51.3088 171.802 51.1198 171.846 50.9373C171.871 50.7236 171.986 50.5247 172.171 50.3773C172.296 50.2897 172.445 50.2315 172.605 50.209C172.692 50.1937 172.783 50.1947 172.869 50.2117C172.956 50.2288 173.038 50.2616 173.108 50.3078C173.177 50.3562 173.233 50.4173 173.27 50.4863C173.308 50.5554 173.327 50.6308 173.325 50.7067C173.317 50.8373 173.267 50.9637 173.182 51.0727C173.035 51.2494 172.813 51.3713 172.562 51.4131C172.346 51.4774 172.112 51.4875 171.89 51.4424Z" fill="#263238"/>
<path d="M171.789 51.7351C171.789 51.7168 171.972 51.6619 172.297 51.6949C172.397 51.7066 172.493 51.7354 172.579 51.7794C172.666 51.8234 172.741 51.8818 172.8 51.9511C172.875 52.0419 172.91 52.1518 172.899 52.2621C172.89 52.3218 172.867 52.3792 172.83 52.4308C172.794 52.4824 172.745 52.5272 172.687 52.5622C172.58 52.6294 172.45 52.6642 172.317 52.6609C172.184 52.6576 172.056 52.6163 171.954 52.5439C171.875 52.4908 171.809 52.4244 171.761 52.3488C171.713 52.2732 171.685 52.1902 171.677 52.1048C171.677 51.823 171.789 51.6802 171.811 51.6912C171.833 51.7022 171.781 51.8559 171.833 52.0865C171.866 52.2148 171.954 52.3282 172.08 52.4049C172.148 52.4485 172.231 52.4721 172.316 52.4721C172.402 52.4721 172.485 52.4485 172.553 52.4049C172.586 52.3852 172.615 52.36 172.637 52.3308C172.659 52.3016 172.674 52.269 172.681 52.235C172.687 52.2009 172.686 52.166 172.677 52.1323C172.668 52.0986 172.65 52.0669 172.626 52.0389C172.539 51.9302 172.408 51.8521 172.258 51.8193C171.976 51.7644 171.789 51.7681 171.789 51.7351Z" fill="#263238"/>
<path d="M169.344 54.1765C169.344 54.1984 169.197 54.1326 168.976 54.1326C168.852 54.1291 168.73 54.153 168.62 54.2021C168.499 54.2534 168.399 54.3485 168.43 54.4327C168.46 54.5169 168.59 54.5059 168.737 54.4693C168.866 54.4457 168.99 54.4075 169.106 54.3558C169.31 54.268 169.422 54.1875 169.449 54.2058C169.475 54.2241 169.396 54.3412 169.193 54.4693C169.073 54.5449 168.937 54.6019 168.794 54.6377C168.704 54.6657 168.608 54.6793 168.512 54.678C168.445 54.6749 168.38 54.6547 168.327 54.6201C168.273 54.5854 168.234 54.538 168.213 54.484C168.197 54.4326 168.196 54.3788 168.21 54.3271C168.225 54.2754 168.254 54.2275 168.295 54.1875C168.361 54.1246 168.442 54.0747 168.534 54.041C168.679 53.9902 168.838 53.975 168.993 53.9971C169.258 54.0557 169.375 54.1765 169.344 54.1765Z" fill="#263238"/>
<path d="M169.461 54.1765C169.431 54.1765 169.387 54.0374 169.34 53.8104C169.314 53.7006 169.292 53.5725 169.266 53.4443C169.255 53.385 169.229 53.3286 169.188 53.2796C169.168 53.2656 169.142 53.258 169.116 53.258C169.09 53.258 169.065 53.2656 169.045 53.2796C168.932 53.3235 168.902 53.4846 168.941 53.6017C168.979 53.7168 169.047 53.8232 169.14 53.9129C169.305 54.0813 169.431 54.1802 169.409 54.2021C169.387 54.2241 169.236 54.1619 169.023 54.0081C168.893 53.9091 168.795 53.7828 168.741 53.642C168.708 53.5534 168.7 53.4591 168.72 53.3675C168.725 53.3076 168.749 53.25 168.787 53.1995C168.826 53.1491 168.879 53.1075 168.941 53.0782C169.006 53.049 169.08 53.0386 169.153 53.0485C169.226 53.0584 169.293 53.0881 169.344 53.1332C169.413 53.2085 169.457 53.2984 169.47 53.3931C169.47 53.5468 169.47 53.6823 169.47 53.7994C169.504 54.0227 169.491 54.1765 169.461 54.1765Z" fill="#263238"/>
<path d="M169.609 54.0667C169.609 54.0337 169.778 54.0081 170.021 53.9239C170.151 53.8821 170.261 53.8048 170.333 53.7043C170.374 53.6538 170.392 53.5927 170.385 53.5317C170.378 53.4708 170.346 53.414 170.294 53.3712C170.228 53.3419 170.153 53.331 170.08 53.3402C170.007 53.3494 169.939 53.3783 169.886 53.4225C169.784 53.5051 169.716 53.6127 169.691 53.7299C169.643 53.9459 169.639 54.0959 169.604 54.0959C169.57 54.0959 169.522 53.9569 169.535 53.7116C169.541 53.5538 169.617 53.4035 169.747 53.2907C169.833 53.2141 169.948 53.1649 170.072 53.1516C170.196 53.1382 170.322 53.1615 170.428 53.2175C170.483 53.2516 170.528 53.2962 170.559 53.3477C170.59 53.3992 170.606 53.4562 170.606 53.514C170.606 53.612 170.575 53.7081 170.515 53.7921C170.414 53.9213 170.259 54.014 170.081 54.052C169.782 54.1106 169.613 54.085 169.609 54.0667Z" fill="#263238"/>
<path d="M169.548 54.2716C169.548 54.2716 169.669 54.1985 169.903 54.2094C169.978 54.2144 170.051 54.2322 170.117 54.2618C170.184 54.2914 170.242 54.3321 170.289 54.3814C170.351 54.4467 170.381 54.5287 170.376 54.6119C170.373 54.6581 170.358 54.7033 170.333 54.7443C170.307 54.7853 170.272 54.8213 170.229 54.8498C170.151 54.9045 170.052 54.9345 169.951 54.9345C169.85 54.9345 169.751 54.9045 169.674 54.8498C169.614 54.8119 169.565 54.7641 169.528 54.7093C169.491 54.6545 169.469 54.594 169.461 54.5314C169.439 54.3229 169.539 54.2241 169.561 54.2314C169.582 54.2387 169.561 54.3558 169.617 54.5058C169.674 54.6558 169.903 54.8278 170.085 54.6961C170.124 54.6708 170.15 54.6335 170.156 54.5923C170.163 54.5512 170.15 54.5096 170.12 54.4766C170.061 54.4078 169.975 54.3586 169.877 54.3375C169.691 54.3009 169.548 54.3046 169.548 54.2716Z" fill="#263238"/>
<path d="M173.277 56.2735C173.255 56.2992 173.125 56.2333 172.908 56.2296C172.785 56.2289 172.663 56.2527 172.553 56.2992C172.427 56.3504 172.327 56.4456 172.362 56.5298C172.396 56.614 172.522 56.603 172.67 56.5664C172.798 56.5422 172.922 56.504 173.038 56.4529C173.238 56.3687 173.35 56.2845 173.376 56.3065C173.402 56.3285 173.324 56.4383 173.121 56.5701C172.999 56.6443 172.865 56.7012 172.722 56.7384C172.632 56.7633 172.538 56.7757 172.444 56.7751C172.377 56.773 172.311 56.7532 172.258 56.7184C172.204 56.6836 172.165 56.6356 172.145 56.581C172.129 56.5306 172.128 56.4775 172.141 56.4265C172.155 56.3755 172.183 56.328 172.223 56.2882C172.287 56.2239 172.369 56.1737 172.462 56.1418C172.607 56.0882 172.769 56.0717 172.925 56.0942C173.173 56.1381 173.277 56.2589 173.277 56.2735Z" fill="#263238"/>
<path d="M173.381 56.2444C173.351 56.2444 173.303 56.1089 173.256 55.8783C173.234 55.7685 173.208 55.6367 173.186 55.4903C173.175 55.4305 173.147 55.3739 173.104 55.3256C173.084 55.3116 173.059 55.304 173.032 55.304C173.006 55.304 172.981 55.3116 172.961 55.3256C172.852 55.3659 172.822 55.5269 172.857 55.644C172.895 55.7607 172.965 55.8684 173.061 55.9588C173.225 56.1236 173.347 56.2224 173.325 56.2444C173.303 56.2663 173.152 56.2078 172.944 56.0504C172.811 55.9524 172.712 55.8259 172.657 55.6843C172.624 55.5957 172.616 55.5014 172.636 55.4098C172.647 55.3542 172.673 55.3014 172.712 55.2557C172.751 55.21 172.802 55.1725 172.861 55.1462C172.927 55.1167 173.002 55.1061 173.076 55.116C173.149 55.1259 173.217 55.1558 173.269 55.2011C173.338 55.2776 173.38 55.369 173.39 55.4647C173.39 55.6148 173.412 55.7539 173.416 55.8673C173.425 56.1053 173.412 56.2444 173.381 56.2444Z" fill="#263238"/>
<path d="M173.529 56.1492C173.529 56.1199 173.698 56.0906 173.936 56.0101C174.068 55.9671 174.179 55.8886 174.253 55.7868C174.292 55.7359 174.31 55.6751 174.303 55.6145C174.295 55.5539 174.264 55.4972 174.214 55.4538C174.145 55.4209 174.065 55.408 173.987 55.4173C173.908 55.4266 173.836 55.4574 173.78 55.505C173.681 55.5889 173.615 55.6961 173.589 55.8125C173.537 56.0284 173.537 56.1785 173.498 56.1785C173.459 56.1785 173.42 56.0431 173.433 55.7942C173.439 55.6382 173.513 55.4896 173.641 55.3769C173.727 55.3003 173.842 55.2508 173.966 55.2369C174.089 55.2229 174.215 55.2452 174.322 55.3C174.377 55.3341 174.422 55.3787 174.453 55.4303C174.484 55.4818 174.5 55.5387 174.5 55.5965C174.503 55.6948 174.471 55.7917 174.409 55.8747C174.309 56.0054 174.154 56.0985 173.975 56.1346C173.711 56.1931 173.533 56.1712 173.529 56.1492Z" fill="#263238"/>
<path d="M173.468 56.3725C173.468 56.3506 173.589 56.2993 173.824 56.3103C173.897 56.3149 173.969 56.3322 174.035 56.3611C174.101 56.3901 174.159 56.4301 174.205 56.4786C174.267 56.5455 174.299 56.6282 174.296 56.7128C174.292 56.7588 174.277 56.8036 174.251 56.844C174.225 56.8844 174.188 56.9196 174.144 56.947C174.067 57.0009 173.969 57.0303 173.869 57.0303C173.769 57.0303 173.671 57.0009 173.594 56.947C173.533 56.9096 173.483 56.862 173.445 56.8072C173.408 56.7524 173.385 56.6916 173.377 56.6287C173.377 56.4237 173.455 56.3213 173.477 56.3323C173.498 56.3432 173.477 56.453 173.533 56.6031C173.589 56.7531 173.819 56.9251 174.006 56.7933C174.044 56.7675 174.069 56.7299 174.074 56.6888C174.08 56.6477 174.066 56.6064 174.036 56.5738C173.977 56.505 173.891 56.4558 173.793 56.4347C173.607 56.3725 173.468 56.3725 173.468 56.3725Z" fill="#263238"/>
<path d="M184.512 52.4341C184.568 52.4597 182.595 55.4391 180.106 59.0846C177.617 62.7301 175.558 65.6729 175.506 65.6399C175.454 65.607 177.422 62.6349 179.911 58.9894C182.4 55.3439 184.46 52.4085 184.512 52.4341Z" fill="#263238"/>
<path d="M185.695 72.7404C185.539 72.6789 185.393 72.6002 185.261 72.5061L184.151 71.84L180.492 69.644C179.07 68.7729 177.786 67.975 176.871 67.3821C176.416 67.0856 176.052 66.8404 175.805 66.6501C175.669 66.5657 175.547 66.4673 175.44 66.3573C175.594 66.4222 175.74 66.5008 175.874 66.5915L176.984 67.2577L180.644 69.4756C182.066 70.3431 183.349 71.141 184.264 71.7339C184.719 72.0303 185.088 72.2756 185.335 72.4659C185.465 72.5474 185.586 72.6393 185.695 72.7404Z" fill="#263238"/>
<path d="M175.193 69.9369C174.893 70.0151 174.579 70.0474 174.265 70.032C173.509 70.0363 172.757 69.9273 172.045 69.7099C171.334 69.4947 170.672 69.1791 170.086 68.7766C169.833 68.6204 169.615 68.427 169.444 68.2056C171.033 69.3748 173.087 69.9933 175.193 69.9369Z" fill="#263238"/>
<path d="M163.127 63.1949C162.862 62.9606 162.394 63.1034 162.06 63.2644C159.542 64.4799 157.376 66.1541 155.721 68.1652L155.764 68.2969C158.262 67.1038 160.716 65.8667 162.788 64.1904C163.118 63.9232 163.443 63.473 163.127 63.1949Z" fill="#FAFAFA"/>
<path d="M155.417 67.3857C156.342 65.1379 156.827 62.7779 156.852 60.3985C156.852 60.1386 156.783 59.8092 156.479 59.7616C156.388 59.7556 156.298 59.774 156.22 59.814C156.142 59.8541 156.081 59.9139 156.046 59.9849C155.971 60.1302 155.934 60.2875 155.937 60.4461C155.794 62.741 155.504 65.0798 155.43 67.3784" fill="#FAFAFA"/>
<path d="M163.074 69.7976C162.294 69.3877 161.305 69.4316 160.386 69.4572C158.966 69.5138 157.544 69.4451 156.141 69.2523L156.202 69.4536C157.22 69.9851 158.355 70.3359 159.539 70.4844C160.723 70.633 161.93 70.5761 163.087 70.3173C163.163 70.3082 163.234 70.2802 163.291 70.2368C163.434 70.1014 163.256 69.8928 163.074 69.7976Z" fill="#FAFAFA"/>
<path d="M156.601 70.3722C156.519 70.2735 156.454 70.1649 156.41 70.0501C156.297 69.8415 156.15 69.5304 155.976 69.1461C155.53 68.1402 155.156 67.1123 154.858 66.068C154.567 65.022 154.36 63.9606 154.238 62.8911C154.194 62.4812 154.168 62.1591 154.16 61.9175C154.137 61.7963 154.137 61.6728 154.16 61.5515C154.262 61.9871 154.337 62.4269 154.385 62.8691C154.515 63.6817 154.723 64.8016 155.066 66.0168C155.408 67.2319 155.812 68.3153 156.111 69.0949C156.305 69.5119 156.468 69.9385 156.601 70.3722Z" fill="#263238"/>
<path d="M186.311 68.8168C184.91 66.423 183.475 63.9268 183.466 61.2586C183.466 60.8743 183.566 60.4058 183.995 60.285C184.16 60.2524 184.333 60.265 184.489 60.3209C184.645 60.3769 184.776 60.4732 184.863 60.5961C185.024 60.8468 185.12 61.1239 185.144 61.4086C185.578 63.9158 185.986 66.2986 186.315 68.8168" fill="#FAFAFA"/>
<path d="M178.48 61.2185C178.007 60.5755 177.755 59.8342 177.752 59.0772C177.735 58.9934 177.74 58.9074 177.768 58.8256C177.796 58.7438 177.845 58.6684 177.912 58.605C177.996 58.5568 178.095 58.5326 178.196 58.5359C178.296 58.5392 178.393 58.5699 178.472 58.6233C178.628 58.7319 178.748 58.8733 178.819 59.0333C178.89 59.1929 178.988 59.3432 179.109 59.4799C179.23 59.597 179.408 59.7031 179.413 59.8459C179.406 59.9407 179.366 60.0315 179.296 60.1058C179.022 60.4718 178.749 60.8378 178.48 61.2038" fill="#FAFAFA"/>
<path d="M176.997 63.3632C176.516 63.248 176.012 63.2211 175.517 63.2842C175.023 63.3474 174.55 63.4991 174.131 63.7292C174.06 63.76 173.997 63.8033 173.947 63.8564C173.897 63.9094 173.861 63.9708 173.841 64.0366C173.84 64.1044 173.861 64.1712 173.903 64.2293C173.944 64.2875 174.004 64.3348 174.075 64.366C174.222 64.4238 174.381 64.455 174.543 64.4575L175.939 64.5819C176.006 64.5967 176.076 64.5967 176.143 64.5819C176.219 64.5474 176.279 64.4918 176.312 64.4246C176.52 64.0586 176.802 63.8317 177.01 63.4657" fill="#FAFAFA"/>
<path d="M152.954 58.0305C152.209 57.3611 151.537 56.6358 150.947 55.8635L150.665 56.537C151.099 57.1666 151.532 57.7852 152.009 58.3928C152.138 58.5944 152.328 58.7635 152.56 58.8833C152.678 58.9396 152.817 58.9561 152.949 58.9296C153.08 58.9032 153.196 58.8356 153.271 58.7406C153.414 58.4953 153.171 58.2281 152.954 58.0305Z" fill="#FAFAFA"/>
<path d="M151.498 54.9085C152.174 55.3698 153.202 55.1977 153.961 55.5564L154.03 54.6596C153.315 54.4394 152.578 54.2752 151.827 54.1691C151.678 54.4158 151.563 54.6762 151.485 54.9451" fill="#FAFAFA"/>
<path d="M160.924 148.497L161.57 155.747C161.57 155.747 153.045 158.221 153.011 159.572L169.73 159.524L169.249 148.178L160.924 148.497Z" fill="#FF725E"/>
<g opacity="0.3">
<path opacity="0.3" d="M160.924 148.497L161.57 155.747C161.57 155.747 153.045 158.221 153.011 159.572L169.73 159.524L169.249 148.178L160.924 148.497Z" fill="black"/>
</g>
<path d="M166.717 154.96C166.88 154.995 167.023 155.08 167.117 155.198C167.21 155.316 167.249 155.46 167.224 155.601C167.187 155.739 167.088 155.86 166.949 155.939C166.809 156.017 166.64 156.049 166.474 156.025C166.301 155.988 166.151 155.897 166.053 155.772C165.955 155.646 165.917 155.493 165.945 155.345C166.002 155.204 166.12 155.088 166.276 155.02C166.432 154.951 166.613 154.937 166.782 154.979" fill="#263238"/>
<path d="M169.743 159.524L169.695 158.382L153.552 158.902C153.382 158.978 153.238 159.088 153.131 159.223C153.024 159.358 152.959 159.513 152.941 159.674L169.743 159.524Z" fill="#263238"/>
<path d="M161.31 155.685C161.31 155.755 161.744 155.773 162.138 155.978C162.533 156.183 162.776 156.468 162.85 156.439C162.923 156.41 162.785 156.014 162.282 155.773C161.779 155.531 161.289 155.623 161.31 155.685Z" fill="#263238"/>
<path d="M159.588 156.358C159.588 156.424 159.93 156.531 160.221 156.812C160.511 157.094 160.607 157.398 160.689 157.394C160.772 157.391 160.802 156.995 160.433 156.662C160.065 156.329 159.584 156.293 159.588 156.358Z" fill="#263238"/>
<path d="M158.678 158.163C158.751 158.163 158.851 157.826 158.621 157.456C158.392 157.087 158.006 156.951 157.975 157.01C157.945 157.068 158.188 157.259 158.37 157.566C158.552 157.874 158.595 158.159 158.678 158.163Z" fill="#263238"/>
<path d="M161.375 154.02C161.414 154.082 161.782 153.972 162.242 153.983C162.701 153.994 163.07 154.104 163.109 154.045C163.148 153.987 162.788 153.749 162.242 153.745C161.695 153.741 161.331 153.965 161.375 154.02Z" fill="#263238"/>
<path d="M161.275 152.556C161.553 152.606 161.841 152.595 162.112 152.523C162.413 152.466 162.704 152.379 162.979 152.263C163.143 152.197 163.299 152.12 163.448 152.032C163.541 151.986 163.625 151.927 163.695 151.857C163.744 151.805 163.771 151.74 163.771 151.674C163.771 151.607 163.744 151.543 163.695 151.491C163.653 151.443 163.598 151.405 163.534 151.38C163.471 151.354 163.401 151.342 163.331 151.344C163.225 151.349 163.12 151.365 163.018 151.392C162.842 151.435 162.671 151.491 162.507 151.56C162.232 151.679 161.979 151.832 161.757 152.014C161.384 152.332 161.262 152.592 161.293 152.607C161.323 152.622 161.51 152.406 161.891 152.142C162.113 151.993 162.358 151.87 162.62 151.776C162.772 151.718 162.93 151.67 163.092 151.633C163.27 151.589 163.417 151.582 163.469 151.633C163.521 151.685 163.469 151.666 163.469 151.714C163.417 151.762 163.358 151.804 163.292 151.838C163.153 151.923 163.008 152 162.858 152.069C162.604 152.185 162.339 152.282 162.065 152.358C161.795 152.405 161.531 152.471 161.275 152.556Z" fill="#263238"/>
<path d="M161.384 152.651C161.534 152.443 161.6 152.201 161.574 151.959C161.578 151.54 161.444 151.129 161.188 150.77C161.139 150.678 161.062 150.599 160.966 150.54C160.869 150.481 160.756 150.444 160.638 150.433C160.563 150.437 160.491 150.458 160.431 150.495C160.37 150.532 160.323 150.583 160.295 150.642C160.258 150.725 160.234 150.812 160.226 150.901C160.202 151.06 160.21 151.221 160.248 151.377C160.303 151.645 160.438 151.896 160.638 152.109C160.985 152.475 161.327 152.534 161.332 152.512C161.336 152.49 161.067 152.351 160.803 152.01C160.648 151.813 160.546 151.589 160.503 151.355C160.482 151.219 160.482 151.081 160.503 150.945C160.525 150.795 160.586 150.671 160.651 150.685C160.716 150.7 160.881 150.788 160.954 150.905C161.041 151.022 161.116 151.144 161.18 151.271C161.283 151.495 161.349 151.73 161.375 151.97C161.414 152.38 161.34 152.632 161.384 152.651Z" fill="#263238"/>
<path d="M166.34 148.486L166.999 155.736C166.999 155.736 158.474 158.21 158.444 159.557L175.159 159.51L174.678 148.163L166.34 148.486Z" fill="#FF725E"/>
<path d="M172.141 154.946C172.303 154.982 172.444 155.067 172.537 155.185C172.629 155.303 172.668 155.446 172.644 155.586C172.607 155.725 172.509 155.847 172.37 155.926C172.23 156.006 172.06 156.037 171.894 156.014C171.722 155.976 171.573 155.885 171.476 155.759C171.378 155.634 171.339 155.482 171.365 155.334C171.422 155.194 171.541 155.078 171.697 155.01C171.853 154.942 172.033 154.927 172.202 154.968" fill="#263238"/>
<path d="M175.163 159.51L175.115 158.368L158.968 158.891C158.797 158.966 158.651 159.076 158.543 159.211C158.436 159.346 158.37 159.501 158.353 159.663L175.163 159.51Z" fill="#263238"/>
<path d="M166.73 155.674C166.73 155.74 167.163 155.758 167.558 155.967C167.952 156.176 168.2 156.457 168.273 156.424C168.347 156.392 168.204 156.004 167.701 155.758C167.198 155.513 166.708 155.612 166.73 155.674Z" fill="#263238"/>
<path d="M165.008 156.344C165.008 156.413 165.351 156.516 165.641 156.798C165.932 157.079 166.027 157.387 166.11 157.38C166.192 157.372 166.222 156.984 165.854 156.648C165.485 156.311 165.008 156.293 165.008 156.344Z" fill="#263238"/>
<path d="M164.098 158.148C164.176 158.148 164.271 157.812 164.041 157.442C163.811 157.072 163.426 156.937 163.395 156.995C163.365 157.054 163.608 157.248 163.79 157.552C163.972 157.855 164.02 158.145 164.098 158.148Z" fill="#263238"/>
<path d="M166.795 154.005C166.834 154.067 167.203 153.961 167.663 153.968C168.122 153.976 168.491 154.093 168.53 154.03C168.569 153.968 168.213 153.738 167.663 153.73C167.112 153.723 166.774 153.954 166.795 154.005Z" fill="#263238"/>
<path d="M166.695 152.541C166.972 152.594 167.261 152.582 167.532 152.508C167.832 152.452 168.123 152.366 168.399 152.252C168.562 152.183 168.72 152.106 168.871 152.021C168.961 151.972 169.043 151.913 169.114 151.846C169.165 151.795 169.194 151.732 169.198 151.666C169.202 151.6 169.18 151.534 169.136 151.48C169.093 151.432 169.037 151.395 168.973 151.37C168.908 151.345 168.838 151.334 168.767 151.337C168.661 151.34 168.556 151.356 168.455 151.384C168.279 151.427 168.108 151.484 167.944 151.553C167.666 151.669 167.413 151.823 167.193 152.007C166.821 152.321 166.699 152.585 166.73 152.596C166.76 152.607 166.946 152.395 167.328 152.131C167.552 151.984 167.797 151.861 168.056 151.765C168.211 151.708 168.37 151.661 168.533 151.626C168.707 151.578 168.858 151.571 168.906 151.626C168.954 151.681 168.906 151.663 168.906 151.707C168.854 151.756 168.795 151.799 168.728 151.835C168.589 151.917 168.444 151.993 168.295 152.061C168.042 152.18 167.776 152.277 167.501 152.351C167.228 152.399 166.958 152.462 166.695 152.541Z" fill="#263238"/>
<path d="M166.807 152.632C166.954 152.425 167.019 152.184 166.994 151.944C166.995 151.681 166.944 151.42 166.842 151.172C166.782 151.025 166.703 150.884 166.608 150.751C166.558 150.66 166.482 150.581 166.385 150.522C166.289 150.463 166.176 150.426 166.057 150.414C165.983 150.418 165.912 150.44 165.852 150.477C165.792 150.514 165.746 150.565 165.719 150.623C165.678 150.707 165.653 150.796 165.645 150.887C165.622 151.045 165.629 151.206 165.667 151.362C165.726 151.624 165.86 151.869 166.057 152.076C166.404 152.442 166.747 152.501 166.755 152.479C166.764 152.457 166.487 152.321 166.222 151.977C166.068 151.779 165.966 151.556 165.923 151.322C165.901 151.187 165.901 151.051 165.923 150.916C165.945 150.766 166.005 150.641 166.07 150.652C166.135 150.663 166.3 150.759 166.374 150.876C166.464 150.991 166.539 151.113 166.599 151.242C166.704 151.466 166.771 151.701 166.799 151.941C166.838 152.365 166.773 152.632 166.807 152.632Z" fill="#263238"/>
<path d="M155.205 78.4024C155.205 78.4024 150.24 87.9186 150.24 94.6238C150.24 101.329 155.933 123.249 155.933 123.249C155.933 123.249 156.688 129.314 157.447 137.403C157.943 142.461 158.912 147.479 160.343 152.409H166.019L175.22 152.621C175.22 152.621 179.122 139.108 178.875 133.999C178.628 128.889 177.613 123.037 177.613 123.037C177.613 123.037 182.53 106.116 183.415 103.031C184.299 99.9456 183.918 88.453 183.415 88.1345L179.46 79.3174L155.205 78.4024Z" fill="#263238"/>
<path d="M165.906 99.6602C165.967 99.6602 166.019 111.438 166.019 125.961C166.019 140.485 165.95 152.266 165.906 152.266C165.863 152.266 165.793 140.488 165.793 125.958C165.793 111.427 165.824 99.6602 165.906 99.6602Z" fill="#455A64"/>
<path d="M163.738 94.825C163.677 94.6306 163.635 94.4323 163.612 94.2321C163.543 93.8661 163.469 93.2915 163.4 92.6034C163.051 88.9952 163.343 85.3634 164.267 81.8282C164.449 81.1511 164.609 80.6094 164.744 80.2361C164.799 80.0414 164.871 79.8505 164.961 79.6651C164.939 79.8648 164.894 80.0621 164.826 80.2544C164.722 80.6204 164.583 81.1804 164.423 81.8575C163.589 85.3895 163.297 88.9975 163.556 92.5924C163.604 93.2805 163.656 93.8405 163.695 94.2248C163.729 94.4234 163.744 94.6243 163.738 94.825Z" fill="#455A64"/>
<path d="M182.565 87.9918C182.45 88.0804 182.316 88.1488 182.17 88.1931C181.775 88.3259 181.351 88.3858 180.926 88.3688C179.538 88.2517 178.22 87.7979 177.132 87.0622C176.02 86.3587 175.12 85.4447 174.504 84.394C174.319 84.0778 174.164 83.7498 174.04 83.4131C173.99 83.2949 173.958 83.1719 173.945 83.0471C173.988 83.0471 174.149 83.5741 174.647 84.3464C175.287 85.3476 176.175 86.2212 177.249 86.9084C178.307 87.6226 179.575 88.0806 180.917 88.2334C181.481 88.2675 182.047 88.1846 182.565 87.9918Z" fill="#455A64"/>
<path d="M158.102 81.3708C158.087 81.4885 158.055 81.6041 158.006 81.7149C157.899 82.0197 157.767 82.3181 157.612 82.6079C156.577 84.5465 154.807 86.1393 152.582 87.1354C152.251 87.2866 151.907 87.4175 151.554 87.5271C151.428 87.5779 151.294 87.6112 151.155 87.6259C151.155 87.5966 151.689 87.4136 152.508 87.0183C154.646 85.9743 156.371 84.4193 157.464 82.5494C157.88 81.8356 158.063 81.3635 158.102 81.3708Z" fill="#455A64"/>
<path d="M168.213 82.2089C168.191 82.2089 168.187 82.132 168.139 82.0149C168.072 81.846 167.943 81.6997 167.77 81.5977C167.649 81.5262 167.508 81.4806 167.361 81.4647C167.214 81.4487 167.064 81.463 166.925 81.5062C166.81 81.5464 166.706 81.6066 166.62 81.683C166.534 81.7593 166.468 81.8501 166.426 81.9493C166.385 82.0486 166.368 82.1541 166.378 82.2591C166.388 82.364 166.424 82.466 166.484 82.5585C166.543 82.6509 166.625 82.7318 166.725 82.7957C166.824 82.8596 166.938 82.9052 167.059 82.9296C167.18 82.9539 167.306 82.9564 167.429 82.9369C167.552 82.9174 167.668 82.8764 167.77 82.8164C167.942 82.715 168.071 82.5702 168.139 82.4029C168.187 82.2821 168.191 82.2089 168.213 82.2089C168.234 82.2089 168.247 82.2821 168.213 82.4212C168.172 82.619 168.047 82.7974 167.861 82.9226C167.721 83.0188 167.553 83.0831 167.375 83.1094C167.197 83.1356 167.013 83.123 166.842 83.0726C166.629 83.0108 166.443 82.8941 166.312 82.739C166.18 82.5838 166.11 82.3978 166.11 82.2071C166.11 82.0163 166.18 81.8304 166.312 81.6752C166.443 81.52 166.629 81.4033 166.842 81.3415C167.014 81.2918 167.197 81.2796 167.375 81.3058C167.553 81.3321 167.72 81.396 167.861 81.4916C168.048 81.6181 168.173 81.7978 168.213 81.9966C168.238 82.0658 168.238 82.1397 168.213 82.2089Z" fill="#455A64"/>
<path d="M174.764 122.726C173.792 123.292 172.778 123.805 171.729 124.263C170.71 124.775 169.654 125.233 168.568 125.636C170.562 124.554 172.636 123.582 174.777 122.726H174.764Z" fill="#455A64"/>
<path d="M155.105 66.6426L148.844 65.9838L146.88 71.5837L128.361 67.1513C126.633 66.5226 124.748 66.26 122.872 66.3864L120.34 66.1045C120.34 66.1045 119.147 65.3725 118.605 65.497C118.063 65.6214 117.604 65.7385 118.172 66.2656C118.74 66.7926 119.989 67.1623 121.372 67.7003L120.895 68.0663H119.13C119.13 68.0663 117.951 65.8996 117.396 65.6324C117.289 65.571 117.168 65.5298 117.041 65.5114C116.914 65.4931 116.783 65.4982 116.659 65.5262L117.196 66.9903C117.196 66.9903 115.609 64.4282 114.413 64.6918C114.413 64.6918 113.91 63.6669 112.839 64.1684L113.272 64.9919C113.272 64.9919 112.557 64.9443 112.596 65.2957C112.596 65.4421 115.076 69.3217 115.076 69.3217L119.902 70.6906C119.902 70.6906 126.54 70.2075 126.588 70.3246C126.636 70.4417 142.774 75.9684 145.402 76.6126C148.029 77.2568 150.171 77.7106 150.605 77.3775C151.038 77.0445 155.99 68.9923 155.99 68.9923L155.105 66.6426Z" fill="#FFBE9D"/>
<path d="M135.649 70.57L140.298 72.8173L145.002 73.5493H151.441C151.441 73.5493 165.255 78.0549 168.845 78.732C172.436 79.4091 176.832 80.6645 178.137 79.9947C179.442 79.3249 184.685 72.1255 184.685 72.1255L177.947 67.9384L174.911 72.2939L153.856 70.0979C153.856 70.0979 151.935 68.5277 149.707 68.3703C147.478 68.2129 142.335 67.8469 142.275 68.3703C142.214 68.8937 142.149 69.1536 143.203 69.3109C144.256 69.4683 147.226 70.043 147.226 70.043L143.576 70.4639C143.576 70.4639 139.92 68.9998 139.608 68.9998C139.296 68.9998 138.927 69.3658 138.927 69.3658C138.927 69.3658 137.813 68.8937 137.258 68.9449C137.096 68.9618 136.941 69.0143 136.811 69.0971C136.68 69.18 136.577 69.2903 136.512 69.4171C136.275 69.4449 136.049 69.5216 135.855 69.6403C135.66 69.7589 135.504 69.9161 135.398 70.0979L136.144 70.3577L135.649 70.57Z" fill="#FFBE9D"/>
<path d="M158.969 70.6467H158.882H158.63L157.638 70.5552L153.874 70.1892H153.852C153 69.5326 152.001 69.0272 150.913 68.7032C150.267 68.5429 149.599 68.4543 148.927 68.4397C148.22 68.3958 147.483 68.3482 146.72 68.3116C145.957 68.275 145.163 68.242 144.348 68.2384C143.94 68.2384 143.528 68.2384 143.116 68.275C142.914 68.2863 142.715 68.3195 142.522 68.3738C142.487 68.3831 142.454 68.3994 142.427 68.4214V68.4873C142.421 68.5738 142.421 68.6606 142.427 68.7471C142.384 69.1131 142.861 69.201 143.294 69.2632L144.595 69.5011L147.318 69.9952L147.929 70.105L147.309 70.1746L143.654 70.5955H143.619H143.589C142.509 70.1673 141.365 69.7097 140.185 69.2961C140.077 69.2559 139.969 69.2229 139.86 69.19C139.752 69.1571 139.678 69.1278 139.587 69.1534C139.389 69.2238 139.215 69.3344 139.08 69.4755L139.023 69.5267L138.945 69.4975C138.545 69.3259 138.121 69.1956 137.684 69.1095C137.485 69.0657 137.274 69.0786 137.085 69.1461C136.904 69.2244 136.761 69.3539 136.682 69.5121L136.656 69.5633H136.595C136.376 69.5843 136.166 69.6521 135.987 69.7604C135.807 69.8686 135.663 70.0136 135.568 70.1819L135.507 70.0648L136.248 70.3246L136.474 70.4052L136.257 70.4967L135.763 70.7053V70.5406L140.402 72.7953H140.372L145.076 73.5273L151.515 73.5456H151.541L156.367 75.0719L157.668 75.5038L158.002 75.6172L158.115 75.6612C158.073 75.6587 158.031 75.6501 157.993 75.6355L157.655 75.5367L156.354 75.1341L151.441 73.6005H151.463H145.024L140.315 72.8685L135.598 70.6467L135.42 70.5626L135.602 70.482L136.097 70.2734V70.4454L135.351 70.1819L135.255 70.149L135.29 70.0648C135.384 69.8558 135.556 69.6785 135.78 69.5597C135.996 69.4395 136.24 69.3585 136.495 69.3218L136.404 69.384C136.504 69.1831 136.688 69.0203 136.92 68.9265C137.152 68.8426 137.409 68.8246 137.653 68.8752C138.111 68.9657 138.555 69.1009 138.976 69.2778L138.841 69.3035C139.005 69.1401 139.216 69.0143 139.453 68.9375C139.591 68.9112 139.736 68.924 139.864 68.9741L140.203 69.0839C141.391 69.5048 142.531 69.9623 143.619 70.3905H143.554L147.21 69.9733V70.1563L144.495 69.6585L143.194 69.4206C142.966 69.3921 142.744 69.3354 142.535 69.2522C142.418 69.2066 142.318 69.1328 142.249 69.0399C142.19 68.9453 142.16 68.8395 142.163 68.7325C142.163 68.6337 142.163 68.5422 142.184 68.4507V68.3811C142.193 68.3428 142.214 68.3073 142.245 68.2786C142.292 68.2342 142.352 68.2003 142.418 68.1798C142.629 68.1209 142.847 68.0852 143.069 68.0737C143.486 68.0446 143.904 68.0336 144.322 68.0407C145.146 68.0407 145.939 68.0846 146.702 68.1249C147.465 68.1652 148.207 68.2127 148.914 68.264C149.598 68.283 150.278 68.3765 150.934 68.5422C152.039 68.8792 153.051 69.4022 153.909 70.0794H153.874L157.633 70.4967L158.622 70.6138L158.873 70.6467C158.921 70.6211 158.969 70.6467 158.969 70.6467Z" fill="#EB996E"/>
<path d="M143.58 70.6871C143.477 70.707 143.373 70.7205 143.268 70.7273C142.985 70.7778 142.706 70.8401 142.431 70.914C142.017 71.0311 141.594 71.1253 141.165 71.1959C140.619 71.2121 140.077 71.1232 139.578 70.936C139.099 70.7603 138.606 70.6111 138.104 70.4894C137.695 70.3939 137.275 70.3398 136.851 70.3283C136.461 70.3357 136.075 70.3938 135.706 70.5004C135.706 70.5004 135.788 70.4272 135.979 70.3539C136.254 70.2569 136.548 70.2035 136.846 70.1965C137.821 70.2088 138.782 70.3999 139.66 70.7566C140.128 70.9336 140.635 71.0235 141.148 71.0202C141.603 70.9689 142.015 70.8481 142.392 70.7822C142.676 70.7177 142.966 70.6748 143.259 70.6541C143.467 70.6468 143.584 70.6761 143.58 70.6871Z" fill="#EB996E"/>
<path d="M140.354 70.8992C140.315 70.9541 139.387 70.3868 138.186 69.8452C137.672 69.6192 137.095 69.5143 136.517 69.5414C136.083 69.5707 135.819 69.6841 135.801 69.6512C135.996 69.5095 136.239 69.4248 136.495 69.4097C137.11 69.3372 137.737 69.4307 138.286 69.6768C138.818 69.9119 139.327 70.1823 139.808 70.4857C140.163 70.7199 140.376 70.8809 140.354 70.8992Z" fill="#EB996E"/>
<path d="M142.089 70.7601C141.804 70.7335 141.526 70.6641 141.27 70.5551C140.64 70.3298 140.028 70.0719 139.436 69.7829C139.084 69.6182 138.759 69.4535 138.451 69.34C138.178 69.232 137.885 69.1639 137.584 69.1387C137.308 69.1295 137.033 69.1529 136.765 69.2083C136.88 69.1293 137.012 69.0706 137.154 69.0354C137.296 69.0002 137.446 68.9893 137.593 69.0033C137.911 69.0126 138.224 69.0722 138.516 69.179C138.862 69.3081 139.2 69.4535 139.527 69.6145C140.225 69.9439 140.849 70.2404 141.317 70.4307C141.586 70.5196 141.845 70.6299 142.089 70.7601Z" fill="#EB996E"/>
<path d="M126.969 67.2466C126.969 67.2466 126.795 67.2466 126.492 67.2466C126.062 67.2903 125.644 67.3955 125.256 67.5578C124.757 67.7481 124.207 68.0665 123.5 68.2898C122.718 68.4952 121.889 68.5367 121.085 68.4106C120.738 68.3703 120.4 68.3118 120.074 68.2569C119.749 68.202 119.437 68.1946 119.138 68.1654H119.069L119.043 68.1105C118.955 67.8817 118.843 67.66 118.709 67.4479L118.305 66.866L117.95 66.3499L117.616 65.9253C117.558 65.8197 117.466 65.7297 117.352 65.6651C117.237 65.6005 117.103 65.5639 116.966 65.5592C116.771 65.5336 116.662 65.5592 116.662 65.5336C116.761 65.4984 116.868 65.4858 116.974 65.497C117.102 65.4998 117.228 65.5208 117.347 65.5592C117.428 65.584 117.5 65.6241 117.56 65.6764C117.625 65.7349 117.664 65.7935 117.724 65.8557L118.089 66.273L118.462 66.7818L118.895 67.3564C119.039 67.5768 119.161 67.807 119.259 68.0446L119.164 67.986C119.472 68.0116 119.801 68.0373 120.131 68.0739C120.46 68.1105 120.79 68.18 121.128 68.2203C121.898 68.3446 122.692 68.3107 123.444 68.1214C124.12 67.9238 124.684 67.62 125.204 67.437C125.613 67.2785 126.055 67.1902 126.505 67.1771C126.664 67.1696 126.822 67.1934 126.969 67.2466Z" fill="#EB996E"/>
<path d="M120.262 70.16C119.561 70.0582 118.885 69.8617 118.258 69.5781C117.608 69.3474 116.981 69.0706 116.385 68.7509C117.071 68.8987 117.733 69.1188 118.354 69.406C119.005 69.629 119.642 69.8806 120.262 70.16Z" fill="#EB996E"/>
<path d="M122.325 70.16C121.642 70.1603 120.965 70.051 120.331 69.8379C119.674 69.6906 119.055 69.4425 118.505 69.1059C118.536 69.0547 119.351 69.3804 120.405 69.6732C121.458 69.966 122.334 70.1051 122.325 70.16Z" fill="#EB996E"/>
<path d="M116.662 65.5226C116.969 66.0476 117.208 66.5984 117.378 67.166C117.618 67.7161 117.787 68.2868 117.881 68.8679C117.571 68.3437 117.33 67.7927 117.161 67.2245C116.922 66.6743 116.754 66.1036 116.662 65.5226Z" fill="#EB996E"/>
<path d="M116.385 68.7507C115.952 68.1156 115.584 67.4508 115.284 66.7633C114.915 66.1012 114.616 65.4129 114.391 64.7064C114.825 65.3395 115.194 66.0032 115.492 66.6901C115.86 67.3539 116.158 68.0434 116.385 68.7507Z" fill="#EB996E"/>
<path d="M115.341 68.8826C114.823 68.1382 114.371 67.3626 113.988 66.5621C113.537 65.7891 113.154 64.989 112.843 64.1684C113.362 64.9112 113.814 65.6856 114.196 66.4852C114.647 67.2596 115.029 68.0609 115.341 68.8826Z" fill="#EB996E"/>
<path d="M123.384 66.3645C122.94 66.555 122.527 66.791 122.152 67.0672C121.567 67.5576 121.164 68.0334 121.103 67.9931C121.299 67.5855 121.605 67.2221 121.996 66.9318C122.262 66.7099 122.58 66.5367 122.928 66.4231C123.202 66.3426 123.379 66.3426 123.384 66.3645Z" fill="#EB996E"/>
<path d="M143.663 72.5463C143.114 72.6962 142.544 72.7824 141.967 72.8026C141.395 72.8892 140.812 72.9113 140.233 72.8684C140.784 72.723 141.356 72.6369 141.933 72.6122C142.504 72.5278 143.085 72.5056 143.663 72.5463Z" fill="#EB996E"/>
<path d="M152.898 52.3463C153.447 52.1934 153.931 51.9069 154.288 51.5227C154.646 51.1385 154.86 50.6737 154.906 50.1868C154.094 50.8037 153.415 51.5343 152.898 52.3463Z" fill="#FAFAFA"/>
<path d="M78.136 51.24C75.992 51.24 74.36 50.664 73.24 49.512C72.136 48.36 71.544 46.768 71.464 44.736C71.448 44.304 71.44 43.6 71.44 42.624C71.44 41.632 71.448 40.912 71.464 40.464C71.544 38.448 72.144 36.864 73.264 35.712C74.384 34.544 76.008 33.96 78.136 33.96C79.56 33.96 80.768 34.216 81.76 34.728C82.752 35.224 83.504 35.88 84.016 36.696C84.528 37.512 84.808 38.384 84.856 39.312V39.36C84.856 39.488 84.8 39.6 84.688 39.696C84.592 39.776 84.48 39.816 84.352 39.816H83.032C82.712 39.816 82.512 39.632 82.432 39.264C82.16 38.064 81.672 37.224 80.968 36.744C80.264 36.248 79.32 36 78.136 36C75.384 36 73.96 37.528 73.864 40.584C73.848 41.016 73.84 41.68 73.84 42.576C73.84 43.472 73.848 44.152 73.864 44.616C73.96 47.672 75.384 49.2 78.136 49.2C79.32 49.2 80.264 48.96 80.968 48.48C81.688 47.984 82.176 47.136 82.432 45.936C82.48 45.728 82.552 45.584 82.648 45.504C82.744 45.424 82.872 45.384 83.032 45.384H84.352C84.496 45.384 84.616 45.432 84.712 45.528C84.824 45.608 84.872 45.72 84.856 45.864C84.808 46.808 84.528 47.688 84.016 48.504C83.504 49.32 82.752 49.984 81.76 50.496C80.768 50.992 79.56 51.24 78.136 51.24ZM88.6244 51C88.4644 51 88.3284 50.952 88.2164 50.856C88.1204 50.744 88.0724 50.608 88.0724 50.448V34.776C88.0724 34.6 88.1204 34.464 88.2164 34.368C88.3284 34.256 88.4644 34.2 88.6244 34.2H94.4804C96.3204 34.2 97.7604 34.632 98.8004 35.496C99.8404 36.36 100.36 37.608 100.36 39.24C100.36 40.456 100.056 41.456 99.4484 42.24C98.8564 43.024 98.0164 43.568 96.9284 43.872L100.624 50.256C100.672 50.352 100.696 50.44 100.696 50.52C100.696 50.648 100.64 50.76 100.528 50.856C100.432 50.952 100.32 51 100.192 51H99.0404C98.8004 51 98.6084 50.944 98.4644 50.832C98.3364 50.72 98.2164 50.56 98.1044 50.352L94.6244 44.256H90.4244V50.448C90.4244 50.608 90.3684 50.744 90.2564 50.856C90.1444 50.952 90.0084 51 89.8484 51H88.6244ZM94.3844 42.216C96.7684 42.216 97.9604 41.216 97.9604 39.216C97.9604 37.216 96.7684 36.216 94.3844 36.216H90.4244V42.216H94.3844ZM104.351 51C104.191 51 104.055 50.952 103.943 50.856C103.847 50.744 103.799 50.608 103.799 50.448V34.776C103.799 34.6 103.847 34.464 103.943 34.368C104.055 34.256 104.191 34.2 104.351 34.2H105.551C105.807 34.2 106.015 34.328 106.175 34.584L111.239 44.28L116.351 34.584C116.383 34.488 116.447 34.4 116.543 34.32C116.655 34.24 116.791 34.2 116.951 34.2H118.127C118.303 34.2 118.439 34.256 118.535 34.368C118.647 34.464 118.703 34.6 118.703 34.776V50.448C118.703 50.608 118.647 50.744 118.535 50.856C118.423 50.952 118.287 51 118.127 51H116.951C116.791 51 116.655 50.952 116.543 50.856C116.447 50.744 116.399 50.608 116.399 50.448V38.64L112.391 46.464C112.231 46.8 111.975 46.968 111.623 46.968H110.879C110.527 46.968 110.271 46.8 110.111 46.464L106.079 38.64V50.448C106.079 50.608 106.023 50.744 105.911 50.856C105.815 50.952 105.687 51 105.527 51H104.351Z" fill="#FF725E"/>
</svg>
