<svg width="400" height="420" viewBox="0 0 400 420" fill="none" xmlns="http://www.w3.org/2000/svg">
<path d="M202.228 420C311.455 420 400 413.95 400 406.487C400 399.024 311.455 392.974 202.228 392.974C93.0012 392.974 4.45557 399.024 4.45557 406.487C4.45557 413.95 93.0012 420 202.228 420Z" fill="#FF725E"/>
<path opacity="0.7" d="M202.228 420C311.455 420 400 413.95 400 406.487C400 399.024 311.455 392.974 202.228 392.974C93.0012 392.974 4.45557 399.024 4.45557 406.487C4.45557 413.95 93.0012 420 202.228 420Z" fill="white"/>
<path d="M245.525 50.5365L244.956 55.8581L247.57 56.8805C247.608 58.7047 247.838 60.5178 248.255 62.2834L245.989 64.096L247.897 69.0341L250.648 68.4648C251.506 70.0228 252.525 71.4656 253.685 72.7638L252.535 75.5989L256.436 78.8058L258.545 76.8305C259.994 77.7107 261.533 78.3972 263.13 78.8755L263.426 81.9545L268.243 82.5936L269.182 79.7004C270.837 79.6586 272.482 79.4052 274.084 78.9452L275.739 81.4317L280.23 79.3054L279.734 76.2844C281.144 75.3386 282.45 74.2157 283.625 72.9381L286.197 74.2046L289.106 69.9055L287.304 67.5817C288.104 65.9892 288.727 64.2961 289.159 62.539L291.953 62.2137L292.533 56.8922L289.908 55.8581C289.875 54.0373 289.645 52.2274 289.222 50.4668L291.5 48.6426L289.581 43.7045L286.84 44.2622C285.978 42.7081 284.956 41.2694 283.793 39.9748L284.932 37.1513L280.999 33.991L278.891 35.9778C277.448 35.1076 275.92 34.4215 274.337 33.9329L274.042 30.8538L269.213 30.2264L268.275 33.1079C266.623 33.1528 264.981 33.4102 263.383 33.8748L261.728 31.3767L257.248 33.4797L257.754 36.5007C256.35 37.4324 255.048 38.5397 253.874 39.8005L251.313 38.5456L248.392 42.8447L250.195 45.1685C249.397 46.7664 248.774 48.463 248.34 50.2228L245.525 50.5365ZM256.731 54.8007C257.014 52.1843 257.994 49.719 259.548 47.7169C261.102 45.7148 263.16 44.2659 265.462 43.5536C267.764 42.8412 270.205 42.8976 272.478 43.7154C274.751 44.5332 276.752 46.0757 278.229 48.1477C279.706 50.2197 280.591 52.7281 280.774 55.3552C280.957 57.9824 280.428 60.6103 279.255 62.9062C278.083 65.2021 276.318 67.0629 274.185 68.253C272.052 69.4431 269.647 69.9091 267.273 69.5918V69.5918C264.097 69.1673 261.204 67.3716 259.227 64.5987C257.251 61.8258 256.353 58.3022 256.731 54.8007Z" stroke="#263238" stroke-width="1.57112" stroke-linejoin="round"/>
<path d="M119.577 181.484L119.061 186.305L121.433 187.235C121.466 188.887 121.674 190.528 122.055 192.127L119.946 193.776L121.675 198.25L124.163 197.727C124.941 199.137 125.865 200.443 126.915 201.619L125.86 204.187L129.476 207.115L131.384 205.314C132.696 206.116 134.091 206.74 135.538 207.173L135.802 209.962L140.177 210.543L141.02 207.917C142.519 207.882 144.009 207.652 145.458 207.231L146.955 209.497L151.004 207.58L150.561 204.791C151.84 203.933 153.025 202.916 154.092 201.759L156.422 202.921L159.058 199.04L157.424 196.914C158.148 195.471 158.714 193.938 159.111 192.347L161.641 192.045L162.157 187.223L159.785 186.294C159.752 184.642 159.543 183 159.163 181.402L161.272 179.752L159.532 175.279L157.055 175.779C156.269 174.376 155.338 173.077 154.282 171.909L155.336 169.342L151.72 166.448L149.802 168.249C148.496 167.455 147.108 166.835 145.669 166.402L145.406 163.613L141.031 163.032L140.187 165.658C138.688 165.694 137.199 165.924 135.749 166.344L134.252 164.125L130.193 166.03L130.646 168.772C129.367 169.629 128.182 170.647 127.115 171.805L124.785 170.643L122.149 174.535L123.783 176.65C123.061 178.098 122.495 179.635 122.097 181.228L119.577 181.484ZM129.729 185.341C129.986 182.973 130.875 180.742 132.282 178.93C133.689 177.118 135.552 175.807 137.636 175.162C139.719 174.517 141.929 174.567 143.987 175.307C146.044 176.046 147.856 177.441 149.195 179.316C150.533 181.19 151.337 183.46 151.505 185.837C151.672 188.215 151.197 190.595 150.138 192.675C149.079 194.755 147.485 196.442 145.556 197.523C143.627 198.605 141.45 199.031 139.302 198.749V198.749C136.42 198.368 133.793 196.742 131.998 194.228C130.203 191.714 129.387 188.518 129.729 185.341V185.341Z" fill="#263238"/>
<path d="M342.513 299.777V288.844L336.979 287.461C336.51 283.775 335.647 280.164 334.406 276.702L338.623 272.414L333.647 262.887L328.207 264.781C326.125 261.856 323.74 259.208 321.102 256.891L322.82 250.838L314.207 245.365L310.359 249.931C307.228 248.538 303.959 247.56 300.618 247.015L299.353 240.857H289.433L288.168 246.969C284.823 247.481 281.546 248.433 278.406 249.804L274.516 245.156L265.924 250.617L267.6 256.612C264.947 258.904 262.544 261.528 260.442 264.432L254.96 262.561L250.005 272.019L254.159 276.284C252.896 279.731 252.008 283.331 251.513 287.008L245.925 288.414V299.347L251.46 300.742C251.935 304.422 252.798 308.029 254.032 311.489L249.815 315.788L254.781 325.281L260.21 323.434C262.298 326.351 264.69 328.987 267.337 331.288L265.639 337.342L274.263 342.814L278.111 338.167C281.224 339.562 284.476 340.545 287.799 341.095L289.064 347.253H298.995L300.249 341.153C303.597 340.623 306.877 339.664 310.022 338.295L313.912 342.942L322.525 337.47L320.849 331.486C323.505 329.198 325.907 326.573 328.007 323.666L333.489 325.537L338.455 316.032L334.29 311.78C335.553 308.328 336.444 304.724 336.947 301.044L342.513 299.777ZM325.361 294.13C325.361 300.919 323.535 307.555 320.113 313.199C316.691 318.844 311.827 323.243 306.137 325.841C300.446 328.438 294.185 329.118 288.144 327.794C282.103 326.469 276.554 323.2 272.199 318.4C267.843 313.6 264.878 307.484 263.676 300.826C262.474 294.169 263.091 287.267 265.448 280.996C267.805 274.724 271.797 269.364 276.918 265.592C282.039 261.821 288.06 259.808 294.219 259.808V259.808C302.479 259.808 310.4 263.424 316.24 269.861C322.08 276.297 325.361 285.028 325.361 294.13V294.13Z" fill="white"/>
<path d="M170.148 28.3557H144.593V34.8508H170.148V28.3557Z" fill="#FF725E"/>
<path d="M161.387 37.7439H144.593V44.239H161.387V37.7439Z" fill="#FF725E"/>
<path d="M154.26 47.1321H144.593V53.6272H154.26V47.1321Z" fill="#FF725E"/>
<path opacity="0.2" d="M170.148 28.3557H144.593V34.8508H170.148V28.3557Z" fill="black"/>
<path opacity="0.2" d="M161.387 37.7439H144.593V44.239H161.387V37.7439Z" fill="black"/>
<path opacity="0.2" d="M154.26 47.1321H144.593V53.6272H154.26V47.1321Z" fill="black"/>
<path d="M108.887 100.301H100.221V119.868H108.887V100.301Z" fill="#FF725E"/>
<path d="M121.401 107.029H112.735V119.879H121.401V107.029Z" fill="#FF725E"/>
<path d="M133.925 112.478H125.259V119.879H133.925V112.478Z" fill="#FF725E"/>
<path opacity="0.2" d="M108.887 100.301H100.221V119.868H108.887V100.301Z" fill="black"/>
<path opacity="0.2" d="M121.401 107.029H112.735V119.879H121.401V107.029Z" fill="black"/>
<path opacity="0.2" d="M133.925 112.478H125.259V119.879H133.925V112.478Z" fill="black"/>
<path d="M203.208 134.682H98.2816C96.8414 134.685 95.4148 134.375 94.0834 133.77C92.7521 133.164 91.5421 132.276 90.5228 131.154C89.5034 130.033 88.6947 128.701 88.1429 127.235C87.5911 125.769 87.3071 124.197 87.3071 122.61V27.1357C87.3127 23.9358 88.4685 20.8688 90.5215 18.6061C92.5744 16.3435 95.3572 15.0696 98.2605 15.0635H203.187C204.627 15.062 206.053 15.373 207.384 15.9789C208.715 16.5847 209.924 17.4735 210.943 18.5945C211.962 19.7155 212.771 21.0468 213.323 22.5123C213.875 23.9778 214.16 25.5488 214.162 27.1357V122.61C214.162 125.811 213.008 128.882 210.954 131.146C208.899 133.41 206.113 134.682 203.208 134.682ZM98.2816 16.1673C95.6327 16.1734 93.0939 17.3359 91.2209 19.4003C89.3479 21.4646 88.2931 24.2627 88.2875 27.1822V122.656C88.2931 125.576 89.3479 128.374 91.2209 130.438C93.0939 132.502 95.6327 133.665 98.2816 133.671H203.208C205.857 133.665 208.396 132.502 210.269 130.438C212.142 128.374 213.197 125.576 213.203 122.656V27.1357C213.197 24.2163 212.142 21.4182 210.269 19.3538C208.396 17.2894 205.857 16.127 203.208 16.1208L98.2816 16.1673Z" fill="#263238"/>
<path d="M201.859 100.835H164.444V101.893H201.859V100.835Z" fill="#263238"/>
<path d="M201.859 105.262H164.444V106.32H201.859V105.262Z" fill="#263238"/>
<path d="M201.859 109.678H164.444V110.735H201.859V109.678Z" fill="#263238"/>
<path d="M201.859 114.093H164.444V115.15H201.859V114.093Z" fill="#263238"/>
<path d="M201.859 118.508H164.444V119.565H201.859V118.508Z" fill="#263238"/>
<path d="M136.487 28.7972H99.0728V29.8546H136.487V28.7972Z" fill="#263238"/>
<path d="M136.487 33.2125H99.0728V34.2698H136.487V33.2125Z" fill="#263238"/>
<path d="M136.487 37.6277H99.0728V38.685H136.487V37.6277Z" fill="#263238"/>
<path d="M136.487 42.0429H99.0728V43.1002H136.487V42.0429Z" fill="#263238"/>
<path d="M136.487 46.4583H99.0728V47.5156H136.487V46.4583Z" fill="#263238"/>
<path d="M194.469 64.4678L201.174 68.3486L200.404 47.504L184.412 58.6583L191.117 62.5274L186.067 73.1124C185.177 73.1112 184.312 73.4385 183.611 74.0419L174.702 69.4989V69.4408C174.741 68.2563 174.354 67.1028 173.627 66.23C172.899 65.3572 171.889 64.8353 170.815 64.7773C169.741 64.7192 168.689 65.1297 167.888 65.9199C167.086 66.71 166.599 67.8163 166.532 68.9993C166.522 69.1462 166.522 69.2938 166.532 69.4408C166.538 70.0856 166.663 70.7223 166.901 71.3114L155.305 85.2543C154.933 85.1256 154.545 85.059 154.156 85.0568C153.954 85.057 153.752 85.0804 153.555 85.1265L136.856 61.7606C137.237 60.6802 137.226 59.4791 136.823 58.4081C136.42 57.3371 135.658 56.4789 134.695 56.0126C133.732 55.5463 132.642 55.5081 131.654 55.9058C130.666 56.3035 129.856 57.1065 129.392 58.147C129.161 58.7092 129.042 59.3194 129.044 59.9364C129.057 60.3981 129.128 60.8556 129.255 61.2958L110.226 82.7911C109.469 82.4901 108.648 82.4426 107.867 82.6545C107.086 82.8663 106.378 83.3282 105.835 83.9818C105.291 84.6355 104.934 85.4518 104.81 86.3281C104.686 87.2045 104.8 88.1016 105.138 88.9067C105.475 89.7119 106.021 90.389 106.707 90.853C107.393 91.317 108.188 91.5471 108.992 91.5144C109.796 91.4817 110.574 91.1876 111.227 90.6691C111.879 90.1507 112.379 89.431 112.661 88.6006V88.6006C112.821 88.1044 112.903 87.5818 112.904 87.0553C112.905 86.6859 112.859 86.3183 112.767 85.9631L132.006 64.2006C132.384 64.3388 132.779 64.4094 133.177 64.4097C133.428 64.4114 133.679 64.3842 133.925 64.3284L150.529 87.5665C150.008 88.6266 149.89 89.8716 150.201 91.0275C150.512 92.1835 151.228 93.1557 152.189 93.7304C153.151 94.3052 154.281 94.4352 155.33 94.092C156.378 93.7488 157.261 92.9605 157.782 91.9004C158.077 91.3109 158.246 90.6554 158.278 89.9833C158.288 89.8325 158.288 89.681 158.278 89.5302C158.271 89.0602 158.2 88.594 158.067 88.1475L169.937 73.9025C170.163 73.9488 170.393 73.9721 170.623 73.9722C171.434 73.9718 172.227 73.7048 172.9 73.2054L181.966 77.853C181.983 78.4497 182.107 79.0369 182.331 79.5801C182.556 80.1234 182.877 80.6119 183.274 81.0172C183.672 81.4225 184.139 81.7364 184.648 81.9407C185.157 82.145 185.698 82.2354 186.239 82.2069C186.78 82.1784 187.311 82.0313 187.8 81.7744C188.289 81.5175 188.726 81.1559 189.087 80.7106C189.448 80.2653 189.725 79.7452 189.901 79.1808C190.078 78.6164 190.15 78.0189 190.115 77.4231C190.075 76.5886 189.823 75.7832 189.388 75.0993L194.469 64.4678Z" fill="#263238"/>
<path d="M203.45 147.01C201.8 147.013 200.218 147.738 199.052 149.025C197.885 150.313 197.23 152.057 197.23 153.877V213.378C197.23 215.196 197.886 216.94 199.052 218.225C200.219 219.511 201.801 220.233 203.45 220.233H268.812C270.463 220.233 272.046 219.511 273.214 218.226C274.382 216.941 275.04 215.197 275.043 213.378V153.842C275.04 152.023 274.382 150.279 273.214 148.994C272.046 147.708 270.463 146.987 268.812 146.987L203.45 147.01Z" stroke="#263238" stroke-linejoin="round"/>
<path d="M207.352 155.12H202.386V155.852H207.352V155.12Z" fill="#263238"/>
<path d="M207.352 161.092H202.386V161.824H207.352V161.092Z" fill="#263238"/>
<path d="M207.352 167.064H202.386V167.796H207.352V167.064Z" fill="#263238"/>
<path d="M207.352 173.048H202.386V173.78H207.352V173.048Z" fill="#263238"/>
<path d="M207.161 161.092H202.196V161.824H207.161V161.092Z" fill="#263238"/>
<path d="M207.352 179.02H202.386V179.752H207.352V179.02Z" fill="#263238"/>
<path d="M239.916 211.345C244.628 211.452 249.262 210.016 253.233 207.219C257.204 204.422 260.332 200.389 262.223 195.632C264.113 190.874 264.68 185.605 263.852 180.492C263.025 175.379 260.839 170.652 257.573 166.908C254.306 163.165 250.105 160.574 245.502 159.463C240.898 158.352 236.1 158.771 231.712 160.667C227.325 162.564 223.547 165.852 220.857 170.116C218.166 174.38 216.684 179.428 216.597 184.621C216.478 191.571 218.868 198.29 223.24 203.3C227.612 208.311 233.61 211.204 239.916 211.345V211.345ZM240.749 166.565C244.085 166.639 247.325 167.802 250.061 169.906C252.797 172.01 254.905 174.962 256.119 178.387C257.333 181.811 257.599 185.556 256.882 189.147C256.164 192.738 254.497 196.014 252.091 198.561C249.684 201.108 246.647 202.811 243.362 203.455C240.077 204.099 236.693 203.654 233.637 202.178C230.582 200.702 227.992 198.261 226.195 195.162C224.399 192.064 223.476 188.448 223.544 184.772C223.636 179.843 225.499 175.156 228.726 171.742C231.952 168.327 236.277 166.465 240.749 166.565Z" fill="#FF725E"/>
<path opacity="0.2" d="M239.916 211.345C244.628 211.452 249.262 210.016 253.233 207.219C257.204 204.422 260.332 200.389 262.223 195.632C264.113 190.874 264.68 185.605 263.852 180.492C263.025 175.379 260.839 170.652 257.573 166.908C254.306 163.165 250.105 160.574 245.502 159.463C240.898 158.352 236.1 158.771 231.712 160.667C227.325 162.564 223.547 165.852 220.857 170.116C218.166 174.38 216.684 179.428 216.597 184.621C216.478 191.571 218.868 198.29 223.24 203.3C227.612 208.311 233.61 211.204 239.916 211.345V211.345ZM240.749 166.565C244.085 166.639 247.325 167.802 250.061 169.906C252.797 172.01 254.905 174.962 256.119 178.387C257.333 181.811 257.599 185.556 256.882 189.147C256.164 192.738 254.497 196.014 252.091 198.561C249.684 201.108 246.647 202.811 243.362 203.455C240.077 204.099 236.693 203.654 233.637 202.178C230.582 200.702 227.992 198.261 226.195 195.162C224.399 192.064 223.476 188.448 223.544 184.772C223.636 179.843 225.499 175.156 228.726 171.742C231.952 168.327 236.277 166.465 240.749 166.565Z" fill="black"/>
<path d="M223.302 203.885C225.544 206.378 228.21 208.36 231.147 209.717C234.084 211.074 237.234 211.78 240.419 211.796C243.603 211.811 246.759 211.134 249.707 209.805C252.654 208.475 255.335 206.519 257.596 204.048C257.679 203.946 257.725 203.813 257.725 203.676C257.725 203.539 257.679 203.406 257.596 203.304L252.652 197.82C252.608 197.769 252.556 197.729 252.498 197.701C252.44 197.673 252.378 197.658 252.315 197.657C252.187 197.666 252.065 197.718 251.967 197.808C250.412 199.527 248.556 200.878 246.511 201.779C244.466 202.68 242.276 203.112 240.075 203.049H238.905C235.326 202.828 231.914 201.313 229.196 198.738C228.953 198.494 228.7 198.25 228.468 197.994C225.691 194.938 223.983 190.899 223.645 186.589C223.308 182.28 224.362 177.978 226.623 174.442C226.645 174.41 226.662 174.375 226.676 174.338C226.781 174.175 226.897 174.036 227.024 173.873C228.645 171.61 230.737 169.81 233.122 168.624C235.507 167.439 238.116 166.904 240.729 167.064C240.791 167.066 240.853 167.054 240.911 167.029C240.969 167.004 241.022 166.967 241.067 166.919C241.112 166.872 241.148 166.815 241.174 166.752C241.199 166.689 241.212 166.622 241.214 166.553L241.351 158.85C241.354 158.71 241.307 158.574 241.22 158.472C241.133 158.37 241.014 158.309 240.887 158.303V158.303C236.061 158.214 231.321 159.714 227.273 162.611C223.225 165.509 220.054 169.672 218.166 174.567C216.277 179.462 215.757 184.867 216.672 190.09C217.587 195.314 219.896 200.117 223.302 203.885V203.885Z" fill="#263238"/>
<path d="M240.897 158.315C247.468 158.323 253.767 161.206 258.41 166.331C263.053 171.456 265.659 178.404 265.655 185.646C265.652 192.888 263.039 199.833 258.392 204.952C253.744 210.072 247.442 212.948 240.871 212.948C234.3 212.948 227.998 210.072 223.35 204.952C218.702 199.833 216.089 192.888 216.086 185.646C216.082 178.404 218.689 171.456 223.331 166.331C227.974 161.206 234.273 158.323 240.844 158.315H240.897ZM239.927 210.798C244.543 210.903 249.083 209.497 252.974 206.757C256.864 204.018 259.93 200.068 261.784 195.408C263.638 190.747 264.196 185.586 263.387 180.576C262.579 175.566 260.441 170.933 257.244 167.263C254.046 163.592 249.933 161.049 245.424 159.956C240.915 158.862 236.213 159.267 231.913 161.119C227.613 162.971 223.907 166.186 221.266 170.359C218.624 174.532 217.164 179.475 217.072 184.563C216.947 191.383 219.285 197.978 223.57 202.9C227.856 207.822 233.739 210.667 239.927 210.81V210.798ZM240.76 166.019C244.183 166.095 247.509 167.289 250.316 169.449C253.124 171.609 255.287 174.637 256.533 178.152C257.778 181.667 258.05 185.51 257.314 189.196C256.578 192.881 254.866 196.243 252.396 198.856C249.927 201.469 246.809 203.217 243.438 203.877C240.067 204.538 236.594 204.081 233.458 202.566C230.323 201.051 227.665 198.545 225.822 195.366C223.978 192.186 223.032 188.475 223.102 184.702C223.196 179.644 225.109 174.834 228.421 171.33C231.732 167.826 236.171 165.916 240.76 166.019V166.019ZM240.075 203.095C243.308 203.168 246.489 202.182 249.214 200.263C251.939 198.343 254.086 195.576 255.385 192.312C256.683 189.047 257.073 185.431 256.507 181.922C255.941 178.413 254.443 175.167 252.203 172.596C249.963 170.025 247.082 168.244 243.923 167.478C240.765 166.711 237.471 166.995 234.459 168.292C231.446 169.589 228.851 171.841 227 174.765C225.149 177.688 224.126 181.15 224.061 184.714V184.714C223.976 189.489 225.615 194.107 228.618 197.551C231.621 200.996 235.742 202.986 240.075 203.083V203.095Z" fill="#263238"/>
<path d="M117.532 242.123V312.605" stroke="#263238" stroke-width="0.879169" stroke-linecap="round" stroke-linejoin="round"/>
<path d="M127.811 268.72H122.381V309.073H127.811V268.72Z" fill="#263238"/>
<path d="M135.569 285.184H130.14V309.061H135.569V285.184Z" fill="#FF725E"/>
<path d="M144.689 255.671H139.259V309.073H144.689V255.671Z" fill="white" stroke="#263238" stroke-width="0.879169" stroke-linejoin="round"/>
<path d="M159.827 247.968H154.398V309.061H159.827V247.968Z" fill="#263238"/>
<path d="M167.597 293.956H162.167V309.073H167.597V293.956Z" fill="#FF725E"/>
<path d="M176.716 272.995H171.287V309.073H176.716V272.995Z" fill="white" stroke="#263238" stroke-width="0.879169" stroke-linejoin="round"/>
<path d="M198.834 278.514H193.404V309.061H198.834V278.514Z" fill="#263238"/>
<path d="M206.603 254.812H201.174V309.061H206.603V254.812Z" fill="#FF725E"/>
<path d="M215.722 266.791H210.293V309.061H215.722V266.791Z" fill="white" stroke="#263238" stroke-width="0.879169" stroke-linejoin="round"/>
<path d="M111.702 299.731H114.738" stroke="#263238" stroke-width="0.879169" stroke-linecap="round" stroke-linejoin="round"/>
<path d="M111.702 291.028H114.738" stroke="#263238" stroke-width="0.879169" stroke-linecap="round" stroke-linejoin="round"/>
<path d="M111.702 282.337H114.738" stroke="#263238" stroke-width="0.879169" stroke-linecap="round" stroke-linejoin="round"/>
<path d="M111.702 273.634H114.738" stroke="#263238" stroke-width="0.879169" stroke-linecap="round" stroke-linejoin="round"/>
<path d="M111.702 264.932H114.738" stroke="#263238" stroke-width="0.879169" stroke-linecap="round" stroke-linejoin="round"/>
<path d="M111.702 256.229H114.738" stroke="#263238" stroke-width="0.879169" stroke-linecap="round" stroke-linejoin="round"/>
<path d="M111.702 247.526H114.738" stroke="#263238" stroke-width="0.879169" stroke-linecap="round" stroke-linejoin="round"/>
<path d="M113.937 309.073H219.528" stroke="#263238" stroke-width="0.879169" stroke-linecap="round" stroke-linejoin="round"/>
<path opacity="0.3" d="M135.569 285.184H130.14V309.061H135.569V285.184Z" fill="black"/>
<path opacity="0.3" d="M167.597 293.956H162.167V309.073H167.597V293.956Z" fill="black"/>
<path opacity="0.3" d="M206.603 254.812H201.174V309.061H206.603V254.812Z" fill="black"/>
<path d="M107.39 232.34C105.571 232.343 103.827 233.141 102.54 234.559C101.254 235.977 100.53 237.899 100.527 239.904V309.049C100.53 311.056 101.253 312.979 102.539 314.399C103.826 315.818 105.57 316.619 107.39 316.625H223.829C225.65 316.619 227.395 315.819 228.683 314.399C229.971 312.98 230.697 311.057 230.702 309.049V239.881C230.7 237.873 229.975 235.948 228.686 234.528C227.398 233.108 225.651 232.308 223.829 232.305L107.39 232.34Z" stroke="#263238" stroke-linejoin="round"/>
<path d="M15.2508 386.909C15.2508 386.909 17.6861 404.825 11.793 406.661C5.89984 408.497 1.80945 406.08 1.07149 403.396C0.333533 400.712 5.55195 381.541 5.55195 381.541L15.2508 386.909Z" fill="white"/>
<path d="M117.753 390.871L143.37 397.563C143.37 397.563 145.31 398.725 145.099 400.643C144.889 402.56 133.197 407.475 129.919 408.09C126.64 408.706 107.717 411.425 105.028 408.88C102.34 406.336 108.022 386.049 108.022 386.049L117.753 390.871Z" fill="white"/>
<path d="M71.3671 64.1075C71.3671 64.1075 74.9726 70.103 75.0253 73.1355C75.078 76.1681 74.7406 79.6306 76.4274 81.4199C78.1141 83.2093 79.4109 85.1613 78.7151 86.0676C78.0193 86.9738 76.6804 88.7399 76.6804 88.7399C76.6804 88.7399 78.4199 98.9531 76.1638 100.801C73.9078 102.648 67.1291 100.801 67.1291 100.801V107.4C67.1291 107.4 57.4935 103.914 50.8414 104.565L49.6606 90.4247C49.6606 90.4247 64.1141 59.7968 71.3671 64.1075Z" fill="white"/>
<path d="M130.636 105.89C130.636 105.89 129.771 98.6395 132.976 94.2707C132.976 94.2707 129.139 93.5503 129.603 92.0166C130.067 90.4829 135.928 92.493 135.928 92.493L134.347 89.0073C134.347 89.0073 128.812 86.9855 129.497 85.0916C130.182 83.1977 138.3 87.857 138.3 87.857C138.3 87.857 133.482 83.4185 134.157 81.5711C134.832 79.7236 139.734 79.7585 142.348 89.3326L143.677 87.5084C143.677 87.5084 144.151 76.6097 145.511 76.0172C145.511 76.0172 147.619 77.2953 147.619 83.5579C147.619 83.5579 149.728 86.3581 148.389 88.7284C147.05 91.0987 143.898 96.4319 141.22 98.4303C138.542 100.429 138.553 108.225 138.553 108.225L130.636 105.89Z" fill="white"/>
<path d="M45.792 46.2955L47.0044 44.5062C47.0044 44.5062 60.5722 37.8368 60.2349 35.757C59.8975 33.6772 52.2122 36.5471 50.7469 35.4433C50.7469 35.4433 52.149 15.7606 50.7469 15.1216C49.3448 14.4825 47.7845 24.3587 47.7845 24.3587C47.7845 24.3587 45.8131 14.2269 44.295 14.5174C42.7769 14.8078 43.4095 24.9745 43.4095 24.9745C43.4095 24.9745 40.5104 18.4562 39.3823 19.0604C38.2543 19.6646 39.9411 27.6121 39.9411 27.6121C39.9411 27.6121 37.8326 24.8816 36.9893 25.7065C37.2671 29.8118 38.2887 33.814 39.9938 37.4767L37.0631 42.9376L45.792 46.2955Z" fill="white"/>
<path d="M129.171 105.936L138.522 107.377C138.522 107.377 131.68 171.282 129.666 179.171C127.652 187.061 125.839 192.731 118.966 193.114C112.092 193.498 87.6026 170.806 87.6026 170.806L86.464 202.177L88.0559 215.19C88.0559 215.19 58.1054 232.538 27.6489 217.445L28.3341 202.177L17.3597 132.346L8.72559 99.1856L36.5887 40.9624L46.6882 46.7719L28.8718 99.7666L33.8583 117.462L39.4351 114.999L45.6023 106.331C45.6023 106.331 56.0602 100.348 69.2907 108.655L71.3992 115.929C71.3992 115.929 86.9173 117.218 113.115 157.246L129.171 105.936Z" fill="#FF725E"/>
<path opacity="0.2" d="M62.3218 105.936L63.5025 114.883C63.5025 114.883 72.2104 121.25 75.7104 123.458C75.7104 123.458 84.2707 183.04 77.9348 194.764L71.2616 206.279C71.2616 206.279 78.0824 206.279 81.224 201.015C81.224 201.015 77.3128 215.4 67.1712 219.269C67.1712 219.269 82.7421 217.479 88.0976 215.202L86.5057 202.189L89.0674 129.628C89.0674 129.628 91.4816 124.771 71.4092 116.068L68.4468 108.225L62.3218 105.936Z" fill="black"/>
<path d="M71.3669 64.921C71.3669 64.921 74.635 70.196 75.0251 73.1356C75.4151 76.0753 74.2555 79.317 76.4272 81.42C78.5989 83.5231 79.5898 84.9058 78.7148 86.0677C77.8398 87.2296 76.6802 88.7401 76.6802 88.7401C76.6802 88.7401 77.5657 98.6976 76.1636 100.801C74.7615 102.904 67.1289 100.801 67.1289 100.801V107.4" stroke="#263238" stroke-linecap="round" stroke-linejoin="round"/>
<path d="M67.1289 88.2985C67.1289 88.2985 64.0717 79.5958 61.784 81.6989C59.4963 83.8019 61.531 95.3048 67.1289 92.7835" stroke="#263238" stroke-linecap="round" stroke-linejoin="round"/>
<path d="M66.2961 86.2768C66.2961 86.2768 69.9332 85.9515 67.635 76.5516C65.3368 67.1518 70.3127 68.4183 75.6576 65.7459C81.0025 63.0735 82.2781 58.1702 81.129 55.2306C79.9799 52.291 78.0718 50.734 71.3247 52.1399C71.3247 52.1399 63.9452 42.7401 56.8186 53.1276C56.8186 53.1276 40.7734 52.8487 36.451 61.2609C32.1287 69.6731 37.8531 91.1452 46.2553 98.3025C54.6575 105.46 62.8699 99.7317 64.5777 93.0042C64.5777 93.0042 58.8533 89.5998 61.784 81.7453C61.784 81.6989 64.4512 80.6531 66.2961 86.2768Z" fill="#263238"/>
<path d="M16.5264 127.048C16.5264 127.048 55.3534 96.0136 89.1939 127.048L86.4635 202.131L88.0554 215.144C88.0554 215.144 59.4438 229.912 27.6484 217.398L28.3337 202.131L16.5264 127.048Z" stroke="#263238" stroke-linecap="round" stroke-linejoin="round"/>
<path d="M38.918 115.766L45.6017 106.378C45.6017 106.378 58.7057 101.382 69.2901 108.702L71.3986 115.975" stroke="#263238" stroke-linecap="round" stroke-linejoin="round"/>
<path d="M89.1943 127.048L123.003 169.899" stroke="#263238" stroke-linecap="round" stroke-linejoin="round"/>
<path d="M87.6333 169.934C87.6333 169.934 110.036 192.905 118.965 193.172C127.894 193.44 129.381 181.553 129.381 181.553L138.521 107.424L129.17 105.983L113.082 157.374" stroke="#263238" stroke-linecap="round" stroke-linejoin="round"/>
<path d="M138.363 107.191C138.363 107.191 139.533 98.8137 142.58 96.9082C145.627 95.0027 149.243 87.6129 148.083 85.4866C146.923 83.3603 143.381 90.2737 140.187 91.5983C136.993 92.9228 134.399 99.4295 133.957 102.253" stroke="#263238" stroke-linecap="round" stroke-linejoin="round"/>
<path d="M147.103 85.1847C147.103 85.1847 147.103 75.506 145.49 75.9592C143.877 76.4123 143.655 88.6704 143.655 88.6704" stroke="#263238" stroke-linecap="round" stroke-linejoin="round"/>
<path d="M142.474 89.9136C142.474 89.9136 141.42 84.4875 138.521 81.8383C135.622 79.1892 133.809 80.6183 134.136 81.513C134.462 82.4077 139.407 89.6464 139.291 92.1096" stroke="#263238" stroke-linecap="round" stroke-linejoin="round"/>
<path d="M137.457 87.2295C137.457 87.2295 129.497 83.2093 129.476 85.6145C129.455 88.0196 134.326 88.9492 134.326 88.9492L135.907 92.4349C135.907 92.4349 129.202 90.1111 129.582 91.9585C129.961 93.8059 132.955 94.2126 132.955 94.2126C132.955 94.2126 129.698 97.768 130.615 105.832" stroke="#263238" stroke-linecap="round" stroke-linejoin="round"/>
<path d="M83.4483 216.015L85.483 231.724C85.483 231.724 104.217 293.666 107.063 305.773C109.909 317.88 111.543 345.278 112.334 357.838C113.125 370.398 119.714 391.533 119.714 391.533C119.714 391.533 118.902 400.062 105.06 398.714C105.06 398.714 99.3566 373.582 93.2526 358.767C87.1487 343.953 86.2526 321.482 86.2526 321.482L56.5235 261.341C56.5235 261.341 50.4406 296.361 46.3502 309.363C42.1333 322.772 13.3847 397.168 15.3982 391.951C15.3982 391.951 11.3289 394.647 2.74756 387.908C2.74756 387.908 8.85151 365.472 10.475 353.353C12.0985 341.234 20.6588 313.407 20.6588 313.407C20.6588 313.407 22.6935 260.9 25.9299 244.738C25.9299 244.738 23.8215 226.937 28.323 214.366C46.1654 220.788 65.316 221.361 83.4483 216.015V216.015Z" fill="#263238"/>
<path d="M40.2363 250.791L53.5828 255.067L55.5226 260.284" stroke="white" stroke-linecap="round" stroke-linejoin="round"/>
<path d="M105.355 396.878C105.355 396.878 103.553 406.836 105.029 408.881C105.809 409.949 108.128 409.752 109.245 409.775C111.818 409.833 114.401 409.647 116.973 409.461C122.118 409.09 127.389 409.148 132.354 407.393C136.537 406.008 140.533 404.011 144.235 401.456C146.259 399.969 144.235 397.564 144.235 397.564L119.724 391.498" stroke="#263238" stroke-linecap="round" stroke-linejoin="round"/>
<path d="M105.229 405.372C105.229 405.372 132.776 410.356 144.235 397.564" stroke="#263238" stroke-linecap="round" stroke-linejoin="round"/>
<path d="M3.81265 386.909C3.81265 386.909 0.64998 398.865 1.11384 402.629C1.5777 406.394 5.00392 407.277 9.00997 407.172C13.016 407.068 14.6606 405.093 15.251 402.106C15.8413 399.12 15.251 389.465 15.251 389.465" stroke="#263238" stroke-linecap="round" stroke-linejoin="round"/>
<path d="M1.07227 400.805L15.2516 402.107" stroke="#263238" stroke-linecap="round" stroke-linejoin="round"/>
<path d="M38.0851 41.3342C39.2869 38.9175 39.9932 37.4418 39.9932 37.4418C39.9932 37.4418 36.0821 27.0195 37.0625 25.7414C38.0429 24.4633 40.3095 28.0652 40.3095 28.0652C40.3095 28.0652 37.9902 19.7808 39.4556 19.0721C40.921 18.3633 43.5354 26.0435 43.5354 26.0435C43.5354 26.0435 42.8502 14.9473 44.3683 14.4244C45.8864 13.9016 47.7102 24.9746 47.7102 24.9746C47.7102 24.9746 49.671 15.1216 50.8728 15.0286C52.0747 14.9357 50.8728 35.3504 50.8728 35.3504C53.2976 36.6634 60.4241 33.4565 60.3609 36.0475C60.2976 38.6386 46.6559 44.5992 46.6559 44.5992C46.4173 44.9404 46.209 45.3062 46.0339 45.6914" stroke="#263238" stroke-linecap="round" stroke-linejoin="round"/>
<path d="M16.5268 127.048L8.72559 99.1856L36.5887 40.9973L46.6882 46.8184L28.8718 99.813L33.8583 117.509" stroke="#263238" stroke-linecap="round" stroke-linejoin="round"/>
<path d="M17.433 94.782C17.433 94.782 27.427 94.689 28.8713 99.813C24.4934 99.5449 20.1566 100.867 16.5264 103.578" stroke="#263238" stroke-linecap="round" stroke-linejoin="round"/>
<path d="M50.4512 105.169V97.0941" stroke="#263238" stroke-linecap="round" stroke-linejoin="round"/>
<path opacity="0.2" d="M89.0255 149.52L91.524 167.843C91.524 167.843 93.5692 155.887 94.8449 155.887C96.1205 155.887 94.8449 169.899 94.8449 169.899C94.8449 169.899 115.803 190.814 124.869 190.93C124.869 190.93 119.83 194.834 114.78 191.929C109.731 189.024 87.5918 169.853 87.5918 169.853L89.0255 149.52Z" fill="black"/>
<path opacity="0.2" d="M44.8955 45.7843L25.7297 97.0941C25.7297 97.0941 19.0565 96.9779 16.5264 103.578L26.7734 101.556L30.2207 118.984L33.8578 117.462L28.8713 99.7665L46.6877 46.7719L44.8955 45.7843Z" fill="black"/>
<path d="M309.021 136.018L301.472 118.253L271.807 139.852L296.286 187.653L315.378 175.709L309.021 136.018Z" fill="white"/>
<path d="M333.469 289.68C333.469 289.68 338.265 304.355 338.972 311.501C339.678 318.647 337.517 348.74 337.981 357.036C338.445 365.332 342.514 390.093 342.514 390.093C342.514 390.093 322.558 406.08 316.222 400.933C316.222 400.933 330.285 388.384 331.708 383.388L327.154 349.472L322.631 309.363C322.631 309.363 321.482 300.986 319.88 296.675C318.277 292.364 318.52 283.22 318.52 283.22L333.469 289.68Z" fill="white"/>
<path d="M333.047 288.379C333.047 288.379 338.234 303.832 339.446 314.929C340.658 326.025 337.011 351.192 338.212 363.31C339.414 375.429 340.648 382.133 342.777 388.512L341.723 407.231H338.993L337.938 396.611C337.938 396.611 333.658 394.647 331.065 401.444C328.471 408.241 318.888 409.136 314.345 405.197C314.345 405.197 314.345 402.153 317.76 399.469C321.176 396.785 330.095 388.396 331.718 383.388C331.718 383.388 326.848 348.531 325.709 337.237C324.571 325.943 322.789 305.413 320.512 298.79C318.235 292.167 318.245 282.697 318.245 282.697" stroke="#263238" stroke-linecap="round" stroke-linejoin="round"/>
<path d="M341.734 385.003C341.734 385.003 328.355 401.038 317.128 400.933" stroke="#263238" stroke-linecap="round" stroke-linejoin="round"/>
<path d="M316.221 400.933C318.077 401.16 319.955 400.901 321.703 400.178C324.729 399.016 335.619 393.206 340.975 385.875L342.619 387.931L341.755 406.801L339.003 407.231L337.949 396.611C337.949 396.611 334.428 394.833 332.161 399.202C329.895 403.57 328.261 406.568 324.297 407.533C320.333 408.497 314.355 405.209 314.355 405.209C314.355 405.209 313.312 403.478 316.221 400.933Z" fill="#263238"/>
<path d="M342.798 290.18C344.055 295.275 345.583 300.283 347.374 305.18C349.767 311.234 370.44 372.455 370.44 372.455C370.44 372.455 372.011 405.592 380.814 405.488C389.616 405.383 380.466 382.331 380.466 382.331L375.11 369.701C375.11 369.701 373.065 332.601 370.535 318.96L359.761 286.973L342.798 290.18Z" fill="white"/>
<path d="M359.877 288.042C359.877 288.042 368.722 310.223 370.545 318.96C372.369 327.698 374.204 367.005 375.121 369.701C376.038 372.397 390.671 400.945 381.826 406.661C372.981 412.378 370.893 373.733 370.893 373.733C370.893 373.733 350.473 311.222 347.416 305.18C344.359 299.138 341.017 281.652 341.017 281.652L359.877 288.042Z" stroke="#263238" stroke-linecap="round" stroke-linejoin="round"/>
<path d="M383.544 392.01C383.544 392.01 382.933 399.748 380.613 400.84C378.294 401.932 373.17 393.206 373.17 393.206" stroke="#263238" stroke-linecap="round" stroke-linejoin="round"/>
<path d="M373.192 394.543C373.192 394.543 376.355 407.742 380.571 407.184C384.788 406.626 385.547 399.295 383.555 393.636C383.555 393.636 382.849 399.446 380.624 400.84C378.379 400.875 373.192 394.543 373.192 394.543Z" fill="#263238"/>
<path d="M335.862 172.665C335.862 172.665 346.52 188.699 353.91 214.493C361.3 240.288 360.541 289.692 360.541 289.692C360.541 289.692 333.036 299.44 306.375 287.054L311.256 175.744C311.256 175.744 328.408 176.092 335.862 172.665Z" fill="#263238"/>
<path d="M322.093 56.3809C322.093 56.3809 313.807 64.9326 312.837 70.533C312.037 74.4529 310.753 78.2333 309.021 81.7686C309.912 83.2551 311.219 84.381 312.742 84.9755C312.742 84.9755 313.28 96.4435 316.306 97.3265L323.538 95.2351L324.307 100.15L334.681 95.8044V89.1816L342.588 83.4882L339.773 68.6042L326.911 61.9813L322.093 56.3809Z" fill="white"/>
<path d="M311.204 174.849L310.287 158.768C310.287 158.768 303.54 144.825 305.68 139.759C308.041 134.194 322.231 113.582 322.231 113.582L320.839 102.334L340.722 92.9462L341.671 102.334L339.267 104.298L341.934 110.596C341.934 110.596 342.103 108.725 346.721 118.218C351.338 127.71 368.733 161.487 370.103 167.971C371.474 174.454 343.052 197.297 333.458 202.688C333.458 202.688 332.351 200.074 320.955 209.66C318.056 209.102 314.05 206.232 313.196 204.454C312.342 202.677 316.475 198.447 316.475 198.447C316.475 198.447 318.963 193.265 323.359 197.413H328.04L354.828 169.934L341.249 148.032L335.862 172.63C335.862 172.63 318.436 178.463 311.204 174.849Z" fill="white"/>
<path d="M320.839 102.334L322.262 113.826L341.67 102.334L340.722 92.9462L320.839 102.334Z" stroke="#263238" stroke-linecap="round" stroke-linejoin="round"/>
<path d="M322.262 113.826C322.262 113.826 304.603 137.633 305.078 142.327C305.552 147.021 310.286 158.768 310.286 158.768L311.255 175.732C311.255 175.732 325.54 176.162 335.861 172.665L341.248 148.067" stroke="#263238" stroke-linecap="round" stroke-linejoin="round"/>
<path d="M354.827 169.934L327.47 124.48C327.47 124.48 324.782 114.023 331.255 110.293C337.728 106.564 343.357 111.293 345.371 113.779C347.384 116.266 369.101 162.382 370.113 167.924C371.125 173.466 348.185 195.636 334.913 201.619C334.913 201.619 328.872 205.616 328.872 197.413L354.827 169.934Z" stroke="#263238" stroke-linecap="round" stroke-linejoin="round"/>
<path d="M341.671 110.595L339.109 103.856" stroke="#263238" stroke-linecap="round" stroke-linejoin="round"/>
<path d="M328.872 197.46H323.369C323.369 197.46 319.078 193.23 317.044 197.46C315.009 201.689 312.437 202.526 313.206 204.501C313.976 206.476 318.383 210.415 320.966 209.706C323.548 208.998 330.833 202.468 330.833 202.468" stroke="#263238" stroke-linecap="round" stroke-linejoin="round"/>
<path d="M320.111 59.3903C320.111 59.3903 313.649 65.6181 312.932 69.069C312.215 72.5198 312.521 78.3642 309.021 81.7686C309.021 81.7686 309.2 84.5572 312.742 84.9755C312.742 84.9755 314.556 95.9787 316.306 97.3265C318.056 98.6744 328.767 92.586 332.962 90.0762C334.033 89.2674 334.812 88.0712 335.166 86.6951" stroke="#263238" stroke-linecap="round" stroke-linejoin="round"/>
<path d="M315.093 88.3334C317.074 87.965 318.862 86.802 320.111 85.0684" stroke="#263238" stroke-linecap="round" stroke-linejoin="round"/>
<path d="M315.093 72.4152C315.093 72.4152 317.644 70.7769 319.047 73.4958" stroke="#263238" stroke-linecap="round" stroke-linejoin="round"/>
<path d="M316.843 78.2596C316.843 79.2008 316.601 79.9676 316.211 79.9909C315.821 80.0141 315.462 79.2705 315.42 78.341C315.378 77.4115 315.663 76.6214 316.053 76.5981C316.443 76.5749 316.801 77.3185 316.843 78.2596Z" fill="#263238"/>
<path d="M323.538 95.2351L324.392 100.661" stroke="#263238" stroke-linecap="round" stroke-linejoin="round"/>
<path d="M331.824 77.5393C331.824 77.5393 333.405 74.1582 335.166 76.1334C336.927 78.1086 340.268 87.2412 331.255 85.0685C331.255 85.0685 330.654 90.6456 335.166 92.0399C339.678 93.4342 348.249 85.7424 348.534 72.6244C348.818 59.5065 337.327 50.6527 331.255 53.1857C331.255 53.1857 322.452 37.9763 313.723 44.4598C304.994 50.9432 310.877 60.924 309.021 63.1781C307.166 65.4322 303.202 63.3175 303.076 69.3711C302.949 75.4246 312.131 74.8088 312.131 74.8088L313.238 68.1395L320.839 59.3903C320.839 59.3903 319.047 65.7111 322.094 71.2069C324.845 76.1566 331.824 77.5393 331.824 77.5393Z" fill="#263238"/>
<path d="M348.533 72.6243C348.533 72.6243 352.75 73.67 352.286 79.956C351.822 86.2419 342.303 101.695 343.019 110.595L367.593 161.069C367.593 161.069 378.652 158.745 378.136 146.196C377.619 133.648 364.125 123.074 366.729 113.826C369.333 104.577 379.559 81.0249 365.074 67.5235C350.589 54.0222 328.007 74.7158 328.007 74.7158L339.066 70.7885L348.533 72.6243Z" fill="#263238"/>
<path d="M308.072 134.984L301.472 118.253L271.807 139.852L296.286 187.653L311.129 178.649" stroke="#263238" stroke-linecap="round" stroke-linejoin="round"/>
<path d="M281.041 163.497C281.041 163.497 279.439 159.849 281.579 157.839C283.719 155.829 291.067 149.868 291.067 151.332C291.116 151.687 291.096 152.05 291.009 152.397C290.921 152.743 290.769 153.065 290.561 153.342C288.453 156.456 283.403 161.475 283.73 161.882C283.73 161.882 292.944 155.143 293.829 155.782C294.051 155.945 293.924 156.816 293.154 157.664C290.629 160.141 287.964 162.439 285.174 164.543C285.174 164.543 294.894 160.395 296.148 161.057C296.507 161.243 296.433 161.847 295.305 162.603C292.483 164.293 289.58 165.814 286.608 167.157L289.043 171.642C289.043 171.642 284.447 172.525 281.041 163.497Z" fill="white" stroke="#263238" stroke-linecap="round" stroke-linejoin="round"/>
<path d="M334.006 88.3333L334.681 95.8044" stroke="#263238" stroke-linejoin="round"/>
</svg>
