<svg width="200" height="160" viewBox="0 0 200 160" fill="none" xmlns="http://www.w3.org/2000/svg">
<path d="M29.2891 147.869C68.3412 164.044 131.657 164.044 170.709 147.869C209.761 131.695 209.766 105.477 170.709 89.3028C131.652 73.1285 68.3412 73.1323 29.2891 89.3028C-9.76303 105.473 -9.76303 131.699 29.2891 147.869Z" fill="#F5F5F5"/>
<path d="M165.958 139.674C177.828 139.674 187.451 136.038 187.451 131.553C187.451 127.068 177.828 123.432 165.958 123.432C154.087 123.432 144.464 127.068 144.464 131.553C144.464 136.038 154.087 139.674 165.958 139.674Z" fill="#E0E0E0"/>
<path d="M12.5946 126.114C12.529 125.776 12.3677 125.453 12.1228 125.171C11.6695 124.786 11.0565 124.543 10.3957 124.487C9.74009 124.437 9.08807 124.361 8.44216 124.259C7.46422 124.048 6.63199 123.538 6.12849 122.84C5.62498 122.143 5.49144 121.316 5.75721 120.541V120.518C5.93181 120.024 6.26212 119.568 6.43671 119.074C6.90858 117.769 5.62037 117.226 4.45485 116.598C3.63851 116.16 2.30783 115.517 2.4777 114.597C2.79857 112.869 6.0073 112.431 9.08391 113.123C12.1605 113.815 13.8026 114.357 16.0865 113.871C18.3703 113.385 20.4891 113.273 21.6876 114.896C22.8862 116.519 21.6876 118.034 23.2306 119.168C24.7737 120.301 27.4775 119.523 28.5392 121.977V136.599C28.5392 136.513 28.0107 136.225 27.9352 136.176L26.2412 134.99C25.7221 134.616 24.9718 134.287 24.6179 133.823C24.1178 133.18 23.8724 132.417 23.3628 131.766C22.7888 130.984 21.9611 130.338 20.9656 129.896C19.0074 129.095 16.6291 129.234 14.6426 128.459C13.9136 128.2 13.3225 127.746 12.9721 127.176C12.8022 126.833 12.6757 126.477 12.5946 126.114Z" fill="#FF725E"/>
<path opacity="0.2" d="M12.5946 126.114C12.529 125.776 12.3677 125.453 12.1228 125.171C11.6695 124.786 11.0565 124.543 10.3957 124.487C9.74009 124.437 9.08807 124.361 8.44216 124.259C7.46422 124.048 6.63199 123.538 6.12849 122.84C5.62498 122.143 5.49144 121.316 5.75721 120.541V120.518C5.93181 120.024 6.26212 119.568 6.43671 119.074C6.90858 117.769 5.62037 117.226 4.45485 116.598C3.63851 116.16 2.30783 115.517 2.4777 114.597C2.79857 112.869 6.0073 112.431 9.08391 113.123C12.1605 113.815 13.8026 114.357 16.0865 113.871C18.3703 113.385 20.4891 113.273 21.6876 114.896C22.8862 116.519 21.6876 118.034 23.2306 119.168C24.7737 120.301 27.4775 119.523 28.5392 121.977V136.599C28.5392 136.513 28.0107 136.225 27.9352 136.176L26.2412 134.99C25.7221 134.616 24.9718 134.287 24.6179 133.823C24.1178 133.18 23.8724 132.417 23.3628 131.766C22.7888 130.984 21.9611 130.338 20.9656 129.896C19.0074 129.095 16.6291 129.234 14.6426 128.459C13.9136 128.2 13.3225 127.746 12.9721 127.176C12.8022 126.833 12.6757 126.477 12.5946 126.114Z" fill="black"/>
<path d="M28.6053 133.378C28.5497 133.378 28.4958 133.363 28.4528 133.335C28.4097 133.307 28.3803 133.268 28.3694 133.225C26.4205 124.42 13.4157 116.288 5.67232 114.769C5.61296 114.757 5.56177 114.728 5.52994 114.686C5.4981 114.645 5.48822 114.595 5.50245 114.548C5.51701 114.5 5.55496 114.459 5.60801 114.433C5.66105 114.407 5.72489 114.399 5.78557 114.41C13.6517 115.951 26.8547 124.218 28.8365 133.161C28.8419 133.186 28.8412 133.211 28.8344 133.235C28.8276 133.259 28.8148 133.282 28.7968 133.302C28.7788 133.322 28.756 133.339 28.7296 133.352C28.7032 133.365 28.6738 133.374 28.643 133.378H28.6053Z" fill="white"/>
<path d="M10.2113 121.147C10.1752 121.146 10.1397 121.14 10.1071 121.127C10.0745 121.115 10.0457 121.097 10.0226 121.075C9.9845 121.036 9.9676 120.987 9.97556 120.938C9.98352 120.889 10.0157 120.844 10.065 120.814C11.91 119.654 15.6756 119.317 17.1808 119.388C17.2434 119.391 17.3019 119.414 17.3435 119.451C17.3851 119.488 17.4064 119.537 17.4026 119.587C17.3989 119.636 17.3704 119.683 17.3235 119.716C17.2766 119.749 17.2151 119.765 17.1525 119.763C15.6095 119.68 12.0233 120.062 10.3576 121.105C10.3159 121.132 10.2645 121.146 10.2113 121.147Z" fill="white"/>
<path d="M18.7852 120.877H18.6956C18.6669 120.869 18.6407 120.855 18.6185 120.839C18.5963 120.822 18.5786 120.802 18.5663 120.779C18.554 120.757 18.5474 120.733 18.5469 120.709C18.5464 120.685 18.5521 120.66 18.5635 120.638C19.5497 118.738 19.0353 115.539 19.007 115.506C18.9989 115.457 19.0151 115.408 19.0522 115.369C19.0892 115.33 19.1442 115.304 19.2052 115.296C19.2677 115.29 19.3308 115.303 19.3811 115.333C19.4314 115.363 19.4648 115.408 19.4742 115.457C19.4742 115.592 20.031 118.79 19.0023 120.78C18.9812 120.811 18.9497 120.836 18.9113 120.853C18.8729 120.87 18.8293 120.879 18.7852 120.877Z" fill="white"/>
<path d="M27.5811 139.165C27.0149 137.848 24.278 135.076 19.3894 132.907C15.1143 131.018 8.53639 129.619 9.10263 127.131C9.66888 124.644 15.7513 124.588 19.9557 126.589C25.2265 129.099 28.1851 134.235 28.5296 136.259L27.5811 139.165Z" fill="#FF725E"/>
<path d="M28.0908 137.777C28.0355 137.778 27.9817 137.763 27.9393 137.734C27.8969 137.706 27.8686 137.667 27.8596 137.624C26.7648 133.027 18.5448 126.776 11.9858 126.915C11.9548 126.916 11.9239 126.912 11.8948 126.903C11.8657 126.895 11.8389 126.882 11.8161 126.865C11.7934 126.848 11.7749 126.828 11.7619 126.806C11.749 126.784 11.7416 126.76 11.7404 126.735C11.7392 126.71 11.7442 126.685 11.7552 126.662C11.7662 126.639 11.7829 126.617 11.8045 126.599C11.826 126.581 11.8519 126.567 11.8806 126.556C11.9093 126.546 11.9402 126.541 11.9716 126.54C18.7524 126.406 27.199 132.825 28.322 137.553C28.3333 137.601 28.3204 137.651 28.2861 137.692C28.2518 137.734 28.1987 137.763 28.138 137.773H28.0908V137.777Z" fill="white"/>
<path d="M173.05 118.532C173.994 116.048 177.066 113.77 179.694 112.401C182.322 111.032 184.328 110.359 185.489 109.584C186.904 108.649 185.069 106.431 180.737 107.733C176.405 109.034 173.772 112.854 172.191 116.71L173.05 118.532Z" fill="#FF725E"/>
<path opacity="0.2" d="M173.05 118.532C173.994 116.048 177.066 113.77 179.694 112.401C182.322 111.032 184.328 110.359 185.489 109.584C186.904 108.649 185.069 106.431 180.737 107.733C176.405 109.034 173.772 112.854 172.191 116.71L173.05 118.532Z" fill="black"/>
<path d="M172.904 116.912H172.809C172.745 116.893 172.692 116.854 172.663 116.805C172.634 116.755 172.631 116.698 172.654 116.647C174.291 113.258 178.58 109.165 183.299 108.294C183.368 108.285 183.439 108.298 183.497 108.33C183.554 108.363 183.593 108.411 183.606 108.466C183.616 108.517 183.603 108.569 183.568 108.612C183.533 108.656 183.48 108.688 183.417 108.702C179.43 109.45 175.013 112.928 173.144 116.796C173.123 116.832 173.088 116.862 173.046 116.882C173.003 116.903 172.954 116.913 172.904 116.912Z" fill="white"/>
<path d="M172.069 128.347C173.22 127.341 175.702 127.722 177.094 126.391C178.194 125.343 177.354 123.806 178.458 122.807C178.777 122.551 179.162 122.35 179.586 122.22C180.516 121.954 181.415 121.626 182.276 121.24C183.101 120.802 183.781 120.088 183.691 119.306C183.601 118.524 182.875 117.87 182.903 117.099C182.982 116.543 183.308 116.027 183.823 115.644C184.338 115.268 184.798 114.847 185.196 114.391C185.409 114.135 185.498 113.827 185.446 113.523C185.372 113.311 185.219 113.12 185.009 112.976C184.798 112.831 184.538 112.739 184.262 112.712C182.813 112.491 181.554 113.142 180.298 113.613C179.227 114.017 178.222 113.946 177.047 113.95C176.578 113.931 176.108 113.972 175.655 114.073C174.74 114.316 174.131 115.004 173.716 115.7C173.3 116.396 173.013 117.148 172.418 117.754C171.977 118.122 171.564 118.51 171.182 118.917C170.866 119.432 170.663 119.986 170.583 120.556C170.208 121.926 170.079 123.331 170.2 124.73C170.265 125.41 170.447 126.08 170.743 126.72C170.837 126.866 171.951 128.448 172.069 128.347Z" fill="#FF725E"/>
<path d="M181.355 119.852H181.289C181.251 119.852 177.58 119.123 174.933 119.605C174.865 119.617 174.794 119.607 174.735 119.577C174.676 119.548 174.634 119.502 174.617 119.448C174.601 119.394 174.614 119.337 174.651 119.291C174.688 119.244 174.747 119.21 174.815 119.198C177.58 118.696 181.261 119.418 181.421 119.448C181.455 119.456 181.486 119.468 181.514 119.485C181.541 119.502 181.564 119.523 181.581 119.547C181.598 119.571 181.609 119.597 181.613 119.625C181.617 119.652 181.615 119.68 181.605 119.706C181.591 119.75 181.559 119.788 181.515 119.816C181.471 119.843 181.416 119.859 181.36 119.86L181.355 119.852Z" fill="white"/>
<path d="M176.999 117.769C176.933 117.768 176.87 117.748 176.822 117.712C176.774 117.676 176.745 117.627 176.74 117.574C176.595 116.772 176.314 115.99 175.905 115.248C175.892 115.201 175.899 115.151 175.926 115.108C175.954 115.065 175.999 115.031 176.054 115.011C176.11 114.992 176.172 114.987 176.231 115C176.289 115.012 176.341 115.04 176.377 115.079C176.812 115.865 177.107 116.694 177.254 117.544C177.258 117.6 177.235 117.654 177.189 117.696C177.143 117.738 177.079 117.764 177.009 117.769H176.999Z" fill="white"/>
<path d="M170.959 127.098H170.931C170.863 127.092 170.8 127.065 170.757 127.023C170.713 126.981 170.693 126.927 170.699 126.873C171.492 121.472 175.602 117.148 182.916 113.983C182.977 113.958 183.048 113.952 183.114 113.967C183.18 113.983 183.236 114.018 183.27 114.066C183.287 114.089 183.297 114.116 183.301 114.143C183.305 114.17 183.302 114.197 183.292 114.223C183.282 114.249 183.266 114.273 183.245 114.295C183.223 114.316 183.196 114.333 183.166 114.346C176.013 117.432 171.992 121.659 171.223 126.918C171.214 126.968 171.182 127.014 171.134 127.047C171.085 127.08 171.023 127.098 170.959 127.098Z" fill="white"/>
<path d="M62.9381 25.8512L59.8851 27.2465C59.904 27.1412 59.9134 27.0349 59.9134 26.9285V26.2253C59.9134 24.9797 58.8093 24.4747 57.4456 25.1031C56.8602 25.3891 56.3596 25.7719 55.978 26.2253C55.7515 24.658 54.2038 24.0745 52.3163 24.9385C51.2423 25.4934 50.3484 26.2411 49.7073 27.1211C49.0662 28.0011 48.6958 28.9886 48.6263 30.0033V31.0507C48.6124 31.4698 48.7205 31.8858 48.9424 32.2664L46.4085 33.4259C46.0108 33.6303 45.6795 33.9062 45.4417 34.2312C45.2039 34.5562 45.0663 34.9211 45.04 35.2962C45.04 35.9882 45.6488 36.2688 46.4085 35.9209L62.924 28.3574C63.3204 28.152 63.6506 27.8758 63.8883 27.5511C64.1259 27.2263 64.2643 26.8619 64.2924 26.4871C64.3066 25.7877 63.6931 25.5071 62.9381 25.8512Z" fill="#EBEBEB"/>
<path d="M42.7699 19.4286L41.09 19.9411V17.001C41.09 14.6743 38.7307 14.1133 36.2014 15.2803C33.6533 16.4436 31.5913 19.2753 31.5913 21.6057V22.0321C31.2334 21.9436 30.8547 21.9213 30.4842 21.9666C30.1137 22.012 29.7612 22.124 29.4537 22.2939C28.4905 22.7936 27.6895 23.4661 27.1156 24.2571C26.5417 25.048 26.2111 25.935 26.1506 26.8462V27.0407L23.7912 28.1143C23.1563 28.4422 22.6277 28.8839 22.2482 29.4038C21.8686 29.9236 21.6488 30.507 21.6064 31.1068C21.6064 32.2289 22.5832 32.6591 23.7912 32.1055L42.7699 23.4273C43.4048 23.0995 43.9334 22.6577 44.3129 22.1378C44.6925 21.618 44.9123 21.0346 44.9547 20.4349C44.9547 19.3127 43.9779 18.875 42.7699 19.4286Z" fill="#EBEBEB"/>
<path d="M86.4377 139.012L86.3764 139.06C86.3303 139.099 86.276 139.13 86.2159 139.154C86.098 139.214 86.0366 139.154 85.9281 139.098L85.0457 138.686C84.6776 138.518 84.253 138.312 83.8 138.099C83.347 137.886 82.8562 137.654 82.3844 137.411C81.4406 136.936 80.4733 136.449 79.7749 136.068L78.6094 135.428C78.6094 135.428 79.1284 135.608 79.8882 135.907C80.6479 136.206 81.6671 136.606 82.6628 137.029C83.1677 137.239 83.6584 137.455 84.1256 137.657C84.5927 137.859 85.0221 138.05 85.3902 138.219L86.2631 138.637C86.367 138.694 86.4755 138.697 86.4708 138.81C86.4746 138.863 86.4666 138.916 86.4472 138.967L86.4377 139.012Z" fill="#E0E0E0"/>
<path d="M87.3482 139.52C86.664 140.459 85.5504 140.968 84.3754 140.463L84.3094 140.437H84.2811C84.1081 140.333 83.9717 140.195 83.8849 140.037C83.7982 139.879 83.764 139.707 83.7856 139.535C83.8187 139.045 83.9975 138.568 84.3075 138.143C84.6175 137.717 85.0498 137.356 85.5693 137.089C85.7405 136.993 85.9385 136.931 86.1464 136.909C86.3544 136.887 86.566 136.905 86.7631 136.962L86.8244 136.992L86.933 137.044C88.0324 137.59 88.023 138.596 87.3482 139.52Z" fill="#263238"/>
<path d="M86.3434 138.02C86.9852 137.729 87.5042 137.964 87.5042 138.551C87.483 138.871 87.3668 139.182 87.165 139.459C86.9633 139.736 86.6817 139.971 86.3434 140.145C85.7017 140.437 85.1826 140.201 85.1826 139.614C85.2046 139.295 85.3211 138.984 85.5228 138.707C85.7245 138.43 86.0056 138.195 86.3434 138.02Z" fill="#455A64"/>
<path d="M90.1043 139.591C89.0542 139.168 88.0851 138.629 87.2259 137.99L85.5225 140.209C86.6772 140.467 87.7764 140.862 88.7831 141.379L90.1043 139.591Z" fill="#455A64"/>
<path d="M91.2418 139.932C91.2356 139.637 91.0838 139.357 90.8189 139.15C90.5541 138.944 90.1976 138.828 89.8262 138.828C89.6648 138.833 89.5054 138.858 89.3543 138.903H89.2741C89.1972 138.925 89.123 138.953 89.0523 138.985C88.6411 139.197 88.2985 139.482 88.0525 139.818C87.8065 140.154 87.6641 140.531 87.6367 140.919C87.6376 141.014 87.6502 141.108 87.6745 141.2C87.7686 141.446 87.9668 141.66 88.2359 141.804C88.505 141.949 88.8286 142.015 89.1524 141.993C89.4761 141.97 89.7803 141.86 90.0139 141.681C90.2474 141.502 90.3961 141.265 90.4349 141.009C90.4396 140.974 90.4396 140.939 90.4349 140.904C90.6687 140.816 90.8676 140.679 91.0099 140.507C91.1522 140.336 91.2324 140.137 91.2418 139.932Z" fill="#263238"/>
<path d="M89.8492 139.386C90.6278 139.03 91.2648 139.318 91.2648 140.033C91.2375 140.421 91.095 140.798 90.849 141.134C90.603 141.47 90.2605 141.755 89.8492 141.967C89.0706 142.341 88.4336 142.034 88.4336 141.323C88.4606 140.935 88.6029 140.557 88.8489 140.22C89.0948 139.883 89.4376 139.598 89.8492 139.386Z" fill="#455A64"/>
<path d="M97.2532 136.475L97.1918 136.524C97.1437 136.562 97.0898 136.594 97.0314 136.621C96.9134 136.681 96.8521 136.621 96.7435 136.565L95.8611 136.154L94.6154 135.566C94.1435 135.353 93.6717 135.118 93.1998 134.878C92.256 134.403 91.3123 133.913 90.5903 133.532C89.8684 133.15 89.4248 132.892 89.4248 132.892C89.4248 132.892 89.9439 133.075 90.7036 133.374C91.4633 133.674 92.4825 134.07 93.4782 134.497C93.9831 134.702 94.4738 134.923 94.941 135.125C95.4081 135.327 95.8376 135.499 96.2056 135.682C96.5737 135.866 96.8804 135.989 97.0974 136.083C97.1965 136.139 97.3051 136.143 97.3003 136.255C97.3098 136.307 97.3098 136.36 97.3003 136.412L97.2532 136.475Z" fill="#E0E0E0"/>
<path d="M98.1451 136.984C97.4609 137.923 96.3473 138.432 95.1723 137.927L95.1062 137.897H95.0779C94.905 137.793 94.7686 137.655 94.6818 137.497C94.5951 137.34 94.5609 137.167 94.5825 136.995C94.6171 136.505 94.7965 136.028 95.1063 135.602C95.4161 135.176 95.8476 134.815 96.3661 134.545C96.5378 134.45 96.736 134.389 96.9439 134.367C97.1518 134.346 97.3632 134.364 97.56 134.422L97.626 134.448C97.6635 134.463 97.6983 134.482 97.7299 134.504C98.834 135.054 98.8246 136.057 98.1451 136.984Z" fill="#263238"/>
<path d="M97.1395 135.484C97.7812 135.189 98.3003 135.428 98.3003 136.015C98.2787 136.334 98.1623 136.644 97.9605 136.921C97.7588 137.197 97.4774 137.431 97.1395 137.605C96.5025 137.901 95.9834 137.661 95.9834 137.078C96.0045 136.759 96.1202 136.448 96.321 136.171C96.5219 135.894 96.8023 135.659 97.1395 135.484Z" fill="#455A64"/>
<path d="M100.891 137.052C99.8405 136.628 98.8714 136.089 98.0122 135.451L96.3135 137.672C97.468 137.926 98.5662 138.32 99.5694 138.84L100.891 137.052Z" fill="#455A64"/>
<path d="M102.038 137.396C102.032 137.101 101.88 136.821 101.615 136.614C101.35 136.408 100.993 136.292 100.622 136.292C100.46 136.295 100.301 136.32 100.15 136.367H100.122L100.07 136.386C99.994 136.408 99.92 136.434 99.8482 136.464C99.4366 136.676 99.0939 136.962 98.8479 137.299C98.6019 137.635 98.4596 138.013 98.4326 138.402C98.4325 138.495 98.4468 138.588 98.4751 138.679C98.5324 138.952 98.7176 139.198 98.9937 139.367C99.2697 139.537 99.6163 139.618 99.9643 139.594C100.312 139.57 100.636 139.442 100.871 139.237C101.105 139.032 101.234 138.765 101.231 138.488V138.387C101.468 138.297 101.669 138.157 101.812 137.982C101.954 137.807 102.033 137.604 102.038 137.396Z" fill="#263238"/>
<path d="M100.646 136.835C101.425 136.479 102.062 136.767 102.062 137.478C102.035 137.867 101.893 138.245 101.647 138.582C101.401 138.918 101.058 139.204 100.646 139.416C99.8675 139.771 99.2305 139.483 99.2305 138.768C99.2582 138.381 99.4008 138.003 99.6468 137.667C99.8927 137.331 100.235 137.046 100.646 136.835Z" fill="#455A64"/>
<path d="M67.0908 136.707V136.64C67.0722 136.589 67.0626 136.536 67.0625 136.483C67.0625 136.371 67.1663 136.367 67.2701 136.311L68.162 135.911C68.53 135.742 68.9594 135.537 69.4266 135.35C69.8937 135.163 70.3703 134.931 70.8847 134.721C71.885 134.302 72.8901 133.894 73.6593 133.599C74.4284 133.303 74.9428 133.12 74.9428 133.12C74.9428 133.12 74.4709 133.386 73.7772 133.76C73.0836 134.134 72.1257 134.628 71.1678 135.103C70.6959 135.346 70.224 135.574 69.7522 135.791C69.2803 136.008 68.8698 136.21 68.5064 136.378L67.624 136.79C67.5108 136.835 67.4542 136.906 67.3315 136.846C67.2729 136.822 67.2201 136.791 67.1758 136.752L67.0908 136.707Z" fill="#E0E0E0"/>
<path d="M66.1804 137.212C66.8693 138.151 67.9829 138.66 69.1579 138.155L69.2239 138.129H69.2475C69.4214 138.025 69.5587 137.888 69.6463 137.73C69.7339 137.572 69.7688 137.399 69.7477 137.227C69.7135 136.737 69.5342 136.26 69.2243 135.835C68.9144 135.41 68.4827 135.049 67.9641 134.781C67.7928 134.685 67.5948 134.623 67.3869 134.601C67.179 134.579 66.9674 134.597 66.7702 134.654L66.7042 134.684C66.6679 134.699 66.6331 134.716 66.6003 134.736C65.5009 135.271 65.5009 136.288 66.1804 137.212Z" fill="#263238"/>
<path d="M67.1854 135.712C66.5484 135.421 66.0293 135.656 66.0293 136.244C66.0504 136.562 66.166 136.873 66.3669 137.15C66.5678 137.427 66.8482 137.662 67.1854 137.837C67.8271 138.129 68.3462 137.893 68.3462 137.306C68.3242 136.987 68.2077 136.676 68.006 136.399C67.8043 136.122 67.5232 135.887 67.1854 135.712Z" fill="#455A64"/>
<path d="M63.4297 137.283C64.4798 136.86 65.449 136.321 66.3081 135.682L68.0068 137.901C66.8521 138.159 65.7529 138.554 64.7462 139.071L63.4297 137.283Z" fill="#455A64"/>
<path d="M62.2924 137.624C62.288 137.478 62.3202 137.334 62.3871 137.198C62.4541 137.063 62.5543 136.939 62.6822 136.834C62.81 136.73 62.9628 136.647 63.1316 136.59C63.3004 136.532 63.482 136.503 63.6655 136.502C63.8416 136.499 64.0166 136.524 64.1799 136.576H64.2129H64.2648C64.3394 136.6 64.4119 136.628 64.4819 136.659C64.8929 136.87 65.2352 137.156 65.4812 137.492C65.7271 137.828 65.8698 138.205 65.8975 138.593C65.8974 138.687 65.8831 138.781 65.855 138.873C65.7977 139.146 65.6125 139.392 65.3365 139.562C65.0604 139.731 64.7138 139.812 64.3658 139.788C64.0179 139.764 63.6942 139.637 63.4594 139.432C63.2246 139.227 63.096 138.959 63.0993 138.682C63.0946 138.648 63.0946 138.612 63.0993 138.578C62.867 138.493 62.6687 138.359 62.5263 138.191C62.3839 138.023 62.303 137.826 62.2924 137.624Z" fill="#263238"/>
<path d="M63.6842 137.066C62.9056 136.692 62.2686 136.995 62.2686 137.71C62.2963 138.098 62.4389 138.475 62.6849 138.811C62.9308 139.147 63.2732 139.432 63.6842 139.644C64.4628 140.018 65.0998 139.711 65.0998 139C65.0736 138.612 64.9316 138.235 64.6855 137.898C64.4394 137.562 64.0962 137.277 63.6842 137.066Z" fill="#455A64"/>
<path d="M35.8242 133.797L151.697 80.7668V8.97368L35.8242 62.004V133.797Z" fill="#FF725E"/>
<path opacity="0.6" d="M35.8242 133.797L151.697 80.7668V8.97368L35.8242 62.004V133.797Z" fill="white"/>
<path d="M30.4775 59.5577L35.8238 62.004L151.697 8.97367L157.043 1.63089L30.4775 59.5577Z" fill="#37474F"/>
<path d="M157.044 83.2169V1.63089L151.697 8.97367V80.7668L157.044 83.2169Z" fill="#455A64"/>
<path d="M30.4775 59.5577L35.8238 62.004V133.797L30.4775 141.14V59.5577Z" fill="#455A64"/>
<path d="M35.8238 133.797L151.697 80.7668L157.043 83.2169L30.4775 141.14L35.8238 133.797Z" fill="#37474F"/>
<path d="M157.043 1.6309L153.476 0L26.9102 57.9268L30.4775 59.5577L157.043 1.6309Z" fill="#455A64"/>
<path d="M26.9102 57.9268L30.4775 59.5577V141.14L26.9102 139.509V57.9268Z" fill="#263238"/>
<path d="M151.697 8.97368L149.913 9.78913L149.909 79.9551L35.8242 132.166V133.797L151.697 80.7668V8.97368Z" fill="#263238"/>
<path d="M70.9456 73.6597L46.9367 84.6458C46.7994 84.7175 46.6851 84.8137 46.6032 84.9268C46.5212 85.0398 46.4739 85.1665 46.4648 85.2967V116.235C46.4648 116.478 46.6772 116.575 46.9367 116.452L70.9456 105.466C71.0829 105.394 71.1971 105.298 71.2791 105.185C71.361 105.072 71.4084 104.945 71.4174 104.815V73.8766C71.4174 73.6372 71.2051 73.5512 70.9456 73.6597Z" fill="#455A64"/>
<path d="M73.4608 73.0537L72.6304 72.6796C72.4835 72.6225 72.3221 72.5928 72.1585 72.5928C71.9949 72.5928 71.8335 72.6225 71.6866 72.6796L47.673 83.6508C47.5348 83.7227 47.42 83.8194 47.338 83.9332C47.256 84.047 47.2091 84.1745 47.2012 84.3054V115.24C47.2091 115.371 47.256 115.499 47.338 115.612C47.42 115.726 47.5348 115.823 47.673 115.895L48.5035 116.269C48.6504 116.326 48.8118 116.356 48.9754 116.356C49.139 116.356 49.3004 116.326 49.4473 116.269L73.4514 105.279C73.5888 105.207 73.703 105.111 73.7849 104.998C73.8669 104.885 73.9143 104.758 73.9233 104.628V73.7046C73.9164 73.5749 73.871 73.4483 73.7906 73.3351C73.7102 73.222 73.5972 73.1256 73.4608 73.0537Z" fill="#FAFAFA"/>
<path d="M59.9699 89.7218L47.3378 83.9388C47.2497 84.0514 47.2009 84.1805 47.1963 84.3129V115.248C47.2042 115.378 47.2511 115.506 47.3331 115.62C47.4151 115.734 47.5299 115.83 47.6682 115.902L48.4987 116.276C48.6455 116.333 48.8069 116.363 48.9705 116.363C49.1341 116.363 49.2955 116.333 49.4424 116.276L59.9935 109.008C60.0595 101.748 60.1209 89.7891 59.9699 89.7218Z" fill="#E0E0E0"/>
<path d="M73.4613 73.4876L49.4572 84.4737C49.319 84.5456 49.2042 84.6424 49.1222 84.7561C49.0402 84.8699 48.9933 84.9975 48.9854 85.1283V116.067C48.9854 116.306 49.1977 116.403 49.4572 116.284L73.4613 105.294C73.5987 105.222 73.7129 105.126 73.7949 105.013C73.8768 104.9 73.9242 104.773 73.9332 104.643V73.7046C73.9379 73.4652 73.7256 73.3679 73.4613 73.4876Z" fill="#F0F0F0"/>
<path d="M50.349 84.8815L72.5789 74.7108C72.8431 74.5911 73.0508 74.6883 73.0508 74.9277V103.85C73.0417 103.981 72.9944 104.108 72.9125 104.222C72.8305 104.335 72.7163 104.432 72.5789 104.505L50.3537 114.675C50.0942 114.795 49.8818 114.698 49.8818 114.455V85.5211C49.8925 85.3932 49.9401 85.2689 50.0212 85.158C50.1022 85.0471 50.2144 84.9525 50.349 84.8815Z" fill="#FAFAFA"/>
<path d="M49.8721 85.5211V90.6644C50.5988 90.8739 51.5331 90.7766 52.5429 90.3128C54.9022 89.243 56.7897 86.6395 56.7897 84.4999C56.7897 83.5087 56.3839 82.7942 55.7186 82.4127L50.3581 84.8665C50.2178 84.9376 50.1006 85.0339 50.0161 85.1476C49.9317 85.2614 49.8823 85.3894 49.8721 85.5211Z" fill="#FF725E"/>
<path d="M69.0159 84.3465L63.2402 95.299L59.4652 92.8676C59.3979 92.8222 59.3198 92.7879 59.2355 92.7668C59.1512 92.7458 59.0624 92.7383 58.9744 92.7449C58.8864 92.7516 58.801 92.7721 58.7232 92.8054C58.6454 92.8387 58.5768 92.884 58.5215 92.9387C58.4862 92.9745 58.4561 93.0134 58.4318 93.0546L49.8721 107.942V114.443C49.8721 114.686 50.0844 114.784 50.3439 114.664L53.7037 113.127L72.5785 104.493C72.716 104.421 72.8302 104.324 72.9121 104.21C72.994 104.097 73.0414 103.969 73.0504 103.839V87.5485L70.1673 84.253C70.1193 84.1962 70.0577 84.1475 69.9859 84.1097C69.9142 84.0718 69.8337 84.0455 69.7491 84.0323C69.6645 84.0191 69.5775 84.0192 69.493 84.0327C69.4085 84.0462 69.3281 84.0728 69.2566 84.1109C69.1482 84.1684 69.0643 84.2505 69.0159 84.3465Z" fill="#FF725E"/>
<path d="M62.8575 82.6708C62.1733 83.6096 61.055 84.1184 59.88 83.6134L59.814 83.5872C59.6453 83.481 59.5135 83.3426 59.4309 83.1849C59.3484 83.0271 59.3178 82.8554 59.3421 82.6857C59.3743 82.1956 59.5523 81.7186 59.8614 81.2934C60.1706 80.8683 60.6022 80.5071 61.121 80.2394C61.2922 80.1433 61.4903 80.0815 61.6982 80.0593C61.9061 80.0372 62.1177 80.0553 62.3149 80.1122L62.3809 80.1421C62.4172 80.1574 62.452 80.1749 62.4848 80.1945C63.5417 80.7406 63.5323 81.7468 62.8575 82.6708Z" fill="#263238"/>
<path d="M61.8532 81.1708C62.4949 80.879 63.014 81.1147 63.014 81.7019C62.9928 82.0213 62.8765 82.3322 62.6748 82.6091C62.473 82.886 62.1915 83.1212 61.8532 83.2954C61.2114 83.5872 60.6924 83.3515 60.6924 82.7643C60.7144 82.4451 60.8309 82.1344 61.0326 81.8576C61.2343 81.5807 61.5154 81.3454 61.8532 81.1708Z" fill="#455A64"/>
<path d="M65.6094 82.7418C64.5607 82.3187 63.5932 81.7796 62.7357 81.1409L61.0322 83.359C62.187 83.6175 63.2862 84.0122 64.2929 84.5298L65.6094 82.7418Z" fill="#455A64"/>
<path d="M66.7467 83.0822C66.7479 82.9383 66.7134 82.7956 66.6451 82.6622C66.5767 82.5289 66.4759 82.4075 66.3484 82.305C66.2209 82.2026 66.0692 82.121 65.9019 82.065C65.7347 82.009 65.5551 81.9797 65.3736 81.9788C65.1975 81.9757 65.0224 82.0011 64.8592 82.0536H64.8309L64.7743 82.0723C64.6997 82.0959 64.6272 82.1234 64.5572 82.1546C64.1462 82.3661 63.8038 82.6514 63.5579 82.9874C63.3119 83.3234 63.1693 83.7006 63.1416 84.0885C63.1417 84.183 63.156 84.2771 63.1841 84.369C63.2782 84.6156 63.4764 84.829 63.7455 84.9734C64.0147 85.1178 64.3383 85.1844 64.662 85.162C64.9858 85.1396 65.2899 85.0297 65.5235 84.8505C65.757 84.6714 65.9057 84.434 65.9445 84.1782C65.9492 84.1434 65.9492 84.1083 65.9445 84.0735C66.181 83.9834 66.3812 83.843 66.5228 83.668C66.6645 83.4929 66.742 83.2901 66.7467 83.0822Z" fill="#263238"/>
<path d="M66.3482 84.2639C66.8979 83.5088 66.8971 82.6924 66.3463 82.4405C65.7956 82.1885 64.9035 82.5964 64.3537 83.3514C63.804 84.1065 63.8049 84.9229 64.3556 85.1748C64.9064 85.4268 65.7985 85.0189 66.3482 84.2639Z" fill="#455A64"/>
<path d="M103.977 41.1166L79.968 52.1027C79.8301 52.1739 79.7155 52.2701 79.6335 52.3832C79.5514 52.4963 79.5044 52.6232 79.4961 52.7535V83.692C79.4961 83.9351 79.7084 84.0324 79.968 83.9089L103.977 72.9228C104.114 72.8509 104.228 72.7546 104.31 72.6416C104.392 72.5286 104.439 72.402 104.449 72.2719V41.3335C104.449 41.0941 104.236 41.0081 103.977 41.1166Z" fill="#455A64"/>
<path d="M106.492 40.5106L105.662 40.1365C105.515 40.0774 105.354 40.0466 105.19 40.0466C105.026 40.0466 104.864 40.0774 104.718 40.1365L80.7043 51.1077C80.5668 51.1802 80.4526 51.2771 80.3707 51.3908C80.2888 51.5044 80.2415 51.6316 80.2324 51.7623V82.697C80.2415 82.8277 80.2888 82.9549 80.3707 83.0685C80.4526 83.1821 80.5668 83.2791 80.7043 83.3516L81.5348 83.7256C81.6816 83.7828 81.8431 83.8125 82.0067 83.8125C82.1702 83.8125 82.3317 83.7828 82.4785 83.7256L106.483 72.7358C106.621 72.665 106.736 72.5689 106.818 72.4557C106.9 72.3425 106.947 72.2154 106.955 72.0849V41.1615C106.948 41.0316 106.903 40.9048 106.823 40.7916C106.742 40.6784 106.629 40.582 106.492 40.5106Z" fill="#FAFAFA"/>
<path d="M93.0011 57.1787L80.3691 51.3957C80.282 51.5086 80.2332 51.6375 80.2275 51.7698V82.7044C80.2366 82.8351 80.2839 82.9623 80.3658 83.076C80.4477 83.1896 80.562 83.2865 80.6994 83.359L81.5299 83.7331C81.6768 83.7902 81.8382 83.8199 82.0018 83.8199C82.1654 83.8199 82.3268 83.7902 82.4736 83.7331L93.0247 76.4651C93.0908 69.2047 93.1521 57.246 93.0011 57.1787Z" fill="#E0E0E0"/>
<path d="M106.492 40.9445L82.4875 51.9306C82.3501 52.0031 82.2358 52.1 82.1539 52.2137C82.072 52.3273 82.0247 52.4545 82.0156 52.5852V83.5236C82.0156 83.763 82.228 83.8603 82.4875 83.7406L106.492 72.7507C106.63 72.6799 106.745 72.5839 106.827 72.4706C106.909 72.3574 106.956 72.2303 106.963 72.0998V41.1614C106.968 40.922 106.756 40.8248 106.492 40.9445Z" fill="#F0F0F0"/>
<path d="M83.3802 52.3383L105.61 42.1677C105.874 42.048 106.082 42.1452 106.082 42.3846V71.3069C106.074 71.4377 106.027 71.5653 105.945 71.6791C105.863 71.7928 105.748 71.8896 105.61 71.9615L83.385 82.1321C83.1254 82.2518 82.9131 82.1546 82.9131 81.9114V52.978C82.9244 52.8502 82.9724 52.7262 83.0534 52.6153C83.1343 52.5045 83.2461 52.4097 83.3802 52.3383Z" fill="#FAFAFA"/>
<path d="M82.9033 52.978V58.1213C83.63 58.3308 84.5643 58.2335 85.5741 57.7697C87.9335 56.6999 89.821 54.0964 89.821 51.9568C89.821 50.9655 89.4152 50.2511 88.7498 49.8696L83.3893 52.3234C83.2493 52.3947 83.1323 52.491 83.0479 52.6047C82.9635 52.7185 82.9139 52.8463 82.9033 52.978Z" fill="#FF725E"/>
<path d="M102.047 51.8034L96.2711 62.7559L92.4962 60.3245C92.4177 60.2752 92.3262 60.2405 92.2286 60.2231C92.1309 60.2057 92.0295 60.206 91.932 60.224C91.8345 60.242 91.7433 60.2772 91.6653 60.3269C91.5874 60.3767 91.5246 60.4398 91.4816 60.5115L82.9219 75.3991V81.9002C82.9219 82.1433 83.1342 82.2406 83.3937 82.1209L86.7346 80.5835L105.609 71.9502C105.748 71.8784 105.863 71.7816 105.945 71.6678C106.027 71.5541 106.073 71.4265 106.081 71.2956V55.0054L103.198 51.7099C103.151 51.6533 103.089 51.6046 103.018 51.5668C102.947 51.529 102.867 51.5027 102.783 51.4895C102.698 51.4763 102.612 51.4764 102.528 51.4898C102.443 51.5033 102.363 51.5297 102.292 51.5678C102.183 51.6252 102.097 51.7073 102.047 51.8034Z" fill="#FF725E"/>
<path d="M95.889 50.1276C95.2048 51.0665 94.0864 51.5752 92.9115 51.0703L92.8454 51.0441C92.6778 50.9372 92.5467 50.7986 92.4642 50.6411C92.3818 50.4836 92.3506 50.3122 92.3735 50.1426C92.4076 49.6529 92.5864 49.1763 92.8954 48.7514C93.2044 48.3265 93.635 47.9651 94.1525 47.6963C94.3239 47.6004 94.5219 47.5388 94.7298 47.5167C94.9376 47.4945 95.1491 47.5125 95.3463 47.5691L95.4124 47.599C95.4512 47.6106 95.4865 47.6284 95.5162 47.6514C96.5732 48.1975 96.5638 49.2037 95.889 50.1276Z" fill="#263238"/>
<path d="M94.8844 48.6277C95.5262 48.3359 96.0452 48.5715 96.0452 49.1588C96.0244 49.4782 95.9083 49.7892 95.7065 50.0662C95.5048 50.3432 95.223 50.5783 94.8844 50.7523C94.2427 51.0441 93.7236 50.8084 93.7236 50.2211C93.7452 49.9019 93.8616 49.5911 94.0633 49.3142C94.2651 49.0373 94.5464 48.8021 94.8844 48.6277Z" fill="#455A64"/>
<path d="M98.6406 50.1987C97.593 49.7742 96.6256 49.2353 95.7669 48.5977L94.0635 50.8159C95.219 51.0728 96.3184 51.4676 97.3241 51.9867L98.6406 50.1987Z" fill="#455A64"/>
<path d="M99.777 50.5391C99.781 50.3593 99.7288 50.1814 99.625 50.0215C99.5211 49.8616 99.3689 49.7246 99.182 49.6227C98.995 49.5208 98.7791 49.4572 98.5535 49.4376C98.328 49.418 98.0999 49.443 97.8895 49.5104H97.8612L97.8046 49.5291C97.7296 49.552 97.657 49.5795 97.5875 49.6114C97.1765 49.823 96.8341 50.1083 96.5882 50.4443C96.3422 50.7803 96.1996 51.1575 96.1719 51.5453C96.1767 51.6396 96.1909 51.7334 96.2143 51.8259C96.2776 52.0954 96.4652 52.3365 96.7406 52.5024C97.0159 52.6683 97.3592 52.747 97.7037 52.7232C98.0482 52.6994 98.3692 52.5748 98.6042 52.3736C98.8392 52.1725 98.9713 51.9092 98.9748 51.6351C98.9795 51.6003 98.9795 51.5652 98.9748 51.5304C99.214 51.4432 99.4167 51.3034 99.5589 51.1278C99.701 50.9521 99.7767 50.7478 99.777 50.5391Z" fill="#263238"/>
<path d="M99.3853 51.7195C99.935 50.9644 99.9342 50.148 99.3834 49.8961C98.8327 49.6441 97.9406 50.052 97.3909 50.807C96.8411 51.5621 96.842 52.3785 97.3927 52.6304C97.9435 52.8824 98.8356 52.4745 99.3853 51.7195Z" fill="#455A64"/>
<path d="M139.113 44.5691L115.104 55.5552C114.967 55.6272 114.853 55.7234 114.771 55.8364C114.689 55.9494 114.641 56.076 114.632 56.2061V87.1445C114.632 87.3877 114.844 87.4849 115.104 87.3615L139.113 76.3754C139.25 76.3036 139.364 76.2074 139.446 76.0944C139.528 75.9813 139.575 75.8547 139.584 75.7245V44.7861C139.584 44.5467 139.391 44.4606 139.113 44.5691Z" fill="#455A64"/>
<path d="M141.646 43.9631L140.816 43.5891C140.669 43.532 140.508 43.5023 140.344 43.5023C140.18 43.5023 140.019 43.532 139.872 43.5891L115.859 54.5602C115.72 54.6321 115.606 54.7289 115.524 54.8426C115.442 54.9564 115.395 55.084 115.387 55.2148V86.1495C115.395 86.2804 115.442 86.408 115.524 86.5217C115.606 86.6355 115.72 86.7323 115.859 86.8041L116.689 87.1782C116.835 87.2373 116.997 87.2681 117.161 87.2681C117.325 87.2681 117.487 87.2373 117.633 87.1782L141.637 76.1883C141.775 76.1171 141.889 76.0209 141.971 75.9078C142.053 75.7947 142.101 75.6678 142.109 75.5375V44.614C142.102 44.4844 142.056 44.3579 141.976 44.2448C141.895 44.1317 141.783 44.0352 141.646 43.9631Z" fill="#FAFAFA"/>
<path d="M128.155 60.6312L115.519 54.8483C115.43 54.9608 115.382 55.0899 115.377 55.2223V86.157C115.385 86.2879 115.432 86.4154 115.514 86.5292C115.596 86.643 115.711 86.7397 115.849 86.8116L116.679 87.1857C116.825 87.2448 116.987 87.2756 117.151 87.2756C117.315 87.2756 117.477 87.2448 117.623 87.1857L128.179 79.9102C128.259 72.6572 128.306 60.6985 128.155 60.6312Z" fill="#E0E0E0"/>
<path d="M141.647 44.3971L117.643 55.3832C117.505 55.455 117.39 55.5518 117.308 55.6656C117.226 55.7793 117.179 55.9069 117.171 56.0378V86.9762C117.171 87.2156 117.383 87.3128 117.643 87.1931L141.647 76.2033C141.785 76.132 141.899 76.0359 141.981 75.9228C142.063 75.8096 142.11 75.6827 142.119 75.5524V44.614C142.123 44.3746 141.911 44.2774 141.647 44.3971Z" fill="#F0F0F0"/>
<path d="M118.535 55.7909L140.764 45.6202C141.029 45.5005 141.236 45.5978 141.236 45.8372V74.7594C141.227 74.8901 141.18 75.0173 141.098 75.1309C141.016 75.2446 140.902 75.3415 140.764 75.414L118.539 85.5847C118.28 85.7044 118.067 85.6071 118.067 85.364V56.4305C118.079 56.3028 118.127 56.1787 118.208 56.0679C118.289 55.957 118.4 55.8623 118.535 55.7909Z" fill="#FAFAFA"/>
<path d="M118.058 56.4305V61.5813C118.784 61.7908 119.719 61.6935 120.728 61.2297C123.088 60.1599 124.975 57.5565 124.975 55.4168C124.975 54.4256 124.569 53.7111 123.904 53.3296L118.544 55.7834C118.405 55.8539 118.289 55.9492 118.204 56.0615C118.12 56.1738 118.07 56.3002 118.058 56.4305Z" fill="#FF725E"/>
<path d="M137.225 55.256L131.449 66.2084L127.674 63.777C127.607 63.7316 127.529 63.6973 127.444 63.6763C127.36 63.6552 127.271 63.6478 127.183 63.6544C127.095 63.661 127.01 63.6816 126.932 63.7148C126.854 63.7481 126.786 63.7934 126.73 63.8481C126.696 63.8845 126.666 63.9233 126.641 63.9641L118.081 78.8516V85.3528C118.081 85.5959 118.293 85.6932 118.553 85.5735L121.889 84.0249L140.764 75.3916C140.901 75.3191 141.016 75.2221 141.098 75.1085C141.179 74.9949 141.227 74.8677 141.236 74.737V58.4579L138.353 55.1625C138.255 55.0484 138.104 54.9698 137.933 54.9438C137.763 54.9179 137.586 54.9467 137.442 55.0241C137.342 55.0828 137.267 55.1635 137.225 55.256Z" fill="#FF725E"/>
<path d="M178.934 73.3231C178.368 71.3854 177.231 67.4728 176.032 63.2235C175.423 61.0577 174.73 58.9068 172.691 58.5702C172.691 58.5702 167.321 60.2534 167.321 63.3918C167.321 66.5302 171.724 67.7122 171.724 67.7122C171.724 67.7122 174.555 73.9477 174.494 74.8193" fill="#FFA8A7"/>
<path d="M131.175 53.6513C130.491 54.5902 129.378 55.0989 128.203 54.5939L128.137 54.5677H128.108C127.935 54.4636 127.799 54.3261 127.712 54.1682C127.625 54.0104 127.591 53.8376 127.613 53.6663C127.646 53.1755 127.825 52.6979 128.135 52.2722C128.445 51.8465 128.877 51.4847 129.396 51.2162C129.569 51.1215 129.767 51.0609 129.974 51.0395C130.182 51.018 130.393 51.0363 130.59 51.0927L130.656 51.1189L130.76 51.175C131.86 51.7211 131.85 52.7274 131.175 53.6513Z" fill="#263238"/>
<path d="M130.171 52.1513C130.812 51.8595 131.332 52.0952 131.332 52.6825C131.31 53.0017 131.193 53.3123 130.991 53.5892C130.79 53.866 130.509 54.1013 130.171 54.276C129.534 54.5677 129.015 54.3321 129.015 53.7448C129.037 53.426 129.153 53.1159 129.354 52.8391C129.555 52.5624 129.834 52.3268 130.171 52.1513Z" fill="#455A64"/>
<path d="M133.922 53.7261C132.872 53.303 131.902 52.764 131.043 52.1251L129.34 54.3433C130.495 54.6002 131.595 54.995 132.6 55.5141L133.922 53.7261Z" fill="#455A64"/>
<path d="M160.819 57.7023C158.969 57.7023 157.119 57.5864 155.727 58.3719C152.122 60.403 147.559 63.0851 145.346 64.5626C145.346 64.5626 138.815 54.145 136.423 52.8134C134.88 51.9531 133.658 51.5902 132.587 51.5416C132.09 51.5016 131.59 51.5576 131.127 51.7049C130.664 51.8521 130.253 52.0862 129.93 52.387C128.92 53.3221 129.293 54.6313 131.657 54.3171C132.289 54.2311 132.756 53.1949 132.756 53.1949C133.342 53.2398 132.945 54.8146 133.521 54.9231C134.521 55.9966 135.663 55.5478 136.229 56.7073C137.008 58.3083 141.783 68.5688 142.543 69.3505C143.378 70.2109 144.487 70.5176 146.318 69.7695C148.149 69.0214 157.516 64.3531 157.516 64.3531L160.819 57.7023Z" fill="#FFA8A7"/>
<path d="M135.069 54.0628C135.069 53.7684 134.923 53.4857 134.663 53.2758C134.402 53.0659 134.048 52.9455 133.677 52.9406C133.507 52.9411 133.339 52.9665 133.181 53.0154H133.153L133.101 53.0341C133.024 53.0561 132.95 53.0837 132.879 53.1164C132.468 53.3277 132.126 53.613 131.88 53.949C131.634 54.2851 131.491 54.6624 131.464 55.0503C131.464 55.1448 131.478 55.239 131.506 55.3308C131.564 55.6039 131.749 55.8499 132.025 56.0195C132.301 56.1891 132.648 56.27 132.996 56.2459C133.343 56.2218 133.667 56.0946 133.902 55.8896C134.137 55.6846 134.265 55.4169 134.262 55.1401C134.267 55.1052 134.267 55.0701 134.262 55.0353C134.496 54.9472 134.695 54.8099 134.837 54.6385C134.979 54.467 135.06 54.2679 135.069 54.0628Z" fill="#263238"/>
<path d="M133.676 53.5017C134.455 53.1276 135.092 53.4343 135.092 54.1488C135.064 54.5366 134.922 54.9138 134.676 55.2498C134.43 55.5858 134.087 55.8712 133.676 56.0827C132.898 56.438 132.261 56.15 132.261 55.4393C132.288 55.0508 132.43 54.6729 132.676 54.3362C132.922 53.9995 133.265 53.7136 133.676 53.5017Z" fill="#455A64"/>
<path d="M171.318 123.772H167.486V128.194H171.318V123.772Z" fill="#FFA8A7"/>
<path d="M161.036 126.888C160.805 127.431 159.653 127.861 158.823 128.351C158.508 128.526 158.283 128.784 158.187 129.079C158.091 129.373 158.131 129.686 158.299 129.959C158.611 130.386 160.078 130.606 161.64 130.408C163.405 130.18 164.943 129.593 165.255 128.351C165.453 127.31 165.801 126.291 166.293 125.313C166.599 124.674 167.137 124.072 167.01 123.443C166.928 123.136 166.769 122.845 166.542 122.588C166.315 122.331 166.025 122.113 165.689 121.947C165.689 121.947 162.791 127.154 161.975 127.277C161.159 127.401 161.036 126.888 161.036 126.888Z" fill="#263238"/>
<path d="M160.903 119.935C160.903 119.935 161.517 121.659 161.719 122.224C161.922 122.789 161.639 125.665 161.248 126.458C161.096 126.919 160.756 127.327 160.28 127.618C160.28 127.618 159.105 128.426 160.464 128.587C161.025 128.692 161.611 128.671 162.157 128.525C162.703 128.379 163.186 128.113 163.55 127.76C164.452 126.944 164.565 124.607 165.169 123.645C165.556 123.028 165.839 122.65 165.943 122.448C166.047 122.246 165.674 122.138 165.296 121.266C164.997 120.407 164.775 119.532 164.631 118.648L160.903 119.935Z" fill="#FFA8A7"/>
<path d="M173.989 78.7132C175.989 83.1234 174.243 90.8141 173.724 95.1718C173.22 99.395 172.592 104.333 172.592 104.333C172.592 104.333 174.225 108.799 174.144 112.24C174.064 115.895 171.365 124.696 171.365 124.696C170.779 124.995 170.097 125.153 169.4 125.153C168.703 125.153 168.021 124.995 167.434 124.696C167.434 124.696 166.745 117.309 166.123 113.1C165.467 108.72 165.245 105.526 164.679 102.963C163.966 99.7728 163.329 87.1969 163.329 87.1969L160.347 100.446C161.285 102.022 162.042 103.662 162.607 105.346C163.447 107.938 165.089 120.092 165.089 120.092C165.089 120.092 163.895 121.468 161.234 121.24C161.234 121.24 153.514 103.659 152.74 101.998C151.683 99.7017 153.467 84.6159 154.052 79.5549L173.989 78.7132Z" fill="#455A64"/>
<path d="M167.184 57.8632C167.184 57.8632 172.044 58.3457 172.691 58.5777C167.604 61.413 171.723 67.7197 171.723 67.7197L169.26 73.0874C171.365 74.9577 172.634 75.9901 173.979 78.6983C172.563 80 163.749 84.4962 154.056 79.5549C154.255 76.9479 154.636 74.3517 155.198 71.7782C153.783 66.4778 153.655 64.8057 154.056 63.5676C155.203 60.0851 157.808 57.8408 160.818 57.7173L167.184 57.8632Z" fill="#FF725E"/>
<path opacity="0.2" d="M167.184 57.8632C167.184 57.8632 172.044 58.3457 172.691 58.5777C167.604 61.413 171.723 67.7197 171.723 67.7197L169.26 73.0874C171.365 74.9577 172.634 75.9901 173.979 78.6983C172.563 80 163.749 84.4962 154.056 79.5549C154.255 76.9479 154.636 74.3517 155.198 71.7782C153.783 66.4778 153.655 64.8057 154.056 63.5676C155.203 60.0851 157.808 57.8408 160.818 57.7173L167.184 57.8632Z" fill="black"/>
<path d="M167.486 126.694V126.26C167.014 127.697 166.07 129.01 164.749 130.064C163.541 130.936 161.89 131.934 161.47 132.918C161.05 133.902 163.419 134.336 164.981 134.209C166.499 134.063 167.898 133.483 168.916 132.578C169.907 131.676 169.893 131.059 170.332 130.562C170.771 130.064 171.865 129.507 172.115 128.934C172.252 128.616 172.087 127.924 171.894 127.337C171.7 126.75 171.526 126.215 171.294 126.26V126.593C170.748 126.932 170.072 127.113 169.379 127.105C168.841 127.124 167.482 127.042 167.486 126.694Z" fill="#263238"/>
<path d="M171.318 126.593C171.2 126.294 170.181 127.015 169.312 127.042C168.751 127.06 167.897 127.008 167.897 126.668L167.486 126.26C167.014 127.697 166.07 129.01 164.749 130.064L163.829 130.711C163.183 131.28 163.357 131.774 164.877 131.878C166.396 131.983 167.708 131.257 168.864 130.143C170.02 129.028 171.318 126.593 171.318 126.593Z" fill="#FFA8A7"/>
<path d="M163.871 55.2784H162.965C161.819 55.2784 160.685 55.0995 159.626 54.752C158.568 54.4044 157.606 53.8949 156.796 53.2527C155.986 52.6104 155.343 51.848 154.904 51.0089C154.466 50.1697 154.24 49.2703 154.24 48.3621V47.6588C154.24 46.0993 155.022 44.6037 156.413 43.5009C157.804 42.3982 159.691 41.7786 161.658 41.7786H165.23C166.204 41.7786 167.169 41.9307 168.069 42.2262C168.969 42.5218 169.787 42.9549 170.475 43.5009C171.164 44.0469 171.711 44.6952 172.083 45.4086C172.456 46.122 172.648 46.8866 172.648 47.6588V48.3209C172.648 50.1662 171.723 51.9358 170.077 53.2406C168.431 54.5454 166.199 55.2784 163.871 55.2784Z" fill="#263238"/>
<path d="M157.266 44.7188C156.294 45.1751 155.09 47.1127 155.208 51.175C155.312 54.6164 156.718 55.4692 157.426 55.7124C158.134 55.9555 159.498 55.8096 160.819 55.6338V57.7024C160.819 57.7024 158.988 59.3894 159.106 60.3208C159.224 61.2522 161.748 61.4916 163.466 60.5676C165.184 59.6437 166.623 57.837 166.623 57.837L166.595 53.0865C166.595 53.0865 167.373 53.685 168.694 52.7685C169.789 52.0204 170.157 50.7374 169.303 50.0528C169.123 49.9171 168.912 49.8108 168.68 49.7399C168.449 49.6691 168.202 49.6351 167.954 49.64C167.706 49.6449 167.461 49.6885 167.235 49.7683C167.008 49.8481 166.803 49.9626 166.632 50.1052C166.486 50.2296 166.366 50.3725 166.278 50.5279C166.278 50.5279 164.164 50.5915 161.347 49.3646C160.255 48.898 159.317 48.2345 158.608 47.4275C157.899 46.6204 157.439 45.6926 157.266 44.7188Z" fill="#FFA8A7"/>
<path d="M160.059 50.3109C160.058 50.3959 160.089 50.4792 160.147 50.5505C160.205 50.6218 160.289 50.6779 160.387 50.7118C160.485 50.7458 160.594 50.7562 160.7 50.7416C160.805 50.727 160.903 50.6881 160.981 50.6298C161.059 50.5715 161.114 50.4964 161.139 50.4136C161.163 50.3309 161.157 50.2443 161.12 50.1645C161.083 50.0847 161.017 50.0153 160.931 49.9648C160.844 49.9144 160.741 49.8852 160.634 49.8808C160.561 49.8788 160.488 49.8882 160.42 49.9086C160.351 49.9289 160.288 49.9598 160.235 49.9994C160.181 50.039 160.138 50.0866 160.108 50.1394C160.078 50.1922 160.061 50.2492 160.059 50.3072V50.3109Z" fill="#263238"/>
<path d="M159.913 53.2286L158.644 53.5503C158.687 53.6828 158.795 53.7964 158.943 53.8665C159.091 53.9365 159.269 53.9573 159.436 53.9244H159.469C159.644 53.8782 159.789 53.7792 159.872 53.6489C159.955 53.5186 159.97 53.3675 159.913 53.2286Z" fill="#F28F8F"/>
<path d="M155.581 48.9793L156.685 48.3733C156.641 48.3163 156.583 48.2668 156.515 48.2275C156.447 48.1882 156.37 48.1599 156.288 48.1443C156.206 48.1286 156.121 48.126 156.038 48.1364C155.954 48.1468 155.874 48.1701 155.803 48.205H155.77C155.693 48.246 155.627 48.2985 155.576 48.3596C155.525 48.4207 155.49 48.4892 155.473 48.5611C155.455 48.633 155.456 48.707 155.474 48.7787C155.493 48.8505 155.529 48.9186 155.581 48.9793Z" fill="#263238"/>
<path d="M155.836 49.9855C155.835 50.0705 155.866 50.1538 155.924 50.2251C155.983 50.2964 156.066 50.3525 156.165 50.3864C156.263 50.4204 156.372 50.4307 156.477 50.4162C156.583 50.4016 156.681 50.3627 156.759 50.3044C156.837 50.2461 156.891 50.1709 156.916 50.0882C156.941 50.0055 156.934 49.9188 156.897 49.8391C156.86 49.7593 156.794 49.6899 156.708 49.6394C156.622 49.589 156.519 49.5598 156.412 49.5554C156.263 49.5523 156.12 49.5958 156.012 49.6764C155.904 49.757 155.841 49.8681 155.836 49.9855Z" fill="#263238"/>
<path d="M158.412 49.7499L158.327 52.3571L156.596 51.9306L158.412 49.7499Z" fill="#F28F8F"/>
<path d="M160.818 55.6338C162.234 55.4879 165.094 54.837 165.537 53.9356C165.359 54.3912 165.008 54.7922 164.532 55.0839C163.673 55.6675 160.818 56.3445 160.818 56.3445V55.6338Z" fill="#F28F8F"/>
<path d="M170.714 69.9191L166.892 74.0263L169.26 73.0874L170.714 69.9191Z" fill="#FF725E"/>
<path opacity="0.4" d="M170.714 69.9191L166.892 74.0263L169.26 73.0874L170.714 69.9191Z" fill="black"/>
<path d="M135.809 56.1463C135.125 55.8767 134.413 55.6527 133.681 55.4767C133.239 55.3271 132.777 55.2191 132.303 55.155C131.95 55.1064 131.945 54.2573 133.209 54.3508C134.474 54.4443 134.965 54.5004 135.097 54.1488L135.809 56.1463Z" fill="#FFA8A7"/>
<path d="M174.503 74.823C174.46 75.4028 173.705 81.5561 172.766 83.7107C172.701 83.8544 172.599 83.9856 172.465 84.0958C172.332 84.206 172.171 84.2927 171.992 84.3503C170.364 84.9039 169.864 85.5136 168.821 86.2655C168.118 86.7742 167.547 86.879 167.618 87.0585C167.729 87.2554 167.93 87.4122 168.179 87.4981C168.429 87.5839 168.71 87.5926 168.968 87.5223C169.542 87.3773 170.092 87.1776 170.605 86.9276C170.148 87.7038 169.538 88.4173 168.798 89.041C167.109 90.4737 166.958 91.3976 170.105 91.5921C172.073 91.7155 173.734 90.844 175.513 87.4775C176.065 86.2426 176.522 84.9822 176.881 83.7032C177.556 81.6085 178.504 77.8716 178.995 75.9003C179.207 75.0504 179.189 74.1746 178.943 73.3305" fill="#FFA8A7"/>
<path d="M171.563 44.5878C173.102 44.5878 174.577 45.0722 175.664 45.9343C176.752 46.7965 177.363 47.9658 177.363 49.185V57.8407C175.825 57.8407 174.35 57.3564 173.262 56.4943C172.174 55.6321 171.563 54.4628 171.563 53.2436V44.5878Z" fill="#263238"/>
<path d="M163.329 87.1969C163.329 87.1969 161.172 85.9962 159.105 84.6047C159.105 84.6047 161.191 86.7929 162.409 87.5971L161.083 97.1768L163.329 87.1969Z" fill="#263238"/>
</svg>
