<svg width="363" height="404" viewBox="0 0 363 404" fill="none" xmlns="http://www.w3.org/2000/svg">
<path d="M283 297L288.338 306.107" stroke="#263238" stroke-linecap="round" stroke-linejoin="round"/>
<path d="M289.763 308.201C289.88 310.097 290.155 311.984 290.586 313.849L289.763 308.201Z" fill="white"/>
<path d="M289.763 308.201C289.88 310.097 290.155 311.984 290.586 313.849" stroke="#263238" stroke-linecap="round" stroke-linejoin="round"/>
<path d="M204 108.436L212.073 101.855V49.7338" stroke="#263238" stroke-linecap="round" stroke-linejoin="round"/>
<path d="M212.073 101.855L220.846 108.436" stroke="#263238" stroke-linecap="round" stroke-linejoin="round"/>
<path d="M214.014 42.304V45.7648L215.605 48.1856C215.606 48.9572 215.255 49.6973 214.63 50.244C214.005 50.7907 213.157 51.0994 212.272 51.1025V51.1025C211.385 51.1009 210.535 50.7931 209.907 50.2464C209.28 49.6998 208.927 48.9588 208.925 48.1856V45.7648" stroke="#263238" stroke-width="3" stroke-linecap="round" stroke-linejoin="round"/>
<path d="M217.464 35.6573H210.77V42.1367H217.464V35.6573Z" fill="white" stroke="#263238" stroke-linecap="round" stroke-linejoin="round"/>
<path d="M219.94 26.9663H208.293V39.9788H219.94V26.9663Z" fill="white" stroke="#263238" stroke-linecap="round" stroke-linejoin="round"/>
<path d="M223.411 33.4995H204.947V37.4923H223.411V33.4995Z" fill="white" stroke="#263238" stroke-linecap="round" stroke-linejoin="round"/>
<path d="M214.117 33.4995H211.476L207.738 37.1935L208.129 37.4923H210.077L214.117 33.4995Z" fill="#263238"/>
<path d="M206.394 33.4995L204.947 34.9281V37.4923H204.995L209.042 33.4995H206.394Z" fill="#263238"/>
<path d="M219.2 33.4995H216.56L212.821 37.1935L213.212 37.4923H215.16L219.2 33.4995Z" fill="#263238"/>
<path d="M223.411 34.3543V33.4995H221.634L217.896 37.1935L218.294 37.4923H220.235L223.411 34.3543Z" fill="#263238"/>
<path d="M213.856 26.7392V18.9091" stroke="#263238" stroke-width="2" stroke-linecap="round" stroke-linejoin="round"/>
<path d="M351.908 18.7118H209.192V14.0197L233.61 5H351.908" stroke="#263238" stroke-width="2" stroke-linecap="round" stroke-linejoin="round"/>
<path d="M233.61 18.7118V5L249.756 18.7118V5L233.61 18.7118Z" stroke="#263238" stroke-width="2" stroke-linecap="round" stroke-linejoin="round"/>
<path d="M249.736 18.7118V5L265.875 18.7118V5L249.736 18.7118Z" stroke="#263238" stroke-width="2" stroke-linecap="round" stroke-linejoin="round"/>
<path d="M265.855 18.7118V5L282.001 18.7118V5L265.855 18.7118Z" stroke="#263238" stroke-width="2" stroke-linecap="round" stroke-linejoin="round"/>
<path d="M281.981 18.7118V5L298.12 18.7118V5L281.981 18.7118Z" stroke="#263238" stroke-width="2" stroke-linecap="round" stroke-linejoin="round"/>
<path d="M298.099 18.7118V5L314.245 18.7118V5L298.099 18.7118Z" stroke="#263238" stroke-width="2" stroke-linecap="round" stroke-linejoin="round"/>
<path d="M314.225 18.7118V5L330.364 18.7118V5L314.225 18.7118Z" stroke="#263238" stroke-width="2" stroke-linecap="round" stroke-linejoin="round"/>
<path d="M330.344 18.7118V5L346.49 18.7118V5L330.344 18.7118Z" stroke="#263238" stroke-width="2" stroke-linecap="round" stroke-linejoin="round"/>
<path d="M310.115 56.437C310.115 56.437 307.969 59.3135 308.05 59.6847C308.131 60.0559 308.641 60.0868 308.14 60.6082C307.639 61.1296 306.604 62.1017 306.547 62.632C306.578 63.0567 306.765 63.4587 307.076 63.772C307.076 63.772 306.561 66.083 306.728 66.6176C306.895 67.1523 308.77 67.5013 308.77 67.5013L308.269 69.1981L313.669 70.6298L314.595 67.6295L317.805 58.4916L310.115 56.437Z" fill="white" stroke="#263238" stroke-linecap="round" stroke-linejoin="round"/>
<path d="M317.391 56.079C317.047 56.0171 315.606 55.0539 313.507 54.7048C311.408 54.3557 310.597 55.1467 310.354 55.9553C310.111 56.7639 309.634 56.3485 310.244 56.8965C310.855 57.4444 309.791 57.9349 309.791 57.9349C309.826 58.2433 309.751 58.5538 309.576 58.8186C309.276 59.4063 310.206 60.4712 310.206 60.4712C310.011 60.8676 309.874 61.2868 309.801 61.7173C309.801 62.0663 310.125 62.2342 310.416 62.0575C310.707 61.8807 311.284 60.7584 311.299 61.3107C311.313 61.8631 310.693 65.7957 311.055 66.3966C311.418 66.9976 313.889 67.5367 314.595 67.6339C315.301 67.7311 317.543 65.5748 318.721 64.2403C319.9 62.9059 320.673 60.1309 320.281 58.6242C320.086 58.0009 319.715 57.437 319.207 56.9898C318.699 56.5427 318.072 56.2284 317.391 56.079Z" fill="#263238" stroke="#263238" stroke-linecap="round" stroke-linejoin="round"/>
<path d="M310.74 61.0853C310.616 61.6822 310.457 62.2723 310.263 62.8528C310.005 63.5244 309.376 63.7365 309.586 64.143C309.795 64.5495 310.091 64.4788 310.54 64.0326C311.038 63.5026 311.401 62.876 311.604 62.1988C311.699 61.6553 312.052 60.5109 310.74 61.0853Z" fill="white" stroke="#263238" stroke-linecap="round" stroke-linejoin="round"/>
<path d="M311.194 63.2329C312.059 63.8626 313.014 64.3785 314.032 64.7661C315.474 65.274 317.031 65.4381 318.559 65.2434C319.037 65.1967 319.484 65.0057 319.833 64.6999C320.224 64.258 320.224 63.3389 320.224 63.0694C320.224 62.7998 321.856 60.1486 320.487 57.5195C319.117 54.8904 313.178 53.1936 312.1 53.3748C311.022 53.556 309.071 56.2734 309.071 56.2734C309.071 56.2734 306.833 56.6623 306.824 57.5593C306.824 58.6772 308.045 59.0174 308.47 60.0735C309.059 61.332 309.999 62.4225 311.194 63.2329Z" fill="white" stroke="#263238" stroke-linecap="round" stroke-linejoin="round"/>
<path d="M310.244 56.8964C310.244 56.8964 312.496 54.6031 312.944 54.391C313.273 54.2407 314.671 54.3645 316.145 55.1245" stroke="#263238" stroke-linecap="round" stroke-linejoin="round"/>
<path d="M307.687 69.1494L306.156 71.7432C306.156 71.7432 310.01 70.7048 312.114 70.7048C313.594 70.7298 315.069 70.8612 316.527 71.098L315.544 68.5661C315.544 68.5661 310.211 68.0447 307.687 69.1494Z" fill="white" stroke="#263238" stroke-linecap="round" stroke-linejoin="round"/>
<path d="M322.189 103.372C322.197 104.456 322.127 105.54 321.98 106.615C321.77 107.588 320.372 109.081 319.809 109.342C319.246 109.602 318.549 109.664 318.406 109.342C318.263 109.019 318.058 109.147 318.268 107.459C318.478 105.771 319.251 102.528 319.251 102.528L322.189 103.372Z" fill="white" stroke="#263238" stroke-linecap="round" stroke-linejoin="round"/>
<path d="M322.681 101.295L322.204 103.372C321.606 103.487 320.992 103.508 320.386 103.434C320.126 103.397 319.882 103.292 319.684 103.132C319.485 102.972 319.34 102.762 319.265 102.528L319.475 100.708L322.681 101.295Z" fill="white" stroke="#263238" stroke-linecap="round" stroke-linejoin="round"/>
<path d="M322.337 73.3692C322.337 73.3692 323.32 78.8837 323.95 82.971C324.482 86.2563 324.691 89.5795 324.574 92.8998C324.431 94.8484 323.592 101.101 323.31 101.552C323.029 102.002 321.14 102.201 320.372 101.879C319.604 101.556 319.25 101.163 319.25 99.9299C319.25 98.6971 319.947 87.1908 319.947 87.1908L322.337 73.3692Z" fill="white" stroke="#263238" stroke-linecap="round" stroke-linejoin="round"/>
<path d="M307.201 144.616C306.924 144.618 306.653 144.681 306.409 144.802C305.994 145.01 304.19 145.465 303.031 145.845C301.218 146.441 299.806 146.123 299.949 146.56C300.093 146.998 302.922 147.886 304.558 147.886C306.194 147.886 306.981 147.533 307.764 147.546C308.546 147.559 307.969 147.908 309.266 148.045C310.564 148.182 310.993 148.187 311.446 147.528C311.9 146.87 312.157 146.702 312.014 145.867V145.862C311.943 145.503 311.737 145.179 311.432 144.948C311.127 144.716 310.743 144.593 310.349 144.599L307.201 144.616Z" fill="#263238" stroke="#263238" stroke-linecap="round" stroke-linejoin="round"/>
<path d="M317.323 143.812C317.082 143.809 316.845 143.87 316.641 143.989C316.283 144.196 314.733 144.634 313.736 145.009C312.176 145.593 310.936 145.204 311.079 145.681C311.222 146.158 312.891 146.803 314.318 146.878C315.088 146.922 315.862 146.895 316.627 146.799C318.163 146.719 317.185 147.241 317.738 147.431C318.125 147.544 318.53 147.598 318.936 147.59C320.558 147.669 320.758 147.789 321.13 147.095C321.502 146.401 321.717 146.211 321.564 145.327V145.301C321.525 144.943 321.355 144.609 321.083 144.353C320.81 144.096 320.452 143.934 320.066 143.891L317.323 143.812Z" fill="#263238" stroke="#263238" stroke-linecap="round" stroke-linejoin="round"/>
<path d="M302.782 96.7529C302.782 96.7529 303.064 105.838 303.064 108.887C303.064 111.936 303.903 125.717 305.024 130.715C305.897 134.99 306.481 139.311 306.775 143.653C306.775 144.431 306.498 144.625 307.057 145.142C307.615 145.659 309.719 146.635 310.491 146.313C311.264 145.99 311.679 144.753 311.679 144.753C311.679 144.753 311.679 138.006 311.894 133.592C312.109 129.177 311.751 123.406 311.751 123.406C311.751 123.406 314.484 135.085 315.252 137.423C316.021 139.76 316.655 143.998 316.798 144.837C316.941 145.677 317.552 145.721 318.334 145.721C319.288 145.721 320.438 145.606 320.858 144.956C321.278 144.307 320.381 137.493 320.381 134.771C320.381 132.049 318.081 115.117 318.267 110.955C318.453 106.792 319.808 99.5985 319.389 97.4555C319.137 96.1852 318.996 94.8981 318.969 93.6068C318.969 93.6068 304.533 92.0779 302.782 96.7529Z" fill="#5E5E5E" stroke="#263238" stroke-linecap="round" stroke-linejoin="round"/>
<path d="M287.144 54.3955C287.144 54.3955 287.416 53.9536 287.822 53.2069C288.111 52.5108 288.226 51.7628 288.156 51.0196C288.156 50.5203 288.762 50.3347 288.762 49.7736C288.762 49.2124 287.889 49.2698 287.416 49.6454C286.944 50.021 286.806 51.1478 286.806 51.1478C286.806 51.1478 286.062 49.9768 285.661 49.1461C285.303 48.4038 284.807 47.1223 284.134 46.9368C283.462 46.7512 283.49 47.52 283.557 47.7056C283.669 48.0695 283.809 48.4254 283.977 48.7705C284.134 49.0577 284.454 49.8973 284.454 49.8973C284.454 49.8973 283.5 49.208 283.171 49.208C283.083 49.2062 282.997 49.2268 282.921 49.2674C282.845 49.308 282.783 49.3672 282.741 49.4383C282.699 49.5095 282.68 49.5899 282.684 49.6709C282.688 49.7518 282.716 49.8302 282.765 49.8973C282.765 49.8973 281.954 50.211 282.159 50.7103C282.364 51.2096 282.426 51.3952 282.426 51.3952C282.426 51.3952 282.226 51.6471 282.426 52.279C282.627 52.9108 283.509 53.9669 283.858 54.4883C284.052 54.7803 284.304 55.0353 284.602 55.2395L287.144 54.3955Z" fill="white" stroke="#263238" stroke-linecap="round" stroke-linejoin="round"/>
<path d="M282.78 49.8754C282.995 50.1826 283.247 50.467 283.529 50.7237" stroke="#263238" stroke-linecap="round" stroke-linejoin="round"/>
<path d="M282.422 51.3729C282.555 51.5763 282.715 51.7633 282.899 51.9297" stroke="#263238" stroke-linecap="round" stroke-linejoin="round"/>
<path d="M285.05 57.6256L283.862 55.2218C284.097 54.9091 284.398 54.6443 284.748 54.4436C285.098 54.243 285.488 54.1108 285.895 54.0553C287.364 53.7946 287.574 54.0553 287.574 54.0553L288.347 56.5209C288.347 56.5209 285.823 56.7153 285.05 57.6256Z" fill="white" stroke="#263238" stroke-linecap="round" stroke-linejoin="round"/>
<path d="M301.542 70.3736L292.197 62.0355C292.197 62.0355 290.026 58.5977 289.468 57.3649C288.91 56.1321 288.137 55.8051 286.873 55.9377C285.608 56.0702 284.487 57.2986 284.487 58.2089C284.487 58.7259 285.918 61.8411 287.226 64.532C287.292 64.722 289.134 69.9891 290.169 70.3736C291.204 70.758 302.167 81.2921 302.167 81.2921L306.155 71.7433L301.542 70.3736Z" fill="white" stroke="#263238" stroke-linecap="round" stroke-linejoin="round"/>
<path d="M300.431 79.4584C301.013 84.5796 300.779 98.0169 300.779 98.9315C300.779 100.036 300.708 100.098 301.128 100.425C301.547 100.752 305.531 100.867 309.385 100.818C313.24 100.77 318.068 100.019 318.421 100.019C318.704 99.9997 318.979 99.9195 319.222 99.7844C319.466 99.6493 319.672 99.4632 319.823 99.2408C320.052 98.9183 322.333 85.6755 323.001 79.5954C323.554 74.5669 322.285 73.4843 322.318 73.3694C322.39 73.1087 316.78 71.2264 316.288 71.0982C315.797 70.9701 312.997 69.2159 306.69 71.4208C306.69 71.4208 304.1 70.6608 303.16 71.0364C303.16 71.0364 304.977 74.4034 303.613 77.6335C302.249 80.8635 300.431 79.4584 300.431 79.4584Z" fill="#FF725E" stroke="#263238" stroke-linecap="round" stroke-linejoin="round"/>
<path d="M300.846 92.0823C300.846 92.9042 300.846 93.6907 300.846 94.4198C303.408 94.1812 311.489 93.5096 320.954 93.5007C321.078 92.7628 321.212 91.9851 321.341 91.1765C311.904 91.1676 303.771 91.8172 300.846 92.0823Z" fill="white" stroke="#263238" stroke-linecap="round" stroke-linejoin="round"/>
<path d="M300.826 88.6048C303.851 88.322 313.349 87.5355 321.846 87.9995C322.323 84.9064 322.8 81.7824 323.019 79.6039C323.573 74.5755 322.304 73.4929 322.337 73.378C322.37 73.2631 320.863 72.6622 319.341 72.1231C319.937 73.0687 320.953 75.2515 320.858 79.056C320.791 81.5968 320.558 83.9166 320.329 85.609C316.674 85.472 312.963 85.5338 309.7 85.6752C309.757 84.3496 309.771 82.7677 309.733 80.9958C309.663 77.6199 308.936 74.2834 307.586 71.1466C307.305 71.2305 307.028 71.3189 306.732 71.4205C306.095 71.239 305.445 71.0987 304.786 71.0007C306.321 74.1585 307.158 77.569 307.248 81.0312C307.286 82.8605 307.248 84.4512 307.2 85.7901C304.404 85.9492 302.138 86.1436 300.817 86.2718C300.807 87.0406 300.817 87.8227 300.826 88.6048Z" fill="white" stroke="#263238" stroke-linecap="round" stroke-linejoin="round"/>
<path d="M317.715 84.6501C315.711 87.3014 312.544 91.2075 310.082 92.6789" stroke="#263238" stroke-linecap="round" stroke-linejoin="round"/>
<path d="M319.666 81.9328C319.666 81.9328 319.303 82.4719 318.711 83.3159" stroke="#263238" stroke-linecap="round" stroke-linejoin="round"/>
<path d="M313.865 91.1591C312.304 92.4685 310.616 93.6415 308.822 94.6631" stroke="#263238" stroke-linecap="round" stroke-linejoin="round"/>
<path d="M317.777 133.49C318.525 134.218 319.407 134.817 320.382 135.257C320.382 135.067 320.382 134.891 320.382 134.727C320.382 132.001 318.068 115.104 318.278 110.95C318.316 110.195 318.392 109.337 318.488 108.427C318.411 108.244 318.317 108.068 318.206 107.901C317.064 106.253 316.035 104.539 315.124 102.771L318.764 105.997C318.793 105.754 318.826 105.506 318.855 105.263C317.901 103.651 316.613 101.437 316.527 100.761L312.234 102.904C312.234 102.904 311.671 118.307 311.756 123.371C311.756 123.371 312.172 125.139 312.711 127.432C314.037 130.233 316.403 132.186 317.777 133.49Z" fill="#263238" stroke="#263238" stroke-linecap="round" stroke-linejoin="round"/>
<path d="M308.145 142.65C308.238 143.646 308.225 144.648 308.107 145.641" stroke="#263238" stroke-linecap="round" stroke-linejoin="round"/>
<path d="M307.835 138.929C307.897 139.791 307.959 140.555 308.012 141.178" stroke="#263238" stroke-linecap="round" stroke-linejoin="round"/>
<path d="M306.022 105.184C306.194 111.688 306.614 125.974 306.976 129.16C307.248 131.466 307.496 134.656 307.701 137.365" stroke="#263238" stroke-linecap="round" stroke-linejoin="round"/>
<path d="M7 273.389H342.497" stroke="#263238" stroke-linecap="round" stroke-linejoin="round"/>
<path d="M81.7159 154H273.33C275.241 154 277.074 154.626 278.425 155.74C279.776 156.854 280.535 158.364 280.535 159.94V270.357H74.5103V159.932C74.5126 158.358 75.2728 156.849 76.6239 155.737C77.9749 154.625 79.8064 154 81.7159 154Z" fill="#263238" stroke="#263238" stroke-linecap="round" stroke-linejoin="round"/>
<path d="M311.43 321.793H43.6074L74.5103 270.357H280.527L311.43 321.793Z" fill="white" stroke="#263238" stroke-linecap="round" stroke-linejoin="round"/>
<path d="M106.06 245.241H132.262" stroke="#263238" stroke-width="2" stroke-linecap="round" stroke-linejoin="round"/>
<path d="M106.06 249.334H132.262" stroke="#263238" stroke-width="2" stroke-linecap="round" stroke-linejoin="round"/>
<path d="M165.236 245.241H191.448" stroke="#263238" stroke-width="2" stroke-linecap="round" stroke-linejoin="round"/>
<path d="M165.236 249.334H191.448" stroke="#263238" stroke-width="2" stroke-linecap="round" stroke-linejoin="round"/>
<path d="M224.422 245.241H250.624" stroke="#263238" stroke-width="2" stroke-linecap="round" stroke-linejoin="round"/>
<path d="M224.422 249.334H250.624" stroke="#263238" stroke-width="2" stroke-linecap="round" stroke-linejoin="round"/>
<path d="M168.927 286.643L169.281 280.375H158.402L157.676 286.643H168.927Z" fill="#263238" stroke="white" stroke-linecap="round" stroke-linejoin="round"/>
<path d="M191.43 286.643L191.058 280.375H180.17L180.179 286.643H191.43Z" fill="#263238" stroke="white" stroke-linecap="round" stroke-linejoin="round"/>
<path d="M250.022 293.342H261.654L258.927 286.643H247.676L250.022 293.342Z" fill="#263238" stroke="white" stroke-linecap="round" stroke-linejoin="round"/>
<path d="M157.676 286.643L158.402 280.375H147.514L146.434 286.643H157.676Z" fill="#263238" stroke="white" stroke-linecap="round" stroke-linejoin="round"/>
<path d="M135.183 286.643L136.626 280.375H125.747L123.932 286.643H135.183Z" fill="#263238" stroke="white" stroke-linecap="round" stroke-linejoin="round"/>
<path d="M236.425 286.643L234.602 280.375H223.713L225.174 286.643H236.425Z" fill="#263238" stroke="white" stroke-linecap="round" stroke-linejoin="round"/>
<path d="M247.676 286.643L245.481 280.375H234.602L236.425 286.643H247.676Z" fill="#263238" stroke="white" stroke-linecap="round" stroke-linejoin="round"/>
<path d="M123.932 286.643L125.746 280.375H114.858L112.681 286.643H123.932Z" fill="#263238" stroke="white" stroke-linecap="round" stroke-linejoin="round"/>
<path d="M202.68 286.643L201.946 280.375H191.058L191.429 286.643H202.68Z" fill="#263238" stroke="white" stroke-linecap="round" stroke-linejoin="round"/>
<path d="M258.927 286.643L256.369 280.375H245.481L247.676 286.643H258.927Z" fill="#263238" stroke="white" stroke-linecap="round" stroke-linejoin="round"/>
<path d="M225.174 286.643L223.713 280.375H212.825L213.923 286.643H225.174Z" fill="#263238" stroke="white" stroke-linecap="round" stroke-linejoin="round"/>
<path d="M213.923 286.643L212.825 280.375H201.946L202.681 286.643H213.923Z" fill="#263238" stroke="white" stroke-linecap="round" stroke-linejoin="round"/>
<path d="M180.178 286.643L180.17 280.375H169.281L168.927 286.643H180.178Z" fill="#263238" stroke="white" stroke-linecap="round" stroke-linejoin="round"/>
<path d="M101.43 286.643H90.1789L87.0718 293.342H98.7123L101.43 286.643Z" fill="#263238" stroke="white" stroke-linecap="round" stroke-linejoin="round"/>
<path d="M103.97 280.375H93.0911L90.1787 286.643H101.43L103.97 280.375Z" fill="#263238" stroke="white" stroke-linecap="round" stroke-linejoin="round"/>
<path d="M112.681 286.643L114.858 280.375H103.97L101.43 286.643H112.681Z" fill="#263238" stroke="white" stroke-linecap="round" stroke-linejoin="round"/>
<path d="M83.7433 300.522L80.167 308.242H92.6751L95.7999 300.522H83.7433Z" fill="#263238" stroke="white" stroke-linecap="round" stroke-linejoin="round"/>
<path d="M98.7121 293.342H87.0716L83.7432 300.522H95.7998L98.7121 293.342Z" fill="#263238" stroke="white" stroke-linecap="round" stroke-linejoin="round"/>
<path d="M95.7996 300.522L92.6748 308.242H105.183L107.856 300.522H95.7996Z" fill="#263238" stroke="white" stroke-linecap="round" stroke-linejoin="round"/>
<path d="M146.434 286.643L147.514 280.375H136.626L135.183 286.643H146.434Z" fill="#263238" stroke="white" stroke-linecap="round" stroke-linejoin="round"/>
<path d="M145.266 293.342L146.434 286.643H135.183L133.634 293.342H145.266Z" fill="#263238" stroke="white" stroke-linecap="round" stroke-linejoin="round"/>
<path d="M133.634 293.342L135.183 286.643H123.932L121.993 293.342H133.634Z" fill="#263238" stroke="white" stroke-linecap="round" stroke-linejoin="round"/>
<path d="M156.906 293.342L157.676 286.643H146.434L145.266 293.342H156.906Z" fill="#263238" stroke="white" stroke-linecap="round" stroke-linejoin="round"/>
<path d="M112.681 286.643H101.43L98.7119 293.342H110.353L112.681 286.643Z" fill="#263238" stroke="white" stroke-linecap="round" stroke-linejoin="round"/>
<path d="M252.527 300.522H264.584L261.654 293.342H250.022L252.527 300.522Z" fill="#263238" stroke="white" stroke-linecap="round" stroke-linejoin="round"/>
<path d="M121.993 293.342L123.932 286.643H112.681L110.353 293.342H121.993Z" fill="#263238" stroke="white" stroke-linecap="round" stroke-linejoin="round"/>
<path d="M98.7122 293.342L95.7998 300.522H107.856L110.353 293.342H98.7122Z" fill="#263238" stroke="white" stroke-linecap="round" stroke-linejoin="round"/>
<path d="M226.741 293.342L225.174 286.643H213.923L215.1 293.342H226.741Z" fill="#263238" stroke="white" stroke-linecap="round" stroke-linejoin="round"/>
<path d="M215.1 293.342L213.923 286.643H202.681L203.46 293.342H215.1Z" fill="#263238" stroke="white" stroke-linecap="round" stroke-linejoin="round"/>
<path d="M250.022 293.342L247.676 286.643H236.425L238.382 293.342H250.022Z" fill="#263238" stroke="white" stroke-linecap="round" stroke-linejoin="round"/>
<path d="M180.187 293.342L180.179 286.643H168.928L168.547 293.342H180.187Z" fill="#263238" stroke="white" stroke-linecap="round" stroke-linejoin="round"/>
<path d="M203.46 293.342L202.681 286.643H191.43L191.828 293.342H203.46Z" fill="#263238" stroke="white" stroke-linecap="round" stroke-linejoin="round"/>
<path d="M191.828 293.342L191.43 286.643H180.179L180.188 293.342H191.828Z" fill="#263238" stroke="white" stroke-linecap="round" stroke-linejoin="round"/>
<path d="M168.547 293.342L168.927 286.643H157.676L156.906 293.342H168.547Z" fill="#263238" stroke="white" stroke-linecap="round" stroke-linejoin="round"/>
<path d="M203.46 293.342L204.31 300.522H216.357L215.1 293.342H203.46Z" fill="#263238" stroke="white" stroke-linecap="round" stroke-linejoin="round"/>
<path d="M215.101 293.342L216.358 300.522H228.414L226.741 293.342H215.101Z" fill="#263238" stroke="white" stroke-linecap="round" stroke-linejoin="round"/>
<path d="M110.353 293.342L107.856 300.522H119.913L121.993 293.342H110.353Z" fill="#263238" stroke="white" stroke-linecap="round" stroke-linejoin="round"/>
<path d="M226.741 293.342L228.414 300.522H240.47L238.381 293.342H226.741Z" fill="#263238" stroke="white" stroke-linecap="round" stroke-linejoin="round"/>
<path d="M180.188 293.342L180.196 300.522H192.253L191.828 293.342H180.188Z" fill="#263238" stroke="white" stroke-linecap="round" stroke-linejoin="round"/>
<path d="M238.381 293.342L240.47 300.522H252.527L250.022 293.342H238.381Z" fill="#263238" stroke="white" stroke-linecap="round" stroke-linejoin="round"/>
<path d="M191.828 293.342L192.253 300.522H204.31L203.46 293.342H191.828Z" fill="#263238" stroke="white" stroke-linecap="round" stroke-linejoin="round"/>
<path d="M133.634 293.342L131.97 300.522H144.026L145.266 293.342H133.634Z" fill="#263238" stroke="white" stroke-linecap="round" stroke-linejoin="round"/>
<path d="M121.993 293.342L119.913 300.522H131.97L133.634 293.342H121.993Z" fill="#263238" stroke="white" stroke-linecap="round" stroke-linejoin="round"/>
<path d="M168.547 293.342L168.14 300.522H180.196L180.187 293.342H168.547Z" fill="#263238" stroke="white" stroke-linecap="round" stroke-linejoin="round"/>
<path d="M156.906 293.342L156.083 300.522H168.14L168.547 293.342H156.906Z" fill="#263238" stroke="white" stroke-linecap="round" stroke-linejoin="round"/>
<path d="M145.266 293.342L144.026 300.522H156.083L156.906 293.342H145.266Z" fill="#263238" stroke="white" stroke-linecap="round" stroke-linejoin="round"/>
<path d="M238.381 293.342L236.425 286.643H225.174L226.741 293.342H238.381Z" fill="#263238" stroke="white" stroke-linecap="round" stroke-linejoin="round"/>
<path d="M103.97 280.375L106.573 273.954H96.0563L93.0908 280.375H103.97Z" fill="#263238" stroke="white" stroke-linecap="round" stroke-linejoin="round"/>
<path d="M93.0909 280.375H83.0348L79.7949 286.643H90.1785L93.0909 280.375Z" fill="#263238" stroke="white" stroke-linecap="round" stroke-linejoin="round"/>
<path d="M96.0567 273.954H86.3547L83.0352 280.375H93.0912L96.0567 273.954Z" fill="#263238" stroke="white" stroke-linecap="round" stroke-linejoin="round"/>
<path d="M90.1788 286.643H79.7952L76.334 293.342H87.0717L90.1788 286.643Z" fill="#263238" stroke="white" stroke-linecap="round" stroke-linejoin="round"/>
<path d="M87.0718 293.342H76.3341L72.6162 300.522H83.7434L87.0718 293.342Z" fill="#263238" stroke="white" stroke-linecap="round" stroke-linejoin="round"/>
<path d="M83.743 300.522H72.6158L68.6235 308.242H80.1667L83.743 300.522Z" fill="#263238" stroke="white" stroke-linecap="round" stroke-linejoin="round"/>
<path d="M270.17 286.643L273.295 293.342H283.59L280.128 286.643H270.17Z" fill="#263238" stroke="white" stroke-linecap="round" stroke-linejoin="round"/>
<path d="M276.641 300.522H287.307L283.59 293.342H273.294L276.641 300.522Z" fill="#263238" stroke="white" stroke-linecap="round" stroke-linejoin="round"/>
<path d="M280.235 308.242H291.3L287.307 300.522H276.641L280.235 308.242Z" fill="#263238" stroke="white" stroke-linecap="round" stroke-linejoin="round"/>
<path d="M191.058 280.375L190.677 273.954H180.161L180.169 280.375H191.058Z" fill="#263238" stroke="white" stroke-linecap="round" stroke-linejoin="round"/>
<path d="M270.17 286.643H280.128L276.888 280.375H267.257L270.17 286.643Z" fill="#263238" stroke="white" stroke-linecap="round" stroke-linejoin="round"/>
<path d="M264.584 300.522H276.64L273.294 293.342H261.654L264.584 300.522Z" fill="#263238" stroke="white" stroke-linecap="round" stroke-linejoin="round"/>
<path d="M114.858 280.375L117.089 273.954H106.573L103.97 280.375H114.858Z" fill="#263238" stroke="white" stroke-linecap="round" stroke-linejoin="round"/>
<path d="M256.369 280.375L258.927 286.643H270.17L267.257 280.375H256.369Z" fill="#263238" stroke="white" stroke-linecap="round" stroke-linejoin="round"/>
<path d="M276.888 280.375L273.569 273.954H264.265L267.257 280.375H276.888Z" fill="#263238" stroke="white" stroke-linecap="round" stroke-linejoin="round"/>
<path d="M267.257 280.375L264.265 273.954H253.757L256.369 280.375H267.257Z" fill="#263238" stroke="white" stroke-linecap="round" stroke-linejoin="round"/>
<path d="M228.414 300.522L230.22 308.242H242.719L240.471 300.522H228.414Z" fill="#263238" stroke="white" stroke-linecap="round" stroke-linejoin="round"/>
<path d="M267.726 308.242H280.235L276.641 300.522H264.584L267.726 308.242Z" fill="#263238" stroke="white" stroke-linecap="round" stroke-linejoin="round"/>
<path d="M256.369 280.375L253.758 273.954H243.241L245.481 280.375H256.369Z" fill="#263238" stroke="white" stroke-linecap="round" stroke-linejoin="round"/>
<path d="M252.527 300.522L255.227 308.242H267.727L264.584 300.522H252.527Z" fill="#263238" stroke="white" stroke-linecap="round" stroke-linejoin="round"/>
<path d="M240.471 300.522L242.719 308.242H255.227L252.527 300.522H240.471Z" fill="#263238" stroke="white" stroke-linecap="round" stroke-linejoin="round"/>
<path d="M261.654 293.342H273.294L270.17 286.643H258.927L261.654 293.342Z" fill="#263238" stroke="white" stroke-linecap="round" stroke-linejoin="round"/>
<path d="M158.402 280.375L159.137 273.954H148.621L147.514 280.375H158.402Z" fill="#263238" stroke="white" stroke-linecap="round" stroke-linejoin="round"/>
<path d="M245.481 280.375L243.241 273.954H232.725L234.602 280.375H245.481Z" fill="#263238" stroke="white" stroke-linecap="round" stroke-linejoin="round"/>
<path d="M147.514 280.375L148.621 273.954H138.113L136.626 280.375H147.514Z" fill="#263238" stroke="white" stroke-linecap="round" stroke-linejoin="round"/>
<path d="M180.17 280.375L180.161 273.954H169.654L169.282 280.375H180.17Z" fill="#263238" stroke="white" stroke-linecap="round" stroke-linejoin="round"/>
<path d="M136.626 280.375L138.113 273.954H127.597L125.747 280.375H136.626Z" fill="#263238" stroke="white" stroke-linecap="round" stroke-linejoin="round"/>
<path d="M125.747 280.375L127.597 273.954H117.089L114.858 280.375H125.747Z" fill="#263238" stroke="white" stroke-linecap="round" stroke-linejoin="round"/>
<path d="M169.282 280.375L169.654 273.954H159.137L158.402 280.375H169.282Z" fill="#263238" stroke="white" stroke-linecap="round" stroke-linejoin="round"/>
<path d="M234.602 280.375L232.725 273.954H222.217L223.713 280.375H234.602Z" fill="#263238" stroke="white" stroke-linecap="round" stroke-linejoin="round"/>
<path d="M223.714 280.375L222.218 273.954H211.701L212.825 280.375H223.714Z" fill="#263238" stroke="white" stroke-linecap="round" stroke-linejoin="round"/>
<path d="M201.946 280.375L201.185 273.954H190.677L191.058 280.375H201.946Z" fill="#263238" stroke="white" stroke-linecap="round" stroke-linejoin="round"/>
<path d="M228.414 300.522H216.357H204.31H192.253H180.196H168.14H156.083H144.026H131.97H119.913H107.856L105.183 308.242H117.682H130.19H142.69H155.198H167.697H180.205H192.704H205.212H217.712H230.22L228.414 300.522Z" fill="#263238" stroke="white" stroke-linecap="round" stroke-linejoin="round"/>
<path d="M212.825 280.375L211.701 273.954H201.185L201.946 280.375H212.825Z" fill="#263238" stroke="white" stroke-linecap="round" stroke-linejoin="round"/>
<path d="M311.553 321.793H43.6074V324.93H311.553V321.793Z" fill="#263238" stroke="#263238" stroke-linecap="round" stroke-linejoin="round"/>
<path d="M70.1589 402.538C70.1589 402.538 89.9523 368.33 92.9975 361.741C96.0426 355.152 138.683 338.515 140.967 335.355C143.251 332.196 146.279 322.491 148.589 318.412C150.899 314.333 148.97 312.757 150.492 309.305C152.015 305.854 154.679 301.775 150.873 301.775C147.066 301.775 142.118 305.226 140.206 310.874C138.294 316.522 130.69 321.236 130.69 321.236L131.071 317.47C131.451 313.698 136.019 302.088 137.922 299.578C139.825 297.068 151.253 287.028 152.776 286.714C154.299 286.4 157.724 289.224 161.15 289.224C164.576 289.224 165.337 287.035 163.434 285.773C161.531 284.51 160.008 280.431 155.467 277.921C150.926 275.411 145.951 277.921 145.951 277.921C144.681 276.179 143.283 274.502 141.764 272.901C139.852 271.018 136.045 267.881 131.097 266.939C129.648 266.666 128.143 266.666 126.693 266.937C125.244 267.209 123.887 267.746 122.723 268.508C120.97 268.208 119.196 267.998 117.412 267.881C113.605 267.567 110.941 269.449 107.134 274.448C103.328 279.446 97.2288 289.202 97.2288 289.202C97.2288 289.202 98.7514 280.096 98.7514 276.33C98.7514 272.565 99.132 268.486 97.2288 266.917C95.3256 265.348 93.4224 267.231 92.6611 272.879C91.8998 278.527 83.145 298.301 82.0385 303.635C80.932 308.969 68.716 338.471 62.2362 346.009C55.7564 353.546 20.7373 386.492 20.7373 386.492L70.1589 402.538ZM124.98 291.442C124.98 291.442 130.292 278.884 131.832 278.884C133.372 278.884 139.064 282.336 139.064 282.336L124.98 291.442Z" fill="white" stroke="#263238" stroke-linecap="round" stroke-linejoin="round"/>
<path d="M78.8961 317.273C78.8961 317.273 85.3848 300.542 86.4647 296.236C87.2349 293.201 89.9613 296.74 89.9613 296.74C89.9613 296.74 95.2726 293.609 95.2726 296.236C95.3331 297.906 96.03 299.517 97.2643 300.841C97.2643 300.841 96.0693 296.236 101.69 294.923C107.312 293.609 109.657 295.58 108.471 300.841C107.285 306.102 109.268 304.124 110.463 302.811C111.658 301.497 110.065 298.207 117.244 295.908C124.423 293.609 128.415 295.908 127.211 300.841C126.007 305.773 124.024 310.042 124.024 317.273C124.024 324.505 125.618 331.079 127.211 331.079C128.805 331.079 137.586 323.52 139.179 328.452C140.773 333.385 137.586 333.385 129.212 339.295C120.838 345.206 98.902 350.146 95.3169 356.078C91.7317 362.011 89.3328 365.608 86.9427 365.936C84.5526 366.265 80.5603 354.437 68.9906 355.721C57.4208 357.005 45.4615 366.571 48.2588 362.624C51.0561 358.676 61.4131 352.408 67.3972 341.258C73.3812 330.109 78.8961 317.273 78.8961 317.273Z" fill="#FF725E"/>
<path opacity="0.4" d="M78.8961 317.273C78.8961 317.273 85.3848 300.542 86.4647 296.236C87.2349 293.201 89.9613 296.74 89.9613 296.74C89.9613 296.74 95.2726 293.609 95.2726 296.236C95.3331 297.906 96.03 299.517 97.2643 300.841C97.2643 300.841 96.0693 296.236 101.69 294.923C107.312 293.609 109.657 295.58 108.471 300.841C107.285 306.102 109.268 304.124 110.463 302.811C111.658 301.497 110.065 298.207 117.244 295.908C124.423 293.609 128.415 295.908 127.211 300.841C126.007 305.773 124.024 310.042 124.024 317.273C124.024 324.505 125.618 331.079 127.211 331.079C128.805 331.079 137.586 323.52 139.179 328.452C140.773 333.385 137.586 333.385 129.212 339.295C120.838 345.206 98.902 350.146 95.3169 356.078C91.7317 362.011 89.3328 365.608 86.9427 365.936C84.5526 366.265 80.5603 354.437 68.9906 355.721C57.4208 357.005 45.4615 366.571 48.2588 362.624C51.0561 358.676 61.4131 352.408 67.3972 341.258C73.3812 330.109 78.8961 317.273 78.8961 317.273Z" fill="white"/>
<path d="M138.94 280.739C138.94 280.739 128.317 295.807 125.998 298.944C123.678 302.082 121.811 304.906 119.137 306.161C116.464 307.416 114.57 310.24 115.331 311.181" fill="white"/>
<path d="M138.94 280.739C138.94 280.739 128.317 295.807 125.998 298.944C123.678 302.082 121.811 304.906 119.137 306.161C116.464 307.416 114.57 310.24 115.331 311.181" stroke="#263238" stroke-linecap="round" stroke-linejoin="round"/>
<path d="M113.428 301.454C112.251 303.231 110.705 304.824 108.86 306.161C105.815 308.35 102.389 310.24 101.628 312.728C101.106 314.319 100.203 315.808 98.9722 317.106" fill="white"/>
<path d="M113.428 301.454C112.251 303.231 110.705 304.824 108.86 306.161C105.815 308.35 102.389 310.24 101.628 312.728C101.106 314.319 100.203 315.808 98.9722 317.106" stroke="#263238" stroke-linecap="round" stroke-linejoin="round"/>
<path d="M141.224 303.651C141.224 303.651 133.611 307.73 131.707 308.985C129.804 310.24 129.052 313.064 129.052 313.064" fill="white"/>
<path d="M141.224 303.651C141.224 303.651 133.611 307.73 131.707 308.985C129.804 310.24 129.052 313.064 129.052 313.064" stroke="#263238" stroke-linecap="round" stroke-linejoin="round"/>
<path d="M162.168 290.151L155.307 294.544" stroke="#263238" stroke-linecap="round" stroke-linejoin="round"/>
<path d="M331.094 382.865C331.094 382.865 296.446 354.94 293.782 349.3C291.117 343.659 291.879 342.397 289.595 338.354C287.311 334.312 280.459 327.329 280.079 322.301C279.698 317.273 276.653 305.35 276.653 301.271C276.653 297.192 275.511 291.231 273.997 290.289C272.484 289.348 264.092 287.772 264.092 287.772C264.092 287.772 259.524 275.849 256.125 275.221C252.726 274.594 245.812 277.71 245.812 277.71C245.812 277.71 244.29 275.52 242.386 272.062C240.483 268.603 237.075 268.61 232.87 269.873C228.665 271.135 220.3 273.952 220.3 273.952C220.3 273.952 210.784 267.99 207.739 271.763C204.694 275.535 200.887 282.431 200.126 284.941C199.365 287.451 204.632 287.363 205.774 286.736C206.916 286.108 211.2 283.511 211.2 283.511C211.2 283.511 219.539 288.706 221.061 291.537C222.584 294.368 225.629 307.539 226.01 310.049C226.39 312.56 224.868 320.404 224.868 320.404C224.868 320.404 217.636 309.736 214.245 306.598C210.855 303.46 205.871 301.578 202.065 301.578C198.258 301.578 195.594 305.029 198.639 306.598C201.684 308.167 205.11 310.049 205.871 312.246C206.632 314.442 214.245 325.745 215.007 329.824C215.768 333.903 221.097 342.061 226.045 344.571C230.994 347.081 249.273 350.219 252.699 353.05C256.125 355.881 280.495 395.73 280.495 395.73L331.094 382.865ZM227.152 279.899H233.251L239.722 290.26L227.152 279.899Z" fill="white" stroke="#263238" stroke-linecap="round" stroke-linejoin="round"/>
<path d="M275.494 305.766C275.494 305.766 271.068 295.55 265.925 297.55C260.781 299.549 259.94 300.512 259.94 300.512C259.94 300.512 257.143 296.864 252.363 298.207C247.583 299.549 245.981 296.893 245.981 296.893C245.981 296.893 239.598 293.609 235.615 296.236C231.631 298.863 234.818 306.094 236.411 312.012C238.005 317.93 234.42 329.437 233.623 330.422C232.826 331.407 222.053 327.467 220.858 331.079C219.663 334.691 224.443 342.586 234.021 345.213C243.599 347.84 250.77 349.161 254.381 352.116C257.993 355.071 267.146 376.444 275.122 378.086C283.098 379.728 291.87 370.198 300.244 370.855C308.618 371.511 319.383 376.444 315.001 372.168C310.619 367.892 292.269 352.466 291.1 346.862C289.932 341.258 285.514 337.325 283.523 334.698C281.531 332.072 277.928 316.288 276.689 312.005C276.04 309.963 275.639 307.873 275.494 305.766Z" fill="#FF725E"/>
<path opacity="0.4" d="M275.494 305.766C275.494 305.766 271.068 295.55 265.925 297.55C260.781 299.549 259.94 300.512 259.94 300.512C259.94 300.512 257.143 296.864 252.363 298.207C247.583 299.549 245.981 296.893 245.981 296.893C245.981 296.893 239.598 293.609 235.615 296.236C231.631 298.863 234.818 306.094 236.411 312.012C238.005 317.93 234.42 329.437 233.623 330.422C232.826 331.407 222.053 327.467 220.858 331.079C219.663 334.691 224.443 342.586 234.021 345.213C243.599 347.84 250.77 349.161 254.381 352.116C257.993 355.071 267.146 376.444 275.122 378.086C283.098 379.728 291.87 370.198 300.244 370.855C308.618 371.511 319.383 376.444 315.001 372.168C310.619 367.892 292.269 352.466 291.1 346.862C289.932 341.258 285.514 337.325 283.523 334.698C281.531 332.072 277.928 316.288 276.689 312.005C276.04 309.963 275.639 307.873 275.494 305.766Z" fill="white"/>
<path d="M262.055 289.918L267.366 298.076C267.366 298.076 269.535 302.359 271.731 304.162C273.926 305.964 275.838 307.321 276.661 309.583C277.485 311.845 277.75 312.969 277.75 312.969" fill="white"/>
<path d="M262.055 289.918L267.366 298.076C267.366 298.076 269.535 302.359 271.731 304.162C273.926 305.964 275.838 307.321 276.661 309.583C277.485 311.845 277.75 312.969 277.75 312.969" stroke="#263238" stroke-linecap="round" stroke-linejoin="round"/>
<path d="M236.543 286.175L243.395 292.136" stroke="#263238" stroke-linecap="round" stroke-linejoin="round"/>
<path d="M259.701 305.971C259.701 305.971 262.985 308 263.534 310.707L259.701 305.971Z" fill="white"/>
<path d="M259.701 305.971C259.701 305.971 262.985 308 263.534 310.707" stroke="#263238" stroke-linecap="round" stroke-linejoin="round"/>
<path d="M227.443 295.755C227.443 295.755 224.434 294.763 224.434 292.778L227.443 295.755Z" fill="white"/>
<path d="M227.443 295.755C227.443 295.755 224.434 294.763 224.434 292.778" stroke="#263238" stroke-linecap="round" stroke-linejoin="round"/>
<path d="M249.494 292.107C249.494 292.107 247.316 290.728 247.316 288.991L249.494 292.107Z" fill="white"/>
<path d="M249.494 292.107C249.494 292.107 247.316 290.728 247.316 288.991" stroke="#263238" stroke-linecap="round" stroke-linejoin="round"/>
<path d="M107.128 175.452C107.125 175.931 106.972 176.397 106.688 176.793C106.404 177.189 106.003 177.496 105.534 177.676C105.066 177.856 104.552 177.9 104.057 177.804C103.562 177.707 103.108 177.474 102.754 177.133C102.399 176.792 102.159 176.36 102.064 175.89C101.968 175.42 102.023 174.935 102.219 174.494C102.416 174.053 102.747 173.678 103.169 173.415C103.591 173.152 104.086 173.014 104.591 173.017C105.269 173.022 105.917 173.281 106.393 173.738C106.869 174.194 107.133 174.811 107.128 175.452Z" fill="#A6A6A6"/>
<path d="M117.349 175.521C117.346 175.999 117.192 176.466 116.909 176.862C116.625 177.257 116.223 177.565 115.755 177.745C115.287 177.924 114.773 177.969 114.278 177.872C113.783 177.776 113.329 177.542 112.974 177.202C112.619 176.861 112.379 176.429 112.284 175.959C112.189 175.489 112.243 175.003 112.44 174.563C112.637 174.122 112.967 173.747 113.389 173.484C113.812 173.221 114.307 173.082 114.812 173.086C115.49 173.09 116.138 173.349 116.614 173.806C117.089 174.263 117.354 174.88 117.349 175.521Z" fill="#EBEBEB"/>
<path d="M127.57 175.59C127.566 176.068 127.413 176.534 127.129 176.93C126.845 177.326 126.444 177.633 125.976 177.813C125.507 177.993 124.993 178.037 124.498 177.941C124.003 177.844 123.55 177.611 123.195 177.27C122.84 176.93 122.6 176.497 122.505 176.027C122.41 175.558 122.464 175.072 122.661 174.631C122.858 174.191 123.188 173.815 123.61 173.552C124.032 173.289 124.527 173.151 125.033 173.154C125.71 173.159 126.358 173.418 126.834 173.875C127.31 174.331 127.575 174.948 127.57 175.59Z" fill="white"/>
<path d="M113.767 198.873L108.656 198.839L108.64 200.988L113.751 201.023L113.767 198.873Z" fill="#EBEBEB"/>
<path d="M203.484 199.476L117.741 198.9L117.725 201.049L203.468 201.625L203.484 199.476Z" fill="#EBEBEB"/>
<path d="M217.113 199.567L206.892 199.499L206.875 201.648L217.096 201.717L217.113 199.567Z" fill="#FF725E"/>
<path d="M232.826 224.393L223.173 224.328L223.157 226.477L232.81 226.542L232.826 224.393Z" fill="#EBEBEB"/>
<path d="M253.454 199.811L219.384 199.583L219.368 201.732L253.438 201.961L253.454 199.811Z" fill="#A6A6A6"/>
<path d="M118.837 204.281L113.727 204.247L113.714 205.859L118.825 205.893L118.837 204.281Z" fill="#EBEBEB"/>
<path d="M163.129 204.579L122.812 204.308L122.8 205.92L163.117 206.191L163.129 204.579Z" fill="#A6A6A6"/>
<path d="M220.334 224.309L205.57 224.21L205.554 226.359L220.318 226.458L220.334 224.309Z" fill="#A6A6A6"/>
<path d="M155.638 219.038L117.593 218.782L117.577 220.932L155.621 221.187L155.638 219.038Z" fill="#A6A6A6"/>
<path d="M149.464 209.323L122.775 209.144L122.763 210.756L149.451 210.935L149.464 209.323Z" fill="#FF725E"/>
<path d="M240.281 214.77L213.593 214.591L213.581 216.203L240.269 216.382L240.281 214.77Z" fill="#A6A6A6"/>
<path d="M220.443 209.8L152.303 209.342L152.291 210.954L220.43 211.412L220.443 209.8Z" fill="#A6A6A6"/>
<path d="M202.164 224.187L117.557 223.618L117.541 225.768L202.148 226.336L202.164 224.187Z" fill="#FF725E"/>
<path d="M262.499 205.246L218.208 204.948L218.196 206.561L262.487 206.858L262.499 205.246Z" fill="#FF725E"/>
<path d="M215.936 204.933L165.399 204.594L165.387 206.206L215.924 206.545L215.936 204.933Z" fill="#EBEBEB"/>
<path d="M256.217 210.04L239.182 209.926L239.17 211.538L256.205 211.653L256.217 210.04Z" fill="#EBEBEB"/>
<path d="M118.801 209.117L113.69 209.083L113.678 210.695L118.789 210.729L118.801 209.117Z" fill="#EBEBEB"/>
<path d="M113.653 213.919L108.543 213.885L108.531 215.497L113.641 215.531L113.653 213.919Z" fill="#A6A6A6"/>
<path d="M148.86 214.156L117.629 213.946L117.617 215.558L148.848 215.768L148.86 214.156Z" fill="#EBEBEB"/>
<path d="M153.862 228.699L122.631 228.489L122.615 230.638L153.845 230.848L153.862 228.699Z" fill="#EBEBEB"/>
<path d="M246.945 234.698L206.062 234.423L206.049 236.035L246.933 236.31L246.945 234.698Z" fill="#FF725E"/>
<path d="M212.916 229.095L156.7 228.718L156.684 230.867L212.899 231.245L212.916 229.095Z" fill="#FF725E"/>
<path d="M203.222 234.404L150.981 234.053L150.969 235.665L203.21 236.016L203.222 234.404Z" fill="#EBEBEB"/>
<path d="M131.676 233.924L122.591 233.863L122.579 235.475L131.664 235.536L131.676 233.924Z" fill="#A6A6A6"/>
<path d="M216.964 219.45L157.909 219.053L157.893 221.203L216.948 221.599L216.964 219.45Z" fill="#EBEBEB"/>
<path d="M257.279 219.72L219.234 219.465L219.218 221.614L257.263 221.87L257.279 219.72Z" fill="#FF725E"/>
<path d="M211.321 214.575L152.267 214.178L152.255 215.791L211.309 216.187L211.321 214.575Z" fill="#FF725E"/>
<path d="M113.617 218.756L108.507 218.721L108.491 220.871L113.601 220.905L113.617 218.756Z" fill="#EBEBEB"/>
<path d="M113.581 223.592L108.471 223.557L108.455 225.707L113.565 225.741L113.581 223.592Z" fill="#EBEBEB"/>
<path d="M118.655 228.462L113.545 228.428L113.529 230.577L118.639 230.612L118.655 228.462Z" fill="#A6A6A6"/>
<path d="M118.615 233.836L113.505 233.802L113.493 235.414L118.603 235.448L118.615 233.836Z" fill="#EBEBEB"/>
<path d="M113.477 237.563L108.366 237.529L108.35 239.678L113.461 239.713L113.477 237.563Z" fill="#EBEBEB"/>
<path d="M118.547 242.971L113.437 242.937L113.424 244.549L118.535 244.583L118.547 242.971Z" fill="#EBEBEB"/>
<path d="M162.838 243.268L122.521 242.998L122.509 244.61L162.825 244.88L162.838 243.268Z" fill="#A6A6A6"/>
<path d="M149.173 248.013L122.485 247.834L122.473 249.446L149.161 249.625L149.173 248.013Z" fill="#FF725E"/>
<path d="M220.153 248.49L152.013 248.032L152.001 249.644L220.141 250.102L220.153 248.49Z" fill="#A6A6A6"/>
<path d="M262.208 243.936L217.917 243.638L217.905 245.25L262.196 245.548L262.208 243.936Z" fill="#FF725E"/>
<path d="M215.646 243.623L165.108 243.283L165.096 244.896L215.633 245.235L215.646 243.623Z" fill="#EBEBEB"/>
<path d="M118.511 247.807L113.4 247.773L113.388 249.385L118.499 249.419L118.511 247.807Z" fill="#EBEBEB"/>
<path d="M113.835 194.577L115.43 190.524C115.448 190.477 115.474 190.434 115.507 190.399C115.54 190.363 115.579 190.335 115.623 190.316C115.666 190.297 115.712 190.288 115.758 190.289C115.804 190.289 115.85 190.3 115.892 190.32C115.934 190.34 115.972 190.368 116.004 190.404C116.036 190.44 116.061 190.482 116.077 190.528C116.094 190.575 116.102 190.624 116.1 190.674C116.099 190.724 116.089 190.773 116.07 190.818L114.496 194.879C114.469 194.947 114.423 195.005 114.366 195.045C114.309 195.086 114.242 195.107 114.174 195.106C114.132 195.117 114.089 195.117 114.048 195.105C113.999 195.09 113.954 195.064 113.916 195.028C113.878 194.991 113.848 194.946 113.827 194.896C113.807 194.845 113.797 194.791 113.799 194.735C113.8 194.68 113.813 194.626 113.835 194.577Z" fill="#FF725E"/>
<path d="M327.629 219.91H321.335L321.684 215.89H327.28L327.629 219.91Z" fill="#EBEBEB"/>
<path d="M315.648 221.823L311.201 225.834L308.296 222.773L312.254 219.203L315.648 221.823Z" fill="#EBEBEB"/>
<path d="M194 131.885H231.818V109H194V131.885Z" fill="#FF725E"/>
<path opacity="0.6" d="M197.765 115.234C197.619 115.804 197.71 116.396 198.023 116.922C198.337 117.448 198.857 117.88 199.507 118.155C200.156 118.429 200.901 118.532 201.63 118.447C202.359 118.362 203.034 118.094 203.555 117.683C204.076 117.272 204.416 116.74 204.523 116.165C204.631 115.59 204.501 115.002 204.153 114.49C203.804 113.978 203.256 113.568 202.589 113.32C201.922 113.073 201.172 113.001 200.45 113.116C199.788 113.222 199.18 113.479 198.703 113.856C198.225 114.233 197.899 114.712 197.765 115.234Z" fill="white"/>
<path d="M206.476 128.187H231.818L219.15 115.869L206.476 128.187Z" fill="#FF725E"/>
<path opacity="0.2" d="M206.476 128.187H231.818L219.15 115.869L206.476 128.187Z" fill="black"/>
<path d="M194 128.199H216.475L205.235 120.177L194 128.199Z" fill="#FF725E"/>
<path opacity="0.1" d="M194 128.199H216.475L205.235 120.177L194 128.199Z" fill="black"/>
<path d="M231.819 128.187H194V133.117H231.819V128.187Z" fill="#FF725E"/>
<path opacity="0.1" d="M231.819 128.187H194V133.117H231.819V128.187Z" fill="black"/>
<path d="M355.857 167.266H305.569V196.199H355.857V167.266Z" fill="white"/>
<path d="M356.174 196.485H305.247V167H356.174V196.485ZM305.886 195.913H355.535V167.552H305.886V195.913Z" fill="#EBEBEB"/>
<path d="M355.857 167.266H305.569V172.74H355.857V167.266Z" fill="#455A64"/>
<path d="M311.261 170.042C311.261 170.315 311.171 170.582 311.003 170.809C310.835 171.037 310.595 171.214 310.315 171.318C310.035 171.422 309.727 171.449 309.43 171.396C309.133 171.342 308.86 171.21 308.647 171.016C308.433 170.823 308.287 170.576 308.229 170.308C308.17 170.04 308.202 169.763 308.318 169.51C308.435 169.258 308.632 169.043 308.884 168.892C309.137 168.741 309.433 168.661 309.736 168.662C309.937 168.662 310.136 168.697 310.321 168.767C310.506 168.836 310.675 168.938 310.816 169.066C310.958 169.194 311.07 169.347 311.147 169.514C311.223 169.682 311.262 169.861 311.261 170.042Z" fill="#FF725E"/>
<path d="M317.496 170.042C317.496 170.315 317.406 170.582 317.238 170.809C317.07 171.037 316.83 171.214 316.55 171.318C316.27 171.422 315.962 171.449 315.665 171.396C315.368 171.342 315.095 171.21 314.881 171.016C314.668 170.823 314.522 170.576 314.464 170.308C314.405 170.04 314.436 169.763 314.553 169.51C314.67 169.258 314.867 169.043 315.119 168.892C315.372 168.741 315.668 168.661 315.971 168.662C316.172 168.662 316.371 168.697 316.556 168.767C316.741 168.836 316.91 168.938 317.051 169.066C317.193 169.194 317.305 169.347 317.382 169.514C317.458 169.682 317.497 169.861 317.496 170.042Z" fill="#EBEBEB"/>
<path d="M323.731 170.042C323.731 170.315 323.642 170.582 323.473 170.809C323.305 171.037 323.065 171.214 322.785 171.318C322.505 171.422 322.197 171.449 321.9 171.396C321.603 171.342 321.331 171.21 321.117 171.016C320.903 170.823 320.758 170.576 320.699 170.308C320.641 170.04 320.672 169.763 320.788 169.51C320.905 169.258 321.102 169.043 321.355 168.892C321.607 168.741 321.903 168.661 322.206 168.662C322.407 168.662 322.606 168.697 322.791 168.767C322.977 168.836 323.145 168.938 323.287 169.066C323.428 169.194 323.541 169.347 323.617 169.514C323.693 169.682 323.732 169.861 323.731 170.042Z" fill="white"/>
<path d="M314.242 183.556C314.273 182.092 314.939 180.697 316.098 179.671C317.257 178.645 318.815 178.069 320.439 178.068C321.852 178.061 323.226 178.481 324.343 179.26C324.444 179.33 324.529 179.417 324.592 179.517C324.656 179.616 324.697 179.726 324.713 179.84C324.73 179.953 324.721 180.069 324.688 180.18C324.655 180.291 324.598 180.394 324.521 180.485C324.443 180.576 324.346 180.653 324.236 180.71C324.126 180.767 324.004 180.804 323.878 180.819C323.752 180.834 323.624 180.826 323.501 180.796C323.378 180.767 323.263 180.715 323.162 180.645C322.391 180.088 321.427 179.791 320.439 179.807C319.309 179.813 318.223 180.204 317.399 180.902C317.01 181.25 316.701 181.663 316.489 182.118C316.277 182.574 316.167 183.063 316.164 183.556C316.163 184.05 316.272 184.539 316.484 184.994C316.696 185.449 317.008 185.861 317.399 186.206C318.221 186.907 319.308 187.3 320.439 187.306C321.427 187.319 322.389 187.023 323.162 186.468C323.371 186.341 323.624 186.287 323.873 186.317C324.123 186.348 324.351 186.46 324.515 186.632C324.664 186.818 324.728 187.047 324.696 187.273C324.664 187.5 324.538 187.707 324.343 187.853C323.226 188.632 321.852 189.052 320.439 189.045C318.814 189.049 317.252 188.475 316.092 187.448C314.932 186.421 314.267 185.023 314.242 183.556Z" fill="#EBEBEB"/>
<path d="M327.426 186.376C327.574 186.215 327.786 186.113 328.016 186.093C328.247 186.073 328.477 186.137 328.656 186.269C329.561 186.963 330.692 187.375 331.878 187.441C332.629 187.455 333.366 187.259 333.989 186.879C334.2 186.764 334.378 186.603 334.505 186.411C334.632 186.22 334.706 186.003 334.719 185.78C334.722 185.608 334.668 185.439 334.563 185.296C334.441 185.1 334.267 184.934 334.058 184.811C333.341 184.449 332.557 184.206 331.744 184.094H331.712C330.96 183.98 330.228 183.781 329.531 183.503C328.891 183.25 328.345 182.837 327.958 182.312C327.7 181.936 327.566 181.503 327.571 181.062C327.588 180.622 327.719 180.191 327.954 179.805C328.189 179.419 328.522 179.088 328.924 178.839C329.78 178.299 330.802 178.016 331.846 178.03C333.182 178.091 334.467 178.517 335.53 179.25C335.719 179.366 335.849 179.545 335.893 179.747C335.938 179.949 335.892 180.159 335.766 180.331C335.705 180.418 335.625 180.494 335.531 180.553C335.437 180.612 335.331 180.654 335.219 180.675C335.107 180.697 334.991 180.698 334.879 180.679C334.766 180.66 334.659 180.62 334.563 180.563C333.704 180.045 332.877 179.594 331.846 179.594C331.169 179.583 330.506 179.765 329.95 180.113C329.765 180.216 329.61 180.358 329.499 180.526C329.388 180.695 329.323 180.885 329.311 181.081C329.301 181.231 329.342 181.38 329.429 181.508C329.55 181.667 329.705 181.802 329.886 181.905C330.534 182.25 331.251 182.479 331.996 182.578H332.028C332.834 182.702 333.618 182.917 334.365 183.217C335.048 183.487 335.633 183.925 336.051 184.482C336.319 184.869 336.461 185.318 336.459 185.775C336.444 186.245 336.304 186.705 336.05 187.117C335.797 187.528 335.438 187.879 335.004 188.139C334.09 188.719 332.995 189.022 331.878 189.006C330.292 188.938 328.773 188.404 327.555 187.485C327.381 187.35 327.271 187.16 327.247 186.953C327.223 186.747 327.287 186.541 327.426 186.376Z" fill="#EBEBEB"/>
<path d="M338.527 186.376C338.674 186.215 338.887 186.113 339.117 186.093C339.348 186.073 339.578 186.136 339.757 186.269C340.662 186.963 341.793 187.374 342.979 187.441C343.73 187.455 344.467 187.258 345.089 186.879C345.301 186.764 345.478 186.603 345.606 186.411C345.733 186.22 345.806 186.003 345.82 185.78C345.822 185.608 345.768 185.439 345.664 185.295C345.541 185.1 345.368 184.934 345.159 184.811C344.441 184.449 343.657 184.206 342.844 184.094H342.812C342.061 183.979 341.329 183.781 340.632 183.503C339.992 183.25 339.445 182.837 339.058 182.311C338.801 181.936 338.667 181.503 338.672 181.062C338.695 180.629 338.828 180.206 339.062 179.827C339.296 179.448 339.624 179.123 340.02 178.877C340.875 178.338 341.897 178.055 342.941 178.068C344.278 178.13 345.562 178.556 346.625 179.289C346.814 179.405 346.944 179.583 346.989 179.785C347.033 179.987 346.987 180.197 346.861 180.369C346.8 180.457 346.721 180.532 346.627 180.591C346.533 180.651 346.426 180.692 346.314 180.714C346.202 180.736 346.086 180.737 345.974 180.718C345.861 180.698 345.754 180.659 345.659 180.602C344.799 180.083 343.972 179.633 342.941 179.633C342.265 179.622 341.601 179.803 341.045 180.151C340.86 180.254 340.706 180.396 340.594 180.565C340.483 180.734 340.419 180.924 340.406 181.12C340.409 181.268 340.461 181.411 340.557 181.532C340.677 181.691 340.832 181.826 341.013 181.929C341.662 182.274 342.379 182.503 343.124 182.602H343.156C343.961 182.726 344.746 182.941 345.492 183.242C346.175 183.511 346.76 183.949 347.178 184.506C347.443 184.895 347.585 185.342 347.586 185.799C347.571 186.269 347.431 186.73 347.178 187.141C346.925 187.552 346.566 187.903 346.131 188.163C345.217 188.743 344.123 189.046 343.006 189.03C341.429 188.957 339.921 188.423 338.709 187.509C338.519 187.38 338.394 187.188 338.359 186.976C338.325 186.764 338.385 186.548 338.527 186.376Z" fill="#EBEBEB"/>
<path d="M327.232 213.482H299V224.923H327.232V213.482Z" fill="#455A64"/>
<path d="M307.399 219.711H306.228V221.576C306.228 221.705 306.172 221.828 306.071 221.919C305.97 222.01 305.834 222.061 305.691 222.061C305.549 222.061 305.412 222.01 305.312 221.919C305.211 221.828 305.154 221.705 305.154 221.576V216.5C305.154 216.371 305.211 216.248 305.312 216.157C305.412 216.067 305.549 216.016 305.691 216.016H307.394C307.935 216.016 308.454 216.209 308.837 216.555C309.219 216.9 309.435 217.368 309.435 217.856C309.435 218.344 309.219 218.813 308.837 219.158C308.454 219.503 307.935 219.697 307.394 219.697L307.399 219.711ZM306.228 218.743H307.399C307.528 218.743 307.656 218.72 307.775 218.675C307.894 218.631 308.003 218.565 308.094 218.483C308.185 218.401 308.258 218.303 308.307 218.195C308.356 218.088 308.382 217.973 308.382 217.856C308.382 217.74 308.356 217.625 308.307 217.517C308.258 217.409 308.185 217.312 308.094 217.229C308.003 217.147 307.894 217.082 307.775 217.037C307.656 216.993 307.528 216.97 307.399 216.97H306.228V218.743Z" fill="white"/>
<path d="M310.729 221.576V216.5C310.729 216.371 310.785 216.248 310.886 216.157C310.987 216.067 311.123 216.016 311.266 216.016C311.408 216.016 311.545 216.067 311.645 216.157C311.746 216.248 311.803 216.371 311.803 216.5V218.568H314.273V216.5C314.273 216.371 314.33 216.248 314.43 216.157C314.531 216.067 314.668 216.016 314.81 216.016C314.952 216.016 315.089 216.067 315.19 216.157C315.29 216.248 315.347 216.371 315.347 216.5V221.576C315.347 221.705 315.29 221.828 315.19 221.919C315.089 222.01 314.952 222.061 314.81 222.061C314.668 222.061 314.531 222.01 314.43 221.919C314.33 221.828 314.273 221.705 314.273 221.576V219.513H311.803V221.576C311.803 221.705 311.746 221.828 311.645 221.919C311.545 222.01 311.408 222.061 311.266 222.061C311.123 222.061 310.987 222.01 310.886 221.919C310.785 221.828 310.729 221.705 310.729 221.576Z" fill="white"/>
<path d="M319.718 219.711H318.548V221.576C318.548 221.705 318.491 221.828 318.39 221.919C318.29 222.01 318.153 222.061 318.011 222.061C317.868 222.061 317.732 222.01 317.631 221.919C317.53 221.828 317.474 221.705 317.474 221.576V216.5C317.474 216.371 317.53 216.248 317.631 216.157C317.732 216.067 317.868 216.016 318.011 216.016H319.718C320.26 216.016 320.779 216.209 321.161 216.555C321.544 216.9 321.759 217.368 321.759 217.856C321.759 218.344 321.544 218.813 321.161 219.158C320.779 219.503 320.26 219.697 319.718 219.697V219.711ZM318.548 218.743H319.718C319.848 218.743 319.975 218.72 320.095 218.675C320.214 218.631 320.322 218.565 320.413 218.483C320.505 218.401 320.577 218.303 320.626 218.195C320.676 218.088 320.701 217.973 320.701 217.856C320.701 217.74 320.676 217.625 320.626 217.517C320.577 217.409 320.505 217.312 320.413 217.229C320.322 217.147 320.214 217.082 320.095 217.037C319.975 216.993 319.848 216.97 319.718 216.97H318.548V218.743Z" fill="white"/>
<path opacity="0.8" d="M217.054 117.781C217.055 117.99 216.965 118.195 216.796 118.369C216.627 118.543 216.386 118.679 216.104 118.76C215.822 118.84 215.511 118.862 215.211 118.821C214.911 118.781 214.635 118.681 214.419 118.533C214.202 118.385 214.054 118.197 213.994 117.992C213.934 117.787 213.965 117.575 214.081 117.381C214.198 117.188 214.396 117.023 214.65 116.907C214.904 116.79 215.203 116.728 215.509 116.728C215.917 116.729 216.309 116.84 216.598 117.037C216.887 117.235 217.051 117.502 217.054 117.781Z" fill="#FF725E"/>
<path opacity="0.8" d="M224.005 134.335H220.916V135.744H224.005V134.335Z" fill="#EBEBEB"/>
<path opacity="0.8" d="M230.956 137.856H227.867V138.561H230.956V137.856Z" fill="#EBEBEB"/>
<path opacity="0.8" d="M219.274 126.953C219.297 126.971 219.316 126.993 219.328 127.018C219.341 127.042 219.347 127.068 219.347 127.094C219.347 127.12 219.341 127.147 219.328 127.171C219.316 127.195 219.297 127.217 219.274 127.236C219.229 127.272 219.168 127.292 219.105 127.292C219.038 127.293 218.974 127.273 218.926 127.236L217.829 126.345C217.827 126.342 217.826 126.339 217.826 126.336C217.826 126.333 217.827 126.329 217.829 126.326C217.825 126.318 217.825 126.309 217.829 126.3C217.829 126.3 217.829 126.3 217.829 126.281C217.829 126.262 217.829 126.281 217.829 126.281V126.259C217.829 126.259 217.829 126.259 217.829 126.24V126.202V126.176C217.829 126.176 217.829 126.176 217.829 126.149C217.829 126.149 217.829 126.149 217.853 126.13L218.949 125.236C218.996 125.2 219.059 125.179 219.124 125.179C219.189 125.179 219.251 125.2 219.298 125.236C219.321 125.255 219.339 125.277 219.352 125.301C219.364 125.325 219.371 125.351 219.371 125.378C219.371 125.404 219.364 125.43 219.352 125.454C219.339 125.479 219.321 125.501 219.298 125.519L218.356 126.274L219.274 126.953Z" fill="#FF725E"/>
<path opacity="0.8" d="M220.945 127.057L222.003 125.281C222.015 125.261 222.033 125.242 222.055 125.227C222.077 125.212 222.103 125.2 222.132 125.192C222.161 125.183 222.192 125.179 222.224 125.179C222.255 125.18 222.286 125.184 222.315 125.192C222.343 125.201 222.37 125.213 222.392 125.229C222.414 125.244 222.431 125.262 222.443 125.282C222.455 125.303 222.46 125.324 222.46 125.346C222.46 125.368 222.454 125.389 222.442 125.409L221.384 127.186C221.366 127.216 221.335 127.242 221.296 127.261C221.256 127.279 221.209 127.289 221.162 127.288C221.132 127.294 221.101 127.294 221.072 127.288C221.04 127.281 221.011 127.268 220.986 127.252C220.962 127.235 220.943 127.215 220.931 127.193C220.919 127.171 220.914 127.148 220.916 127.124C220.919 127.101 220.928 127.078 220.945 127.057Z" fill="#FF725E"/>
<path opacity="0.8" d="M224.755 126.356L224.72 126.378L223.093 127.238C223.021 127.273 222.926 127.293 222.827 127.292C222.731 127.292 222.638 127.273 222.569 127.238C222.535 127.22 222.507 127.198 222.489 127.175C222.47 127.152 222.46 127.126 222.46 127.101C222.46 127.076 222.47 127.051 222.489 127.027C222.507 127.004 222.535 126.982 222.569 126.964L223.966 126.236L222.569 125.508C222.535 125.49 222.507 125.469 222.489 125.445C222.47 125.422 222.46 125.397 222.46 125.371C222.46 125.346 222.47 125.321 222.489 125.297C222.507 125.274 222.535 125.253 222.569 125.235C222.639 125.199 222.733 125.179 222.831 125.179C222.929 125.179 223.022 125.199 223.093 125.235L224.72 126.098L224.755 126.116C224.755 126.116 224.755 126.134 224.755 126.141C224.755 126.149 224.755 126.141 224.755 126.141C224.753 126.151 224.753 126.161 224.755 126.171V126.247C224.755 126.247 224.755 126.269 224.755 126.276C224.77 126.288 224.778 126.302 224.778 126.316C224.778 126.33 224.77 126.344 224.755 126.356Z" fill="#FF725E"/>
<path d="M362.098 239.826H311.81V268.759H362.098V239.826Z" fill="white"/>
<path d="M362.415 269.049H311.493V239.54H362.415V269.049ZM312.127 268.473H361.781V240.117H312.127V268.473Z" fill="#EBEBEB"/>
<path d="M362.098 239.826H311.81V245.299H362.098V239.826Z" fill="#455A64"/>
<path d="M362.415 245.585H311.493V239.54H362.415V245.585ZM312.127 245.014H361.781V240.117H312.127V245.014Z" fill="#EBEBEB"/>
<path d="M337.804 267.955C337.804 268.227 337.714 268.493 337.547 268.72C337.379 268.946 337.141 269.122 336.862 269.226C336.584 269.33 336.277 269.358 335.981 269.305C335.685 269.252 335.413 269.12 335.2 268.928C334.987 268.736 334.842 268.491 334.783 268.224C334.724 267.957 334.754 267.68 334.87 267.429C334.985 267.178 335.18 266.963 335.431 266.812C335.682 266.66 335.977 266.58 336.279 266.58C336.479 266.58 336.677 266.615 336.862 266.684C337.047 266.754 337.215 266.855 337.357 266.983C337.499 267.11 337.611 267.262 337.688 267.429C337.764 267.596 337.804 267.775 337.804 267.955Z" fill="#FF725E"/>
<path d="M323.737 242.602C323.737 242.874 323.648 243.14 323.48 243.366C323.313 243.592 323.075 243.768 322.796 243.873C322.517 243.977 322.21 244.004 321.915 243.951C321.619 243.898 321.347 243.767 321.134 243.574C320.92 243.382 320.775 243.137 320.716 242.87C320.657 242.603 320.688 242.327 320.803 242.075C320.919 241.824 321.114 241.609 321.365 241.458C321.616 241.307 321.911 241.226 322.212 241.226C322.617 241.226 323.005 241.371 323.291 241.629C323.577 241.887 323.737 242.237 323.737 242.602Z" fill="#EBEBEB"/>
<path d="M329.973 242.601C329.974 242.875 329.884 243.143 329.716 243.371C329.548 243.599 329.308 243.777 329.028 243.882C328.747 243.986 328.439 244.014 328.141 243.96C327.843 243.906 327.57 243.773 327.356 243.579C327.142 243.385 326.997 243.137 326.939 242.868C326.882 242.6 326.914 242.321 327.032 242.069C327.15 241.817 327.349 241.602 327.603 241.452C327.857 241.302 328.155 241.223 328.458 241.226C328.861 241.228 329.246 241.374 329.53 241.632C329.814 241.89 329.973 242.238 329.973 242.601Z" fill="white"/>
<path d="M321.197 256.131C321.227 254.667 321.891 253.271 323.047 252.244C324.204 251.216 325.761 250.638 327.384 250.633C328.796 250.625 330.17 251.043 331.288 251.82C331.493 251.962 331.626 252.171 331.659 252.402C331.693 252.632 331.623 252.866 331.465 253.05C331.308 253.234 331.076 253.355 330.82 253.385C330.564 253.415 330.306 253.352 330.101 253.21C329.334 252.65 328.371 252.353 327.384 252.372C326.254 252.377 325.168 252.768 324.344 253.466C323.955 253.814 323.646 254.227 323.434 254.683C323.222 255.138 323.112 255.627 323.109 256.121C323.108 256.615 323.217 257.104 323.429 257.559C323.641 258.014 323.952 258.426 324.344 258.771C325.166 259.473 326.253 259.866 327.384 259.87C328.37 259.885 329.331 259.588 330.101 259.032C330.31 258.905 330.563 258.851 330.813 258.882C331.062 258.912 331.291 259.024 331.455 259.197C331.604 259.381 331.669 259.61 331.638 259.837C331.607 260.063 331.482 260.271 331.288 260.418C330.17 261.194 328.796 261.612 327.384 261.604C325.763 261.606 324.206 261.033 323.049 260.009C321.892 258.985 321.227 257.592 321.197 256.131Z" fill="#EBEBEB"/>
<path d="M337.399 257.099H334.999C334.752 257.099 334.516 257.011 334.342 256.854C334.168 256.697 334.07 256.484 334.07 256.261C334.07 256.039 334.168 255.826 334.342 255.669C334.516 255.512 334.752 255.423 334.999 255.423H337.399V253.302C337.418 253.082 337.527 252.877 337.706 252.728C337.885 252.578 338.12 252.495 338.363 252.495C338.607 252.495 338.842 252.578 339.021 252.728C339.2 252.877 339.309 253.082 339.327 253.302V255.423H341.728C341.974 255.423 342.211 255.512 342.385 255.669C342.559 255.826 342.657 256.039 342.657 256.261C342.657 256.484 342.559 256.697 342.385 256.854C342.211 257.011 341.974 257.099 341.728 257.099H339.327V259.216C339.337 259.336 339.32 259.456 339.276 259.569C339.232 259.682 339.162 259.786 339.072 259.874C338.981 259.962 338.872 260.032 338.75 260.08C338.628 260.128 338.496 260.153 338.363 260.153C338.23 260.153 338.099 260.128 337.977 260.08C337.855 260.032 337.745 259.962 337.655 259.874C337.564 259.786 337.495 259.682 337.451 259.569C337.407 259.456 337.39 259.336 337.399 259.216V257.099Z" fill="#EBEBEB"/>
<path d="M347.878 257.099H345.477C345.355 257.099 345.234 257.078 345.121 257.035C345.009 256.993 344.906 256.932 344.82 256.854C344.734 256.776 344.665 256.684 344.619 256.582C344.572 256.48 344.548 256.371 344.548 256.261C344.548 256.151 344.572 256.042 344.619 255.941C344.665 255.839 344.734 255.746 344.82 255.669C344.906 255.591 345.009 255.529 345.121 255.487C345.234 255.445 345.355 255.423 345.477 255.423H347.878V253.302C347.876 253.187 347.9 253.074 347.948 252.968C347.996 252.862 348.066 252.766 348.156 252.686C348.245 252.605 348.352 252.541 348.469 252.498C348.587 252.455 348.712 252.433 348.839 252.435C349.094 252.435 349.338 252.526 349.519 252.688C349.699 252.851 349.8 253.072 349.8 253.302V255.423H352.201C352.447 255.423 352.683 255.511 352.858 255.669C353.032 255.826 353.13 256.039 353.13 256.261C353.13 256.483 353.032 256.697 352.858 256.854C352.683 257.011 352.447 257.099 352.201 257.099H349.8V259.216C349.801 259.33 349.776 259.444 349.728 259.549C349.68 259.655 349.61 259.751 349.52 259.832C349.431 259.913 349.325 259.978 349.208 260.021C349.091 260.065 348.965 260.088 348.839 260.088C348.712 260.089 348.586 260.068 348.468 260.024C348.35 259.981 348.244 259.916 348.154 259.835C348.064 259.754 347.994 259.657 347.946 259.551C347.899 259.444 347.875 259.331 347.878 259.216V257.099Z" fill="#EBEBEB"/>
<path d="M55.7305 29.4478L46.5288 39.2155L47.4801 40.1135L56.6819 30.3458L55.7305 29.4478Z" fill="#263238"/>
<path d="M56.4291 39.4185H47.0059V40.7275H56.4291V39.4185Z" fill="#455A64"/>
<path d="M56.4291 29.2353H47.0059V30.5442H56.4291V29.2353Z" fill="#455A64"/>
<path d="M47.4818 29.4371L46.5303 30.335L55.7302 40.1042L56.6817 39.2064L47.4818 29.4371Z" fill="#455A64"/>
<path d="M55.7309 39.6185L46.5293 49.3861L47.4806 50.2841L56.6823 40.5165L55.7309 39.6185Z" fill="#263238"/>
<path d="M56.4291 49.5958H47.0059V50.9048H56.4291V49.5958Z" fill="#455A64"/>
<path d="M56.4291 39.4185H47.0059V40.7275H56.4291V39.4185Z" fill="#455A64"/>
<path d="M47.4857 39.6109L46.5342 40.5087L55.7341 50.278L56.6856 49.3801L47.4857 39.6109Z" fill="#455A64"/>
<path d="M55.7305 49.8053L46.5288 59.5729L47.4802 60.471L56.6819 50.7033L55.7305 49.8053Z" fill="#263238"/>
<path d="M56.4291 59.7793H47.0059V61.0882H56.4291V59.7793Z" fill="#455A64"/>
<path d="M56.4291 49.5958H47.0059V50.9048H56.4291V49.5958Z" fill="#455A64"/>
<path d="M47.4876 49.7946L46.5361 50.6925L55.7362 60.4618L56.6877 59.5639L47.4876 49.7946Z" fill="#455A64"/>
<path d="M55.7315 59.9819L46.5298 69.7496L47.4811 70.6476L56.6828 60.88L55.7315 59.9819Z" fill="#263238"/>
<path d="M56.4291 69.9566H47.0059V71.2655H56.4291V69.9566Z" fill="#455A64"/>
<path d="M56.4291 59.7793H47.0059V61.0882H56.4291V59.7793Z" fill="#455A64"/>
<path d="M47.4862 59.9682L46.5347 60.866L55.7347 70.6353L56.6862 69.7374L47.4862 59.9682Z" fill="#455A64"/>
<path d="M55.7305 70.1689L46.5288 79.9365L47.4801 80.8346L56.6818 71.0669L55.7305 70.1689Z" fill="#263238"/>
<path d="M56.4291 80.1339H47.0059V81.4428H56.4291V80.1339Z" fill="#455A64"/>
<path d="M56.4291 69.9566H47.0059V71.2655H56.4291V69.9566Z" fill="#455A64"/>
<path d="M47.4837 70.1478L46.5322 71.0457L55.7322 80.8149L56.6837 79.9171L47.4837 70.1478Z" fill="#455A64"/>
<path d="M56.4995 80.8005L47.2451 90.6013L48.1997 91.5044L57.454 81.7037L56.4995 80.8005Z" fill="#263238"/>
<path d="M56.4291 90.3174H47.0059V91.6263H56.4291V90.3174Z" fill="#455A64"/>
<path d="M56.4291 80.1339H47.0059V81.4428H56.4291V80.1339Z" fill="#455A64"/>
<path d="M47.4862 80.3319L46.5347 81.2298L55.7347 90.9991L56.6862 90.1012L47.4862 80.3319Z" fill="#455A64"/>
<path d="M56.52 91.0172L47.2656 100.818L48.2202 101.721L57.4746 91.9204L56.52 91.0172Z" fill="#263238"/>
<path d="M56.4291 100.495H47.0059V101.804H56.4291V100.495Z" fill="#455A64"/>
<path d="M56.4291 90.3174H47.0059V91.6263H56.4291V90.3174Z" fill="#455A64"/>
<path d="M47.4842 90.5054L46.5327 91.4033L55.7327 101.173L56.6842 100.275L47.4842 90.5054Z" fill="#455A64"/>
<path d="M55.7325 100.703L46.5308 110.471L47.4821 111.369L56.6838 101.601L55.7325 100.703Z" fill="#263238"/>
<path d="M56.4291 110.672H47.0059V111.981H56.4291V110.672Z" fill="#455A64"/>
<path d="M56.4291 100.495H47.0059V101.804H56.4291V100.495Z" fill="#455A64"/>
<path d="M47.4866 100.689L46.5352 101.587L55.7351 111.356L56.6866 110.459L47.4866 100.689Z" fill="#455A64"/>
<path d="M55.7334 110.874L46.5317 120.641L47.4831 121.539L56.6847 111.772L55.7334 110.874Z" fill="#263238"/>
<path d="M56.4291 120.855H47.0059V122.164H56.4291V120.855Z" fill="#455A64"/>
<path d="M56.4291 110.672H47.0059V111.981H56.4291V110.672Z" fill="#455A64"/>
<path d="M47.4906 110.869L46.5391 111.767L55.7391 121.536L56.6906 120.638L47.4906 110.869Z" fill="#455A64"/>
<path d="M55.731 121.064L46.5327 130.834L47.4844 131.732L56.6826 121.961L55.731 121.064Z" fill="#263238"/>
<path d="M56.4291 131.033H47.0059V132.342H56.4291V131.033Z" fill="#455A64"/>
<path d="M56.4291 120.855H47.0059V122.164H56.4291V120.855Z" fill="#455A64"/>
<path d="M47.4827 121.049L46.5312 121.946L55.7313 131.716L56.6828 130.818L47.4827 121.049Z" fill="#455A64"/>
<path d="M55.7285 131.244L46.5303 141.015L47.4819 141.912L56.6802 132.141L55.7285 131.244Z" fill="#263238"/>
<path d="M56.4291 141.216H47.0059V142.525H56.4291V141.216Z" fill="#455A64"/>
<path d="M56.4291 131.033H47.0059V132.342H56.4291V131.033Z" fill="#455A64"/>
<path d="M47.4906 131.227L46.5391 132.124L55.7391 141.894L56.6906 140.996L47.4906 131.227Z" fill="#455A64"/>
<path d="M58.3188 147.004V141.078H44.7268V147.004H58.3188Z" fill="#455A64"/>
<path d="M48.1274 141.456L48.1274 29.7756H44.7204L44.7204 141.456H48.1274Z" fill="#455A64"/>
<path d="M58.3188 141.45L58.3188 29.7695H54.9119L54.9119 141.45H58.3188Z" fill="#455A64"/>
<path d="M147.867 28.9709L137.682 18.9257L51.733 2.89406L25.6106 19.0037L24.9268 17.8869L51.4751 1.51306L138.318 17.7128L148.785 28.0403L147.867 28.9709Z" fill="#455A64"/>
<path d="M62.0976 20.3367L51.6306 5.77013L41.6075 20.3126L39.4541 18.8296L51.5826 1.23083L64.2209 18.8056L62.0976 20.3367Z" fill="#263238"/>
<path d="M128.101 20.0919L127.204 21.0443L136.963 30.2536L137.86 29.3012L128.101 20.0919Z" fill="#263238"/>
<path d="M138.468 20.3367H137.161V29.7696H138.468V20.3367Z" fill="#455A64"/>
<path d="M128.301 20.3367H126.993V29.7696H128.301V20.3367Z" fill="#455A64"/>
<path d="M136.953 20.076L127.195 29.287L128.092 30.2394L137.85 21.0283L136.953 20.076Z" fill="#455A64"/>
<path d="M117.926 20.0925L117.029 21.0449L126.788 30.2542L127.685 29.3018L117.926 20.0925Z" fill="#263238"/>
<path d="M128.301 20.3367H126.993V29.7696H128.301V20.3367Z" fill="#455A64"/>
<path d="M118.134 20.3367H116.826V29.7696H118.134V20.3367Z" fill="#455A64"/>
<path d="M126.785 20.0753L117.027 29.2863L117.924 30.2386L127.682 21.0276L126.785 20.0753Z" fill="#455A64"/>
<path d="M107.761 20.0947L106.864 21.0471L116.623 30.2564L117.52 29.304L107.761 20.0947Z" fill="#263238"/>
<path d="M118.134 20.3367H116.826V29.7696H118.134V20.3367Z" fill="#455A64"/>
<path d="M107.961 20.3367H106.653V29.7696H107.961V20.3367Z" fill="#455A64"/>
<path d="M116.617 20.0747L106.859 29.2857L107.756 30.238L117.514 21.027L116.617 20.0747Z" fill="#455A64"/>
<path d="M97.5893 20.0908L96.6924 21.0433L106.452 30.2526L107.349 29.3001L97.5893 20.0908Z" fill="#263238"/>
<path d="M107.961 20.3367H106.653V29.7696H107.961V20.3367Z" fill="#455A64"/>
<path d="M97.7935 20.3367H96.4858V29.7696H97.7935V20.3367Z" fill="#455A64"/>
<path d="M106.444 20.0781L96.686 29.2891L97.5832 30.2414L107.341 21.0304L106.444 20.0781Z" fill="#455A64"/>
<path d="M87.4204 20.0914L86.5234 21.0439L96.2828 30.2532L97.1798 29.3007L87.4204 20.0914Z" fill="#263238"/>
<path d="M97.7935 20.3367H96.4858V29.7696H97.7935V20.3367Z" fill="#455A64"/>
<path d="M87.6206 20.3367H86.313V29.7696H87.6206V20.3367Z" fill="#455A64"/>
<path d="M96.2763 20.0775L86.5186 29.2885L87.4157 30.2408L97.1735 21.0298L96.2763 20.0775Z" fill="#455A64"/>
<path d="M77.2495 20.0938L76.3525 21.0463L86.1119 30.2556L87.0089 29.3031L77.2495 20.0938Z" fill="#263238"/>
<path d="M87.6206 20.3367H86.313V29.7696H87.6206V20.3367Z" fill="#455A64"/>
<path d="M77.4531 20.3367H76.1455V29.7696H77.4531V20.3367Z" fill="#455A64"/>
<path d="M86.1142 20.0709L76.3564 29.2819L77.2536 30.2342L87.0114 21.0232L86.1142 20.0709Z" fill="#455A64"/>
<path d="M67.0742 20.0942L66.1772 21.0467L75.9366 30.256L76.8336 29.3035L67.0742 20.0942Z" fill="#263238"/>
<path d="M77.4531 20.3367H76.1455V29.7696H77.4531V20.3367Z" fill="#455A64"/>
<path d="M67.2862 20.3367H65.9785V29.7696H67.2862V20.3367Z" fill="#455A64"/>
<path d="M75.9419 20.0803L66.1841 29.2913L67.0812 30.2436L76.839 21.0326L75.9419 20.0803Z" fill="#455A64"/>
<path d="M56.9087 20.0905L56.0117 21.043L65.7711 30.2523L66.668 29.2998L56.9087 20.0905Z" fill="#263238"/>
<path d="M67.2862 20.3367H65.9785V29.7696H67.2862V20.3367Z" fill="#455A64"/>
<path d="M57.1129 20.3367H55.8052V29.7696H57.1129V20.3367Z" fill="#455A64"/>
<path d="M65.7734 20.0737L56.0156 29.2847L56.9127 30.237L66.6705 21.026L65.7734 20.0737Z" fill="#455A64"/>
<path d="M46.7378 20.0867L45.8408 21.0391L55.6002 30.2484L56.4972 29.296L46.7378 20.0867Z" fill="#263238"/>
<path d="M57.1129 20.3367H55.8052V29.7696H57.1129V20.3367Z" fill="#455A64"/>
<path d="M46.9463 20.3367H45.6387V29.7696H46.9463V20.3367Z" fill="#455A64"/>
<path d="M55.6006 20.0771L45.8428 29.2881L46.7399 30.2404L56.4977 21.0294L55.6006 20.0771Z" fill="#455A64"/>
<path d="M36.5688 20.0933L35.6719 21.0458L45.4313 30.2551L46.3282 29.3026L36.5688 20.0933Z" fill="#263238"/>
<path d="M46.9463 20.3367H45.6387V29.7696H46.9463V20.3367Z" fill="#455A64"/>
<path d="M36.7793 20.3367H35.4717V29.7696H36.7793V20.3367Z" fill="#455A64"/>
<path d="M45.4326 20.0765L35.6748 29.2875L36.5719 30.2398L46.3297 21.0288L45.4326 20.0765Z" fill="#455A64"/>
<path d="M26.397 20.0895L25.5 21.0419L35.2594 30.2512L36.1563 29.2988L26.397 20.0895Z" fill="#263238"/>
<path d="M36.7793 20.3367H35.4717V29.7696H36.7793V20.3367Z" fill="#455A64"/>
<path d="M26.6055 20.3367H25.2979V29.7696H26.6055V20.3367Z" fill="#455A64"/>
<path d="M35.2646 20.0818L25.5068 29.2928L26.404 30.2451L36.1618 21.0341L35.2646 20.0818Z" fill="#455A64"/>
<path d="M24.9143 17.8688H19V31.4746H24.9143V17.8688Z" fill="#263238"/>
<path d="M30.8349 17.8688H24.9146V31.4746H30.8349V17.8688Z" fill="#455A64"/>
<path d="M38.6565 31.4749H27.3018V38.2598H38.6565V31.4749Z" fill="#455A64"/>
<path d="M148.785 28.0643H24.9146V31.4748H148.785V28.0643Z" fill="#455A64"/>
<path d="M141.719 21.2792H24.9146V17.8688H138.39L141.719 21.2792Z" fill="#455A64"/>
<path d="M140.699 20.3367H139.391V29.7696H140.699V20.3367Z" fill="#455A64"/>
<path d="M120.497 91.374C121.282 90.2812 122.122 89.2245 122.962 88.1797C123.802 87.1349 124.671 86.1082 125.547 85.0935L125.781 84.8173L126.003 85.0995C127.299 86.7146 128.588 88.3298 129.842 89.975L131.725 92.4488C132.325 93.2894 132.925 94.112 133.525 94.9586C132.823 94.1961 132.151 93.4095 131.467 92.6349L129.452 90.2692C128.114 88.6901 126.813 87.0869 125.517 85.4657H125.973C125.085 86.4745 124.204 87.4832 123.28 88.4679C122.356 89.4526 121.468 90.4373 120.497 91.374Z" fill="#263238"/>
<path d="M120.767 32.8678H119.459V73.7454H120.767V32.8678Z" fill="#263238"/>
<path d="M131.828 33.3001H130.52V74.1777H131.828V33.3001Z" fill="#263238"/>
<path d="M134.346 31.4749H117.113V34.2549H134.346V31.4749Z" fill="#455A64"/>
<path d="M126.387 76.9936L126.243 79.8937L125.823 79.3953C126.288 79.5127 126.731 79.7032 127.136 79.9597C127.558 80.2133 127.913 80.5631 128.174 80.9805C128.423 81.3997 128.549 81.8811 128.536 82.3689C128.524 82.8567 128.373 83.3308 128.102 83.7365C127.848 84.1183 127.501 84.4289 127.094 84.6391C126.687 84.8492 126.233 84.9519 125.775 84.9373C125.338 84.9035 124.915 84.7687 124.54 84.5437C124.164 84.3187 123.846 84.0095 123.609 83.6404C123.865 83.9686 124.193 84.2331 124.567 84.4134C124.942 84.5936 125.353 84.6845 125.769 84.6791C126.161 84.656 126.541 84.5338 126.874 84.3238C127.206 84.1138 127.48 83.8229 127.67 83.4783C127.846 83.1546 127.926 82.788 127.903 82.4205C127.88 82.053 127.753 81.6996 127.538 81.4008C127.049 80.8464 126.376 80.4881 125.643 80.392L125.247 80.332V79.8937L125.103 76.9936H126.387Z" fill="#263238"/>
<path d="M134.347 71.0374V75.7749L125.733 77.8223L117.12 75.7749V71.0374H134.347Z" fill="#455A64"/>
<path d="M121.067 73.8174C121.067 74.016 121.008 74.2101 120.898 74.3751C120.787 74.5401 120.631 74.6687 120.447 74.7444C120.264 74.8201 120.062 74.8396 119.868 74.8004C119.673 74.7612 119.495 74.6651 119.355 74.5243C119.215 74.3835 119.12 74.2042 119.082 74.0093C119.044 73.8144 119.065 73.6126 119.141 73.4295C119.218 73.2464 119.348 73.0902 119.513 72.9808C119.679 72.8713 119.873 72.8135 120.071 72.8147C120.202 72.8147 120.332 72.8407 120.454 72.8911C120.575 72.9416 120.685 73.0156 120.777 73.1088C120.87 73.2019 120.943 73.3125 120.993 73.4342C121.043 73.5558 121.068 73.686 121.067 73.8174Z" fill="#263238"/>
<path d="M132.398 73.8174C132.398 74.0157 132.339 74.2096 132.229 74.3745C132.119 74.5394 131.963 74.6679 131.78 74.7438C131.597 74.8197 131.395 74.8396 131.201 74.8009C131.007 74.7622 130.828 74.6667 130.688 74.5264C130.548 74.3862 130.452 74.2075 130.414 74.013C130.375 73.8185 130.395 73.6169 130.471 73.4337C130.547 73.2505 130.675 73.0939 130.84 72.9837C131.004 72.8735 131.198 72.8147 131.396 72.8147C131.528 72.8147 131.658 72.8406 131.78 72.891C131.901 72.9414 132.012 73.0153 132.105 73.1084C132.198 73.2015 132.271 73.312 132.322 73.4337C132.372 73.5553 132.398 73.6857 132.398 73.8174Z" fill="#263238"/>
<path d="M53.8141 2.20359C53.8153 2.64086 53.6869 3.06865 53.445 3.43281C53.2032 3.79696 52.8589 4.08111 52.4557 4.24927C52.0524 4.41743 51.6084 4.46204 51.1798 4.37747C50.7512 4.29289 50.3574 4.08292 50.0481 3.77414C49.7388 3.46537 49.5279 3.07166 49.4423 2.64288C49.3566 2.2141 49.4 1.76951 49.5669 1.36541C49.7338 0.961306 50.0167 0.615858 50.3798 0.372798C50.7429 0.129737 51.1699 1.61448e-06 51.6068 0C52.1912 -2.15981e-06 52.7517 0.23197 53.1655 0.645053C53.5793 1.05814 53.8126 1.61861 53.8141 2.20359Z" fill="#A6A6A6"/>
<path d="M52.6381 2.2034C52.6381 2.40766 52.5776 2.60733 52.4642 2.77716C52.3509 2.947 52.1897 3.07936 52.0012 3.15753C51.8127 3.2357 51.6053 3.25615 51.4051 3.2163C51.205 3.17645 51.0212 3.07809 50.8769 2.93366C50.7326 2.78923 50.6343 2.60521 50.5945 2.40488C50.5547 2.20455 50.5752 1.99689 50.6532 1.80818C50.7313 1.61947 50.8636 1.45818 51.0332 1.3447C51.2029 1.23122 51.4023 1.17065 51.6064 1.17065C51.88 1.17065 52.1424 1.27946 52.3359 1.47313C52.5294 1.66681 52.6381 1.9295 52.6381 2.2034Z" fill="#455A64"/>
<path d="M61.0359 147.004H42.0034V151.508H61.0359V147.004Z" fill="#263238"/>
<path d="M65.1624 151.508H37.8823V160.34H65.1624V151.508Z" fill="#455A64"/>
<path d="M62.5894 39.3345H42.1953V16.7822H55.4995C56.6258 16.7838 57.7133 17.1942 58.5604 17.9373C59.4074 18.6803 59.9566 19.7056 60.1061 20.8231L62.5894 39.3345Z" fill="#FF725E"/>
<path d="M57.0473 32.4894H47.498C47.3945 32.491 47.2913 32.4768 47.1921 32.4473C46.9709 32.3795 46.7771 32.2428 46.639 32.057C46.5009 31.8712 46.4257 31.6462 46.4243 31.4146V19.3579H53.2144C53.444 19.3557 53.6732 19.3779 53.8982 19.4239C54.4058 19.5121 54.8898 19.7043 55.3198 19.9883C55.6164 20.1898 55.883 20.4323 56.1115 20.7088C56.5738 21.2618 56.8711 21.934 56.9693 22.6483L58.109 31.2705C58.1295 31.4222 58.1174 31.5766 58.0734 31.7233C58.0295 31.8699 57.9548 32.0055 57.8542 32.1209C57.7537 32.2363 57.6297 32.3289 57.4905 32.3925C57.3514 32.456 57.2002 32.489 57.0473 32.4894Z" fill="#263238"/>
<g opacity="0.4">
<path opacity="0.4" d="M56.0521 26.1969C56.0512 26.4832 55.9369 26.7574 55.7342 26.9594L50.2098 32.4894H47.5286C47.4251 32.491 47.3219 32.4769 47.2227 32.4474L54.2226 25.4403C54.374 25.3011 54.562 25.2084 54.7645 25.173C54.9669 25.1377 55.1753 25.1612 55.3648 25.2409C55.5542 25.3206 55.7169 25.453 55.8334 25.6224C55.9499 25.7919 56.0154 25.9913 56.0221 26.1969H56.0521Z" fill="white"/>
<path opacity="0.4" d="M56.1118 20.7209L46.4546 30.4059V28.8928L55.35 19.9884C55.6369 20.1957 55.8933 20.4423 56.1118 20.7209Z" fill="white"/>
<path opacity="0.4" d="M53.8986 19.424L48.3921 24.924C48.2385 25.0569 48.0403 25.1266 47.8374 25.1192C47.6345 25.1118 47.442 25.0278 47.2984 24.884C47.1548 24.7403 47.0709 24.5476 47.0635 24.3445C47.0561 24.1414 47.1258 23.943 47.2585 23.7892L51.6972 19.352H53.2148C53.4446 19.3518 53.6738 19.376 53.8986 19.424Z" fill="white"/>
</g>
<path d="M156.414 101.723L101.568 85.7212L91.6933 119.635L146.538 135.638L156.414 101.723Z" fill="white"/>
<path d="M90.8413 122.14V122.05L101.452 85.6039L101.548 85.634L156.48 101.666L145.839 138.202L145.75 138.172L90.8413 122.14ZM101.638 85.8441L91.0932 122.014L145.75 137.962L156.288 101.78L101.638 85.8441Z" fill="#DBDBDB"/>
<path d="M129.914 113.722C129.554 114.954 128.838 116.052 127.855 116.876C126.872 117.701 125.667 118.215 124.393 118.354C123.118 118.493 121.831 118.251 120.693 117.658C119.556 117.064 118.62 116.147 118.004 115.021C117.388 113.896 117.119 112.613 117.231 111.334C117.343 110.055 117.831 108.839 118.634 107.838C119.437 106.837 120.518 106.097 121.741 105.711C122.964 105.325 124.274 105.311 125.505 105.671C126.323 105.909 127.086 106.307 127.75 106.841C128.414 107.375 128.967 108.034 129.376 108.782C129.786 109.53 130.044 110.351 130.136 111.199C130.228 112.046 130.153 112.904 129.914 113.722Z" fill="#FF725E"/>
<path d="M120.293 113.77L121.829 108.504L127.647 113.056L120.293 113.77Z" fill="white"/>
<path d="M146.66 135.239L91.8149 119.237L90.9874 122.078L145.833 138.081L146.66 135.239Z" fill="#EBEBEB"/>
<path d="M141.007 134.672L94.8462 121.203L94.6011 122.045L140.762 135.513L141.007 134.672Z" fill="#C7C7C7"/>
<path d="M93.9487 120.424L92.1577 119.901L91.6357 121.694L93.4267 122.216L93.9487 120.424Z" fill="#C7C7C7"/>
<path d="M92.8246 120.446L92.4849 120.347L92.1492 121.5L92.4889 121.599L92.8246 120.446Z" fill="#A6A6A6"/>
<path d="M93.4355 120.627L93.0957 120.528L92.7598 121.681L93.0995 121.78L93.4355 120.627Z" fill="#A6A6A6"/>
<path d="M143.672 134.936L141.881 134.413L141.359 136.206L143.15 136.729L143.672 134.936Z" fill="#C7C7C7"/>
<path d="M142.311 135.273L141.959 135.171L141.832 135.609L142.183 135.711L142.311 135.273Z" fill="#A6A6A6"/>
<path d="M142.475 136.106L142.025 135.668L142.151 135.236L142.763 135.11L142.475 136.106Z" fill="#A6A6A6"/>
<path d="M142.979 135.356L143.081 135.296C143.12 135.365 143.144 135.442 143.153 135.521C143.162 135.601 143.155 135.681 143.133 135.758C143.111 135.834 143.073 135.905 143.023 135.967C142.973 136.029 142.911 136.081 142.841 136.118L142.781 136.016C142.894 135.954 142.977 135.85 143.014 135.727C143.051 135.603 143.039 135.47 142.979 135.356Z" fill="#A6A6A6"/>
<path d="M142.726 135.91L142.667 135.808C142.696 135.792 142.722 135.771 142.743 135.745C142.763 135.719 142.778 135.69 142.786 135.657C142.8 135.628 142.807 135.597 142.807 135.564C142.807 135.532 142.8 135.5 142.786 135.471L142.888 135.411C142.912 135.454 142.926 135.502 142.931 135.551C142.936 135.599 142.93 135.649 142.915 135.695C142.9 135.742 142.875 135.785 142.843 135.822C142.81 135.859 142.771 135.889 142.726 135.91Z" fill="#A6A6A6"/>
<path d="M145.811 135.559L144.02 135.036L143.498 136.829L145.289 137.351L145.811 135.559Z" fill="#C7C7C7"/>
<path d="M144.962 135.625L144.219 135.409L144.003 136.152L144.746 136.369L144.962 135.625Z" fill="#A6A6A6"/>
<path d="M145.294 136.282L144.551 136.065L144.335 136.808L145.078 137.025L145.294 136.282Z" fill="white"/>
<path d="M103.36 124.152C103.317 124.298 103.307 124.452 103.33 124.602L94.5903 122.05L94.8363 121.204L103.582 123.756C103.477 123.868 103.401 124.004 103.36 124.152Z" fill="#A6A6A6"/>
<path d="M105.279 124.71C105.239 124.857 105.165 124.993 105.063 125.106C104.936 125.245 104.773 125.345 104.592 125.395C104.412 125.446 104.22 125.445 104.04 125.392C103.86 125.34 103.698 125.238 103.572 125.098C103.447 124.959 103.363 124.787 103.33 124.602C103.307 124.452 103.317 124.298 103.36 124.152C103.401 124.004 103.477 123.868 103.582 123.755C103.706 123.617 103.868 123.516 104.047 123.465C104.226 123.414 104.416 123.415 104.595 123.467C104.776 123.52 104.938 123.622 105.063 123.762C105.188 123.902 105.271 124.075 105.303 124.26C105.328 124.41 105.32 124.564 105.279 124.71Z" fill="#A6A6A6"/>
<rect x="14" y="180" width="43" height="21" fill="#FF725E"/>
<rect x="24" y="223" width="25" height="21" fill="#FF725E"/>
<path d="M21.224 195C21.144 195 21.076 194.972 21.02 194.916C20.964 194.86 20.936 194.792 20.936 194.712V186.9C20.936 186.812 20.96 186.74 21.008 186.684C21.064 186.628 21.136 186.6 21.224 186.6H22.316C22.404 186.6 22.472 186.628 22.52 186.684C22.576 186.74 22.604 186.812 22.604 186.9V189.996H26.144V186.9C26.144 186.812 26.168 186.74 26.216 186.684C26.272 186.628 26.344 186.6 26.432 186.6H27.512C27.6 186.6 27.672 186.628 27.728 186.684C27.784 186.74 27.812 186.812 27.812 186.9V194.712C27.812 194.8 27.784 194.872 27.728 194.928C27.672 194.976 27.6 195 27.512 195H26.432C26.352 195 26.284 194.972 26.228 194.916C26.172 194.86 26.144 194.792 26.144 194.712V191.496H22.604V194.712C22.604 194.792 22.576 194.86 22.52 194.916C22.472 194.972 22.404 195 22.316 195H21.224ZM31.8142 195C31.7342 195 31.6662 194.972 31.6102 194.916C31.5542 194.86 31.5262 194.792 31.5262 194.712V188.076H29.3062C29.2262 188.076 29.1582 188.048 29.1022 187.992C29.0462 187.936 29.0182 187.868 29.0182 187.788V186.9C29.0182 186.812 29.0422 186.74 29.0902 186.684C29.1462 186.628 29.2182 186.6 29.3062 186.6H35.4262C35.5142 186.6 35.5862 186.628 35.6422 186.684C35.6982 186.74 35.7262 186.812 35.7262 186.9V187.788C35.7262 187.868 35.6982 187.936 35.6422 187.992C35.5862 188.048 35.5142 188.076 35.4262 188.076H33.2182V194.712C33.2182 194.792 33.1902 194.86 33.1342 194.916C33.0782 194.972 33.0062 195 32.9182 195H31.8142ZM37.2438 195C37.1558 195 37.0838 194.976 37.0278 194.928C36.9718 194.872 36.9438 194.8 36.9438 194.712V186.9C36.9438 186.812 36.9718 186.74 37.0278 186.684C37.0838 186.628 37.1558 186.6 37.2438 186.6H38.1918C38.3598 186.6 38.4798 186.676 38.5518 186.828L40.8678 191.148L43.2078 186.828C43.2878 186.676 43.4078 186.6 43.5678 186.6H44.5038C44.5918 186.6 44.6638 186.628 44.7198 186.684C44.7758 186.74 44.8038 186.812 44.8038 186.9V194.712C44.8038 194.8 44.7758 194.872 44.7198 194.928C44.6638 194.976 44.5918 195 44.5038 195H43.4958C43.4158 195 43.3478 194.972 43.2918 194.916C43.2358 194.86 43.2078 194.792 43.2078 194.712V189.516L41.5278 192.72C41.4238 192.896 41.2878 192.984 41.1198 192.984H40.6278C40.4598 192.984 40.3238 192.896 40.2198 192.72L38.5398 189.516V194.712C38.5398 194.792 38.5118 194.86 38.4558 194.916C38.4078 194.972 38.3398 195 38.2518 195H37.2438ZM46.9584 195C46.8784 195 46.8104 194.972 46.7544 194.916C46.6984 194.86 46.6704 194.792 46.6704 194.712V186.888C46.6704 186.8 46.6984 186.732 46.7544 186.684C46.8104 186.628 46.8784 186.6 46.9584 186.6H48.0744C48.1624 186.6 48.2304 186.628 48.2784 186.684C48.3344 186.732 48.3624 186.8 48.3624 186.888V193.572H52.1664C52.2544 193.572 52.3264 193.6 52.3824 193.656C52.4384 193.712 52.4664 193.784 52.4664 193.872V194.712C52.4664 194.8 52.4384 194.872 52.3824 194.928C52.3264 194.976 52.2544 195 52.1664 195H46.9584Z" fill="#EBEBEB"/>
<path d="M31.648 237.12C31.056 237.12 30.512 237.02 30.016 236.82C29.528 236.62 29.136 236.32 28.84 235.92C28.544 235.52 28.388 235.036 28.372 234.468C28.372 234.396 28.396 234.336 28.444 234.288C28.492 234.232 28.552 234.204 28.624 234.204H29.764C29.94 234.204 30.06 234.308 30.124 234.516C30.18 234.932 30.344 235.24 30.616 235.44C30.896 235.64 31.252 235.74 31.684 235.74C32.188 235.74 32.572 235.576 32.836 235.248C33.108 234.92 33.244 234.464 33.244 233.88V230.016H29.176C29.096 230.016 29.028 229.988 28.972 229.932C28.916 229.876 28.888 229.808 28.888 229.728V228.888C28.888 228.8 28.916 228.732 28.972 228.684C29.028 228.628 29.096 228.6 29.176 228.6H34.66C34.748 228.6 34.82 228.628 34.876 228.684C34.932 228.74 34.96 228.812 34.96 228.9V233.928C34.96 234.592 34.824 235.164 34.552 235.644C34.28 236.124 33.892 236.492 33.388 236.748C32.892 236.996 32.312 237.12 31.648 237.12ZM39.6801 237.12C38.9681 237.12 38.3561 237.012 37.8441 236.796C37.3321 236.58 36.9441 236.296 36.6801 235.944C36.4161 235.592 36.2761 235.212 36.2601 234.804C36.2601 234.732 36.2841 234.672 36.3321 234.624C36.3801 234.576 36.4401 234.552 36.5121 234.552H37.5801C37.6761 234.552 37.7481 234.572 37.7961 234.612C37.8521 234.644 37.9041 234.7 37.9521 234.78C38.0321 235.052 38.2161 235.28 38.5041 235.464C38.7921 235.648 39.1841 235.74 39.6801 235.74C40.2481 235.74 40.6761 235.648 40.9641 235.464C41.2521 235.272 41.3961 235.008 41.3961 234.672C41.3961 234.448 41.3201 234.264 41.1681 234.12C41.0241 233.976 40.8041 233.852 40.5081 233.748C40.2201 233.644 39.7881 233.516 39.2121 233.364C38.2681 233.14 37.5761 232.844 37.1361 232.476C36.7041 232.1 36.4881 231.568 36.4881 230.88C36.4881 230.416 36.6121 230.004 36.8601 229.644C37.1161 229.284 37.4801 229 37.9521 228.792C38.4321 228.584 38.9881 228.48 39.6201 228.48C40.2761 228.48 40.8441 228.596 41.3241 228.828C41.8041 229.06 42.1681 229.352 42.4161 229.704C42.6721 230.048 42.8081 230.392 42.8241 230.736C42.8241 230.808 42.8001 230.868 42.7521 230.916C42.7041 230.964 42.6441 230.988 42.5721 230.988H41.4561C41.2881 230.988 41.1721 230.912 41.1081 230.76C41.0601 230.504 40.9001 230.292 40.6281 230.124C40.3561 229.948 40.0201 229.86 39.6201 229.86C39.1721 229.86 38.8201 229.944 38.5641 230.112C38.3081 230.28 38.1801 230.524 38.1801 230.844C38.1801 231.068 38.2441 231.252 38.3721 231.396C38.5001 231.54 38.7001 231.668 38.9721 231.78C39.2521 231.892 39.6521 232.016 40.1721 232.152C40.8761 232.312 41.4361 232.492 41.8521 232.692C42.2761 232.892 42.5881 233.144 42.7881 233.448C42.9881 233.752 43.0881 234.14 43.0881 234.612C43.0881 235.124 42.9441 235.572 42.6561 235.956C42.3761 236.332 41.9761 236.62 41.4561 236.82C40.9441 237.02 40.3521 237.12 39.6801 237.12Z" fill="#EBEBEB"/>
</svg>
