<svg width="642" height="414" viewBox="0 0 642 414" fill="none" xmlns="http://www.w3.org/2000/svg">
<path d="M273.393 271.389H608.889" stroke="#263238" stroke-linecap="round" stroke-linejoin="round"/>
<path d="M365.995 167.86H557.609C559.52 167.86 561.352 168.486 562.704 169.6C564.055 170.714 564.814 172.224 564.814 173.8V284.217H358.789V173.792C358.791 172.218 359.552 170.709 360.903 169.597C362.254 168.485 364.085 167.86 365.995 167.86Z" fill="#263238" stroke="#263238" stroke-linecap="round" stroke-linejoin="round"/>
<path d="M595.708 335.653H327.886L358.789 284.217H564.805L595.708 335.653Z" fill="white" stroke="#263238" stroke-linecap="round" stroke-linejoin="round"/>
<path d="M390.338 259.101H416.541" stroke="#263238" stroke-width="2" stroke-linecap="round" stroke-linejoin="round"/>
<path d="M390.338 263.194H416.541" stroke="#263238" stroke-width="2" stroke-linecap="round" stroke-linejoin="round"/>
<path d="M449.515 259.101H475.726" stroke="#263238" stroke-width="2" stroke-linecap="round" stroke-linejoin="round"/>
<path d="M449.515 263.194H475.726" stroke="#263238" stroke-width="2" stroke-linecap="round" stroke-linejoin="round"/>
<path d="M508.701 259.101H534.903" stroke="#263238" stroke-width="2" stroke-linecap="round" stroke-linejoin="round"/>
<path d="M508.701 263.194H534.903" stroke="#263238" stroke-width="2" stroke-linecap="round" stroke-linejoin="round"/>
<path d="M453.206 300.503L453.56 294.235H442.681L441.955 300.503H453.206Z" fill="#263238" stroke="white" stroke-linecap="round" stroke-linejoin="round"/>
<path d="M475.708 300.503L475.336 294.235H464.448L464.457 300.503H475.708Z" fill="#263238" stroke="white" stroke-linecap="round" stroke-linejoin="round"/>
<path d="M534.301 307.202H545.933L543.206 300.503H531.955L534.301 307.202Z" fill="#263238" stroke="white" stroke-linecap="round" stroke-linejoin="round"/>
<path d="M441.955 300.503L442.681 294.235H431.793L430.713 300.503H441.955Z" fill="#263238" stroke="white" stroke-linecap="round" stroke-linejoin="round"/>
<path d="M419.462 300.503L420.905 294.235H410.026L408.211 300.503H419.462Z" fill="#263238" stroke="white" stroke-linecap="round" stroke-linejoin="round"/>
<path d="M520.704 300.503L518.88 294.235H507.992L509.453 300.503H520.704Z" fill="#263238" stroke="white" stroke-linecap="round" stroke-linejoin="round"/>
<path d="M531.955 300.503L529.76 294.235H518.88L520.704 300.503H531.955Z" fill="#263238" stroke="white" stroke-linecap="round" stroke-linejoin="round"/>
<path d="M408.211 300.503L410.025 294.235H399.137L396.959 300.503H408.211Z" fill="#263238" stroke="white" stroke-linecap="round" stroke-linejoin="round"/>
<path d="M486.959 300.503L486.225 294.235H475.336L475.708 300.503H486.959Z" fill="#263238" stroke="white" stroke-linecap="round" stroke-linejoin="round"/>
<path d="M543.206 300.503L540.648 294.235H529.76L531.955 300.503H543.206Z" fill="#263238" stroke="white" stroke-linecap="round" stroke-linejoin="round"/>
<path d="M509.453 300.503L507.992 294.235H497.104L498.202 300.503H509.453Z" fill="#263238" stroke="white" stroke-linecap="round" stroke-linejoin="round"/>
<path d="M498.202 300.503L497.104 294.235H486.225L486.959 300.503H498.202Z" fill="#263238" stroke="white" stroke-linecap="round" stroke-linejoin="round"/>
<path d="M464.457 300.503L464.448 294.235H453.56L453.206 300.503H464.457Z" fill="#263238" stroke="white" stroke-linecap="round" stroke-linejoin="round"/>
<path d="M385.709 300.503H374.458L371.351 307.202H382.991L385.709 300.503Z" fill="#263238" stroke="white" stroke-linecap="round" stroke-linejoin="round"/>
<path d="M388.249 294.235H377.37L374.458 300.503H385.709L388.249 294.235Z" fill="#263238" stroke="white" stroke-linecap="round" stroke-linejoin="round"/>
<path d="M396.96 300.503L399.137 294.235H388.249L385.708 300.503H396.96Z" fill="#263238" stroke="white" stroke-linecap="round" stroke-linejoin="round"/>
<path d="M368.022 314.382L364.446 322.102H376.954L380.079 314.382H368.022Z" fill="#263238" stroke="white" stroke-linecap="round" stroke-linejoin="round"/>
<path d="M382.991 307.202H371.35L368.022 314.382H380.079L382.991 307.202Z" fill="#263238" stroke="white" stroke-linecap="round" stroke-linejoin="round"/>
<path d="M380.078 314.382L376.954 322.102H389.462L392.135 314.382H380.078Z" fill="#263238" stroke="white" stroke-linecap="round" stroke-linejoin="round"/>
<path d="M430.713 300.503L431.793 294.235H420.905L419.462 300.503H430.713Z" fill="#263238" stroke="white" stroke-linecap="round" stroke-linejoin="round"/>
<path d="M429.544 307.202L430.713 300.503H419.462L417.913 307.202H429.544Z" fill="#263238" stroke="white" stroke-linecap="round" stroke-linejoin="round"/>
<path d="M417.913 307.202L419.462 300.503H408.211L406.272 307.202H417.913Z" fill="#263238" stroke="white" stroke-linecap="round" stroke-linejoin="round"/>
<path d="M441.185 307.202L441.955 300.503H430.713L429.544 307.202H441.185Z" fill="#263238" stroke="white" stroke-linecap="round" stroke-linejoin="round"/>
<path d="M396.959 300.503H385.708L382.991 307.202H394.631L396.959 300.503Z" fill="#263238" stroke="white" stroke-linecap="round" stroke-linejoin="round"/>
<path d="M536.806 314.382H548.863L545.932 307.202H534.301L536.806 314.382Z" fill="#263238" stroke="white" stroke-linecap="round" stroke-linejoin="round"/>
<path d="M406.272 307.202L408.211 300.503H396.96L394.632 307.202H406.272Z" fill="#263238" stroke="white" stroke-linecap="round" stroke-linejoin="round"/>
<path d="M382.991 307.202L380.079 314.382H392.135L394.632 307.202H382.991Z" fill="#263238" stroke="white" stroke-linecap="round" stroke-linejoin="round"/>
<path d="M511.02 307.202L509.453 300.503H498.202L499.379 307.202H511.02Z" fill="#263238" stroke="white" stroke-linecap="round" stroke-linejoin="round"/>
<path d="M499.379 307.202L498.202 300.503H486.959L487.738 307.202H499.379Z" fill="#263238" stroke="white" stroke-linecap="round" stroke-linejoin="round"/>
<path d="M534.301 307.202L531.955 300.503H520.704L522.66 307.202H534.301Z" fill="#263238" stroke="white" stroke-linecap="round" stroke-linejoin="round"/>
<path d="M464.466 307.202L464.457 300.503H453.206L452.826 307.202H464.466Z" fill="#263238" stroke="white" stroke-linecap="round" stroke-linejoin="round"/>
<path d="M487.738 307.202L486.96 300.503H475.708L476.107 307.202H487.738Z" fill="#263238" stroke="white" stroke-linecap="round" stroke-linejoin="round"/>
<path d="M476.107 307.202L475.709 300.503H464.458L464.466 307.202H476.107Z" fill="#263238" stroke="white" stroke-linecap="round" stroke-linejoin="round"/>
<path d="M452.826 307.202L453.206 300.503H441.955L441.185 307.202H452.826Z" fill="#263238" stroke="white" stroke-linecap="round" stroke-linejoin="round"/>
<path d="M487.739 307.202L488.589 314.382H500.636L499.379 307.202H487.739Z" fill="#263238" stroke="white" stroke-linecap="round" stroke-linejoin="round"/>
<path d="M499.379 307.202L500.636 314.382H512.693L511.019 307.202H499.379Z" fill="#263238" stroke="white" stroke-linecap="round" stroke-linejoin="round"/>
<path d="M394.632 307.202L392.135 314.382H404.192L406.272 307.202H394.632Z" fill="#263238" stroke="white" stroke-linecap="round" stroke-linejoin="round"/>
<path d="M511.02 307.202L512.693 314.382H524.749L522.66 307.202H511.02Z" fill="#263238" stroke="white" stroke-linecap="round" stroke-linejoin="round"/>
<path d="M464.466 307.202L464.475 314.382H476.532L476.107 307.202H464.466Z" fill="#263238" stroke="white" stroke-linecap="round" stroke-linejoin="round"/>
<path d="M522.66 307.202L524.749 314.382H536.806L534.301 307.202H522.66Z" fill="#263238" stroke="white" stroke-linecap="round" stroke-linejoin="round"/>
<path d="M476.107 307.202L476.532 314.382H488.589L487.739 307.202H476.107Z" fill="#263238" stroke="white" stroke-linecap="round" stroke-linejoin="round"/>
<path d="M417.913 307.202L416.249 314.382H428.305L429.544 307.202H417.913Z" fill="#263238" stroke="white" stroke-linecap="round" stroke-linejoin="round"/>
<path d="M406.272 307.202L404.192 314.382H416.249L417.913 307.202H406.272Z" fill="#263238" stroke="white" stroke-linecap="round" stroke-linejoin="round"/>
<path d="M452.826 307.202L452.418 314.382H464.475L464.466 307.202H452.826Z" fill="#263238" stroke="white" stroke-linecap="round" stroke-linejoin="round"/>
<path d="M441.185 307.202L440.362 314.382H452.418L452.826 307.202H441.185Z" fill="#263238" stroke="white" stroke-linecap="round" stroke-linejoin="round"/>
<path d="M429.544 307.202L428.305 314.382H440.362L441.185 307.202H429.544Z" fill="#263238" stroke="white" stroke-linecap="round" stroke-linejoin="round"/>
<path d="M522.66 307.202L520.704 300.503H509.453L511.019 307.202H522.66Z" fill="#263238" stroke="white" stroke-linecap="round" stroke-linejoin="round"/>
<path d="M388.249 294.235L390.851 287.814H380.335L377.37 294.235H388.249Z" fill="#263238" stroke="white" stroke-linecap="round" stroke-linejoin="round"/>
<path d="M377.37 294.235H367.314L364.074 300.503H374.457L377.37 294.235Z" fill="#263238" stroke="white" stroke-linecap="round" stroke-linejoin="round"/>
<path d="M380.335 287.814H370.634L367.314 294.235H377.37L380.335 287.814Z" fill="#263238" stroke="white" stroke-linecap="round" stroke-linejoin="round"/>
<path d="M374.458 300.503H364.074L360.613 307.202H371.35L374.458 300.503Z" fill="#263238" stroke="white" stroke-linecap="round" stroke-linejoin="round"/>
<path d="M371.351 307.202H360.613L356.895 314.382H368.022L371.351 307.202Z" fill="#263238" stroke="white" stroke-linecap="round" stroke-linejoin="round"/>
<path d="M368.022 314.382H356.895L352.902 322.102H364.446L368.022 314.382Z" fill="#263238" stroke="white" stroke-linecap="round" stroke-linejoin="round"/>
<path d="M554.449 300.503L557.574 307.202H567.868L564.407 300.503H554.449Z" fill="#263238" stroke="white" stroke-linecap="round" stroke-linejoin="round"/>
<path d="M560.919 314.382H571.586L567.868 307.202H557.573L560.919 314.382Z" fill="#263238" stroke="white" stroke-linecap="round" stroke-linejoin="round"/>
<path d="M564.513 322.102H575.579L571.586 314.382H560.919L564.513 322.102Z" fill="#263238" stroke="white" stroke-linecap="round" stroke-linejoin="round"/>
<path d="M475.337 294.235L474.956 287.814H464.439L464.448 294.235H475.337Z" fill="#263238" stroke="white" stroke-linecap="round" stroke-linejoin="round"/>
<path d="M554.448 300.503H564.407L561.167 294.235H551.536L554.448 300.503Z" fill="#263238" stroke="white" stroke-linecap="round" stroke-linejoin="round"/>
<path d="M548.863 314.382H560.919L557.573 307.202H545.933L548.863 314.382Z" fill="#263238" stroke="white" stroke-linecap="round" stroke-linejoin="round"/>
<path d="M399.137 294.235L401.368 287.814H390.852L388.249 294.235H399.137Z" fill="#263238" stroke="white" stroke-linecap="round" stroke-linejoin="round"/>
<path d="M540.648 294.235L543.206 300.503H554.449L551.536 294.235H540.648Z" fill="#263238" stroke="white" stroke-linecap="round" stroke-linejoin="round"/>
<path d="M561.167 294.235L557.848 287.814H548.544L551.536 294.235H561.167Z" fill="#263238" stroke="white" stroke-linecap="round" stroke-linejoin="round"/>
<path d="M551.536 294.235L548.544 287.814H538.036L540.648 294.235H551.536Z" fill="#263238" stroke="white" stroke-linecap="round" stroke-linejoin="round"/>
<path d="M512.693 314.382L514.499 322.102H526.998L524.75 314.382H512.693Z" fill="#263238" stroke="white" stroke-linecap="round" stroke-linejoin="round"/>
<path d="M552.005 322.102H564.513L560.919 314.382H548.863L552.005 322.102Z" fill="#263238" stroke="white" stroke-linecap="round" stroke-linejoin="round"/>
<path d="M540.648 294.235L538.036 287.814H527.52L529.76 294.235H540.648Z" fill="#263238" stroke="white" stroke-linecap="round" stroke-linejoin="round"/>
<path d="M536.806 314.382L539.506 322.102H552.005L548.863 314.382H536.806Z" fill="#263238" stroke="white" stroke-linecap="round" stroke-linejoin="round"/>
<path d="M524.75 314.382L526.998 322.102H539.506L536.806 314.382H524.75Z" fill="#263238" stroke="white" stroke-linecap="round" stroke-linejoin="round"/>
<path d="M545.933 307.202H557.573L554.448 300.503H543.206L545.933 307.202Z" fill="#263238" stroke="white" stroke-linecap="round" stroke-linejoin="round"/>
<path d="M442.681 294.235L443.416 287.814H432.899L431.793 294.235H442.681Z" fill="#263238" stroke="white" stroke-linecap="round" stroke-linejoin="round"/>
<path d="M529.76 294.235L527.52 287.814H517.004L518.881 294.235H529.76Z" fill="#263238" stroke="white" stroke-linecap="round" stroke-linejoin="round"/>
<path d="M431.793 294.235L432.899 287.814H422.392L420.905 294.235H431.793Z" fill="#263238" stroke="white" stroke-linecap="round" stroke-linejoin="round"/>
<path d="M464.449 294.235L464.44 287.814H453.932L453.561 294.235H464.449Z" fill="#263238" stroke="white" stroke-linecap="round" stroke-linejoin="round"/>
<path d="M420.905 294.235L422.392 287.814H411.875L410.025 294.235H420.905Z" fill="#263238" stroke="white" stroke-linecap="round" stroke-linejoin="round"/>
<path d="M410.025 294.235L411.875 287.814H401.368L399.137 294.235H410.025Z" fill="#263238" stroke="white" stroke-linecap="round" stroke-linejoin="round"/>
<path d="M453.561 294.235L453.932 287.814H443.416L442.681 294.235H453.561Z" fill="#263238" stroke="white" stroke-linecap="round" stroke-linejoin="round"/>
<path d="M518.88 294.235L517.004 287.814H506.496L507.992 294.235H518.88Z" fill="#263238" stroke="white" stroke-linecap="round" stroke-linejoin="round"/>
<path d="M507.992 294.235L506.496 287.814H495.98L497.104 294.235H507.992Z" fill="#263238" stroke="white" stroke-linecap="round" stroke-linejoin="round"/>
<path d="M486.225 294.235L485.464 287.814H474.956L475.337 294.235H486.225Z" fill="#263238" stroke="white" stroke-linecap="round" stroke-linejoin="round"/>
<path d="M512.693 314.382H500.636H488.588H476.532H464.475H452.418H440.362H428.305H416.249H404.192H392.135L389.462 322.102H401.961H414.469H426.969H439.477H451.976H464.484H476.983H489.491H501.991H514.499L512.693 314.382Z" fill="#263238" stroke="white" stroke-linecap="round" stroke-linejoin="round"/>
<path d="M497.104 294.235L495.98 287.814H485.463L486.225 294.235H497.104Z" fill="#263238" stroke="white" stroke-linecap="round" stroke-linejoin="round"/>
<path d="M595.832 335.653H327.886V338.79H595.832V335.653Z" fill="#263238" stroke="#263238" stroke-linecap="round" stroke-linejoin="round"/>
<path d="M352.795 412.746C352.795 412.746 372.588 378.538 375.633 371.949C378.678 365.36 421.319 348.723 423.603 345.564C425.887 342.404 428.914 332.699 431.225 328.62C433.535 324.541 431.605 322.965 433.128 319.514C434.651 316.062 437.315 311.983 433.509 311.983C429.702 311.983 424.754 315.435 422.842 321.082C420.93 326.73 413.326 331.444 413.326 331.444L413.706 327.679C414.087 323.906 418.655 312.297 420.558 309.787C422.461 307.277 433.889 297.236 435.412 296.922C436.934 296.609 440.36 299.432 443.786 299.432C447.212 299.432 447.973 297.243 446.07 295.981C444.167 294.719 442.644 290.64 438.103 288.13C433.562 285.619 428.587 288.13 428.587 288.13C427.317 286.387 425.918 284.711 424.4 283.109C422.488 281.227 418.681 278.089 413.733 277.148C412.284 276.875 410.779 276.874 409.329 277.146C407.88 277.418 406.523 277.954 405.359 278.717C403.606 278.416 401.832 278.207 400.047 278.089C396.241 277.775 393.577 279.658 389.77 284.656C385.964 289.655 379.865 299.411 379.865 299.411C379.865 299.411 381.387 290.304 381.387 286.539C381.387 282.774 381.768 278.695 379.865 277.126C377.961 275.557 376.058 277.44 375.297 283.087C374.536 288.735 365.781 308.51 364.674 313.844C363.568 319.178 351.352 348.679 344.872 356.217C338.392 363.755 303.373 396.7 303.373 396.7L352.795 412.746ZM407.616 301.651C407.616 301.651 412.927 289.093 414.468 289.093C416.008 289.093 421.7 292.544 421.7 292.544L407.616 301.651Z" fill="white" stroke="#263238" stroke-linecap="round" stroke-linejoin="round"/>
<path d="M361.532 327.482C361.532 327.482 368.02 310.75 369.1 306.445C369.871 303.409 372.597 306.948 372.597 306.948C372.597 306.948 377.908 303.818 377.908 306.445C377.969 308.114 378.666 309.725 379.9 311.049C379.9 311.049 378.705 306.445 384.326 305.131C389.947 303.818 392.293 305.788 391.107 311.049C389.921 316.31 391.904 314.333 393.099 313.019C394.294 311.706 392.7 308.415 399.879 306.116C407.058 303.818 411.051 306.116 409.847 311.049C408.643 315.982 406.66 320.251 406.66 327.482C406.66 334.713 408.254 341.288 409.847 341.288C411.44 341.288 420.222 333.728 421.815 338.661C423.408 343.593 420.222 343.593 411.848 349.504C403.473 355.414 381.538 360.354 377.953 366.287C374.367 372.219 371.969 375.817 369.578 376.145C367.188 376.473 363.196 364.645 351.626 365.929C340.057 367.214 328.097 376.78 330.895 372.832C333.692 368.885 344.049 362.617 350.033 351.467C356.017 340.317 361.532 327.482 361.532 327.482Z" fill="#FF725E"/>
<path opacity="0.4" d="M361.532 327.482C361.532 327.482 368.02 310.75 369.1 306.445C369.871 303.409 372.597 306.948 372.597 306.948C372.597 306.948 377.908 303.818 377.908 306.445C377.969 308.114 378.666 309.725 379.9 311.049C379.9 311.049 378.705 306.445 384.326 305.131C389.947 303.818 392.293 305.788 391.107 311.049C389.921 316.31 391.904 314.333 393.099 313.019C394.294 311.706 392.7 308.415 399.879 306.116C407.058 303.818 411.051 306.116 409.847 311.049C408.643 315.982 406.66 320.251 406.66 327.482C406.66 334.713 408.254 341.288 409.847 341.288C411.44 341.288 420.222 333.728 421.815 338.661C423.408 343.593 420.222 343.593 411.848 349.504C403.473 355.414 381.538 360.354 377.953 366.287C374.367 372.219 371.969 375.817 369.578 376.145C367.188 376.473 363.196 364.645 351.626 365.929C340.057 367.214 328.097 376.78 330.895 372.832C333.692 368.885 344.049 362.617 350.033 351.467C356.017 340.317 361.532 327.482 361.532 327.482Z" fill="white"/>
<path d="M405.332 278.738C405.332 278.738 394.71 293.807 392.39 296.944C390.071 300.082 388.203 302.906 385.53 304.161C382.856 305.416 380.962 308.24 381.723 309.181" fill="white"/>
<path d="M405.332 278.738C405.332 278.738 394.71 293.807 392.39 296.944C390.071 300.082 388.203 302.906 385.53 304.161C382.856 305.416 380.962 308.24 381.723 309.181" stroke="#263238" stroke-linecap="round" stroke-linejoin="round"/>
<path d="M379.82 299.454C378.643 301.231 377.097 302.824 375.253 304.161C372.207 306.35 368.782 308.24 368.02 310.728C367.499 312.319 366.596 313.808 365.365 315.106" fill="white"/>
<path d="M379.82 299.454C378.643 301.231 377.097 302.824 375.253 304.161C372.207 306.35 368.782 308.24 368.02 310.728C367.499 312.319 366.596 313.808 365.365 315.106" stroke="#263238" stroke-linecap="round" stroke-linejoin="round"/>
<path d="M407.616 301.651C407.616 301.651 400.003 305.73 398.1 306.985C396.197 308.24 395.444 311.064 395.444 311.064" fill="white"/>
<path d="M407.616 301.651C407.616 301.651 400.003 305.73 398.1 306.985C396.197 308.24 395.444 311.064 395.444 311.064" stroke="#263238" stroke-linecap="round" stroke-linejoin="round"/>
<path d="M428.56 288.151L421.7 292.544" stroke="#263238" stroke-linecap="round" stroke-linejoin="round"/>
<path d="M613.73 393.074C613.73 393.074 579.082 365.149 576.418 359.508C573.753 353.868 574.514 352.605 572.231 348.563C569.947 344.52 563.095 337.537 562.715 332.509C562.334 327.482 559.289 315.559 559.289 311.48C559.289 307.401 558.147 301.439 556.633 300.498C555.119 299.557 546.728 297.98 546.728 297.98C546.728 297.98 542.16 286.057 538.761 285.43C535.361 284.802 528.448 287.918 528.448 287.918C528.448 287.918 526.925 285.729 525.022 282.27C523.119 278.811 519.711 278.819 515.506 280.081C511.301 281.343 502.936 284.16 502.936 284.16C502.936 284.16 493.42 278.199 490.375 281.971C487.33 285.744 483.523 292.639 482.762 295.149C482.001 297.659 487.268 297.572 488.41 296.944C489.551 296.317 493.836 293.719 493.836 293.719C493.836 293.719 502.175 298.914 503.697 301.746C505.22 304.577 508.265 317.748 508.646 320.258C509.026 322.768 507.504 330.612 507.504 330.612C507.504 330.612 500.271 319.944 496.881 316.806C493.491 313.669 488.507 311.786 484.7 311.786C480.894 311.786 478.23 315.238 481.275 316.806C484.32 318.375 487.746 320.258 488.507 322.454C489.268 324.651 496.881 335.954 497.642 340.033C498.404 344.112 503.733 352.27 508.681 354.78C513.629 357.29 531.909 360.427 535.335 363.259C538.761 366.09 563.131 405.938 563.131 405.938L613.73 393.074ZM509.787 290.107H515.887L522.358 300.469L509.787 290.107Z" fill="white" stroke="#263238" stroke-linecap="round" stroke-linejoin="round"/>
<path d="M558.129 315.975C558.129 315.975 553.703 305.759 548.56 307.758C543.417 309.758 542.576 310.721 542.576 310.721C542.576 310.721 539.779 307.072 534.999 308.415C530.219 309.758 528.616 307.102 528.616 307.102C528.616 307.102 522.234 303.818 518.25 306.445C514.267 309.072 517.454 316.303 519.047 322.221C520.641 328.139 517.055 339.646 516.259 340.631C515.462 341.616 504.689 337.676 503.494 341.288C502.299 344.9 507.079 352.795 516.657 355.422C526.235 358.049 533.405 359.369 537.017 362.325C540.629 365.28 549.782 386.653 557.758 388.294C565.733 389.936 574.506 380.406 582.88 381.063C591.254 381.72 602.018 386.653 597.637 382.377C593.255 378.101 574.904 362.675 573.736 357.071C572.567 351.467 568.15 347.534 566.158 344.907C564.167 342.28 560.564 326.497 559.325 322.213C558.676 320.172 558.275 318.082 558.129 315.975Z" fill="#FF725E"/>
<path opacity="0.4" d="M558.129 315.975C558.129 315.975 553.703 305.759 548.56 307.758C543.417 309.758 542.576 310.721 542.576 310.721C542.576 310.721 539.779 307.072 534.999 308.415C530.219 309.758 528.616 307.102 528.616 307.102C528.616 307.102 522.234 303.818 518.25 306.445C514.267 309.072 517.454 316.303 519.047 322.221C520.641 328.139 517.055 339.646 516.259 340.631C515.462 341.616 504.689 337.676 503.494 341.288C502.299 344.9 507.079 352.795 516.657 355.422C526.235 358.049 533.405 359.369 537.017 362.325C540.629 365.28 549.782 386.653 557.758 388.294C565.733 389.936 574.506 380.406 582.88 381.063C591.254 381.72 602.018 386.653 597.637 382.377C593.255 378.101 574.904 362.675 573.736 357.071C572.567 351.467 568.15 347.534 566.158 344.907C564.167 342.28 560.564 326.497 559.325 322.213C558.676 320.172 558.275 318.082 558.129 315.975Z" fill="white"/>
<path d="M528.448 287.918L533.759 296.076C533.759 296.076 535.928 300.359 538.123 302.162C540.319 303.964 542.231 305.321 543.054 307.583C543.877 309.845 544.143 310.969 544.143 310.969" fill="white"/>
<path d="M528.448 287.918L533.759 296.076C533.759 296.076 535.928 300.359 538.123 302.162C540.319 303.964 542.231 305.321 543.054 307.583C543.877 309.845 544.143 310.969 544.143 310.969" stroke="#263238" stroke-linecap="round" stroke-linejoin="round"/>
<path d="M546.719 297.98L552.057 307.087" stroke="#263238" stroke-linecap="round" stroke-linejoin="round"/>
<path d="M502.936 284.175L509.788 290.136" stroke="#263238" stroke-linecap="round" stroke-linejoin="round"/>
<path d="M553.482 309.181C553.599 311.077 553.874 312.964 554.305 314.829L553.482 309.181Z" fill="white"/>
<path d="M553.482 309.181C553.599 311.077 553.874 312.964 554.305 314.829" stroke="#263238" stroke-linecap="round" stroke-linejoin="round"/>
<path d="M526.093 303.971C526.093 303.971 529.377 306 529.926 308.707L526.093 303.971Z" fill="white"/>
<path d="M526.093 303.971C526.093 303.971 529.377 306 529.926 308.707" stroke="#263238" stroke-linecap="round" stroke-linejoin="round"/>
<path d="M493.836 293.756C493.836 293.756 490.826 292.763 490.826 290.778L493.836 293.756Z" fill="white"/>
<path d="M493.836 293.756C493.836 293.756 490.826 292.763 490.826 290.778" stroke="#263238" stroke-linecap="round" stroke-linejoin="round"/>
<path d="M515.887 290.107C515.887 290.107 513.709 288.728 513.709 286.991L515.887 290.107Z" fill="white"/>
<path d="M515.887 290.107C515.887 290.107 513.709 288.728 513.709 286.991" stroke="#263238" stroke-linecap="round" stroke-linejoin="round"/>
<path d="M450.17 108.773L458.243 101.916V47.6091" stroke="#263238" stroke-linecap="round" stroke-linejoin="round"/>
<path d="M458.243 101.916L467.015 108.773" stroke="#263238" stroke-linecap="round" stroke-linejoin="round"/>
<path d="M460.184 39.8679V43.4738L461.775 45.9961C461.775 46.8 461.425 47.5711 460.8 48.1407C460.175 48.7103 459.327 49.032 458.442 49.0353V49.0353C457.555 49.0336 456.704 48.7129 456.077 48.1433C455.45 47.5737 455.097 46.8016 455.095 45.9961V43.4738" stroke="#263238" stroke-width="3" stroke-linecap="round" stroke-linejoin="round"/>
<path d="M463.634 32.9425H456.94V39.6935H463.634V32.9425Z" fill="white" stroke="#263238" stroke-linecap="round" stroke-linejoin="round"/>
<path d="M466.11 23.8873H454.463V37.4453H466.11V23.8873Z" fill="white" stroke="#263238" stroke-linecap="round" stroke-linejoin="round"/>
<path d="M469.581 30.6943H451.117V34.8545H469.581V30.6943Z" fill="white" stroke="#263238" stroke-linecap="round" stroke-linejoin="round"/>
<path d="M460.287 30.6943H457.646L453.908 34.5431L454.299 34.8545H456.247L460.287 30.6943Z" fill="#263238"/>
<path d="M452.564 30.6943L451.117 32.1828V34.8545H451.165L455.212 30.6943H452.564Z" fill="#263238"/>
<path d="M465.37 30.6943H462.729L458.991 34.5431L459.382 34.8545H461.33L465.37 30.6943Z" fill="#263238"/>
<path d="M469.581 31.5849V30.6943H467.804L464.066 34.5431L464.464 34.8545H466.405L469.581 31.5849Z" fill="#263238"/>
<path d="M460.026 23.6506V15.4922" stroke="#263238" stroke-width="2" stroke-linecap="round" stroke-linejoin="round"/>
<path d="M598.078 15.2867H455.362V10.3978L479.78 1H598.078" stroke="#263238" stroke-width="2" stroke-linecap="round" stroke-linejoin="round"/>
<path d="M479.78 15.2867V1L495.926 15.2867V1L479.78 15.2867Z" stroke="#263238" stroke-width="2" stroke-linecap="round" stroke-linejoin="round"/>
<path d="M495.906 15.2867V1L512.045 15.2867V1L495.906 15.2867Z" stroke="#263238" stroke-width="2" stroke-linecap="round" stroke-linejoin="round"/>
<path d="M512.025 15.2867V1L528.171 15.2867V1L512.025 15.2867Z" stroke="#263238" stroke-width="2" stroke-linecap="round" stroke-linejoin="round"/>
<path d="M528.151 15.2867V1L544.29 15.2867V1L528.151 15.2867Z" stroke="#263238" stroke-width="2" stroke-linecap="round" stroke-linejoin="round"/>
<path d="M544.269 15.2867V1L560.415 15.2867V1L544.269 15.2867Z" stroke="#263238" stroke-width="2" stroke-linecap="round" stroke-linejoin="round"/>
<path d="M560.395 15.2867V1L576.534 15.2867V1L560.395 15.2867Z" stroke="#263238" stroke-width="2" stroke-linecap="round" stroke-linejoin="round"/>
<path d="M576.514 15.2867V1L592.66 15.2867V1L576.514 15.2867Z" stroke="#263238" stroke-width="2" stroke-linecap="round" stroke-linejoin="round"/>
<path d="M556.285 54.5935C556.285 54.5935 554.138 57.5907 554.22 57.9774C554.301 58.3641 554.811 58.3964 554.31 58.9396C553.809 59.4829 552.774 60.4958 552.717 61.0482C552.748 61.4907 552.935 61.9097 553.246 62.236C553.246 62.236 552.731 64.6439 552.898 65.201C553.065 65.758 554.94 66.1218 554.94 66.1218L554.439 67.8897L559.839 69.3813L560.765 66.2553L563.975 56.7343L556.285 54.5935Z" fill="white" stroke="#263238" stroke-linecap="round" stroke-linejoin="round"/>
<path d="M563.56 54.2204C563.217 54.156 561.776 53.1523 559.677 52.7886C557.578 52.4249 556.767 53.249 556.524 54.0915C556.281 54.934 555.804 54.5013 556.414 55.0722C557.025 55.643 555.961 56.1541 555.961 56.1541C555.996 56.4754 555.921 56.799 555.746 57.0749C555.446 57.6872 556.376 58.7967 556.376 58.7967C556.181 59.2098 556.044 59.6466 555.971 60.0951C555.971 60.4588 556.295 60.6337 556.586 60.4495C556.877 60.2654 557.454 59.096 557.468 59.6715C557.483 60.247 556.863 64.3445 557.225 64.9706C557.588 65.5968 560.059 66.1584 560.765 66.2597C561.471 66.361 563.713 64.1143 564.891 62.7239C566.07 61.3335 566.843 58.4422 566.451 56.8723C566.256 56.2229 565.885 55.6353 565.377 55.1694C564.869 54.7035 564.242 54.376 563.56 54.2204Z" fill="#263238" stroke="#263238" stroke-linecap="round" stroke-linejoin="round"/>
<path d="M556.91 59.4367C556.786 60.0586 556.627 60.6735 556.433 61.2783C556.175 61.9781 555.546 62.1991 555.755 62.6227C555.965 63.0462 556.261 62.9726 556.71 62.5076C557.208 61.9554 557.571 61.3025 557.773 60.5969C557.869 60.0306 558.222 58.8382 556.91 59.4367Z" fill="white" stroke="#263238" stroke-linecap="round" stroke-linejoin="round"/>
<path d="M557.363 61.6742C558.229 62.3303 559.184 62.8679 560.202 63.2717C561.644 63.8009 563.201 63.9719 564.729 63.7689C565.207 63.7204 565.654 63.5214 566.003 63.2027C566.394 62.7423 566.394 61.7847 566.394 61.5038C566.394 61.223 568.026 58.4606 566.657 55.7213C565.287 52.982 559.348 51.214 558.27 51.4028C557.192 51.5916 555.241 54.423 555.241 54.423C555.241 54.423 553.003 54.8281 552.994 55.7627C552.994 56.9275 554.215 57.282 554.639 58.3824C555.229 59.6936 556.169 60.8298 557.363 61.6742Z" fill="white" stroke="#263238" stroke-linecap="round" stroke-linejoin="round"/>
<path d="M556.414 55.0722C556.414 55.0722 558.666 52.6827 559.114 52.4617C559.443 52.3052 560.841 52.4341 562.315 53.226" stroke="#263238" stroke-linecap="round" stroke-linejoin="round"/>
<path d="M553.857 67.8389L552.326 70.5414C552.326 70.5414 556.18 69.4594 558.284 69.4594C559.764 69.4855 561.239 69.6225 562.697 69.8692L561.714 67.2311C561.714 67.2311 556.381 66.6879 553.857 67.8389Z" fill="white" stroke="#263238" stroke-linecap="round" stroke-linejoin="round"/>
<path d="M568.359 103.496C568.367 104.626 568.297 105.755 568.149 106.876C567.94 107.888 566.542 109.445 565.979 109.716C565.416 109.988 564.719 110.052 564.576 109.716C564.433 109.38 564.228 109.514 564.438 107.755C564.648 105.996 565.421 102.617 565.421 102.617L568.359 103.496Z" fill="white" stroke="#263238" stroke-linecap="round" stroke-linejoin="round"/>
<path d="M568.851 101.332L568.374 103.496C567.776 103.616 567.161 103.638 566.556 103.561C566.296 103.522 566.052 103.413 565.854 103.246C565.655 103.079 565.51 102.861 565.435 102.617L565.645 100.72L568.851 101.332Z" fill="white" stroke="#263238" stroke-linecap="round" stroke-linejoin="round"/>
<path d="M568.507 72.2357C568.507 72.2357 569.49 77.9814 570.119 82.24C570.652 85.663 570.861 89.1255 570.744 92.585C570.601 94.6154 569.762 101.13 569.48 101.6C569.199 102.069 567.31 102.276 566.541 101.94C565.773 101.604 565.42 101.194 565.42 99.9099C565.42 98.6254 566.117 86.6368 566.117 86.6368L568.507 72.2357Z" fill="white" stroke="#263238" stroke-linecap="round" stroke-linejoin="round"/>
<path d="M553.371 146.469C553.094 146.471 552.822 146.537 552.579 146.663C552.164 146.879 550.36 147.353 549.201 147.749C547.388 148.371 545.976 148.039 546.119 148.495C546.262 148.951 549.091 149.876 550.728 149.876C552.364 149.876 553.151 149.508 553.934 149.522C554.716 149.536 554.139 149.899 555.436 150.042C556.734 150.185 557.163 150.189 557.616 149.503C558.07 148.817 558.327 148.642 558.184 147.772V147.768C558.113 147.394 557.907 147.056 557.602 146.815C557.297 146.574 556.913 146.445 556.519 146.451L553.371 146.469Z" fill="#263238" stroke="#263238" stroke-linecap="round" stroke-linejoin="round"/>
<path d="M563.493 145.632C563.252 145.628 563.015 145.692 562.811 145.816C562.453 146.032 560.903 146.488 559.906 146.879C558.346 147.487 557.105 147.082 557.249 147.579C557.392 148.076 559.061 148.748 560.488 148.827C561.258 148.872 562.032 148.844 562.797 148.744C564.333 148.661 563.355 149.204 563.908 149.402C564.295 149.52 564.7 149.576 565.106 149.568C566.728 149.651 566.928 149.775 567.3 149.052C567.672 148.329 567.887 148.131 567.734 147.211V147.183C567.695 146.81 567.525 146.462 567.253 146.195C566.98 145.928 566.622 145.759 566.236 145.714L563.493 145.632Z" fill="#263238" stroke="#263238" stroke-linecap="round" stroke-linejoin="round"/>
<path d="M548.952 96.5996C548.952 96.5996 549.234 106.065 549.234 109.242C549.234 112.419 550.073 126.778 551.194 131.985C552.067 136.44 552.651 140.942 552.945 145.466C552.945 146.276 552.668 146.479 553.227 147.017C553.785 147.556 555.889 148.573 556.661 148.237C557.434 147.901 557.849 146.612 557.849 146.612C557.849 146.612 557.849 139.582 558.064 134.983C558.279 130.383 557.921 124.371 557.921 124.371C557.921 124.371 560.654 136.539 561.422 138.974C562.19 141.41 562.825 145.825 562.968 146.7C563.111 147.574 563.722 147.62 564.504 147.62C565.458 147.62 566.608 147.501 567.028 146.824C567.448 146.147 566.551 139.048 566.551 136.212C566.551 133.376 564.251 115.734 564.437 111.397C564.623 107.06 565.978 99.5645 565.558 97.3316C565.307 96.0081 565.166 94.667 565.139 93.3216C565.139 93.3216 550.703 91.7286 548.952 96.5996Z" fill="#5E5E5E" stroke="#263238" stroke-linecap="round" stroke-linejoin="round"/>
<path d="M533.314 52.4663C533.314 52.4663 533.586 52.0059 533.992 51.2278C534.281 50.5026 534.396 49.7232 534.326 48.9489C534.326 48.4287 534.932 48.2353 534.932 47.6506C534.932 47.0659 534.059 47.1257 533.586 47.5171C533.114 47.9084 532.976 49.0824 532.976 49.0824C532.976 49.0824 532.231 47.8624 531.831 46.9968C531.473 46.2234 530.977 44.8882 530.304 44.6949C529.632 44.5015 529.66 45.3026 529.727 45.4959C529.839 45.8751 529.979 46.2459 530.147 46.6055C530.304 46.9048 530.624 47.7795 530.624 47.7795C530.624 47.7795 529.67 47.0613 529.341 47.0613C529.253 47.0595 529.167 47.0809 529.091 47.1232C529.015 47.1655 528.953 47.2271 528.911 47.3013C528.869 47.3754 528.849 47.4593 528.854 47.5436C528.858 47.6279 528.886 47.7096 528.935 47.7795C528.935 47.7795 528.124 48.1064 528.329 48.6266C528.534 49.1469 528.596 49.3402 528.596 49.3402C528.596 49.3402 528.396 49.6027 528.596 50.261C528.797 50.9194 529.679 52.0197 530.027 52.563C530.222 52.8673 530.474 53.1329 530.772 53.3457L533.314 52.4663Z" fill="white" stroke="#263238" stroke-linecap="round" stroke-linejoin="round"/>
<path d="M528.95 47.7567C529.165 48.0767 529.416 48.3731 529.699 48.6406" stroke="#263238" stroke-linecap="round" stroke-linejoin="round"/>
<path d="M528.592 49.317C528.725 49.5289 528.885 49.7238 529.069 49.8971" stroke="#263238" stroke-linecap="round" stroke-linejoin="round"/>
<path d="M531.22 55.8318L530.032 53.3273C530.267 53.0014 530.568 52.7255 530.918 52.5165C531.267 52.3074 531.658 52.1697 532.064 52.1118C533.534 51.8402 533.744 52.1118 533.744 52.1118L534.516 54.6808C534.516 54.6808 531.993 54.8834 531.22 55.8318Z" fill="white" stroke="#263238" stroke-linecap="round" stroke-linejoin="round"/>
<path d="M547.712 69.1142L538.366 60.4266C538.366 60.4266 536.196 56.8447 535.638 55.5602C535.08 54.2757 534.307 53.9351 533.043 54.0732C531.778 54.2113 530.657 55.4912 530.657 56.4396C530.657 56.9783 532.088 60.224 533.396 63.0278C533.462 63.2258 535.304 68.7137 536.339 69.1142C537.374 69.5148 548.337 80.4906 548.337 80.4906L552.325 70.5415L547.712 69.1142Z" fill="white" stroke="#263238" stroke-linecap="round" stroke-linejoin="round"/>
<path d="M546.601 78.5799C547.183 83.9158 546.949 97.9164 546.949 98.8694C546.949 100.02 546.878 100.085 547.298 100.426C547.717 100.766 551.701 100.886 555.555 100.835C559.41 100.785 564.238 100.002 564.591 100.002C564.874 99.9824 565.149 99.8988 565.392 99.7581C565.636 99.6173 565.842 99.4233 565.993 99.1917C566.222 98.8556 568.503 85.0576 569.171 78.7226C569.724 73.4833 568.455 72.3554 568.488 72.2357C568.56 71.964 562.95 70.0028 562.458 69.8692C561.967 69.7357 559.167 67.908 552.86 70.2053C552.86 70.2053 550.27 69.4135 549.33 69.8048C549.33 69.8048 551.147 73.313 549.783 76.6785C548.419 80.0439 546.601 78.5799 546.601 78.5799Z" fill="#FF725E" stroke="#263238" stroke-linecap="round" stroke-linejoin="round"/>
<path d="M547.016 91.7333C547.016 92.5896 547.016 93.4091 547.016 94.1688C549.578 93.9202 557.659 93.2204 567.124 93.2112C567.248 92.4423 567.382 91.632 567.51 90.7895C558.074 90.7803 549.94 91.457 547.016 91.7333Z" fill="white" stroke="#263238" stroke-linecap="round" stroke-linejoin="round"/>
<path d="M546.996 88.1099C550.021 87.8152 559.519 86.9957 568.016 87.4791C568.493 84.2564 568.97 81.0014 569.189 78.7316C569.742 73.4924 568.473 72.3644 568.507 72.2447C568.54 72.125 567.033 71.4988 565.511 70.9372C566.107 71.9224 567.123 74.1968 567.028 78.1608C566.961 80.808 566.727 83.2251 566.498 84.9884C562.844 84.8457 559.133 84.9101 555.87 85.0575C555.927 83.6763 555.941 82.0281 555.903 80.1819C555.833 76.6644 555.105 73.188 553.756 69.9197C553.475 70.0072 553.198 70.0993 552.902 70.2051C552.265 70.016 551.614 69.8698 550.956 69.7678C552.491 73.0579 553.328 76.6114 553.418 80.2187C553.456 82.1248 553.418 83.7822 553.37 85.1772C550.574 85.3429 548.308 85.5455 546.987 85.679C546.977 86.4801 546.987 87.295 546.996 88.1099Z" fill="white" stroke="#263238" stroke-linecap="round" stroke-linejoin="round"/>
<path d="M563.885 83.9894C561.881 86.7517 558.714 90.8216 556.252 92.3547" stroke="#263238" stroke-linecap="round" stroke-linejoin="round"/>
<path d="M565.836 81.1582C565.836 81.1582 565.473 81.7199 564.881 82.5992" stroke="#263238" stroke-linecap="round" stroke-linejoin="round"/>
<path d="M560.035 90.7711C558.474 92.1354 556.786 93.3576 554.992 94.422" stroke="#263238" stroke-linecap="round" stroke-linejoin="round"/>
<path d="M563.947 134.877C564.694 135.635 565.577 136.259 566.552 136.718C566.552 136.52 566.552 136.336 566.552 136.166C566.552 133.325 564.238 115.72 564.448 111.392C564.486 110.605 564.562 109.712 564.658 108.763C564.581 108.573 564.487 108.389 564.376 108.215C563.234 106.497 562.205 104.712 561.294 102.87L564.934 106.231C564.963 105.978 564.996 105.72 565.025 105.467C564.071 103.786 562.783 101.48 562.697 100.775L558.403 103.008C558.403 103.008 557.841 119.058 557.926 124.334C557.926 124.334 558.341 126.175 558.88 128.565C560.207 131.484 562.573 133.519 563.947 134.877Z" fill="#263238" stroke="#263238" stroke-linecap="round" stroke-linejoin="round"/>
<path d="M554.315 144.421C554.408 145.458 554.395 146.502 554.277 147.538" stroke="#263238" stroke-linecap="round" stroke-linejoin="round"/>
<path d="M554.005 140.544C554.067 141.442 554.129 142.238 554.182 142.888" stroke="#263238" stroke-linecap="round" stroke-linejoin="round"/>
<path d="M552.192 105.384C552.364 112.161 552.783 127.045 553.146 130.365C553.418 132.768 553.666 136.092 553.871 138.914" stroke="#263238" stroke-linecap="round" stroke-linejoin="round"/>
<path d="M383.825 184.451C383.821 184.929 383.668 185.395 383.384 185.791C383.1 186.187 382.699 186.494 382.231 186.674C381.762 186.854 381.248 186.898 380.753 186.802C380.258 186.705 379.805 186.472 379.45 186.131C379.095 185.791 378.855 185.358 378.76 184.888C378.665 184.419 378.719 183.933 378.916 183.492C379.112 183.052 379.443 182.676 379.865 182.413C380.287 182.15 380.782 182.012 381.288 182.015C381.965 182.02 382.613 182.279 383.089 182.736C383.565 183.192 383.83 183.809 383.825 184.451Z" fill="#A6A6A6"/>
<path d="M394.046 184.519C394.042 184.998 393.889 185.464 393.605 185.86C393.322 186.256 392.92 186.563 392.452 186.743C391.984 186.923 391.469 186.967 390.974 186.871C390.479 186.774 390.026 186.541 389.671 186.2C389.316 185.859 389.076 185.427 388.981 184.957C388.886 184.487 388.94 184.002 389.137 183.561C389.334 183.12 389.664 182.745 390.086 182.482C390.508 182.219 391.003 182.081 391.509 182.084C392.187 182.089 392.835 182.348 393.31 182.805C393.786 183.261 394.051 183.878 394.046 184.519Z" fill="#EBEBEB"/>
<path d="M404.267 184.588C404.263 185.066 404.11 185.533 403.826 185.928C403.542 186.324 403.141 186.631 402.672 186.811C402.204 186.991 401.69 187.036 401.195 186.939C400.7 186.842 400.247 186.609 399.892 186.268C399.537 185.928 399.297 185.495 399.202 185.026C399.107 184.556 399.161 184.07 399.358 183.629C399.554 183.189 399.885 182.813 400.307 182.551C400.729 182.288 401.224 182.149 401.73 182.153C402.407 182.157 403.055 182.416 403.531 182.873C404.007 183.33 404.271 183.946 404.267 184.588Z" fill="white"/>
<path d="M390.463 207.872L385.353 207.837L385.336 209.987L390.447 210.021L390.463 207.872Z" fill="#EBEBEB"/>
<path d="M480.181 208.474L394.438 207.898L394.422 210.048L480.164 210.623L480.181 208.474Z" fill="#EBEBEB"/>
<path d="M493.809 208.566L483.588 208.497L483.572 210.647L493.793 210.715L493.809 208.566Z" fill="#FF725E"/>
<path d="M509.523 233.391L499.87 233.326L499.854 235.475L509.507 235.54L509.523 233.391Z" fill="#EBEBEB"/>
<path d="M530.15 208.81L496.08 208.581L496.064 210.73L530.134 210.959L530.15 208.81Z" fill="#A6A6A6"/>
<path d="M395.534 213.28L390.423 213.245L390.411 214.857L395.522 214.892L395.534 213.28Z" fill="#EBEBEB"/>
<path d="M439.825 213.577L399.509 213.306L399.497 214.918L439.813 215.189L439.825 213.577Z" fill="#A6A6A6"/>
<path d="M497.03 233.307L482.267 233.208L482.25 235.357L497.014 235.457L497.03 233.307Z" fill="#A6A6A6"/>
<path d="M432.334 228.036L394.289 227.78L394.273 229.93L432.318 230.185L432.334 228.036Z" fill="#A6A6A6"/>
<path d="M426.16 218.322L399.472 218.142L399.46 219.754L426.148 219.934L426.16 218.322Z" fill="#FF725E"/>
<path d="M516.977 223.768L490.289 223.589L490.277 225.201L516.965 225.38L516.977 223.768Z" fill="#A6A6A6"/>
<path d="M497.139 218.798L429 218.341L428.987 219.953L497.127 220.41L497.139 218.798Z" fill="#A6A6A6"/>
<path d="M478.86 233.185L394.253 232.617L394.237 234.766L478.844 235.334L478.86 233.185Z" fill="#FF725E"/>
<path d="M539.195 214.244L494.904 213.947L494.892 215.559L539.183 215.856L539.195 214.244Z" fill="#FF725E"/>
<path d="M492.633 213.932L442.096 213.592L442.084 215.204L492.621 215.544L492.633 213.932Z" fill="#EBEBEB"/>
<path d="M532.913 219.039L515.878 218.924L515.866 220.536L532.901 220.651L532.913 219.039Z" fill="#EBEBEB"/>
<path d="M395.497 218.116L390.387 218.081L390.375 219.693L395.485 219.728L395.497 218.116Z" fill="#EBEBEB"/>
<path d="M390.35 222.918L385.24 222.883L385.228 224.495L390.338 224.53L390.35 222.918Z" fill="#A6A6A6"/>
<path d="M425.556 223.154L394.325 222.944L394.313 224.556L425.544 224.766L425.556 223.154Z" fill="#EBEBEB"/>
<path d="M430.558 237.697L399.327 237.487L399.311 239.637L430.542 239.846L430.558 237.697Z" fill="#EBEBEB"/>
<path d="M523.642 243.696L482.758 243.421L482.746 245.034L523.63 245.308L523.642 243.696Z" fill="#FF725E"/>
<path d="M489.612 238.094L433.397 237.716L433.381 239.866L489.596 240.243L489.612 238.094Z" fill="#FF725E"/>
<path d="M479.919 243.402L427.678 243.052L427.666 244.664L479.907 245.015L479.919 243.402Z" fill="#EBEBEB"/>
<path d="M408.372 242.922L399.287 242.861L399.275 244.473L408.36 244.534L408.372 242.922Z" fill="#A6A6A6"/>
<path d="M493.66 228.448L434.605 228.051L434.589 230.201L493.644 230.597L493.66 228.448Z" fill="#EBEBEB"/>
<path d="M533.976 228.719L495.931 228.463L495.915 230.612L533.96 230.868L533.976 228.719Z" fill="#FF725E"/>
<path d="M488.017 223.573L428.963 223.177L428.951 224.789L488.005 225.186L488.017 223.573Z" fill="#FF725E"/>
<path d="M390.314 227.754L385.204 227.719L385.187 229.869L390.298 229.903L390.314 227.754Z" fill="#EBEBEB"/>
<path d="M390.278 232.59L385.167 232.556L385.151 234.705L390.262 234.74L390.278 232.59Z" fill="#EBEBEB"/>
<path d="M395.352 237.46L390.242 237.426L390.226 239.576L395.336 239.61L395.352 237.46Z" fill="#A6A6A6"/>
<path d="M395.312 242.834L390.201 242.8L390.189 244.412L395.3 244.446L395.312 242.834Z" fill="#EBEBEB"/>
<path d="M390.173 246.562L385.062 246.527L385.046 248.677L390.157 248.711L390.173 246.562Z" fill="#EBEBEB"/>
<path d="M456.609 247.008L394.148 246.588L394.132 248.738L456.593 249.157L456.609 247.008Z" fill="#EBEBEB"/>
<path d="M395.243 251.969L390.133 251.935L390.121 253.547L395.231 253.581L395.243 251.969Z" fill="#EBEBEB"/>
<path d="M439.534 252.267L399.218 251.996L399.206 253.608L439.522 253.879L439.534 252.267Z" fill="#A6A6A6"/>
<path d="M425.87 257.012L399.182 256.832L399.17 258.444L425.858 258.624L425.87 257.012Z" fill="#FF725E"/>
<path d="M496.849 257.488L428.709 257.031L428.697 258.643L496.837 259.1L496.849 257.488Z" fill="#A6A6A6"/>
<path d="M538.905 252.934L494.614 252.637L494.602 254.249L538.893 254.546L538.905 252.934Z" fill="#FF725E"/>
<path d="M492.342 252.621L441.805 252.282L441.793 253.894L492.33 254.233L492.342 252.621Z" fill="#EBEBEB"/>
<path d="M395.207 256.806L390.097 256.771L390.085 258.383L395.195 258.418L395.207 256.806Z" fill="#EBEBEB"/>
<path d="M390.532 203.575L392.126 199.522C392.144 199.475 392.17 199.433 392.204 199.397C392.237 199.361 392.276 199.333 392.319 199.314C392.362 199.295 392.408 199.286 392.454 199.287C392.501 199.288 392.546 199.298 392.589 199.319C392.631 199.338 392.669 199.366 392.7 199.402C392.732 199.438 392.757 199.48 392.773 199.526C392.79 199.573 392.798 199.622 392.797 199.672C392.796 199.722 392.785 199.771 392.767 199.816L391.193 203.877C391.165 203.945 391.12 204.003 391.062 204.043C391.005 204.084 390.938 204.105 390.87 204.104C390.828 204.115 390.785 204.115 390.744 204.103C390.695 204.088 390.651 204.062 390.612 204.026C390.574 203.99 390.544 203.945 390.524 203.894C390.503 203.844 390.494 203.789 390.495 203.734C390.496 203.678 390.509 203.624 390.532 203.575Z" fill="#FF725E"/>
<path d="M607.214 220.118H600.92L601.269 216.098H606.865L607.214 220.118Z" fill="#EBEBEB"/>
<path d="M595.233 222.032L590.786 226.043L587.881 222.981L591.839 219.411L595.233 222.032Z" fill="#EBEBEB"/>
<path d="M286.047 213.133H292.336L291.992 217.153H286.391L286.047 213.133Z" fill="#EBEBEB"/>
<path d="M298.023 211.219L302.476 207.208L305.375 210.27L301.418 213.84L298.023 211.219Z" fill="#EBEBEB"/>
<path d="M438.701 131.658H476.52V108.773H438.701V131.658Z" fill="#FF725E"/>
<path opacity="0.6" d="M442.466 115.007C442.32 115.577 442.411 116.168 442.725 116.694C443.039 117.22 443.559 117.653 444.208 117.927C444.858 118.202 445.602 118.304 446.331 118.22C447.06 118.135 447.736 117.867 448.257 117.456C448.778 117.045 449.117 116.512 449.225 115.937C449.333 115.362 449.203 114.775 448.854 114.263C448.506 113.751 447.958 113.34 447.291 113.093C446.624 112.845 445.874 112.774 445.151 112.889C444.49 112.995 443.882 113.252 443.404 113.629C442.927 114.005 442.6 114.485 442.466 115.007Z" fill="white"/>
<path d="M451.177 127.959H476.52L463.851 115.642L451.177 127.959Z" fill="#FF725E"/>
<path opacity="0.2" d="M451.177 127.959H476.52L463.851 115.642L451.177 127.959Z" fill="black"/>
<path d="M438.702 127.972H461.177L449.937 119.95L438.702 127.972Z" fill="#FF725E"/>
<path opacity="0.1" d="M438.702 127.972H461.177L449.937 119.95L438.702 127.972Z" fill="black"/>
<path d="M476.52 127.959H438.702V132.89H476.52V127.959Z" fill="#FF725E"/>
<path opacity="0.1" d="M476.52 127.959H438.702V132.89H476.52V127.959Z" fill="black"/>
<path d="M635.442 167.475H585.154V196.408H635.442V167.475Z" fill="white"/>
<path d="M635.759 196.693H584.832V167.208H635.759V196.693ZM585.471 196.122H635.12V167.761H585.471V196.122Z" fill="#EBEBEB"/>
<path d="M635.442 167.475H585.154V172.948H635.442V167.475Z" fill="#455A64"/>
<path d="M590.846 170.25C590.846 170.524 590.756 170.791 590.588 171.018C590.42 171.245 590.18 171.422 589.9 171.526C589.62 171.631 589.312 171.658 589.015 171.604C588.718 171.55 588.445 171.418 588.232 171.225C588.018 171.031 587.872 170.785 587.814 170.517C587.755 170.249 587.787 169.971 587.903 169.719C588.02 169.467 588.217 169.251 588.469 169.1C588.722 168.949 589.018 168.869 589.321 168.87C589.522 168.87 589.721 168.906 589.906 168.975C590.091 169.045 590.26 169.146 590.401 169.275C590.543 169.403 590.655 169.555 590.732 169.723C590.808 169.89 590.847 170.069 590.846 170.25Z" fill="#FF725E"/>
<path d="M597.081 170.25C597.081 170.524 596.991 170.791 596.823 171.018C596.654 171.245 596.415 171.422 596.135 171.526C595.855 171.631 595.547 171.658 595.25 171.604C594.953 171.55 594.68 171.418 594.466 171.225C594.253 171.031 594.107 170.785 594.049 170.517C593.99 170.249 594.021 169.971 594.138 169.719C594.255 169.467 594.452 169.251 594.704 169.1C594.957 168.949 595.253 168.869 595.556 168.87C595.757 168.87 595.956 168.906 596.141 168.975C596.326 169.045 596.495 169.146 596.636 169.275C596.778 169.403 596.89 169.555 596.967 169.723C597.043 169.89 597.082 170.069 597.081 170.25Z" fill="#EBEBEB"/>
<path d="M603.316 170.25C603.316 170.524 603.226 170.791 603.058 171.018C602.89 171.245 602.65 171.422 602.37 171.526C602.09 171.631 601.782 171.658 601.485 171.604C601.188 171.55 600.916 171.418 600.702 171.225C600.488 171.031 600.343 170.785 600.284 170.517C600.226 170.249 600.257 169.971 600.373 169.719C600.49 169.467 600.687 169.251 600.939 169.1C601.192 168.949 601.488 168.869 601.791 168.87C601.992 168.87 602.191 168.906 602.376 168.975C602.562 169.045 602.73 169.146 602.872 169.275C603.013 169.403 603.126 169.555 603.202 169.723C603.278 169.89 603.317 170.069 603.316 170.25Z" fill="white"/>
<path d="M593.827 183.765C593.858 182.301 594.524 180.905 595.683 179.879C596.842 178.853 598.4 178.278 600.024 178.277C601.437 178.27 602.811 178.689 603.928 179.468C604.029 179.538 604.114 179.626 604.177 179.725C604.241 179.825 604.282 179.934 604.298 180.048C604.315 180.162 604.306 180.277 604.273 180.388C604.24 180.499 604.183 180.603 604.106 180.694C604.028 180.785 603.931 180.861 603.821 180.918C603.711 180.976 603.589 181.013 603.463 181.028C603.337 181.043 603.209 181.035 603.086 181.005C602.963 180.975 602.848 180.924 602.747 180.854C601.976 180.296 601.012 180 600.024 180.016C598.894 180.022 597.808 180.413 596.984 181.111C596.595 181.458 596.286 181.871 596.074 182.327C595.862 182.782 595.752 183.271 595.749 183.765C595.748 184.259 595.857 184.748 596.069 185.203C596.281 185.658 596.593 186.07 596.984 186.415C597.806 187.116 598.893 187.509 600.024 187.514C601.012 187.528 601.974 187.232 602.747 186.676C602.956 186.549 603.209 186.495 603.458 186.526C603.708 186.556 603.936 186.668 604.1 186.841C604.248 187.026 604.313 187.255 604.281 187.482C604.249 187.708 604.123 187.916 603.928 188.062C602.811 188.841 601.437 189.26 600.024 189.253C598.399 189.257 596.837 188.683 595.677 187.656C594.517 186.629 593.852 185.231 593.827 183.765Z" fill="#EBEBEB"/>
<path d="M607.011 186.584C607.159 186.423 607.371 186.322 607.601 186.302C607.832 186.282 608.062 186.345 608.241 186.478C609.146 187.172 610.277 187.583 611.463 187.65C612.214 187.663 612.951 187.467 613.574 187.088C613.785 186.972 613.963 186.812 614.09 186.62C614.217 186.428 614.291 186.211 614.304 185.988C614.307 185.817 614.252 185.648 614.148 185.504C614.025 185.308 613.852 185.142 613.643 185.02C612.926 184.658 612.142 184.415 611.329 184.303H611.297C610.545 184.188 609.813 183.99 609.116 183.712C608.476 183.459 607.93 183.045 607.543 182.52C607.285 182.145 607.151 181.712 607.156 181.27C607.173 180.83 607.304 180.4 607.539 180.013C607.774 179.627 608.107 179.296 608.509 179.047C609.365 178.508 610.387 178.225 611.431 178.238C612.767 178.3 614.052 178.725 615.115 179.459C615.304 179.575 615.434 179.753 615.478 179.955C615.522 180.157 615.477 180.367 615.351 180.539C615.29 180.627 615.21 180.702 615.116 180.761C615.022 180.821 614.916 180.862 614.804 180.884C614.692 180.906 614.576 180.907 614.463 180.888C614.351 180.868 614.244 180.829 614.148 180.772C613.289 180.253 612.462 179.803 611.431 179.803C610.754 179.792 610.091 179.973 609.535 180.321C609.35 180.424 609.195 180.566 609.084 180.735C608.973 180.904 608.908 181.094 608.896 181.29C608.886 181.439 608.927 181.588 609.014 181.716C609.135 181.875 609.29 182.01 609.471 182.113C610.119 182.459 610.836 182.687 611.581 182.787H611.613C612.419 182.911 613.203 183.126 613.949 183.426C614.633 183.695 615.218 184.133 615.636 184.69C615.904 185.078 616.046 185.526 616.044 185.984C616.029 186.454 615.889 186.914 615.635 187.325C615.382 187.737 615.023 188.087 614.589 188.347C613.675 188.927 612.58 189.231 611.463 189.214C609.877 189.146 608.358 188.612 607.14 187.693C606.966 187.558 606.856 187.368 606.832 187.162C606.808 186.956 606.872 186.749 607.011 186.584Z" fill="#EBEBEB"/>
<path d="M618.112 186.584C618.259 186.423 618.472 186.322 618.702 186.302C618.933 186.282 619.163 186.345 619.341 186.478C620.247 187.172 621.377 187.583 622.564 187.65C623.315 187.663 624.052 187.467 624.674 187.088C624.886 186.972 625.063 186.812 625.191 186.62C625.318 186.428 625.391 186.211 625.405 185.988C625.407 185.816 625.353 185.648 625.249 185.504C625.126 185.308 624.953 185.142 624.744 185.02C624.026 184.658 623.242 184.415 622.429 184.303H622.397C621.646 184.188 620.914 183.99 620.217 183.712C619.577 183.459 619.03 183.045 618.643 182.52C618.386 182.145 618.252 181.712 618.257 181.27C618.28 180.837 618.413 180.415 618.647 180.036C618.881 179.657 619.209 179.332 619.605 179.086C620.46 178.546 621.482 178.263 622.526 178.277C623.863 178.339 625.147 178.764 626.21 179.498C626.399 179.614 626.529 179.792 626.574 179.994C626.618 180.196 626.572 180.406 626.446 180.578C626.385 180.665 626.305 180.741 626.212 180.8C626.118 180.859 626.011 180.901 625.899 180.923C625.787 180.944 625.671 180.946 625.559 180.926C625.446 180.907 625.339 180.867 625.243 180.81C624.384 180.292 623.557 179.841 622.526 179.841C621.85 179.83 621.186 180.012 620.63 180.36C620.445 180.463 620.291 180.605 620.179 180.774C620.068 180.942 620.004 181.133 619.991 181.329C619.994 181.476 620.046 181.62 620.142 181.74C620.262 181.899 620.417 182.035 620.598 182.137C621.247 182.483 621.964 182.711 622.709 182.811H622.741C623.546 182.935 624.331 183.15 625.077 183.45C625.76 183.719 626.345 184.158 626.763 184.714C627.028 185.104 627.169 185.551 627.171 186.008C627.156 186.478 627.016 186.938 626.763 187.349C626.51 187.761 626.151 188.111 625.716 188.372C624.802 188.951 623.708 189.255 622.591 189.239C621.013 189.165 619.506 188.631 618.294 187.718C618.104 187.589 617.979 187.397 617.944 187.185C617.91 186.973 617.97 186.757 618.112 186.584Z" fill="#EBEBEB"/>
<path d="M606.817 213.691H578.585V225.132H606.817V213.691Z" fill="#455A64"/>
<path d="M586.984 219.92H585.813V221.785C585.813 221.913 585.757 222.036 585.656 222.127C585.555 222.218 585.419 222.269 585.276 222.269C585.134 222.269 584.997 222.218 584.897 222.127C584.796 222.036 584.739 221.913 584.739 221.785V216.708C584.739 216.58 584.796 216.457 584.897 216.366C584.997 216.275 585.134 216.224 585.276 216.224H586.979C587.52 216.224 588.039 216.418 588.422 216.763C588.804 217.108 589.019 217.576 589.019 218.065C589.019 218.553 588.804 219.021 588.422 219.366C588.039 219.711 587.52 219.905 586.979 219.905L586.984 219.92ZM585.813 218.951H586.984C587.113 218.951 587.241 218.928 587.36 218.884C587.479 218.839 587.588 218.774 587.679 218.691C587.77 218.609 587.843 218.511 587.892 218.404C587.941 218.296 587.967 218.181 587.967 218.065C587.967 217.948 587.941 217.833 587.892 217.725C587.843 217.618 587.77 217.52 587.679 217.438C587.588 217.355 587.479 217.29 587.36 217.246C587.241 217.201 587.113 217.178 586.984 217.178H585.813V218.951Z" fill="white"/>
<path d="M590.313 221.785V216.708C590.313 216.58 590.37 216.457 590.471 216.366C590.571 216.275 590.708 216.224 590.851 216.224C590.993 216.224 591.13 216.275 591.23 216.366C591.331 216.457 591.388 216.58 591.388 216.708V218.777H593.858V216.708C593.858 216.58 593.914 216.457 594.015 216.366C594.116 216.275 594.253 216.224 594.395 216.224C594.537 216.224 594.674 216.275 594.775 216.366C594.875 216.457 594.932 216.58 594.932 216.708V221.785C594.932 221.913 594.875 222.036 594.775 222.127C594.674 222.218 594.537 222.269 594.395 222.269C594.253 222.269 594.116 222.218 594.015 222.127C593.914 222.036 593.858 221.913 593.858 221.785V219.721H591.388V221.785C591.388 221.913 591.331 222.036 591.23 222.127C591.13 222.218 590.993 222.269 590.851 222.269C590.708 222.269 590.571 222.218 590.471 222.127C590.37 222.036 590.313 221.913 590.313 221.785Z" fill="white"/>
<path d="M599.303 219.92H598.133V221.785C598.133 221.913 598.076 222.036 597.975 222.127C597.875 222.218 597.738 222.269 597.596 222.269C597.453 222.269 597.317 222.218 597.216 222.127C597.115 222.036 597.059 221.913 597.059 221.785V216.708C597.059 216.58 597.115 216.457 597.216 216.366C597.317 216.275 597.453 216.224 597.596 216.224H599.303C599.845 216.224 600.364 216.418 600.746 216.763C601.129 217.108 601.344 217.576 601.344 218.065C601.344 218.553 601.129 219.021 600.746 219.366C600.364 219.711 599.845 219.905 599.303 219.905V219.92ZM598.133 218.951H599.303C599.432 218.951 599.56 218.928 599.68 218.884C599.799 218.839 599.907 218.774 599.998 218.691C600.09 218.609 600.162 218.511 600.211 218.404C600.261 218.296 600.286 218.181 600.286 218.065C600.286 217.948 600.261 217.833 600.211 217.725C600.162 217.618 600.09 217.52 599.998 217.438C599.907 217.355 599.799 217.29 599.68 217.246C599.56 217.201 599.432 217.178 599.303 217.178H598.133V218.951Z" fill="white"/>
<g opacity="0.8">
<path opacity="0.8" d="M461.755 117.554C461.757 117.763 461.667 117.967 461.498 118.141C461.329 118.316 461.088 118.452 460.806 118.532C460.523 118.613 460.213 118.634 459.913 118.594C459.613 118.553 459.337 118.453 459.12 118.306C458.904 118.158 458.756 117.97 458.696 117.765C458.636 117.56 458.666 117.347 458.783 117.154C458.9 116.961 459.098 116.795 459.352 116.679C459.606 116.563 459.905 116.501 460.211 116.501C460.619 116.502 461.01 116.613 461.3 116.81C461.589 117.007 461.753 117.274 461.755 117.554Z" fill="#FF725E"/>
<path opacity="0.8" d="M468.707 134.108H465.617V135.516H468.707V134.108Z" fill="#EBEBEB"/>
<path opacity="0.8" d="M475.658 137.629H472.568V138.333H475.658V137.629Z" fill="#EBEBEB"/>
<path opacity="0.8" d="M478.196 149.275H474.953V150.345H478.196V149.275Z" fill="#EBEBEB"/>
<path opacity="0.8" d="M463.976 126.725C463.999 126.744 464.017 126.766 464.03 126.79C464.043 126.815 464.049 126.841 464.049 126.867C464.049 126.893 464.043 126.919 464.03 126.943C464.017 126.968 463.999 126.99 463.976 127.008C463.931 127.044 463.87 127.065 463.806 127.065C463.74 127.066 463.676 127.045 463.628 127.008L462.531 126.118C462.529 126.115 462.528 126.112 462.528 126.109C462.528 126.105 462.529 126.102 462.531 126.099C462.527 126.091 462.527 126.081 462.531 126.073C462.531 126.073 462.531 126.073 462.531 126.054C462.531 126.035 462.531 126.054 462.531 126.054V126.031C462.531 126.031 462.531 126.031 462.531 126.012V125.975V125.948C462.531 125.948 462.531 125.948 462.531 125.922C462.531 125.922 462.531 125.922 462.555 125.903L463.651 125.009C463.698 124.973 463.76 124.952 463.825 124.952C463.89 124.952 463.953 124.973 463.999 125.009C464.023 125.027 464.041 125.05 464.054 125.074C464.066 125.098 464.073 125.124 464.073 125.15C464.073 125.177 464.066 125.203 464.054 125.227C464.041 125.251 464.023 125.273 463.999 125.292L463.058 126.046L463.976 126.725Z" fill="#FF725E"/>
<path opacity="0.8" d="M465.647 126.83L466.704 125.053C466.716 125.033 466.734 125.015 466.756 125C466.779 124.985 466.805 124.973 466.834 124.964C466.863 124.956 466.894 124.952 466.925 124.952C466.957 124.952 466.987 124.957 467.016 124.965C467.045 124.974 467.071 124.986 467.093 125.001C467.115 125.017 467.133 125.035 467.144 125.055C467.156 125.075 467.162 125.097 467.162 125.119C467.162 125.14 467.155 125.162 467.143 125.182L466.086 126.958C466.068 126.989 466.037 127.015 465.997 127.033C465.958 127.052 465.911 127.061 465.863 127.061C465.834 127.066 465.803 127.066 465.774 127.061C465.741 127.053 465.712 127.041 465.688 127.024C465.663 127.008 465.645 126.988 465.632 126.966C465.62 126.944 465.615 126.92 465.618 126.897C465.62 126.873 465.63 126.85 465.647 126.83Z" fill="#FF725E"/>
<path opacity="0.8" d="M469.456 126.129L469.421 126.151L467.794 127.01C467.723 127.046 467.628 127.066 467.529 127.065C467.433 127.065 467.34 127.045 467.271 127.01C467.236 126.992 467.209 126.971 467.19 126.948C467.172 126.924 467.162 126.899 467.162 126.874C467.162 126.848 467.172 126.823 467.19 126.8C467.209 126.776 467.236 126.755 467.271 126.737L468.667 126.009L467.271 125.28C467.236 125.263 467.209 125.241 467.19 125.218C467.172 125.194 467.162 125.169 467.162 125.144C467.162 125.119 467.172 125.093 467.19 125.07C467.209 125.047 467.236 125.025 467.271 125.007C467.341 124.972 467.435 124.952 467.533 124.952C467.63 124.952 467.724 124.972 467.794 125.007L469.421 125.87L469.456 125.889C469.456 125.889 469.456 125.907 469.456 125.914C469.456 125.921 469.456 125.914 469.456 125.914C469.454 125.924 469.454 125.934 469.456 125.943V126.02C469.456 126.02 469.456 126.042 469.456 126.049C469.471 126.061 469.479 126.075 469.479 126.089C469.479 126.103 469.471 126.117 469.456 126.129Z" fill="#FF725E"/>
</g>
<path d="M331.749 247.496H297.491V258.937H331.749V247.496Z" fill="#FF725E"/>
<path d="M302.432 255.59V250.513C302.432 250.385 302.488 250.262 302.589 250.171C302.69 250.08 302.826 250.029 302.969 250.029C303.111 250.029 303.248 250.08 303.348 250.171C303.449 250.262 303.506 250.385 303.506 250.513V252.582H305.976V250.513C305.976 250.385 306.033 250.262 306.133 250.171C306.234 250.08 306.371 250.029 306.513 250.029C306.656 250.029 306.792 250.08 306.893 250.171C306.994 250.262 307.05 250.385 307.05 250.513V255.59C307.05 255.718 306.994 255.841 306.893 255.932C306.792 256.023 306.656 256.074 306.513 256.074C306.371 256.074 306.234 256.023 306.133 255.932C306.033 255.841 305.976 255.718 305.976 255.59V253.526H303.506V255.59C303.506 255.718 303.449 255.841 303.348 255.932C303.248 256.023 303.111 256.074 302.969 256.074C302.826 256.074 302.69 256.023 302.589 255.932C302.488 255.841 302.432 255.718 302.432 255.59Z" fill="white"/>
<path d="M313.275 250.998H311.782V255.59C311.782 255.718 311.725 255.841 311.625 255.932C311.524 256.023 311.387 256.074 311.245 256.074C311.102 256.074 310.966 256.023 310.865 255.932C310.764 255.841 310.708 255.718 310.708 255.59V250.998H309.204C309.062 250.998 308.925 250.947 308.824 250.856C308.724 250.765 308.667 250.642 308.667 250.513C308.667 250.385 308.724 250.262 308.824 250.171C308.925 250.08 309.062 250.029 309.204 250.029H313.275C313.417 250.029 313.554 250.08 313.655 250.171C313.755 250.262 313.812 250.385 313.812 250.513C313.812 250.642 313.755 250.765 313.655 250.856C313.554 250.947 313.417 250.998 313.275 250.998Z" fill="white"/>
<path d="M321.11 250.513V255.59C321.11 255.718 321.053 255.841 320.952 255.932C320.852 256.023 320.715 256.074 320.573 256.074C320.43 256.074 320.294 256.023 320.193 255.932C320.092 255.841 320.036 255.718 320.036 255.59V251.971L318.677 253.681C318.627 253.741 318.562 253.79 318.487 253.824C318.413 253.858 318.331 253.875 318.247 253.875C318.162 253.877 318.078 253.86 318.001 253.826C317.924 253.792 317.858 253.743 317.807 253.681L316.443 251.962V255.58C316.443 255.709 316.386 255.832 316.285 255.923C316.185 256.013 316.048 256.065 315.906 256.065C315.763 256.065 315.627 256.013 315.526 255.923C315.425 255.832 315.369 255.709 315.369 255.58V250.513C315.369 250.385 315.425 250.262 315.526 250.171C315.627 250.08 315.763 250.029 315.906 250.029H315.933C316.015 250.031 316.095 250.05 316.168 250.084C316.24 250.119 316.303 250.168 316.351 250.228L318.253 252.601L320.148 250.228C320.198 250.167 320.262 250.117 320.337 250.082C320.412 250.048 320.494 250.03 320.578 250.029C320.719 250.03 320.855 250.082 320.954 250.173C321.054 250.263 321.11 250.386 321.11 250.513Z" fill="white"/>
<path d="M323.419 255.59V250.513C323.419 250.385 323.476 250.262 323.576 250.171C323.677 250.08 323.814 250.029 323.956 250.029C324.098 250.029 324.235 250.08 324.336 250.171C324.436 250.262 324.493 250.385 324.493 250.513V255.134H327.076C327.219 255.134 327.355 255.186 327.456 255.276C327.557 255.367 327.613 255.49 327.613 255.619C327.613 255.747 327.557 255.871 327.456 255.961C327.355 256.052 327.219 256.103 327.076 256.103H323.956C323.883 256.103 323.81 256.09 323.743 256.064C323.675 256.038 323.615 255.999 323.564 255.951C323.514 255.903 323.475 255.846 323.45 255.784C323.425 255.722 323.415 255.656 323.419 255.59Z" fill="white"/>
<path d="M324.039 207.352H280.313V229.889H324.039V207.352Z" fill="#FF725E"/>
<path d="M291.933 221.42C292.146 222.056 292.582 222.597 293.163 222.945C293.744 223.294 294.431 223.428 295.103 223.323C295.774 223.219 296.386 222.882 296.829 222.374C297.273 221.866 297.518 221.219 297.522 220.549V212.416C297.599 212.173 297.752 211.961 297.96 211.81C298.168 211.659 298.42 211.578 298.678 211.578C298.936 211.578 299.187 211.659 299.395 211.81C299.603 211.961 299.757 212.173 299.833 212.416V220.549C299.839 221.766 299.401 222.945 298.601 223.872C297.8 224.799 296.689 225.413 295.469 225.601C294.249 225.79 293 225.542 291.95 224.902C290.899 224.262 290.116 223.272 289.743 222.111C289.694 221.97 289.675 221.821 289.686 221.673C289.697 221.525 289.738 221.38 289.807 221.247C289.875 221.115 289.971 220.998 290.086 220.902C290.202 220.807 290.336 220.735 290.481 220.692C290.625 220.644 290.777 220.625 290.928 220.635C291.079 220.646 291.227 220.686 291.362 220.754C291.498 220.822 291.618 220.916 291.716 221.03C291.814 221.144 291.888 221.277 291.933 221.42Z" fill="white"/>
<path d="M303.196 222.082C303.383 221.866 303.651 221.729 303.942 221.703C304.234 221.676 304.524 221.761 304.75 221.939C305.903 222.87 307.336 223.422 308.839 223.514C309.791 223.531 310.724 223.264 311.512 222.75C311.778 222.596 312 222.381 312.161 222.126C312.321 221.87 312.414 221.58 312.432 221.282C312.44 221.049 312.37 220.819 312.233 220.626C312.075 220.374 311.858 220.161 311.599 220.005C310.69 219.515 309.696 219.187 308.665 219.039C307.714 218.887 306.786 218.619 305.906 218.239C305.097 217.901 304.406 217.345 303.917 216.64C303.588 216.136 303.415 215.552 303.42 214.957C303.442 214.363 303.609 213.783 303.907 213.263C304.205 212.743 304.625 212.297 305.135 211.961C306.227 211.228 307.533 210.848 308.864 210.875C310.554 210.958 312.178 211.528 313.525 212.51C313.766 212.665 313.932 212.906 313.988 213.179C314.044 213.452 313.985 213.735 313.824 213.966C313.748 214.085 313.648 214.188 313.529 214.268C313.411 214.348 313.277 214.405 313.135 214.434C312.993 214.463 312.846 214.464 312.704 214.437C312.562 214.41 312.427 214.355 312.307 214.276C311.325 213.513 310.124 213.055 308.864 212.963C308.011 212.948 307.175 213.195 306.478 213.668C306.242 213.802 306.044 213.989 305.901 214.214C305.758 214.439 305.674 214.694 305.657 214.957C305.647 215.159 305.703 215.36 305.819 215.53C305.971 215.743 306.165 215.926 306.391 216.067C307.213 216.529 308.12 216.833 309.063 216.962C310.082 217.137 311.075 217.43 312.021 217.833C312.884 218.196 313.624 218.783 314.159 219.528C314.49 220.058 314.666 220.664 314.669 221.282C314.649 221.917 314.47 222.538 314.148 223.093C313.825 223.647 313.369 224.119 312.817 224.469C311.665 225.26 310.28 225.678 308.864 225.663C306.856 225.572 304.935 224.851 303.395 223.61C303.277 223.522 303.179 223.413 303.105 223.289C303.031 223.165 302.984 223.028 302.965 222.886C302.947 222.744 302.958 222.6 302.997 222.462C303.037 222.324 303.105 222.195 303.196 222.082Z" fill="white"/>
<path d="M641.683 240.034H591.395V268.967H641.683V240.034Z" fill="white"/>
<path d="M642 269.258H591.078V239.749H642V269.258ZM591.712 268.681H641.366V240.325H591.712V268.681Z" fill="#EBEBEB"/>
<path d="M641.683 240.034H591.395V245.508H641.683V240.034Z" fill="#455A64"/>
<path d="M642 245.794H591.078V239.749H642V245.794ZM591.712 245.222H641.366V240.325H591.712V245.222Z" fill="#EBEBEB"/>
<path d="M617.389 268.164C617.389 268.436 617.299 268.702 617.132 268.928C616.964 269.154 616.726 269.331 616.447 269.435C616.169 269.539 615.862 269.566 615.566 269.513C615.27 269.46 614.998 269.329 614.785 269.137C614.572 268.944 614.427 268.699 614.368 268.432C614.309 268.165 614.339 267.889 614.454 267.637C614.57 267.386 614.765 267.171 615.016 267.02C615.267 266.869 615.562 266.788 615.864 266.788C616.064 266.788 616.262 266.824 616.447 266.893C616.632 266.962 616.8 267.063 616.942 267.191C617.084 267.319 617.196 267.471 617.273 267.637C617.349 267.804 617.389 267.983 617.389 268.164Z" fill="#FF725E"/>
<path d="M603.322 242.81C603.322 243.082 603.233 243.348 603.065 243.574C602.898 243.801 602.659 243.977 602.381 244.081C602.102 244.185 601.795 244.212 601.5 244.159C601.204 244.106 600.932 243.975 600.719 243.783C600.505 243.59 600.36 243.345 600.301 243.078C600.242 242.812 600.273 242.535 600.388 242.284C600.504 242.032 600.699 241.817 600.95 241.666C601.201 241.515 601.495 241.434 601.797 241.434C602.202 241.434 602.59 241.579 602.876 241.837C603.162 242.095 603.322 242.445 603.322 242.81Z" fill="#EBEBEB"/>
<path d="M609.558 242.81C609.559 243.084 609.469 243.352 609.301 243.58C609.133 243.808 608.893 243.985 608.613 244.09C608.332 244.195 608.024 244.222 607.726 244.168C607.428 244.114 607.155 243.982 606.941 243.787C606.727 243.593 606.582 243.346 606.524 243.077C606.467 242.808 606.499 242.53 606.617 242.277C606.735 242.025 606.934 241.81 607.188 241.66C607.442 241.51 607.74 241.431 608.043 241.434C608.446 241.437 608.831 241.583 609.115 241.841C609.398 242.098 609.558 242.447 609.558 242.81Z" fill="white"/>
<path d="M600.782 256.339C600.812 254.875 601.476 253.48 602.632 252.452C603.789 251.424 605.345 250.846 606.969 250.841C608.381 250.834 609.755 251.251 610.873 252.028C611.078 252.17 611.211 252.379 611.244 252.61C611.278 252.841 611.208 253.074 611.05 253.258C610.893 253.443 610.661 253.563 610.405 253.593C610.149 253.623 609.891 253.56 609.686 253.418C608.919 252.858 607.956 252.561 606.969 252.58C605.839 252.585 604.752 252.976 603.929 253.675C603.54 254.022 603.231 254.436 603.019 254.891C602.807 255.347 602.696 255.835 602.694 256.329C602.693 256.823 602.802 257.312 603.014 257.767C603.226 258.222 603.537 258.634 603.929 258.979C604.75 259.681 605.837 260.074 606.969 260.079C607.955 260.093 608.916 259.797 609.686 259.241C609.895 259.113 610.148 259.06 610.398 259.09C610.647 259.121 610.876 259.233 611.04 259.405C611.189 259.59 611.254 259.819 611.223 260.045C611.192 260.272 611.067 260.479 610.873 260.626C609.755 261.403 608.381 261.82 606.969 261.813C605.348 261.814 603.791 261.241 602.634 260.218C601.477 259.194 600.812 257.801 600.782 256.339Z" fill="#EBEBEB"/>
<path d="M616.984 257.308H614.584C614.337 257.308 614.101 257.22 613.927 257.062C613.753 256.905 613.655 256.692 613.655 256.47C613.655 256.248 613.753 256.034 613.927 255.877C614.101 255.72 614.337 255.632 614.584 255.632H616.984V253.51C617.003 253.291 617.112 253.086 617.291 252.936C617.47 252.786 617.704 252.703 617.948 252.703C618.192 252.703 618.427 252.786 618.606 252.936C618.785 253.086 618.894 253.291 618.912 253.51V255.632H621.313C621.559 255.632 621.796 255.72 621.97 255.877C622.144 256.034 622.242 256.248 622.242 256.47C622.242 256.692 622.144 256.905 621.97 257.062C621.796 257.22 621.559 257.308 621.313 257.308H618.912V259.425C618.922 259.544 618.905 259.664 618.861 259.778C618.817 259.891 618.747 259.995 618.657 260.083C618.566 260.171 618.457 260.241 618.335 260.289C618.213 260.337 618.081 260.361 617.948 260.361C617.815 260.361 617.684 260.337 617.562 260.289C617.44 260.241 617.33 260.171 617.24 260.083C617.149 259.995 617.08 259.891 617.036 259.778C616.992 259.664 616.975 259.544 616.984 259.425V257.308Z" fill="#EBEBEB"/>
<path d="M627.462 257.308H625.062C624.94 257.308 624.819 257.286 624.706 257.244C624.594 257.202 624.491 257.14 624.405 257.062C624.319 256.985 624.25 256.892 624.204 256.79C624.157 256.689 624.133 256.58 624.133 256.47C624.133 256.36 624.157 256.251 624.204 256.149C624.25 256.047 624.319 255.955 624.405 255.877C624.491 255.799 624.594 255.738 624.706 255.696C624.819 255.653 624.94 255.632 625.062 255.632H627.462V253.51C627.461 253.396 627.485 253.283 627.533 253.177C627.581 253.071 627.651 252.975 627.741 252.894C627.83 252.813 627.937 252.75 628.054 252.706C628.171 252.663 628.297 252.642 628.424 252.643C628.679 252.643 628.923 252.734 629.104 252.897C629.284 253.06 629.385 253.28 629.385 253.51V255.632H631.786C632.032 255.632 632.268 255.72 632.443 255.877C632.617 256.034 632.715 256.248 632.715 256.47C632.715 256.692 632.617 256.905 632.443 257.062C632.268 257.22 632.032 257.308 631.786 257.308H629.385V259.425C629.386 259.539 629.361 259.652 629.313 259.758C629.265 259.864 629.195 259.96 629.105 260.041C629.016 260.122 628.91 260.186 628.793 260.23C628.676 260.274 628.55 260.297 628.424 260.296C628.297 260.298 628.171 260.276 628.053 260.233C627.935 260.189 627.828 260.125 627.739 260.044C627.649 259.962 627.579 259.866 627.531 259.759C627.484 259.653 627.46 259.539 627.462 259.425V257.308Z" fill="#EBEBEB"/>
<path d="M315.553 44.5332L306.352 54.3009L307.303 55.1989L316.505 45.4313L315.553 44.5332Z" fill="#263238"/>
<path d="M316.252 54.504H306.829V55.8129H316.252V54.504Z" fill="#455A64"/>
<path d="M316.252 44.3207H306.829V45.6297H316.252V44.3207Z" fill="#455A64"/>
<path d="M307.305 44.5225L306.354 45.4204L315.553 55.1897L316.505 54.2918L307.305 44.5225Z" fill="#455A64"/>
<path d="M315.554 54.7039L306.352 64.4716L307.303 65.3696L316.505 55.6019L315.554 54.7039Z" fill="#263238"/>
<path d="M316.252 64.6813H306.829V65.9902H316.252V64.6813Z" fill="#455A64"/>
<path d="M316.252 54.504H306.829V55.8129H316.252V54.504Z" fill="#455A64"/>
<path d="M307.308 54.6963L306.357 55.5942L315.557 65.3634L316.508 64.4656L307.308 54.6963Z" fill="#455A64"/>
<path d="M315.553 64.8907L306.352 74.6584L307.303 75.5564L316.505 65.7888L315.553 64.8907Z" fill="#263238"/>
<path d="M316.252 74.8647H306.829V76.1737H316.252V74.8647Z" fill="#455A64"/>
<path d="M316.252 64.6813H306.829V65.9902H316.252V64.6813Z" fill="#455A64"/>
<path d="M307.31 64.8801L306.359 65.778L315.559 75.5472L316.51 74.6493L307.31 64.8801Z" fill="#455A64"/>
<path d="M315.554 75.0674L306.353 84.835L307.304 85.7331L316.506 75.9654L315.554 75.0674Z" fill="#263238"/>
<path d="M316.252 85.0421H306.829V86.351H316.252V85.0421Z" fill="#455A64"/>
<path d="M316.252 74.8647H306.829V76.1737H316.252V74.8647Z" fill="#455A64"/>
<path d="M307.309 75.0536L306.357 75.9515L315.557 85.7207L316.509 84.8229L307.309 75.0536Z" fill="#455A64"/>
<path d="M315.553 85.2543L306.352 95.022L307.303 95.92L316.505 86.1523L315.553 85.2543Z" fill="#263238"/>
<path d="M316.252 95.2193H306.829V96.5282H316.252V95.2193Z" fill="#455A64"/>
<path d="M316.252 85.0421H306.829V86.351H316.252V85.0421Z" fill="#455A64"/>
<path d="M307.306 85.2332L306.355 86.1311L315.555 95.9004L316.506 95.0025L307.306 85.2332Z" fill="#455A64"/>
<path d="M316.322 95.8859L307.068 105.687L308.022 106.59L317.277 96.7891L316.322 95.8859Z" fill="#263238"/>
<path d="M316.252 105.403H306.829V106.712H316.252V105.403Z" fill="#455A64"/>
<path d="M316.252 95.2193H306.829V96.5282H316.252V95.2193Z" fill="#455A64"/>
<path d="M307.309 95.4174L306.357 96.3152L315.557 106.085L316.509 105.187L307.309 95.4174Z" fill="#455A64"/>
<path d="M316.343 106.103L307.088 115.903L308.043 116.807L317.297 107.006L316.343 106.103Z" fill="#263238"/>
<path d="M316.252 115.58H306.829V116.889H316.252V115.58Z" fill="#455A64"/>
<path d="M316.252 105.403H306.829V106.712H316.252V105.403Z" fill="#455A64"/>
<path d="M307.307 105.591L306.355 106.489L315.555 116.258L316.507 115.36L307.307 105.591Z" fill="#455A64"/>
<path d="M315.555 115.789L306.354 125.556L307.305 126.454L316.507 116.687L315.555 115.789Z" fill="#263238"/>
<path d="M316.252 125.757H306.829V127.066H316.252V125.757Z" fill="#455A64"/>
<path d="M316.252 115.58H306.829V116.889H316.252V115.58Z" fill="#455A64"/>
<path d="M307.309 115.775L306.358 116.673L315.558 126.442L316.509 125.544L307.309 115.775Z" fill="#455A64"/>
<path d="M315.556 125.959L306.354 135.727L307.306 136.625L316.507 126.857L315.556 125.959Z" fill="#263238"/>
<path d="M316.252 135.941H306.829V137.25H316.252V135.941Z" fill="#455A64"/>
<path d="M316.252 125.757H306.829V127.066H316.252V125.757Z" fill="#455A64"/>
<path d="M307.313 125.954L306.362 126.852L315.562 136.622L316.513 135.724L307.313 125.954Z" fill="#455A64"/>
<path d="M315.554 136.149L306.355 145.92L307.307 146.818L316.505 137.047L315.554 136.149Z" fill="#263238"/>
<path d="M316.252 146.118H306.829V147.427H316.252V146.118Z" fill="#455A64"/>
<path d="M316.252 135.941H306.829V137.25H316.252V135.941Z" fill="#455A64"/>
<path d="M307.305 136.134L306.354 137.032L315.554 146.801L316.506 145.903L307.305 136.134Z" fill="#455A64"/>
<path d="M315.552 146.329L306.354 156.1L307.305 156.998L316.503 147.227L315.552 146.329Z" fill="#263238"/>
<path d="M316.252 156.302H306.829V157.611H316.252V156.302Z" fill="#455A64"/>
<path d="M316.252 146.118H306.829V147.427H316.252V146.118Z" fill="#455A64"/>
<path d="M307.313 146.312L306.362 147.21L315.562 156.979L316.513 156.081L307.313 146.312Z" fill="#455A64"/>
<path d="M318.142 162.09V156.164H304.55V162.09H318.142Z" fill="#455A64"/>
<path d="M307.95 156.542V44.861H304.543V156.542H307.95Z" fill="#455A64"/>
<path d="M318.142 156.536V44.8549H314.735V156.536H318.142Z" fill="#455A64"/>
<path d="M407.69 44.0564L397.505 34.0111L311.556 17.9795L285.433 34.0892L284.75 32.9724L311.298 16.5985L398.141 32.7982L408.608 43.1257L407.69 44.0564Z" fill="#455A64"/>
<path d="M321.92 35.4221L311.453 20.8556L301.43 35.3981L299.277 33.915L311.405 16.3163L324.044 33.891L321.92 35.4221Z" fill="#263238"/>
<path d="M387.924 35.1773L387.027 36.1298L396.786 45.3391L397.683 44.3866L387.924 35.1773Z" fill="#263238"/>
<path d="M398.291 35.4222H396.983V44.855H398.291V35.4222Z" fill="#455A64"/>
<path d="M388.124 35.4222H386.816V44.855H388.124V35.4222Z" fill="#455A64"/>
<path d="M396.776 35.1615L387.018 44.3725L387.915 45.3248L397.673 36.1138L396.776 35.1615Z" fill="#455A64"/>
<path d="M377.749 35.1779L376.852 36.1304L386.611 45.3397L387.508 44.3872L377.749 35.1779Z" fill="#263238"/>
<path d="M388.124 35.4222H386.816V44.855H388.124V35.4222Z" fill="#455A64"/>
<path d="M377.957 35.4222H376.649V44.855H377.957V35.4222Z" fill="#455A64"/>
<path d="M386.607 35.1608L376.85 44.3718L377.747 45.3241L387.505 36.1131L386.607 35.1608Z" fill="#455A64"/>
<path d="M367.583 35.1801L366.687 36.1326L376.446 45.3419L377.343 44.3894L367.583 35.1801Z" fill="#263238"/>
<path d="M377.957 35.4222H376.649V44.855H377.957V35.4222Z" fill="#455A64"/>
<path d="M367.784 35.4222H366.476V44.855H367.784V35.4222Z" fill="#455A64"/>
<path d="M376.439 35.1601L366.682 44.3712L367.579 45.3235L377.337 36.1125L376.439 35.1601Z" fill="#455A64"/>
<path d="M357.412 35.1763L356.515 36.1287L366.275 45.338L367.171 44.3856L357.412 35.1763Z" fill="#263238"/>
<path d="M367.784 35.4222H366.476V44.855H367.784V35.4222Z" fill="#455A64"/>
<path d="M357.616 35.4222H356.309V44.855H357.616V35.4222Z" fill="#455A64"/>
<path d="M366.267 35.1636L356.509 44.3746L357.406 45.3269L367.164 36.1159L366.267 35.1636Z" fill="#455A64"/>
<path d="M347.243 35.1769L346.346 36.1293L356.106 45.3386L357.003 44.3862L347.243 35.1769Z" fill="#263238"/>
<path d="M357.616 35.4222H356.309V44.855H357.616V35.4222Z" fill="#455A64"/>
<path d="M347.443 35.4222H346.136V44.855H347.443V35.4222Z" fill="#455A64"/>
<path d="M356.099 35.163L346.341 44.374L347.238 45.3263L356.996 36.1153L356.099 35.163Z" fill="#455A64"/>
<path d="M337.072 35.1793L336.175 36.1317L345.935 45.341L346.832 44.3886L337.072 35.1793Z" fill="#263238"/>
<path d="M347.443 35.4222H346.136V44.855H347.443V35.4222Z" fill="#455A64"/>
<path d="M337.276 35.4222H335.969V44.855H337.276V35.4222Z" fill="#455A64"/>
<path d="M345.937 35.1563L336.179 44.3673L337.076 45.3196L346.834 36.1086L345.937 35.1563Z" fill="#455A64"/>
<path d="M326.897 35.1797L326 36.1321L335.759 45.3415L336.656 44.389L326.897 35.1797Z" fill="#263238"/>
<path d="M337.276 35.4222H335.969V44.855H337.276V35.4222Z" fill="#455A64"/>
<path d="M327.109 35.4222H325.801V44.855H327.109V35.4222Z" fill="#455A64"/>
<path d="M335.765 35.1658L326.007 44.3768L326.904 45.3291L336.662 36.1181L335.765 35.1658Z" fill="#455A64"/>
<path d="M316.731 35.176L315.834 36.1284L325.594 45.3377L326.491 44.3853L316.731 35.176Z" fill="#263238"/>
<path d="M327.109 35.4222H325.801V44.855H327.109V35.4222Z" fill="#455A64"/>
<path d="M316.936 35.4222H315.628V44.855H316.936V35.4222Z" fill="#455A64"/>
<path d="M325.596 35.1591L315.838 44.3701L316.736 45.3224L326.493 36.1114L325.596 35.1591Z" fill="#455A64"/>
<path d="M306.561 35.1721L305.664 36.1246L315.423 45.3339L316.32 44.3814L306.561 35.1721Z" fill="#263238"/>
<path d="M316.936 35.4222H315.628V44.855H316.936V35.4222Z" fill="#455A64"/>
<path d="M306.769 35.4222H305.461V44.855H306.769V35.4222Z" fill="#455A64"/>
<path d="M315.424 35.1625L305.666 44.3735L306.563 45.3258L316.321 36.1148L315.424 35.1625Z" fill="#455A64"/>
<path d="M296.392 35.1788L295.495 36.1312L305.254 45.3405L306.151 44.3881L296.392 35.1788Z" fill="#263238"/>
<path d="M306.769 35.4222H305.461V44.855H306.769V35.4222Z" fill="#455A64"/>
<path d="M296.602 35.4222H295.294V44.855H296.602V35.4222Z" fill="#455A64"/>
<path d="M305.255 35.1619L295.498 44.3729L296.395 45.3252L306.152 36.1142L305.255 35.1619Z" fill="#455A64"/>
<path d="M286.22 35.1749L285.323 36.1274L295.082 45.3367L295.979 44.3842L286.22 35.1749Z" fill="#263238"/>
<path d="M296.602 35.4222H295.294V44.855H296.602V35.4222Z" fill="#455A64"/>
<path d="M286.428 35.4222H285.121V44.855H286.428V35.4222Z" fill="#455A64"/>
<path d="M295.087 35.1672L285.33 44.3782L286.227 45.3305L295.985 36.1195L295.087 35.1672Z" fill="#455A64"/>
<path d="M284.737 32.9542H278.823V46.5601H284.737V32.9542Z" fill="#263238"/>
<path d="M290.658 32.9542H284.737V46.5601H290.658V32.9542Z" fill="#455A64"/>
<path d="M298.479 46.5603H287.125V53.3452H298.479V46.5603Z" fill="#455A64"/>
<path d="M408.608 43.1498H284.737V46.5603H408.608V43.1498Z" fill="#455A64"/>
<path d="M401.542 36.3647H284.737V32.9542H398.213L401.542 36.3647Z" fill="#455A64"/>
<path d="M400.521 35.4222H399.214V44.855H400.521V35.4222Z" fill="#455A64"/>
<path d="M380.319 106.459C381.105 105.367 381.945 104.31 382.785 103.265C383.624 102.22 384.494 101.194 385.37 100.179L385.604 99.9027L385.826 100.185C387.121 101.8 388.411 103.415 389.665 105.06L391.548 107.534C392.148 108.375 392.748 109.197 393.348 110.044C392.646 109.282 391.974 108.495 391.29 107.72L389.275 105.355C387.937 103.776 386.636 102.172 385.34 100.551H385.796C384.908 101.56 384.026 102.569 383.103 103.553C382.179 104.538 381.291 105.523 380.319 106.459Z" fill="#263238"/>
<path d="M380.589 47.9532H379.282V88.8308H380.589V47.9532Z" fill="#263238"/>
<path d="M391.65 48.3856H390.343V89.2631H391.65V48.3856Z" fill="#263238"/>
<path d="M394.169 46.5603H376.936V49.3403H394.169V46.5603Z" fill="#455A64"/>
<path d="M386.209 92.079L386.065 94.9791L385.645 94.4808C386.11 94.5981 386.554 94.7886 386.959 95.0452C387.381 95.2988 387.736 95.6485 387.997 96.0659C388.246 96.4852 388.372 96.9666 388.359 97.4543C388.346 97.9421 388.196 98.4163 387.925 98.8219C387.671 99.2037 387.324 99.5144 386.917 99.7245C386.51 99.9346 386.055 100.037 385.597 100.023C385.161 99.9889 384.738 99.8542 384.362 99.6292C383.987 99.4041 383.668 99.0949 383.432 98.7258C383.688 99.054 384.015 99.3186 384.39 99.4988C384.765 99.679 385.176 99.77 385.592 99.7646C385.984 99.7415 386.364 99.6192 386.697 99.4092C387.029 99.1992 387.303 98.9084 387.493 98.5637C387.668 98.2401 387.749 97.8734 387.726 97.506C387.702 97.1385 387.576 96.785 387.361 96.4862C386.872 95.9318 386.198 95.5735 385.466 95.4775L385.07 95.4175V94.9791L384.926 92.079H386.209Z" fill="#263238"/>
<path d="M394.169 86.1229V90.8603L385.556 92.9078L376.942 90.8603V86.1229H394.169Z" fill="#455A64"/>
<path d="M380.89 88.9029C380.89 89.1014 380.831 89.2955 380.72 89.4606C380.61 89.6256 380.453 89.7541 380.27 89.8298C380.086 89.9055 379.885 89.925 379.69 89.8859C379.496 89.8467 379.317 89.7506 379.178 89.6098C379.038 89.4689 378.943 89.2897 378.905 89.0948C378.867 88.8999 378.887 88.6981 378.964 88.515C379.041 88.3319 379.17 88.1757 379.336 88.0662C379.501 87.9568 379.696 87.899 379.894 87.9002C380.025 87.9002 380.155 87.9261 380.276 87.9766C380.398 88.0271 380.508 88.101 380.6 88.1942C380.693 88.2874 380.766 88.398 380.816 88.5196C380.865 88.6412 380.89 88.7715 380.89 88.9029Z" fill="#263238"/>
<path d="M392.221 88.9029C392.221 89.1012 392.162 89.295 392.052 89.4599C391.942 89.6248 391.785 89.7534 391.602 89.8293C391.419 89.9051 391.218 89.925 391.024 89.8863C390.829 89.8476 390.651 89.7521 390.511 89.6119C390.371 89.4717 390.275 89.293 390.237 89.0985C390.198 88.904 390.218 88.7024 390.294 88.5191C390.369 88.3359 390.498 88.1793 390.662 88.0691C390.827 87.9589 391.021 87.9001 391.219 87.9001C391.351 87.9001 391.481 87.9261 391.602 87.9765C391.724 88.0269 391.834 88.1007 391.927 88.1938C392.02 88.287 392.094 88.3975 392.144 88.5191C392.195 88.6408 392.221 88.7712 392.221 88.9029Z" fill="#263238"/>
<path d="M313.637 17.289C313.638 17.7263 313.51 18.1541 313.268 18.5183C313.026 18.8824 312.682 19.1666 312.278 19.3347C311.875 19.5029 311.431 19.5475 311.003 19.4629C310.574 19.3783 310.18 19.1684 309.871 18.8596C309.562 18.5508 309.351 18.1571 309.265 17.7283C309.179 17.2995 309.223 16.855 309.39 16.4509C309.557 16.0468 309.839 15.7013 310.203 15.4582C310.566 15.2152 310.993 15.0855 311.43 15.0854C312.014 15.0854 312.574 15.3174 312.988 15.7305C313.402 16.1436 313.635 16.7041 313.637 17.289Z" fill="#A6A6A6"/>
<path d="M312.461 17.2889C312.461 17.4931 312.4 17.6928 312.287 17.8626C312.174 18.0324 312.012 18.1648 311.824 18.243C311.635 18.3211 311.428 18.3416 311.228 18.3018C311.028 18.2619 310.844 18.1635 310.7 18.0191C310.555 17.8747 310.457 17.6907 310.417 17.4903C310.377 17.29 310.398 17.0823 310.476 16.8936C310.554 16.7049 310.686 16.5436 310.856 16.4302C311.026 16.3167 311.225 16.2561 311.429 16.2561C311.703 16.2561 311.965 16.3649 312.159 16.5586C312.352 16.7523 312.461 17.0149 312.461 17.2889Z" fill="#455A64"/>
<path d="M320.859 162.09H301.826V166.593H320.859V162.09Z" fill="#263238"/>
<path d="M324.985 166.593H297.705V175.425H324.985V166.593Z" fill="#455A64"/>
<path d="M322.412 54.4199H302.018V31.8676H315.322C316.449 31.8693 317.536 32.2797 318.383 33.0227C319.23 33.7658 319.779 34.7911 319.929 35.9085L322.412 54.4199Z" fill="#FF725E"/>
<path d="M316.87 47.5748H307.321C307.217 47.5764 307.114 47.5623 307.015 47.5328C306.794 47.465 306.6 47.3282 306.462 47.1425C306.324 46.9567 306.248 46.7316 306.247 46.5V34.4433H313.037C313.267 34.4412 313.496 34.4633 313.721 34.5094C314.229 34.5976 314.713 34.7897 315.143 35.0738C315.439 35.2752 315.706 35.5178 315.934 35.7943C316.397 36.3472 316.694 37.0194 316.792 37.7337L317.932 46.3559C317.952 46.5077 317.94 46.662 317.896 46.8087C317.852 46.9554 317.778 47.091 317.677 47.2064C317.576 47.3218 317.452 47.4144 317.313 47.4779C317.174 47.5415 317.023 47.5745 316.87 47.5748Z" fill="#263238"/>
<g opacity="0.4">
<path opacity="0.4" d="M315.875 41.2823C315.874 41.5686 315.76 41.8429 315.557 42.0449L310.033 47.5749H307.351C307.248 47.5765 307.145 47.5623 307.045 47.5328L314.045 40.5258C314.197 40.3866 314.385 40.2938 314.587 40.2585C314.79 40.2231 314.998 40.2467 315.188 40.3263C315.377 40.406 315.54 40.5384 315.656 40.7079C315.773 40.8773 315.838 41.0767 315.845 41.2823H315.875Z" fill="white"/>
<path opacity="0.4" d="M315.935 35.8064L306.277 45.4914V43.9783L315.173 35.0739C315.46 35.2812 315.716 35.5278 315.935 35.8064Z" fill="white"/>
<path opacity="0.4" d="M313.721 34.5095L308.215 40.0095C308.061 40.1423 307.863 40.212 307.66 40.2046C307.457 40.1972 307.265 40.1132 307.121 39.9695C306.978 39.8258 306.894 39.633 306.886 39.4299C306.879 39.2268 306.949 39.0285 307.081 38.8746L311.52 34.4374H313.038C313.267 34.4373 313.497 34.4614 313.721 34.5095Z" fill="white"/>
</g>
<path d="M416.236 116.809L361.391 100.807L351.516 134.721L406.361 150.723L416.236 116.809Z" fill="white"/>
<path d="M350.664 137.226V137.136L361.275 100.689L361.371 100.719L416.303 116.751L405.662 153.287L405.572 153.257L350.664 137.226ZM361.461 100.93L350.916 137.1L405.572 153.047L416.111 116.865L361.461 100.93Z" fill="#DBDBDB"/>
<path d="M389.737 128.808C389.377 130.04 388.661 131.137 387.678 131.962C386.695 132.786 385.49 133.301 384.215 133.44C382.941 133.579 381.653 133.336 380.516 132.743C379.379 132.15 378.443 131.232 377.827 130.107C377.211 128.981 376.941 127.698 377.054 126.419C377.166 125.141 377.654 123.924 378.457 122.923C379.26 121.922 380.341 121.182 381.564 120.797C382.787 120.411 384.097 120.397 385.328 120.756C386.146 120.995 386.909 121.392 387.573 121.926C388.237 122.46 388.79 123.12 389.199 123.867C389.608 124.615 389.867 125.436 389.959 126.284C390.051 127.132 389.976 127.989 389.737 128.808Z" fill="#FF725E"/>
<path d="M380.116 128.856L381.651 123.59L387.47 128.141L380.116 128.856Z" fill="white"/>
<path d="M406.483 150.324L351.638 134.322L350.81 137.164L405.655 153.166L406.483 150.324Z" fill="#EBEBEB"/>
<path d="M400.83 149.757L354.669 136.289L354.424 137.13L400.585 150.599L400.83 149.757Z" fill="#C7C7C7"/>
<path d="M353.771 135.509L351.98 134.987L351.458 136.779L353.249 137.302L353.771 135.509Z" fill="#C7C7C7"/>
<path d="M352.647 135.532L352.308 135.433L351.972 136.586L352.312 136.685L352.647 135.532Z" fill="#A6A6A6"/>
<path d="M353.258 135.713L352.918 135.614L352.583 136.766L352.922 136.866L353.258 135.713Z" fill="#A6A6A6"/>
<path d="M403.495 150.021L401.704 149.499L401.182 151.291L402.973 151.814L403.495 150.021Z" fill="#C7C7C7"/>
<path d="M402.134 150.359L401.782 150.256L401.655 150.694L402.006 150.797L402.134 150.359Z" fill="#A6A6A6"/>
<path d="M402.298 151.192L401.848 150.754L401.974 150.321L402.585 150.195L402.298 151.192Z" fill="#A6A6A6"/>
<path d="M402.801 150.441L402.903 150.381C402.942 150.451 402.967 150.528 402.976 150.607C402.985 150.686 402.978 150.766 402.956 150.843C402.933 150.92 402.896 150.991 402.846 151.053C402.796 151.115 402.734 151.166 402.663 151.204L402.604 151.102C402.716 151.04 402.8 150.936 402.837 150.812C402.874 150.689 402.861 150.555 402.801 150.441Z" fill="#A6A6A6"/>
<path d="M402.549 150.995L402.489 150.893C402.519 150.878 402.545 150.857 402.565 150.831C402.586 150.805 402.601 150.775 402.609 150.743C402.623 150.714 402.63 150.682 402.63 150.65C402.63 150.618 402.623 150.586 402.609 150.557L402.711 150.497C402.735 150.54 402.749 150.587 402.754 150.636C402.758 150.685 402.753 150.734 402.738 150.781C402.722 150.827 402.698 150.871 402.666 150.907C402.633 150.944 402.594 150.974 402.549 150.995Z" fill="#A6A6A6"/>
<path d="M405.634 150.644L403.843 150.121L403.321 151.914L405.112 152.437L405.634 150.644Z" fill="#C7C7C7"/>
<path d="M404.785 150.711L404.042 150.494L403.825 151.238L404.568 151.454L404.785 150.711Z" fill="#A6A6A6"/>
<path d="M405.117 151.367L404.374 151.15L404.158 151.894L404.9 152.111L405.117 151.367Z" fill="white"/>
<path d="M363.183 139.237C363.14 139.383 363.13 139.537 363.153 139.688L354.413 137.136L354.659 136.289L363.405 138.841C363.3 138.953 363.224 139.089 363.183 139.237Z" fill="#A6A6A6"/>
<path d="M365.102 139.796C365.062 139.943 364.988 140.078 364.886 140.192C364.759 140.33 364.596 140.43 364.415 140.481C364.234 140.531 364.043 140.53 363.863 140.478C363.683 140.425 363.521 140.323 363.395 140.184C363.27 140.044 363.186 139.872 363.152 139.687C363.13 139.537 363.14 139.383 363.182 139.237C363.223 139.089 363.3 138.953 363.404 138.841C363.529 138.702 363.69 138.601 363.87 138.55C364.049 138.499 364.239 138.5 364.418 138.553C364.598 138.605 364.76 138.707 364.885 138.847C365.011 138.987 365.094 139.16 365.126 139.345C365.151 139.495 365.142 139.649 365.102 139.796Z" fill="#A6A6A6"/>
</svg>
